<?xml version="1.0" encoding="UTF-8"?>
<svg xmlns="http://www.w3.org/2000/svg" xmlns:xlink="http://www.w3.org/1999/xlink" width="2400" height="2400" viewBox="0 0 2400 2400">
<defs>
<clipPath id="clip-0">
<path clip-rule="nonzero" d="M 61.726562 0 L 110.742188 0 L 110.742188 2400 L 61.726562 2400 Z M 61.726562 0 "/>
</clipPath>
<linearGradient id="linear-pattern-0" gradientUnits="userSpaceOnUse" x1="0.0740725" y1="0" x2="0.895127" y2="0" gradientTransform="matrix(39.9373, 2923.34, -2923.34, 39.9373, 67.6219, -216.66)">
<stop offset="0" stop-color="rgb(98.429871%, 98.429871%, 98.429871%)" stop-opacity="1"/>
<stop offset="0.5" stop-color="rgb(98.429871%, 98.429871%, 98.429871%)" stop-opacity="1"/>
<stop offset="0.5625" stop-color="rgb(98.429871%, 98.429871%, 98.429871%)" stop-opacity="1"/>
<stop offset="0.59375" stop-color="rgb(98.376465%, 98.376465%, 98.376465%)" stop-opacity="1"/>
<stop offset="0.625" stop-color="rgb(98.179626%, 98.179626%, 98.179626%)" stop-opacity="1"/>
<stop offset="0.75" stop-color="rgb(98.03772%, 98.03772%, 98.03772%)" stop-opacity="1"/>
<stop offset="1" stop-color="rgb(98.03772%, 98.03772%, 98.03772%)" stop-opacity="1"/>
</linearGradient>
<clipPath id="clip-1">
<path clip-rule="nonzero" d="M 167.796875 0 L 216.816406 0 L 216.816406 2400 L 167.796875 2400 Z M 167.796875 0 "/>
</clipPath>
<linearGradient id="linear-pattern-1" gradientUnits="userSpaceOnUse" x1="0.0740725" y1="0" x2="0.895127" y2="0" gradientTransform="matrix(39.9373, 2923.34, -2923.34, 39.9373, 173.695, -216.66)">
<stop offset="0" stop-color="rgb(98.429871%, 98.429871%, 98.429871%)" stop-opacity="1"/>
<stop offset="0.5" stop-color="rgb(98.429871%, 98.429871%, 98.429871%)" stop-opacity="1"/>
<stop offset="0.5625" stop-color="rgb(98.429871%, 98.429871%, 98.429871%)" stop-opacity="1"/>
<stop offset="0.59375" stop-color="rgb(98.376465%, 98.376465%, 98.376465%)" stop-opacity="1"/>
<stop offset="0.625" stop-color="rgb(98.179626%, 98.179626%, 98.179626%)" stop-opacity="1"/>
<stop offset="0.75" stop-color="rgb(98.03772%, 98.03772%, 98.03772%)" stop-opacity="1"/>
<stop offset="1" stop-color="rgb(98.03772%, 98.03772%, 98.03772%)" stop-opacity="1"/>
</linearGradient>
<clipPath id="clip-2">
<path clip-rule="nonzero" d="M 273.871094 0 L 322.890625 0 L 322.890625 2400 L 273.871094 2400 Z M 273.871094 0 "/>
</clipPath>
<linearGradient id="linear-pattern-2" gradientUnits="userSpaceOnUse" x1="0.0740725" y1="0" x2="0.895127" y2="0" gradientTransform="matrix(39.9373, 2923.34, -2923.34, 39.9373, 279.768, -216.66)">
<stop offset="0" stop-color="rgb(98.429871%, 98.429871%, 98.429871%)" stop-opacity="1"/>
<stop offset="0.5" stop-color="rgb(98.429871%, 98.429871%, 98.429871%)" stop-opacity="1"/>
<stop offset="0.5625" stop-color="rgb(98.429871%, 98.429871%, 98.429871%)" stop-opacity="1"/>
<stop offset="0.59375" stop-color="rgb(98.376465%, 98.376465%, 98.376465%)" stop-opacity="1"/>
<stop offset="0.625" stop-color="rgb(98.179626%, 98.179626%, 98.179626%)" stop-opacity="1"/>
<stop offset="0.75" stop-color="rgb(98.03772%, 98.03772%, 98.03772%)" stop-opacity="1"/>
<stop offset="1" stop-color="rgb(98.03772%, 98.03772%, 98.03772%)" stop-opacity="1"/>
</linearGradient>
<clipPath id="clip-3">
<path clip-rule="nonzero" d="M 379.945312 0 L 428.960938 0 L 428.960938 2400 L 379.945312 2400 Z M 379.945312 0 "/>
</clipPath>
<linearGradient id="linear-pattern-3" gradientUnits="userSpaceOnUse" x1="0.0740725" y1="0" x2="0.895127" y2="0" gradientTransform="matrix(39.9373, 2923.34, -2923.34, 39.9373, 385.841, -216.66)">
<stop offset="0" stop-color="rgb(98.429871%, 98.429871%, 98.429871%)" stop-opacity="1"/>
<stop offset="0.5" stop-color="rgb(98.429871%, 98.429871%, 98.429871%)" stop-opacity="1"/>
<stop offset="0.5625" stop-color="rgb(98.429871%, 98.429871%, 98.429871%)" stop-opacity="1"/>
<stop offset="0.59375" stop-color="rgb(98.376465%, 98.376465%, 98.376465%)" stop-opacity="1"/>
<stop offset="0.625" stop-color="rgb(98.179626%, 98.179626%, 98.179626%)" stop-opacity="1"/>
<stop offset="0.75" stop-color="rgb(98.03772%, 98.03772%, 98.03772%)" stop-opacity="1"/>
<stop offset="1" stop-color="rgb(98.03772%, 98.03772%, 98.03772%)" stop-opacity="1"/>
</linearGradient>
<clipPath id="clip-4">
<path clip-rule="nonzero" d="M 486.015625 0 L 535.035156 0 L 535.035156 2400 L 486.015625 2400 Z M 486.015625 0 "/>
</clipPath>
<linearGradient id="linear-pattern-4" gradientUnits="userSpaceOnUse" x1="0.0740725" y1="0" x2="0.895127" y2="0" gradientTransform="matrix(39.9373, 2923.34, -2923.34, 39.9373, 491.914, -216.66)">
<stop offset="0" stop-color="rgb(98.429871%, 98.429871%, 98.429871%)" stop-opacity="1"/>
<stop offset="0.5" stop-color="rgb(98.429871%, 98.429871%, 98.429871%)" stop-opacity="1"/>
<stop offset="0.5625" stop-color="rgb(98.429871%, 98.429871%, 98.429871%)" stop-opacity="1"/>
<stop offset="0.59375" stop-color="rgb(98.376465%, 98.376465%, 98.376465%)" stop-opacity="1"/>
<stop offset="0.625" stop-color="rgb(98.179626%, 98.179626%, 98.179626%)" stop-opacity="1"/>
<stop offset="0.75" stop-color="rgb(98.03772%, 98.03772%, 98.03772%)" stop-opacity="1"/>
<stop offset="1" stop-color="rgb(98.03772%, 98.03772%, 98.03772%)" stop-opacity="1"/>
</linearGradient>
<clipPath id="clip-5">
<path clip-rule="nonzero" d="M 592.089844 0 L 641.109375 0 L 641.109375 2400 L 592.089844 2400 Z M 592.089844 0 "/>
</clipPath>
<linearGradient id="linear-pattern-5" gradientUnits="userSpaceOnUse" x1="0.0740725" y1="0" x2="0.895127" y2="0" gradientTransform="matrix(39.9373, 2923.34, -2923.34, 39.9373, 597.987, -216.66)">
<stop offset="0" stop-color="rgb(98.429871%, 98.429871%, 98.429871%)" stop-opacity="1"/>
<stop offset="0.5" stop-color="rgb(98.429871%, 98.429871%, 98.429871%)" stop-opacity="1"/>
<stop offset="0.5625" stop-color="rgb(98.429871%, 98.429871%, 98.429871%)" stop-opacity="1"/>
<stop offset="0.59375" stop-color="rgb(98.376465%, 98.376465%, 98.376465%)" stop-opacity="1"/>
<stop offset="0.625" stop-color="rgb(98.179626%, 98.179626%, 98.179626%)" stop-opacity="1"/>
<stop offset="0.75" stop-color="rgb(98.03772%, 98.03772%, 98.03772%)" stop-opacity="1"/>
<stop offset="1" stop-color="rgb(98.03772%, 98.03772%, 98.03772%)" stop-opacity="1"/>
</linearGradient>
<clipPath id="clip-6">
<path clip-rule="nonzero" d="M 698.160156 0 L 747.179688 0 L 747.179688 2400 L 698.160156 2400 Z M 698.160156 0 "/>
</clipPath>
<linearGradient id="linear-pattern-6" gradientUnits="userSpaceOnUse" x1="0.0740725" y1="0" x2="0.895127" y2="0" gradientTransform="matrix(39.9373, 2923.34, -2923.34, 39.9373, 704.06, -216.66)">
<stop offset="0" stop-color="rgb(98.429871%, 98.429871%, 98.429871%)" stop-opacity="1"/>
<stop offset="0.5" stop-color="rgb(98.429871%, 98.429871%, 98.429871%)" stop-opacity="1"/>
<stop offset="0.5625" stop-color="rgb(98.429871%, 98.429871%, 98.429871%)" stop-opacity="1"/>
<stop offset="0.59375" stop-color="rgb(98.376465%, 98.376465%, 98.376465%)" stop-opacity="1"/>
<stop offset="0.625" stop-color="rgb(98.179626%, 98.179626%, 98.179626%)" stop-opacity="1"/>
<stop offset="0.75" stop-color="rgb(98.03772%, 98.03772%, 98.03772%)" stop-opacity="1"/>
<stop offset="1" stop-color="rgb(98.03772%, 98.03772%, 98.03772%)" stop-opacity="1"/>
</linearGradient>
<clipPath id="clip-7">
<path clip-rule="nonzero" d="M 804.234375 0 L 853.253906 0 L 853.253906 2400 L 804.234375 2400 Z M 804.234375 0 "/>
</clipPath>
<linearGradient id="linear-pattern-7" gradientUnits="userSpaceOnUse" x1="0.0740725" y1="0" x2="0.895127" y2="0" gradientTransform="matrix(39.9373, 2923.34, -2923.34, 39.9373, 810.133, -216.66)">
<stop offset="0" stop-color="rgb(98.429871%, 98.429871%, 98.429871%)" stop-opacity="1"/>
<stop offset="0.5" stop-color="rgb(98.429871%, 98.429871%, 98.429871%)" stop-opacity="1"/>
<stop offset="0.5625" stop-color="rgb(98.429871%, 98.429871%, 98.429871%)" stop-opacity="1"/>
<stop offset="0.59375" stop-color="rgb(98.376465%, 98.376465%, 98.376465%)" stop-opacity="1"/>
<stop offset="0.625" stop-color="rgb(98.179626%, 98.179626%, 98.179626%)" stop-opacity="1"/>
<stop offset="0.75" stop-color="rgb(98.03772%, 98.03772%, 98.03772%)" stop-opacity="1"/>
<stop offset="1" stop-color="rgb(98.03772%, 98.03772%, 98.03772%)" stop-opacity="1"/>
</linearGradient>
<clipPath id="clip-8">
<path clip-rule="nonzero" d="M 910.308594 0 L 959.328125 0 L 959.328125 2400 L 910.308594 2400 Z M 910.308594 0 "/>
</clipPath>
<linearGradient id="linear-pattern-8" gradientUnits="userSpaceOnUse" x1="0.0740725" y1="0" x2="0.895127" y2="0" gradientTransform="matrix(39.9373, 2923.34, -2923.34, 39.9373, 916.205, -216.66)">
<stop offset="0" stop-color="rgb(98.429871%, 98.429871%, 98.429871%)" stop-opacity="1"/>
<stop offset="0.5" stop-color="rgb(98.429871%, 98.429871%, 98.429871%)" stop-opacity="1"/>
<stop offset="0.5625" stop-color="rgb(98.429871%, 98.429871%, 98.429871%)" stop-opacity="1"/>
<stop offset="0.59375" stop-color="rgb(98.376465%, 98.376465%, 98.376465%)" stop-opacity="1"/>
<stop offset="0.625" stop-color="rgb(98.179626%, 98.179626%, 98.179626%)" stop-opacity="1"/>
<stop offset="0.75" stop-color="rgb(98.03772%, 98.03772%, 98.03772%)" stop-opacity="1"/>
<stop offset="1" stop-color="rgb(98.03772%, 98.03772%, 98.03772%)" stop-opacity="1"/>
</linearGradient>
<clipPath id="clip-9">
<path clip-rule="nonzero" d="M 1016.378906 0 L 1065.398438 0 L 1065.398438 2400 L 1016.378906 2400 Z M 1016.378906 0 "/>
</clipPath>
<linearGradient id="linear-pattern-9" gradientUnits="userSpaceOnUse" x1="0.0740725" y1="0" x2="0.895127" y2="0" gradientTransform="matrix(39.9373, 2923.34, -2923.34, 39.9373, 1022.28, -216.66)">
<stop offset="0" stop-color="rgb(98.429871%, 98.429871%, 98.429871%)" stop-opacity="1"/>
<stop offset="0.5" stop-color="rgb(98.429871%, 98.429871%, 98.429871%)" stop-opacity="1"/>
<stop offset="0.5625" stop-color="rgb(98.429871%, 98.429871%, 98.429871%)" stop-opacity="1"/>
<stop offset="0.59375" stop-color="rgb(98.376465%, 98.376465%, 98.376465%)" stop-opacity="1"/>
<stop offset="0.625" stop-color="rgb(98.179626%, 98.179626%, 98.179626%)" stop-opacity="1"/>
<stop offset="0.75" stop-color="rgb(98.03772%, 98.03772%, 98.03772%)" stop-opacity="1"/>
<stop offset="1" stop-color="rgb(98.03772%, 98.03772%, 98.03772%)" stop-opacity="1"/>
</linearGradient>
<clipPath id="clip-10">
<path clip-rule="nonzero" d="M 1122.449219 0 L 1171.46875 0 L 1171.46875 2400 L 1122.449219 2400 Z M 1122.449219 0 "/>
</clipPath>
<linearGradient id="linear-pattern-10" gradientUnits="userSpaceOnUse" x1="0.0740725" y1="0" x2="0.895127" y2="0" gradientTransform="matrix(39.9373, 2923.34, -2923.34, 39.9373, 1128.35, -216.66)">
<stop offset="0" stop-color="rgb(98.429871%, 98.429871%, 98.429871%)" stop-opacity="1"/>
<stop offset="0.5" stop-color="rgb(98.429871%, 98.429871%, 98.429871%)" stop-opacity="1"/>
<stop offset="0.5625" stop-color="rgb(98.429871%, 98.429871%, 98.429871%)" stop-opacity="1"/>
<stop offset="0.59375" stop-color="rgb(98.376465%, 98.376465%, 98.376465%)" stop-opacity="1"/>
<stop offset="0.625" stop-color="rgb(98.179626%, 98.179626%, 98.179626%)" stop-opacity="1"/>
<stop offset="0.75" stop-color="rgb(98.03772%, 98.03772%, 98.03772%)" stop-opacity="1"/>
<stop offset="1" stop-color="rgb(98.03772%, 98.03772%, 98.03772%)" stop-opacity="1"/>
</linearGradient>
<clipPath id="clip-11">
<path clip-rule="nonzero" d="M 1228.53125 0 L 1277.550781 0 L 1277.550781 2400 L 1228.53125 2400 Z M 1228.53125 0 "/>
</clipPath>
<linearGradient id="linear-pattern-11" gradientUnits="userSpaceOnUse" x1="0.0740725" y1="0" x2="0.895127" y2="0" gradientTransform="matrix(39.9373, 2923.34, -2923.34, 39.9373, 1234.42, -216.66)">
<stop offset="0" stop-color="rgb(98.429871%, 98.429871%, 98.429871%)" stop-opacity="1"/>
<stop offset="0.5" stop-color="rgb(98.429871%, 98.429871%, 98.429871%)" stop-opacity="1"/>
<stop offset="0.5625" stop-color="rgb(98.429871%, 98.429871%, 98.429871%)" stop-opacity="1"/>
<stop offset="0.59375" stop-color="rgb(98.376465%, 98.376465%, 98.376465%)" stop-opacity="1"/>
<stop offset="0.625" stop-color="rgb(98.179626%, 98.179626%, 98.179626%)" stop-opacity="1"/>
<stop offset="0.75" stop-color="rgb(98.03772%, 98.03772%, 98.03772%)" stop-opacity="1"/>
<stop offset="1" stop-color="rgb(98.03772%, 98.03772%, 98.03772%)" stop-opacity="1"/>
</linearGradient>
<clipPath id="clip-12">
<path clip-rule="nonzero" d="M 1334.601562 0 L 1383.621094 0 L 1383.621094 2400 L 1334.601562 2400 Z M 1334.601562 0 "/>
</clipPath>
<linearGradient id="linear-pattern-12" gradientUnits="userSpaceOnUse" x1="0.0740725" y1="0" x2="0.895127" y2="0" gradientTransform="matrix(39.9373, 2923.34, -2923.34, 39.9373, 1340.5, -216.66)">
<stop offset="0" stop-color="rgb(98.429871%, 98.429871%, 98.429871%)" stop-opacity="1"/>
<stop offset="0.5" stop-color="rgb(98.429871%, 98.429871%, 98.429871%)" stop-opacity="1"/>
<stop offset="0.5625" stop-color="rgb(98.429871%, 98.429871%, 98.429871%)" stop-opacity="1"/>
<stop offset="0.59375" stop-color="rgb(98.376465%, 98.376465%, 98.376465%)" stop-opacity="1"/>
<stop offset="0.625" stop-color="rgb(98.179626%, 98.179626%, 98.179626%)" stop-opacity="1"/>
<stop offset="0.75" stop-color="rgb(98.03772%, 98.03772%, 98.03772%)" stop-opacity="1"/>
<stop offset="1" stop-color="rgb(98.03772%, 98.03772%, 98.03772%)" stop-opacity="1"/>
</linearGradient>
<clipPath id="clip-13">
<path clip-rule="nonzero" d="M 1440.671875 0 L 1489.691406 0 L 1489.691406 2400 L 1440.671875 2400 Z M 1440.671875 0 "/>
</clipPath>
<linearGradient id="linear-pattern-13" gradientUnits="userSpaceOnUse" x1="0.0740725" y1="0" x2="0.895127" y2="0" gradientTransform="matrix(39.9373, 2923.34, -2923.34, 39.9373, 1446.57, -216.66)">
<stop offset="0" stop-color="rgb(98.429871%, 98.429871%, 98.429871%)" stop-opacity="1"/>
<stop offset="0.5" stop-color="rgb(98.429871%, 98.429871%, 98.429871%)" stop-opacity="1"/>
<stop offset="0.5625" stop-color="rgb(98.429871%, 98.429871%, 98.429871%)" stop-opacity="1"/>
<stop offset="0.59375" stop-color="rgb(98.376465%, 98.376465%, 98.376465%)" stop-opacity="1"/>
<stop offset="0.625" stop-color="rgb(98.179626%, 98.179626%, 98.179626%)" stop-opacity="1"/>
<stop offset="0.75" stop-color="rgb(98.03772%, 98.03772%, 98.03772%)" stop-opacity="1"/>
<stop offset="1" stop-color="rgb(98.03772%, 98.03772%, 98.03772%)" stop-opacity="1"/>
</linearGradient>
<clipPath id="clip-14">
<path clip-rule="nonzero" d="M 1546.75 0 L 1595.761719 0 L 1595.761719 2400 L 1546.75 2400 Z M 1546.75 0 "/>
</clipPath>
<linearGradient id="linear-pattern-14" gradientUnits="userSpaceOnUse" x1="0.0740725" y1="0" x2="0.895127" y2="0" gradientTransform="matrix(39.9373, 2923.34, -2923.34, 39.9373, 1552.64, -216.66)">
<stop offset="0" stop-color="rgb(98.429871%, 98.429871%, 98.429871%)" stop-opacity="1"/>
<stop offset="0.5" stop-color="rgb(98.429871%, 98.429871%, 98.429871%)" stop-opacity="1"/>
<stop offset="0.5625" stop-color="rgb(98.429871%, 98.429871%, 98.429871%)" stop-opacity="1"/>
<stop offset="0.59375" stop-color="rgb(98.376465%, 98.376465%, 98.376465%)" stop-opacity="1"/>
<stop offset="0.625" stop-color="rgb(98.179626%, 98.179626%, 98.179626%)" stop-opacity="1"/>
<stop offset="0.75" stop-color="rgb(98.03772%, 98.03772%, 98.03772%)" stop-opacity="1"/>
<stop offset="1" stop-color="rgb(98.03772%, 98.03772%, 98.03772%)" stop-opacity="1"/>
</linearGradient>
<clipPath id="clip-15">
<path clip-rule="nonzero" d="M 1652.820312 0 L 1701.839844 0 L 1701.839844 2400 L 1652.820312 2400 Z M 1652.820312 0 "/>
</clipPath>
<linearGradient id="linear-pattern-15" gradientUnits="userSpaceOnUse" x1="0.0740725" y1="0" x2="0.895127" y2="0" gradientTransform="matrix(39.9373, 2923.34, -2923.34, 39.9373, 1658.72, -216.66)">
<stop offset="0" stop-color="rgb(98.429871%, 98.429871%, 98.429871%)" stop-opacity="1"/>
<stop offset="0.5" stop-color="rgb(98.429871%, 98.429871%, 98.429871%)" stop-opacity="1"/>
<stop offset="0.5625" stop-color="rgb(98.429871%, 98.429871%, 98.429871%)" stop-opacity="1"/>
<stop offset="0.59375" stop-color="rgb(98.376465%, 98.376465%, 98.376465%)" stop-opacity="1"/>
<stop offset="0.625" stop-color="rgb(98.179626%, 98.179626%, 98.179626%)" stop-opacity="1"/>
<stop offset="0.75" stop-color="rgb(98.03772%, 98.03772%, 98.03772%)" stop-opacity="1"/>
<stop offset="1" stop-color="rgb(98.03772%, 98.03772%, 98.03772%)" stop-opacity="1"/>
</linearGradient>
<clipPath id="clip-16">
<path clip-rule="nonzero" d="M 1758.890625 0 L 1807.910156 0 L 1807.910156 2400 L 1758.890625 2400 Z M 1758.890625 0 "/>
</clipPath>
<linearGradient id="linear-pattern-16" gradientUnits="userSpaceOnUse" x1="0.0740725" y1="0" x2="0.895127" y2="0" gradientTransform="matrix(39.9373, 2923.34, -2923.34, 39.9373, 1764.79, -216.66)">
<stop offset="0" stop-color="rgb(98.429871%, 98.429871%, 98.429871%)" stop-opacity="1"/>
<stop offset="0.5" stop-color="rgb(98.429871%, 98.429871%, 98.429871%)" stop-opacity="1"/>
<stop offset="0.5625" stop-color="rgb(98.429871%, 98.429871%, 98.429871%)" stop-opacity="1"/>
<stop offset="0.59375" stop-color="rgb(98.376465%, 98.376465%, 98.376465%)" stop-opacity="1"/>
<stop offset="0.625" stop-color="rgb(98.179626%, 98.179626%, 98.179626%)" stop-opacity="1"/>
<stop offset="0.75" stop-color="rgb(98.03772%, 98.03772%, 98.03772%)" stop-opacity="1"/>
<stop offset="1" stop-color="rgb(98.03772%, 98.03772%, 98.03772%)" stop-opacity="1"/>
</linearGradient>
<clipPath id="clip-17">
<path clip-rule="nonzero" d="M 1864.960938 0 L 1913.980469 0 L 1913.980469 2400 L 1864.960938 2400 Z M 1864.960938 0 "/>
</clipPath>
<linearGradient id="linear-pattern-17" gradientUnits="userSpaceOnUse" x1="0.0740725" y1="0" x2="0.895127" y2="0" gradientTransform="matrix(39.9373, 2923.34, -2923.34, 39.9373, 1870.86, -216.66)">
<stop offset="0" stop-color="rgb(98.429871%, 98.429871%, 98.429871%)" stop-opacity="1"/>
<stop offset="0.5" stop-color="rgb(98.429871%, 98.429871%, 98.429871%)" stop-opacity="1"/>
<stop offset="0.5625" stop-color="rgb(98.429871%, 98.429871%, 98.429871%)" stop-opacity="1"/>
<stop offset="0.59375" stop-color="rgb(98.376465%, 98.376465%, 98.376465%)" stop-opacity="1"/>
<stop offset="0.625" stop-color="rgb(98.179626%, 98.179626%, 98.179626%)" stop-opacity="1"/>
<stop offset="0.75" stop-color="rgb(98.03772%, 98.03772%, 98.03772%)" stop-opacity="1"/>
<stop offset="1" stop-color="rgb(98.03772%, 98.03772%, 98.03772%)" stop-opacity="1"/>
</linearGradient>
<clipPath id="clip-18">
<path clip-rule="nonzero" d="M 1971.039062 0 L 2020.058594 0 L 2020.058594 2400 L 1971.039062 2400 Z M 1971.039062 0 "/>
</clipPath>
<linearGradient id="linear-pattern-18" gradientUnits="userSpaceOnUse" x1="0.0740725" y1="0" x2="0.895127" y2="0" gradientTransform="matrix(39.9373, 2923.34, -2923.34, 39.9373, 1976.93, -216.66)">
<stop offset="0" stop-color="rgb(98.429871%, 98.429871%, 98.429871%)" stop-opacity="1"/>
<stop offset="0.5" stop-color="rgb(98.429871%, 98.429871%, 98.429871%)" stop-opacity="1"/>
<stop offset="0.5625" stop-color="rgb(98.429871%, 98.429871%, 98.429871%)" stop-opacity="1"/>
<stop offset="0.59375" stop-color="rgb(98.376465%, 98.376465%, 98.376465%)" stop-opacity="1"/>
<stop offset="0.625" stop-color="rgb(98.179626%, 98.179626%, 98.179626%)" stop-opacity="1"/>
<stop offset="0.75" stop-color="rgb(98.03772%, 98.03772%, 98.03772%)" stop-opacity="1"/>
<stop offset="1" stop-color="rgb(98.03772%, 98.03772%, 98.03772%)" stop-opacity="1"/>
</linearGradient>
<clipPath id="clip-19">
<path clip-rule="nonzero" d="M 2077.109375 0 L 2126.128906 0 L 2126.128906 2400 L 2077.109375 2400 Z M 2077.109375 0 "/>
</clipPath>
<linearGradient id="linear-pattern-19" gradientUnits="userSpaceOnUse" x1="0.0740725" y1="0" x2="0.895127" y2="0" gradientTransform="matrix(39.9373, 2923.34, -2923.34, 39.9373, 2083.01, -216.66)">
<stop offset="0" stop-color="rgb(98.429871%, 98.429871%, 98.429871%)" stop-opacity="1"/>
<stop offset="0.5" stop-color="rgb(98.429871%, 98.429871%, 98.429871%)" stop-opacity="1"/>
<stop offset="0.5625" stop-color="rgb(98.429871%, 98.429871%, 98.429871%)" stop-opacity="1"/>
<stop offset="0.59375" stop-color="rgb(98.376465%, 98.376465%, 98.376465%)" stop-opacity="1"/>
<stop offset="0.625" stop-color="rgb(98.179626%, 98.179626%, 98.179626%)" stop-opacity="1"/>
<stop offset="0.75" stop-color="rgb(98.03772%, 98.03772%, 98.03772%)" stop-opacity="1"/>
<stop offset="1" stop-color="rgb(98.03772%, 98.03772%, 98.03772%)" stop-opacity="1"/>
</linearGradient>
<clipPath id="clip-20">
<path clip-rule="nonzero" d="M 2183.179688 0 L 2232.199219 0 L 2232.199219 2400 L 2183.179688 2400 Z M 2183.179688 0 "/>
</clipPath>
<linearGradient id="linear-pattern-20" gradientUnits="userSpaceOnUse" x1="0.0740725" y1="0" x2="0.895127" y2="0" gradientTransform="matrix(39.9373, 2923.34, -2923.34, 39.9373, 2189.08, -216.66)">
<stop offset="0" stop-color="rgb(98.429871%, 98.429871%, 98.429871%)" stop-opacity="1"/>
<stop offset="0.5" stop-color="rgb(98.429871%, 98.429871%, 98.429871%)" stop-opacity="1"/>
<stop offset="0.5625" stop-color="rgb(98.429871%, 98.429871%, 98.429871%)" stop-opacity="1"/>
<stop offset="0.59375" stop-color="rgb(98.376465%, 98.376465%, 98.376465%)" stop-opacity="1"/>
<stop offset="0.625" stop-color="rgb(98.179626%, 98.179626%, 98.179626%)" stop-opacity="1"/>
<stop offset="0.75" stop-color="rgb(98.03772%, 98.03772%, 98.03772%)" stop-opacity="1"/>
<stop offset="1" stop-color="rgb(98.03772%, 98.03772%, 98.03772%)" stop-opacity="1"/>
</linearGradient>
<clipPath id="clip-21">
<path clip-rule="nonzero" d="M 2289.261719 0 L 2338.269531 0 L 2338.269531 2400 L 2289.261719 2400 Z M 2289.261719 0 "/>
</clipPath>
<linearGradient id="linear-pattern-21" gradientUnits="userSpaceOnUse" x1="0.0740725" y1="0" x2="0.895127" y2="0" gradientTransform="matrix(39.9373, 2923.34, -2923.34, 39.9373, 2295.15, -216.66)">
<stop offset="0" stop-color="rgb(98.429871%, 98.429871%, 98.429871%)" stop-opacity="1"/>
<stop offset="0.5" stop-color="rgb(98.429871%, 98.429871%, 98.429871%)" stop-opacity="1"/>
<stop offset="0.5625" stop-color="rgb(98.429871%, 98.429871%, 98.429871%)" stop-opacity="1"/>
<stop offset="0.59375" stop-color="rgb(98.376465%, 98.376465%, 98.376465%)" stop-opacity="1"/>
<stop offset="0.625" stop-color="rgb(98.179626%, 98.179626%, 98.179626%)" stop-opacity="1"/>
<stop offset="0.75" stop-color="rgb(98.03772%, 98.03772%, 98.03772%)" stop-opacity="1"/>
<stop offset="1" stop-color="rgb(98.03772%, 98.03772%, 98.03772%)" stop-opacity="1"/>
</linearGradient>
</defs>
<rect x="-240" y="-240" width="2880" height="2880" fill="rgb(100%, 100%, 100%)" fill-opacity="1"/>
<g clip-path="url(#clip-0)">
<path fill-rule="nonzero" fill="url(#linear-pattern-0)" d="M 110.734375 -0.667969 L 28.945312 0.449219 L 61.734375 2400.667969 L 143.523438 2399.550781 Z M 110.734375 -0.667969 "/>
</g>
<g clip-path="url(#clip-1)">
<path fill-rule="nonzero" fill="url(#linear-pattern-1)" d="M 216.808594 -0.667969 L 135.015625 0.449219 L 167.808594 2400.667969 L 249.597656 2399.550781 Z M 216.808594 -0.667969 "/>
</g>
<g clip-path="url(#clip-2)">
<path fill-rule="nonzero" fill="url(#linear-pattern-2)" d="M 322.878906 -0.667969 L 241.089844 0.449219 L 273.878906 2400.667969 L 355.671875 2399.550781 Z M 322.878906 -0.667969 "/>
</g>
<g clip-path="url(#clip-3)">
<path fill-rule="nonzero" fill="url(#linear-pattern-3)" d="M 428.953125 -0.667969 L 347.164062 0.449219 L 379.953125 2400.667969 L 461.742188 2399.550781 Z M 428.953125 -0.667969 "/>
</g>
<g clip-path="url(#clip-4)">
<path fill-rule="nonzero" fill="url(#linear-pattern-4)" d="M 535.027344 -0.667969 L 453.234375 0.449219 L 486.027344 2400.667969 L 567.816406 2399.550781 Z M 535.027344 -0.667969 "/>
</g>
<g clip-path="url(#clip-5)">
<path fill-rule="nonzero" fill="url(#linear-pattern-5)" d="M 641.097656 -0.667969 L 559.308594 0.449219 L 592.097656 2400.667969 L 673.890625 2399.550781 Z M 641.097656 -0.667969 "/>
</g>
<g clip-path="url(#clip-6)">
<path fill-rule="nonzero" fill="url(#linear-pattern-6)" d="M 747.171875 -0.667969 L 665.378906 0.449219 L 698.171875 2400.667969 L 779.960938 2399.550781 Z M 747.171875 -0.667969 "/>
</g>
<g clip-path="url(#clip-7)">
<path fill-rule="nonzero" fill="url(#linear-pattern-7)" d="M 853.246094 -0.667969 L 771.453125 0.449219 L 804.246094 2400.667969 L 886.035156 2399.550781 Z M 853.246094 -0.667969 "/>
</g>
<g clip-path="url(#clip-8)">
<path fill-rule="nonzero" fill="url(#linear-pattern-8)" d="M 959.316406 -0.667969 L 877.527344 0.449219 L 910.316406 2400.667969 L 992.109375 2399.550781 Z M 959.316406 -0.667969 "/>
</g>
<g clip-path="url(#clip-9)">
<path fill-rule="nonzero" fill="url(#linear-pattern-9)" d="M 1065.390625 -0.667969 L 983.597656 0.449219 L 1016.390625 2400.667969 L 1098.179688 2399.550781 Z M 1065.390625 -0.667969 "/>
</g>
<g clip-path="url(#clip-10)">
<path fill-rule="nonzero" fill="url(#linear-pattern-10)" d="M 1171.460938 -0.667969 L 1089.667969 0.449219 L 1122.460938 2400.667969 L 1204.25 2399.550781 Z M 1171.460938 -0.667969 "/>
</g>
<g clip-path="url(#clip-11)">
<path fill-rule="nonzero" fill="url(#linear-pattern-11)" d="M 1277.539062 -0.667969 L 1195.75 0.449219 L 1228.539062 2400.667969 L 1310.332031 2399.550781 Z M 1277.539062 -0.667969 "/>
</g>
<g clip-path="url(#clip-12)">
<path fill-rule="nonzero" fill="url(#linear-pattern-12)" d="M 1383.609375 -0.667969 L 1301.820312 0.449219 L 1334.609375 2400.667969 L 1416.402344 2399.550781 Z M 1383.609375 -0.667969 "/>
</g>
<g clip-path="url(#clip-13)">
<path fill-rule="nonzero" fill="url(#linear-pattern-13)" d="M 1489.679688 -0.667969 L 1407.886719 0.449219 L 1440.679688 2400.667969 L 1522.472656 2399.550781 Z M 1489.679688 -0.667969 "/>
</g>
<g clip-path="url(#clip-14)">
<path fill-rule="nonzero" fill="url(#linear-pattern-14)" d="M 1595.75 -0.667969 L 1513.96875 0.449219 L 1546.757812 2400.667969 L 1628.542969 2399.550781 Z M 1595.75 -0.667969 "/>
</g>
<g clip-path="url(#clip-15)">
<path fill-rule="nonzero" fill="url(#linear-pattern-15)" d="M 1701.832031 -0.667969 L 1620.039062 0.449219 L 1652.828125 2400.667969 L 1734.621094 2399.550781 Z M 1701.832031 -0.667969 "/>
</g>
<g clip-path="url(#clip-16)">
<path fill-rule="nonzero" fill="url(#linear-pattern-16)" d="M 1807.902344 -0.667969 L 1726.109375 0.449219 L 1758.898438 2400.667969 L 1840.691406 2399.550781 Z M 1807.902344 -0.667969 "/>
</g>
<g clip-path="url(#clip-17)">
<path fill-rule="nonzero" fill="url(#linear-pattern-17)" d="M 1913.972656 -0.667969 L 1832.179688 0.449219 L 1864.96875 2400.667969 L 1946.761719 2399.550781 Z M 1913.972656 -0.667969 "/>
</g>
<g clip-path="url(#clip-18)">
<path fill-rule="nonzero" fill="url(#linear-pattern-18)" d="M 2020.050781 -0.667969 L 1938.257812 0.449219 L 1971.050781 2400.667969 L 2052.839844 2399.550781 Z M 2020.050781 -0.667969 "/>
</g>
<g clip-path="url(#clip-19)">
<path fill-rule="nonzero" fill="url(#linear-pattern-19)" d="M 2126.121094 -0.667969 L 2044.328125 0.449219 L 2077.121094 2400.667969 L 2158.910156 2399.550781 Z M 2126.121094 -0.667969 "/>
</g>
<g clip-path="url(#clip-20)">
<path fill-rule="nonzero" fill="url(#linear-pattern-20)" d="M 2232.191406 -0.667969 L 2150.398438 0.449219 L 2183.1875 2400.667969 L 2264.980469 2399.550781 Z M 2232.191406 -0.667969 "/>
</g>
<g clip-path="url(#clip-21)">
<path fill-rule="nonzero" fill="url(#linear-pattern-21)" d="M 2338.261719 -0.667969 L 2256.476562 0.449219 L 2289.269531 2400.667969 L 2371.050781 2399.550781 Z M 2338.261719 -0.667969 "/>
</g>
<path fill-rule="nonzero" fill="rgb(4.704285%, 9.008789%, 33.714294%)" fill-opacity="1" d="M 1469.480469 727.46875 L 1468.171875 727.558594 L 1467.238281 728.46875 C 1459.71875 735.890625 1454.460938 744.050781 1451.171875 753.410156 L 1450.640625 754.929688 L 1451.449219 756.328125 C 1453.230469 759.390625 1454.199219 765.230469 1455.128906 770.878906 C 1456.140625 776.949219 1457.179688 783.230469 1459.390625 788.011719 C 1462.460938 794.671875 1467 796.398438 1470.878906 796.398438 C 1471.691406 796.398438 1472.480469 796.320312 1473.210938 796.199219 L 1473.609375 796.128906 L 1473.988281 795.96875 C 1481.539062 792.808594 1483.558594 788.011719 1485.179688 784.140625 C 1486.96875 779.890625 1488.269531 776.820312 1497.46875 775.089844 L 1498.890625 774.828125 L 1499.710938 773.640625 C 1506.890625 763.21875 1508.039062 752.011719 1502.871094 742.878906 C 1496.96875 732.449219 1484.160156 726.550781 1469.480469 727.46875 "/>
<path fill-rule="nonzero" fill="rgb(4.704285%, 9.008789%, 33.714294%)" fill-opacity="1" d="M 2149.460938 1848.921875 C 2146.238281 1842.429688 2138.480469 1842.808594 2132.238281 1843.109375 C 2130.121094 1843.210938 2127.949219 1843.320312 2126.191406 1843.160156 C 2125.199219 1841.570312 2124.320312 1840.039062 2123.460938 1838.558594 C 2119.171875 1831.101562 2115.441406 1824.609375 2102.871094 1822.828125 C 2101.320312 1819.519531 2098.878906 1816.171875 2096.519531 1812.910156 C 2092.5 1807.371094 2088.351562 1801.640625 2089.230469 1797.371094 C 2089.671875 1795.269531 2091.371094 1793.359375 2094.449219 1791.539062 L 2096 1790.621094 L 2096.148438 1788.839844 C 2096.980469 1779.589844 2091.089844 1772.828125 2085.890625 1766.871094 C 2083.449219 1764.078125 2081.148438 1761.441406 2079.53125 1758.671875 L 2078.671875 1757.191406 L 2076.96875 1756.960938 C 2072.109375 1756.320312 2068.890625 1760.070312 2066.53125 1762.808594 C 2065.578125 1763.921875 2064.589844 1765.070312 2063.71875 1765.699219 C 2056.898438 1769.871094 2050.96875 1765.03125 2042.039062 1756.558594 C 2037.960938 1752.679688 2033.730469 1748.671875 2029.269531 1746.53125 L 2028.738281 1746.28125 L 2028.160156 1746.210938 C 2022.851562 1745.570312 2014.601562 1733.878906 2011.511719 1719.179688 C 2009.121094 1707.808594 2010.789062 1699.191406 2015.980469 1696.128906 L 2017.648438 1695.140625 L 2017.710938 1693.210938 C 2017.839844 1688.160156 2019.109375 1684.800781 2021.578125 1682.910156 C 2026.960938 1678.800781 2038.160156 1681.539062 2047.148438 1683.730469 C 2048.578125 1684.078125 2049.96875 1684.421875 2051.300781 1684.730469 L 2053.5 1685.230469 L 2055.949219 1682.011719 C 2066.808594 1667.761719 2073.371094 1659.148438 2075.328125 1658.730469 C 2075.730469 1658.820312 2076.871094 1659.679688 2077.789062 1660.371094 C 2081.929688 1663.511719 2088.871094 1668.78125 2105.46875 1669.910156 L 2110.699219 1670.269531 L 2109.03125 1665.300781 C 2106.648438 1658.238281 2101 1653.390625 2095.519531 1648.691406 C 2089.121094 1643.191406 2083.519531 1638.390625 2084.058594 1630.949219 C 2091.640625 1627.359375 2097.140625 1622.011719 2102.46875 1616.820312 C 2104.71875 1614.628906 2106.871094 1612.539062 2109.140625 1610.601562 C 2111.269531 1611.140625 2113.449219 1611.921875 2115.570312 1612.679688 C 2121 1614.628906 2126.140625 1616.480469 2129.539062 1613.25 C 2132.429688 1610.511719 2132.46875 1605.621094 2129.671875 1596.320312 C 2126.25 1585.480469 2116.25 1580.949219 2107.429688 1576.949219 C 2104 1575.390625 2100.75 1573.921875 2097.878906 1572.140625 L 2096.628906 1571.371094 L 2095.210938 1571.71875 C 2091.46875 1572.640625 2087.480469 1573.011719 2083.269531 1573.410156 C 2074.199219 1574.261719 2064.851562 1575.128906 2057.519531 1581.671875 C 2052.730469 1580.179688 2048.628906 1581.171875 2044.960938 1582.050781 C 2040.910156 1583.019531 2037.671875 1583.789062 2033.488281 1581.589844 C 2031.550781 1578.710938 2032.308594 1575.5 2033.769531 1570.28125 C 2034.929688 1566.128906 2036.238281 1561.429688 2035.210938 1556.488281 C 2033.851562 1544.808594 2033.269531 1539.96875 2029.339844 1538.679688 C 2025.78125 1537.5 2023.21875 1540.238281 2018.109375 1545.691406 C 2016.488281 1547.421875 2014.671875 1549.371094 2012.480469 1551.570312 C 2010.558594 1552.238281 2008.210938 1552.71875 2006.78125 1551.878906 C 2004.289062 1550.421875 2003.46875 1544.710938 2002.738281 1539.679688 L 2002.050781 1535.019531 L 1998.980469 1535.070312 C 1975.960938 1535.480469 1959.089844 1540.398438 1944.261719 1551.019531 L 1943.980469 1551.21875 L 1943.738281 1551.46875 C 1932.980469 1562.941406 1925.738281 1562.148438 1916.578125 1561.148438 C 1907.820312 1560.199219 1898.019531 1559.128906 1885.039062 1568.828125 C 1884.929688 1566.710938 1884.871094 1564.578125 1884.808594 1562.488281 C 1884.359375 1547.359375 1883.890625 1531.71875 1868.289062 1522.710938 L 1867.839844 1522.449219 L 1867.351562 1522.328125 C 1861.699219 1520.988281 1856.761719 1515.21875 1851.980469 1509.648438 C 1846.371094 1503.109375 1840.578125 1496.359375 1832.898438 1496.238281 C 1828.949219 1496.179688 1825.03125 1497.890625 1821.050781 1501.449219 C 1819.128906 1498.589844 1819.25 1496.21875 1819.390625 1493.378906 C 1819.730469 1486.808594 1818.921875 1481.328125 1806.039062 1476.179688 C 1803.109375 1465.300781 1795.03125 1458.320312 1787.199219 1451.550781 L 1787.160156 1451.519531 C 1786.789062 1450.578125 1786.421875 1449.640625 1786.058594 1448.699219 C 1781.039062 1435.871094 1775.851562 1422.589844 1761.140625 1415.429688 L 1760.238281 1414.988281 L 1759.238281 1415.089844 C 1741.769531 1416.96875 1725.609375 1411.621094 1709.839844 1398.75 L 1709.5 1398.46875 L 1709.101562 1398.289062 C 1701.578125 1394.789062 1695.511719 1393.320312 1690.628906 1392.148438 C 1679.941406 1389.570312 1675.929688 1388.601562 1671.71875 1368.96875 L 1670.761719 1364.511719 L 1669.878906 1364.960938 C 1670.390625 1358.160156 1666.480469 1349.570312 1656.421875 1335.441406 C 1654.679688 1331.878906 1655.738281 1329.921875 1658.070312 1326.25 C 1660.820312 1321.910156 1664.578125 1315.980469 1658.140625 1306.851562 C 1651.070312 1295.828125 1638.960938 1295.601562 1628.269531 1295.398438 C 1625.269531 1295.351562 1622.421875 1295.300781 1619.71875 1295.03125 C 1612.261719 1283.621094 1600.691406 1281.378906 1589.480469 1279.210938 C 1584.671875 1278.269531 1579.691406 1277.308594 1575.25 1275.601562 L 1574.351562 1275.25 L 1573.390625 1275.410156 C 1561.308594 1277.5 1553.101562 1277.660156 1548.980469 1275.890625 C 1546.410156 1274.78125 1545.898438 1273.210938 1545.070312 1270.039062 C 1544.320312 1267.128906 1543.339844 1264.390625 1541.101562 1262.390625 C 1542.390625 1260.261719 1543.171875 1257.789062 1543.890625 1255.511719 C 1544.980469 1252.03125 1546.109375 1248.449219 1548.828125 1245.738281 C 1561.761719 1246.359375 1573.199219 1243.921875 1583.679688 1238.308594 C 1596.539062 1243.828125 1611.058594 1242.960938 1625.109375 1242.121094 C 1635.589844 1241.488281 1645.5 1240.898438 1653.859375 1243.011719 C 1655.960938 1245.121094 1658.25 1247.921875 1660.671875 1250.878906 C 1667.441406 1259.171875 1673.839844 1267.011719 1680.578125 1265.160156 C 1685 1263.949219 1687.691406 1259.238281 1689.261719 1249.929688 C 1691.851562 1247.601562 1695.050781 1247.289062 1698.699219 1246.949219 C 1703.351562 1246.511719 1708.621094 1246.011719 1712.371094 1240.898438 L 1712.839844 1240.25 L 1712.988281 1239.46875 C 1714.039062 1233.789062 1716.761719 1228.601562 1719.640625 1223.101562 C 1723.320312 1216.101562 1727.109375 1208.851562 1727.640625 1200.070312 L 1727.660156 1199.800781 L 1727.628906 1199.539062 C 1727.359375 1196.628906 1727.089844 1194.039062 1726.851562 1191.730469 C 1726 1183.628906 1725.488281 1178.75 1726.800781 1176.769531 C 1728.078125 1174.828125 1732.691406 1173.5 1740.308594 1171.289062 C 1743.359375 1170.410156 1746.820312 1169.410156 1750.898438 1168.140625 L 1752.691406 1167.578125 L 1753.21875 1165.78125 C 1755.710938 1157.328125 1756.289062 1148.058594 1756.839844 1139.089844 C 1757.789062 1124.019531 1758.671875 1109.78125 1767.691406 1098.609375 L 1768.730469 1097.308594 L 1768.390625 1095.691406 C 1766.648438 1087.421875 1760.570312 1081.371094 1754.679688 1075.519531 C 1750.269531 1071.140625 1746.050781 1066.949219 1744.328125 1062.339844 C 1752.421875 1061.988281 1754.550781 1056.839844 1755.109375 1054.351562 C 1757.21875 1044.910156 1747 1029.929688 1736.261719 1026.730469 L 1735.769531 1026.621094 C 1731.53125 1026 1727.171875 1026.269531 1722.949219 1026.539062 C 1712.179688 1027.21875 1705.941406 1027.191406 1702.660156 1018.621094 L 1702.199219 1017.421875 L 1701.078125 1016.800781 C 1690.570312 1011.019531 1678.710938 1008 1667.230469 1005.078125 C 1660.699219 1003.421875 1653.960938 1001.699219 1647.679688 999.511719 C 1641.339844 987.550781 1628.46875 976.929688 1613.011719 979.058594 C 1606.878906 978.289062 1601.898438 974.339844 1596.621094 970.171875 C 1595.378906 969.191406 1594.140625 968.210938 1592.890625 967.269531 L 1592.359375 966.878906 L 1591.730469 966.699219 C 1587.339844 965.480469 1582.640625 965.730469 1578.101562 965.96875 C 1572.289062 966.269531 1566.769531 966.558594 1562.921875 963.679688 C 1557.429688 948.710938 1553 944.261719 1546.898438 938.140625 C 1543.730469 934.960938 1540.140625 931.359375 1535.53125 925.371094 L 1535.328125 925.128906 C 1529.21875 918.53125 1522.269531 918.78125 1516.140625 919 C 1513.820312 919.089844 1511.410156 919.171875 1509.019531 918.921875 C 1488.089844 908.949219 1476.410156 896.660156 1474.300781 882.359375 L 1474.03125 880.519531 L 1472.351562 879.71875 C 1461.160156 874.339844 1434.960938 859.339844 1433.058594 836.230469 C 1433.039062 833.558594 1434.660156 830.761719 1437.300781 828.878906 L 1439.589844 827.25 L 1438.488281 824.660156 C 1435.191406 816.859375 1436.359375 815.449219 1439.839844 811.261719 C 1441.230469 809.578125 1442.96875 807.5 1444.660156 804.691406 L 1445.46875 803.351562 L 1445.019531 801.859375 C 1440.710938 787.660156 1430.121094 785.25 1420.78125 783.109375 C 1414.550781 781.691406 1408.640625 780.351562 1404.230469 775.828125 C 1406.46875 758.808594 1405.800781 756.21875 1398.761719 750.011719 C 1396.648438 748.148438 1394.070312 745.871094 1390.738281 741.980469 C 1390.738281 739.269531 1391.148438 736.859375 1391.960938 734.648438 L 1396.300781 739.769531 L 1395.359375 728.828125 L 1395.351562 728.691406 L 1395.710938 728.148438 L 1395.269531 727.71875 C 1394.058594 712.808594 1395.339844 708.570312 1395.910156 707.480469 C 1396.738281 707.820312 1398.160156 708.839844 1398.980469 709.441406 C 1401.339844 711.148438 1404.289062 713.28125 1407.210938 711.421875 C 1410.320312 709.449219 1410.128906 704.859375 1408.578125 696.558594 C 1409.988281 674.351562 1449.660156 670.511719 1457.640625 669.96875 L 1458.988281 669.878906 L 1459.921875 668.910156 C 1471.050781 657.351562 1481.621094 652.789062 1495.210938 653.691406 L 1497.03125 653.808594 L 1498.171875 652.390625 C 1501.75 647.921875 1504.949219 642.941406 1508.039062 638.128906 C 1514.21875 628.519531 1520.601562 618.578125 1530.378906 612.039062 L 1531.101562 611.558594 L 1531.519531 610.800781 C 1541.601562 592.128906 1541.269531 565.390625 1523.261719 552.949219 L 1522.058594 552.121094 L 1520.621094 552.390625 C 1514.539062 553.550781 1511.121094 555.128906 1509.050781 556.289062 L 1508.988281 556.179688 C 1508 554.289062 1506.351562 551.140625 1503.480469 546.539062 L 1502.398438 544.820312 L 1500.378906 544.890625 C 1492.609375 545.171875 1487.679688 540.390625 1481.96875 534.828125 C 1475.980469 529 1469.230469 522.441406 1458.570312 522.878906 C 1458.5 522.378906 1458.769531 521.601562 1459.480469 519.910156 C 1460.210938 518.191406 1461.109375 516.050781 1461.148438 513.589844 L 1461.140625 512.601562 L 1460.671875 511.769531 C 1456.140625 503.820312 1449.289062 491.800781 1438.921875 489.789062 L 1437.371094 489.488281 L 1436.109375 490.460938 C 1431.710938 493.878906 1427.351562 494.78125 1423.511719 493.078125 C 1419.039062 491.089844 1415.851562 485.910156 1414.96875 479.339844 C 1416.289062 478.128906 1418.160156 476.648438 1420.109375 475.109375 C 1427.648438 469.148438 1436.199219 462.398438 1435.730469 454.691406 C 1435.519531 451.050781 1433.320312 447.921875 1429.21875 445.410156 L 1428.320312 444.871094 L 1427.28125 444.898438 C 1412.550781 445.371094 1393.640625 451.75 1383.75 464.921875 C 1380.421875 465.300781 1376.5 464.449219 1372.390625 463.558594 C 1366.828125 462.339844 1360.609375 460.988281 1354.289062 462.398438 C 1351.5 459.03125 1349.148438 454.339844 1347.050781 450.140625 C 1343.230469 442.519531 1339.929688 435.929688 1333.878906 435.890625 L 1333.828125 435.890625 C 1328.890625 435.890625 1324.320312 440.488281 1318.671875 451.21875 C 1311.601562 455.191406 1308.230469 451.648438 1300.910156 441.148438 C 1294.28125 431.628906 1285.351562 418.820312 1267.769531 422.378906 C 1267.441406 419.390625 1267.871094 416.511719 1268.289062 413.710938 C 1269.878906 403.121094 1269.289062 395.328125 1247.070312 391.628906 L 1245.558594 391.378906 L 1244.359375 392.308594 C 1238.800781 396.589844 1239.78125 403.910156 1240.648438 410.371094 C 1241.539062 417.039062 1241.71875 420.640625 1239.421875 422.480469 C 1231.960938 418.398438 1225.128906 422.671875 1220.039062 425.859375 C 1213.578125 429.898438 1210.679688 431.128906 1206.898438 427.480469 C 1204.148438 422.398438 1206.21875 417.621094 1209.78125 410.359375 C 1212.121094 405.589844 1214.53125 400.671875 1215.011719 395.078125 C 1220.859375 382.421875 1233.25 380.628906 1247.578125 378.570312 C 1263.660156 376.261719 1281.878906 373.628906 1293.171875 354.398438 L 1293.609375 353.648438 L 1293.648438 352.78125 C 1294.390625 335.75 1286.070312 333.128906 1278.03125 330.609375 C 1270.621094 328.28125 1262.210938 325.640625 1255.851562 310.980469 L 1255.640625 310.5 L 1255.308594 310.109375 C 1246.921875 300.21875 1241.96875 302.109375 1236.371094 305.609375 C 1234.179688 306.980469 1231.910156 308.390625 1228.628906 308.941406 L 1226.871094 309.21875 L 1226.070312 310.808594 C 1225.609375 311.710938 1225.179688 312.660156 1224.738281 313.628906 C 1222.359375 318.851562 1220.980469 321.121094 1217.789062 320.929688 C 1207.339844 306.058594 1197.941406 304.601562 1192.261719 303.71875 C 1191.128906 303.539062 1189.570312 303.300781 1189.269531 303.078125 C 1189.261719 303.070312 1189.160156 302.910156 1189.101562 302.390625 C 1211.738281 284.320312 1203.628906 269.621094 1195.769531 255.378906 C 1191.910156 248.378906 1187.910156 241.140625 1186.351562 232.589844 L 1186.171875 231.558594 L 1185.441406 230.800781 C 1183.890625 229.179688 1181.109375 227.410156 1176.679688 228.171875 C 1164.898438 230.191406 1148.621094 249.96875 1144.25 258.53125 C 1140.589844 260.980469 1134.179688 261.558594 1128.308594 259.898438 C 1123.128906 258.441406 1119.429688 255.609375 1118.148438 252.128906 L 1117.929688 251.519531 L 1117.5 251.03125 C 1112.46875 245.28125 1107.859375 247 1106.570312 247.660156 C 1106.078125 247.921875 1105.621094 248.21875 1105.191406 248.570312 C 1100.851562 244.871094 1093.96875 243.679688 1088.710938 242.769531 C 1087.191406 242.511719 1085.730469 242.261719 1084.441406 241.980469 C 1076.648438 228.878906 1069.191406 223.558594 1062.25 226.148438 C 1050.648438 230.480469 1048.648438 255.390625 1051.691406 270.960938 L 1051.910156 271.851562 L 1052.421875 272.511719 C 1059.871094 282.101562 1066.921875 291.179688 1080.800781 291.039062 C 1086.75 295.878906 1092.488281 295.589844 1097.578125 295.328125 C 1099.910156 295.210938 1102.128906 295.101562 1104.339844 295.460938 C 1104.761719 296.53125 1105.078125 297.789062 1104.558594 298.46875 C 1102.488281 301.171875 1090.949219 301.308594 1079.691406 298.800781 C 1064.589844 290.199219 1049.449219 291.109375 1033.429688 292.070312 C 1029.109375 292.328125 1024.640625 292.601562 1020.171875 292.660156 L 1019.300781 292.671875 L 1018.53125 293.089844 C 1016.378906 294.28125 1014.53125 296.328125 1012.730469 298.320312 C 1011.039062 300.199219 1009.800781 301.480469 1008.910156 302.058594 C 1007.96875 293 1000.75 292.371094 995.816406 291.941406 C 989.570312 291.390625 985.058594 291 984.59375 279.601562 L 984.414062 275.191406 L 980.160156 276.371094 C 971.273438 278.828125 962.492188 280.949219 952.847656 279.769531 C 952.511719 279.550781 952.175781 279.320312 951.835938 279.089844 C 948.363281 276.738281 941.90625 272.351562 936.132812 278.570312 L 935.675781 279.058594 L 935.433594 279.691406 C 934.019531 283.351562 933.128906 288.96875 932.183594 294.929688 C 931.351562 300.171875 929.855469 309.621094 928.136719 312.128906 C 927.417969 311.539062 925.859375 309.871094 923.402344 305.308594 L 922.5 303.628906 L 920.605469 303.480469 C 913.734375 302.921875 908.609375 306.441406 904.082031 309.550781 C 902.257812 310.808594 900.566406 311.96875 898.914062 312.78125 C 901.960938 299.390625 901.28125 293.140625 896.800781 291.601562 C 889.132812 288.96875 880.3125 306.660156 876.484375 315.410156 C 856.296875 329.378906 854.5 328.109375 835.324219 314.5 L 834.585938 313.980469 L 833.683594 313.878906 C 825.203125 312.929688 819.996094 307.328125 813.96875 300.828125 C 808.417969 294.851562 802.675781 288.671875 793.820312 285.910156 L 791.558594 285.210938 L 790.0625 287.039062 C 786.515625 291.410156 784.964844 297.710938 783.597656 303.269531 C 782.816406 306.449219 781.507812 311.769531 780.402344 312.410156 C 780.3125 312.429688 778.144531 312.488281 771.636719 304.808594 L 771.382812 304.511719 L 771.066406 304.269531 C 764.328125 299.210938 758.519531 301.570312 753.851562 303.460938 C 751.453125 304.441406 749.1875 305.359375 746.785156 305.441406 C 739.125 305.070312 735.449219 300.660156 730.800781 295.089844 C 728.210938 291.980469 725.527344 288.761719 721.925781 286.089844 L 720.59375 285.101562 L 718.988281 285.511719 C 708.644531 288.101562 703 286.890625 698.863281 281.191406 L 697.390625 279.160156 L 694.992188 279.910156 C 685.222656 282.949219 683.152344 294.148438 681.324219 304.019531 C 678.914062 317.058594 676.917969 325.039062 666.632812 324.511719 L 666.460938 324.511719 C 662.882812 324.511719 659.257812 324.421875 655.757812 324.328125 C 638.941406 323.929688 621.578125 323.511719 604.679688 332.75 C 601.910156 330.351562 597.0625 330.539062 588.429688 330.878906 C 587.34375 330.929688 586.191406 330.96875 584.96875 331.019531 L 583.785156 331.058594 L 582.871094 331.808594 C 581.488281 332.949219 580.210938 334.011719 579.023438 335 C 564.949219 346.691406 564.953125 346.691406 547.738281 340.28125 L 546.769531 339.921875 L 545.765625 340.140625 C 539.375 341.550781 532.742188 342.671875 526.332031 343.761719 C 510.75 346.410156 494.640625 349.140625 479.679688 356.21875 L 479.347656 356.371094 L 479.054688 356.601562 C 456.464844 373.839844 448.097656 384.449219 443.601562 390.148438 C 442.386719 391.691406 441.007812 393.441406 440.5625 393.660156 C 439.800781 393.738281 437.152344 392.488281 434.316406 391.191406 C 427.578125 388.089844 416.292969 382.910156 394.351562 376.261719 L 393.570312 376.03125 L 392.761719 376.160156 C 389.507812 376.699219 386.113281 377.070312 382.832031 377.421875 C 374.226562 378.339844 365.347656 379.300781 356.914062 383.441406 C 355.484375 382.570312 354.066406 381.660156 352.679688 380.769531 C 344.492188 375.53125 336.03125 370.101562 324.136719 371.878906 L 323.425781 371.988281 L 322.8125 372.371094 C 315.996094 376.589844 306.867188 379.421875 298.039062 382.160156 C 277.121094 388.648438 253.414062 396.011719 258.976562 424.359375 L 259.359375 426.308594 L 261.234375 426.980469 C 270.574219 430.308594 270.355469 438.070312 269.222656 450.449219 C 268.472656 458.640625 267.699219 467.101562 272.113281 473.328125 C 273.96875 482.769531 283.144531 482.210938 289.90625 481.789062 C 294.394531 481.519531 299.03125 481.238281 301.679688 483.140625 L 302.019531 483.359375 C 305.265625 485.160156 307.945312 487.671875 310.777344 490.328125 C 316.328125 495.53125 322.59375 501.398438 333.203125 500.308594 C 349.179688 508.339844 361.722656 517.660156 371.519531 528.800781 L 371.960938 529.300781 L 372.550781 529.601562 C 382.582031 534.738281 385.773438 541.261719 384.328125 553.628906 L 384.160156 555.070312 L 385.058594 556.210938 C 388.582031 560.671875 387.15625 566.550781 385.503906 573.359375 C 384.292969 578.339844 383.046875 583.488281 383.664062 588.671875 C 382.773438 600.308594 388.015625 608.640625 393.089844 616.699219 C 396.910156 622.769531 400.519531 628.511719 401.4375 635.5 L 401.480469 635.820312 L 401.582031 636.128906 C 403.886719 643.160156 406.609375 650.179688 409.242188 656.96875 C 413.617188 668.238281 418.136719 679.890625 420.832031 691.820312 C 420.648438 692.351562 420.464844 692.878906 420.28125 693.398438 C 417.832031 700.460938 415.066406 708.421875 420.371094 716.058594 C 420.445312 718.378906 419.972656 720.421875 419.472656 722.578125 C 418.601562 726.359375 417.621094 730.589844 420.316406 735.378906 C 418.929688 738.710938 416.726562 741.410156 414.410156 744.25 C 410.652344 748.851562 406.410156 754.050781 406.683594 761.96875 C 403.179688 769.910156 399.042969 777.601562 395.035156 785.050781 C 390.644531 793.21875 386.101562 801.660156 382.238281 810.671875 C 376.878906 819.378906 370.890625 821.761719 365.605469 823.859375 C 356.890625 827.328125 351.628906 830.820312 355.207031 847.089844 C 354.535156 846.570312 353.804688 845.910156 352.941406 845.121094 L 348.457031 841.019531 L 347.085938 846.820312 C 346.535156 849.128906 345.988281 851.511719 345.4375 853.878906 C 345.273438 854.589844 345.109375 855.300781 344.945312 856.011719 C 337.773438 854.109375 329.753906 861.441406 322.515625 868.039062 C 316.515625 873.519531 309.710938 879.730469 303.894531 880.800781 L 302.109375 881.121094 L 301.347656 882.769531 C 300.449219 884.71875 300.230469 886.730469 300.054688 888.339844 C 299.71875 891.421875 299.71875 891.421875 297.6875 891.578125 L 294.890625 891.800781 L 294.496094 894.570312 C 292.777344 906.539062 302.6875 910.898438 310.644531 914.398438 C 314.214844 915.96875 317.855469 917.570312 320.6875 919.738281 L 316.535156 919.910156 L 325.105469 925.179688 L 325.777344 926.550781 L 327.1875 926.480469 C 344.601562 937.730469 338.589844 951.410156 326.660156 972.410156 C 322.878906 979.058594 318.972656 985.941406 316.816406 992.480469 L 316.414062 993.699219 L 316.894531 994.890625 C 320.234375 1003.121094 327.160156 1009.28125 333.859375 1015.230469 C 337.574219 1018.53125 341.089844 1021.648438 343.960938 1025.050781 C 345.269531 1029.089844 346.035156 1032.78125 346.714844 1036.058594 C 348.933594 1046.75 350.710938 1055.28125 368.253906 1059.980469 C 374.871094 1072.488281 374.320312 1077.398438 373.359375 1079.21875 C 371.988281 1081.808594 367.460938 1082.25 363.460938 1082.640625 C 359.027344 1083.070312 354.441406 1083.511719 353.160156 1087.589844 C 351.699219 1092.21875 353.585938 1097.699219 391.277344 1130.039062 C 390.351562 1132.738281 384.679688 1133.871094 377 1135.109375 C 371.792969 1135.949219 366.875 1136.738281 363.453125 1138.691406 L 363.179688 1138.839844 L 362.933594 1139.050781 C 353.398438 1147.039062 349.597656 1156.929688 352.238281 1166.910156 C 355.351562 1178.679688 367.144531 1188.441406 381.773438 1191.488281 C 393.988281 1204.429688 409.441406 1208.78125 427.738281 1204.441406 C 444.125 1216.050781 461.824219 1227.910156 482.199219 1235.75 C 492.914062 1246.101562 506.398438 1251.210938 523.140625 1251.210938 C 527.722656 1251.210938 532.546875 1250.828125 537.625 1250.058594 C 548.21875 1252.550781 557.09375 1249.289062 563.863281 1245.789062 C 574.15625 1249.109375 585.210938 1248.128906 595.917969 1247.191406 C 601.023438 1246.738281 605.851562 1246.328125 610.691406 1246.320312 C 615.246094 1246.210938 619.917969 1244.738281 624.4375 1243.320312 C 633.308594 1240.53125 639.015625 1239.109375 643.441406 1242.988281 L 644.796875 1244.179688 L 646.550781 1243.761719 C 652.535156 1242.351562 658.589844 1243.140625 665 1243.980469 C 671.113281 1244.769531 677.433594 1245.601562 684.039062 1244.511719 L 686.167969 1244.160156 L 686.8125 1242.101562 C 688.566406 1236.46875 692.347656 1236.351562 701.921875 1237.421875 L 703.976562 1237.640625 L 705.121094 1236.679688 C 710.765625 1231.960938 717.636719 1229.070312 727.375 1227.320312 C 736.992188 1226.820312 744.179688 1232.089844 748.515625 1236.628906 L 750.34375 1238.539062 L 752.683594 1237.300781 C 757.597656 1234.699219 762.621094 1235.441406 768.492188 1239.621094 L 773.230469 1242.988281 L 773.339844 1242.160156 C 776.710938 1243.96875 780.261719 1245.210938 783.738281 1246.410156 C 791.941406 1249.238281 798.417969 1251.480469 800.953125 1260.011719 L 801.296875 1261.171875 L 802.277344 1261.871094 C 804.855469 1263.699219 806.917969 1265.171875 809.191406 1264.621094 C 820.527344 1262.710938 828.144531 1269.460938 836.957031 1277.25 C 844.222656 1283.679688 851.71875 1290.320312 861.875 1292.070312 C 870.675781 1307.71875 882.292969 1318.878906 894.566406 1330.671875 C 897.175781 1333.171875 899.855469 1335.75 902.507812 1338.371094 C 903.152344 1354.941406 909.796875 1361.761719 917.460938 1369.609375 C 920.472656 1372.699219 923.578125 1375.890625 926.621094 1379.988281 C 926.679688 1389.351562 926.949219 1398.039062 932.828125 1401.570312 C 936.066406 1403.511719 939.871094 1403.140625 943.386719 1402.011719 C 943.929688 1412 953.726562 1417.449219 962.550781 1422.359375 C 967.164062 1424.929688 971.9375 1427.589844 975.464844 1430.789062 L 977.003906 1432.191406 L 978.972656 1431.5 C 986.050781 1429.03125 990.453125 1427.859375 992.0625 1428.019531 C 992.289062 1429.621094 991.375 1434.109375 990.558594 1438.109375 C 990.21875 1439.78125 989.84375 1441.609375 989.464844 1443.601562 L 988.09375 1450.761719 L 994.539062 1447.351562 C 997.296875 1445.890625 998.988281 1446.351562 1000.019531 1446.820312 C 1004.179688 1448.710938 1008.089844 1456.371094 1010.75 1467.820312 L 1011.210938 1469.78125 L 1013.140625 1470.371094 C 1014.941406 1470.921875 1016.839844 1470.949219 1018.679688 1470.980469 C 1021.039062 1471.011719 1022.769531 1471.101562 1024.070312 1471.738281 C 1023.199219 1478.699219 1024.378906 1483.519531 1027.671875 1486.460938 C 1030.03125 1488.570312 1033.070312 1489.371094 1036.558594 1489.371094 C 1041.859375 1489.371094 1048.191406 1487.53125 1054.730469 1485.621094 C 1061.558594 1483.628906 1068.609375 1481.570312 1073.460938 1482.050781 L 1074.078125 1482.109375 L 1074.691406 1481.949219 C 1085.710938 1479.101562 1099.078125 1478.960938 1113.238281 1478.808594 C 1144.011719 1478.480469 1178.871094 1478.109375 1190.910156 1445.820312 C 1193.628906 1441.800781 1201.621094 1431.050781 1211.140625 1428.339844 L 1211.140625 1428.550781 L 1214.210938 1428.929688 C 1215.761719 1429.121094 1217.261719 1429.160156 1218.71875 1429.199219 C 1222.640625 1429.320312 1225.160156 1429.480469 1227.140625 1431.28125 C 1230.828125 1435.539062 1234.789062 1439.550781 1238.628906 1443.441406 C 1250.230469 1455.199219 1261.179688 1466.308594 1264.550781 1483.21875 L 1264.699219 1483.761719 C 1267.199219 1490.460938 1271.710938 1494.898438 1276.078125 1499.199219 C 1280.671875 1503.710938 1284.671875 1507.640625 1285.839844 1513.679688 C 1285.710938 1513.910156 1285.570312 1514.148438 1285.429688 1514.390625 C 1282.058594 1520.300781 1275.96875 1530.960938 1284.839844 1538.378906 C 1281.261719 1550.851562 1281.449219 1566.300781 1281.628906 1580.03125 L 1281.660156 1582.539062 L 1282.808594 1583.570312 C 1288.539062 1588.691406 1300.261719 1595.28125 1309.050781 1592.421875 C 1312.25 1591.378906 1316.378906 1588.660156 1318.078125 1581.628906 C 1323.660156 1572.398438 1330.101562 1568.300781 1337.238281 1569.460938 C 1348.558594 1571.300781 1360.671875 1586.398438 1364.238281 1603.109375 L 1364.398438 1603.839844 L 1364.851562 1604.449219 C 1379.761719 1624.660156 1389.609375 1624.78125 1399.140625 1624.898438 C 1405.039062 1624.96875 1410.609375 1625.03125 1418.160156 1630.359375 L 1419.300781 1631.171875 L 1420.671875 1630.96875 C 1433.511719 1629.128906 1436.199219 1634.210938 1439.898438 1641.25 C 1443.320312 1647.71875 1447.46875 1655.601562 1460.558594 1655.601562 C 1462.21875 1655.601562 1464.039062 1655.46875 1466.011719 1655.199219 L 1467.441406 1655 L 1468.308594 1653.851562 C 1472.171875 1648.78125 1477.75 1644.519531 1483.660156 1640.011719 C 1491.039062 1634.378906 1498.671875 1628.558594 1503.539062 1620.570312 C 1514.550781 1620.738281 1519.769531 1613.210938 1524.378906 1606.511719 C 1526.289062 1603.730469 1528.269531 1600.859375 1530.628906 1598.558594 C 1532.261719 1598.699219 1533.878906 1598.871094 1535.460938 1599.039062 C 1546.589844 1600.21875 1558.089844 1601.449219 1568.019531 1589.929688 C 1577.429688 1589.058594 1583.039062 1584.171875 1588.03125 1579.839844 C 1591.71875 1576.628906 1594.949219 1573.828125 1599.28125 1573.019531 C 1601.949219 1574.789062 1604.980469 1576.359375 1607.738281 1576.28125 L 1607.871094 1577.78125 L 1610.929688 1577.921875 C 1630.109375 1578.820312 1662.441406 1585.089844 1663.558594 1616.988281 L 1663.601562 1618.050781 L 1664.230469 1618.921875 C 1668.648438 1625.011719 1668 1632.421875 1667.320312 1640.269531 C 1666.5 1649.789062 1665.570312 1660.550781 1675.128906 1668.339844 C 1680.96875 1680.210938 1672.160156 1692.300781 1662.851562 1705.089844 C 1651.03125 1721.328125 1637.628906 1739.738281 1659.730469 1757.449219 L 1660.578125 1758.128906 L 1661.671875 1758.210938 C 1685.859375 1759.941406 1704.621094 1768.359375 1722.488281 1785.5 L 1723.140625 1786.128906 L 1724.011719 1786.359375 C 1730.839844 1788.179688 1736.511719 1792.308594 1742.5 1796.691406 C 1750.910156 1802.828125 1759.589844 1809.160156 1772.058594 1809.511719 C 1778.328125 1819.96875 1772.808594 1831.210938 1766.46875 1840.898438 L 1765.898438 1841.769531 L 1765.898438 1842.820312 C 1765.910156 1851.441406 1765.898438 1860.308594 1765.898438 1868.941406 L 1765.898438 1869.378906 L 1766 1869.800781 C 1767.628906 1876.230469 1767.648438 1882.828125 1767.179688 1890.75 L 1767.058594 1892.828125 L 1768.828125 1893.929688 C 1775.828125 1898.28125 1775 1903.070312 1772.460938 1913.511719 L 1771.570312 1917.191406 L 1772.808594 1918.558594 C 1780.511719 1927.070312 1784.539062 1934.800781 1780.800781 1947 L 1780.480469 1948.058594 L 1780.820312 1949.101562 C 1785.28125 1962.941406 1793.230469 1966.46875 1799.621094 1969.308594 C 1807.570312 1972.839844 1813.320312 1975.390625 1807.941406 2003.828125 L 1807.859375 2004.300781 L 1807.890625 2004.769531 C 1808.53125 2012.429688 1814.089844 2016.441406 1819 2019.980469 C 1820.621094 2021.140625 1822.160156 2022.261719 1823.488281 2023.449219 C 1821.988281 2061.898438 1827.289062 2089.128906 1840.121094 2108.988281 C 1843.121094 2119.011719 1841.480469 2129.761719 1839.75 2141.128906 C 1838.988281 2146.148438 1838.199219 2151.339844 1837.839844 2156.46875 L 1837.648438 2159.238281 L 1840.308594 2160.058594 C 1842.121094 2160.609375 1843.730469 2160.859375 1845.171875 2160.859375 C 1852.128906 2160.859375 1854.890625 2154.960938 1856.609375 2149.851562 C 1858.941406 2154.628906 1861.011719 2156.550781 1863.621094 2156.808594 C 1867.449219 2157.191406 1869.578125 2153.691406 1871.648438 2150.289062 C 1873.609375 2147.070312 1875.820312 2143.410156 1878.921875 2142.71875 C 1880.75 2142.308594 1883 2142.898438 1885.660156 2144.46875 C 1886.210938 2148.171875 1888.25 2151.101562 1891.230469 2152.398438 C 1893.800781 2153.519531 1896.609375 2153.210938 1898.738281 2151.558594 C 1901.289062 2149.578125 1902.371094 2146.050781 1901.699219 2141.878906 L 1901.601562 2141.300781 L 1901.320312 2140.78125 C 1900.890625 2139.960938 1900.421875 2139.171875 1899.960938 2138.378906 C 1898.140625 2135.308594 1897.289062 2133.589844 1897.648438 2131.871094 C 1900.289062 2132.519531 1902.53125 2132.351562 1904.460938 2131.359375 C 1908.488281 2129.28125 1909.488281 2124.570312 1910.449219 2120.011719 C 1911.589844 2114.648438 1912.46875 2111.78125 1914.921875 2110.871094 C 1916.019531 2113.039062 1915.609375 2116.019531 1914.859375 2120.261719 C 1914.558594 2121.960938 1914.25 2123.71875 1914.109375 2125.46875 L 1913.851562 2128.730469 L 1917.078125 2129.210938 C 1920.921875 2129.78125 1923.960938 2129.140625 1926.128906 2127.308594 C 1929.710938 2124.289062 1929.820312 2119.269531 1929.921875 2114.398438 C 1929.980469 2112.03125 1930.03125 2109.589844 1930.5 2107.699219 C 1931.441406 2107.660156 1932.359375 2107.628906 1933.25 2107.601562 C 1943.28125 2107.25 1951.960938 2106.960938 1960.589844 2095.71875 C 1971.03125 2090.171875 1978.5 2096.28125 1987.121094 2103.328125 C 1993.628906 2108.660156 2000.371094 2114.171875 2008.789062 2114.488281 L 2011.058594 2114.570312 L 2012.070312 2112.53125 C 2013.480469 2109.660156 2015.300781 2109.378906 2020.171875 2109.308594 C 2023.28125 2109.269531 2026.75 2109.21875 2030.148438 2107.621094 C 2031.738281 2108.199219 2033.210938 2109.238281 2034.851562 2110.410156 C 2037.921875 2112.578125 2041.398438 2115.050781 2046.628906 2115.058594 L 2046.96875 2115.058594 L 2047.308594 2115 C 2049.578125 2114.558594 2051.878906 2113.949219 2054.109375 2113.359375 C 2058.449219 2112.210938 2064.378906 2110.640625 2065.96875 2112.050781 C 2066.300781 2112.351562 2067.320312 2113.699219 2066.609375 2118.78125 L 2066.078125 2122.511719 L 2069.839844 2122.761719 C 2076.410156 2123.199219 2080.941406 2121.550781 2083.289062 2117.890625 C 2088.421875 2109.890625 2080.929688 2096.019531 2073 2081.328125 C 2068.988281 2073.910156 2064 2064.679688 2064.351562 2061.449219 L 2064.398438 2061.011719 L 2064.328125 2060.578125 C 2063.980469 2058.148438 2065.011719 2057.289062 2069.238281 2054.96875 C 2069.988281 2054.558594 2070.738281 2054.140625 2071.488281 2053.699219 L 2072.019531 2053.378906 L 2072.421875 2052.898438 C 2077.339844 2046.871094 2076.941406 2040.941406 2076.648438 2036.609375 C 2076.261719 2030.941406 2076.070312 2028.089844 2088.511719 2025.589844 L 2091.640625 2024.960938 L 2091.300781 2021.789062 C 2090.910156 2018.171875 2090.121094 2014.550781 2089.359375 2011.058594 C 2087 2000.238281 2084.960938 1990.890625 2094.109375 1982.761719 L 2100.429688 1977.140625 L 2091.988281 1976.648438 C 2083.039062 1976.121094 2081.800781 1974.609375 2081.78125 1974.609375 C 2081.601562 1973.589844 2083.699219 1970.148438 2085.101562 1967.878906 C 2086.511719 1965.578125 2088.109375 1962.960938 2089.460938 1960.070312 L 2090.03125 1958.851562 L 2089.640625 1957.570312 C 2087.851562 1951.730469 2083.328125 1948.898438 2079.699219 1946.621094 C 2076.609375 1944.679688 2074.550781 1943.300781 2073.570312 1941.070312 C 2075.839844 1933.429688 2070.859375 1929.640625 2067.828125 1927.328125 C 2065.160156 1925.300781 2064.101562 1924.320312 2064.199219 1922.511719 C 2070.019531 1915.28125 2068.289062 1911.238281 2066.691406 1909.441406 C 2063.789062 1906.191406 2057.929688 1906.488281 2051.710938 1910.050781 C 2047.921875 1907.71875 2043.488281 1905.570312 2038.339844 1904.96875 C 2033.738281 1894.460938 2033.710938 1884.019531 2038.421875 1879.648438 C 2042.21875 1876.121094 2049.070312 1876.878906 2057.75 1881.789062 C 2064.160156 1890.820312 2068.980469 1890.328125 2071.300781 1889.199219 C 2075.351562 1887.230469 2076.441406 1881.441406 2074.328125 1873.53125 C 2076.121094 1871.351562 2077.179688 1870.671875 2077.609375 1870.480469 C 2079.070312 1872.019531 2080.410156 1879.28125 2081.070312 1882.851562 C 2082.628906 1891.300781 2083.871094 1897.980469 2088.949219 1898.871094 C 2093.300781 1899.640625 2096.75 1895.121094 2099.570312 1890.398438 C 2107.488281 1884.289062 2113.859375 1875.261719 2117.539062 1864.898438 L 2117.859375 1863.988281 L 2117.679688 1863.050781 C 2117.378906 1861.53125 2117.480469 1860.449219 2117.96875 1859.828125 C 2119.558594 1857.839844 2125.75 1857.671875 2130.710938 1857.519531 C 2137.730469 1857.320312 2144.980469 1857.109375 2148.898438 1852.859375 L 2150.539062 1851.078125 L 2149.460938 1848.921875 "/>
</svg>
