<?xml version="1.0" encoding="UTF-8"?>
<svg xmlns="http://www.w3.org/2000/svg" xmlns:xlink="http://www.w3.org/1999/xlink" width="2400" height="2400" viewBox="0 0 2400 2400">
<defs>
<clipPath id="clip-0">
<path clip-rule="nonzero" d="M 61.726562 0 L 110.742188 0 L 110.742188 2400 L 61.726562 2400 Z M 61.726562 0 "/>
</clipPath>
<linearGradient id="linear-pattern-0" gradientUnits="userSpaceOnUse" x1="0.0740725" y1="0" x2="0.895127" y2="0" gradientTransform="matrix(39.9373, 2923.34, -2923.34, 39.9373, 67.6219, -216.66)">
<stop offset="0" stop-color="rgb(98.429871%, 98.429871%, 98.429871%)" stop-opacity="1"/>
<stop offset="0.5" stop-color="rgb(98.429871%, 98.429871%, 98.429871%)" stop-opacity="1"/>
<stop offset="0.5625" stop-color="rgb(98.429871%, 98.429871%, 98.429871%)" stop-opacity="1"/>
<stop offset="0.59375" stop-color="rgb(98.376465%, 98.376465%, 98.376465%)" stop-opacity="1"/>
<stop offset="0.625" stop-color="rgb(98.179626%, 98.179626%, 98.179626%)" stop-opacity="1"/>
<stop offset="0.75" stop-color="rgb(98.03772%, 98.03772%, 98.03772%)" stop-opacity="1"/>
<stop offset="1" stop-color="rgb(98.03772%, 98.03772%, 98.03772%)" stop-opacity="1"/>
</linearGradient>
<clipPath id="clip-1">
<path clip-rule="nonzero" d="M 167.796875 0 L 216.816406 0 L 216.816406 2400 L 167.796875 2400 Z M 167.796875 0 "/>
</clipPath>
<linearGradient id="linear-pattern-1" gradientUnits="userSpaceOnUse" x1="0.0740725" y1="0" x2="0.895127" y2="0" gradientTransform="matrix(39.9373, 2923.34, -2923.34, 39.9373, 173.695, -216.66)">
<stop offset="0" stop-color="rgb(98.429871%, 98.429871%, 98.429871%)" stop-opacity="1"/>
<stop offset="0.5" stop-color="rgb(98.429871%, 98.429871%, 98.429871%)" stop-opacity="1"/>
<stop offset="0.5625" stop-color="rgb(98.429871%, 98.429871%, 98.429871%)" stop-opacity="1"/>
<stop offset="0.59375" stop-color="rgb(98.376465%, 98.376465%, 98.376465%)" stop-opacity="1"/>
<stop offset="0.625" stop-color="rgb(98.179626%, 98.179626%, 98.179626%)" stop-opacity="1"/>
<stop offset="0.75" stop-color="rgb(98.03772%, 98.03772%, 98.03772%)" stop-opacity="1"/>
<stop offset="1" stop-color="rgb(98.03772%, 98.03772%, 98.03772%)" stop-opacity="1"/>
</linearGradient>
<clipPath id="clip-2">
<path clip-rule="nonzero" d="M 273.871094 0 L 322.890625 0 L 322.890625 2400 L 273.871094 2400 Z M 273.871094 0 "/>
</clipPath>
<linearGradient id="linear-pattern-2" gradientUnits="userSpaceOnUse" x1="0.0740725" y1="0" x2="0.895127" y2="0" gradientTransform="matrix(39.9373, 2923.34, -2923.34, 39.9373, 279.768, -216.66)">
<stop offset="0" stop-color="rgb(98.429871%, 98.429871%, 98.429871%)" stop-opacity="1"/>
<stop offset="0.5" stop-color="rgb(98.429871%, 98.429871%, 98.429871%)" stop-opacity="1"/>
<stop offset="0.5625" stop-color="rgb(98.429871%, 98.429871%, 98.429871%)" stop-opacity="1"/>
<stop offset="0.59375" stop-color="rgb(98.376465%, 98.376465%, 98.376465%)" stop-opacity="1"/>
<stop offset="0.625" stop-color="rgb(98.179626%, 98.179626%, 98.179626%)" stop-opacity="1"/>
<stop offset="0.75" stop-color="rgb(98.03772%, 98.03772%, 98.03772%)" stop-opacity="1"/>
<stop offset="1" stop-color="rgb(98.03772%, 98.03772%, 98.03772%)" stop-opacity="1"/>
</linearGradient>
<clipPath id="clip-3">
<path clip-rule="nonzero" d="M 379.945312 0 L 428.960938 0 L 428.960938 2400 L 379.945312 2400 Z M 379.945312 0 "/>
</clipPath>
<linearGradient id="linear-pattern-3" gradientUnits="userSpaceOnUse" x1="0.0740725" y1="0" x2="0.895127" y2="0" gradientTransform="matrix(39.9373, 2923.34, -2923.34, 39.9373, 385.841, -216.66)">
<stop offset="0" stop-color="rgb(98.429871%, 98.429871%, 98.429871%)" stop-opacity="1"/>
<stop offset="0.5" stop-color="rgb(98.429871%, 98.429871%, 98.429871%)" stop-opacity="1"/>
<stop offset="0.5625" stop-color="rgb(98.429871%, 98.429871%, 98.429871%)" stop-opacity="1"/>
<stop offset="0.59375" stop-color="rgb(98.376465%, 98.376465%, 98.376465%)" stop-opacity="1"/>
<stop offset="0.625" stop-color="rgb(98.179626%, 98.179626%, 98.179626%)" stop-opacity="1"/>
<stop offset="0.75" stop-color="rgb(98.03772%, 98.03772%, 98.03772%)" stop-opacity="1"/>
<stop offset="1" stop-color="rgb(98.03772%, 98.03772%, 98.03772%)" stop-opacity="1"/>
</linearGradient>
<clipPath id="clip-4">
<path clip-rule="nonzero" d="M 486.015625 0 L 535.035156 0 L 535.035156 2400 L 486.015625 2400 Z M 486.015625 0 "/>
</clipPath>
<linearGradient id="linear-pattern-4" gradientUnits="userSpaceOnUse" x1="0.0740725" y1="0" x2="0.895127" y2="0" gradientTransform="matrix(39.9373, 2923.34, -2923.34, 39.9373, 491.914, -216.66)">
<stop offset="0" stop-color="rgb(98.429871%, 98.429871%, 98.429871%)" stop-opacity="1"/>
<stop offset="0.5" stop-color="rgb(98.429871%, 98.429871%, 98.429871%)" stop-opacity="1"/>
<stop offset="0.5625" stop-color="rgb(98.429871%, 98.429871%, 98.429871%)" stop-opacity="1"/>
<stop offset="0.59375" stop-color="rgb(98.376465%, 98.376465%, 98.376465%)" stop-opacity="1"/>
<stop offset="0.625" stop-color="rgb(98.179626%, 98.179626%, 98.179626%)" stop-opacity="1"/>
<stop offset="0.75" stop-color="rgb(98.03772%, 98.03772%, 98.03772%)" stop-opacity="1"/>
<stop offset="1" stop-color="rgb(98.03772%, 98.03772%, 98.03772%)" stop-opacity="1"/>
</linearGradient>
<clipPath id="clip-5">
<path clip-rule="nonzero" d="M 592.089844 0 L 641.109375 0 L 641.109375 2400 L 592.089844 2400 Z M 592.089844 0 "/>
</clipPath>
<linearGradient id="linear-pattern-5" gradientUnits="userSpaceOnUse" x1="0.0740725" y1="0" x2="0.895127" y2="0" gradientTransform="matrix(39.9373, 2923.34, -2923.34, 39.9373, 597.987, -216.66)">
<stop offset="0" stop-color="rgb(98.429871%, 98.429871%, 98.429871%)" stop-opacity="1"/>
<stop offset="0.5" stop-color="rgb(98.429871%, 98.429871%, 98.429871%)" stop-opacity="1"/>
<stop offset="0.5625" stop-color="rgb(98.429871%, 98.429871%, 98.429871%)" stop-opacity="1"/>
<stop offset="0.59375" stop-color="rgb(98.376465%, 98.376465%, 98.376465%)" stop-opacity="1"/>
<stop offset="0.625" stop-color="rgb(98.179626%, 98.179626%, 98.179626%)" stop-opacity="1"/>
<stop offset="0.75" stop-color="rgb(98.03772%, 98.03772%, 98.03772%)" stop-opacity="1"/>
<stop offset="1" stop-color="rgb(98.03772%, 98.03772%, 98.03772%)" stop-opacity="1"/>
</linearGradient>
<clipPath id="clip-6">
<path clip-rule="nonzero" d="M 698.160156 0 L 747.179688 0 L 747.179688 2400 L 698.160156 2400 Z M 698.160156 0 "/>
</clipPath>
<linearGradient id="linear-pattern-6" gradientUnits="userSpaceOnUse" x1="0.0740725" y1="0" x2="0.895127" y2="0" gradientTransform="matrix(39.9373, 2923.34, -2923.34, 39.9373, 704.06, -216.66)">
<stop offset="0" stop-color="rgb(98.429871%, 98.429871%, 98.429871%)" stop-opacity="1"/>
<stop offset="0.5" stop-color="rgb(98.429871%, 98.429871%, 98.429871%)" stop-opacity="1"/>
<stop offset="0.5625" stop-color="rgb(98.429871%, 98.429871%, 98.429871%)" stop-opacity="1"/>
<stop offset="0.59375" stop-color="rgb(98.376465%, 98.376465%, 98.376465%)" stop-opacity="1"/>
<stop offset="0.625" stop-color="rgb(98.179626%, 98.179626%, 98.179626%)" stop-opacity="1"/>
<stop offset="0.75" stop-color="rgb(98.03772%, 98.03772%, 98.03772%)" stop-opacity="1"/>
<stop offset="1" stop-color="rgb(98.03772%, 98.03772%, 98.03772%)" stop-opacity="1"/>
</linearGradient>
<clipPath id="clip-7">
<path clip-rule="nonzero" d="M 804.234375 0 L 853.253906 0 L 853.253906 2400 L 804.234375 2400 Z M 804.234375 0 "/>
</clipPath>
<linearGradient id="linear-pattern-7" gradientUnits="userSpaceOnUse" x1="0.0740725" y1="0" x2="0.895127" y2="0" gradientTransform="matrix(39.9373, 2923.34, -2923.34, 39.9373, 810.133, -216.66)">
<stop offset="0" stop-color="rgb(98.429871%, 98.429871%, 98.429871%)" stop-opacity="1"/>
<stop offset="0.5" stop-color="rgb(98.429871%, 98.429871%, 98.429871%)" stop-opacity="1"/>
<stop offset="0.5625" stop-color="rgb(98.429871%, 98.429871%, 98.429871%)" stop-opacity="1"/>
<stop offset="0.59375" stop-color="rgb(98.376465%, 98.376465%, 98.376465%)" stop-opacity="1"/>
<stop offset="0.625" stop-color="rgb(98.179626%, 98.179626%, 98.179626%)" stop-opacity="1"/>
<stop offset="0.75" stop-color="rgb(98.03772%, 98.03772%, 98.03772%)" stop-opacity="1"/>
<stop offset="1" stop-color="rgb(98.03772%, 98.03772%, 98.03772%)" stop-opacity="1"/>
</linearGradient>
<clipPath id="clip-8">
<path clip-rule="nonzero" d="M 910.308594 0 L 959.328125 0 L 959.328125 2400 L 910.308594 2400 Z M 910.308594 0 "/>
</clipPath>
<linearGradient id="linear-pattern-8" gradientUnits="userSpaceOnUse" x1="0.0740725" y1="0" x2="0.895127" y2="0" gradientTransform="matrix(39.9373, 2923.34, -2923.34, 39.9373, 916.205, -216.66)">
<stop offset="0" stop-color="rgb(98.429871%, 98.429871%, 98.429871%)" stop-opacity="1"/>
<stop offset="0.5" stop-color="rgb(98.429871%, 98.429871%, 98.429871%)" stop-opacity="1"/>
<stop offset="0.5625" stop-color="rgb(98.429871%, 98.429871%, 98.429871%)" stop-opacity="1"/>
<stop offset="0.59375" stop-color="rgb(98.376465%, 98.376465%, 98.376465%)" stop-opacity="1"/>
<stop offset="0.625" stop-color="rgb(98.179626%, 98.179626%, 98.179626%)" stop-opacity="1"/>
<stop offset="0.75" stop-color="rgb(98.03772%, 98.03772%, 98.03772%)" stop-opacity="1"/>
<stop offset="1" stop-color="rgb(98.03772%, 98.03772%, 98.03772%)" stop-opacity="1"/>
</linearGradient>
<clipPath id="clip-9">
<path clip-rule="nonzero" d="M 1016.378906 0 L 1065.398438 0 L 1065.398438 2400 L 1016.378906 2400 Z M 1016.378906 0 "/>
</clipPath>
<linearGradient id="linear-pattern-9" gradientUnits="userSpaceOnUse" x1="0.0740725" y1="0" x2="0.895127" y2="0" gradientTransform="matrix(39.9373, 2923.34, -2923.34, 39.9373, 1022.28, -216.66)">
<stop offset="0" stop-color="rgb(98.429871%, 98.429871%, 98.429871%)" stop-opacity="1"/>
<stop offset="0.5" stop-color="rgb(98.429871%, 98.429871%, 98.429871%)" stop-opacity="1"/>
<stop offset="0.5625" stop-color="rgb(98.429871%, 98.429871%, 98.429871%)" stop-opacity="1"/>
<stop offset="0.59375" stop-color="rgb(98.376465%, 98.376465%, 98.376465%)" stop-opacity="1"/>
<stop offset="0.625" stop-color="rgb(98.179626%, 98.179626%, 98.179626%)" stop-opacity="1"/>
<stop offset="0.75" stop-color="rgb(98.03772%, 98.03772%, 98.03772%)" stop-opacity="1"/>
<stop offset="1" stop-color="rgb(98.03772%, 98.03772%, 98.03772%)" stop-opacity="1"/>
</linearGradient>
<clipPath id="clip-10">
<path clip-rule="nonzero" d="M 1122.449219 0 L 1171.46875 0 L 1171.46875 2400 L 1122.449219 2400 Z M 1122.449219 0 "/>
</clipPath>
<linearGradient id="linear-pattern-10" gradientUnits="userSpaceOnUse" x1="0.0740725" y1="0" x2="0.895127" y2="0" gradientTransform="matrix(39.9373, 2923.34, -2923.34, 39.9373, 1128.35, -216.66)">
<stop offset="0" stop-color="rgb(98.429871%, 98.429871%, 98.429871%)" stop-opacity="1"/>
<stop offset="0.5" stop-color="rgb(98.429871%, 98.429871%, 98.429871%)" stop-opacity="1"/>
<stop offset="0.5625" stop-color="rgb(98.429871%, 98.429871%, 98.429871%)" stop-opacity="1"/>
<stop offset="0.59375" stop-color="rgb(98.376465%, 98.376465%, 98.376465%)" stop-opacity="1"/>
<stop offset="0.625" stop-color="rgb(98.179626%, 98.179626%, 98.179626%)" stop-opacity="1"/>
<stop offset="0.75" stop-color="rgb(98.03772%, 98.03772%, 98.03772%)" stop-opacity="1"/>
<stop offset="1" stop-color="rgb(98.03772%, 98.03772%, 98.03772%)" stop-opacity="1"/>
</linearGradient>
<clipPath id="clip-11">
<path clip-rule="nonzero" d="M 1228.53125 0 L 1277.550781 0 L 1277.550781 2400 L 1228.53125 2400 Z M 1228.53125 0 "/>
</clipPath>
<linearGradient id="linear-pattern-11" gradientUnits="userSpaceOnUse" x1="0.0740725" y1="0" x2="0.895127" y2="0" gradientTransform="matrix(39.9373, 2923.34, -2923.34, 39.9373, 1234.42, -216.66)">
<stop offset="0" stop-color="rgb(98.429871%, 98.429871%, 98.429871%)" stop-opacity="1"/>
<stop offset="0.5" stop-color="rgb(98.429871%, 98.429871%, 98.429871%)" stop-opacity="1"/>
<stop offset="0.5625" stop-color="rgb(98.429871%, 98.429871%, 98.429871%)" stop-opacity="1"/>
<stop offset="0.59375" stop-color="rgb(98.376465%, 98.376465%, 98.376465%)" stop-opacity="1"/>
<stop offset="0.625" stop-color="rgb(98.179626%, 98.179626%, 98.179626%)" stop-opacity="1"/>
<stop offset="0.75" stop-color="rgb(98.03772%, 98.03772%, 98.03772%)" stop-opacity="1"/>
<stop offset="1" stop-color="rgb(98.03772%, 98.03772%, 98.03772%)" stop-opacity="1"/>
</linearGradient>
<clipPath id="clip-12">
<path clip-rule="nonzero" d="M 1334.601562 0 L 1383.621094 0 L 1383.621094 2400 L 1334.601562 2400 Z M 1334.601562 0 "/>
</clipPath>
<linearGradient id="linear-pattern-12" gradientUnits="userSpaceOnUse" x1="0.0740725" y1="0" x2="0.895127" y2="0" gradientTransform="matrix(39.9373, 2923.34, -2923.34, 39.9373, 1340.5, -216.66)">
<stop offset="0" stop-color="rgb(98.429871%, 98.429871%, 98.429871%)" stop-opacity="1"/>
<stop offset="0.5" stop-color="rgb(98.429871%, 98.429871%, 98.429871%)" stop-opacity="1"/>
<stop offset="0.5625" stop-color="rgb(98.429871%, 98.429871%, 98.429871%)" stop-opacity="1"/>
<stop offset="0.59375" stop-color="rgb(98.376465%, 98.376465%, 98.376465%)" stop-opacity="1"/>
<stop offset="0.625" stop-color="rgb(98.179626%, 98.179626%, 98.179626%)" stop-opacity="1"/>
<stop offset="0.75" stop-color="rgb(98.03772%, 98.03772%, 98.03772%)" stop-opacity="1"/>
<stop offset="1" stop-color="rgb(98.03772%, 98.03772%, 98.03772%)" stop-opacity="1"/>
</linearGradient>
<clipPath id="clip-13">
<path clip-rule="nonzero" d="M 1440.671875 0 L 1489.691406 0 L 1489.691406 2400 L 1440.671875 2400 Z M 1440.671875 0 "/>
</clipPath>
<linearGradient id="linear-pattern-13" gradientUnits="userSpaceOnUse" x1="0.0740725" y1="0" x2="0.895127" y2="0" gradientTransform="matrix(39.9373, 2923.34, -2923.34, 39.9373, 1446.57, -216.66)">
<stop offset="0" stop-color="rgb(98.429871%, 98.429871%, 98.429871%)" stop-opacity="1"/>
<stop offset="0.5" stop-color="rgb(98.429871%, 98.429871%, 98.429871%)" stop-opacity="1"/>
<stop offset="0.5625" stop-color="rgb(98.429871%, 98.429871%, 98.429871%)" stop-opacity="1"/>
<stop offset="0.59375" stop-color="rgb(98.376465%, 98.376465%, 98.376465%)" stop-opacity="1"/>
<stop offset="0.625" stop-color="rgb(98.179626%, 98.179626%, 98.179626%)" stop-opacity="1"/>
<stop offset="0.75" stop-color="rgb(98.03772%, 98.03772%, 98.03772%)" stop-opacity="1"/>
<stop offset="1" stop-color="rgb(98.03772%, 98.03772%, 98.03772%)" stop-opacity="1"/>
</linearGradient>
<clipPath id="clip-14">
<path clip-rule="nonzero" d="M 1546.75 0 L 1595.761719 0 L 1595.761719 2400 L 1546.75 2400 Z M 1546.75 0 "/>
</clipPath>
<linearGradient id="linear-pattern-14" gradientUnits="userSpaceOnUse" x1="0.0740725" y1="0" x2="0.895127" y2="0" gradientTransform="matrix(39.9373, 2923.34, -2923.34, 39.9373, 1552.64, -216.66)">
<stop offset="0" stop-color="rgb(98.429871%, 98.429871%, 98.429871%)" stop-opacity="1"/>
<stop offset="0.5" stop-color="rgb(98.429871%, 98.429871%, 98.429871%)" stop-opacity="1"/>
<stop offset="0.5625" stop-color="rgb(98.429871%, 98.429871%, 98.429871%)" stop-opacity="1"/>
<stop offset="0.59375" stop-color="rgb(98.376465%, 98.376465%, 98.376465%)" stop-opacity="1"/>
<stop offset="0.625" stop-color="rgb(98.179626%, 98.179626%, 98.179626%)" stop-opacity="1"/>
<stop offset="0.75" stop-color="rgb(98.03772%, 98.03772%, 98.03772%)" stop-opacity="1"/>
<stop offset="1" stop-color="rgb(98.03772%, 98.03772%, 98.03772%)" stop-opacity="1"/>
</linearGradient>
<clipPath id="clip-15">
<path clip-rule="nonzero" d="M 1652.820312 0 L 1701.839844 0 L 1701.839844 2400 L 1652.820312 2400 Z M 1652.820312 0 "/>
</clipPath>
<linearGradient id="linear-pattern-15" gradientUnits="userSpaceOnUse" x1="0.0740725" y1="0" x2="0.895127" y2="0" gradientTransform="matrix(39.9373, 2923.34, -2923.34, 39.9373, 1658.72, -216.66)">
<stop offset="0" stop-color="rgb(98.429871%, 98.429871%, 98.429871%)" stop-opacity="1"/>
<stop offset="0.5" stop-color="rgb(98.429871%, 98.429871%, 98.429871%)" stop-opacity="1"/>
<stop offset="0.5625" stop-color="rgb(98.429871%, 98.429871%, 98.429871%)" stop-opacity="1"/>
<stop offset="0.59375" stop-color="rgb(98.376465%, 98.376465%, 98.376465%)" stop-opacity="1"/>
<stop offset="0.625" stop-color="rgb(98.179626%, 98.179626%, 98.179626%)" stop-opacity="1"/>
<stop offset="0.75" stop-color="rgb(98.03772%, 98.03772%, 98.03772%)" stop-opacity="1"/>
<stop offset="1" stop-color="rgb(98.03772%, 98.03772%, 98.03772%)" stop-opacity="1"/>
</linearGradient>
<clipPath id="clip-16">
<path clip-rule="nonzero" d="M 1758.890625 0 L 1807.910156 0 L 1807.910156 2400 L 1758.890625 2400 Z M 1758.890625 0 "/>
</clipPath>
<linearGradient id="linear-pattern-16" gradientUnits="userSpaceOnUse" x1="0.0740725" y1="0" x2="0.895127" y2="0" gradientTransform="matrix(39.9373, 2923.34, -2923.34, 39.9373, 1764.79, -216.66)">
<stop offset="0" stop-color="rgb(98.429871%, 98.429871%, 98.429871%)" stop-opacity="1"/>
<stop offset="0.5" stop-color="rgb(98.429871%, 98.429871%, 98.429871%)" stop-opacity="1"/>
<stop offset="0.5625" stop-color="rgb(98.429871%, 98.429871%, 98.429871%)" stop-opacity="1"/>
<stop offset="0.59375" stop-color="rgb(98.376465%, 98.376465%, 98.376465%)" stop-opacity="1"/>
<stop offset="0.625" stop-color="rgb(98.179626%, 98.179626%, 98.179626%)" stop-opacity="1"/>
<stop offset="0.75" stop-color="rgb(98.03772%, 98.03772%, 98.03772%)" stop-opacity="1"/>
<stop offset="1" stop-color="rgb(98.03772%, 98.03772%, 98.03772%)" stop-opacity="1"/>
</linearGradient>
<clipPath id="clip-17">
<path clip-rule="nonzero" d="M 1864.960938 0 L 1913.980469 0 L 1913.980469 2400 L 1864.960938 2400 Z M 1864.960938 0 "/>
</clipPath>
<linearGradient id="linear-pattern-17" gradientUnits="userSpaceOnUse" x1="0.0740725" y1="0" x2="0.895127" y2="0" gradientTransform="matrix(39.9373, 2923.34, -2923.34, 39.9373, 1870.86, -216.66)">
<stop offset="0" stop-color="rgb(98.429871%, 98.429871%, 98.429871%)" stop-opacity="1"/>
<stop offset="0.5" stop-color="rgb(98.429871%, 98.429871%, 98.429871%)" stop-opacity="1"/>
<stop offset="0.5625" stop-color="rgb(98.429871%, 98.429871%, 98.429871%)" stop-opacity="1"/>
<stop offset="0.59375" stop-color="rgb(98.376465%, 98.376465%, 98.376465%)" stop-opacity="1"/>
<stop offset="0.625" stop-color="rgb(98.179626%, 98.179626%, 98.179626%)" stop-opacity="1"/>
<stop offset="0.75" stop-color="rgb(98.03772%, 98.03772%, 98.03772%)" stop-opacity="1"/>
<stop offset="1" stop-color="rgb(98.03772%, 98.03772%, 98.03772%)" stop-opacity="1"/>
</linearGradient>
<clipPath id="clip-18">
<path clip-rule="nonzero" d="M 1971.039062 0 L 2020.058594 0 L 2020.058594 2400 L 1971.039062 2400 Z M 1971.039062 0 "/>
</clipPath>
<linearGradient id="linear-pattern-18" gradientUnits="userSpaceOnUse" x1="0.0740725" y1="0" x2="0.895127" y2="0" gradientTransform="matrix(39.9373, 2923.34, -2923.34, 39.9373, 1976.93, -216.66)">
<stop offset="0" stop-color="rgb(98.429871%, 98.429871%, 98.429871%)" stop-opacity="1"/>
<stop offset="0.5" stop-color="rgb(98.429871%, 98.429871%, 98.429871%)" stop-opacity="1"/>
<stop offset="0.5625" stop-color="rgb(98.429871%, 98.429871%, 98.429871%)" stop-opacity="1"/>
<stop offset="0.59375" stop-color="rgb(98.376465%, 98.376465%, 98.376465%)" stop-opacity="1"/>
<stop offset="0.625" stop-color="rgb(98.179626%, 98.179626%, 98.179626%)" stop-opacity="1"/>
<stop offset="0.75" stop-color="rgb(98.03772%, 98.03772%, 98.03772%)" stop-opacity="1"/>
<stop offset="1" stop-color="rgb(98.03772%, 98.03772%, 98.03772%)" stop-opacity="1"/>
</linearGradient>
<clipPath id="clip-19">
<path clip-rule="nonzero" d="M 2077.109375 0 L 2126.128906 0 L 2126.128906 2400 L 2077.109375 2400 Z M 2077.109375 0 "/>
</clipPath>
<linearGradient id="linear-pattern-19" gradientUnits="userSpaceOnUse" x1="0.0740725" y1="0" x2="0.895127" y2="0" gradientTransform="matrix(39.9373, 2923.34, -2923.34, 39.9373, 2083.01, -216.66)">
<stop offset="0" stop-color="rgb(98.429871%, 98.429871%, 98.429871%)" stop-opacity="1"/>
<stop offset="0.5" stop-color="rgb(98.429871%, 98.429871%, 98.429871%)" stop-opacity="1"/>
<stop offset="0.5625" stop-color="rgb(98.429871%, 98.429871%, 98.429871%)" stop-opacity="1"/>
<stop offset="0.59375" stop-color="rgb(98.376465%, 98.376465%, 98.376465%)" stop-opacity="1"/>
<stop offset="0.625" stop-color="rgb(98.179626%, 98.179626%, 98.179626%)" stop-opacity="1"/>
<stop offset="0.75" stop-color="rgb(98.03772%, 98.03772%, 98.03772%)" stop-opacity="1"/>
<stop offset="1" stop-color="rgb(98.03772%, 98.03772%, 98.03772%)" stop-opacity="1"/>
</linearGradient>
<clipPath id="clip-20">
<path clip-rule="nonzero" d="M 2183.179688 0 L 2232.199219 0 L 2232.199219 2400 L 2183.179688 2400 Z M 2183.179688 0 "/>
</clipPath>
<linearGradient id="linear-pattern-20" gradientUnits="userSpaceOnUse" x1="0.0740725" y1="0" x2="0.895127" y2="0" gradientTransform="matrix(39.9373, 2923.34, -2923.34, 39.9373, 2189.08, -216.66)">
<stop offset="0" stop-color="rgb(98.429871%, 98.429871%, 98.429871%)" stop-opacity="1"/>
<stop offset="0.5" stop-color="rgb(98.429871%, 98.429871%, 98.429871%)" stop-opacity="1"/>
<stop offset="0.5625" stop-color="rgb(98.429871%, 98.429871%, 98.429871%)" stop-opacity="1"/>
<stop offset="0.59375" stop-color="rgb(98.376465%, 98.376465%, 98.376465%)" stop-opacity="1"/>
<stop offset="0.625" stop-color="rgb(98.179626%, 98.179626%, 98.179626%)" stop-opacity="1"/>
<stop offset="0.75" stop-color="rgb(98.03772%, 98.03772%, 98.03772%)" stop-opacity="1"/>
<stop offset="1" stop-color="rgb(98.03772%, 98.03772%, 98.03772%)" stop-opacity="1"/>
</linearGradient>
<clipPath id="clip-21">
<path clip-rule="nonzero" d="M 2289.261719 0 L 2338.269531 0 L 2338.269531 2400 L 2289.261719 2400 Z M 2289.261719 0 "/>
</clipPath>
<linearGradient id="linear-pattern-21" gradientUnits="userSpaceOnUse" x1="0.0740725" y1="0" x2="0.895127" y2="0" gradientTransform="matrix(39.9373, 2923.34, -2923.34, 39.9373, 2295.15, -216.66)">
<stop offset="0" stop-color="rgb(98.429871%, 98.429871%, 98.429871%)" stop-opacity="1"/>
<stop offset="0.5" stop-color="rgb(98.429871%, 98.429871%, 98.429871%)" stop-opacity="1"/>
<stop offset="0.5625" stop-color="rgb(98.429871%, 98.429871%, 98.429871%)" stop-opacity="1"/>
<stop offset="0.59375" stop-color="rgb(98.376465%, 98.376465%, 98.376465%)" stop-opacity="1"/>
<stop offset="0.625" stop-color="rgb(98.179626%, 98.179626%, 98.179626%)" stop-opacity="1"/>
<stop offset="0.75" stop-color="rgb(98.03772%, 98.03772%, 98.03772%)" stop-opacity="1"/>
<stop offset="1" stop-color="rgb(98.03772%, 98.03772%, 98.03772%)" stop-opacity="1"/>
</linearGradient>
</defs>
<rect x="-240" y="-240" width="2880" height="2880" fill="rgb(100%, 100%, 100%)" fill-opacity="1"/>
<rect x="-240" y="-240" width="2880" height="2880" fill="rgb(100%, 100%, 100%)" fill-opacity="1"/>
<g clip-path="url(#clip-0)">
<path fill-rule="nonzero" fill="url(#linear-pattern-0)" d="M 110.734375 -0.667969 L 28.945312 0.449219 L 61.734375 2400.667969 L 143.523438 2399.550781 Z M 110.734375 -0.667969 "/>
</g>
<g clip-path="url(#clip-1)">
<path fill-rule="nonzero" fill="url(#linear-pattern-1)" d="M 216.808594 -0.667969 L 135.015625 0.449219 L 167.808594 2400.667969 L 249.597656 2399.550781 Z M 216.808594 -0.667969 "/>
</g>
<g clip-path="url(#clip-2)">
<path fill-rule="nonzero" fill="url(#linear-pattern-2)" d="M 322.878906 -0.667969 L 241.089844 0.449219 L 273.878906 2400.667969 L 355.671875 2399.550781 Z M 322.878906 -0.667969 "/>
</g>
<g clip-path="url(#clip-3)">
<path fill-rule="nonzero" fill="url(#linear-pattern-3)" d="M 428.953125 -0.667969 L 347.164062 0.449219 L 379.953125 2400.667969 L 461.742188 2399.550781 Z M 428.953125 -0.667969 "/>
</g>
<g clip-path="url(#clip-4)">
<path fill-rule="nonzero" fill="url(#linear-pattern-4)" d="M 535.027344 -0.667969 L 453.234375 0.449219 L 486.027344 2400.667969 L 567.816406 2399.550781 Z M 535.027344 -0.667969 "/>
</g>
<g clip-path="url(#clip-5)">
<path fill-rule="nonzero" fill="url(#linear-pattern-5)" d="M 641.097656 -0.667969 L 559.308594 0.449219 L 592.097656 2400.667969 L 673.890625 2399.550781 Z M 641.097656 -0.667969 "/>
</g>
<g clip-path="url(#clip-6)">
<path fill-rule="nonzero" fill="url(#linear-pattern-6)" d="M 747.171875 -0.667969 L 665.378906 0.449219 L 698.171875 2400.667969 L 779.960938 2399.550781 Z M 747.171875 -0.667969 "/>
</g>
<g clip-path="url(#clip-7)">
<path fill-rule="nonzero" fill="url(#linear-pattern-7)" d="M 853.246094 -0.667969 L 771.453125 0.449219 L 804.246094 2400.667969 L 886.035156 2399.550781 Z M 853.246094 -0.667969 "/>
</g>
<g clip-path="url(#clip-8)">
<path fill-rule="nonzero" fill="url(#linear-pattern-8)" d="M 959.316406 -0.667969 L 877.527344 0.449219 L 910.316406 2400.667969 L 992.109375 2399.550781 Z M 959.316406 -0.667969 "/>
</g>
<g clip-path="url(#clip-9)">
<path fill-rule="nonzero" fill="url(#linear-pattern-9)" d="M 1065.390625 -0.667969 L 983.597656 0.449219 L 1016.390625 2400.667969 L 1098.179688 2399.550781 Z M 1065.390625 -0.667969 "/>
</g>
<g clip-path="url(#clip-10)">
<path fill-rule="nonzero" fill="url(#linear-pattern-10)" d="M 1171.460938 -0.667969 L 1089.667969 0.449219 L 1122.460938 2400.667969 L 1204.25 2399.550781 Z M 1171.460938 -0.667969 "/>
</g>
<g clip-path="url(#clip-11)">
<path fill-rule="nonzero" fill="url(#linear-pattern-11)" d="M 1277.539062 -0.667969 L 1195.75 0.449219 L 1228.539062 2400.667969 L 1310.332031 2399.550781 Z M 1277.539062 -0.667969 "/>
</g>
<g clip-path="url(#clip-12)">
<path fill-rule="nonzero" fill="url(#linear-pattern-12)" d="M 1383.609375 -0.667969 L 1301.820312 0.449219 L 1334.609375 2400.667969 L 1416.402344 2399.550781 Z M 1383.609375 -0.667969 "/>
</g>
<g clip-path="url(#clip-13)">
<path fill-rule="nonzero" fill="url(#linear-pattern-13)" d="M 1489.679688 -0.667969 L 1407.886719 0.449219 L 1440.679688 2400.667969 L 1522.472656 2399.550781 Z M 1489.679688 -0.667969 "/>
</g>
<g clip-path="url(#clip-14)">
<path fill-rule="nonzero" fill="url(#linear-pattern-14)" d="M 1595.75 -0.667969 L 1513.96875 0.449219 L 1546.757812 2400.667969 L 1628.542969 2399.550781 Z M 1595.75 -0.667969 "/>
</g>
<g clip-path="url(#clip-15)">
<path fill-rule="nonzero" fill="url(#linear-pattern-15)" d="M 1701.832031 -0.667969 L 1620.039062 0.449219 L 1652.828125 2400.667969 L 1734.621094 2399.550781 Z M 1701.832031 -0.667969 "/>
</g>
<g clip-path="url(#clip-16)">
<path fill-rule="nonzero" fill="url(#linear-pattern-16)" d="M 1807.902344 -0.667969 L 1726.109375 0.449219 L 1758.898438 2400.667969 L 1840.691406 2399.550781 Z M 1807.902344 -0.667969 "/>
</g>
<g clip-path="url(#clip-17)">
<path fill-rule="nonzero" fill="url(#linear-pattern-17)" d="M 1913.972656 -0.667969 L 1832.179688 0.449219 L 1864.96875 2400.667969 L 1946.761719 2399.550781 Z M 1913.972656 -0.667969 "/>
</g>
<g clip-path="url(#clip-18)">
<path fill-rule="nonzero" fill="url(#linear-pattern-18)" d="M 2020.050781 -0.667969 L 1938.257812 0.449219 L 1971.050781 2400.667969 L 2052.839844 2399.550781 Z M 2020.050781 -0.667969 "/>
</g>
<g clip-path="url(#clip-19)">
<path fill-rule="nonzero" fill="url(#linear-pattern-19)" d="M 2126.121094 -0.667969 L 2044.328125 0.449219 L 2077.121094 2400.667969 L 2158.910156 2399.550781 Z M 2126.121094 -0.667969 "/>
</g>
<g clip-path="url(#clip-20)">
<path fill-rule="nonzero" fill="url(#linear-pattern-20)" d="M 2232.191406 -0.667969 L 2150.398438 0.449219 L 2183.1875 2400.667969 L 2264.980469 2399.550781 Z M 2232.191406 -0.667969 "/>
</g>
<g clip-path="url(#clip-21)">
<path fill-rule="nonzero" fill="url(#linear-pattern-21)" d="M 2338.261719 -0.667969 L 2256.476562 0.449219 L 2289.269531 2400.667969 L 2371.050781 2399.550781 Z M 2338.261719 -0.667969 "/>
</g>
<path fill-rule="nonzero" fill="rgb(4.704285%, 9.008789%, 33.714294%)" fill-opacity="1" d="M 1442.261719 396.089844 C 1444.261719 397.019531 1446.339844 397.988281 1448.460938 398.878906 L 1451.28125 400.050781 L 1451.230469 397 C 1451.191406 394.421875 1451.078125 391.878906 1450.96875 389.421875 C 1450.890625 387.429688 1450.800781 385.390625 1450.75 383.328125 C 1453.140625 382.289062 1455.53125 381.089844 1457.851562 379.910156 L 1456.96875 376.128906 L 1438.289062 375.921875 L 1442.679688 379.53125 C 1443.46875 380.179688 1444.289062 380.71875 1445.089844 381.238281 C 1445.320312 381.390625 1445.53125 381.53125 1445.75 381.671875 C 1445.371094 382.261719 1444.980469 382.851562 1444.601562 383.429688 C 1444.320312 383.851562 1444.039062 384.269531 1443.769531 384.691406 C 1442.550781 383.429688 1441.421875 382.21875 1440.289062 380.890625 L 1437.488281 377.570312 L 1436.789062 381.859375 C 1436.550781 383.378906 1436.21875 384.949219 1435.910156 386.460938 C 1435.589844 388.011719 1435.261719 389.601562 1435 391.199219 L 1434.75 392.761719 L 1436.199219 393.359375 C 1438.25 394.21875 1440.289062 395.171875 1442.261719 396.089844 "/>
<path fill-rule="nonzero" fill="rgb(4.704285%, 9.008789%, 33.714294%)" fill-opacity="1" d="M 2268.398438 1345.320312 C 2256.589844 1332.949219 2245.019531 1320.859375 2233.390625 1308.960938 C 2239.109375 1294.878906 2245.101562 1280.601562 2250.910156 1266.769531 L 2252.75 1262.378906 L 2252.671875 1261.820312 C 2252.21875 1258.96875 2251.769531 1256.199219 2251.320312 1253.429688 C 2250.941406 1251.101562 2250.558594 1248.761719 2250.179688 1246.371094 L 2250 1245.230469 L 2248.929688 1244.808594 C 2246.140625 1243.738281 2243.289062 1242.660156 2240.429688 1241.578125 C 2238.050781 1240.679688 2235.660156 1239.78125 2233.308594 1238.871094 C 2234.171875 1235.609375 2234.988281 1232.328125 2235.789062 1229.140625 C 2236.679688 1225.558594 2237.609375 1221.859375 2238.578125 1218.230469 L 2239.078125 1216.351562 L 2237.21875 1215.800781 C 2223.050781 1211.570312 2209.378906 1207.238281 2192.980469 1202.011719 L 2192.351562 1201.808594 L 2191.730469 1202.019531 C 2187.46875 1203.449219 2183.289062 1204.878906 2179.101562 1206.320312 C 2175.75 1207.46875 2172.390625 1208.621094 2169 1209.769531 C 2167.589844 1206.75 2166.210938 1203.710938 2164.871094 1200.75 C 2163.238281 1197.148438 2161.558594 1193.429688 2159.820312 1189.75 L 2159.46875 1189.019531 L 2158.710938 1188.738281 C 2155.980469 1187.710938 2153.398438 1186.519531 2150.671875 1185.269531 C 2150.429688 1185.160156 2150.179688 1185.039062 2149.941406 1184.929688 C 2150.339844 1184.109375 2150.738281 1183.28125 2151.148438 1182.449219 C 2151.851562 1181.011719 2152.550781 1179.570312 2153.25 1178.199219 L 2154.199219 1176.320312 L 2152.28125 1175.46875 C 2150.710938 1174.769531 2149.078125 1174.011719 2147.449219 1173.238281 C 2146.191406 1172.648438 2144.941406 1172.070312 2143.710938 1171.511719 C 2143.570312 1169.660156 2143.378906 1167.839844 2143.210938 1166.078125 C 2143.019531 1164.269531 2142.828125 1162.421875 2142.691406 1160.539062 C 2151.378906 1151.519531 2160.078125 1142.730469 2168.53125 1134.210938 C 2171.328125 1134.46875 2174.328125 1134.71875 2177.328125 1134.980469 L 2178.980469 1135.121094 L 2179.550781 1133.789062 C 2181.699219 1128.738281 2183.960938 1123.609375 2186.140625 1118.648438 C 2188.488281 1113.28125 2190.929688 1107.738281 2193.25 1102.28125 L 2194.25 1099.910156 L 2191.710938 1099.519531 C 2185.21875 1098.519531 2178.628906 1097.578125 2172.261719 1096.671875 C 2165.78125 1095.738281 2159.078125 1094.789062 2152.5 1093.769531 L 2151.851562 1093.671875 L 2151.269531 1093.980469 C 2149.910156 1094.691406 2148.488281 1095.371094 2147.070312 1096.039062 L 2146 1094.898438 C 2144.589844 1093.390625 2143.210938 1091.839844 2141.878906 1090.339844 C 2140.988281 1089.328125 2140.078125 1088.300781 2139.148438 1087.269531 C 2140.429688 1086.191406 2141.660156 1085.070312 2142.859375 1083.980469 C 2143.730469 1083.199219 2144.578125 1082.421875 2145.429688 1081.679688 L 2146.710938 1080.570312 L 2145.828125 1079.128906 C 2139.058594 1068.019531 2132.160156 1056.800781 2125.5 1045.941406 C 2119.859375 1036.769531 2114.210938 1027.570312 2108.558594 1018.320312 L 2108.058594 1017.511719 L 2066.738281 1011.878906 C 2066.761719 1011.570312 2066.769531 1011.261719 2066.78125 1010.949219 C 2066.941406 1007.398438 2067.109375 1003.730469 2067.199219 1000.128906 L 2067.230469 999.171875 L 2066.488281 998.550781 C 2062.460938 995.160156 2058.378906 992.011719 2054.390625 988.921875 L 2053.789062 988.449219 L 2053.03125 988.5 C 2049.390625 988.75 2045.738281 988.921875 2042.21875 989.089844 C 2038.859375 989.261719 2035.398438 989.429688 2031.921875 989.648438 C 2028.128906 987.03125 2024.628906 984.421875 2021.691406 982.191406 L 2020.78125 981.5 L 2019.710938 981.941406 C 2012.058594 985.109375 2003.988281 988.351562 1996.191406 991.488281 L 1996.160156 991.5 C 1994.078125 990.851562 1991.988281 990.261719 1989.960938 989.679688 C 1988.109375 989.148438 1986.210938 988.601562 1984.328125 988.03125 C 1983.761719 986.148438 1983.171875 984.320312 1982.570312 982.550781 C 1982 980.820312 1981.449219 979.179688 1980.949219 977.519531 L 1980.179688 974.988281 L 1960.628906 987.511719 C 1960.089844 985.96875 1959.589844 984.371094 1959.109375 982.820312 L 1957.980469 979.230469 L 1956.019531 979.941406 C 1952.679688 981.148438 1949.410156 982.300781 1946.140625 983.441406 C 1943.121094 984.5 1940.089844 985.558594 1937.011719 986.679688 L 1935.148438 985.269531 C 1931.339844 982.398438 1927.730469 979.679688 1924.109375 976.78125 C 1923.039062 975.308594 1921.96875 973.808594 1920.921875 972.320312 C 1919.148438 969.839844 1917.480469 967.488281 1915.871094 965.398438 L 1914.351562 963.410156 L 1912.75 965.339844 C 1910.871094 967.609375 1909.019531 969.878906 1907.191406 972.140625 C 1904.109375 975.929688 1900.929688 979.851562 1897.710938 983.589844 C 1892.691406 983.820312 1887.609375 984.128906 1882.691406 984.421875 C 1878.5 984.671875 1874.210938 984.921875 1869.941406 985.140625 C 1872.96875 978.949219 1875.988281 972.578125 1878.699219 966.878906 L 1878.988281 966.261719 L 1878.839844 965.601562 C 1877.078125 957.359375 1875.550781 948.96875 1874.078125 940.851562 L 1873.699219 938.738281 L 1872.039062 938.730469 C 1871.550781 938.71875 1870.679688 938.53125 1869.820312 938.238281 L 1867.789062 937.558594 C 1865.148438 935.890625 1862.5 934.25 1859.921875 932.648438 C 1856.660156 930.628906 1853.289062 928.550781 1849.980469 926.441406 C 1849.011719 914.328125 1848.039062 902.460938 1847.050781 890.601562 C 1850.101562 889.210938 1853.179688 887.898438 1856.421875 886.519531 C 1858.941406 885.449219 1861.46875 884.378906 1864.011719 883.25 L 1864.699219 882.941406 L 1865.019531 882.25 C 1866.980469 877.949219 1868.890625 873.589844 1870.738281 869.359375 C 1872.308594 865.769531 1873.929688 862.058594 1875.589844 858.398438 L 1888.25 859.390625 L 1888.859375 858.210938 C 1891.710938 852.621094 1894.691406 846.949219 1897.558594 841.460938 C 1900.699219 835.449219 1903.960938 829.238281 1907.078125 823.121094 L 1907.5 822.289062 L 1902.859375 811.300781 L 1901.121094 811.851562 C 1899 812.53125 1896.949219 813.210938 1894.890625 813.890625 C 1893.351562 814.398438 1891.808594 814.910156 1890.230469 815.421875 C 1889.78125 814.738281 1889.320312 814.070312 1888.859375 813.398438 C 1888.410156 812.738281 1887.949219 812.078125 1887.5 811.390625 C 1890.660156 807.441406 1893.859375 803.441406 1897.058594 799.441406 C 1901.640625 793.710938 1906.230469 787.980469 1910.730469 782.328125 L 1911.03125 781.960938 L 1911.128906 781.5 C 1911.871094 777.960938 1912.691406 774.351562 1913.480469 770.859375 C 1914.308594 767.210938 1915.171875 763.441406 1915.949219 759.71875 L 1916.179688 758.601562 L 1915.328125 757.828125 C 1913.609375 756.269531 1911.929688 754.679688 1910.300781 753.140625 C 1908.96875 751.878906 1907.601562 750.589844 1906.191406 749.300781 C 1907.46875 745.328125 1908.738281 741.308594 1910.011719 737.300781 C 1911.039062 734.050781 1912.070312 730.800781 1913.089844 727.578125 C 1917.378906 728.109375 1921.699219 728.441406 1925.929688 728.761719 L 1928.289062 728.941406 L 1928.070312 726.578125 C 1927.308594 718.28125 1926.25 709.789062 1925.289062 702.140625 C 1927.988281 701.390625 1930.75 700.679688 1933.441406 699.980469 C 1936.640625 699.160156 1939.960938 698.300781 1943.160156 697.390625 L 1945.828125 696.621094 L 1944.25 694.328125 C 1942.191406 691.339844 1940.03125 688.378906 1937.941406 685.519531 C 1936.179688 683.109375 1934.378906 680.640625 1932.628906 678.148438 C 1936.53125 674.5 1940.480469 670.800781 1944.421875 667.109375 L 1956.710938 655.621094 L 1955.519531 654.171875 C 1952.410156 650.378906 1949.378906 646.671875 1946.339844 642.960938 C 1943.679688 639.691406 1941.011719 636.429688 1938.289062 633.101562 L 1937.230469 631.808594 L 1935.769531 632.621094 C 1931.699219 634.878906 1927.46875 637.109375 1923.390625 639.269531 C 1919.949219 641.078125 1916.421875 642.941406 1912.941406 644.839844 C 1911.929688 641.078125 1910.960938 637.289062 1910 633.609375 C 1908.800781 628.960938 1907.558594 624.148438 1906.269531 619.421875 L 1905.878906 618 L 1904.410156 617.949219 C 1895.339844 617.621094 1886.050781 617.230469 1877.058594 616.839844 C 1867.320312 616.429688 1857.261719 616.011719 1847.410156 615.660156 C 1846.128906 612.421875 1845.03125 609.140625 1843.960938 605.949219 L 1843.679688 605.109375 L 1842.871094 604.761719 C 1834.199219 600.949219 1825.609375 597.140625 1817.019531 593.328125 C 1809.390625 589.941406 1801.75 586.558594 1794.070312 583.179688 C 1793.53125 577.558594 1793.039062 571.871094 1792.558594 566.351562 C 1792.019531 560.058594 1791.460938 553.558594 1790.828125 547.160156 L 1790.761719 546.449219 L 1790.25 545.941406 C 1788.230469 543.921875 1786.109375 541.941406 1784.058594 540.03125 C 1782.078125 538.179688 1780.03125 536.28125 1778.089844 534.351562 C 1769.75 519.898438 1763.929688 517.539062 1749.570312 514.5 L 1748.578125 514.28125 L 1733.808594 527.578125 C 1726.691406 533.988281 1719.539062 540.429688 1712.46875 546.78125 C 1706.449219 545.101562 1700.289062 543.328125 1694.308594 541.621094 C 1687.78125 539.738281 1681.03125 537.808594 1674.460938 535.980469 L 1672.789062 535.511719 L 1672.089844 537.109375 C 1671.320312 538.890625 1670.441406 540.648438 1669.601562 542.359375 C 1668.929688 543.71875 1668.238281 545.121094 1667.578125 546.558594 C 1659.621094 546.679688 1651.601562 546.75 1643.839844 546.808594 C 1634.871094 546.890625 1625.601562 546.96875 1616.398438 547.128906 C 1615.359375 546.089844 1614.269531 545.128906 1613.199219 544.199219 C 1612.421875 543.511719 1611.671875 542.859375 1610.949219 542.179688 C 1612.011719 537.609375 1613.019531 533.101562 1614.03125 528.609375 C 1615.328125 522.789062 1616.671875 516.78125 1618.070312 510.910156 L 1618.390625 509.550781 L 1617.238281 508.78125 C 1613.539062 506.308594 1609.769531 503.710938 1606.121094 501.210938 C 1602.539062 498.738281 1598.828125 496.191406 1595.179688 493.761719 L 1594.269531 493.148438 L 1593.269531 493.578125 C 1589.121094 495.398438 1585.03125 497.328125 1581.078125 499.199219 C 1578.648438 500.351562 1576.238281 501.488281 1573.820312 502.601562 C 1571.871094 501.960938 1569.960938 501.351562 1568.058594 500.75 C 1565.449219 499.921875 1562.960938 499.128906 1560.460938 498.269531 C 1559.980469 488.96875 1559.25 479.679688 1558.539062 470.691406 L 1558.5 470.070312 L 1558.101562 469.589844 C 1547.960938 457.058594 1537.679688 444.578125 1527.738281 432.519531 L 1525.609375 429.941406 C 1531.019531 419.078125 1536.421875 408.21875 1541.789062 397.371094 L 1542.199219 396.550781 L 1541.839844 395.699219 C 1539.488281 390.179688 1537.148438 384.710938 1534.800781 379.25 C 1532.199219 373.179688 1529.589844 367.109375 1526.988281 360.960938 L 1526.511719 359.828125 L 1525.269531 359.75 C 1522.421875 359.570312 1519.441406 359.308594 1516.558594 359.058594 C 1513.910156 358.839844 1511.179688 358.601562 1508.53125 358.421875 C 1505.820312 354.660156 1502.859375 350.859375 1499.949219 347.109375 L 1498.339844 345.039062 L 1496.769531 347.140625 C 1494.878906 349.691406 1492.871094 352.28125 1490.929688 354.78125 C 1489.03125 357.238281 1487.070312 359.78125 1485.199219 362.28125 L 1484.839844 362.761719 L 1484.808594 363.351562 C 1484.621094 366.300781 1484.441406 369.300781 1484.261719 372.308594 C 1484.03125 375.96875 1483.808594 379.648438 1483.578125 383.25 C 1470.339844 396.398438 1456.828125 410.019531 1443.761719 423.199219 L 1441.570312 425.410156 C 1438.148438 421.140625 1434.609375 416.921875 1431.171875 412.828125 C 1429.269531 410.558594 1427.359375 408.289062 1425.449219 405.988281 L 1424.371094 404.679688 L 1422.910156 405.53125 C 1420.960938 406.660156 1419 407.871094 1417.101562 409.050781 C 1415.398438 410.089844 1413.660156 411.171875 1411.941406 412.179688 C 1403.378906 411.238281 1394.640625 410.359375 1386.171875 409.5 C 1378.96875 408.78125 1371.539062 408.03125 1364.25 407.238281 L 1364.488281 401.851562 C 1364.558594 400.21875 1364.640625 398.589844 1364.710938 396.941406 C 1369.28125 398.820312 1373.808594 400.671875 1378.339844 402.519531 C 1383.929688 404.800781 1389.511719 407.070312 1395.171875 409.429688 L 1396.328125 409.910156 L 1397.261719 409.078125 C 1398.191406 408.261719 1399.21875 407.421875 1400.21875 406.609375 C 1401.25 405.761719 1402.308594 404.898438 1403.289062 404.03125 L 1407.21875 400.570312 L 1401.988281 400.53125 C 1399.449219 400.511719 1397.128906 400.671875 1394.71875 400.878906 C 1394.121094 397.878906 1393.558594 394.820312 1393.011719 391.851562 C 1392.421875 388.660156 1391.820312 385.371094 1391.171875 382.160156 C 1392.828125 380.691406 1394.488281 379.160156 1396.109375 377.679688 C 1397.96875 375.96875 1399.890625 374.199219 1401.78125 372.539062 L 1402.589844 371.828125 L 1402.441406 370.761719 C 1401.980469 367.5 1401.519531 364.171875 1401.070312 360.839844 C 1400.609375 357.5 1400.148438 354.160156 1399.691406 350.878906 L 1399.550781 349.898438 L 1367.359375 331.859375 L 1366.800781 331.890625 C 1360.371094 332.148438 1354.75 332.03125 1348.019531 331.46875 L 1347.039062 331.390625 L 1346.378906 332.109375 C 1341.46875 337.488281 1337.210938 343.769531 1333.078125 349.851562 C 1324.289062 362.808594 1315.980469 375.050781 1301.78125 379.828125 L 1300.25 380.351562 L 1300.429688 381.960938 C 1300.960938 386.519531 1301.269531 391.410156 1301.550781 396.25 C 1289.710938 400.160156 1278.171875 396.941406 1265.980469 393.550781 C 1261.960938 392.429688 1257.800781 391.269531 1253.640625 390.390625 L 1253.050781 390.269531 L 1252.488281 390.488281 C 1248.949219 391.878906 1245.328125 393.230469 1241.839844 394.539062 C 1239.050781 395.570312 1236.199219 396.640625 1233.351562 397.738281 C 1233 394.761719 1232.609375 391.78125 1232.238281 388.871094 C 1231.78125 385.269531 1231.300781 381.558594 1230.890625 377.898438 C 1233.359375 372.78125 1235.691406 367.488281 1237.941406 362.371094 C 1238.628906 360.78125 1239.328125 359.210938 1240.019531 357.640625 L 1240.460938 356.648438 L 1239.871094 355.738281 C 1239.039062 354.46875 1238.21875 353.128906 1237.390625 351.800781 C 1236.558594 350.441406 1235.71875 349.070312 1234.878906 347.789062 L 1234.21875 346.769531 L 1233.019531 346.878906 C 1226.589844 347.488281 1220.160156 348.191406 1213.941406 348.871094 C 1208.691406 349.441406 1203.269531 350.03125 1197.960938 350.550781 L 1197.539062 350.589844 L 1197.179688 350.789062 C 1180.691406 359.96875 1163.570312 369.351562 1146.308594 378.671875 L 1142.660156 380.640625 L 1146.480469 382.269531 C 1149.199219 383.429688 1151.988281 384.820312 1154.730469 386.210938 C 1152.660156 391.960938 1150.621094 397.421875 1148.640625 402.710938 L 1148.320312 403.550781 L 1148.730469 404.339844 C 1152.75 412.078125 1156.78125 420.019531 1160.679688 427.699219 C 1164.71875 435.660156 1168.878906 443.871094 1173.070312 451.929688 C 1155.300781 458.101562 1148.289062 460.148438 1129.460938 456.539062 C 1128.871094 454.171875 1128.269531 451.761719 1127.671875 449.339844 C 1127.011719 446.648438 1126.339844 443.949219 1125.679688 441.320312 L 1125.28125 439.738281 L 1123.648438 439.808594 C 1111.949219 440.308594 1100.050781 440.921875 1088.550781 441.5 C 1079.019531 441.988281 1069.179688 442.488281 1059.5 442.929688 L 1056.101562 443.078125 L 1057.878906 445.980469 C 1059.761719 449.03125 1061.609375 452.140625 1063.398438 455.140625 C 1065.199219 458.171875 1067.058594 461.289062 1068.960938 464.378906 C 1058.328125 478.96875 1046.960938 494.371094 1033.351562 512.601562 C 1014.238281 527.269531 995.09375 541.949219 975.910156 556.640625 C 972.023438 556.53125 968.078125 556.359375 964.253906 556.199219 C 960.070312 556.019531 955.746094 555.828125 951.484375 555.730469 L 950.8125 555.710938 L 950.269531 556.101562 C 945.699219 559.371094 941.394531 563.238281 937.234375 566.988281 C 928.359375 574.980469 919.957031 582.550781 908.964844 585.050781 L 904.429688 577.578125 L 902.65625 578.960938 C 899.160156 581.691406 895.597656 584.480469 892.027344 587.28125 C 889.21875 589.480469 886.40625 591.679688 883.625 593.859375 C 883.679688 591.949219 883.75 590.03125 883.816406 588.140625 C 883.9375 584.871094 884.058594 581.5 884.109375 578.238281 L 884.171875 574.398438 L 880.988281 576.550781 C 879.738281 577.398438 878.46875 578.269531 877.1875 579.140625 C 873.449219 581.691406 869.59375 584.328125 865.746094 586.808594 C 859.96875 586.46875 854.164062 586.070312 848.546875 585.671875 C 843.089844 585.289062 837.472656 584.898438 831.851562 584.558594 C 832.84375 573.351562 833.839844 562.140625 834.839844 550.941406 L 834.9375 549.859375 L 834.085938 549.191406 C 823.613281 540.921875 810.449219 538.421875 797.714844 536.011719 C 791.601562 534.851562 785.28125 533.648438 779.496094 531.820312 C 771.394531 528.160156 763.351562 524.511719 755.316406 520.859375 C 744.769531 516.070312 734.246094 511.289062 723.640625 506.519531 L 721.625 505.621094 L 720.921875 507.710938 C 719.375 512.320312 717.820312 517.121094 716.308594 521.839844 C 713.605469 519.960938 710.773438 518.21875 708.007812 516.511719 L 706.839844 515.800781 L 705.746094 516.628906 C 701.464844 519.890625 697.136719 522.929688 692.929688 525.878906 C 689.84375 525.078125 686.640625 524.441406 683.535156 523.828125 L 678.980469 522.929688 L 679.425781 525.761719 C 680.320312 531.460938 681.167969 537.191406 681.992188 542.738281 C 682.804688 548.230469 683.640625 553.878906 684.527344 559.53125 C 668.355469 560.300781 651.957031 560.871094 636.078125 561.421875 L 634.003906 561.5 C 630.222656 557.519531 626.34375 553.5 622.582031 549.601562 C 618.433594 545.300781 614.140625 540.859375 610.003906 536.488281 L 608.378906 534.769531 C 606.550781 529.441406 604.722656 524.109375 602.902344 518.789062 C 604.03125 517.949219 605.289062 517.089844 606.519531 516.25 L 608.328125 515.019531 L 606.941406 513.328125 C 605.476562 511.550781 603.980469 509.648438 602.539062 507.820312 C 601.4375 506.421875 600.304688 504.988281 599.175781 503.578125 L 599.890625 502.75 C 604.007812 497.921875 608.265625 492.929688 612.328125 487.910156 L 612.957031 487.140625 L 612.714844 486.171875 C 611.554688 481.53125 610.335938 476.839844 609.113281 472.140625 C 607.78125 467.011719 606.40625 461.699219 605.128906 456.558594 L 604.613281 454.480469 L 602.578125 455.140625 C 596.683594 457.03125 590.773438 458.929688 584.832031 460.851562 C 565.910156 466.960938 546.367188 473.261719 526.214844 479.410156 C 525.96875 477.410156 525.699219 475.410156 525.4375 473.460938 C 525.078125 470.769531 524.703125 468 524.402344 465.269531 L 525.78125 463.898438 L 522.324219 463.050781 C 520.210938 462.53125 518.011719 462.089844 515.882812 461.660156 C 514.769531 461.429688 513.636719 461.199219 512.511719 460.960938 L 509.636719 460.308594 L 508.71875 464.199219 C 509.683594 464.441406 510.664062 464.660156 511.652344 464.871094 L 517.730469 466.25 C 516.484375 467.460938 515.1875 468.691406 513.886719 469.828125 L 516.460938 472.890625 C 517.058594 472.410156 517.652344 471.980469 518.253906 471.570312 C 518.585938 472.859375 518.902344 474.128906 519.210938 475.371094 C 519.503906 476.539062 519.804688 477.738281 520.113281 478.949219 C 518.15625 478.539062 516.183594 478.039062 514.253906 477.558594 L 512.800781 477.191406 C 512.957031 476.988281 513.113281 476.800781 513.269531 476.601562 L 510.660156 473.648438 C 508.375 475.058594 506.246094 476.480469 504.183594 477.878906 C 503.25 476.640625 502.316406 475.421875 501.382812 474.210938 C 500.410156 472.949219 499.417969 471.660156 498.429688 470.339844 C 500.347656 468.25 502.246094 466.128906 504.039062 464.019531 L 501.027344 461.378906 C 499.898438 462.640625 498.835938 463.820312 497.777344 465.011719 C 496.652344 466.261719 495.53125 467.519531 494.332031 468.851562 L 493.242188 470.058594 L 493.246094 470.058594 C 492.742188 470.609375 492.234375 471.160156 491.734375 471.691406 L 490.882812 472.609375 L 491.335938 473.78125 C 493.359375 478.988281 495.414062 484.53125 497.414062 489.929688 C 439.777344 513.121094 388.238281 550.628906 338.378906 586.910156 C 314.761719 604.089844 290.339844 621.871094 265.601562 637.871094 C 223.863281 661.589844 182.40625 685.039062 142.375 707.589844 L 141.140625 708.28125 L 141.386719 709.671875 C 144.195312 725.628906 147.210938 741.859375 150.132812 757.558594 C 151.703125 766.011719 153.273438 774.460938 154.820312 782.910156 L 154.992188 783.828125 L 155.804688 784.289062 C 158.769531 785.980469 161.675781 787.589844 164.574219 789.210938 C 167.398438 790.789062 170.21875 792.359375 173.101562 793.988281 C 176.984375 805.421875 180.886719 816.851562 184.808594 828.289062 C 181.246094 831.871094 177.683594 835.511719 174.117188 839.148438 C 170.179688 843.171875 166.105469 847.320312 162.105469 851.328125 L 160.183594 853.261719 L 162.59375 854.519531 C 164.074219 855.289062 165.46875 856.121094 166.941406 857 C 168.085938 857.679688 169.261719 858.378906 170.480469 859.058594 C 171.207031 870.929688 171.988281 884.75 172.390625 898.398438 C 169.808594 902.769531 167.484375 907.128906 165.238281 911.359375 L 163.929688 913.820312 L 166.683594 914.269531 C 168.269531 914.53125 169.789062 914.710938 171.261719 914.898438 C 172.324219 915.03125 173.414062 915.171875 174.519531 915.328125 C 175.976562 919.660156 177.390625 923.941406 178.804688 928.21875 C 180.546875 933.511719 182.347656 938.96875 184.203125 944.421875 L 184.886719 946.429688 L 186.855469 945.628906 C 191.699219 943.640625 196.269531 941.550781 201.109375 939.328125 C 202.058594 938.890625 203.007812 938.460938 203.964844 938.019531 C 204.480469 938.769531 205 939.5 205.515625 940.230469 C 206.328125 941.378906 207.140625 942.519531 207.953125 943.738281 L 208.484375 944.539062 L 209.445312 944.621094 C 213.945312 945 218.425781 945.46875 222.757812 945.921875 C 225.9375 946.25 229.207031 946.589844 232.453125 946.898438 C 232.421875 951.371094 232.589844 955.800781 232.753906 960.109375 L 232.78125 960.789062 L 233.226562 961.320312 C 238.273438 967.289062 243.484375 973.289062 248.523438 979.089844 C 253.351562 984.648438 258.339844 990.390625 263.1875 996.109375 C 264.746094 1002.878906 266.308594 1009.640625 267.878906 1016.410156 L 268.070312 1017.238281 L 268.804688 1017.679688 C 271.320312 1019.171875 273.902344 1020.671875 276.488281 1022.160156 C 279.105469 1023.679688 281.726562 1025.191406 284.277344 1026.710938 L 285.113281 1027.210938 L 286.023438 1026.859375 C 290.667969 1025.058594 295.636719 1023.21875 300.484375 1021.441406 C 303.160156 1025.371094 305.664062 1029.359375 308.09375 1033.21875 L 308.015625 1033.320312 L 308.207031 1033.398438 L 309.628906 1035.660156 L 310.652344 1034.46875 L 310.941406 1034.601562 C 319.410156 1038.300781 328.164062 1042.128906 337.339844 1045.910156 L 338.921875 1046.558594 L 339.8125 1045.101562 C 343.167969 1039.578125 346.664062 1033.960938 350.042969 1028.53125 C 353.339844 1023.230469 356.753906 1017.75 360.042969 1012.351562 L 360.507812 1011.578125 L 360.25 1010.730469 C 359.378906 1007.828125 358.484375 1004.851562 357.589844 1001.71875 C 375.476562 997.898438 383.714844 990.878906 395.949219 980.460938 C 396.921875 979.628906 397.9375 978.769531 398.972656 977.890625 C 399.65625 978.199219 400.351562 978.519531 401.046875 978.839844 C 402.394531 979.460938 403.746094 980.089844 405.023438 980.640625 L 406.003906 981.058594 L 406.898438 980.480469 C 409.355469 978.910156 411.847656 977.238281 414.257812 975.621094 C 416.320312 974.238281 418.441406 972.820312 420.539062 971.460938 C 424.710938 973.519531 428.625 975.558594 432.417969 977.53125 L 433.875 978.289062 L 434.902344 977.011719 C 438.230469 972.859375 441.722656 968.761719 445.101562 964.789062 C 446.550781 963.089844 447.992188 961.398438 449.417969 959.710938 C 450.1875 960.359375 450.953125 960.988281 451.703125 961.609375 C 452.925781 962.609375 454.191406 963.660156 455.425781 964.738281 L 456.214844 965.441406 L 457.238281 965.179688 C 459.484375 964.601562 461.78125 964.089844 464.003906 963.589844 C 465.746094 963.199219 467.535156 962.789062 469.324219 962.359375 C 471.414062 966.480469 473.464844 970.558594 475.515625 974.640625 C 478.0625 979.71875 480.613281 984.789062 483.242188 989.949219 L 484.042969 991.519531 L 484.59375 991.320312 C 488.171875 996.960938 491.753906 1002.589844 495.339844 1008.230469 L 491.550781 1018.269531 L 493.183594 1019.070312 C 505.289062 1025.011719 517.695312 1031.371094 528.78125 1037.070312 C 528.292969 1038.28125 527.800781 1039.46875 527.3125 1040.660156 C 526.578125 1042.441406 525.847656 1044.21875 525.113281 1046.070312 L 524.742188 1047 L 531.183594 1057.460938 C 526.683594 1062.191406 522.136719 1067.199219 517.726562 1072.058594 L 516.789062 1073.089844 L 517.257812 1074.25 C 520.589844 1082.480469 523.921875 1090.851562 527.140625 1098.941406 C 530.894531 1108.359375 534.773438 1118.109375 538.679688 1127.699219 C 538.617188 1143.851562 538.578125 1159.730469 538.558594 1175.890625 L 538.558594 1176.390625 L 538.796875 1176.839844 C 539.9375 1178.960938 541.082031 1181.011719 542.226562 1183.070312 C 543.351562 1185.078125 544.476562 1187.101562 545.597656 1189.191406 L 545.914062 1189.78125 L 546.519531 1190.058594 C 552.820312 1192.960938 559.292969 1195.851562 565.550781 1198.640625 C 571.832031 1201.441406 578.320312 1204.328125 584.640625 1207.25 C 585.84375 1208.960938 587.113281 1210.671875 588.34375 1212.339844 C 589.660156 1214.128906 591.023438 1215.96875 592.285156 1217.78125 L 593.269531 1219.179688 L 594.8125 1218.421875 C 600.3125 1215.699219 605.75 1213.039062 611.183594 1210.378906 C 616.644531 1207.710938 622.105469 1205.039062 627.632812 1202.300781 C 628.269531 1202.679688 628.890625 1203.058594 629.507812 1203.429688 C 630.445312 1204.011719 631.386719 1204.578125 632.394531 1205.148438 L 634.050781 1206.089844 L 635.070312 1204.480469 C 639.632812 1197.300781 644.515625 1190.019531 649.269531 1182.949219 C 655.300781 1184.828125 661.125 1186.839844 667.261719 1188.949219 C 668.144531 1189.261719 669.03125 1189.558594 669.921875 1189.871094 C 666.117188 1196.570312 662.328125 1203.050781 658.644531 1209.140625 L 658.214844 1209.859375 L 658.417969 1210.671875 C 658.851562 1212.378906 659.28125 1214.03125 659.714844 1215.671875 C 660.136719 1217.269531 660.558594 1218.871094 660.980469 1220.53125 L 661.484375 1222.539062 L 663.46875 1221.96875 C 670.789062 1219.871094 678.109375 1217.648438 685.1875 1215.511719 C 690.058594 1214.03125 695.085938 1212.511719 700.039062 1211.050781 C 701.078125 1212.171875 702.152344 1213.289062 703.195312 1214.390625 C 704.515625 1215.769531 705.882812 1217.199219 707.144531 1218.589844 L 708.054688 1219.589844 L 709.324219 1219.121094 C 711.558594 1218.289062 713.917969 1217.511719 716.199219 1216.75 C 718.078125 1216.128906 720.007812 1215.488281 721.898438 1214.808594 C 730.90625 1225.648438 740.285156 1236.621094 749.375 1247.25 C 750.570312 1253.75 751.722656 1260.199219 752.863281 1266.628906 C 754.367188 1275.050781 755.917969 1283.75 757.53125 1292.300781 C 754.832031 1301.230469 751.835938 1310.570312 748.9375 1319.601562 L 748.53125 1320.859375 L 748.671875 1321.410156 C 756.125 1350.988281 758.402344 1354.519531 776.84375 1377.640625 L 777.710938 1378.730469 L 779.03125 1378.289062 C 779.789062 1378.039062 780.636719 1377.851562 781.535156 1377.648438 C 782.488281 1377.429688 783.472656 1377.210938 784.410156 1376.898438 L 786.492188 1376.210938 L 785.617188 1374.199219 C 784.769531 1372.25 783.972656 1370.25 783.199219 1368.308594 C 783.105469 1368.078125 783.007812 1367.839844 782.914062 1367.601562 C 783.144531 1367.730469 783.378906 1367.859375 783.609375 1367.980469 C 785.539062 1369.058594 787.46875 1370.128906 789.328125 1371.128906 L 791.984375 1372.558594 L 792.269531 1369.558594 C 792.667969 1365.359375 793 1361.03125 793.324219 1356.839844 C 793.636719 1352.808594 793.957031 1348.660156 794.335938 1344.621094 L 800.867188 1338.828125 C 811.210938 1338.070312 821.554688 1337.300781 831.898438 1336.53125 C 832.34375 1337.640625 832.804688 1338.710938 833.261719 1339.761719 C 833.910156 1341.261719 834.523438 1342.679688 835.078125 1344.191406 L 836.234375 1347.320312 L 838.449219 1344.820312 C 839.601562 1343.53125 840.683594 1342.230469 841.734375 1340.96875 C 842.582031 1339.949219 843.453125 1338.910156 844.355469 1337.871094 C 848.3125 1337.878906 852.105469 1337.910156 856.074219 1338.148438 C 860.769531 1341.601562 865.472656 1345.171875 870.023438 1348.628906 C 874.6875 1352.179688 879.515625 1355.839844 884.335938 1359.390625 L 885.308594 1360.101562 L 886.394531 1359.570312 C 895.566406 1355.109375 904.769531 1350.398438 913.664062 1345.828125 C 915.789062 1344.75 917.917969 1343.648438 920.054688 1342.558594 L 920.066406 1342.699219 C 920.140625 1343.78125 920.21875 1344.898438 920.375 1345.96875 L 921.402344 1353.011719 L 924.191406 1346.460938 C 924.59375 1345.53125 925.058594 1344.589844 925.554688 1343.589844 C 925.71875 1343.261719 925.886719 1342.921875 926.054688 1342.578125 C 926.628906 1342.941406 927.199219 1343.308594 927.785156 1343.691406 C 929 1344.46875 930.253906 1345.289062 931.589844 1346.03125 L 932.6875 1346.640625 L 933.714844 1345.910156 C 937.089844 1343.53125 940.601562 1341.171875 943.996094 1338.878906 C 946.875 1336.949219 949.835938 1334.960938 952.738281 1332.941406 C 957.335938 1339.539062 961.871094 1346.089844 966.40625 1352.640625 C 971.03125 1359.308594 975.660156 1365.988281 980.355469 1372.738281 L 981.125 1373.839844 L 992.523438 1371.230469 C 995.320312 1373.570312 998.113281 1375.761719 1001.050781 1378.058594 L 1002.671875 1379.328125 C 1004.488281 1385.699219 1006.398438 1392.160156 1008.261719 1398.410156 C 1010.140625 1404.789062 1012.101562 1411.390625 1013.949219 1417.871094 L 1014.359375 1419.320312 L 1015.871094 1419.320312 C 1018.769531 1419.320312 1021.609375 1419.261719 1024.371094 1419.191406 C 1027.101562 1419.128906 1029.679688 1419.058594 1032.300781 1419.070312 L 1035.988281 1419.078125 L 1033.980469 1415.980469 C 1032.398438 1413.539062 1030.730469 1411.070312 1029.109375 1408.679688 C 1027.738281 1406.660156 1026.320312 1404.570312 1024.96875 1402.511719 C 1025.898438 1400.851562 1026.828125 1399.148438 1027.769531 1397.449219 C 1028.378906 1396.339844 1028.988281 1395.21875 1029.601562 1394.121094 L 1036.800781 1404.179688 L 1037.640625 1404.308594 C 1040.441406 1404.730469 1043.308594 1405.238281 1046.078125 1405.730469 C 1048.53125 1406.160156 1051.058594 1406.609375 1053.570312 1407 C 1055.691406 1411.730469 1057.679688 1416.421875 1059.769531 1421.578125 C 1055.699219 1426.449219 1051.511719 1431.378906 1047.460938 1436.160156 C 1043.171875 1441.21875 1038.738281 1446.441406 1034.441406 1451.578125 C 1032.640625 1451.980469 1030.789062 1452.421875 1028.988281 1452.851562 C 1026.988281 1453.328125 1024.910156 1453.828125 1022.949219 1454.25 L 1021.289062 1454.601562 L 1021.371094 1456.289062 C 1021.96875 1470.121094 1022.839844 1484.179688 1023.761719 1498.558594 C 1018.75 1506.980469 1014.019531 1515.398438 1009.449219 1523.558594 L 1008.351562 1525.519531 L 1010.429688 1526.378906 C 1012.808594 1527.371094 1015.25 1528.460938 1017.601562 1529.5 C 1019.980469 1530.558594 1022.441406 1531.660156 1024.878906 1532.671875 L 1027.660156 1533.820312 L 1027.640625 1530.808594 C 1027.640625 1529.480469 1027.519531 1528.171875 1027.351562 1526.871094 C 1030.828125 1526.898438 1034.371094 1526.96875 1037.808594 1527.039062 C 1041.398438 1527.109375 1045.089844 1527.179688 1048.710938 1527.199219 C 1048.441406 1534.410156 1047.949219 1541.710938 1047.480469 1548.789062 L 1047.429688 1549.519531 L 1047.738281 1550.050781 C 1050.628906 1555.011719 1053.589844 1560.03125 1056.558594 1565.058594 C 1059.421875 1569.921875 1062.28125 1574.769531 1065.089844 1579.570312 L 1046.609375 1595.058594 C 1041.160156 1595.539062 1035.480469 1595.789062 1029.980469 1596.039062 L 1028.140625 1596.121094 L 1027.601562 1597.109375 C 1025.328125 1601.289062 1023.089844 1605.53125 1020.929688 1609.628906 C 1018.839844 1613.601562 1016.679688 1617.710938 1014.488281 1621.738281 L 1013.808594 1622.980469 L 1014.75 1624.03125 C 1017.160156 1626.71875 1019.601562 1629.390625 1021.960938 1631.96875 C 1024.019531 1634.21875 1026.148438 1636.539062 1028.25 1638.890625 C 1026.71875 1641.511719 1025.179688 1644.089844 1023.648438 1646.660156 C 1021.800781 1649.761719 1019.949219 1652.859375 1018.109375 1656.03125 L 1016.808594 1658.269531 L 1019.300781 1658.960938 C 1023.289062 1660.070312 1027.21875 1661.128906 1031.128906 1662.179688 C 1035.820312 1663.441406 1040.648438 1664.738281 1045.410156 1666.089844 L 1047.28125 1678.789062 L 1049.320312 1678.410156 C 1069 1674.730469 1089.039062 1671.21875 1108.410156 1667.828125 L 1110.980469 1667.378906 C 1118.390625 1672.070312 1125.75 1676.480469 1132.871094 1680.75 L 1133.140625 1680.910156 L 1133.441406 1680.980469 C 1143.851562 1683.429688 1154.53125 1685.71875 1164.871094 1687.929688 C 1168.011719 1688.601562 1171.140625 1689.28125 1174.269531 1689.960938 L 1173.519531 1691.488281 L 1177.320312 1690.910156 C 1177.578125 1690.871094 1177.839844 1690.828125 1178.101562 1690.789062 C 1178.25 1690.820312 1178.398438 1690.851562 1178.558594 1690.878906 L 1180.121094 1691.21875 L 1180.5 1690.421875 C 1196.03125 1688.03125 1211.570312 1685.640625 1227.121094 1683.238281 L 1228.121094 1683.078125 L 1228.589844 1682.191406 C 1230.628906 1678.269531 1232.800781 1674.558594 1235.089844 1670.628906 C 1235.808594 1669.390625 1236.539062 1668.140625 1237.269531 1666.871094 C 1243.128906 1663.929688 1249.191406 1661.011719 1255.058594 1658.199219 C 1259.171875 1656.21875 1263.300781 1654.238281 1267.429688 1652.210938 C 1285.03125 1649.851562 1302.621094 1647.238281 1319.011719 1644.761719 L 1321.058594 1644.449219 L 1320.671875 1642.410156 C 1319.941406 1638.5 1319.261719 1634.648438 1318.578125 1630.820312 C 1317.789062 1626.339844 1316.96875 1621.710938 1316.089844 1617.160156 C 1317.421875 1613.828125 1318.75 1610.449219 1320.078125 1607.058594 C 1321.53125 1603.390625 1322.96875 1599.71875 1324.421875 1596.121094 L 1324.871094 1594.988281 L 1324.078125 1594.070312 C 1321.039062 1590.539062 1318.199219 1587.011719 1315.199219 1583.28125 L 1314.191406 1582.019531 C 1315.75 1578.398438 1317.429688 1574.910156 1319.199219 1571.230469 C 1319.75 1570.078125 1320.308594 1568.921875 1320.859375 1567.75 C 1330.300781 1560.898438 1340.148438 1553.679688 1349.671875 1546.699219 L 1352.109375 1544.910156 L 1352.320312 1544.339844 C 1354.820312 1537.421875 1357.089844 1530.410156 1359.300781 1523.550781 C 1365.070312 1519.039062 1371 1514.460938 1376.730469 1510.019531 C 1381.808594 1506.089844 1386.890625 1502.160156 1391.921875 1498.230469 C 1392.390625 1499.429688 1392.839844 1500.640625 1393.289062 1501.820312 C 1394.050781 1503.859375 1394.839844 1505.96875 1395.691406 1507.988281 L 1396.191406 1509.160156 L 1397.460938 1509.210938 C 1401.25 1509.328125 1405.03125 1509.539062 1408.691406 1509.730469 C 1412.101562 1509.910156 1415.628906 1510.101562 1419.171875 1510.230469 C 1420.789062 1512.261719 1422.371094 1514.371094 1423.921875 1516.421875 C 1425.269531 1518.21875 1426.671875 1520.078125 1428.089844 1521.890625 C 1425.851562 1523.921875 1423.628906 1525.960938 1421.46875 1527.949219 C 1418.910156 1530.308594 1416.25 1532.75 1413.578125 1535.148438 L 1412.859375 1535.789062 L 1412.921875 1536.75 C 1413.328125 1544 1413.929688 1551.339844 1414.550781 1558.539062 L 1404.371094 1548.300781 L 1403.550781 1551.820312 C 1402.398438 1556.769531 1401.148438 1561.738281 1399.949219 1566.539062 C 1398.828125 1570.980469 1397.679688 1575.558594 1396.601562 1580.148438 C 1393.808594 1580.820312 1391.128906 1581.320312 1388.039062 1581.851562 L 1385.359375 1582.308594 L 1386.601562 1584.730469 C 1388.570312 1588.578125 1390.5 1592.511719 1392.371094 1596.300781 C 1393.980469 1599.558594 1395.628906 1602.929688 1397.320312 1606.261719 C 1395.699219 1607.679688 1394.078125 1609.128906 1392.5 1610.550781 C 1390.558594 1612.289062 1388.558594 1614.089844 1386.589844 1615.78125 L 1385.929688 1616.351562 L 1385.898438 1617.21875 C 1385.699219 1622.769531 1385.488281 1628.210938 1385.28125 1633.679688 L 1384.921875 1643.21875 C 1382.910156 1644.730469 1380.851562 1646.238281 1378.789062 1647.75 C 1376.441406 1649.46875 1374.089844 1651.199219 1371.808594 1652.921875 L 1371.199219 1653.378906 L 1371.058594 1654.128906 C 1370 1659.550781 1368.75 1667.671875 1370.070312 1675.558594 L 1370.289062 1676.828125 L 1371.53125 1677.160156 C 1376.488281 1678.488281 1381.398438 1679.828125 1386.300781 1681.160156 C 1391.410156 1682.550781 1396.53125 1683.941406 1401.699219 1685.328125 C 1405.429688 1690.808594 1409.148438 1696.371094 1412.738281 1701.761719 C 1416.050781 1706.710938 1419.46875 1711.820312 1422.890625 1716.871094 C 1420.550781 1722.398438 1418.210938 1727.878906 1415.871094 1733.351562 C 1413.351562 1739.238281 1410.839844 1745.121094 1408.320312 1751.070312 C 1407.601562 1751.101562 1406.859375 1751.148438 1406.101562 1751.199219 C 1404.871094 1751.269531 1403.601562 1751.359375 1402.359375 1751.359375 L 1399.519531 1751.378906 L 1400.488281 1754.050781 C 1404.839844 1766.03125 1409.25 1777.980469 1413.511719 1789.53125 L 1414.929688 1793.371094 C 1412.980469 1796.859375 1411.039062 1800.289062 1409.089844 1803.730469 C 1406.910156 1807.570312 1404.730469 1811.421875 1402.558594 1815.339844 L 1401.101562 1817.949219 L 1404.078125 1818.300781 C 1413.078125 1819.328125 1422.210938 1820.371094 1431.289062 1821.390625 L 1446.910156 1823.171875 L 1447.480469 1822.839844 C 1449.609375 1821.621094 1451.761719 1820.378906 1453.941406 1819.121094 C 1458.910156 1816.261719 1464.050781 1813.289062 1469.140625 1810.488281 L 1469.589844 1810.238281 L 1469.871094 1809.808594 C 1470.019531 1809.558594 1470.171875 1809.328125 1470.328125 1809.078125 C 1474.289062 1809.519531 1478.769531 1809.988281 1483.148438 1810.25 C 1485.378906 1814.710938 1487.398438 1819.449219 1489.359375 1824.050781 L 1489.621094 1824.648438 L 1490.191406 1824.988281 C 1495.230469 1827.941406 1500.410156 1830.859375 1505.421875 1833.691406 C 1510.351562 1836.46875 1515.460938 1839.339844 1520.390625 1842.238281 L 1520.96875 1842.578125 L 1521.640625 1842.5 C 1526.429688 1841.929688 1531.460938 1841.601562 1536.339844 1841.289062 C 1539.238281 1848.070312 1542.101562 1855 1544.871094 1861.71875 C 1547.570312 1868.269531 1550.371094 1875.050781 1553.179688 1881.648438 L 1553.75 1883 L 1555.21875 1882.859375 C 1558.46875 1882.53125 1561.699219 1882.121094 1564.820312 1881.730469 C 1567.238281 1881.429688 1569.738281 1881.109375 1572.238281 1880.839844 C 1572.5 1883.320312 1572.730469 1885.859375 1572.949219 1888.328125 C 1573.230469 1891.449219 1573.519531 1894.671875 1573.871094 1897.789062 L 1574.109375 1899.859375 L 1576.171875 1899.53125 C 1596.058594 1896.410156 1598.300781 1897.101562 1616.359375 1905.539062 L 1617.441406 1906.050781 L 1618.398438 1905.328125 C 1620.488281 1903.78125 1622.640625 1902.148438 1624.789062 1900.53125 C 1626.609375 1899.148438 1628.429688 1897.78125 1630.210938 1896.449219 C 1637.738281 1902.550781 1644.308594 1910.078125 1650.671875 1917.371094 C 1654.261719 1921.488281 1657.960938 1925.730469 1661.820312 1929.710938 C 1659.890625 1932.558594 1657.921875 1935.460938 1655.949219 1938.351562 C 1653.460938 1942 1650.980469 1945.648438 1648.570312 1949.21875 L 1648.070312 1949.949219 L 1648.289062 1950.820312 C 1648.929688 1953.429688 1649.578125 1956.128906 1650.21875 1958.820312 C 1650.820312 1961.328125 1651.421875 1963.828125 1652.019531 1966.269531 L 1652.539062 1968.371094 L 1654.601562 1967.691406 C 1659.140625 1966.171875 1663.71875 1964.359375 1668.160156 1962.601562 L 1668.851562 1962.320312 L 1669.199219 1961.660156 C 1670.238281 1959.640625 1671.210938 1957.609375 1672.160156 1955.640625 C 1672.78125 1954.339844 1673.421875 1953.019531 1674.078125 1951.691406 C 1687.640625 1960.71875 1701.121094 1969.859375 1714.171875 1978.710938 C 1714.78125 1981.789062 1715.378906 1984.820312 1715.988281 1987.859375 C 1716.761719 1991.710938 1717.53125 1995.558594 1718.289062 1999.488281 L 1718.53125 2000.730469 L 1719.75 2001.050781 C 1721.308594 2001.449219 1722.871094 2001.78125 1724.390625 2002.089844 C 1725.011719 2002.21875 1725.640625 2002.359375 1726.269531 2002.5 C 1725.488281 2003.859375 1724.699219 2005.21875 1723.921875 2006.550781 C 1722.679688 2008.671875 1721.410156 2010.871094 1720.210938 2013.03125 L 1719.441406 2014.429688 L 1720.640625 2015.488281 C 1722.648438 2017.28125 1724.761719 2019.089844 1726.800781 2020.828125 C 1728.609375 2022.390625 1730.480469 2023.988281 1732.269531 2025.570312 C 1732.210938 2028.378906 1732.320312 2031.179688 1732.449219 2033.921875 L 1722.480469 2042.230469 L 1723.550781 2043.929688 C 1727.109375 2049.609375 1730.789062 2055.480469 1734.699219 2060.980469 L 1736.21875 2063.121094 L 1737.878906 2061.089844 C 1740.328125 2058.109375 1742.570312 2055.101562 1744.761719 2052.121094 C 1749.261719 2051 1753.828125 2049.871094 1758.390625 2048.738281 C 1763.75 2047.421875 1769.109375 2046.089844 1774.398438 2044.769531 L 1775.121094 2044.589844 L 1775.539062 2043.980469 C 1777.898438 2040.648438 1780.519531 2037.25 1783.089844 2033.941406 C 1785.761719 2034.71875 1788.449219 2035.558594 1791.058594 2036.371094 C 1793.988281 2037.269531 1797.011719 2038.210938 1800.011719 2039.070312 C 1801.558594 2040.96875 1803.089844 2042.960938 1804.570312 2044.890625 C 1806.179688 2046.988281 1807.851562 2049.160156 1809.570312 2051.238281 L 1812.5 2054.769531 L 1813.089844 2050.21875 C 1813.871094 2044.289062 1814.898438 2038.511719 1815.929688 2032.859375 C 1819.03125 2029.621094 1822.179688 2026.390625 1825.230469 2023.269531 C 1828.089844 2020.351562 1830.949219 2017.421875 1833.800781 2014.449219 C 1841.070312 2015.691406 1848.378906 2016.96875 1855.699219 2018.25 C 1865 2019.890625 1874.628906 2021.570312 1884.011719 2023.140625 L 1885.558594 2023.398438 L 1886.179688 2021.960938 C 1887.570312 2018.691406 1888.890625 2015.488281 1890.210938 2012.300781 C 1891.28125 2009.730469 1892.339844 2007.148438 1893.441406 2004.539062 C 1898 2006.550781 1902.589844 2008.53125 1907.050781 2010.441406 C 1911.828125 2012.5 1916.78125 2014.621094 1921.628906 2016.769531 L 1922.359375 2017.101562 L 1923.121094 2016.828125 C 1935.621094 2012.328125 1943.800781 2003.148438 1952.460938 1993.429688 L 1954.601562 1991.03125 L 1955.300781 1976.511719 L 1952.960938 1976.78125 C 1951.328125 1976.960938 1949.730469 1977.078125 1948.179688 1977.199219 C 1947.128906 1977.28125 1946.050781 1977.359375 1944.949219 1977.460938 C 1944.789062 1976.828125 1944.628906 1976.210938 1944.46875 1975.558594 C 1944.289062 1974.800781 1944.089844 1974.03125 1943.878906 1973.230469 C 1945.941406 1971.730469 1948.019531 1970.179688 1950.03125 1968.679688 C 1952.441406 1966.878906 1954.941406 1965.019531 1957.378906 1963.261719 L 1957.890625 1962.890625 L 1958.101562 1962.300781 C 1960.570312 1955.230469 1963.039062 1947.921875 1965.429688 1940.808594 C 1966.738281 1940.550781 1968.078125 1940.300781 1969.410156 1940.050781 C 1971.179688 1939.710938 1972.949219 1939.371094 1974.648438 1939.039062 L 1976.03125 1938.769531 L 1976.238281 1937.378906 C 1976.75 1934.128906 1977.261719 1930.921875 1977.761719 1927.730469 C 1978.429688 1923.488281 1979.101562 1919.269531 1979.769531 1914.960938 L 1980 1913.421875 L 1978.578125 1912.808594 C 1974.660156 1911.128906 1970.609375 1909.488281 1966.691406 1907.910156 C 1963.308594 1906.539062 1959.828125 1905.140625 1956.421875 1903.699219 C 1958.160156 1899.800781 1959.941406 1895.851562 1961.71875 1891.898438 C 1963.800781 1887.28125 1965.890625 1882.660156 1967.898438 1878.121094 L 1968.371094 1877.058594 L 1967.679688 1876.128906 C 1965.941406 1873.761719 1964.101562 1871.441406 1962.320312 1869.199219 C 1960.578125 1867.011719 1958.789062 1864.738281 1957.101562 1862.449219 L 1956.359375 1861.441406 L 1955.121094 1861.671875 C 1948.988281 1862.808594 1942.839844 1863.738281 1936.851562 1864.621094 C 1937.25 1861.949219 1937.621094 1859.320312 1937.980469 1856.738281 C 1938.449219 1853.421875 1938.929688 1849.980469 1939.46875 1846.53125 L 1939.578125 1845.871094 L 1939.261719 1845.28125 C 1932.238281 1832.039062 1925.191406 1818.78125 1918.101562 1805.511719 L 1917.398438 1804.191406 L 1915.941406 1804.488281 C 1912.828125 1805.128906 1909.671875 1805.839844 1906.621094 1806.53125 C 1904.238281 1807.070312 1901.800781 1807.621094 1899.378906 1808.128906 C 1898.769531 1804.449219 1898.148438 1800.75 1897.539062 1797.03125 C 1896.230469 1789.089844 1894.910156 1781.121094 1893.589844 1773.25 C 1894.949219 1771.921875 1896.371094 1770.570312 1897.75 1769.261719 C 1899.378906 1767.710938 1901.070312 1766.109375 1902.671875 1764.53125 L 1904.089844 1763.121094 L 1902.679688 1761.699219 C 1901.5 1760.5 1900.230469 1759.429688 1898.988281 1758.398438 C 1899.398438 1758.230469 1899.820312 1758.058594 1900.238281 1757.878906 C 1901.308594 1757.441406 1902.390625 1756.988281 1903.480469 1756.488281 L 1904.859375 1755.859375 L 1904.621094 1754.359375 C 1904.269531 1752.078125 1903.828125 1749.851562 1903.398438 1747.691406 C 1903.210938 1746.691406 1903.011719 1745.679688 1902.820312 1744.660156 C 1903.460938 1744.910156 1904.101562 1745.148438 1904.738281 1745.398438 C 1906.5 1746.070312 1908.261719 1746.75 1910.089844 1747.421875 L 1911.738281 1748.03125 L 1912.550781 1746.480469 C 1913.441406 1744.789062 1914.328125 1743.171875 1915.21875 1741.539062 C 1916.109375 1739.910156 1917.011719 1738.269531 1917.910156 1736.570312 L 1918.78125 1734.921875 L 1917.179688 1733.941406 C 1912.769531 1731.21875 1908.339844 1728.371094 1904.050781 1725.621094 C 1900.5 1723.339844 1896.851562 1720.988281 1893.179688 1718.699219 C 1897.410156 1714.519531 1902.058594 1709.949219 1906.640625 1705.671875 L 1907.101562 1705.230469 L 1907.230469 1704.609375 C 1908.5 1698.480469 1909.851562 1692.300781 1911.148438 1686.328125 C 1912.441406 1680.429688 1913.769531 1674.351562 1915.019531 1668.28125 C 1917.378906 1667.910156 1919.769531 1667.570312 1922.089844 1667.238281 C 1924.878906 1666.851562 1927.761719 1666.441406 1930.609375 1665.96875 L 1931.179688 1665.871094 L 1931.621094 1665.488281 C 1934.851562 1662.601562 1938 1659.808594 1941.160156 1657 C 1943.621094 1654.808594 1946.101562 1652.609375 1948.628906 1650.359375 L 1949.601562 1649.488281 L 1949.199219 1648.25 C 1947.730469 1643.660156 1946.148438 1638.988281 1944.621094 1634.480469 C 1943.351562 1630.71875 1942.050781 1626.859375 1940.800781 1623.03125 C 1943.988281 1621.058594 1947.230469 1619.03125 1950.46875 1617.011719 C 1954.359375 1614.578125 1958.261719 1612.148438 1962.078125 1609.789062 L 1962.679688 1609.421875 L 1962.910156 1608.761719 C 1963.808594 1606.261719 1964.789062 1603.710938 1965.75 1601.25 C 1966.71875 1598.738281 1967.71875 1596.140625 1968.640625 1593.570312 L 1969.03125 1592.5 L 1968.300781 1591.621094 C 1966.941406 1589.988281 1965.558594 1588.238281 1964.21875 1586.558594 C 1963.261719 1585.351562 1962.28125 1584.109375 1961.300781 1582.898438 C 1963.898438 1580.589844 1966.570312 1578.261719 1969.160156 1576 C 1972.179688 1573.371094 1975.300781 1570.640625 1978.300781 1567.960938 L 1978.78125 1567.539062 L 1978.921875 1566.921875 C 1980.878906 1558.390625 1982.628906 1549.601562 1984.308594 1541.101562 L 1984.730469 1538.988281 C 1995.96875 1533.738281 2007.570312 1528.171875 2019.25 1522.449219 L 2020.230469 1521.96875 L 2020.359375 1520.890625 C 2021.078125 1514.730469 2021.730469 1508.558594 2022.359375 1502.589844 C 2022.878906 1497.601562 2023.421875 1492.449219 2024.011719 1487.308594 C 2028.960938 1485.960938 2033.921875 1484.539062 2038.71875 1483.160156 C 2043.351562 1481.828125 2048.121094 1480.46875 2052.890625 1479.160156 C 2053.269531 1481.03125 2053.648438 1482.878906 2054.039062 1484.679688 C 2054.621094 1487.359375 2055.210938 1490.121094 2055.71875 1492.890625 L 2055.898438 1493.859375 L 2056.78125 1494.308594 C 2062.25 1497.101562 2067.828125 1500.089844 2072.929688 1502.96875 L 2073.621094 1503.351562 L 2074.378906 1503.171875 C 2078.03125 1502.289062 2081.449219 1501.410156 2084.761719 1500.558594 L 2086.300781 1500.160156 L 2086.429688 1498.75 C 2086.730469 1495.339844 2087.03125 1491.921875 2087.328125 1488.511719 C 2092.089844 1489.609375 2097.050781 1490.710938 2101.570312 1491.710938 C 2102.511719 1493.898438 2103.410156 1496.050781 2104.300781 1498.191406 C 2105.160156 1500.238281 2106.011719 1502.289062 2106.910156 1504.371094 C 2104.519531 1507.75 2102.339844 1511.140625 2100.191406 1514.480469 L 2098.800781 1516.640625 L 2101.238281 1517.460938 C 2103.671875 1518.269531 2106.171875 1519.078125 2108.679688 1519.898438 C 2111.078125 1520.679688 2113.488281 1521.460938 2115.828125 1522.238281 L 2117.171875 1522.691406 L 2118.039062 1521.570312 C 2119.359375 1519.871094 2120.761719 1518.089844 2122.160156 1516.320312 C 2123.53125 1514.578125 2124.898438 1512.839844 2126.199219 1511.171875 L 2127.429688 1509.578125 L 2125.839844 1508.359375 C 2123.230469 1506.351562 2120.78125 1504.238281 2118.191406 1502 C 2117.339844 1501.269531 2116.488281 1500.53125 2115.628906 1499.789062 C 2116.660156 1497.191406 2117.738281 1494.558594 2118.800781 1492.011719 C 2119.929688 1489.269531 2121.089844 1486.449219 2122.199219 1483.648438 C 2126 1482.691406 2129.839844 1481.671875 2133.570312 1480.679688 C 2137.628906 1479.601562 2141.828125 1478.480469 2145.949219 1477.460938 L 2148.191406 1476.898438 L 2147.308594 1474.75 C 2144.738281 1468.488281 2142.199219 1462.070312 2139.75 1455.871094 C 2138.171875 1451.890625 2136.589844 1447.890625 2134.96875 1443.851562 C 2136.648438 1440.398438 2138.210938 1437 2139.789062 1433.289062 C 2141.328125 1433.019531 2142.898438 1432.71875 2144.441406 1432.429688 C 2146.308594 1432.070312 2148.25 1431.691406 2150.070312 1431.398438 L 2151.011719 1431.25 L 2151.480469 1430.421875 C 2153.789062 1426.410156 2156.210938 1422.601562 2158.769531 1418.570312 C 2159.578125 1417.289062 2160.390625 1416.011719 2161.210938 1414.710938 C 2172.898438 1411.871094 2184.578125 1409.039062 2196.269531 1406.210938 L 2197.308594 1405.960938 L 2197.679688 1404.949219 C 2200.019531 1398.480469 2202.308594 1392.078125 2204.578125 1385.699219 C 2207.308594 1378.070312 2210.121094 1370.191406 2212.960938 1362.441406 C 2216.339844 1361.769531 2220.160156 1360.898438 2224.800781 1359.75 C 2227.171875 1362.078125 2229.519531 1364.429688 2231.800781 1366.71875 C 2234.351562 1369.289062 2237 1371.949219 2239.671875 1374.558594 L 2243 1377.820312 L 2243.070312 1373.160156 C 2243.101562 1370.890625 2243.339844 1368.390625 2243.601562 1366.078125 C 2251.160156 1363.679688 2258.53125 1361.5 2265.679688 1359.378906 L 2266.871094 1359.03125 L 2267.078125 1357.808594 C 2267.699219 1354.21875 2268.308594 1350.628906 2268.929688 1347.039062 L 2269.089844 1346.050781 L 2268.398438 1345.320312 "/>
</svg>
