<?xml version="1.0" encoding="UTF-8"?>
<svg xmlns="http://www.w3.org/2000/svg" xmlns:xlink="http://www.w3.org/1999/xlink" width="2400" height="2400" viewBox="0 0 2400 2400">
<defs>
<clipPath id="clip-0">

</clipPath>
<linearGradient id="linear-pattern-0" gradientUnits="userSpaceOnUse" x1="0.0740725" y1="0" x2="0.895127" y2="0" gradientTransform="matrix(39.9373, 2923.34, -2923.34, 39.9373, 67.6219, -216.66)">
<stop offset="0" stop-color="rgb(98.429871%, 98.429871%, 98.429871%)" stop-opacity="1"/>
<stop offset="0.5" stop-color="rgb(98.429871%, 98.429871%, 98.429871%)" stop-opacity="1"/>
<stop offset="0.5625" stop-color="rgb(98.429871%, 98.429871%, 98.429871%)" stop-opacity="1"/>
<stop offset="0.59375" stop-color="rgb(98.376465%, 98.376465%, 98.376465%)" stop-opacity="1"/>
<stop offset="0.625" stop-color="rgb(98.179626%, 98.179626%, 98.179626%)" stop-opacity="1"/>
<stop offset="0.75" stop-color="rgb(98.03772%, 98.03772%, 98.03772%)" stop-opacity="1"/>
<stop offset="1" stop-color="rgb(98.03772%, 98.03772%, 98.03772%)" stop-opacity="1"/>
</linearGradient>
<clipPath id="clip-1">
<path clip-rule="nonzero" d="M 167.796875 0 L 216.816406 0 L 216.816406 2400 L 167.796875 2400 Z M 167.796875 0 "/>
</clipPath>
<linearGradient id="linear-pattern-1" gradientUnits="userSpaceOnUse" x1="0.0740725" y1="0" x2="0.895127" y2="0" gradientTransform="matrix(39.9373, 2923.34, -2923.34, 39.9373, 173.695, -216.66)">
<stop offset="0" stop-color="rgb(98.429871%, 98.429871%, 98.429871%)" stop-opacity="1"/>
<stop offset="0.5" stop-color="rgb(98.429871%, 98.429871%, 98.429871%)" stop-opacity="1"/>
<stop offset="0.5625" stop-color="rgb(98.429871%, 98.429871%, 98.429871%)" stop-opacity="1"/>
<stop offset="0.59375" stop-color="rgb(98.376465%, 98.376465%, 98.376465%)" stop-opacity="1"/>
<stop offset="0.625" stop-color="rgb(98.179626%, 98.179626%, 98.179626%)" stop-opacity="1"/>
<stop offset="0.75" stop-color="rgb(98.03772%, 98.03772%, 98.03772%)" stop-opacity="1"/>
<stop offset="1" stop-color="rgb(98.03772%, 98.03772%, 98.03772%)" stop-opacity="1"/>
</linearGradient>
<clipPath id="clip-2">
<path clip-rule="nonzero" d="M 273.871094 0 L 322.890625 0 L 322.890625 2400 L 273.871094 2400 Z M 273.871094 0 "/>
</clipPath>
<linearGradient id="linear-pattern-2" gradientUnits="userSpaceOnUse" x1="0.0740725" y1="0" x2="0.895127" y2="0" gradientTransform="matrix(39.9373, 2923.34, -2923.34, 39.9373, 279.768, -216.66)">
<stop offset="0" stop-color="rgb(98.429871%, 98.429871%, 98.429871%)" stop-opacity="1"/>
<stop offset="0.5" stop-color="rgb(98.429871%, 98.429871%, 98.429871%)" stop-opacity="1"/>
<stop offset="0.5625" stop-color="rgb(98.429871%, 98.429871%, 98.429871%)" stop-opacity="1"/>
<stop offset="0.59375" stop-color="rgb(98.376465%, 98.376465%, 98.376465%)" stop-opacity="1"/>
<stop offset="0.625" stop-color="rgb(98.179626%, 98.179626%, 98.179626%)" stop-opacity="1"/>
<stop offset="0.75" stop-color="rgb(98.03772%, 98.03772%, 98.03772%)" stop-opacity="1"/>
<stop offset="1" stop-color="rgb(98.03772%, 98.03772%, 98.03772%)" stop-opacity="1"/>
</linearGradient>
<clipPath id="clip-3">
<path clip-rule="nonzero" d="M 379.945312 0 L 428.960938 0 L 428.960938 2400 L 379.945312 2400 Z M 379.945312 0 "/>
</clipPath>
<linearGradient id="linear-pattern-3" gradientUnits="userSpaceOnUse" x1="0.0740725" y1="0" x2="0.895127" y2="0" gradientTransform="matrix(39.9373, 2923.34, -2923.34, 39.9373, 385.841, -216.66)">
<stop offset="0" stop-color="rgb(98.429871%, 98.429871%, 98.429871%)" stop-opacity="1"/>
<stop offset="0.5" stop-color="rgb(98.429871%, 98.429871%, 98.429871%)" stop-opacity="1"/>
<stop offset="0.5625" stop-color="rgb(98.429871%, 98.429871%, 98.429871%)" stop-opacity="1"/>
<stop offset="0.59375" stop-color="rgb(98.376465%, 98.376465%, 98.376465%)" stop-opacity="1"/>
<stop offset="0.625" stop-color="rgb(98.179626%, 98.179626%, 98.179626%)" stop-opacity="1"/>
<stop offset="0.75" stop-color="rgb(98.03772%, 98.03772%, 98.03772%)" stop-opacity="1"/>
<stop offset="1" stop-color="rgb(98.03772%, 98.03772%, 98.03772%)" stop-opacity="1"/>
</linearGradient>
<clipPath id="clip-4">
<path clip-rule="nonzero" d="M 486.015625 0 L 535.035156 0 L 535.035156 2400 L 486.015625 2400 Z M 486.015625 0 "/>
</clipPath>
<linearGradient id="linear-pattern-4" gradientUnits="userSpaceOnUse" x1="0.0740725" y1="0" x2="0.895127" y2="0" gradientTransform="matrix(39.9373, 2923.34, -2923.34, 39.9373, 491.914, -216.66)">
<stop offset="0" stop-color="rgb(98.429871%, 98.429871%, 98.429871%)" stop-opacity="1"/>
<stop offset="0.5" stop-color="rgb(98.429871%, 98.429871%, 98.429871%)" stop-opacity="1"/>
<stop offset="0.5625" stop-color="rgb(98.429871%, 98.429871%, 98.429871%)" stop-opacity="1"/>
<stop offset="0.59375" stop-color="rgb(98.376465%, 98.376465%, 98.376465%)" stop-opacity="1"/>
<stop offset="0.625" stop-color="rgb(98.179626%, 98.179626%, 98.179626%)" stop-opacity="1"/>
<stop offset="0.75" stop-color="rgb(98.03772%, 98.03772%, 98.03772%)" stop-opacity="1"/>
<stop offset="1" stop-color="rgb(98.03772%, 98.03772%, 98.03772%)" stop-opacity="1"/>
</linearGradient>
<clipPath id="clip-5">
<path clip-rule="nonzero" d="M 592.089844 0 L 641.109375 0 L 641.109375 2400 L 592.089844 2400 Z M 592.089844 0 "/>
</clipPath>
<linearGradient id="linear-pattern-5" gradientUnits="userSpaceOnUse" x1="0.0740725" y1="0" x2="0.895127" y2="0" gradientTransform="matrix(39.9373, 2923.34, -2923.34, 39.9373, 597.987, -216.66)">
<stop offset="0" stop-color="rgb(98.429871%, 98.429871%, 98.429871%)" stop-opacity="1"/>
<stop offset="0.5" stop-color="rgb(98.429871%, 98.429871%, 98.429871%)" stop-opacity="1"/>
<stop offset="0.5625" stop-color="rgb(98.429871%, 98.429871%, 98.429871%)" stop-opacity="1"/>
<stop offset="0.59375" stop-color="rgb(98.376465%, 98.376465%, 98.376465%)" stop-opacity="1"/>
<stop offset="0.625" stop-color="rgb(98.179626%, 98.179626%, 98.179626%)" stop-opacity="1"/>
<stop offset="0.75" stop-color="rgb(98.03772%, 98.03772%, 98.03772%)" stop-opacity="1"/>
<stop offset="1" stop-color="rgb(98.03772%, 98.03772%, 98.03772%)" stop-opacity="1"/>
</linearGradient>
<clipPath id="clip-6">
<path clip-rule="nonzero" d="M 698.160156 0 L 747.179688 0 L 747.179688 2400 L 698.160156 2400 Z M 698.160156 0 "/>
</clipPath>
<linearGradient id="linear-pattern-6" gradientUnits="userSpaceOnUse" x1="0.0740725" y1="0" x2="0.895127" y2="0" gradientTransform="matrix(39.9373, 2923.34, -2923.34, 39.9373, 704.06, -216.66)">
<stop offset="0" stop-color="rgb(98.429871%, 98.429871%, 98.429871%)" stop-opacity="1"/>
<stop offset="0.5" stop-color="rgb(98.429871%, 98.429871%, 98.429871%)" stop-opacity="1"/>
<stop offset="0.5625" stop-color="rgb(98.429871%, 98.429871%, 98.429871%)" stop-opacity="1"/>
<stop offset="0.59375" stop-color="rgb(98.376465%, 98.376465%, 98.376465%)" stop-opacity="1"/>
<stop offset="0.625" stop-color="rgb(98.179626%, 98.179626%, 98.179626%)" stop-opacity="1"/>
<stop offset="0.75" stop-color="rgb(98.03772%, 98.03772%, 98.03772%)" stop-opacity="1"/>
<stop offset="1" stop-color="rgb(98.03772%, 98.03772%, 98.03772%)" stop-opacity="1"/>
</linearGradient>
<clipPath id="clip-7">
<path clip-rule="nonzero" d="M 804.234375 0 L 853.253906 0 L 853.253906 2400 L 804.234375 2400 Z M 804.234375 0 "/>
</clipPath>
<linearGradient id="linear-pattern-7" gradientUnits="userSpaceOnUse" x1="0.0740725" y1="0" x2="0.895127" y2="0" gradientTransform="matrix(39.9373, 2923.34, -2923.34, 39.9373, 810.133, -216.66)">
<stop offset="0" stop-color="rgb(98.429871%, 98.429871%, 98.429871%)" stop-opacity="1"/>
<stop offset="0.5" stop-color="rgb(98.429871%, 98.429871%, 98.429871%)" stop-opacity="1"/>
<stop offset="0.5625" stop-color="rgb(98.429871%, 98.429871%, 98.429871%)" stop-opacity="1"/>
<stop offset="0.59375" stop-color="rgb(98.376465%, 98.376465%, 98.376465%)" stop-opacity="1"/>
<stop offset="0.625" stop-color="rgb(98.179626%, 98.179626%, 98.179626%)" stop-opacity="1"/>
<stop offset="0.75" stop-color="rgb(98.03772%, 98.03772%, 98.03772%)" stop-opacity="1"/>
<stop offset="1" stop-color="rgb(98.03772%, 98.03772%, 98.03772%)" stop-opacity="1"/>
</linearGradient>
<clipPath id="clip-8">
<path clip-rule="nonzero" d="M 910.308594 0 L 959.328125 0 L 959.328125 2400 L 910.308594 2400 Z M 910.308594 0 "/>
</clipPath>
<linearGradient id="linear-pattern-8" gradientUnits="userSpaceOnUse" x1="0.0740725" y1="0" x2="0.895127" y2="0" gradientTransform="matrix(39.9373, 2923.34, -2923.34, 39.9373, 916.205, -216.66)">
<stop offset="0" stop-color="rgb(98.429871%, 98.429871%, 98.429871%)" stop-opacity="1"/>
<stop offset="0.5" stop-color="rgb(98.429871%, 98.429871%, 98.429871%)" stop-opacity="1"/>
<stop offset="0.5625" stop-color="rgb(98.429871%, 98.429871%, 98.429871%)" stop-opacity="1"/>
<stop offset="0.59375" stop-color="rgb(98.376465%, 98.376465%, 98.376465%)" stop-opacity="1"/>
<stop offset="0.625" stop-color="rgb(98.179626%, 98.179626%, 98.179626%)" stop-opacity="1"/>
<stop offset="0.75" stop-color="rgb(98.03772%, 98.03772%, 98.03772%)" stop-opacity="1"/>
<stop offset="1" stop-color="rgb(98.03772%, 98.03772%, 98.03772%)" stop-opacity="1"/>
</linearGradient>
<clipPath id="clip-9">
<path clip-rule="nonzero" d="M 1016.378906 0 L 1065.398438 0 L 1065.398438 2400 L 1016.378906 2400 Z M 1016.378906 0 "/>
</clipPath>
<linearGradient id="linear-pattern-9" gradientUnits="userSpaceOnUse" x1="0.0740725" y1="0" x2="0.895127" y2="0" gradientTransform="matrix(39.9373, 2923.34, -2923.34, 39.9373, 1022.28, -216.66)">
<stop offset="0" stop-color="rgb(98.429871%, 98.429871%, 98.429871%)" stop-opacity="1"/>
<stop offset="0.5" stop-color="rgb(98.429871%, 98.429871%, 98.429871%)" stop-opacity="1"/>
<stop offset="0.5625" stop-color="rgb(98.429871%, 98.429871%, 98.429871%)" stop-opacity="1"/>
<stop offset="0.59375" stop-color="rgb(98.376465%, 98.376465%, 98.376465%)" stop-opacity="1"/>
<stop offset="0.625" stop-color="rgb(98.179626%, 98.179626%, 98.179626%)" stop-opacity="1"/>
<stop offset="0.75" stop-color="rgb(98.03772%, 98.03772%, 98.03772%)" stop-opacity="1"/>
<stop offset="1" stop-color="rgb(98.03772%, 98.03772%, 98.03772%)" stop-opacity="1"/>
</linearGradient>
<clipPath id="clip-10">
<path clip-rule="nonzero" d="M 1122.449219 0 L 1171.46875 0 L 1171.46875 2400 L 1122.449219 2400 Z M 1122.449219 0 "/>
</clipPath>
<linearGradient id="linear-pattern-10" gradientUnits="userSpaceOnUse" x1="0.0740725" y1="0" x2="0.895127" y2="0" gradientTransform="matrix(39.9373, 2923.34, -2923.34, 39.9373, 1128.35, -216.66)">
<stop offset="0" stop-color="rgb(98.429871%, 98.429871%, 98.429871%)" stop-opacity="1"/>
<stop offset="0.5" stop-color="rgb(98.429871%, 98.429871%, 98.429871%)" stop-opacity="1"/>
<stop offset="0.5625" stop-color="rgb(98.429871%, 98.429871%, 98.429871%)" stop-opacity="1"/>
<stop offset="0.59375" stop-color="rgb(98.376465%, 98.376465%, 98.376465%)" stop-opacity="1"/>
<stop offset="0.625" stop-color="rgb(98.179626%, 98.179626%, 98.179626%)" stop-opacity="1"/>
<stop offset="0.75" stop-color="rgb(98.03772%, 98.03772%, 98.03772%)" stop-opacity="1"/>
<stop offset="1" stop-color="rgb(98.03772%, 98.03772%, 98.03772%)" stop-opacity="1"/>
</linearGradient>
<clipPath id="clip-11">
<path clip-rule="nonzero" d="M 1228.53125 0 L 1277.550781 0 L 1277.550781 2400 L 1228.53125 2400 Z M 1228.53125 0 "/>
</clipPath>
<linearGradient id="linear-pattern-11" gradientUnits="userSpaceOnUse" x1="0.0740725" y1="0" x2="0.895127" y2="0" gradientTransform="matrix(39.9373, 2923.34, -2923.34, 39.9373, 1234.42, -216.66)">
<stop offset="0" stop-color="rgb(98.429871%, 98.429871%, 98.429871%)" stop-opacity="1"/>
<stop offset="0.5" stop-color="rgb(98.429871%, 98.429871%, 98.429871%)" stop-opacity="1"/>
<stop offset="0.5625" stop-color="rgb(98.429871%, 98.429871%, 98.429871%)" stop-opacity="1"/>
<stop offset="0.59375" stop-color="rgb(98.376465%, 98.376465%, 98.376465%)" stop-opacity="1"/>
<stop offset="0.625" stop-color="rgb(98.179626%, 98.179626%, 98.179626%)" stop-opacity="1"/>
<stop offset="0.75" stop-color="rgb(98.03772%, 98.03772%, 98.03772%)" stop-opacity="1"/>
<stop offset="1" stop-color="rgb(98.03772%, 98.03772%, 98.03772%)" stop-opacity="1"/>
</linearGradient>
<clipPath id="clip-12">
<path clip-rule="nonzero" d="M 1334.601562 0 L 1383.621094 0 L 1383.621094 2400 L 1334.601562 2400 Z M 1334.601562 0 "/>
</clipPath>
<linearGradient id="linear-pattern-12" gradientUnits="userSpaceOnUse" x1="0.0740725" y1="0" x2="0.895127" y2="0" gradientTransform="matrix(39.9373, 2923.34, -2923.34, 39.9373, 1340.5, -216.66)">
<stop offset="0" stop-color="rgb(98.429871%, 98.429871%, 98.429871%)" stop-opacity="1"/>
<stop offset="0.5" stop-color="rgb(98.429871%, 98.429871%, 98.429871%)" stop-opacity="1"/>
<stop offset="0.5625" stop-color="rgb(98.429871%, 98.429871%, 98.429871%)" stop-opacity="1"/>
<stop offset="0.59375" stop-color="rgb(98.376465%, 98.376465%, 98.376465%)" stop-opacity="1"/>
<stop offset="0.625" stop-color="rgb(98.179626%, 98.179626%, 98.179626%)" stop-opacity="1"/>
<stop offset="0.75" stop-color="rgb(98.03772%, 98.03772%, 98.03772%)" stop-opacity="1"/>
<stop offset="1" stop-color="rgb(98.03772%, 98.03772%, 98.03772%)" stop-opacity="1"/>
</linearGradient>
<clipPath id="clip-13">
<path clip-rule="nonzero" d="M 1440.671875 0 L 1489.691406 0 L 1489.691406 2400 L 1440.671875 2400 Z M 1440.671875 0 "/>
</clipPath>
<linearGradient id="linear-pattern-13" gradientUnits="userSpaceOnUse" x1="0.0740725" y1="0" x2="0.895127" y2="0" gradientTransform="matrix(39.9373, 2923.34, -2923.34, 39.9373, 1446.57, -216.66)">
<stop offset="0" stop-color="rgb(98.429871%, 98.429871%, 98.429871%)" stop-opacity="1"/>
<stop offset="0.5" stop-color="rgb(98.429871%, 98.429871%, 98.429871%)" stop-opacity="1"/>
<stop offset="0.5625" stop-color="rgb(98.429871%, 98.429871%, 98.429871%)" stop-opacity="1"/>
<stop offset="0.59375" stop-color="rgb(98.376465%, 98.376465%, 98.376465%)" stop-opacity="1"/>
<stop offset="0.625" stop-color="rgb(98.179626%, 98.179626%, 98.179626%)" stop-opacity="1"/>
<stop offset="0.75" stop-color="rgb(98.03772%, 98.03772%, 98.03772%)" stop-opacity="1"/>
<stop offset="1" stop-color="rgb(98.03772%, 98.03772%, 98.03772%)" stop-opacity="1"/>
</linearGradient>
<clipPath id="clip-14">
<path clip-rule="nonzero" d="M 1546.75 0 L 1595.761719 0 L 1595.761719 2400 L 1546.75 2400 Z M 1546.75 0 "/>
</clipPath>
<linearGradient id="linear-pattern-14" gradientUnits="userSpaceOnUse" x1="0.0740725" y1="0" x2="0.895127" y2="0" gradientTransform="matrix(39.9373, 2923.34, -2923.34, 39.9373, 1552.64, -216.66)">
<stop offset="0" stop-color="rgb(98.429871%, 98.429871%, 98.429871%)" stop-opacity="1"/>
<stop offset="0.5" stop-color="rgb(98.429871%, 98.429871%, 98.429871%)" stop-opacity="1"/>
<stop offset="0.5625" stop-color="rgb(98.429871%, 98.429871%, 98.429871%)" stop-opacity="1"/>
<stop offset="0.59375" stop-color="rgb(98.376465%, 98.376465%, 98.376465%)" stop-opacity="1"/>
<stop offset="0.625" stop-color="rgb(98.179626%, 98.179626%, 98.179626%)" stop-opacity="1"/>
<stop offset="0.75" stop-color="rgb(98.03772%, 98.03772%, 98.03772%)" stop-opacity="1"/>
<stop offset="1" stop-color="rgb(98.03772%, 98.03772%, 98.03772%)" stop-opacity="1"/>
</linearGradient>
<clipPath id="clip-15">
<path clip-rule="nonzero" d="M 1652.820312 0 L 1701.839844 0 L 1701.839844 2400 L 1652.820312 2400 Z M 1652.820312 0 "/>
</clipPath>
<linearGradient id="linear-pattern-15" gradientUnits="userSpaceOnUse" x1="0.0740725" y1="0" x2="0.895127" y2="0" gradientTransform="matrix(39.9373, 2923.34, -2923.34, 39.9373, 1658.72, -216.66)">
<stop offset="0" stop-color="rgb(98.429871%, 98.429871%, 98.429871%)" stop-opacity="1"/>
<stop offset="0.5" stop-color="rgb(98.429871%, 98.429871%, 98.429871%)" stop-opacity="1"/>
<stop offset="0.5625" stop-color="rgb(98.429871%, 98.429871%, 98.429871%)" stop-opacity="1"/>
<stop offset="0.59375" stop-color="rgb(98.376465%, 98.376465%, 98.376465%)" stop-opacity="1"/>
<stop offset="0.625" stop-color="rgb(98.179626%, 98.179626%, 98.179626%)" stop-opacity="1"/>
<stop offset="0.75" stop-color="rgb(98.03772%, 98.03772%, 98.03772%)" stop-opacity="1"/>
<stop offset="1" stop-color="rgb(98.03772%, 98.03772%, 98.03772%)" stop-opacity="1"/>
</linearGradient>
<clipPath id="clip-16">
<path clip-rule="nonzero" d="M 1758.890625 0 L 1807.910156 0 L 1807.910156 2400 L 1758.890625 2400 Z M 1758.890625 0 "/>
</clipPath>
<linearGradient id="linear-pattern-16" gradientUnits="userSpaceOnUse" x1="0.0740725" y1="0" x2="0.895127" y2="0" gradientTransform="matrix(39.9373, 2923.34, -2923.34, 39.9373, 1764.79, -216.66)">
<stop offset="0" stop-color="rgb(98.429871%, 98.429871%, 98.429871%)" stop-opacity="1"/>
<stop offset="0.5" stop-color="rgb(98.429871%, 98.429871%, 98.429871%)" stop-opacity="1"/>
<stop offset="0.5625" stop-color="rgb(98.429871%, 98.429871%, 98.429871%)" stop-opacity="1"/>
<stop offset="0.59375" stop-color="rgb(98.376465%, 98.376465%, 98.376465%)" stop-opacity="1"/>
<stop offset="0.625" stop-color="rgb(98.179626%, 98.179626%, 98.179626%)" stop-opacity="1"/>
<stop offset="0.75" stop-color="rgb(98.03772%, 98.03772%, 98.03772%)" stop-opacity="1"/>
<stop offset="1" stop-color="rgb(98.03772%, 98.03772%, 98.03772%)" stop-opacity="1"/>
</linearGradient>
<clipPath id="clip-17">
<path clip-rule="nonzero" d="M 1864.960938 0 L 1913.980469 0 L 1913.980469 2400 L 1864.960938 2400 Z M 1864.960938 0 "/>
</clipPath>
<linearGradient id="linear-pattern-17" gradientUnits="userSpaceOnUse" x1="0.0740725" y1="0" x2="0.895127" y2="0" gradientTransform="matrix(39.9373, 2923.34, -2923.34, 39.9373, 1870.86, -216.66)">
<stop offset="0" stop-color="rgb(98.429871%, 98.429871%, 98.429871%)" stop-opacity="1"/>
<stop offset="0.5" stop-color="rgb(98.429871%, 98.429871%, 98.429871%)" stop-opacity="1"/>
<stop offset="0.5625" stop-color="rgb(98.429871%, 98.429871%, 98.429871%)" stop-opacity="1"/>
<stop offset="0.59375" stop-color="rgb(98.376465%, 98.376465%, 98.376465%)" stop-opacity="1"/>
<stop offset="0.625" stop-color="rgb(98.179626%, 98.179626%, 98.179626%)" stop-opacity="1"/>
<stop offset="0.75" stop-color="rgb(98.03772%, 98.03772%, 98.03772%)" stop-opacity="1"/>
<stop offset="1" stop-color="rgb(98.03772%, 98.03772%, 98.03772%)" stop-opacity="1"/>
</linearGradient>
<clipPath id="clip-18">
<path clip-rule="nonzero" d="M 1971.039062 0 L 2020.058594 0 L 2020.058594 2400 L 1971.039062 2400 Z M 1971.039062 0 "/>
</clipPath>
<linearGradient id="linear-pattern-18" gradientUnits="userSpaceOnUse" x1="0.0740725" y1="0" x2="0.895127" y2="0" gradientTransform="matrix(39.9373, 2923.34, -2923.34, 39.9373, 1976.93, -216.66)">
<stop offset="0" stop-color="rgb(98.429871%, 98.429871%, 98.429871%)" stop-opacity="1"/>
<stop offset="0.5" stop-color="rgb(98.429871%, 98.429871%, 98.429871%)" stop-opacity="1"/>
<stop offset="0.5625" stop-color="rgb(98.429871%, 98.429871%, 98.429871%)" stop-opacity="1"/>
<stop offset="0.59375" stop-color="rgb(98.376465%, 98.376465%, 98.376465%)" stop-opacity="1"/>
<stop offset="0.625" stop-color="rgb(98.179626%, 98.179626%, 98.179626%)" stop-opacity="1"/>
<stop offset="0.75" stop-color="rgb(98.03772%, 98.03772%, 98.03772%)" stop-opacity="1"/>
<stop offset="1" stop-color="rgb(98.03772%, 98.03772%, 98.03772%)" stop-opacity="1"/>
</linearGradient>
<clipPath id="clip-19">
<path clip-rule="nonzero" d="M 2077.109375 0 L 2126.128906 0 L 2126.128906 2400 L 2077.109375 2400 Z M 2077.109375 0 "/>
</clipPath>
<linearGradient id="linear-pattern-19" gradientUnits="userSpaceOnUse" x1="0.0740725" y1="0" x2="0.895127" y2="0" gradientTransform="matrix(39.9373, 2923.34, -2923.34, 39.9373, 2083.01, -216.66)">
<stop offset="0" stop-color="rgb(98.429871%, 98.429871%, 98.429871%)" stop-opacity="1"/>
<stop offset="0.5" stop-color="rgb(98.429871%, 98.429871%, 98.429871%)" stop-opacity="1"/>
<stop offset="0.5625" stop-color="rgb(98.429871%, 98.429871%, 98.429871%)" stop-opacity="1"/>
<stop offset="0.59375" stop-color="rgb(98.376465%, 98.376465%, 98.376465%)" stop-opacity="1"/>
<stop offset="0.625" stop-color="rgb(98.179626%, 98.179626%, 98.179626%)" stop-opacity="1"/>
<stop offset="0.75" stop-color="rgb(98.03772%, 98.03772%, 98.03772%)" stop-opacity="1"/>
<stop offset="1" stop-color="rgb(98.03772%, 98.03772%, 98.03772%)" stop-opacity="1"/>
</linearGradient>
<clipPath id="clip-20">
<path clip-rule="nonzero" d="M 2183.179688 0 L 2232.199219 0 L 2232.199219 2400 L 2183.179688 2400 Z M 2183.179688 0 "/>
</clipPath>
<linearGradient id="linear-pattern-20" gradientUnits="userSpaceOnUse" x1="0.0740725" y1="0" x2="0.895127" y2="0" gradientTransform="matrix(39.9373, 2923.34, -2923.34, 39.9373, 2189.08, -216.66)">
<stop offset="0" stop-color="rgb(98.429871%, 98.429871%, 98.429871%)" stop-opacity="1"/>
<stop offset="0.5" stop-color="rgb(98.429871%, 98.429871%, 98.429871%)" stop-opacity="1"/>
<stop offset="0.5625" stop-color="rgb(98.429871%, 98.429871%, 98.429871%)" stop-opacity="1"/>
<stop offset="0.59375" stop-color="rgb(98.376465%, 98.376465%, 98.376465%)" stop-opacity="1"/>
<stop offset="0.625" stop-color="rgb(98.179626%, 98.179626%, 98.179626%)" stop-opacity="1"/>
<stop offset="0.75" stop-color="rgb(98.03772%, 98.03772%, 98.03772%)" stop-opacity="1"/>
<stop offset="1" stop-color="rgb(98.03772%, 98.03772%, 98.03772%)" stop-opacity="1"/>
</linearGradient>
<clipPath id="clip-21">
<path clip-rule="nonzero" d="M 2289.261719 0 L 2338.269531 0 L 2338.269531 2400 L 2289.261719 2400 Z M 2289.261719 0 "/>
</clipPath>
<linearGradient id="linear-pattern-21" gradientUnits="userSpaceOnUse" x1="0.0740725" y1="0" x2="0.895127" y2="0" gradientTransform="matrix(39.9373, 2923.34, -2923.34, 39.9373, 2295.15, -216.66)">
<stop offset="0" stop-color="rgb(98.429871%, 98.429871%, 98.429871%)" stop-opacity="1"/>
<stop offset="0.5" stop-color="rgb(98.429871%, 98.429871%, 98.429871%)" stop-opacity="1"/>
<stop offset="0.5625" stop-color="rgb(98.429871%, 98.429871%, 98.429871%)" stop-opacity="1"/>
<stop offset="0.59375" stop-color="rgb(98.376465%, 98.376465%, 98.376465%)" stop-opacity="1"/>
<stop offset="0.625" stop-color="rgb(98.179626%, 98.179626%, 98.179626%)" stop-opacity="1"/>
<stop offset="0.75" stop-color="rgb(98.03772%, 98.03772%, 98.03772%)" stop-opacity="1"/>
<stop offset="1" stop-color="rgb(98.03772%, 98.03772%, 98.03772%)" stop-opacity="1"/>
</linearGradient>
</defs>


<g clip-path="url(#clip-0)">
<path fill-rule="nonzero" fill="url(#linear-pattern-0)" d="M 110.734375 -0.667969 L 28.945312 0.449219 L 61.734375 2400.667969 L 143.523438 2399.550781 Z M 110.734375 -0.667969 "/>
</g>
<g clip-path="url(#clip-1)">
<path fill-rule="nonzero" fill="url(#linear-pattern-1)" d="M 216.808594 -0.667969 L 135.015625 0.449219 L 167.808594 2400.667969 L 249.597656 2399.550781 Z M 216.808594 -0.667969 "/>
</g>
<g clip-path="url(#clip-2)">
<path fill-rule="nonzero" fill="url(#linear-pattern-2)" d="M 322.878906 -0.667969 L 241.089844 0.449219 L 273.878906 2400.667969 L 355.671875 2399.550781 Z M 322.878906 -0.667969 "/>
</g>
<g clip-path="url(#clip-3)">
<path fill-rule="nonzero" fill="url(#linear-pattern-3)" d="M 428.953125 -0.667969 L 347.164062 0.449219 L 379.953125 2400.667969 L 461.742188 2399.550781 Z M 428.953125 -0.667969 "/>
</g>
<g clip-path="url(#clip-4)">
<path fill-rule="nonzero" fill="url(#linear-pattern-4)" d="M 535.027344 -0.667969 L 453.234375 0.449219 L 486.027344 2400.667969 L 567.816406 2399.550781 Z M 535.027344 -0.667969 "/>
</g>
<g clip-path="url(#clip-5)">
<path fill-rule="nonzero" fill="url(#linear-pattern-5)" d="M 641.097656 -0.667969 L 559.308594 0.449219 L 592.097656 2400.667969 L 673.890625 2399.550781 Z M 641.097656 -0.667969 "/>
</g>
<g clip-path="url(#clip-6)">
<path fill-rule="nonzero" fill="url(#linear-pattern-6)" d="M 747.171875 -0.667969 L 665.378906 0.449219 L 698.171875 2400.667969 L 779.960938 2399.550781 Z M 747.171875 -0.667969 "/>
</g>
<g clip-path="url(#clip-7)">
<path fill-rule="nonzero" fill="url(#linear-pattern-7)" d="M 853.246094 -0.667969 L 771.453125 0.449219 L 804.246094 2400.667969 L 886.035156 2399.550781 Z M 853.246094 -0.667969 "/>
</g>
<g clip-path="url(#clip-8)">
<path fill-rule="nonzero" fill="url(#linear-pattern-8)" d="M 959.316406 -0.667969 L 877.527344 0.449219 L 910.316406 2400.667969 L 992.109375 2399.550781 Z M 959.316406 -0.667969 "/>
</g>
<g clip-path="url(#clip-9)">
<path fill-rule="nonzero" fill="url(#linear-pattern-9)" d="M 1065.390625 -0.667969 L 983.597656 0.449219 L 1016.390625 2400.667969 L 1098.179688 2399.550781 Z M 1065.390625 -0.667969 "/>
</g>
<g clip-path="url(#clip-10)">
<path fill-rule="nonzero" fill="url(#linear-pattern-10)" d="M 1171.460938 -0.667969 L 1089.667969 0.449219 L 1122.460938 2400.667969 L 1204.25 2399.550781 Z M 1171.460938 -0.667969 "/>
</g>
<g clip-path="url(#clip-11)">
<path fill-rule="nonzero" fill="url(#linear-pattern-11)" d="M 1277.539062 -0.667969 L 1195.75 0.449219 L 1228.539062 2400.667969 L 1310.332031 2399.550781 Z M 1277.539062 -0.667969 "/>
</g>
<g clip-path="url(#clip-12)">
<path fill-rule="nonzero" fill="url(#linear-pattern-12)" d="M 1383.609375 -0.667969 L 1301.820312 0.449219 L 1334.609375 2400.667969 L 1416.402344 2399.550781 Z M 1383.609375 -0.667969 "/>
</g>
<g clip-path="url(#clip-13)">
<path fill-rule="nonzero" fill="url(#linear-pattern-13)" d="M 1489.679688 -0.667969 L 1407.886719 0.449219 L 1440.679688 2400.667969 L 1522.472656 2399.550781 Z M 1489.679688 -0.667969 "/>
</g>
<g clip-path="url(#clip-14)">
<path fill-rule="nonzero" fill="url(#linear-pattern-14)" d="M 1595.75 -0.667969 L 1513.96875 0.449219 L 1546.757812 2400.667969 L 1628.542969 2399.550781 Z M 1595.75 -0.667969 "/>
</g>
<g clip-path="url(#clip-15)">
<path fill-rule="nonzero" fill="url(#linear-pattern-15)" d="M 1701.832031 -0.667969 L 1620.039062 0.449219 L 1652.828125 2400.667969 L 1734.621094 2399.550781 Z M 1701.832031 -0.667969 "/>
</g>
<g clip-path="url(#clip-16)">
<path fill-rule="nonzero" fill="url(#linear-pattern-16)" d="M 1807.902344 -0.667969 L 1726.109375 0.449219 L 1758.898438 2400.667969 L 1840.691406 2399.550781 Z M 1807.902344 -0.667969 "/>
</g>
<g clip-path="url(#clip-17)">
<path fill-rule="nonzero" fill="url(#linear-pattern-17)" d="M 1913.972656 -0.667969 L 1832.179688 0.449219 L 1864.96875 2400.667969 L 1946.761719 2399.550781 Z M 1913.972656 -0.667969 "/>
</g>
<g clip-path="url(#clip-18)">
<path fill-rule="nonzero" fill="url(#linear-pattern-18)" d="M 2020.050781 -0.667969 L 1938.257812 0.449219 L 1971.050781 2400.667969 L 2052.839844 2399.550781 Z M 2020.050781 -0.667969 "/>
</g>
<g clip-path="url(#clip-19)">
<path fill-rule="nonzero" fill="url(#linear-pattern-19)" d="M 2126.121094 -0.667969 L 2044.328125 0.449219 L 2077.121094 2400.667969 L 2158.910156 2399.550781 Z M 2126.121094 -0.667969 "/>
</g>
<g clip-path="url(#clip-20)">
<path fill-rule="nonzero" fill="url(#linear-pattern-20)" d="M 2232.191406 -0.667969 L 2150.398438 0.449219 L 2183.1875 2400.667969 L 2264.980469 2399.550781 Z M 2232.191406 -0.667969 "/>
</g>
<g clip-path="url(#clip-21)">
<path fill-rule="nonzero" fill="url(#linear-pattern-21)" d="M 2338.261719 -0.667969 L 2256.476562 0.449219 L 2289.269531 2400.667969 L 2371.050781 2399.550781 Z M 2338.261719 -0.667969 "/>
</g>
<path fill-rule="nonzero" fill="rgb(4.704285%, 9.008789%, 33.714294%)" fill-opacity="1" d="M 1729.398438 1776.050781 C 1725.378906 1764.039062 1721.179688 1751.910156 1717.121094 1740.179688 C 1714.269531 1731.941406 1711.421875 1723.710938 1708.609375 1715.460938 L 1708.519531 1715.191406 L 1708.371094 1714.949219 C 1699.03125 1699.859375 1689.679688 1684.710938 1680.300781 1669.488281 L 1680.128906 1669.210938 L 1679.890625 1668.988281 C 1674.21875 1663.628906 1668.410156 1658.21875 1662.78125 1652.988281 C 1655.859375 1646.558594 1648.710938 1639.921875 1641.75 1633.269531 L 1639.851562 1631.460938 L 1639.339844 1632.050781 C 1638.078125 1630.871094 1636.828125 1629.710938 1635.601562 1628.578125 C 1634.359375 1627.449219 1633.089844 1626.28125 1631.828125 1625.101562 C 1635.359375 1618.929688 1638.949219 1612.699219 1642.53125 1606.46875 C 1645.71875 1600.941406 1648.898438 1595.421875 1652.03125 1589.949219 L 1653.28125 1590.359375 C 1666.078125 1568.699219 1680.539062 1547.808594 1694.53125 1527.601562 C 1702.039062 1516.75 1709.800781 1505.53125 1717.238281 1494.308594 L 1718.238281 1492.789062 L 1717.101562 1491.371094 C 1707.96875 1479.960938 1698.671875 1468.511719 1689.671875 1457.441406 L 1685.550781 1452.371094 C 1676.351562 1433.101562 1666.710938 1413.191406 1656.910156 1393.171875 C 1657.71875 1371.121094 1658.730469 1348.828125 1659.71875 1327.28125 L 1660.210938 1316.519531 L 1658.121094 1316.078125 C 1640.671875 1312.441406 1623.21875 1308.769531 1606.011719 1305.148438 C 1597.53125 1303.371094 1589.101562 1301.589844 1580.769531 1299.839844 C 1562.710938 1289.199219 1543.921875 1278.058594 1524.890625 1266.738281 C 1515.660156 1246.898438 1506.421875 1227.03125 1497.171875 1207.121094 L 1496.949219 1206.648438 L 1496.570312 1206.308594 C 1490.738281 1201.140625 1484.898438 1195.730469 1479.238281 1190.5 C 1466.761719 1178.949219 1453.859375 1167.011719 1439.96875 1156.488281 L 1436.511719 1153.859375 L 1436.460938 1154.328125 C 1409.878906 1133.898438 1383.539062 1111.878906 1358.121094 1088.808594 C 1337.738281 1042.820312 1327.371094 989.921875 1325.53125 922.621094 L 1325.578125 922.550781 C 1330.011719 915.800781 1334.359375 908.839844 1338.570312 902.109375 C 1347.269531 888.210938 1356.269531 873.820312 1366.410156 860.621094 L 1365.460938 859.46875 L 1365.621094 859.261719 C 1372.390625 850.269531 1379.441406 841.25 1386.25 832.53125 C 1389.089844 828.878906 1391.941406 825.230469 1394.789062 821.558594 L 1395.078125 821.191406 L 1395.210938 820.738281 C 1397.28125 813.828125 1399.449219 806.789062 1401.550781 799.988281 C 1403.71875 792.980469 1405.949219 785.738281 1408.078125 778.609375 L 1408.398438 777.539062 L 1407.828125 776.601562 C 1384.140625 737.421875 1359.640625 696.910156 1332.269531 658.398438 L 1332.039062 658.070312 L 1331.710938 657.828125 C 1315.03125 645.679688 1299.96875 634.730469 1284.621094 623.839844 L 1284.308594 623.660156 C 1274.859375 618.808594 1265.261719 613.980469 1255.96875 609.308594 C 1249.089844 605.851562 1242.199219 602.390625 1235.320312 598.890625 C 1226.320312 589.78125 1217.101562 580.460938 1208.109375 571.359375 C 1212.199219 564.769531 1216.039062 557.980469 1219.769531 551.398438 C 1229.019531 535.039062 1237.789062 519.570312 1250.25 506.328125 L 1250.378906 506.390625 L 1251.578125 505.210938 C 1273.449219 483.621094 1288.710938 457.539062 1303.460938 432.320312 L 1304.25 430.96875 L 1303.378906 429.671875 C 1296.96875 420.121094 1290.558594 410.371094 1284.359375 400.941406 C 1264.398438 370.609375 1243.761719 339.230469 1220.71875 310.488281 L 1220.449219 310.148438 L 1220.078125 309.921875 C 1219.949219 309.839844 1219.800781 309.75 1219.660156 309.671875 L 1219.78125 309.550781 C 1207.328125 291.648438 1190.859375 277.460938 1174.941406 263.730469 C 1167.949219 257.710938 1160.730469 251.480469 1154 245.070312 C 1146.070312 234.230469 1137.941406 223.390625 1130.070312 212.898438 C 1125.78125 207.171875 1121.5 201.460938 1117.25 195.761719 L 1117.039062 195.511719 C 1100.039062 177.988281 1083.578125 160.730469 1069.171875 142.140625 L 1067.128906 139.511719 L 1065.171875 142.191406 C 1063.328125 144.710938 1061.398438 147.210938 1059.53125 149.628906 C 1054.539062 156.089844 1049.378906 162.761719 1045.511719 170.371094 L 1045.128906 171.121094 L 1045.28125 171.941406 C 1049.371094 195.03125 1050.070312 217.800781 1047.359375 239.609375 C 1042.390625 251.738281 1039.078125 262.078125 1036.960938 272.078125 C 1032.449219 282.28125 1028.890625 292.148438 1026.089844 302.238281 C 1020.378906 310.210938 1017.519531 318.210938 1014.808594 328.429688 C 1010.53125 337.53125 1007.390625 346.050781 1004.679688 355.960938 C 998.285156 364.671875 996.347656 374.78125 994.472656 384.558594 C 994.261719 385.671875 994.050781 386.78125 993.832031 387.878906 C 988.175781 396.238281 984.796875 405.421875 981.507812 416.558594 C 976.75 425.371094 972.25 433.679688 966.128906 441.25 L 965.808594 441.648438 L 965.667969 442.128906 C 963.550781 449.460938 960.160156 456.300781 955.300781 463.03125 L 955.0625 463.359375 L 954.941406 463.75 C 952.632812 471.179688 948.84375 477.601562 942.40625 484.910156 L 942.195312 484.808594 L 940.960938 486.261719 C 939.085938 488.46875 937.742188 489.621094 936.023438 489.398438 L 934.027344 489.140625 L 933.351562 491.039062 C 930.148438 499.980469 926.40625 507.269531 921.5625 513.980469 L 921.300781 514.339844 L 921.179688 514.769531 C 918.644531 523.941406 912.535156 530.890625 906.0625 538.238281 C 904.394531 540.140625 902.664062 542.109375 901.011719 544.101562 L 900.742188 544.429688 L 900.597656 544.820312 C 897.484375 553.160156 893.191406 560.570312 887.839844 566.859375 L 887.621094 567.160156 C 880.601562 578.488281 874.722656 590.160156 868.046875 604.179688 L 867.941406 604.441406 C 865.464844 611.621094 864.433594 619.058594 863.4375 626.261719 C 863.082031 628.851562 862.714844 631.511719 862.285156 634.109375 C 857.054688 646.421875 853.796875 659.730469 851.75 677.148438 C 850.84375 679.53125 849.972656 681.878906 849.109375 684.199219 C 847.660156 688.109375 846.285156 691.808594 844.792969 695.570312 L 844.695312 695.808594 L 844.648438 696.078125 C 844.28125 698.28125 843.984375 700.550781 843.699219 702.75 C 842.546875 711.648438 841.453125 720.070312 835.65625 726.570312 L 834.078125 728.351562 L 835.761719 730.011719 C 835.871094 730.121094 835.988281 730.21875 836.097656 730.328125 C 834.039062 736.339844 830.546875 744.679688 825.15625 752.191406 L 824.855469 752.609375 L 824.746094 753.121094 C 824.25 755.398438 823.828125 757.75 823.421875 760.019531 C 822.460938 765.359375 821.46875 770.871094 819.472656 775.789062 C 814.332031 782.769531 811.125 790.691406 808.894531 796.929688 C 803.441406 803.710938 800.246094 811.710938 798.0625 818.058594 C 794.382812 822.519531 792.09375 827.578125 789.878906 832.480469 C 787.164062 838.46875 784.605469 844.121094 779.710938 848.519531 L 778.976562 849.191406 L 778.890625 850.171875 C 778.59375 853.640625 778.359375 857.148438 778.136719 860.539062 C 777.945312 863.398438 777.746094 866.328125 777.511719 869.238281 L 777.203125 869.101562 L 776.414062 871.808594 C 770.097656 893.5 766.699219 914.441406 766.027344 935.828125 C 753.105469 972.5 755.402344 1010.148438 759.363281 1042.160156 L 759.441406 1042.53125 C 762.429688 1053.03125 764.453125 1064.039062 766.410156 1074.679688 C 769.507812 1091.511719 772.707031 1108.910156 779.800781 1125.039062 L 780.0625 1126.53125 C 784.636719 1152.398438 789.367188 1179.140625 803.929688 1201.820312 C 805.855469 1207.949219 809.121094 1213.339844 812.28125 1218.550781 C 815.417969 1223.730469 818.382812 1228.621094 820.160156 1234.191406 L 820.308594 1234.660156 L 820.617188 1235.03125 C 824.730469 1239.980469 827.492188 1245.601562 830.414062 1251.550781 C 832.992188 1256.789062 835.652344 1262.199219 839.316406 1267.121094 C 841.914062 1274.96875 845.542969 1285.121094 850.757812 1294.921875 C 853.265625 1304.578125 857.890625 1313.839844 864.503906 1322.460938 C 868.296875 1336.511719 878.734375 1346.019531 888.832031 1355.230469 C 891.761719 1357.898438 894.792969 1360.671875 897.5625 1363.46875 C 905.265625 1374.628906 911.394531 1385.191406 916.292969 1395.730469 L 917.515625 1395.289062 C 920.183594 1400.671875 922.082031 1407.199219 923.914062 1413.519531 C 924.796875 1416.578125 925.710938 1419.738281 926.6875 1422.660156 L 926.824219 1422.988281 C 932.03125 1433.378906 934.210938 1444.171875 936.515625 1455.601562 C 936.988281 1457.929688 937.460938 1460.28125 937.964844 1462.640625 L 938.023438 1462.910156 L 938.140625 1463.171875 C 944.621094 1477.160156 947.609375 1491.648438 950.472656 1506.898438 L 949.285156 1507.109375 L 950.230469 1509.871094 C 955.566406 1525.390625 959.261719 1541.550781 961.527344 1559.269531 L 961.589844 1559.589844 C 968.140625 1584.410156 968.542969 1607.949219 962.746094 1627.671875 L 962.464844 1628.628906 L 962.917969 1629.519531 C 976.992188 1656.921875 984.332031 1678.800781 986.714844 1700.46875 L 986.777344 1700.820312 C 987.640625 1704.160156 988.625 1707.5 989.574219 1710.730469 C 991.894531 1718.621094 994.089844 1726.078125 994.851562 1734 C 994.53125 1744.660156 994.882812 1755.539062 995.222656 1766.058594 C 995.832031 1785.039062 996.46875 1804.660156 993.128906 1823.351562 C 989.640625 1830.488281 987.25 1838.039062 984.9375 1845.339844 C 982.492188 1853.050781 979.96875 1861.019531 976.183594 1868.261719 L 975.289062 1869.96875 L 976.589844 1871.148438 C 974.636719 1878.421875 970.53125 1886.808594 966.0625 1892.539062 L 965.753906 1892.941406 L 965.621094 1893.421875 C 961.835938 1907.191406 950.777344 1916.390625 940.054688 1925.269531 C 922.300781 1934.261719 908.53125 1943.390625 896.796875 1953.949219 C 883.324219 1957.488281 873.679688 1965.261719 864.21875 1973.609375 C 848.847656 1981.539062 833.992188 1989.628906 821.203125 2001.160156 C 812.882812 2003.390625 804.84375 2005.808594 797.785156 2010.21875 C 789.210938 2011.738281 782.238281 2014.238281 775.929688 2018.058594 C 767.996094 2019.371094 760.808594 2021.921875 753.984375 2025.851562 C 733.519531 2031.140625 707.300781 2039.25 685.277344 2055.058594 L 684.625 2055.53125 L 684.367188 2056.289062 C 679.734375 2069.910156 675.046875 2085.929688 678.132812 2103.820312 L 678.167969 2104 C 679.1875 2108.121094 680.179688 2113.078125 681.234375 2118.339844 C 686.230469 2143.269531 693.070312 2177.410156 714.757812 2187.449219 L 715.730469 2187.898438 L 716.726562 2187.511719 C 727.933594 2183.101562 735.703125 2182.410156 741.175781 2185.328125 C 747.230469 2188.558594 751.390625 2196.691406 754.671875 2211.679688 L 754.734375 2211.960938 L 754.859375 2212.21875 C 758.109375 2219.019531 764.964844 2227.949219 773.589844 2230.761719 C 775.359375 2231.339844 777.132812 2231.628906 778.878906 2231.628906 C 781.503906 2231.628906 784.066406 2230.980469 786.460938 2229.691406 L 786.796875 2229.46875 C 793.304688 2224.488281 797.382812 2215.121094 801.328125 2206.050781 C 805.792969 2195.800781 810.40625 2185.210938 817.960938 2182.808594 C 822.253906 2181.460938 827.441406 2182.671875 833.824219 2186.53125 C 855.609375 2203.738281 861.875 2200.089844 869.597656 2192.039062 C 873.972656 2187.480469 878.507812 2182.769531 889.976562 2183.21875 L 890.121094 2183.21875 C 894.449219 2183.128906 898.9375 2183.160156 903.273438 2183.179688 C 923.851562 2183.289062 945.136719 2183.390625 963.167969 2172.878906 L 963.519531 2172.671875 L 963.785156 2172.371094 C 970.046875 2165.261719 976.519531 2157.921875 983.921875 2152.058594 C 1007.800781 2140.289062 1035.128906 2137.371094 1061.558594 2134.539062 L 1065.96875 2134.070312 L 1066.300781 2133.929688 C 1072.171875 2131.519531 1077.550781 2128.230469 1082.738281 2125.050781 C 1089.148438 2121.128906 1095.199219 2117.429688 1102.171875 2115.171875 L 1102.511719 2115.050781 L 1102.808594 2114.851562 C 1112.828125 2107.949219 1120.179688 2106.578125 1126.648438 2110.410156 L 1126.800781 2110.238281 C 1131.859375 2113.320312 1137.070312 2115.25 1142.140625 2117.070312 C 1145.238281 2119.609375 1148.441406 2122.101562 1151.539062 2124.519531 C 1154.648438 2126.941406 1157.859375 2129.441406 1160.941406 2131.949219 L 1161.28125 2132.238281 L 1161.710938 2132.378906 C 1171.78125 2135.808594 1180.28125 2140.710938 1186.96875 2146.949219 L 1187.050781 2147.019531 C 1205.480469 2162.78125 1206.320312 2188.25 1207.128906 2212.890625 C 1207.300781 2218.300781 1207.46875 2223.421875 1207.820312 2228.46875 L 1207.890625 2228.878906 C 1211.128906 2242.320312 1221.710938 2253.441406 1239.339844 2261.929688 L 1240.78125 2262.628906 L 1242.019531 2261.609375 C 1267.179688 2240.808594 1290.339844 2226.519531 1312.800781 2217.910156 C 1324.339844 2214.78125 1336.289062 2213.019531 1347.851562 2211.320312 C 1364.070312 2208.921875 1380.851562 2206.449219 1396.890625 2200.160156 L 1397.179688 2200.019531 C 1407.519531 2194.339844 1417.480469 2189.941406 1427.640625 2186.570312 L 1428.128906 2186.398438 L 1428.519531 2186.050781 C 1432.171875 2182.761719 1435.558594 2179.039062 1438.828125 2175.441406 C 1443.171875 2170.679688 1447.648438 2165.75 1452.699219 2161.898438 L 1455.539062 2160.789062 C 1468.699219 2155.679688 1482.300781 2150.410156 1494.011719 2140.71875 C 1501.429688 2137.648438 1507.769531 2132.789062 1513.910156 2128.078125 C 1517.878906 2125.03125 1521.988281 2121.890625 1526.300781 2119.320312 L 1527.078125 2119.730469 L 1528.859375 2118.789062 C 1531.859375 2117.199219 1534.460938 2115.839844 1537.378906 2116.070312 L 1543.640625 2116.570312 L 1539.429688 2111.898438 C 1538.53125 2110.898438 1537.691406 2109.960938 1536.859375 2109.019531 C 1536.300781 2108.410156 1535.75 2107.789062 1535.179688 2107.148438 C 1537.929688 2095.609375 1540.820312 2083.921875 1543.621094 2072.601562 C 1553.488281 2032.679688 1563.679688 1991.449219 1569.410156 1950.25 L 1569.96875 1946.199219 C 1570.289062 1943.929688 1570.691406 1941.628906 1571.070312 1939.398438 C 1571.320312 1937.929688 1571.578125 1936.429688 1571.808594 1934.960938 C 1629.089844 1904.128906 1630.449219 1904.03125 1684.511719 1900.070312 C 1688.871094 1899.75 1693.558594 1899.410156 1698.648438 1899.03125 L 1700.671875 1898.871094 L 1700.941406 1896.871094 C 1706.691406 1854.910156 1716.261719 1814.808594 1729.390625 1777.679688 L 1729.679688 1776.871094 L 1729.398438 1776.050781 "/>
</svg>
