<?xml version="1.0" encoding="UTF-8"?>
<svg xmlns="http://www.w3.org/2000/svg" xmlns:xlink="http://www.w3.org/1999/xlink" width="2400" height="2400" viewBox="0 0 2400 2400">
<defs>
<clipPath id="clip-0">

</clipPath>
<linearGradient id="linear-pattern-0" gradientUnits="userSpaceOnUse" x1="0.0740725" y1="0" x2="0.895127" y2="0" gradientTransform="matrix(39.9373, 2923.34, -2923.34, 39.9373, 67.6219, -216.66)">
<stop offset="0" stop-color="rgb(98.429871%, 98.429871%, 98.429871%)" stop-opacity="1"/>
<stop offset="0.5" stop-color="rgb(98.429871%, 98.429871%, 98.429871%)" stop-opacity="1"/>
<stop offset="0.5625" stop-color="rgb(98.429871%, 98.429871%, 98.429871%)" stop-opacity="1"/>
<stop offset="0.59375" stop-color="rgb(98.376465%, 98.376465%, 98.376465%)" stop-opacity="1"/>
<stop offset="0.625" stop-color="rgb(98.179626%, 98.179626%, 98.179626%)" stop-opacity="1"/>
<stop offset="0.75" stop-color="rgb(98.03772%, 98.03772%, 98.03772%)" stop-opacity="1"/>
<stop offset="1" stop-color="rgb(98.03772%, 98.03772%, 98.03772%)" stop-opacity="1"/>
</linearGradient>
<clipPath id="clip-1">
<path clip-rule="nonzero" d="M 167.796875 0 L 216.816406 0 L 216.816406 2400 L 167.796875 2400 Z M 167.796875 0 "/>
</clipPath>
<linearGradient id="linear-pattern-1" gradientUnits="userSpaceOnUse" x1="0.0740725" y1="0" x2="0.895127" y2="0" gradientTransform="matrix(39.9373, 2923.34, -2923.34, 39.9373, 173.695, -216.66)">
<stop offset="0" stop-color="rgb(98.429871%, 98.429871%, 98.429871%)" stop-opacity="1"/>
<stop offset="0.5" stop-color="rgb(98.429871%, 98.429871%, 98.429871%)" stop-opacity="1"/>
<stop offset="0.5625" stop-color="rgb(98.429871%, 98.429871%, 98.429871%)" stop-opacity="1"/>
<stop offset="0.59375" stop-color="rgb(98.376465%, 98.376465%, 98.376465%)" stop-opacity="1"/>
<stop offset="0.625" stop-color="rgb(98.179626%, 98.179626%, 98.179626%)" stop-opacity="1"/>
<stop offset="0.75" stop-color="rgb(98.03772%, 98.03772%, 98.03772%)" stop-opacity="1"/>
<stop offset="1" stop-color="rgb(98.03772%, 98.03772%, 98.03772%)" stop-opacity="1"/>
</linearGradient>
<clipPath id="clip-2">
<path clip-rule="nonzero" d="M 273.871094 0 L 322.890625 0 L 322.890625 2400 L 273.871094 2400 Z M 273.871094 0 "/>
</clipPath>
<linearGradient id="linear-pattern-2" gradientUnits="userSpaceOnUse" x1="0.0740725" y1="0" x2="0.895127" y2="0" gradientTransform="matrix(39.9373, 2923.34, -2923.34, 39.9373, 279.768, -216.66)">
<stop offset="0" stop-color="rgb(98.429871%, 98.429871%, 98.429871%)" stop-opacity="1"/>
<stop offset="0.5" stop-color="rgb(98.429871%, 98.429871%, 98.429871%)" stop-opacity="1"/>
<stop offset="0.5625" stop-color="rgb(98.429871%, 98.429871%, 98.429871%)" stop-opacity="1"/>
<stop offset="0.59375" stop-color="rgb(98.376465%, 98.376465%, 98.376465%)" stop-opacity="1"/>
<stop offset="0.625" stop-color="rgb(98.179626%, 98.179626%, 98.179626%)" stop-opacity="1"/>
<stop offset="0.75" stop-color="rgb(98.03772%, 98.03772%, 98.03772%)" stop-opacity="1"/>
<stop offset="1" stop-color="rgb(98.03772%, 98.03772%, 98.03772%)" stop-opacity="1"/>
</linearGradient>
<clipPath id="clip-3">
<path clip-rule="nonzero" d="M 379.945312 0 L 428.960938 0 L 428.960938 2400 L 379.945312 2400 Z M 379.945312 0 "/>
</clipPath>
<linearGradient id="linear-pattern-3" gradientUnits="userSpaceOnUse" x1="0.0740725" y1="0" x2="0.895127" y2="0" gradientTransform="matrix(39.9373, 2923.34, -2923.34, 39.9373, 385.841, -216.66)">
<stop offset="0" stop-color="rgb(98.429871%, 98.429871%, 98.429871%)" stop-opacity="1"/>
<stop offset="0.5" stop-color="rgb(98.429871%, 98.429871%, 98.429871%)" stop-opacity="1"/>
<stop offset="0.5625" stop-color="rgb(98.429871%, 98.429871%, 98.429871%)" stop-opacity="1"/>
<stop offset="0.59375" stop-color="rgb(98.376465%, 98.376465%, 98.376465%)" stop-opacity="1"/>
<stop offset="0.625" stop-color="rgb(98.179626%, 98.179626%, 98.179626%)" stop-opacity="1"/>
<stop offset="0.75" stop-color="rgb(98.03772%, 98.03772%, 98.03772%)" stop-opacity="1"/>
<stop offset="1" stop-color="rgb(98.03772%, 98.03772%, 98.03772%)" stop-opacity="1"/>
</linearGradient>
<clipPath id="clip-4">
<path clip-rule="nonzero" d="M 486.015625 0 L 535.035156 0 L 535.035156 2400 L 486.015625 2400 Z M 486.015625 0 "/>
</clipPath>
<linearGradient id="linear-pattern-4" gradientUnits="userSpaceOnUse" x1="0.0740725" y1="0" x2="0.895127" y2="0" gradientTransform="matrix(39.9373, 2923.34, -2923.34, 39.9373, 491.914, -216.66)">
<stop offset="0" stop-color="rgb(98.429871%, 98.429871%, 98.429871%)" stop-opacity="1"/>
<stop offset="0.5" stop-color="rgb(98.429871%, 98.429871%, 98.429871%)" stop-opacity="1"/>
<stop offset="0.5625" stop-color="rgb(98.429871%, 98.429871%, 98.429871%)" stop-opacity="1"/>
<stop offset="0.59375" stop-color="rgb(98.376465%, 98.376465%, 98.376465%)" stop-opacity="1"/>
<stop offset="0.625" stop-color="rgb(98.179626%, 98.179626%, 98.179626%)" stop-opacity="1"/>
<stop offset="0.75" stop-color="rgb(98.03772%, 98.03772%, 98.03772%)" stop-opacity="1"/>
<stop offset="1" stop-color="rgb(98.03772%, 98.03772%, 98.03772%)" stop-opacity="1"/>
</linearGradient>
<clipPath id="clip-5">
<path clip-rule="nonzero" d="M 592.089844 0 L 641.109375 0 L 641.109375 2400 L 592.089844 2400 Z M 592.089844 0 "/>
</clipPath>
<linearGradient id="linear-pattern-5" gradientUnits="userSpaceOnUse" x1="0.0740725" y1="0" x2="0.895127" y2="0" gradientTransform="matrix(39.9373, 2923.34, -2923.34, 39.9373, 597.987, -216.66)">
<stop offset="0" stop-color="rgb(98.429871%, 98.429871%, 98.429871%)" stop-opacity="1"/>
<stop offset="0.5" stop-color="rgb(98.429871%, 98.429871%, 98.429871%)" stop-opacity="1"/>
<stop offset="0.5625" stop-color="rgb(98.429871%, 98.429871%, 98.429871%)" stop-opacity="1"/>
<stop offset="0.59375" stop-color="rgb(98.376465%, 98.376465%, 98.376465%)" stop-opacity="1"/>
<stop offset="0.625" stop-color="rgb(98.179626%, 98.179626%, 98.179626%)" stop-opacity="1"/>
<stop offset="0.75" stop-color="rgb(98.03772%, 98.03772%, 98.03772%)" stop-opacity="1"/>
<stop offset="1" stop-color="rgb(98.03772%, 98.03772%, 98.03772%)" stop-opacity="1"/>
</linearGradient>
<clipPath id="clip-6">
<path clip-rule="nonzero" d="M 698.160156 0 L 747.179688 0 L 747.179688 2400 L 698.160156 2400 Z M 698.160156 0 "/>
</clipPath>
<linearGradient id="linear-pattern-6" gradientUnits="userSpaceOnUse" x1="0.0740725" y1="0" x2="0.895127" y2="0" gradientTransform="matrix(39.9373, 2923.34, -2923.34, 39.9373, 704.06, -216.66)">
<stop offset="0" stop-color="rgb(98.429871%, 98.429871%, 98.429871%)" stop-opacity="1"/>
<stop offset="0.5" stop-color="rgb(98.429871%, 98.429871%, 98.429871%)" stop-opacity="1"/>
<stop offset="0.5625" stop-color="rgb(98.429871%, 98.429871%, 98.429871%)" stop-opacity="1"/>
<stop offset="0.59375" stop-color="rgb(98.376465%, 98.376465%, 98.376465%)" stop-opacity="1"/>
<stop offset="0.625" stop-color="rgb(98.179626%, 98.179626%, 98.179626%)" stop-opacity="1"/>
<stop offset="0.75" stop-color="rgb(98.03772%, 98.03772%, 98.03772%)" stop-opacity="1"/>
<stop offset="1" stop-color="rgb(98.03772%, 98.03772%, 98.03772%)" stop-opacity="1"/>
</linearGradient>
<clipPath id="clip-7">
<path clip-rule="nonzero" d="M 804.234375 0 L 853.253906 0 L 853.253906 2400 L 804.234375 2400 Z M 804.234375 0 "/>
</clipPath>
<linearGradient id="linear-pattern-7" gradientUnits="userSpaceOnUse" x1="0.0740725" y1="0" x2="0.895127" y2="0" gradientTransform="matrix(39.9373, 2923.34, -2923.34, 39.9373, 810.133, -216.66)">
<stop offset="0" stop-color="rgb(98.429871%, 98.429871%, 98.429871%)" stop-opacity="1"/>
<stop offset="0.5" stop-color="rgb(98.429871%, 98.429871%, 98.429871%)" stop-opacity="1"/>
<stop offset="0.5625" stop-color="rgb(98.429871%, 98.429871%, 98.429871%)" stop-opacity="1"/>
<stop offset="0.59375" stop-color="rgb(98.376465%, 98.376465%, 98.376465%)" stop-opacity="1"/>
<stop offset="0.625" stop-color="rgb(98.179626%, 98.179626%, 98.179626%)" stop-opacity="1"/>
<stop offset="0.75" stop-color="rgb(98.03772%, 98.03772%, 98.03772%)" stop-opacity="1"/>
<stop offset="1" stop-color="rgb(98.03772%, 98.03772%, 98.03772%)" stop-opacity="1"/>
</linearGradient>
<clipPath id="clip-8">
<path clip-rule="nonzero" d="M 910.308594 0 L 959.328125 0 L 959.328125 2400 L 910.308594 2400 Z M 910.308594 0 "/>
</clipPath>
<linearGradient id="linear-pattern-8" gradientUnits="userSpaceOnUse" x1="0.0740725" y1="0" x2="0.895127" y2="0" gradientTransform="matrix(39.9373, 2923.34, -2923.34, 39.9373, 916.205, -216.66)">
<stop offset="0" stop-color="rgb(98.429871%, 98.429871%, 98.429871%)" stop-opacity="1"/>
<stop offset="0.5" stop-color="rgb(98.429871%, 98.429871%, 98.429871%)" stop-opacity="1"/>
<stop offset="0.5625" stop-color="rgb(98.429871%, 98.429871%, 98.429871%)" stop-opacity="1"/>
<stop offset="0.59375" stop-color="rgb(98.376465%, 98.376465%, 98.376465%)" stop-opacity="1"/>
<stop offset="0.625" stop-color="rgb(98.179626%, 98.179626%, 98.179626%)" stop-opacity="1"/>
<stop offset="0.75" stop-color="rgb(98.03772%, 98.03772%, 98.03772%)" stop-opacity="1"/>
<stop offset="1" stop-color="rgb(98.03772%, 98.03772%, 98.03772%)" stop-opacity="1"/>
</linearGradient>
<clipPath id="clip-9">
<path clip-rule="nonzero" d="M 1016.378906 0 L 1065.398438 0 L 1065.398438 2400 L 1016.378906 2400 Z M 1016.378906 0 "/>
</clipPath>
<linearGradient id="linear-pattern-9" gradientUnits="userSpaceOnUse" x1="0.0740725" y1="0" x2="0.895127" y2="0" gradientTransform="matrix(39.9373, 2923.34, -2923.34, 39.9373, 1022.28, -216.66)">
<stop offset="0" stop-color="rgb(98.429871%, 98.429871%, 98.429871%)" stop-opacity="1"/>
<stop offset="0.5" stop-color="rgb(98.429871%, 98.429871%, 98.429871%)" stop-opacity="1"/>
<stop offset="0.5625" stop-color="rgb(98.429871%, 98.429871%, 98.429871%)" stop-opacity="1"/>
<stop offset="0.59375" stop-color="rgb(98.376465%, 98.376465%, 98.376465%)" stop-opacity="1"/>
<stop offset="0.625" stop-color="rgb(98.179626%, 98.179626%, 98.179626%)" stop-opacity="1"/>
<stop offset="0.75" stop-color="rgb(98.03772%, 98.03772%, 98.03772%)" stop-opacity="1"/>
<stop offset="1" stop-color="rgb(98.03772%, 98.03772%, 98.03772%)" stop-opacity="1"/>
</linearGradient>
<clipPath id="clip-10">
<path clip-rule="nonzero" d="M 1122.449219 0 L 1171.46875 0 L 1171.46875 2400 L 1122.449219 2400 Z M 1122.449219 0 "/>
</clipPath>
<linearGradient id="linear-pattern-10" gradientUnits="userSpaceOnUse" x1="0.0740725" y1="0" x2="0.895127" y2="0" gradientTransform="matrix(39.9373, 2923.34, -2923.34, 39.9373, 1128.35, -216.66)">
<stop offset="0" stop-color="rgb(98.429871%, 98.429871%, 98.429871%)" stop-opacity="1"/>
<stop offset="0.5" stop-color="rgb(98.429871%, 98.429871%, 98.429871%)" stop-opacity="1"/>
<stop offset="0.5625" stop-color="rgb(98.429871%, 98.429871%, 98.429871%)" stop-opacity="1"/>
<stop offset="0.59375" stop-color="rgb(98.376465%, 98.376465%, 98.376465%)" stop-opacity="1"/>
<stop offset="0.625" stop-color="rgb(98.179626%, 98.179626%, 98.179626%)" stop-opacity="1"/>
<stop offset="0.75" stop-color="rgb(98.03772%, 98.03772%, 98.03772%)" stop-opacity="1"/>
<stop offset="1" stop-color="rgb(98.03772%, 98.03772%, 98.03772%)" stop-opacity="1"/>
</linearGradient>
<clipPath id="clip-11">
<path clip-rule="nonzero" d="M 1228.53125 0 L 1277.550781 0 L 1277.550781 2400 L 1228.53125 2400 Z M 1228.53125 0 "/>
</clipPath>
<linearGradient id="linear-pattern-11" gradientUnits="userSpaceOnUse" x1="0.0740725" y1="0" x2="0.895127" y2="0" gradientTransform="matrix(39.9373, 2923.34, -2923.34, 39.9373, 1234.42, -216.66)">
<stop offset="0" stop-color="rgb(98.429871%, 98.429871%, 98.429871%)" stop-opacity="1"/>
<stop offset="0.5" stop-color="rgb(98.429871%, 98.429871%, 98.429871%)" stop-opacity="1"/>
<stop offset="0.5625" stop-color="rgb(98.429871%, 98.429871%, 98.429871%)" stop-opacity="1"/>
<stop offset="0.59375" stop-color="rgb(98.376465%, 98.376465%, 98.376465%)" stop-opacity="1"/>
<stop offset="0.625" stop-color="rgb(98.179626%, 98.179626%, 98.179626%)" stop-opacity="1"/>
<stop offset="0.75" stop-color="rgb(98.03772%, 98.03772%, 98.03772%)" stop-opacity="1"/>
<stop offset="1" stop-color="rgb(98.03772%, 98.03772%, 98.03772%)" stop-opacity="1"/>
</linearGradient>
<clipPath id="clip-12">
<path clip-rule="nonzero" d="M 1334.601562 0 L 1383.621094 0 L 1383.621094 2400 L 1334.601562 2400 Z M 1334.601562 0 "/>
</clipPath>
<linearGradient id="linear-pattern-12" gradientUnits="userSpaceOnUse" x1="0.0740725" y1="0" x2="0.895127" y2="0" gradientTransform="matrix(39.9373, 2923.34, -2923.34, 39.9373, 1340.5, -216.66)">
<stop offset="0" stop-color="rgb(98.429871%, 98.429871%, 98.429871%)" stop-opacity="1"/>
<stop offset="0.5" stop-color="rgb(98.429871%, 98.429871%, 98.429871%)" stop-opacity="1"/>
<stop offset="0.5625" stop-color="rgb(98.429871%, 98.429871%, 98.429871%)" stop-opacity="1"/>
<stop offset="0.59375" stop-color="rgb(98.376465%, 98.376465%, 98.376465%)" stop-opacity="1"/>
<stop offset="0.625" stop-color="rgb(98.179626%, 98.179626%, 98.179626%)" stop-opacity="1"/>
<stop offset="0.75" stop-color="rgb(98.03772%, 98.03772%, 98.03772%)" stop-opacity="1"/>
<stop offset="1" stop-color="rgb(98.03772%, 98.03772%, 98.03772%)" stop-opacity="1"/>
</linearGradient>
<clipPath id="clip-13">
<path clip-rule="nonzero" d="M 1440.671875 0 L 1489.691406 0 L 1489.691406 2400 L 1440.671875 2400 Z M 1440.671875 0 "/>
</clipPath>
<linearGradient id="linear-pattern-13" gradientUnits="userSpaceOnUse" x1="0.0740725" y1="0" x2="0.895127" y2="0" gradientTransform="matrix(39.9373, 2923.34, -2923.34, 39.9373, 1446.57, -216.66)">
<stop offset="0" stop-color="rgb(98.429871%, 98.429871%, 98.429871%)" stop-opacity="1"/>
<stop offset="0.5" stop-color="rgb(98.429871%, 98.429871%, 98.429871%)" stop-opacity="1"/>
<stop offset="0.5625" stop-color="rgb(98.429871%, 98.429871%, 98.429871%)" stop-opacity="1"/>
<stop offset="0.59375" stop-color="rgb(98.376465%, 98.376465%, 98.376465%)" stop-opacity="1"/>
<stop offset="0.625" stop-color="rgb(98.179626%, 98.179626%, 98.179626%)" stop-opacity="1"/>
<stop offset="0.75" stop-color="rgb(98.03772%, 98.03772%, 98.03772%)" stop-opacity="1"/>
<stop offset="1" stop-color="rgb(98.03772%, 98.03772%, 98.03772%)" stop-opacity="1"/>
</linearGradient>
<clipPath id="clip-14">
<path clip-rule="nonzero" d="M 1546.75 0 L 1595.761719 0 L 1595.761719 2400 L 1546.75 2400 Z M 1546.75 0 "/>
</clipPath>
<linearGradient id="linear-pattern-14" gradientUnits="userSpaceOnUse" x1="0.0740725" y1="0" x2="0.895127" y2="0" gradientTransform="matrix(39.9373, 2923.34, -2923.34, 39.9373, 1552.64, -216.66)">
<stop offset="0" stop-color="rgb(98.429871%, 98.429871%, 98.429871%)" stop-opacity="1"/>
<stop offset="0.5" stop-color="rgb(98.429871%, 98.429871%, 98.429871%)" stop-opacity="1"/>
<stop offset="0.5625" stop-color="rgb(98.429871%, 98.429871%, 98.429871%)" stop-opacity="1"/>
<stop offset="0.59375" stop-color="rgb(98.376465%, 98.376465%, 98.376465%)" stop-opacity="1"/>
<stop offset="0.625" stop-color="rgb(98.179626%, 98.179626%, 98.179626%)" stop-opacity="1"/>
<stop offset="0.75" stop-color="rgb(98.03772%, 98.03772%, 98.03772%)" stop-opacity="1"/>
<stop offset="1" stop-color="rgb(98.03772%, 98.03772%, 98.03772%)" stop-opacity="1"/>
</linearGradient>
<clipPath id="clip-15">
<path clip-rule="nonzero" d="M 1652.820312 0 L 1701.839844 0 L 1701.839844 2400 L 1652.820312 2400 Z M 1652.820312 0 "/>
</clipPath>
<linearGradient id="linear-pattern-15" gradientUnits="userSpaceOnUse" x1="0.0740725" y1="0" x2="0.895127" y2="0" gradientTransform="matrix(39.9373, 2923.34, -2923.34, 39.9373, 1658.72, -216.66)">
<stop offset="0" stop-color="rgb(98.429871%, 98.429871%, 98.429871%)" stop-opacity="1"/>
<stop offset="0.5" stop-color="rgb(98.429871%, 98.429871%, 98.429871%)" stop-opacity="1"/>
<stop offset="0.5625" stop-color="rgb(98.429871%, 98.429871%, 98.429871%)" stop-opacity="1"/>
<stop offset="0.59375" stop-color="rgb(98.376465%, 98.376465%, 98.376465%)" stop-opacity="1"/>
<stop offset="0.625" stop-color="rgb(98.179626%, 98.179626%, 98.179626%)" stop-opacity="1"/>
<stop offset="0.75" stop-color="rgb(98.03772%, 98.03772%, 98.03772%)" stop-opacity="1"/>
<stop offset="1" stop-color="rgb(98.03772%, 98.03772%, 98.03772%)" stop-opacity="1"/>
</linearGradient>
<clipPath id="clip-16">
<path clip-rule="nonzero" d="M 1758.890625 0 L 1807.910156 0 L 1807.910156 2400 L 1758.890625 2400 Z M 1758.890625 0 "/>
</clipPath>
<linearGradient id="linear-pattern-16" gradientUnits="userSpaceOnUse" x1="0.0740725" y1="0" x2="0.895127" y2="0" gradientTransform="matrix(39.9373, 2923.34, -2923.34, 39.9373, 1764.79, -216.66)">
<stop offset="0" stop-color="rgb(98.429871%, 98.429871%, 98.429871%)" stop-opacity="1"/>
<stop offset="0.5" stop-color="rgb(98.429871%, 98.429871%, 98.429871%)" stop-opacity="1"/>
<stop offset="0.5625" stop-color="rgb(98.429871%, 98.429871%, 98.429871%)" stop-opacity="1"/>
<stop offset="0.59375" stop-color="rgb(98.376465%, 98.376465%, 98.376465%)" stop-opacity="1"/>
<stop offset="0.625" stop-color="rgb(98.179626%, 98.179626%, 98.179626%)" stop-opacity="1"/>
<stop offset="0.75" stop-color="rgb(98.03772%, 98.03772%, 98.03772%)" stop-opacity="1"/>
<stop offset="1" stop-color="rgb(98.03772%, 98.03772%, 98.03772%)" stop-opacity="1"/>
</linearGradient>
<clipPath id="clip-17">
<path clip-rule="nonzero" d="M 1864.960938 0 L 1913.980469 0 L 1913.980469 2400 L 1864.960938 2400 Z M 1864.960938 0 "/>
</clipPath>
<linearGradient id="linear-pattern-17" gradientUnits="userSpaceOnUse" x1="0.0740725" y1="0" x2="0.895127" y2="0" gradientTransform="matrix(39.9373, 2923.34, -2923.34, 39.9373, 1870.86, -216.66)">
<stop offset="0" stop-color="rgb(98.429871%, 98.429871%, 98.429871%)" stop-opacity="1"/>
<stop offset="0.5" stop-color="rgb(98.429871%, 98.429871%, 98.429871%)" stop-opacity="1"/>
<stop offset="0.5625" stop-color="rgb(98.429871%, 98.429871%, 98.429871%)" stop-opacity="1"/>
<stop offset="0.59375" stop-color="rgb(98.376465%, 98.376465%, 98.376465%)" stop-opacity="1"/>
<stop offset="0.625" stop-color="rgb(98.179626%, 98.179626%, 98.179626%)" stop-opacity="1"/>
<stop offset="0.75" stop-color="rgb(98.03772%, 98.03772%, 98.03772%)" stop-opacity="1"/>
<stop offset="1" stop-color="rgb(98.03772%, 98.03772%, 98.03772%)" stop-opacity="1"/>
</linearGradient>
<clipPath id="clip-18">
<path clip-rule="nonzero" d="M 1971.039062 0 L 2020.058594 0 L 2020.058594 2400 L 1971.039062 2400 Z M 1971.039062 0 "/>
</clipPath>
<linearGradient id="linear-pattern-18" gradientUnits="userSpaceOnUse" x1="0.0740725" y1="0" x2="0.895127" y2="0" gradientTransform="matrix(39.9373, 2923.34, -2923.34, 39.9373, 1976.93, -216.66)">
<stop offset="0" stop-color="rgb(98.429871%, 98.429871%, 98.429871%)" stop-opacity="1"/>
<stop offset="0.5" stop-color="rgb(98.429871%, 98.429871%, 98.429871%)" stop-opacity="1"/>
<stop offset="0.5625" stop-color="rgb(98.429871%, 98.429871%, 98.429871%)" stop-opacity="1"/>
<stop offset="0.59375" stop-color="rgb(98.376465%, 98.376465%, 98.376465%)" stop-opacity="1"/>
<stop offset="0.625" stop-color="rgb(98.179626%, 98.179626%, 98.179626%)" stop-opacity="1"/>
<stop offset="0.75" stop-color="rgb(98.03772%, 98.03772%, 98.03772%)" stop-opacity="1"/>
<stop offset="1" stop-color="rgb(98.03772%, 98.03772%, 98.03772%)" stop-opacity="1"/>
</linearGradient>
<clipPath id="clip-19">
<path clip-rule="nonzero" d="M 2077.109375 0 L 2126.128906 0 L 2126.128906 2400 L 2077.109375 2400 Z M 2077.109375 0 "/>
</clipPath>
<linearGradient id="linear-pattern-19" gradientUnits="userSpaceOnUse" x1="0.0740725" y1="0" x2="0.895127" y2="0" gradientTransform="matrix(39.9373, 2923.34, -2923.34, 39.9373, 2083.01, -216.66)">
<stop offset="0" stop-color="rgb(98.429871%, 98.429871%, 98.429871%)" stop-opacity="1"/>
<stop offset="0.5" stop-color="rgb(98.429871%, 98.429871%, 98.429871%)" stop-opacity="1"/>
<stop offset="0.5625" stop-color="rgb(98.429871%, 98.429871%, 98.429871%)" stop-opacity="1"/>
<stop offset="0.59375" stop-color="rgb(98.376465%, 98.376465%, 98.376465%)" stop-opacity="1"/>
<stop offset="0.625" stop-color="rgb(98.179626%, 98.179626%, 98.179626%)" stop-opacity="1"/>
<stop offset="0.75" stop-color="rgb(98.03772%, 98.03772%, 98.03772%)" stop-opacity="1"/>
<stop offset="1" stop-color="rgb(98.03772%, 98.03772%, 98.03772%)" stop-opacity="1"/>
</linearGradient>
<clipPath id="clip-20">
<path clip-rule="nonzero" d="M 2183.179688 0 L 2232.199219 0 L 2232.199219 2400 L 2183.179688 2400 Z M 2183.179688 0 "/>
</clipPath>
<linearGradient id="linear-pattern-20" gradientUnits="userSpaceOnUse" x1="0.0740725" y1="0" x2="0.895127" y2="0" gradientTransform="matrix(39.9373, 2923.34, -2923.34, 39.9373, 2189.08, -216.66)">
<stop offset="0" stop-color="rgb(98.429871%, 98.429871%, 98.429871%)" stop-opacity="1"/>
<stop offset="0.5" stop-color="rgb(98.429871%, 98.429871%, 98.429871%)" stop-opacity="1"/>
<stop offset="0.5625" stop-color="rgb(98.429871%, 98.429871%, 98.429871%)" stop-opacity="1"/>
<stop offset="0.59375" stop-color="rgb(98.376465%, 98.376465%, 98.376465%)" stop-opacity="1"/>
<stop offset="0.625" stop-color="rgb(98.179626%, 98.179626%, 98.179626%)" stop-opacity="1"/>
<stop offset="0.75" stop-color="rgb(98.03772%, 98.03772%, 98.03772%)" stop-opacity="1"/>
<stop offset="1" stop-color="rgb(98.03772%, 98.03772%, 98.03772%)" stop-opacity="1"/>
</linearGradient>
<clipPath id="clip-21">
<path clip-rule="nonzero" d="M 2289.261719 0 L 2338.269531 0 L 2338.269531 2400 L 2289.261719 2400 Z M 2289.261719 0 "/>
</clipPath>
<linearGradient id="linear-pattern-21" gradientUnits="userSpaceOnUse" x1="0.0740725" y1="0" x2="0.895127" y2="0" gradientTransform="matrix(39.9373, 2923.34, -2923.34, 39.9373, 2295.15, -216.66)">
<stop offset="0" stop-color="rgb(98.429871%, 98.429871%, 98.429871%)" stop-opacity="1"/>
<stop offset="0.5" stop-color="rgb(98.429871%, 98.429871%, 98.429871%)" stop-opacity="1"/>
<stop offset="0.5625" stop-color="rgb(98.429871%, 98.429871%, 98.429871%)" stop-opacity="1"/>
<stop offset="0.59375" stop-color="rgb(98.376465%, 98.376465%, 98.376465%)" stop-opacity="1"/>
<stop offset="0.625" stop-color="rgb(98.179626%, 98.179626%, 98.179626%)" stop-opacity="1"/>
<stop offset="0.75" stop-color="rgb(98.03772%, 98.03772%, 98.03772%)" stop-opacity="1"/>
<stop offset="1" stop-color="rgb(98.03772%, 98.03772%, 98.03772%)" stop-opacity="1"/>
</linearGradient>
</defs>


<g clip-path="url(#clip-0)">
<path fill-rule="nonzero" fill="url(#linear-pattern-0)" d="M 110.734375 -0.667969 L 28.945312 0.449219 L 61.734375 2400.667969 L 143.523438 2399.550781 Z M 110.734375 -0.667969 "/>
</g>
<g clip-path="url(#clip-1)">
<path fill-rule="nonzero" fill="url(#linear-pattern-1)" d="M 216.808594 -0.667969 L 135.015625 0.449219 L 167.808594 2400.667969 L 249.597656 2399.550781 Z M 216.808594 -0.667969 "/>
</g>
<g clip-path="url(#clip-2)">
<path fill-rule="nonzero" fill="url(#linear-pattern-2)" d="M 322.878906 -0.667969 L 241.089844 0.449219 L 273.878906 2400.667969 L 355.671875 2399.550781 Z M 322.878906 -0.667969 "/>
</g>
<g clip-path="url(#clip-3)">
<path fill-rule="nonzero" fill="url(#linear-pattern-3)" d="M 428.953125 -0.667969 L 347.164062 0.449219 L 379.953125 2400.667969 L 461.742188 2399.550781 Z M 428.953125 -0.667969 "/>
</g>
<g clip-path="url(#clip-4)">
<path fill-rule="nonzero" fill="url(#linear-pattern-4)" d="M 535.027344 -0.667969 L 453.234375 0.449219 L 486.027344 2400.667969 L 567.816406 2399.550781 Z M 535.027344 -0.667969 "/>
</g>
<g clip-path="url(#clip-5)">
<path fill-rule="nonzero" fill="url(#linear-pattern-5)" d="M 641.097656 -0.667969 L 559.308594 0.449219 L 592.097656 2400.667969 L 673.890625 2399.550781 Z M 641.097656 -0.667969 "/>
</g>
<g clip-path="url(#clip-6)">
<path fill-rule="nonzero" fill="url(#linear-pattern-6)" d="M 747.171875 -0.667969 L 665.378906 0.449219 L 698.171875 2400.667969 L 779.960938 2399.550781 Z M 747.171875 -0.667969 "/>
</g>
<g clip-path="url(#clip-7)">
<path fill-rule="nonzero" fill="url(#linear-pattern-7)" d="M 853.246094 -0.667969 L 771.453125 0.449219 L 804.246094 2400.667969 L 886.035156 2399.550781 Z M 853.246094 -0.667969 "/>
</g>
<g clip-path="url(#clip-8)">
<path fill-rule="nonzero" fill="url(#linear-pattern-8)" d="M 959.316406 -0.667969 L 877.527344 0.449219 L 910.316406 2400.667969 L 992.109375 2399.550781 Z M 959.316406 -0.667969 "/>
</g>
<g clip-path="url(#clip-9)">
<path fill-rule="nonzero" fill="url(#linear-pattern-9)" d="M 1065.390625 -0.667969 L 983.597656 0.449219 L 1016.390625 2400.667969 L 1098.179688 2399.550781 Z M 1065.390625 -0.667969 "/>
</g>
<g clip-path="url(#clip-10)">
<path fill-rule="nonzero" fill="url(#linear-pattern-10)" d="M 1171.460938 -0.667969 L 1089.667969 0.449219 L 1122.460938 2400.667969 L 1204.25 2399.550781 Z M 1171.460938 -0.667969 "/>
</g>
<g clip-path="url(#clip-11)">
<path fill-rule="nonzero" fill="url(#linear-pattern-11)" d="M 1277.539062 -0.667969 L 1195.75 0.449219 L 1228.539062 2400.667969 L 1310.332031 2399.550781 Z M 1277.539062 -0.667969 "/>
</g>
<g clip-path="url(#clip-12)">
<path fill-rule="nonzero" fill="url(#linear-pattern-12)" d="M 1383.609375 -0.667969 L 1301.820312 0.449219 L 1334.609375 2400.667969 L 1416.402344 2399.550781 Z M 1383.609375 -0.667969 "/>
</g>
<g clip-path="url(#clip-13)">
<path fill-rule="nonzero" fill="url(#linear-pattern-13)" d="M 1489.679688 -0.667969 L 1407.886719 0.449219 L 1440.679688 2400.667969 L 1522.472656 2399.550781 Z M 1489.679688 -0.667969 "/>
</g>
<g clip-path="url(#clip-14)">
<path fill-rule="nonzero" fill="url(#linear-pattern-14)" d="M 1595.75 -0.667969 L 1513.96875 0.449219 L 1546.757812 2400.667969 L 1628.542969 2399.550781 Z M 1595.75 -0.667969 "/>
</g>
<g clip-path="url(#clip-15)">
<path fill-rule="nonzero" fill="url(#linear-pattern-15)" d="M 1701.832031 -0.667969 L 1620.039062 0.449219 L 1652.828125 2400.667969 L 1734.621094 2399.550781 Z M 1701.832031 -0.667969 "/>
</g>
<g clip-path="url(#clip-16)">
<path fill-rule="nonzero" fill="url(#linear-pattern-16)" d="M 1807.902344 -0.667969 L 1726.109375 0.449219 L 1758.898438 2400.667969 L 1840.691406 2399.550781 Z M 1807.902344 -0.667969 "/>
</g>
<g clip-path="url(#clip-17)">
<path fill-rule="nonzero" fill="url(#linear-pattern-17)" d="M 1913.972656 -0.667969 L 1832.179688 0.449219 L 1864.96875 2400.667969 L 1946.761719 2399.550781 Z M 1913.972656 -0.667969 "/>
</g>
<g clip-path="url(#clip-18)">
<path fill-rule="nonzero" fill="url(#linear-pattern-18)" d="M 2020.050781 -0.667969 L 1938.257812 0.449219 L 1971.050781 2400.667969 L 2052.839844 2399.550781 Z M 2020.050781 -0.667969 "/>
</g>
<g clip-path="url(#clip-19)">
<path fill-rule="nonzero" fill="url(#linear-pattern-19)" d="M 2126.121094 -0.667969 L 2044.328125 0.449219 L 2077.121094 2400.667969 L 2158.910156 2399.550781 Z M 2126.121094 -0.667969 "/>
</g>
<g clip-path="url(#clip-20)">
<path fill-rule="nonzero" fill="url(#linear-pattern-20)" d="M 2232.191406 -0.667969 L 2150.398438 0.449219 L 2183.1875 2400.667969 L 2264.980469 2399.550781 Z M 2232.191406 -0.667969 "/>
</g>
<g clip-path="url(#clip-21)">
<path fill-rule="nonzero" fill="url(#linear-pattern-21)" d="M 2338.261719 -0.667969 L 2256.476562 0.449219 L 2289.269531 2400.667969 L 2371.050781 2399.550781 Z M 2338.261719 -0.667969 "/>
</g>
<path fill-rule="nonzero" fill="rgb(4.704285%, 9.008789%, 33.714294%)" fill-opacity="1" d="M 1892.601562 1255.761719 L 1905.679688 1238.5 L 1913.03125 1220.441406 L 1905.488281 1206.769531 L 1901.75 1203.148438 L 1895.621094 1215.671875 L 1888.078125 1226.261719 L 1882.339844 1230.261719 L 1880.558594 1225.621094 L 1876.179688 1230.878906 L 1875.679688 1225.21875 L 1865.5 1226.101562 L 1864.78125 1217.980469 L 1863.890625 1217.191406 C 1860.351562 1214.03125 1856.808594 1210.859375 1853.269531 1207.699219 L 1852.28125 1206.808594 L 1831.429688 1209 L 1822.75 1201.578125 C 1822.578125 1199 1822.25 1194.410156 1821.921875 1192.199219 L 1821.75 1191.058594 L 1808.820312 1180.421875 L 1786.050781 1182.820312 L 1782.980469 1186.261719 C 1778.261719 1191.570312 1769.800781 1201.050781 1766.488281 1204.988281 L 1765.179688 1205.148438 L 1756.96875 1200.058594 L 1736.339844 1199.628906 L 1723.640625 1194.460938 L 1723.230469 1194.410156 C 1714.769531 1193.398438 1697.378906 1189.390625 1688.390625 1186.378906 C 1686.539062 1185.070312 1677.871094 1178.910156 1675.300781 1177.089844 L 1671.5 1167.5 L 1662.101562 1154.671875 C 1660.378906 1151.398438 1655.78125 1143.730469 1653.761719 1140.390625 C 1649.921875 1132.210938 1641.101562 1115.25 1636.421875 1106.601562 L 1634.710938 1103.429688 L 1634.039062 1103.96875 C 1632.03125 1101.878906 1628.941406 1098.671875 1627.46875 1097.140625 L 1627.46875 1096.011719 L 1610.46875 1091.71875 L 1609.910156 1091.789062 C 1600.738281 1093 1581.5 1096.648438 1572.210938 1099.640625 L 1571.199219 1099.96875 L 1569.75 1102.179688 C 1567.699219 1105.308594 1563.890625 1111.121094 1562.621094 1113.210938 L 1561.070312 1115.769531 L 1561.609375 1116.089844 C 1560.738281 1118.78125 1559.300781 1123.210938 1558.511719 1125.660156 C 1557.191406 1125.789062 1555.640625 1125.859375 1554.789062 1125.800781 L 1553.339844 1125.710938 L 1547.558594 1132.078125 L 1547.941406 1140.53125 C 1539.140625 1141.230469 1530.339844 1141.929688 1521.539062 1142.628906 L 1520.46875 1126.261719 L 1530.628906 1115.300781 L 1530.558594 1114.019531 C 1530.441406 1112.070312 1530.019531 1105.890625 1529.628906 1103.199219 L 1529.449219 1101.980469 L 1526.769531 1099.96875 L 1518.070312 1092.480469 L 1517.53125 1080.558594 L 1506.46875 1081.390625 L 1506.269531 1076.808594 L 1516.890625 1075.980469 L 1516.238281 1061.640625 L 1502.769531 1050.261719 L 1489.269531 1051.261719 L 1479.539062 1062.261719 L 1474.429688 1062.71875 L 1472.621094 1041.988281 L 1463.339844 1042.828125 L 1462.421875 1032.160156 L 1459.351562 1032.519531 C 1454.949219 1033.03125 1446.289062 1033.558594 1441.339844 1033.699219 L 1429.800781 1023.488281 L 1420.511719 1023.808594 L 1420.050781 1013.769531 L 1408.988281 1013.71875 L 1408.601562 1005.109375 L 1396.640625 994.898438 L 1396.101562 983.191406 L 1385.050781 983.140625 L 1384.640625 974.179688 L 1384.929688 973.910156 L 1388.710938 967.621094 L 1378.640625 949.910156 L 1374.230469 937.929688 C 1376.421875 932.128906 1379.148438 922.011719 1380.101562 916.808594 L 1380.261719 915.941406 L 1375.011719 903.378906 L 1373.921875 902.898438 C 1373.609375 902.761719 1372.660156 902.359375 1371.398438 901.820312 C 1369.199219 900.878906 1364.710938 898.96875 1362.378906 897.921875 L 1361.949219 882.359375 L 1364.550781 868.269531 L 1364.5 850.109375 L 1364.230469 849.519531 C 1360.789062 841.960938 1354.789062 826.011719 1352.328125 818.769531 L 1352.03125 817.871094 L 1339.550781 808.800781 L 1338.75 808.71875 C 1334.671875 808.300781 1326.21875 808.109375 1321.429688 808.148438 C 1321.191406 808.039062 1320.941406 807.921875 1320.671875 807.800781 L 1317.640625 806.410156 C 1316.121094 805.71875 1315.089844 805.25 1314.371094 804.921875 L 1310.070312 793.21875 L 1309.128906 775.109375 L 1298.710938 760.238281 L 1282.96875 768.648438 L 1282.601562 769.808594 C 1280.960938 774.921875 1277.921875 783.929688 1275.691406 790.179688 L 1267.148438 783.71875 L 1264.429688 778.269531 L 1254.898438 778.238281 L 1256.308594 794.980469 L 1267.269531 794.570312 L 1268.230469 809.320312 C 1262.609375 809.410156 1256.988281 809.511719 1251.371094 809.601562 L 1250.460938 788.738281 L 1238.96875 789.160156 C 1238.53125 781.03125 1238.03125 770.648438 1237.539062 760.570312 C 1237.070312 750.898438 1236.589844 740.949219 1236.171875 733.171875 L 1244.550781 732.859375 L 1245.609375 727.089844 C 1237.980469 723.890625 1230.359375 720.699219 1222.738281 717.511719 L 1212.558594 708.441406 L 1211.550781 696.210938 L 1208.730469 696.261719 C 1202.238281 696.390625 1195.738281 696.511719 1189.238281 696.648438 L 1189.058594 692.519531 L 1200.621094 692.519531 L 1199.589844 680.058594 L 1210.519531 669.488281 L 1209.898438 655.078125 L 1196.699219 655.078125 L 1179.769531 640.871094 L 1186.441406 640.601562 L 1186.011719 630.421875 L 1196.980469 629.96875 L 1196.289062 613.910156 L 1184.160156 613.921875 C 1182 610.300781 1180.25 607.519531 1178.800781 605.238281 C 1173.011719 596.078125 1172.738281 595.648438 1172.019531 578.761719 C 1174.78125 578.761719 1177.53125 578.75 1180.289062 578.75 L 1188.359375 578.730469 L 1171.421875 564.160156 L 1170.988281 553.539062 L 1159.148438 543.359375 C 1158.828125 538.070312 1158.371094 524.890625 1158.109375 517.53125 L 1157.871094 510.699219 L 1140.5 511.449219 L 1140.75 517.71875 L 1135.210938 512.960938 L 1134.890625 502.871094 L 1135.75 502.121094 L 1140.089844 503.078125 L 1140.589844 506.710938 L 1143.21875 506.699219 C 1146.859375 506.679688 1150.5 506.660156 1154.140625 506.648438 L 1156.980469 506.640625 L 1157.121094 503.800781 C 1157.230469 501.511719 1156.980469 496.921875 1156.800781 494.199219 L 1167.71875 483.550781 L 1165.941406 454.660156 L 1149.820312 471.050781 L 1150.019531 476.070312 L 1144.46875 471.300781 L 1144.230469 465.078125 C 1146.980469 465.070312 1149.71875 465.058594 1152.46875 465.039062 L 1155.609375 465.03125 L 1155.449219 461.890625 C 1154.800781 449.050781 1154.160156 436.210938 1153.511719 423.371094 C 1159.890625 423.210938 1166.261719 423.058594 1172.640625 422.921875 L 1180.421875 422.738281 L 1163.769531 408.351562 L 1163.539062 402.519531 C 1169.910156 402.371094 1176.289062 402.230469 1182.660156 402.089844 L 1185.71875 402.019531 L 1185.050781 385.351562 L 1182.050781 385.46875 C 1179.28125 385.578125 1176.511719 385.699219 1173.75 385.808594 L 1173.5 379.480469 L 1188.339844 364.339844 L 1180.761719 364.660156 C 1178.128906 364.769531 1175.488281 364.890625 1172.859375 365 L 1171.5 340.011719 C 1174.238281 339.898438 1176.988281 339.78125 1179.738281 339.671875 L 1180.921875 339.621094 L 1193.109375 327.171875 L 1191.609375 303.53125 L 1189.789062 302.851562 C 1184.289062 300.808594 1176.371094 297.109375 1170 294.140625 C 1169.550781 293.929688 1169.109375 293.730469 1168.679688 293.53125 C 1169.851562 290.761719 1171.980469 286.089844 1173.28125 283.230469 C 1175.699219 277.910156 1176.101562 277.019531 1176.171875 276.421875 C 1176.25 276.160156 1176.308594 275.890625 1176.371094 275.640625 L 1177.761719 270 L 1178.640625 268.269531 C 1181.648438 262.371094 1183.449219 258.839844 1183.730469 258.191406 L 1184.210938 257.121094 L 1183.828125 256.019531 C 1182.519531 252.109375 1178.378906 234.929688 1176.398438 226.660156 C 1175.929688 224.738281 1175.558594 223.179688 1175.320312 222.191406 L 1175.03125 221.039062 L 1171.578125 218.789062 C 1163.410156 213.46875 1146.429688 202.410156 1140.371094 198.808594 L 1140.359375 198.828125 C 1139.609375 198.460938 1138.648438 198.351562 1137.609375 198.230469 L 1133.46875 197.769531 C 1130.050781 197.378906 1125.480469 196.871094 1120.921875 196.359375 C 1102.308594 194.289062 1102.308594 194.289062 1101.871094 194.351562 L 1099.609375 194.640625 L 1099.289062 196.890625 C 1097.429688 209.78125 1095.558594 222.671875 1093.699219 235.558594 C 1090.578125 236.898438 1087.46875 238.230469 1084.351562 239.570312 C 1078.539062 238.679688 1072.71875 237.789062 1066.910156 236.910156 C 1064.960938 236.269531 1062.390625 235.480469 1059.429688 234.558594 C 1052.140625 232.320312 1043.089844 229.539062 1038.789062 227.519531 C 1035.238281 225.421875 1029.988281 222.558594 1024.898438 219.789062 C 1022.261719 218.351562 1019.738281 216.980469 1017.699219 215.851562 C 1017.371094 214.398438 1016.941406 212.558594 1016.460938 210.449219 C 1013.691406 198.398438 1009.039062 178.21875 1007.25 172.160156 L 1006.328125 169.070312 L 1003.308594 170.210938 C 998.894531 171.878906 969.035156 183.53125 963.339844 185.769531 C 962.097656 185.929688 959.367188 186.351562 952.949219 187.328125 L 943.101562 188.839844 C 942.929688 188.871094 942.734375 188.898438 942.535156 188.941406 C 938.714844 188.789062 930.675781 191.921875 914.691406 198.710938 C 909.492188 200.921875 904.121094 203.210938 902.554688 203.578125 L 900.777344 204 L 900.335938 205.769531 C 891.960938 239.480469 883.566406 273.171875 875.167969 306.839844 C 862.796875 316.359375 849.324219 327.121094 835.078125 338.5 C 817.28125 352.71875 798.875 367.421875 782.816406 379.488281 L 782.257812 379.910156 L 781.941406 380.53125 C 779.71875 384.941406 778.511719 392.800781 777.441406 399.730469 C 776.972656 402.789062 776.527344 405.691406 776.070312 407.71875 C 774.9375 409.699219 769.558594 419.140625 767.578125 422.621094 L 767.109375 422.679688 L 766.566406 424.558594 C 763.226562 436.089844 759.648438 457.199219 758 468.910156 C 751.09375 472.769531 740.785156 477.570312 733.828125 480.820312 L 730.542969 482.351562 L 730.671875 483.019531 C 727.074219 486.378906 716.402344 496.371094 712.972656 499.578125 L 712.332031 499.46875 L 701.820312 518.640625 L 701.90625 519.550781 C 702.214844 522.960938 703.488281 538.210938 704.414062 549.351562 C 704.867188 554.769531 705.253906 559.410156 705.445312 561.640625 C 704.988281 563.339844 703.683594 568.289062 699.714844 583.351562 L 694.359375 603.671875 C 694.230469 604.160156 694.105469 604.628906 694.011719 605.078125 C 688.199219 614.289062 682.386719 623.488281 676.574219 632.691406 C 669.027344 637.441406 651.652344 648.898438 645.070312 653.558594 L 644.078125 654.261719 L 640.394531 673.828125 L 640.449219 674.289062 C 641.019531 679.25 642.179688 689.238281 642.757812 694.199219 L 642.878906 695.230469 L 643.609375 695.96875 C 647.875 700.261719 652.144531 704.550781 656.414062 708.851562 C 659.898438 713.761719 666.417969 723.160156 669.898438 728.261719 C 669.78125 733.011719 669.816406 740.960938 670.03125 745.820312 L 659.421875 756.839844 C 650.421875 759.539062 633.234375 763.769531 624.148438 765.859375 L 622.019531 766.339844 L 621.828125 768.519531 C 621.386719 773.570312 620.210938 783.449219 619.460938 788.921875 L 612.792969 797.589844 C 607.9375 795.710938 603.085938 793.820312 598.234375 791.941406 L 597.894531 791.808594 L 597.535156 791.761719 C 596.398438 791.621094 594.800781 791.320312 593.109375 791.019531 C 590.53125 790.550781 587.867188 790.058594 585.949219 789.921875 L 584.160156 789.78125 L 577.175781 800.71875 L 557.484375 803.539062 L 557.046875 805.578125 C 556.875 806.390625 556.605469 807.609375 556.28125 809.089844 C 554.574219 816.878906 552.746094 825.328125 552.039062 829.488281 L 551.621094 829.710938 L 551.789062 831.679688 C 551.800781 831.828125 552.1875 836.039062 552.570312 840.210938 L 553.09375 845.921875 C 553.171875 846.769531 553.234375 847.46875 553.3125 848.050781 L 551.019531 863.671875 L 540.796875 880.550781 L 540.691406 880.878906 C 539.128906 885.710938 532.914062 904.949219 531.0625 910.910156 L 530.910156 911.398438 L 530.921875 911.75 C 530.367188 914.359375 523.070312 926.230469 520.304688 930.730469 C 519.34375 932.300781 518.554688 933.589844 517.996094 934.519531 L 507.085938 937.289062 L 502.113281 944.25 C 497.382812 950.851562 490.90625 959.898438 488.960938 962.648438 L 488.378906 963.46875 L 488.414062 964.480469 C 488.476562 966.238281 488.898438 968.519531 489.308594 970.71875 C 489.652344 972.550781 490.003906 974.441406 490.082031 975.710938 L 490.179688 977.320312 L 491.574219 978.121094 C 504.941406 985.859375 528.949219 998.109375 543.125 1004.429688 C 545.054688 1005.730469 560.261719 1016.050781 564.328125 1018.820312 C 564.613281 1020.171875 565.027344 1021.980469 565.488281 1024 C 565.855469 1025.609375 566.277344 1027.449219 566.664062 1029.210938 C 565.78125 1029.210938 563.730469 1028.988281 560.558594 1028.53125 L 555.898438 1027.878906 L 556.898438 1035.011719 C 556.15625 1036.160156 555.238281 1037.699219 554.03125 1039.730469 C 551.9375 1043.261719 547.679688 1050.441406 545.792969 1051.890625 C 540.855469 1051.878906 533.042969 1051.578125 526.117188 1051.300781 C 522.261719 1051.148438 518.683594 1051.011719 516.011719 1050.941406 L 513.898438 1050.878906 L 511.539062 1056.960938 L 512.828125 1073.011719 L 512.820312 1074.140625 L 515.285156 1083.480469 L 513.074219 1089.269531 C 510.585938 1089.761719 507.570312 1090.179688 504.851562 1090.558594 C 503.351562 1090.769531 501.921875 1090.96875 500.660156 1091.171875 L 491.972656 1092.539062 L 504.300781 1099.300781 C 504.28125 1103.769531 504.253906 1111.191406 504.238281 1116.070312 L 499.019531 1116.109375 L 498.488281 1131.25 L 490.28125 1136.910156 L 491.074219 1139.089844 C 492.855469 1144 496.1875 1153.570312 497.59375 1158.179688 C 497.671875 1158.828125 497.808594 1159.738281 498.003906 1161.070312 L 500.117188 1175.261719 C 500.265625 1176.261719 500.382812 1177.039062 500.484375 1177.660156 C 499 1181.289062 495.664062 1189.441406 494.25 1192.171875 L 493.351562 1193.898438 L 496.261719 1197.519531 C 499.261719 1201.261719 503.304688 1206.300781 506.09375 1209.558594 C 507.648438 1216.96875 509.210938 1224.398438 510.773438 1231.820312 C 510.804688 1232.539062 510.875 1233.980469 510.964844 1235.789062 C 511.210938 1240.710938 511.789062 1252.210938 511.695312 1253.589844 L 511.410156 1256.839844 L 514.667969 1256.851562 C 525.617188 1256.898438 546.609375 1256.988281 558.453125 1257.039062 C 561.328125 1260.171875 567.992188 1266.058594 575.171875 1272.351562 C 576.6875 1273.679688 577.933594 1274.769531 578.699219 1275.460938 C 582.75 1283.621094 635.5 1390.121094 637.320312 1393.808594 L 638.519531 1396.171875 C 638.769531 1397.691406 639.414062 1401.019531 640.332031 1405.75 C 642.546875 1417.191406 647.6875 1443.761719 647.332031 1447.871094 L 645.648438 1451.578125 L 650.007812 1451.839844 C 660.027344 1452.441406 670.050781 1453.03125 680.074219 1453.621094 L 680.65625 1453.648438 L 687.351562 1451.390625 C 689.847656 1450.570312 691.890625 1449.878906 693.613281 1449.289062 C 702.128906 1446.371094 702.125 1446.371094 713.074219 1448.25 C 713.945312 1448.398438 714.886719 1448.558594 715.898438 1448.730469 C 720.316406 1453.128906 724.734375 1457.53125 729.152344 1461.929688 C 733.957031 1470.628906 744.078125 1485.128906 750.644531 1493.359375 L 748.441406 1495.328125 L 746.941406 1495.800781 L 746.953125 1497.039062 C 740.191406 1502.910156 729.332031 1515.199219 724.660156 1520.800781 C 723.980469 1521.480469 723.800781 1522.460938 723.628906 1523.421875 L 721.703125 1533.960938 C 719.574219 1545.648438 719.574219 1545.648438 719.5625 1545.820312 L 719.542969 1546.050781 L 721.125 1565.441406 L 733.992188 1584.78125 L 735.539062 1585.761719 C 746.8125 1592.921875 759.148438 1600.460938 765.3125 1602.238281 C 770.824219 1604.421875 784.488281 1612.308594 793.140625 1617.488281 L 786.621094 1634.570312 L 784.445312 1647.890625 L 786 1669.128906 C 785.6875 1675.011719 785.375 1680.898438 785.0625 1686.78125 C 779.863281 1686.96875 773.03125 1687.128906 766.394531 1687.289062 C 758.960938 1687.46875 751.9375 1687.640625 746.921875 1687.839844 L 744.902344 1687.921875 L 744.21875 1689.820312 C 742.621094 1694.25 741.371094 1697.339844 740.457031 1699.589844 C 737.417969 1707.078125 737.371094 1707.609375 738.820312 1718.359375 C 739.027344 1719.878906 739.261719 1721.621094 739.523438 1723.648438 L 728.546875 1739.851562 L 720.667969 1757.488281 L 719.894531 1759.058594 L 719.972656 1759.910156 C 720.367188 1764.179688 721.148438 1773.53125 721.5 1779.058594 C 712.324219 1785.011719 700.09375 1793.960938 692.367188 1800.421875 L 691.472656 1801.160156 L 691.316406 1802.320312 C 690.707031 1806.789062 689.183594 1816.171875 688.1875 1820.699219 L 687.628906 1823.230469 L 690.050781 1824.148438 C 696.726562 1826.691406 710.101562 1831.808594 717.5625 1834.75 L 716.660156 1838.570312 L 728.167969 1836.101562 C 728.277344 1843.308594 728.609375 1853.769531 728.988281 1860.160156 C 726.050781 1863.359375 720.992188 1869.140625 718.644531 1872.421875 L 718.050781 1873 C 711.914062 1878.269531 705.78125 1883.53125 699.65625 1888.769531 L 699.441406 1888.960938 L 687.972656 1903.261719 C 681.503906 1908.519531 667.941406 1919.019531 660.175781 1924.921875 L 649.191406 1919.691406 L 647.839844 1922.019531 C 646.636719 1923.621094 637.691406 1931.050781 632.871094 1935.050781 C 628.820312 1938.421875 626.488281 1940.359375 625.671875 1941.171875 L 624.523438 1942.320312 C 622.339844 1943.078125 619.621094 1944.03125 618.628906 1944.378906 L 614.90625 1945.679688 L 617.148438 1948.921875 C 620 1953.039062 626.839844 1963.109375 629.730469 1967.691406 L 630.992188 1969.679688 L 633.230469 1968.921875 C 641.0625 1966.269531 655.398438 1961.21875 663.878906 1958.101562 C 667.464844 1966.199219 673.140625 1979.03125 676.71875 1987.109375 C 671.960938 1989.5 664.746094 1993.289062 663.78125 1993.800781 L 661.996094 1994.738281 L 664.035156 2015.671875 L 664.734375 2016.421875 C 667.667969 2019.539062 671.949219 2024.109375 676.84375 2029.328125 C 689.910156 2043.269531 707.8125 2062.371094 715.476562 2070.429688 L 716.050781 2071.039062 L 716.855469 2071.261719 C 734.191406 2076.039062 751.777344 2080.859375 769.121094 2085.578125 L 770.03125 2085.828125 L 770.917969 2085.511719 C 775.113281 2084.019531 779.878906 2082.261719 784.921875 2080.398438 C 790.847656 2078.21875 796.964844 2075.96875 802.144531 2074.140625 C 810.539062 2077.03125 818.929688 2079.898438 827.3125 2082.761719 L 827.988281 2082.988281 L 828.695312 2082.898438 C 834.398438 2082.109375 840.101562 2081.308594 845.804688 2080.511719 C 848.203125 2080.460938 855.882812 2081.328125 859.605469 2081.75 C 859.972656 2081.789062 860.316406 2081.828125 860.628906 2081.859375 L 861.832031 2083.121094 C 877.789062 2099.808594 878.09375 2100.128906 893.324219 2105.210938 C 896.070312 2106.121094 899.40625 2107.238281 903.464844 2108.671875 C 904.757812 2118.03125 906.007812 2128.558594 907.21875 2138.761719 C 908.609375 2150.511719 910.050781 2162.660156 911.578125 2173.199219 L 911.714844 2174.171875 L 912.394531 2174.859375 C 915.703125 2178.261719 920.4375 2182.691406 925.011719 2186.96875 C 927.199219 2189.019531 929.300781 2190.988281 931.128906 2192.738281 L 920.5625 2207.261719 L 921.535156 2208.941406 C 922.277344 2210.230469 924.507812 2213.921875 925.84375 2216.128906 L 927.480469 2218.839844 L 931.644531 2218.128906 L 931.640625 2218.121094 C 932.539062 2217.921875 934.699219 2217.140625 942.578125 2214.300781 C 949.140625 2211.929688 959.835938 2208.070312 962.398438 2207.308594 C 968.683594 2208.539062 976.3125 2209.628906 983.699219 2210.691406 C 990.441406 2211.648438 997.394531 2212.648438 1003.210938 2213.738281 C 1003.921875 2215.929688 1004.808594 2218.980469 1005.261719 2220.761719 L 1005.691406 2222.441406 L 1007.359375 2222.910156 C 1011.660156 2224.109375 1020.308594 2226.519531 1024.578125 2227.710938 C 1026.738281 2228.339844 1031.28125 2229.75 1033.5 2230.511719 L 1035.898438 2231.328125 L 1037.109375 2229.109375 C 1039.808594 2224.148438 1043.878906 2216.039062 1048.179688 2207.449219 C 1052.929688 2197.988281 1057.820312 2188.230469 1061.148438 2182.191406 C 1069.191406 2182.710938 1077.230469 2183.230469 1085.269531 2183.730469 L 1110.558594 2209.410156 L 1111.261719 2209.628906 C 1113.621094 2210.390625 1116.308594 2211.21875 1119.128906 2212.078125 C 1125.019531 2213.890625 1131.691406 2215.929688 1136.539062 2217.78125 L 1139.851562 2219.050781 L 1140.550781 2215.570312 C 1140.699219 2214.820312 1140.730469 2212.828125 1139.441406 2182.640625 C 1139.351562 2180.519531 1139.269531 2178.789062 1139.230469 2177.660156 L 1151.109375 2165.910156 C 1159.511719 2163.230469 1167.910156 2160.539062 1176.308594 2157.828125 L 1177.851562 2157.328125 L 1178.28125 2155.769531 C 1182.25 2141.320312 1186.230469 2126.859375 1190.21875 2112.410156 L 1191.230469 2112.78125 C 1198.230469 2115.351562 1208.800781 2119.238281 1213.660156 2121.058594 L 1215.109375 2121.601562 L 1216.390625 2120.730469 C 1222.660156 2116.480469 1232.808594 2109.761719 1239.269531 2105.660156 L 1240.519531 2104.871094 L 1240.648438 2103.398438 C 1240.859375 2101.050781 1240.28125 2090.800781 1239.671875 2080.5 C 1239.609375 2079.53125 1239.558594 2078.660156 1239.511719 2077.921875 C 1249.320312 2072.949219 1259.128906 2067.960938 1268.949219 2062.960938 L 1276.449219 2066.929688 L 1277.179688 2066.941406 C 1298.871094 2067.058594 1320.910156 2067.109375 1342.691406 2067.078125 L 1345.519531 2067.078125 L 1345.988281 2058.671875 C 1355.710938 2060.070312 1365.421875 2061.449219 1375.128906 2062.820312 L 1375.300781 2065.199219 L 1377.460938 2063.148438 L 1377.640625 2063.171875 L 1379.949219 2060.789062 L 1389.679688 2051.570312 C 1408.339844 2058.808594 1427.128906 2066.03125 1445.539062 2073.058594 C 1448.089844 2081.230469 1450.800781 2090.859375 1452.550781 2097.371094 L 1452.710938 2097.96875 L 1453.101562 2098.460938 C 1453.179688 2098.570312 1457.53125 2104.039062 1461.628906 2109.210938 L 1468.230469 2117.519531 C 1468.769531 2118.191406 1470.289062 2120.109375 1472.261719 2119.238281 C 1476.101562 2118.351562 1479.941406 2117.449219 1483.78125 2116.550781 C 1482.03125 2121.28125 1479.789062 2127.328125 1478.960938 2129.601562 L 1477.769531 2132.859375 L 1481.179688 2133.558594 C 1485.449219 2134.441406 1507.191406 2140.359375 1517.640625 2143.210938 C 1519.738281 2143.78125 1521.488281 2144.261719 1522.699219 2144.589844 C 1522.929688 2144.851562 1523.21875 2145.179688 1523.550781 2145.550781 C 1526.480469 2148.878906 1528.050781 2150.648438 1528.949219 2151.621094 L 1528.941406 2152.011719 L 1529.738281 2152.890625 C 1530.148438 2153.328125 1531.230469 2154.558594 1532.660156 2156.191406 C 1542.179688 2166.960938 1545.558594 2170.671875 1546.589844 2171.480469 L 1548.148438 2172.679688 L 1550.421875 2171.441406 C 1555.109375 2170.21875 1559.808594 2168.988281 1564.5 2167.761719 L 1571.03125 2173.800781 L 1578.488281 2170.808594 L 1584.429688 2175.878906 L 1595.429688 2174.808594 L 1596.929688 2173.25 L 1609.011719 2163.988281 L 1608.859375 2162.339844 C 1608.21875 2155.289062 1606.289062 2133.921875 1607.070312 2125.910156 C 1609.140625 2115.421875 1611.929688 2094.421875 1612.730469 2083.390625 L 1612.710938 2083.390625 C 1612.699219 2082.710938 1612.511719 2081.480469 1612.039062 2078.488281 L 1609.140625 2059.949219 C 1609.019531 2059.171875 1608.921875 2058.5 1608.820312 2057.921875 L 1622.410156 2051.199219 L 1622.050781 2049 C 1619.339844 2032.78125 1616.621094 2016.539062 1613.878906 2000.289062 L 1613.300781 1996.859375 L 1601.269531 2000.78125 L 1600.210938 1990.820312 C 1600.441406 1989.109375 1601.460938 1984.191406 1602.03125 1981.46875 C 1602.179688 1980.71875 1602.320312 1980.058594 1602.421875 1979.550781 C 1609.851562 1967.410156 1616 1959.140625 1620.699219 1954.96875 C 1622.171875 1954.179688 1622.210938 1952.148438 1622.230469 1950.828125 L 1622.289062 1947.429688 C 1622.300781 1946.640625 1622.320312 1945.839844 1622.328125 1945.121094 C 1625.359375 1945 1629.210938 1944.859375 1631.269531 1944.78125 L 1634.21875 1944.660156 L 1633.910156 1932.351562 L 1636.109375 1927.601562 L 1637.371094 1911.511719 L 1630.53125 1901.71875 L 1622.019531 1895.101562 C 1621.140625 1893.621094 1618.960938 1890.171875 1615.660156 1885 C 1615.078125 1884.089844 1614.609375 1883.339844 1614.328125 1882.898438 L 1609.96875 1871.28125 L 1614.089844 1865.539062 L 1614.730469 1874.511719 L 1617.679688 1874.339844 C 1622.75 1874.050781 1633.050781 1873.039062 1638.480469 1872.300781 L 1641.171875 1871.941406 L 1641.078125 1869.230469 C 1640.890625 1863.679688 1640.691406 1858.121094 1640.5 1852.570312 L 1642.441406 1843.949219 L 1640.199219 1832.941406 L 1634.230469 1819.988281 L 1637.730469 1810.480469 C 1643.851562 1809.761719 1649.96875 1809.03125 1656.089844 1808.300781 L 1657.238281 1808.171875 L 1668.109375 1795.699219 L 1673.128906 1784.128906 L 1677.148438 1779.191406 L 1677.320312 1778.820312 C 1677.390625 1778.660156 1677.679688 1778.050781 1678.078125 1777.199219 C 1680.511719 1771.988281 1681.691406 1769.480469 1682.210938 1768.089844 C 1683.121094 1767.101562 1685.238281 1764.789062 1686.378906 1763.539062 L 1696.550781 1762.328125 L 1707.910156 1748.871094 L 1707.589844 1742.039062 L 1710.519531 1739.078125 L 1710.730469 1738.710938 C 1710.851562 1738.480469 1711.25 1737.699219 1711.78125 1736.648438 C 1712.769531 1734.679688 1715.300781 1729.679688 1716.128906 1728.320312 L 1716.949219 1727.710938 L 1716.988281 1725.25 L 1716.980469 1725.160156 C 1716.660156 1718.910156 1716.328125 1712.648438 1716 1706.398438 C 1725.371094 1688.488281 1734.730469 1670.589844 1744.101562 1652.71875 L 1744.46875 1652.011719 L 1744.441406 1651.199219 C 1744.410156 1650.648438 1744.320312 1649.160156 1744.191406 1647.210938 C 1743.910156 1642.890625 1743.238281 1632.75 1743.359375 1631.390625 L 1743.980469 1627.5 L 1740.070312 1627.929688 C 1734.210938 1628.578125 1728.359375 1629.230469 1722.5 1629.878906 C 1722.21875 1624.671875 1721.941406 1619.449219 1721.660156 1614.230469 L 1730.421875 1603.921875 C 1730.898438 1603.621094 1731.800781 1603.058594 1732.960938 1602.339844 C 1735.75 1600.609375 1740.03125 1597.96875 1743.601562 1595.71875 C 1745.398438 1594.578125 1747.019531 1593.550781 1748.191406 1592.78125 C 1749.191406 1592.128906 1749.960938 1591.621094 1750.5 1591.089844 L 1750.511719 1591.089844 C 1751.589844 1590.039062 1756.921875 1585.621094 1760.808594 1582.390625 C 1763.570312 1580.089844 1765.96875 1578.101562 1766.871094 1577.308594 L 1767.089844 1577.121094 L 1767.261719 1576.890625 C 1773.621094 1568.71875 1779.671875 1557.558594 1785.289062 1546.558594 L 1791.050781 1545.859375 L 1790.738281 1542.929688 C 1790.578125 1541.320312 1790.351562 1538.441406 1790.179688 1536 C 1795.789062 1535.429688 1803.910156 1534.390625 1808.308594 1533.578125 L 1809.328125 1533.378906 L 1815.449219 1526.398438 L 1825.839844 1521.089844 L 1826.058594 1520.921875 C 1830.660156 1517.351562 1835.261719 1513.78125 1839.871094 1510.21875 L 1840.28125 1509.898438 L 1840.550781 1509.460938 C 1845 1502.519531 1849.449219 1495.578125 1853.890625 1488.648438 C 1854.238281 1488.269531 1854.75 1487.710938 1855.351562 1487.058594 C 1858.070312 1484.089844 1863.738281 1477.921875 1865.109375 1476.710938 L 1866.789062 1475.21875 L 1865.828125 1473.191406 C 1864.230469 1469.769531 1861.359375 1463.789062 1859.761719 1461.179688 C 1859.621094 1460.648438 1859.421875 1460.019531 1859.179688 1459.261719 L 1857.558594 1454.101562 C 1856.609375 1451.070312 1856.011719 1449.160156 1855.609375 1447.929688 C 1856.738281 1446.171875 1858.488281 1443.660156 1859.828125 1441.769531 L 1868.390625 1444.179688 L 1877.460938 1454.738281 L 1878.871094 1454.710938 L 1894.570312 1452.761719 L 1889.101562 1448.351562 C 1887.238281 1446.839844 1883.660156 1443.941406 1879.488281 1440.558594 C 1873.179688 1435.441406 1865.769531 1429.421875 1860.671875 1425.308594 C 1866.789062 1425.238281 1873.898438 1425.109375 1877.371094 1424.539062 L 1883.800781 1423.488281 L 1872.328125 1413.828125 L 1866.710938 1400.738281 C 1866.398438 1398.300781 1866.109375 1396.269531 1865.871094 1394.53125 C 1864.519531 1384.859375 1864.480469 1384.621094 1868.351562 1371.871094 C 1873.46875 1368.238281 1882.589844 1361.46875 1887.179688 1357.890625 L 1887.679688 1357.5 L 1887.980469 1356.941406 C 1888.03125 1356.828125 1894.628906 1344.46875 1894.691406 1344.371094 L 1895.121094 1343.570312 L 1893.78125 1329.820312 C 1893.738281 1329.179688 1893.621094 1328.769531 1889.660156 1319.121094 C 1889.25 1318.140625 1888.949219 1317.378906 1888.820312 1317.078125 C 1888.679688 1315.601562 1888.328125 1312.960938 1887.671875 1307.960938 L 1886.78125 1301.308594 C 1886.671875 1300.460938 1886.578125 1299.769531 1886.488281 1299.210938 L 1894.460938 1283.28125 L 1892.101562 1281.839844 C 1887.96875 1279.328125 1880.199219 1274.039062 1875.160156 1270.421875 L 1880.738281 1261.789062 L 1892.601562 1255.761719 "/>
</svg>
