<?xml version="1.0" encoding="UTF-8"?>
<svg xmlns="http://www.w3.org/2000/svg" xmlns:xlink="http://www.w3.org/1999/xlink" width="2000" height="2000" viewBox="0 0 2000 2000">
<defs>
<clipPath id="clip-0">
<path clip-rule="nonzero" d="M 151 521 L 1849 521 L 1849 1479 L 151 1479 Z M 151 521 "/>
</clipPath>
<clipPath id="clip-1">
<path clip-rule="nonzero" d="M 1846.949219 1168.300781 C 1851.421875 1155.71875 1843.691406 1147.148438 1833.789062 1139.570312 C 1830.101562 1131.449219 1830.171875 1130.421875 1822.480469 1119.890625 C 1822.058594 1112.839844 1822.351562 1105.921875 1818 1099.648438 C 1814.300781 1094.308594 1808.28125 1091.050781 1804.289062 1085.929688 C 1798.320312 1078.28125 1796.140625 1068.898438 1793.601562 1060.011719 C 1791.179688 1051.511719 1783.828125 1046.359375 1780.210938 1038.691406 C 1776.640625 1031.121094 1776.71875 1021.050781 1773.570312 1012.660156 C 1768.429688 998.988281 1762.179688 986.390625 1748.941406 980.539062 C 1741.988281 966.398438 1752.910156 961.910156 1728.230469 966.320312 C 1725.898438 966.730469 1723.679688 967.121094 1721.53125 967.480469 C 1718.039062 963.75 1713.738281 961.890625 1706.671875 961.488281 C 1701.019531 961.179688 1698.460938 958.710938 1695.078125 954.140625 C 1692.570312 950.730469 1689.230469 948.171875 1685.460938 946.378906 C 1691.050781 939.328125 1697.070312 931.859375 1699.421875 925.988281 C 1705.179688 911.578125 1706.140625 903.898438 1697.5 885.660156 C 1688.859375 867.410156 1680.21875 877.128906 1691.738281 854.988281 C 1703.261719 832.839844 1709.03125 825.160156 1710.949219 805 C 1712.871094 784.828125 1721.511719 778.109375 1709.03125 769.46875 C 1696.539062 760.828125 1715.75 772.351562 1672.539062 754.101562 C 1629.328125 735.859375 1629.328125 740.660156 1607.238281 727.21875 C 1585.148438 713.769531 1589 720.5 1578.429688 704.171875 C 1567.871094 687.851562 1562.109375 678.25 1543.859375 677.28125 C 1525.621094 676.320312 1516.980469 675.359375 1498.730469 677.28125 C 1480.488281 679.210938 1448.800781 682.089844 1435.359375 692.648438 C 1421.910156 703.210938 1425.75 728.179688 1402.710938 717.621094 C 1379.660156 707.050781 1397.910156 719.539062 1359.5 697.449219 C 1321.089844 675.359375 1332.609375 691.691406 1313.410156 668.640625 C 1294.199219 645.601562 1301.878906 668.640625 1286.519531 635.988281 C 1271.160156 603.351562 1291.320312 604.308594 1263.46875 592.78125 C 1235.628906 581.261719 1258.671875 586.058594 1223.140625 580.300781 C 1187.609375 574.539062 1166.488281 566.859375 1138.640625 552.449219 C 1110.789062 538.050781 1090.628906 517.878906 1067.578125 522.691406 C 1044.539062 527.488281 1048.378906 521.730469 1036.859375 531.328125 C 1025.328125 540.929688 1030.128906 543.808594 1007.089844 557.261719 C 984.042969 570.699219 969.640625 574.539062 949.472656 583.179688 C 929.308594 591.820312 936.03125 586.058594 921.628906 597.578125 C 907.222656 609.109375 905.304688 607.191406 897.621094 622.550781 C 889.9375 637.921875 889.9375 711.851562 898.582031 739.699219 C 907.222656 767.550781 911.0625 756.980469 915.867188 796.359375 C 920.667969 835.71875 924.507812 832.839844 924.507812 851.089844 C 924.507812 869.328125 929.308594 864.53125 917.785156 885.660156 C 906.265625 906.78125 916.824219 894.300781 896.660156 918.308594 C 876.496094 942.308594 886.097656 941.351562 865.933594 952.871094 C 845.769531 964.398438 844.808594 963.121094 812.160156 975.761719 C 779.511719 988.398438 766.847656 1012.261719 745.902344 1001.851562 C 725.519531 991.710938 730.539062 983.289062 708.453125 975.761719 C 686.367188 968.238281 685.40625 974.960938 671.964844 954.789062 C 658.519531 934.628906 657.5625 938.46875 655.640625 927.910156 C 653.71875 917.351562 654.679688 918.308594 651.800781 901.980469 C 648.917969 885.660156 648.917969 878.941406 643.15625 870.289062 C 637.394531 861.648438 634.515625 853.011719 612.429688 846.289062 C 590.34375 839.570312 588.425781 820.359375 574.019531 806.921875 C 559.617188 793.46875 563.457031 799.238281 545.210938 786.75 C 526.96875 774.269531 526.96875 784.828125 517.363281 764.671875 C 507.761719 744.5 502.960938 745.460938 502.003906 732.019531 C 501.042969 718.578125 514.484375 697.449219 502.003906 694.570312 C 489.519531 691.691406 489.519531 692.648438 478.957031 701.289062 C 468.394531 709.929688 470.3125 712.808594 457.832031 720.5 C 445.347656 728.179688 436.703125 732.019531 421.339844 735.859375 C 405.976562 739.699219 400.214844 734.898438 383.890625 743.539062 C 367.566406 752.179688 371.410156 751.21875 355.085938 758.910156 C 338.761719 766.589844 332.039062 763.710938 319.554688 775.230469 C 307.074219 786.75 306.113281 778.109375 299.390625 795.390625 C 292.667969 812.679688 296.511719 813.640625 286.90625 825.160156 C 277.304688 836.691406 285.945312 827.539062 271.542969 847.480469 C 257.140625 867.410156 256.179688 871.25 248.496094 886.621094 C 240.816406 901.980469 236.015625 901.019531 235.054688 918.308594 C 234.09375 935.589844 242.738281 973.039062 239.855469 988.398438 C 236.976562 1003.769531 237.9375 1004.730469 229.292969 1023.929688 C 220.652344 1043.140625 227.371094 1044.101562 212.007812 1058.5 C 196.644531 1072.898438 198.566406 1060.421875 187.042969 1084.429688 C 175.519531 1108.429688 177.441406 1094.03125 169.757812 1117.078125 C 162.074219 1140.121094 170.71875 1171.808594 169.757812 1197.738281 C 168.796875 1223.660156 183.203125 1227.5 174.558594 1248.628906 C 165.917969 1269.75 160.15625 1273.601562 155.355469 1287.039062 C 150.554688 1300.480469 150.554688 1296.640625 155.355469 1314.890625 C 160.15625 1333.128906 161.117188 1337.929688 162.074219 1353.289062 C 163.035156 1368.660156 159.195312 1377.300781 167.835938 1392.671875 C 176.480469 1408.03125 176.480469 1426.269531 189.921875 1422.429688 C 203.367188 1418.589844 206.246094 1418.589844 214.890625 1408.03125 C 223.53125 1397.46875 228.332031 1391.699219 234.09375 1383.058594 C 239.855469 1374.421875 262.902344 1332.171875 283.066406 1324.488281 C 303.230469 1316.808594 317.636719 1322.570312 327.238281 1313.921875 C 336.839844 1305.28125 331.078125 1311.039062 346.441406 1297.601562 C 361.808594 1284.160156 342.601562 1288 372.367188 1279.359375 C 402.136719 1270.710938 390.613281 1277.441406 414.621094 1268.789062 C 438.625 1260.148438 444.386719 1257.269531 460.710938 1257.269531 C 477.035156 1257.269531 490.480469 1263.988281 510.644531 1265.910156 C 530.808594 1267.828125 522.167969 1272.628906 548.09375 1269.75 C 574.019531 1266.871094 570.179688 1270.710938 582.660156 1265.910156 C 595.144531 1261.109375 601.867188 1267.828125 621.070312 1273.589844 C 640.277344 1279.359375 643.15625 1285.121094 657.5625 1277.441406 C 671.964844 1269.75 665.003906 1272.488281 680.605469 1266.871094 C 726.691406 1250.28125 735.339844 1269.75 740.140625 1271.671875 C 744.941406 1273.589844 748.785156 1278.398438 767.988281 1274.550781 C 787.191406 1270.710938 796.796875 1267.828125 811.199219 1266.871094 C 825.601562 1265.910156 816 1263.988281 833.285156 1270.710938 C 850.570312 1277.441406 858.25 1281.28125 867.855469 1281.28125 C 877.457031 1281.28125 873.613281 1277.441406 886.097656 1283.199219 C 898.582031 1288.960938 899.542969 1295.679688 914.90625 1290.878906 C 930.269531 1286.078125 936.992188 1281.28125 948.515625 1282.238281 C 960.035156 1283.199219 977.894531 1294.71875 990.089844 1279.359375 C 1002.289062 1263.988281 1005.171875 1267.828125 1011.890625 1252.46875 C 1018.609375 1237.109375 1010.929688 1232.300781 1026.289062 1224.621094 C 1041.660156 1216.941406 1051.261719 1214.058594 1060.859375 1216.941406 C 1070.460938 1219.820312 1067.578125 1204.460938 1080.070312 1231.339844 C 1092.550781 1258.230469 1091.589844 1258.230469 1099.269531 1270.710938 C 1106.949219 1283.199219 1109.828125 1284.160156 1114.640625 1289.921875 C 1119.441406 1295.679688 1121.359375 1300.480469 1132.878906 1306.238281 C 1144.398438 1312 1130.960938 1316.808594 1153.039062 1314.878906 C 1175.128906 1312.960938 1169.371094 1313.921875 1186.648438 1312.960938 C 1203.941406 1312 1200.101562 1307.199219 1220.261719 1312 C 1240.429688 1316.808594 1225.058594 1305.28125 1251.949219 1324.488281 C 1278.839844 1343.691406 1277.878906 1342.730469 1284.601562 1347.53125 C 1291.320312 1352.328125 1386.378906 1395.550781 1390.21875 1409.949219 C 1394.070312 1424.351562 1393.109375 1423.390625 1407.511719 1442.601562 C 1421.910156 1461.800781 1407.511719 1465.640625 1436.320312 1470.441406 C 1465.121094 1475.25 1458.398438 1480.050781 1480.488281 1477.171875 C 1502.570312 1474.289062 1480.488281 1478.128906 1502.570312 1474.289062 C 1524.660156 1470.441406 1517.941406 1475.25 1532.339844 1467.558594 C 1546.738281 1459.878906 1545.78125 1472.371094 1557.308594 1448.359375 C 1568.828125 1424.351562 1563.070312 1424.351562 1572.671875 1415.710938 C 1582.269531 1407.070312 1595.71875 1400.351562 1611.078125 1402.269531 C 1626.441406 1404.191406 1633.171875 1408.988281 1657.171875 1410.910156 C 1681.179688 1412.828125 1687.191406 1414.621094 1707.101562 1410.910156 C 1723.398438 1407.871094 1728.230469 1422.429688 1732.070312 1394.578125 C 1735.910156 1366.738281 1733.988281 1383.058594 1737.828125 1356.179688 C 1741.671875 1329.289062 1720.550781 1327.371094 1752.238281 1312 C 1783.921875 1296.640625 1782 1279.359375 1803.128906 1263.988281 C 1824.25 1248.628906 1835.78125 1260.148438 1839.621094 1231.339844 C 1843.460938 1202.539062 1838.660156 1218.859375 1839.621094 1192.929688 C 1840.339844 1173.550781 1848.648438 1176.710938 1846.949219 1168.300781 Z M 1846.949219 1168.300781 "/>
</clipPath>
<clipPath id="clip-2">
<path clip-rule="nonzero" d="M 1846.949219 1168.300781 C 1851.421875 1155.71875 1843.691406 1147.148438 1833.789062 1139.570312 C 1830.101562 1131.449219 1830.171875 1130.421875 1822.480469 1119.890625 C 1822.058594 1112.839844 1822.351562 1105.921875 1818 1099.648438 C 1814.300781 1094.308594 1808.28125 1091.050781 1804.289062 1085.929688 C 1798.320312 1078.28125 1796.140625 1068.898438 1793.601562 1060.011719 C 1791.179688 1051.511719 1783.828125 1046.359375 1780.210938 1038.691406 C 1776.640625 1031.121094 1776.71875 1021.050781 1773.570312 1012.660156 C 1768.429688 998.988281 1762.179688 986.390625 1748.941406 980.539062 C 1741.988281 966.398438 1752.910156 961.910156 1728.230469 966.320312 C 1725.898438 966.730469 1723.679688 967.121094 1721.53125 967.480469 C 1718.039062 963.75 1713.738281 961.890625 1706.671875 961.488281 C 1701.019531 961.179688 1698.460938 958.710938 1695.078125 954.140625 C 1692.570312 950.730469 1689.230469 948.171875 1685.460938 946.378906 C 1691.050781 939.328125 1697.070312 931.859375 1699.421875 925.988281 C 1705.179688 911.578125 1706.140625 903.898438 1697.5 885.660156 C 1688.859375 867.410156 1680.21875 877.128906 1691.738281 854.988281 C 1703.261719 832.839844 1709.03125 825.160156 1710.949219 805 C 1712.871094 784.828125 1721.511719 778.109375 1709.03125 769.46875 C 1696.539062 760.828125 1715.75 772.351562 1672.539062 754.101562 C 1629.328125 735.859375 1629.328125 740.660156 1607.238281 727.21875 C 1585.148438 713.769531 1589 720.5 1578.429688 704.171875 C 1567.871094 687.851562 1562.109375 678.25 1543.859375 677.28125 C 1525.621094 676.320312 1516.980469 675.359375 1498.730469 677.28125 C 1480.488281 679.210938 1448.800781 682.089844 1435.359375 692.648438 C 1421.910156 703.210938 1425.75 728.179688 1402.710938 717.621094 C 1379.660156 707.050781 1397.910156 719.539062 1359.5 697.449219 C 1321.089844 675.359375 1332.609375 691.691406 1313.410156 668.640625 C 1294.199219 645.601562 1301.878906 668.640625 1286.519531 635.988281 C 1271.160156 603.351562 1291.320312 604.308594 1263.46875 592.78125 C 1235.628906 581.261719 1258.671875 586.058594 1223.140625 580.300781 C 1187.609375 574.539062 1166.488281 566.859375 1138.640625 552.449219 C 1110.789062 538.050781 1090.628906 517.878906 1067.578125 522.691406 C 1044.539062 527.488281 1048.378906 521.730469 1036.859375 531.328125 C 1025.328125 540.929688 1030.128906 543.808594 1007.089844 557.261719 C 984.042969 570.699219 969.640625 574.539062 949.472656 583.179688 C 929.308594 591.820312 936.03125 586.058594 921.628906 597.578125 C 907.222656 609.109375 905.304688 607.191406 897.621094 622.550781 C 889.9375 637.921875 889.9375 711.851562 898.582031 739.699219 C 907.222656 767.550781 911.0625 756.980469 915.867188 796.359375 C 920.667969 835.71875 924.507812 832.839844 924.507812 851.089844 C 924.507812 869.328125 929.308594 864.53125 917.785156 885.660156 C 906.265625 906.78125 916.824219 894.300781 896.660156 918.308594 C 876.496094 942.308594 886.097656 941.351562 865.933594 952.871094 C 845.769531 964.398438 844.808594 963.121094 812.160156 975.761719 C 779.511719 988.398438 766.847656 1012.261719 745.902344 1001.851562 C 725.519531 991.710938 730.539062 983.289062 708.453125 975.761719 C 686.367188 968.238281 685.40625 974.960938 671.964844 954.789062 C 658.519531 934.628906 657.5625 938.46875 655.640625 927.910156 C 653.71875 917.351562 654.679688 918.308594 651.800781 901.980469 C 648.917969 885.660156 648.917969 878.941406 643.15625 870.289062 C 637.394531 861.648438 634.515625 853.011719 612.429688 846.289062 C 590.34375 839.570312 588.425781 820.359375 574.019531 806.921875 C 559.617188 793.46875 563.457031 799.238281 545.210938 786.75 C 526.96875 774.269531 526.96875 784.828125 517.363281 764.671875 C 507.761719 744.5 502.960938 745.460938 502.003906 732.019531 C 501.042969 718.578125 514.484375 697.449219 502.003906 694.570312 C 489.519531 691.691406 489.519531 692.648438 478.957031 701.289062 C 468.394531 709.929688 470.3125 712.808594 457.832031 720.5 C 445.347656 728.179688 436.703125 732.019531 421.339844 735.859375 C 405.976562 739.699219 400.214844 734.898438 383.890625 743.539062 C 367.566406 752.179688 371.410156 751.21875 355.085938 758.910156 C 338.761719 766.589844 332.039062 763.710938 319.554688 775.230469 C 307.074219 786.75 306.113281 778.109375 299.390625 795.390625 C 292.667969 812.679688 296.511719 813.640625 286.90625 825.160156 C 277.304688 836.691406 285.945312 827.539062 271.542969 847.480469 C 257.140625 867.410156 256.179688 871.25 248.496094 886.621094 C 240.816406 901.980469 236.015625 901.019531 235.054688 918.308594 C 234.09375 935.589844 242.738281 973.039062 239.855469 988.398438 C 236.976562 1003.769531 237.9375 1004.730469 229.292969 1023.929688 C 220.652344 1043.140625 227.371094 1044.101562 212.007812 1058.5 C 196.644531 1072.898438 198.566406 1060.421875 187.042969 1084.429688 C 175.519531 1108.429688 177.441406 1094.03125 169.757812 1117.078125 C 162.074219 1140.121094 170.71875 1171.808594 169.757812 1197.738281 C 168.796875 1223.660156 183.203125 1227.5 174.558594 1248.628906 C 165.917969 1269.75 160.15625 1273.601562 155.355469 1287.039062 C 150.554688 1300.480469 150.554688 1296.640625 155.355469 1314.890625 C 160.15625 1333.128906 161.117188 1337.929688 162.074219 1353.289062 C 163.035156 1368.660156 159.195312 1377.300781 167.835938 1392.671875 C 176.480469 1408.03125 176.480469 1426.269531 189.921875 1422.429688 C 203.367188 1418.589844 206.246094 1418.589844 214.890625 1408.03125 C 223.53125 1397.46875 228.332031 1391.699219 234.09375 1383.058594 C 239.855469 1374.421875 262.902344 1332.171875 283.066406 1324.488281 C 303.230469 1316.808594 317.636719 1322.570312 327.238281 1313.921875 C 336.839844 1305.28125 331.078125 1311.039062 346.441406 1297.601562 C 361.808594 1284.160156 342.601562 1288 372.367188 1279.359375 C 402.136719 1270.710938 390.613281 1277.441406 414.621094 1268.789062 C 438.625 1260.148438 444.386719 1257.269531 460.710938 1257.269531 C 477.035156 1257.269531 490.480469 1263.988281 510.644531 1265.910156 C 530.808594 1267.828125 522.167969 1272.628906 548.09375 1269.75 C 574.019531 1266.871094 570.179688 1270.710938 582.660156 1265.910156 C 595.144531 1261.109375 601.867188 1267.828125 621.070312 1273.589844 C 640.277344 1279.359375 643.15625 1285.121094 657.5625 1277.441406 C 671.964844 1269.75 665.003906 1272.488281 680.605469 1266.871094 C 726.691406 1250.28125 735.339844 1269.75 740.140625 1271.671875 C 744.941406 1273.589844 748.785156 1278.398438 767.988281 1274.550781 C 787.191406 1270.710938 796.796875 1267.828125 811.199219 1266.871094 C 825.601562 1265.910156 816 1263.988281 833.285156 1270.710938 C 850.570312 1277.441406 858.25 1281.28125 867.855469 1281.28125 C 877.457031 1281.28125 873.613281 1277.441406 886.097656 1283.199219 C 898.582031 1288.960938 899.542969 1295.679688 914.90625 1290.878906 C 930.269531 1286.078125 936.992188 1281.28125 948.515625 1282.238281 C 960.035156 1283.199219 977.894531 1294.71875 990.089844 1279.359375 C 1002.289062 1263.988281 1005.171875 1267.828125 1011.890625 1252.46875 C 1018.609375 1237.109375 1010.929688 1232.300781 1026.289062 1224.621094 C 1041.660156 1216.941406 1051.261719 1214.058594 1060.859375 1216.941406 C 1070.460938 1219.820312 1067.578125 1204.460938 1080.070312 1231.339844 C 1092.550781 1258.230469 1091.589844 1258.230469 1099.269531 1270.710938 C 1106.949219 1283.199219 1109.828125 1284.160156 1114.640625 1289.921875 C 1119.441406 1295.679688 1121.359375 1300.480469 1132.878906 1306.238281 C 1144.398438 1312 1130.960938 1316.808594 1153.039062 1314.878906 C 1175.128906 1312.960938 1169.371094 1313.921875 1186.648438 1312.960938 C 1203.941406 1312 1200.101562 1307.199219 1220.261719 1312 C 1240.429688 1316.808594 1225.058594 1305.28125 1251.949219 1324.488281 C 1278.839844 1343.691406 1277.878906 1342.730469 1284.601562 1347.53125 C 1291.320312 1352.328125 1386.378906 1395.550781 1390.21875 1409.949219 C 1394.070312 1424.351562 1393.109375 1423.390625 1407.511719 1442.601562 C 1421.910156 1461.800781 1407.511719 1465.640625 1436.320312 1470.441406 C 1465.121094 1475.25 1458.398438 1480.050781 1480.488281 1477.171875 C 1502.570312 1474.289062 1480.488281 1478.128906 1502.570312 1474.289062 C 1524.660156 1470.441406 1517.941406 1475.25 1532.339844 1467.558594 C 1546.738281 1459.878906 1545.78125 1472.371094 1557.308594 1448.359375 C 1568.828125 1424.351562 1563.070312 1424.351562 1572.671875 1415.710938 C 1582.269531 1407.070312 1595.71875 1400.351562 1611.078125 1402.269531 C 1626.441406 1404.191406 1633.171875 1408.988281 1657.171875 1410.910156 C 1681.179688 1412.828125 1687.191406 1414.621094 1707.101562 1410.910156 C 1723.398438 1407.871094 1728.230469 1422.429688 1732.070312 1394.578125 C 1735.910156 1366.738281 1733.988281 1383.058594 1737.828125 1356.179688 C 1741.671875 1329.289062 1720.550781 1327.371094 1752.238281 1312 C 1783.921875 1296.640625 1782 1279.359375 1803.128906 1263.988281 C 1824.25 1248.628906 1835.78125 1260.148438 1839.621094 1231.339844 C 1843.460938 1202.539062 1838.660156 1218.859375 1839.621094 1192.929688 C 1840.339844 1173.550781 1848.648438 1176.710938 1846.949219 1168.300781 "/>
</clipPath>
<linearGradient id="linear-pattern-0" gradientUnits="userSpaceOnUse" x1="-0.000707932" y1="0" x2="1.001872" y2="0" gradientTransform="matrix(1696.49, 0, 0, 1696.49, 151.754, 1000)">
<stop offset="0" stop-color="rgb(2.352905%, 0%, 33.332825%)" stop-opacity="1"/>
<stop offset="0.015625" stop-color="rgb(2.41394%, 0%, 33.517456%)" stop-opacity="1"/>
<stop offset="0.03125" stop-color="rgb(2.539062%, 0%, 33.895874%)" stop-opacity="1"/>
<stop offset="0.046875" stop-color="rgb(2.668762%, 0%, 34.281921%)" stop-opacity="1"/>
<stop offset="0.0625" stop-color="rgb(2.796936%, 0%, 34.669495%)" stop-opacity="1"/>
<stop offset="0.078125" stop-color="rgb(2.926636%, 0%, 35.057068%)" stop-opacity="1"/>
<stop offset="0.09375" stop-color="rgb(3.05481%, 0%, 35.443115%)" stop-opacity="1"/>
<stop offset="0.109375" stop-color="rgb(3.184509%, 0%, 35.830688%)" stop-opacity="1"/>
<stop offset="0.125" stop-color="rgb(3.314209%, 0%, 36.216736%)" stop-opacity="1"/>
<stop offset="0.140625" stop-color="rgb(3.442383%, 0%, 36.604309%)" stop-opacity="1"/>
<stop offset="0.15625" stop-color="rgb(3.572083%, 0%, 36.991882%)" stop-opacity="1"/>
<stop offset="0.171875" stop-color="rgb(3.700256%, 0%, 37.37793%)" stop-opacity="1"/>
<stop offset="0.1875" stop-color="rgb(3.829956%, 0%, 37.765503%)" stop-opacity="1"/>
<stop offset="0.203125" stop-color="rgb(3.95813%, 0%, 38.153076%)" stop-opacity="1"/>
<stop offset="0.21875" stop-color="rgb(4.08783%, 0%, 38.539124%)" stop-opacity="1"/>
<stop offset="0.234375" stop-color="rgb(4.216003%, 0%, 38.926697%)" stop-opacity="1"/>
<stop offset="0.25" stop-color="rgb(4.345703%, 0%, 39.31427%)" stop-opacity="1"/>
<stop offset="0.265625" stop-color="rgb(4.473877%, 0%, 39.700317%)" stop-opacity="1"/>
<stop offset="0.28125" stop-color="rgb(4.603577%, 0%, 40.087891%)" stop-opacity="1"/>
<stop offset="0.296875" stop-color="rgb(4.733276%, 0%, 40.475464%)" stop-opacity="1"/>
<stop offset="0.3125" stop-color="rgb(4.86145%, 0%, 40.861511%)" stop-opacity="1"/>
<stop offset="0.328125" stop-color="rgb(4.99115%, 0%, 41.249084%)" stop-opacity="1"/>
<stop offset="0.34375" stop-color="rgb(5.119324%, 0%, 41.635132%)" stop-opacity="1"/>
<stop offset="0.359375" stop-color="rgb(5.249023%, 0%, 42.022705%)" stop-opacity="1"/>
<stop offset="0.375" stop-color="rgb(5.377197%, 0%, 42.410278%)" stop-opacity="1"/>
<stop offset="0.390625" stop-color="rgb(5.506897%, 0%, 42.796326%)" stop-opacity="1"/>
<stop offset="0.40625" stop-color="rgb(5.635071%, 0%, 43.183899%)" stop-opacity="1"/>
<stop offset="0.421875" stop-color="rgb(5.764771%, 0%, 43.571472%)" stop-opacity="1"/>
<stop offset="0.4375" stop-color="rgb(5.892944%, 0%, 43.95752%)" stop-opacity="1"/>
<stop offset="0.453125" stop-color="rgb(6.022644%, 0%, 44.345093%)" stop-opacity="1"/>
<stop offset="0.46875" stop-color="rgb(6.152344%, 0%, 44.732666%)" stop-opacity="1"/>
<stop offset="0.484375" stop-color="rgb(6.280518%, 0%, 45.118713%)" stop-opacity="1"/>
<stop offset="0.5" stop-color="rgb(6.410217%, 0%, 45.506287%)" stop-opacity="1"/>
<stop offset="0.515625" stop-color="rgb(6.538391%, 0%, 45.89386%)" stop-opacity="1"/>
<stop offset="0.53125" stop-color="rgb(6.668091%, 0%, 46.279907%)" stop-opacity="1"/>
<stop offset="0.546875" stop-color="rgb(6.796265%, 0%, 46.66748%)" stop-opacity="1"/>
<stop offset="0.5625" stop-color="rgb(6.925964%, 0%, 47.053528%)" stop-opacity="1"/>
<stop offset="0.578125" stop-color="rgb(7.054138%, 0%, 47.441101%)" stop-opacity="1"/>
<stop offset="0.59375" stop-color="rgb(7.183838%, 0%, 47.828674%)" stop-opacity="1"/>
<stop offset="0.609375" stop-color="rgb(7.312012%, 0%, 48.214722%)" stop-opacity="1"/>
<stop offset="0.625" stop-color="rgb(7.441711%, 0%, 48.602295%)" stop-opacity="1"/>
<stop offset="0.640625" stop-color="rgb(7.571411%, 0%, 48.989868%)" stop-opacity="1"/>
<stop offset="0.65625" stop-color="rgb(7.699585%, 0%, 49.375916%)" stop-opacity="1"/>
<stop offset="0.671875" stop-color="rgb(7.829285%, 0%, 49.763489%)" stop-opacity="1"/>
<stop offset="0.6875" stop-color="rgb(7.957458%, 0%, 50.151062%)" stop-opacity="1"/>
<stop offset="0.703125" stop-color="rgb(8.087158%, 0%, 50.537109%)" stop-opacity="1"/>
<stop offset="0.71875" stop-color="rgb(8.215332%, 0%, 50.924683%)" stop-opacity="1"/>
<stop offset="0.734375" stop-color="rgb(8.345032%, 0%, 51.31073%)" stop-opacity="1"/>
<stop offset="0.75" stop-color="rgb(8.473206%, 0%, 51.698303%)" stop-opacity="1"/>
<stop offset="0.765625" stop-color="rgb(8.602905%, 0%, 52.085876%)" stop-opacity="1"/>
<stop offset="0.78125" stop-color="rgb(8.731079%, 0%, 52.471924%)" stop-opacity="1"/>
<stop offset="0.796875" stop-color="rgb(8.860779%, 0%, 52.859497%)" stop-opacity="1"/>
<stop offset="0.8125" stop-color="rgb(8.990479%, 0%, 53.24707%)" stop-opacity="1"/>
<stop offset="0.828125" stop-color="rgb(9.118652%, 0%, 53.633118%)" stop-opacity="1"/>
<stop offset="0.84375" stop-color="rgb(9.248352%, 0%, 54.020691%)" stop-opacity="1"/>
<stop offset="0.859375" stop-color="rgb(9.376526%, 0%, 54.408264%)" stop-opacity="1"/>
<stop offset="0.875" stop-color="rgb(9.506226%, 0%, 54.794312%)" stop-opacity="1"/>
<stop offset="0.890625" stop-color="rgb(9.634399%, 0%, 55.181885%)" stop-opacity="1"/>
<stop offset="0.90625" stop-color="rgb(9.764099%, 0%, 55.569458%)" stop-opacity="1"/>
<stop offset="0.921875" stop-color="rgb(9.892273%, 0%, 55.955505%)" stop-opacity="1"/>
<stop offset="0.9375" stop-color="rgb(10.021973%, 0%, 56.343079%)" stop-opacity="1"/>
<stop offset="0.953125" stop-color="rgb(10.150146%, 0%, 56.729126%)" stop-opacity="1"/>
<stop offset="0.96875" stop-color="rgb(10.279846%, 0%, 57.116699%)" stop-opacity="1"/>
<stop offset="0.984375" stop-color="rgb(10.409546%, 0%, 57.504272%)" stop-opacity="1"/>
<stop offset="1" stop-color="rgb(10.53009%, 0%, 57.867432%)" stop-opacity="1"/>
</linearGradient>
</defs>
<rect x="-200" y="-200" width="2400" height="2400" fill="rgb(100%, 100%, 100%)" fill-opacity="1"/>
<g clip-path="url(#clip-0)">
<g clip-path="url(#clip-1)">
<g clip-path="url(#clip-2)">
<path fill-rule="nonzero" fill="url(#linear-pattern-0)" d="M 150.554688 517.878906 L 150.554688 1480.050781 L 1851.421875 1480.050781 L 1851.421875 517.878906 Z M 150.554688 517.878906 "/>
</g>
</g>
</g>
</svg>
