<?xml version="1.0" encoding="UTF-8"?>
<svg xmlns="http://www.w3.org/2000/svg" xmlns:xlink="http://www.w3.org/1999/xlink" width="2000" height="2000" viewBox="0 0 2000 2000">
<defs>
<clipPath id="clip-0">
<path clip-rule="nonzero" d="M 333 199 L 1667 199 L 1667 1801 L 333 1801 Z M 333 199 "/>
</clipPath>
<clipPath id="clip-1">
<path clip-rule="nonzero" d="M 1627.179688 232.609375 C 1620.671875 226.191406 1619.441406 224.859375 1608.25 214.539062 C 1597.070312 204.21875 1598.789062 202.5 1590.191406 202.5 C 1581.578125 202.5 1577.28125 194.75 1577.28125 202.5 C 1577.28125 210.238281 1571.261719 211.101562 1577.28125 222.28125 C 1583.300781 233.46875 1588.46875 227.449219 1588.46875 238.628906 C 1588.46875 249.808594 1591.050781 262.71875 1584.160156 270.460938 C 1577.28125 278.199219 1578.140625 280.78125 1557.5 294.550781 C 1536.851562 308.308594 1537.710938 310.898438 1522.21875 319.5 C 1506.738281 328.101562 1507.601562 325.519531 1489.53125 328.101562 C 1471.460938 330.679688 1466.300781 333.261719 1449.101562 344.449219 C 1431.890625 355.628906 1437.910156 357.351562 1411.238281 357.351562 C 1384.570312 357.351562 1398.339844 351.328125 1363.929688 362.511719 C 1329.511719 373.699219 1316.609375 374.558594 1304.570312 377.140625 C 1292.519531 379.71875 1284.78125 369.398438 1274.449219 390.898438 C 1264.128906 412.410156 1266.710938 413.269531 1261.550781 424.460938 C 1256.390625 435.640625 1208.210938 478.660156 1209.070312 495 C 1209.929688 511.351562 1222.839844 508.769531 1216.808594 522.53125 C 1210.789062 536.289062 1204.769531 531.988281 1199.609375 556.078125 C 1194.449219 580.171875 1194.449219 593.941406 1194.449219 597.378906 C 1194.449219 600.820312 1178.960938 617.160156 1173.800781 636.089844 C 1168.640625 655.019531 1172.941406 662.761719 1160.890625 680.828125 C 1148.851562 698.890625 1136.808594 698.03125 1127.339844 704.921875 C 1117.878906 711.800781 1109.28125 717.820312 1104.96875 729.859375 C 1100.671875 741.910156 1100.671875 752.230469 1091.210938 759.96875 C 1081.75 767.71875 1074 770.300781 1060.238281 784.921875 C 1046.46875 799.550781 1049.921875 802.988281 1033.570312 815.890625 C 1017.21875 828.800781 1029.171875 840.839844 1006.851562 834.820312 C 984.53125 828.800781 977.648438 815.890625 958.722656 817.609375 C 939.796875 819.339844 952.699219 804.710938 922.589844 827.941406 C 892.480469 851.171875 893.339844 844.28125 883.015625 858.910156 C 872.691406 873.53125 855.484375 890.738281 855.484375 890.738281 C 855.484375 890.738281 844.300781 907.949219 830.535156 919.128906 C 816.773438 930.308594 810.75 931.179688 803.007812 937.199219 C 795.265625 943.21875 790.101562 944.941406 770.316406 962.148438 C 750.527344 979.351562 732.460938 990.539062 728.160156 995.699219 C 723.859375 1000.859375 501.898438 1187.550781 501.898438 1187.550781 C 501.898438 1187.550781 492.4375 1222.820312 507.921875 1229.699219 C 523.40625 1236.578125 518.246094 1235.71875 516.527344 1245.191406 C 514.804688 1254.648438 509.644531 1263.25 508.78125 1271.859375 C 507.921875 1280.460938 508.78125 1292.5 510.503906 1302.828125 C 512.222656 1313.148438 499.039062 1356.171875 499.039062 1356.171875 C 499.039062 1356.171875 487.273438 1380.25 486.414062 1382.839844 C 485.554688 1385.421875 475.230469 1392.300781 475.230469 1392.300781 C 475.230469 1392.300781 436.519531 1384.558594 413.289062 1409.5 C 390.0625 1434.449219 383.179688 1443.058594 383.179688 1443.058594 C 383.179688 1443.058594 350.488281 1474.890625 347.90625 1478.328125 C 345.324219 1481.769531 333.28125 1496.398438 333.28125 1496.398438 L 717.835938 1800.941406 L 912.265625 1650.390625 C 912.265625 1650.390625 924.3125 1646.089844 903.664062 1639.210938 C 883.015625 1632.320312 884.734375 1646.949219 868.390625 1626.300781 C 852.046875 1605.648438 843.441406 1609.960938 852.046875 1596.191406 C 860.648438 1582.429688 869.25 1585.871094 862.367188 1577.261719 C 855.484375 1568.660156 860.648438 1560.921875 837.417969 1566.078125 C 814.191406 1571.238281 817.632812 1585.011719 794.402344 1573.820312 C 771.175781 1562.640625 764.292969 1532.53125 748.808594 1526.511719 C 733.324219 1520.480469 723.859375 1513.601562 729.019531 1501.558594 C 734.183594 1489.511719 763.433594 1492.089844 737.625 1484.351562 C 711.816406 1476.609375 699.769531 1475.75 704.070312 1468.871094 C 708.375 1461.980469 728.160156 1440.480469 734.183594 1437.898438 C 740.203125 1435.308594 756.550781 1431.871094 761.714844 1433.589844 C 766.875 1435.308594 775.476562 1446.5 790.964844 1454.238281 C 806.449219 1461.980469 812.472656 1460.261719 827.097656 1476.609375 C 841.722656 1492.960938 844.300781 1496.398438 854.625 1496.398438 C 864.949219 1496.398438 864.949219 1487.789062 873.550781 1496.398438 C 882.15625 1505 870.972656 1506.71875 894.199219 1512.738281 C 917.429688 1518.761719 930.332031 1522.210938 938.9375 1523.929688 C 947.539062 1525.648438 957.003906 1524.789062 974.207031 1515.320312 C 991.414062 1505.859375 1000.878906 1502.421875 1019.800781 1489.511719 C 1038.730469 1476.609375 1039.589844 1469.730469 1060.238281 1467.148438 C 1080.890625 1464.558594 1087.769531 1472.308594 1104.109375 1462.839844 C 1120.460938 1453.378906 1130.78125 1444.78125 1135.949219 1426.710938 C 1141.109375 1408.640625 1140.25 1408.640625 1146.269531 1389.71875 C 1152.289062 1370.789062 1199.609375 1298.53125 1178.960938 1290.78125 C 1158.308594 1283.039062 1157.449219 1277.019531 1132.5 1286.480469 C 1107.558594 1295.949219 1106.699219 1294.21875 1080.03125 1301.96875 C 1053.359375 1309.710938 1046.46875 1310.570312 1026.691406 1314.011719 C 1006.898438 1317.449219 955.28125 1332.078125 946.679688 1329.5 C 938.074219 1326.921875 944.957031 1334.660156 925.171875 1311.429688 C 905.382812 1288.199219 885.597656 1286.480469 895.058594 1271 C 904.523438 1255.511719 913.125 1264.96875 916.566406 1244.328125 C 920.007812 1223.679688 929.472656 1221.460938 913.988281 1207.078125 C 898.5 1192.710938 889.898438 1197.871094 884.734375 1182.378906 C 879.574219 1166.898438 881.296875 1151.410156 883.015625 1135.929688 C 884.734375 1120.441406 884.734375 1105.820312 895.058594 1102.378906 C 905.382812 1098.941406 909.683594 1096.351562 920.007812 1095.488281 C 930.332031 1094.628906 1095.511719 1071.410156 1100.671875 1068.820312 C 1105.828125 1066.238281 1140.25 1045.601562 1154.871094 1034.410156 C 1169.5 1023.230469 1184.121094 1026.671875 1199.609375 1017.210938 C 1215.089844 1007.738281 1212.511719 1013.761719 1227.140625 987.089844 C 1241.761719 960.429688 1261.550781 930.308594 1261.550781 907.089844 C 1261.550781 883.859375 1255.53125 864.070312 1259.828125 843.421875 C 1264.128906 822.78125 1269.289062 810.730469 1271.871094 806.429688 C 1274.449219 802.128906 1337.261719 728.140625 1341.558594 720.398438 C 1345.859375 712.660156 1353.601562 683.410156 1357.039062 660.179688 C 1360.488281 636.949219 1363.070312 627.488281 1372.53125 603.398438 C 1381.988281 579.308594 1370.808594 585.328125 1389.738281 569.851562 C 1408.660156 554.359375 1448.238281 535.429688 1463.71875 522.53125 C 1479.210938 509.628906 1502.441406 484.679688 1506.738281 480.378906 C 1511.039062 476.070312 1516.199219 468.328125 1529.960938 461.449219 C 1543.730469 454.570312 1548.03125 451.121094 1567.820312 473.488281 C 1587.609375 495.859375 1580.71875 515.648438 1596.210938 520.808594 C 1611.691406 525.96875 1610.828125 525.96875 1627.179688 524.25 C 1643.53125 522.53125 1659.011719 515.648438 1659.011719 515.648438 C 1659.011719 515.648438 1671.050781 394.339844 1665.03125 389.179688 C 1659.011719 384.019531 1659.011719 384.019531 1644.390625 373.699219 C 1629.761719 363.371094 1614.28125 353.050781 1619.441406 339.289062 C 1624.601562 325.519531 1638.359375 291.96875 1638.359375 285.949219 C 1638.359375 279.921875 1638.441406 243.710938 1627.179688 232.609375 Z M 1627.179688 232.609375 "/>
</clipPath>
<clipPath id="clip-2">
<path clip-rule="nonzero" d="M 1627.179688 232.609375 C 1620.671875 226.191406 1619.441406 224.859375 1608.25 214.539062 C 1597.070312 204.21875 1598.789062 202.5 1590.191406 202.5 C 1581.578125 202.5 1577.28125 194.75 1577.28125 202.5 C 1577.28125 210.238281 1571.261719 211.101562 1577.28125 222.28125 C 1583.300781 233.46875 1588.46875 227.449219 1588.46875 238.628906 C 1588.46875 249.808594 1591.050781 262.71875 1584.160156 270.460938 C 1577.28125 278.199219 1578.140625 280.78125 1557.5 294.550781 C 1536.851562 308.308594 1537.710938 310.898438 1522.21875 319.5 C 1506.738281 328.101562 1507.601562 325.519531 1489.53125 328.101562 C 1471.460938 330.679688 1466.300781 333.261719 1449.101562 344.449219 C 1431.890625 355.628906 1437.910156 357.351562 1411.238281 357.351562 C 1384.570312 357.351562 1398.339844 351.328125 1363.929688 362.511719 C 1329.511719 373.699219 1316.609375 374.558594 1304.570312 377.140625 C 1292.519531 379.71875 1284.78125 369.398438 1274.449219 390.898438 C 1264.128906 412.410156 1266.710938 413.269531 1261.550781 424.460938 C 1256.390625 435.640625 1208.210938 478.660156 1209.070312 495 C 1209.929688 511.351562 1222.839844 508.769531 1216.808594 522.53125 C 1210.789062 536.289062 1204.769531 531.988281 1199.609375 556.078125 C 1194.449219 580.171875 1194.449219 593.941406 1194.449219 597.378906 C 1194.449219 600.820312 1178.960938 617.160156 1173.800781 636.089844 C 1168.640625 655.019531 1172.941406 662.761719 1160.890625 680.828125 C 1148.851562 698.890625 1136.808594 698.03125 1127.339844 704.921875 C 1117.878906 711.800781 1109.28125 717.820312 1104.96875 729.859375 C 1100.671875 741.910156 1100.671875 752.230469 1091.210938 759.96875 C 1081.75 767.71875 1074 770.300781 1060.238281 784.921875 C 1046.46875 799.550781 1049.921875 802.988281 1033.570312 815.890625 C 1017.21875 828.800781 1029.171875 840.839844 1006.851562 834.820312 C 984.53125 828.800781 977.648438 815.890625 958.722656 817.609375 C 939.796875 819.339844 952.699219 804.710938 922.589844 827.941406 C 892.480469 851.171875 893.339844 844.28125 883.015625 858.910156 C 872.691406 873.53125 855.484375 890.738281 855.484375 890.738281 C 855.484375 890.738281 844.300781 907.949219 830.535156 919.128906 C 816.773438 930.308594 810.75 931.179688 803.007812 937.199219 C 795.265625 943.21875 790.101562 944.941406 770.316406 962.148438 C 750.527344 979.351562 732.460938 990.539062 728.160156 995.699219 C 723.859375 1000.859375 501.898438 1187.550781 501.898438 1187.550781 C 501.898438 1187.550781 492.4375 1222.820312 507.921875 1229.699219 C 523.40625 1236.578125 518.246094 1235.71875 516.527344 1245.191406 C 514.804688 1254.648438 509.644531 1263.25 508.78125 1271.859375 C 507.921875 1280.460938 508.78125 1292.5 510.503906 1302.828125 C 512.222656 1313.148438 499.039062 1356.171875 499.039062 1356.171875 C 499.039062 1356.171875 487.273438 1380.25 486.414062 1382.839844 C 485.554688 1385.421875 475.230469 1392.300781 475.230469 1392.300781 C 475.230469 1392.300781 436.519531 1384.558594 413.289062 1409.5 C 390.0625 1434.449219 383.179688 1443.058594 383.179688 1443.058594 C 383.179688 1443.058594 350.488281 1474.890625 347.90625 1478.328125 C 345.324219 1481.769531 333.28125 1496.398438 333.28125 1496.398438 L 717.835938 1800.941406 L 912.265625 1650.390625 C 912.265625 1650.390625 924.3125 1646.089844 903.664062 1639.210938 C 883.015625 1632.320312 884.734375 1646.949219 868.390625 1626.300781 C 852.046875 1605.648438 843.441406 1609.960938 852.046875 1596.191406 C 860.648438 1582.429688 869.25 1585.871094 862.367188 1577.261719 C 855.484375 1568.660156 860.648438 1560.921875 837.417969 1566.078125 C 814.191406 1571.238281 817.632812 1585.011719 794.402344 1573.820312 C 771.175781 1562.640625 764.292969 1532.53125 748.808594 1526.511719 C 733.324219 1520.480469 723.859375 1513.601562 729.019531 1501.558594 C 734.183594 1489.511719 763.433594 1492.089844 737.625 1484.351562 C 711.816406 1476.609375 699.769531 1475.75 704.070312 1468.871094 C 708.375 1461.980469 728.160156 1440.480469 734.183594 1437.898438 C 740.203125 1435.308594 756.550781 1431.871094 761.714844 1433.589844 C 766.875 1435.308594 775.476562 1446.5 790.964844 1454.238281 C 806.449219 1461.980469 812.472656 1460.261719 827.097656 1476.609375 C 841.722656 1492.960938 844.300781 1496.398438 854.625 1496.398438 C 864.949219 1496.398438 864.949219 1487.789062 873.550781 1496.398438 C 882.15625 1505 870.972656 1506.71875 894.199219 1512.738281 C 917.429688 1518.761719 930.332031 1522.210938 938.9375 1523.929688 C 947.539062 1525.648438 957.003906 1524.789062 974.207031 1515.320312 C 991.414062 1505.859375 1000.878906 1502.421875 1019.800781 1489.511719 C 1038.730469 1476.609375 1039.589844 1469.730469 1060.238281 1467.148438 C 1080.890625 1464.558594 1087.769531 1472.308594 1104.109375 1462.839844 C 1120.460938 1453.378906 1130.78125 1444.78125 1135.949219 1426.710938 C 1141.109375 1408.640625 1140.25 1408.640625 1146.269531 1389.71875 C 1152.289062 1370.789062 1199.609375 1298.53125 1178.960938 1290.78125 C 1158.308594 1283.039062 1157.449219 1277.019531 1132.5 1286.480469 C 1107.558594 1295.949219 1106.699219 1294.21875 1080.03125 1301.96875 C 1053.359375 1309.710938 1046.46875 1310.570312 1026.691406 1314.011719 C 1006.898438 1317.449219 955.28125 1332.078125 946.679688 1329.5 C 938.074219 1326.921875 944.957031 1334.660156 925.171875 1311.429688 C 905.382812 1288.199219 885.597656 1286.480469 895.058594 1271 C 904.523438 1255.511719 913.125 1264.96875 916.566406 1244.328125 C 920.007812 1223.679688 929.472656 1221.460938 913.988281 1207.078125 C 898.5 1192.710938 889.898438 1197.871094 884.734375 1182.378906 C 879.574219 1166.898438 881.296875 1151.410156 883.015625 1135.929688 C 884.734375 1120.441406 884.734375 1105.820312 895.058594 1102.378906 C 905.382812 1098.941406 909.683594 1096.351562 920.007812 1095.488281 C 930.332031 1094.628906 1095.511719 1071.410156 1100.671875 1068.820312 C 1105.828125 1066.238281 1140.25 1045.601562 1154.871094 1034.410156 C 1169.5 1023.230469 1184.121094 1026.671875 1199.609375 1017.210938 C 1215.089844 1007.738281 1212.511719 1013.761719 1227.140625 987.089844 C 1241.761719 960.429688 1261.550781 930.308594 1261.550781 907.089844 C 1261.550781 883.859375 1255.53125 864.070312 1259.828125 843.421875 C 1264.128906 822.78125 1269.289062 810.730469 1271.871094 806.429688 C 1274.449219 802.128906 1337.261719 728.140625 1341.558594 720.398438 C 1345.859375 712.660156 1353.601562 683.410156 1357.039062 660.179688 C 1360.488281 636.949219 1363.070312 627.488281 1372.53125 603.398438 C 1381.988281 579.308594 1370.808594 585.328125 1389.738281 569.851562 C 1408.660156 554.359375 1448.238281 535.429688 1463.71875 522.53125 C 1479.210938 509.628906 1502.441406 484.679688 1506.738281 480.378906 C 1511.039062 476.070312 1516.199219 468.328125 1529.960938 461.449219 C 1543.730469 454.570312 1548.03125 451.121094 1567.820312 473.488281 C 1587.609375 495.859375 1580.71875 515.648438 1596.210938 520.808594 C 1611.691406 525.96875 1610.828125 525.96875 1627.179688 524.25 C 1643.53125 522.53125 1659.011719 515.648438 1659.011719 515.648438 C 1659.011719 515.648438 1671.050781 394.339844 1665.03125 389.179688 C 1659.011719 384.019531 1659.011719 384.019531 1644.390625 373.699219 C 1629.761719 363.371094 1614.28125 353.050781 1619.441406 339.289062 C 1624.601562 325.519531 1638.359375 291.96875 1638.359375 285.949219 C 1638.359375 279.921875 1638.441406 243.710938 1627.179688 232.609375 "/>
</clipPath>
<linearGradient id="linear-pattern-0" gradientUnits="userSpaceOnUse" x1="0.000000000000000111" y1="0" x2="1.003246" y2="0" gradientTransform="matrix(1333.44, 0, 0, 1333.44, 333.281, 1000)">
<stop offset="0" stop-color="rgb(60.783386%, 60.783386%, 60.391235%)" stop-opacity="1"/>
<stop offset="0.0078125" stop-color="rgb(60.5896%, 60.5896%, 60.195923%)" stop-opacity="1"/>
<stop offset="0.015625" stop-color="rgb(60.202026%, 60.202026%, 59.805298%)" stop-opacity="1"/>
<stop offset="0.0234375" stop-color="rgb(59.814453%, 59.814453%, 59.414673%)" stop-opacity="1"/>
<stop offset="0.03125" stop-color="rgb(59.428406%, 59.428406%, 59.025574%)" stop-opacity="1"/>
<stop offset="0.0390625" stop-color="rgb(59.040833%, 59.040833%, 58.634949%)" stop-opacity="1"/>
<stop offset="0.046875" stop-color="rgb(58.653259%, 58.653259%, 58.244324%)" stop-opacity="1"/>
<stop offset="0.0546875" stop-color="rgb(58.265686%, 58.265686%, 57.853699%)" stop-opacity="1"/>
<stop offset="0.0625" stop-color="rgb(57.878113%, 57.878113%, 57.463074%)" stop-opacity="1"/>
<stop offset="0.0703125" stop-color="rgb(57.492065%, 57.492065%, 57.073975%)" stop-opacity="1"/>
<stop offset="0.078125" stop-color="rgb(57.104492%, 57.104492%, 56.68335%)" stop-opacity="1"/>
<stop offset="0.0859375" stop-color="rgb(56.716919%, 56.716919%, 56.292725%)" stop-opacity="1"/>
<stop offset="0.09375" stop-color="rgb(56.329346%, 56.329346%, 55.9021%)" stop-opacity="1"/>
<stop offset="0.101562" stop-color="rgb(55.941772%, 55.941772%, 55.511475%)" stop-opacity="1"/>
<stop offset="0.109375" stop-color="rgb(55.555725%, 55.555725%, 55.12085%)" stop-opacity="1"/>
<stop offset="0.117187" stop-color="rgb(55.168152%, 55.168152%, 54.73175%)" stop-opacity="1"/>
<stop offset="0.125" stop-color="rgb(54.780579%, 54.780579%, 54.341125%)" stop-opacity="1"/>
<stop offset="0.132812" stop-color="rgb(54.393005%, 54.393005%, 53.9505%)" stop-opacity="1"/>
<stop offset="0.140625" stop-color="rgb(54.005432%, 54.005432%, 53.559875%)" stop-opacity="1"/>
<stop offset="0.148437" stop-color="rgb(53.619385%, 53.619385%, 53.16925%)" stop-opacity="1"/>
<stop offset="0.15625" stop-color="rgb(53.231812%, 53.231812%, 52.778625%)" stop-opacity="1"/>
<stop offset="0.164062" stop-color="rgb(52.844238%, 52.844238%, 52.389526%)" stop-opacity="1"/>
<stop offset="0.171875" stop-color="rgb(52.456665%, 52.456665%, 51.998901%)" stop-opacity="1"/>
<stop offset="0.179687" stop-color="rgb(52.069092%, 52.069092%, 51.608276%)" stop-opacity="1"/>
<stop offset="0.1875" stop-color="rgb(51.681519%, 51.681519%, 51.217651%)" stop-opacity="1"/>
<stop offset="0.195312" stop-color="rgb(51.295471%, 51.295471%, 50.827026%)" stop-opacity="1"/>
<stop offset="0.203125" stop-color="rgb(50.907898%, 50.907898%, 50.437927%)" stop-opacity="1"/>
<stop offset="0.210937" stop-color="rgb(50.520325%, 50.520325%, 50.047302%)" stop-opacity="1"/>
<stop offset="0.21875" stop-color="rgb(50.132751%, 50.132751%, 49.656677%)" stop-opacity="1"/>
<stop offset="0.226562" stop-color="rgb(49.745178%, 49.745178%, 49.266052%)" stop-opacity="1"/>
<stop offset="0.234375" stop-color="rgb(49.359131%, 49.359131%, 48.875427%)" stop-opacity="1"/>
<stop offset="0.242187" stop-color="rgb(48.971558%, 48.971558%, 48.484802%)" stop-opacity="1"/>
<stop offset="0.25" stop-color="rgb(48.583984%, 48.583984%, 48.095703%)" stop-opacity="1"/>
<stop offset="0.257812" stop-color="rgb(48.196411%, 48.196411%, 47.705078%)" stop-opacity="1"/>
<stop offset="0.265625" stop-color="rgb(47.808838%, 47.808838%, 47.314453%)" stop-opacity="1"/>
<stop offset="0.273437" stop-color="rgb(47.422791%, 47.422791%, 46.923828%)" stop-opacity="1"/>
<stop offset="0.28125" stop-color="rgb(47.035217%, 47.035217%, 46.533203%)" stop-opacity="1"/>
<stop offset="0.289062" stop-color="rgb(46.647644%, 46.647644%, 46.142578%)" stop-opacity="1"/>
<stop offset="0.296875" stop-color="rgb(46.260071%, 46.260071%, 45.753479%)" stop-opacity="1"/>
<stop offset="0.304688" stop-color="rgb(45.872498%, 45.872498%, 45.362854%)" stop-opacity="1"/>
<stop offset="0.3125" stop-color="rgb(45.48645%, 45.48645%, 44.972229%)" stop-opacity="1"/>
<stop offset="0.320312" stop-color="rgb(45.098877%, 45.098877%, 44.581604%)" stop-opacity="1"/>
<stop offset="0.328125" stop-color="rgb(44.711304%, 44.711304%, 44.190979%)" stop-opacity="1"/>
<stop offset="0.335937" stop-color="rgb(44.32373%, 44.32373%, 43.80188%)" stop-opacity="1"/>
<stop offset="0.34375" stop-color="rgb(43.936157%, 43.936157%, 43.411255%)" stop-opacity="1"/>
<stop offset="0.351562" stop-color="rgb(43.548584%, 43.548584%, 43.02063%)" stop-opacity="1"/>
<stop offset="0.359375" stop-color="rgb(43.162537%, 43.162537%, 42.630005%)" stop-opacity="1"/>
<stop offset="0.367187" stop-color="rgb(42.774963%, 42.774963%, 42.23938%)" stop-opacity="1"/>
<stop offset="0.375" stop-color="rgb(42.38739%, 42.38739%, 41.848755%)" stop-opacity="1"/>
<stop offset="0.382812" stop-color="rgb(41.999817%, 41.999817%, 41.459656%)" stop-opacity="1"/>
<stop offset="0.390625" stop-color="rgb(41.612244%, 41.612244%, 41.069031%)" stop-opacity="1"/>
<stop offset="0.398437" stop-color="rgb(41.226196%, 41.226196%, 40.678406%)" stop-opacity="1"/>
<stop offset="0.40625" stop-color="rgb(40.838623%, 40.838623%, 40.287781%)" stop-opacity="1"/>
<stop offset="0.414062" stop-color="rgb(40.45105%, 40.45105%, 39.897156%)" stop-opacity="1"/>
<stop offset="0.421875" stop-color="rgb(40.063477%, 40.063477%, 39.506531%)" stop-opacity="1"/>
<stop offset="0.429687" stop-color="rgb(39.675903%, 39.675903%, 39.117432%)" stop-opacity="1"/>
<stop offset="0.4375" stop-color="rgb(39.289856%, 39.289856%, 38.726807%)" stop-opacity="1"/>
<stop offset="0.445312" stop-color="rgb(38.902283%, 38.902283%, 38.336182%)" stop-opacity="1"/>
<stop offset="0.453125" stop-color="rgb(38.514709%, 38.514709%, 37.945557%)" stop-opacity="1"/>
<stop offset="0.460937" stop-color="rgb(38.127136%, 38.127136%, 37.554932%)" stop-opacity="1"/>
<stop offset="0.46875" stop-color="rgb(37.739563%, 37.739563%, 37.164307%)" stop-opacity="1"/>
<stop offset="0.476562" stop-color="rgb(37.353516%, 37.353516%, 36.775208%)" stop-opacity="1"/>
<stop offset="0.484375" stop-color="rgb(36.965942%, 36.965942%, 36.384583%)" stop-opacity="1"/>
<stop offset="0.492187" stop-color="rgb(36.578369%, 36.578369%, 35.993958%)" stop-opacity="1"/>
<stop offset="0.5" stop-color="rgb(36.190796%, 36.190796%, 35.603333%)" stop-opacity="1"/>
<stop offset="0.507812" stop-color="rgb(35.803223%, 35.803223%, 35.212708%)" stop-opacity="1"/>
<stop offset="0.515625" stop-color="rgb(35.415649%, 35.415649%, 34.823608%)" stop-opacity="1"/>
<stop offset="0.523437" stop-color="rgb(35.029602%, 35.029602%, 34.432983%)" stop-opacity="1"/>
<stop offset="0.53125" stop-color="rgb(34.642029%, 34.642029%, 34.042358%)" stop-opacity="1"/>
<stop offset="0.539062" stop-color="rgb(34.254456%, 34.254456%, 33.651733%)" stop-opacity="1"/>
<stop offset="0.546875" stop-color="rgb(33.866882%, 33.866882%, 33.261108%)" stop-opacity="1"/>
<stop offset="0.554687" stop-color="rgb(33.479309%, 33.479309%, 32.870483%)" stop-opacity="1"/>
<stop offset="0.5625" stop-color="rgb(33.093262%, 33.093262%, 32.481384%)" stop-opacity="1"/>
<stop offset="0.570312" stop-color="rgb(32.705688%, 32.705688%, 32.090759%)" stop-opacity="1"/>
<stop offset="0.578125" stop-color="rgb(32.318115%, 32.318115%, 31.700134%)" stop-opacity="1"/>
<stop offset="0.585937" stop-color="rgb(31.930542%, 31.930542%, 31.309509%)" stop-opacity="1"/>
<stop offset="0.59375" stop-color="rgb(31.542969%, 31.542969%, 30.918884%)" stop-opacity="1"/>
<stop offset="0.601562" stop-color="rgb(31.156921%, 31.156921%, 30.528259%)" stop-opacity="1"/>
<stop offset="0.609375" stop-color="rgb(30.769348%, 30.769348%, 30.13916%)" stop-opacity="1"/>
<stop offset="0.617187" stop-color="rgb(30.381775%, 30.381775%, 29.748535%)" stop-opacity="1"/>
<stop offset="0.625" stop-color="rgb(29.994202%, 29.994202%, 29.35791%)" stop-opacity="1"/>
<stop offset="0.632812" stop-color="rgb(29.606628%, 29.606628%, 28.967285%)" stop-opacity="1"/>
<stop offset="0.640625" stop-color="rgb(29.220581%, 29.220581%, 28.57666%)" stop-opacity="1"/>
<stop offset="0.648437" stop-color="rgb(28.833008%, 28.833008%, 28.187561%)" stop-opacity="1"/>
<stop offset="0.65625" stop-color="rgb(28.445435%, 28.445435%, 27.796936%)" stop-opacity="1"/>
<stop offset="0.664062" stop-color="rgb(28.057861%, 28.057861%, 27.406311%)" stop-opacity="1"/>
<stop offset="0.671875" stop-color="rgb(27.670288%, 27.670288%, 27.015686%)" stop-opacity="1"/>
<stop offset="0.679687" stop-color="rgb(27.282715%, 27.282715%, 26.625061%)" stop-opacity="1"/>
<stop offset="0.6875" stop-color="rgb(26.896667%, 26.896667%, 26.234436%)" stop-opacity="1"/>
<stop offset="0.695312" stop-color="rgb(26.509094%, 26.509094%, 25.845337%)" stop-opacity="1"/>
<stop offset="0.703125" stop-color="rgb(26.121521%, 26.121521%, 25.454712%)" stop-opacity="1"/>
<stop offset="0.710938" stop-color="rgb(25.733948%, 25.733948%, 25.064087%)" stop-opacity="1"/>
<stop offset="0.71875" stop-color="rgb(25.346375%, 25.346375%, 24.673462%)" stop-opacity="1"/>
<stop offset="0.726562" stop-color="rgb(24.960327%, 24.960327%, 24.282837%)" stop-opacity="1"/>
<stop offset="0.734375" stop-color="rgb(24.572754%, 24.572754%, 23.892212%)" stop-opacity="1"/>
<stop offset="0.742187" stop-color="rgb(24.185181%, 24.185181%, 23.503113%)" stop-opacity="1"/>
<stop offset="0.75" stop-color="rgb(23.797607%, 23.797607%, 23.112488%)" stop-opacity="1"/>
<stop offset="0.757812" stop-color="rgb(23.410034%, 23.410034%, 22.721863%)" stop-opacity="1"/>
<stop offset="0.765625" stop-color="rgb(23.023987%, 23.023987%, 22.331238%)" stop-opacity="1"/>
<stop offset="0.773437" stop-color="rgb(22.636414%, 22.636414%, 21.940613%)" stop-opacity="1"/>
<stop offset="0.78125" stop-color="rgb(22.24884%, 22.24884%, 21.551514%)" stop-opacity="1"/>
<stop offset="0.789062" stop-color="rgb(21.861267%, 21.861267%, 21.160889%)" stop-opacity="1"/>
<stop offset="0.796875" stop-color="rgb(21.473694%, 21.473694%, 20.770264%)" stop-opacity="1"/>
<stop offset="0.804687" stop-color="rgb(21.087646%, 21.087646%, 20.379639%)" stop-opacity="1"/>
<stop offset="0.8125" stop-color="rgb(20.700073%, 20.700073%, 19.989014%)" stop-opacity="1"/>
<stop offset="0.820312" stop-color="rgb(20.3125%, 20.3125%, 19.598389%)" stop-opacity="1"/>
<stop offset="0.828125" stop-color="rgb(19.924927%, 19.924927%, 19.20929%)" stop-opacity="1"/>
<stop offset="0.835937" stop-color="rgb(19.537354%, 19.537354%, 18.818665%)" stop-opacity="1"/>
<stop offset="0.84375" stop-color="rgb(19.14978%, 19.14978%, 18.42804%)" stop-opacity="1"/>
<stop offset="0.851562" stop-color="rgb(18.763733%, 18.763733%, 18.037415%)" stop-opacity="1"/>
<stop offset="0.859375" stop-color="rgb(18.37616%, 18.37616%, 17.64679%)" stop-opacity="1"/>
<stop offset="0.867187" stop-color="rgb(17.988586%, 17.988586%, 17.256165%)" stop-opacity="1"/>
<stop offset="0.875" stop-color="rgb(17.601013%, 17.601013%, 16.867065%)" stop-opacity="1"/>
<stop offset="0.882812" stop-color="rgb(17.21344%, 17.21344%, 16.47644%)" stop-opacity="1"/>
<stop offset="0.890625" stop-color="rgb(16.827393%, 16.827393%, 16.085815%)" stop-opacity="1"/>
<stop offset="0.898437" stop-color="rgb(16.439819%, 16.439819%, 15.69519%)" stop-opacity="1"/>
<stop offset="0.90625" stop-color="rgb(16.052246%, 16.052246%, 15.304565%)" stop-opacity="1"/>
<stop offset="0.914062" stop-color="rgb(15.664673%, 15.664673%, 14.915466%)" stop-opacity="1"/>
<stop offset="0.921875" stop-color="rgb(15.2771%, 15.2771%, 14.524841%)" stop-opacity="1"/>
<stop offset="0.929687" stop-color="rgb(14.891052%, 14.891052%, 14.134216%)" stop-opacity="1"/>
<stop offset="0.9375" stop-color="rgb(14.503479%, 14.503479%, 13.743591%)" stop-opacity="1"/>
<stop offset="0.945312" stop-color="rgb(14.115906%, 14.115906%, 13.352966%)" stop-opacity="1"/>
<stop offset="0.953125" stop-color="rgb(13.728333%, 13.728333%, 12.962341%)" stop-opacity="1"/>
<stop offset="0.960938" stop-color="rgb(13.340759%, 13.340759%, 12.573242%)" stop-opacity="1"/>
<stop offset="0.96875" stop-color="rgb(12.954712%, 12.954712%, 12.182617%)" stop-opacity="1"/>
<stop offset="0.976562" stop-color="rgb(12.567139%, 12.567139%, 11.791992%)" stop-opacity="1"/>
<stop offset="0.984375" stop-color="rgb(12.179565%, 12.179565%, 11.401367%)" stop-opacity="1"/>
<stop offset="0.992187" stop-color="rgb(11.791992%, 11.791992%, 11.010742%)" stop-opacity="1"/>
<stop offset="1" stop-color="rgb(11.485291%, 11.485291%, 10.700989%)" stop-opacity="1"/>
</linearGradient>
</defs>
<rect x="-200" y="-200" width="2400" height="2400" fill="rgb(100%, 100%, 100%)" fill-opacity="1"/>
<g clip-path="url(#clip-0)">
<g clip-path="url(#clip-1)">
<g clip-path="url(#clip-2)">
<path fill-rule="nonzero" fill="url(#linear-pattern-0)" d="M 333.28125 194.75 L 333.28125 1800.941406 L 1671.050781 1800.941406 L 1671.050781 194.75 Z M 333.28125 194.75 "/>
</g>
</g>
</g>
</svg>
