<?xml version="1.0" encoding="UTF-8"?>
<svg xmlns="http://www.w3.org/2000/svg" xmlns:xlink="http://www.w3.org/1999/xlink" width="2400" height="2400" viewBox="0 0 2400 2400">
<defs>
<clipPath id="clip-0">
<path clip-rule="nonzero" d="M 61.726562 0 L 110.742188 0 L 110.742188 2400 L 61.726562 2400 Z M 61.726562 0 "/>
</clipPath>
<linearGradient id="linear-pattern-0" gradientUnits="userSpaceOnUse" x1="0.0740725" y1="0" x2="0.895127" y2="0" gradientTransform="matrix(39.9373, 2923.34, -2923.34, 39.9373, 67.6219, -216.66)">
<stop offset="0" stop-color="rgb(98.429871%, 98.429871%, 98.429871%)" stop-opacity="1"/>
<stop offset="0.5" stop-color="rgb(98.429871%, 98.429871%, 98.429871%)" stop-opacity="1"/>
<stop offset="0.5625" stop-color="rgb(98.429871%, 98.429871%, 98.429871%)" stop-opacity="1"/>
<stop offset="0.59375" stop-color="rgb(98.376465%, 98.376465%, 98.376465%)" stop-opacity="1"/>
<stop offset="0.625" stop-color="rgb(98.179626%, 98.179626%, 98.179626%)" stop-opacity="1"/>
<stop offset="0.75" stop-color="rgb(98.03772%, 98.03772%, 98.03772%)" stop-opacity="1"/>
<stop offset="1" stop-color="rgb(98.03772%, 98.03772%, 98.03772%)" stop-opacity="1"/>
</linearGradient>
<clipPath id="clip-1">
<path clip-rule="nonzero" d="M 167.796875 0 L 216.816406 0 L 216.816406 2400 L 167.796875 2400 Z M 167.796875 0 "/>
</clipPath>
<linearGradient id="linear-pattern-1" gradientUnits="userSpaceOnUse" x1="0.0740725" y1="0" x2="0.895127" y2="0" gradientTransform="matrix(39.9373, 2923.34, -2923.34, 39.9373, 173.695, -216.66)">
<stop offset="0" stop-color="rgb(98.429871%, 98.429871%, 98.429871%)" stop-opacity="1"/>
<stop offset="0.5" stop-color="rgb(98.429871%, 98.429871%, 98.429871%)" stop-opacity="1"/>
<stop offset="0.5625" stop-color="rgb(98.429871%, 98.429871%, 98.429871%)" stop-opacity="1"/>
<stop offset="0.59375" stop-color="rgb(98.376465%, 98.376465%, 98.376465%)" stop-opacity="1"/>
<stop offset="0.625" stop-color="rgb(98.179626%, 98.179626%, 98.179626%)" stop-opacity="1"/>
<stop offset="0.75" stop-color="rgb(98.03772%, 98.03772%, 98.03772%)" stop-opacity="1"/>
<stop offset="1" stop-color="rgb(98.03772%, 98.03772%, 98.03772%)" stop-opacity="1"/>
</linearGradient>
<clipPath id="clip-2">
<path clip-rule="nonzero" d="M 273.871094 0 L 322.890625 0 L 322.890625 2400 L 273.871094 2400 Z M 273.871094 0 "/>
</clipPath>
<linearGradient id="linear-pattern-2" gradientUnits="userSpaceOnUse" x1="0.0740725" y1="0" x2="0.895127" y2="0" gradientTransform="matrix(39.9373, 2923.34, -2923.34, 39.9373, 279.768, -216.66)">
<stop offset="0" stop-color="rgb(98.429871%, 98.429871%, 98.429871%)" stop-opacity="1"/>
<stop offset="0.5" stop-color="rgb(98.429871%, 98.429871%, 98.429871%)" stop-opacity="1"/>
<stop offset="0.5625" stop-color="rgb(98.429871%, 98.429871%, 98.429871%)" stop-opacity="1"/>
<stop offset="0.59375" stop-color="rgb(98.376465%, 98.376465%, 98.376465%)" stop-opacity="1"/>
<stop offset="0.625" stop-color="rgb(98.179626%, 98.179626%, 98.179626%)" stop-opacity="1"/>
<stop offset="0.75" stop-color="rgb(98.03772%, 98.03772%, 98.03772%)" stop-opacity="1"/>
<stop offset="1" stop-color="rgb(98.03772%, 98.03772%, 98.03772%)" stop-opacity="1"/>
</linearGradient>
<clipPath id="clip-3">
<path clip-rule="nonzero" d="M 379.945312 0 L 428.960938 0 L 428.960938 2400 L 379.945312 2400 Z M 379.945312 0 "/>
</clipPath>
<linearGradient id="linear-pattern-3" gradientUnits="userSpaceOnUse" x1="0.0740725" y1="0" x2="0.895127" y2="0" gradientTransform="matrix(39.9373, 2923.34, -2923.34, 39.9373, 385.841, -216.66)">
<stop offset="0" stop-color="rgb(98.429871%, 98.429871%, 98.429871%)" stop-opacity="1"/>
<stop offset="0.5" stop-color="rgb(98.429871%, 98.429871%, 98.429871%)" stop-opacity="1"/>
<stop offset="0.5625" stop-color="rgb(98.429871%, 98.429871%, 98.429871%)" stop-opacity="1"/>
<stop offset="0.59375" stop-color="rgb(98.376465%, 98.376465%, 98.376465%)" stop-opacity="1"/>
<stop offset="0.625" stop-color="rgb(98.179626%, 98.179626%, 98.179626%)" stop-opacity="1"/>
<stop offset="0.75" stop-color="rgb(98.03772%, 98.03772%, 98.03772%)" stop-opacity="1"/>
<stop offset="1" stop-color="rgb(98.03772%, 98.03772%, 98.03772%)" stop-opacity="1"/>
</linearGradient>
<clipPath id="clip-4">
<path clip-rule="nonzero" d="M 486.015625 0 L 535.035156 0 L 535.035156 2400 L 486.015625 2400 Z M 486.015625 0 "/>
</clipPath>
<linearGradient id="linear-pattern-4" gradientUnits="userSpaceOnUse" x1="0.0740725" y1="0" x2="0.895127" y2="0" gradientTransform="matrix(39.9373, 2923.34, -2923.34, 39.9373, 491.914, -216.66)">
<stop offset="0" stop-color="rgb(98.429871%, 98.429871%, 98.429871%)" stop-opacity="1"/>
<stop offset="0.5" stop-color="rgb(98.429871%, 98.429871%, 98.429871%)" stop-opacity="1"/>
<stop offset="0.5625" stop-color="rgb(98.429871%, 98.429871%, 98.429871%)" stop-opacity="1"/>
<stop offset="0.59375" stop-color="rgb(98.376465%, 98.376465%, 98.376465%)" stop-opacity="1"/>
<stop offset="0.625" stop-color="rgb(98.179626%, 98.179626%, 98.179626%)" stop-opacity="1"/>
<stop offset="0.75" stop-color="rgb(98.03772%, 98.03772%, 98.03772%)" stop-opacity="1"/>
<stop offset="1" stop-color="rgb(98.03772%, 98.03772%, 98.03772%)" stop-opacity="1"/>
</linearGradient>
<clipPath id="clip-5">
<path clip-rule="nonzero" d="M 592.089844 0 L 641.109375 0 L 641.109375 2400 L 592.089844 2400 Z M 592.089844 0 "/>
</clipPath>
<linearGradient id="linear-pattern-5" gradientUnits="userSpaceOnUse" x1="0.0740725" y1="0" x2="0.895127" y2="0" gradientTransform="matrix(39.9373, 2923.34, -2923.34, 39.9373, 597.987, -216.66)">
<stop offset="0" stop-color="rgb(98.429871%, 98.429871%, 98.429871%)" stop-opacity="1"/>
<stop offset="0.5" stop-color="rgb(98.429871%, 98.429871%, 98.429871%)" stop-opacity="1"/>
<stop offset="0.5625" stop-color="rgb(98.429871%, 98.429871%, 98.429871%)" stop-opacity="1"/>
<stop offset="0.59375" stop-color="rgb(98.376465%, 98.376465%, 98.376465%)" stop-opacity="1"/>
<stop offset="0.625" stop-color="rgb(98.179626%, 98.179626%, 98.179626%)" stop-opacity="1"/>
<stop offset="0.75" stop-color="rgb(98.03772%, 98.03772%, 98.03772%)" stop-opacity="1"/>
<stop offset="1" stop-color="rgb(98.03772%, 98.03772%, 98.03772%)" stop-opacity="1"/>
</linearGradient>
<clipPath id="clip-6">
<path clip-rule="nonzero" d="M 698.160156 0 L 747.179688 0 L 747.179688 2400 L 698.160156 2400 Z M 698.160156 0 "/>
</clipPath>
<linearGradient id="linear-pattern-6" gradientUnits="userSpaceOnUse" x1="0.0740725" y1="0" x2="0.895127" y2="0" gradientTransform="matrix(39.9373, 2923.34, -2923.34, 39.9373, 704.06, -216.66)">
<stop offset="0" stop-color="rgb(98.429871%, 98.429871%, 98.429871%)" stop-opacity="1"/>
<stop offset="0.5" stop-color="rgb(98.429871%, 98.429871%, 98.429871%)" stop-opacity="1"/>
<stop offset="0.5625" stop-color="rgb(98.429871%, 98.429871%, 98.429871%)" stop-opacity="1"/>
<stop offset="0.59375" stop-color="rgb(98.376465%, 98.376465%, 98.376465%)" stop-opacity="1"/>
<stop offset="0.625" stop-color="rgb(98.179626%, 98.179626%, 98.179626%)" stop-opacity="1"/>
<stop offset="0.75" stop-color="rgb(98.03772%, 98.03772%, 98.03772%)" stop-opacity="1"/>
<stop offset="1" stop-color="rgb(98.03772%, 98.03772%, 98.03772%)" stop-opacity="1"/>
</linearGradient>
<clipPath id="clip-7">
<path clip-rule="nonzero" d="M 804.234375 0 L 853.253906 0 L 853.253906 2400 L 804.234375 2400 Z M 804.234375 0 "/>
</clipPath>
<linearGradient id="linear-pattern-7" gradientUnits="userSpaceOnUse" x1="0.0740725" y1="0" x2="0.895127" y2="0" gradientTransform="matrix(39.9373, 2923.34, -2923.34, 39.9373, 810.133, -216.66)">
<stop offset="0" stop-color="rgb(98.429871%, 98.429871%, 98.429871%)" stop-opacity="1"/>
<stop offset="0.5" stop-color="rgb(98.429871%, 98.429871%, 98.429871%)" stop-opacity="1"/>
<stop offset="0.5625" stop-color="rgb(98.429871%, 98.429871%, 98.429871%)" stop-opacity="1"/>
<stop offset="0.59375" stop-color="rgb(98.376465%, 98.376465%, 98.376465%)" stop-opacity="1"/>
<stop offset="0.625" stop-color="rgb(98.179626%, 98.179626%, 98.179626%)" stop-opacity="1"/>
<stop offset="0.75" stop-color="rgb(98.03772%, 98.03772%, 98.03772%)" stop-opacity="1"/>
<stop offset="1" stop-color="rgb(98.03772%, 98.03772%, 98.03772%)" stop-opacity="1"/>
</linearGradient>
<clipPath id="clip-8">
<path clip-rule="nonzero" d="M 910.308594 0 L 959.328125 0 L 959.328125 2400 L 910.308594 2400 Z M 910.308594 0 "/>
</clipPath>
<linearGradient id="linear-pattern-8" gradientUnits="userSpaceOnUse" x1="0.0740725" y1="0" x2="0.895127" y2="0" gradientTransform="matrix(39.9373, 2923.34, -2923.34, 39.9373, 916.205, -216.66)">
<stop offset="0" stop-color="rgb(98.429871%, 98.429871%, 98.429871%)" stop-opacity="1"/>
<stop offset="0.5" stop-color="rgb(98.429871%, 98.429871%, 98.429871%)" stop-opacity="1"/>
<stop offset="0.5625" stop-color="rgb(98.429871%, 98.429871%, 98.429871%)" stop-opacity="1"/>
<stop offset="0.59375" stop-color="rgb(98.376465%, 98.376465%, 98.376465%)" stop-opacity="1"/>
<stop offset="0.625" stop-color="rgb(98.179626%, 98.179626%, 98.179626%)" stop-opacity="1"/>
<stop offset="0.75" stop-color="rgb(98.03772%, 98.03772%, 98.03772%)" stop-opacity="1"/>
<stop offset="1" stop-color="rgb(98.03772%, 98.03772%, 98.03772%)" stop-opacity="1"/>
</linearGradient>
<clipPath id="clip-9">
<path clip-rule="nonzero" d="M 1016.378906 0 L 1065.398438 0 L 1065.398438 2400 L 1016.378906 2400 Z M 1016.378906 0 "/>
</clipPath>
<linearGradient id="linear-pattern-9" gradientUnits="userSpaceOnUse" x1="0.0740725" y1="0" x2="0.895127" y2="0" gradientTransform="matrix(39.9373, 2923.34, -2923.34, 39.9373, 1022.28, -216.66)">
<stop offset="0" stop-color="rgb(98.429871%, 98.429871%, 98.429871%)" stop-opacity="1"/>
<stop offset="0.5" stop-color="rgb(98.429871%, 98.429871%, 98.429871%)" stop-opacity="1"/>
<stop offset="0.5625" stop-color="rgb(98.429871%, 98.429871%, 98.429871%)" stop-opacity="1"/>
<stop offset="0.59375" stop-color="rgb(98.376465%, 98.376465%, 98.376465%)" stop-opacity="1"/>
<stop offset="0.625" stop-color="rgb(98.179626%, 98.179626%, 98.179626%)" stop-opacity="1"/>
<stop offset="0.75" stop-color="rgb(98.03772%, 98.03772%, 98.03772%)" stop-opacity="1"/>
<stop offset="1" stop-color="rgb(98.03772%, 98.03772%, 98.03772%)" stop-opacity="1"/>
</linearGradient>
<clipPath id="clip-10">
<path clip-rule="nonzero" d="M 1122.449219 0 L 1171.46875 0 L 1171.46875 2400 L 1122.449219 2400 Z M 1122.449219 0 "/>
</clipPath>
<linearGradient id="linear-pattern-10" gradientUnits="userSpaceOnUse" x1="0.0740725" y1="0" x2="0.895127" y2="0" gradientTransform="matrix(39.9373, 2923.34, -2923.34, 39.9373, 1128.35, -216.66)">
<stop offset="0" stop-color="rgb(98.429871%, 98.429871%, 98.429871%)" stop-opacity="1"/>
<stop offset="0.5" stop-color="rgb(98.429871%, 98.429871%, 98.429871%)" stop-opacity="1"/>
<stop offset="0.5625" stop-color="rgb(98.429871%, 98.429871%, 98.429871%)" stop-opacity="1"/>
<stop offset="0.59375" stop-color="rgb(98.376465%, 98.376465%, 98.376465%)" stop-opacity="1"/>
<stop offset="0.625" stop-color="rgb(98.179626%, 98.179626%, 98.179626%)" stop-opacity="1"/>
<stop offset="0.75" stop-color="rgb(98.03772%, 98.03772%, 98.03772%)" stop-opacity="1"/>
<stop offset="1" stop-color="rgb(98.03772%, 98.03772%, 98.03772%)" stop-opacity="1"/>
</linearGradient>
<clipPath id="clip-11">
<path clip-rule="nonzero" d="M 1228.53125 0 L 1277.550781 0 L 1277.550781 2400 L 1228.53125 2400 Z M 1228.53125 0 "/>
</clipPath>
<linearGradient id="linear-pattern-11" gradientUnits="userSpaceOnUse" x1="0.0740725" y1="0" x2="0.895127" y2="0" gradientTransform="matrix(39.9373, 2923.34, -2923.34, 39.9373, 1234.42, -216.66)">
<stop offset="0" stop-color="rgb(98.429871%, 98.429871%, 98.429871%)" stop-opacity="1"/>
<stop offset="0.5" stop-color="rgb(98.429871%, 98.429871%, 98.429871%)" stop-opacity="1"/>
<stop offset="0.5625" stop-color="rgb(98.429871%, 98.429871%, 98.429871%)" stop-opacity="1"/>
<stop offset="0.59375" stop-color="rgb(98.376465%, 98.376465%, 98.376465%)" stop-opacity="1"/>
<stop offset="0.625" stop-color="rgb(98.179626%, 98.179626%, 98.179626%)" stop-opacity="1"/>
<stop offset="0.75" stop-color="rgb(98.03772%, 98.03772%, 98.03772%)" stop-opacity="1"/>
<stop offset="1" stop-color="rgb(98.03772%, 98.03772%, 98.03772%)" stop-opacity="1"/>
</linearGradient>
<clipPath id="clip-12">
<path clip-rule="nonzero" d="M 1334.601562 0 L 1383.621094 0 L 1383.621094 2400 L 1334.601562 2400 Z M 1334.601562 0 "/>
</clipPath>
<linearGradient id="linear-pattern-12" gradientUnits="userSpaceOnUse" x1="0.0740725" y1="0" x2="0.895127" y2="0" gradientTransform="matrix(39.9373, 2923.34, -2923.34, 39.9373, 1340.5, -216.66)">
<stop offset="0" stop-color="rgb(98.429871%, 98.429871%, 98.429871%)" stop-opacity="1"/>
<stop offset="0.5" stop-color="rgb(98.429871%, 98.429871%, 98.429871%)" stop-opacity="1"/>
<stop offset="0.5625" stop-color="rgb(98.429871%, 98.429871%, 98.429871%)" stop-opacity="1"/>
<stop offset="0.59375" stop-color="rgb(98.376465%, 98.376465%, 98.376465%)" stop-opacity="1"/>
<stop offset="0.625" stop-color="rgb(98.179626%, 98.179626%, 98.179626%)" stop-opacity="1"/>
<stop offset="0.75" stop-color="rgb(98.03772%, 98.03772%, 98.03772%)" stop-opacity="1"/>
<stop offset="1" stop-color="rgb(98.03772%, 98.03772%, 98.03772%)" stop-opacity="1"/>
</linearGradient>
<clipPath id="clip-13">
<path clip-rule="nonzero" d="M 1440.671875 0 L 1489.691406 0 L 1489.691406 2400 L 1440.671875 2400 Z M 1440.671875 0 "/>
</clipPath>
<linearGradient id="linear-pattern-13" gradientUnits="userSpaceOnUse" x1="0.0740725" y1="0" x2="0.895127" y2="0" gradientTransform="matrix(39.9373, 2923.34, -2923.34, 39.9373, 1446.57, -216.66)">
<stop offset="0" stop-color="rgb(98.429871%, 98.429871%, 98.429871%)" stop-opacity="1"/>
<stop offset="0.5" stop-color="rgb(98.429871%, 98.429871%, 98.429871%)" stop-opacity="1"/>
<stop offset="0.5625" stop-color="rgb(98.429871%, 98.429871%, 98.429871%)" stop-opacity="1"/>
<stop offset="0.59375" stop-color="rgb(98.376465%, 98.376465%, 98.376465%)" stop-opacity="1"/>
<stop offset="0.625" stop-color="rgb(98.179626%, 98.179626%, 98.179626%)" stop-opacity="1"/>
<stop offset="0.75" stop-color="rgb(98.03772%, 98.03772%, 98.03772%)" stop-opacity="1"/>
<stop offset="1" stop-color="rgb(98.03772%, 98.03772%, 98.03772%)" stop-opacity="1"/>
</linearGradient>
<clipPath id="clip-14">
<path clip-rule="nonzero" d="M 1546.75 0 L 1595.761719 0 L 1595.761719 2400 L 1546.75 2400 Z M 1546.75 0 "/>
</clipPath>
<linearGradient id="linear-pattern-14" gradientUnits="userSpaceOnUse" x1="0.0740725" y1="0" x2="0.895127" y2="0" gradientTransform="matrix(39.9373, 2923.34, -2923.34, 39.9373, 1552.64, -216.66)">
<stop offset="0" stop-color="rgb(98.429871%, 98.429871%, 98.429871%)" stop-opacity="1"/>
<stop offset="0.5" stop-color="rgb(98.429871%, 98.429871%, 98.429871%)" stop-opacity="1"/>
<stop offset="0.5625" stop-color="rgb(98.429871%, 98.429871%, 98.429871%)" stop-opacity="1"/>
<stop offset="0.59375" stop-color="rgb(98.376465%, 98.376465%, 98.376465%)" stop-opacity="1"/>
<stop offset="0.625" stop-color="rgb(98.179626%, 98.179626%, 98.179626%)" stop-opacity="1"/>
<stop offset="0.75" stop-color="rgb(98.03772%, 98.03772%, 98.03772%)" stop-opacity="1"/>
<stop offset="1" stop-color="rgb(98.03772%, 98.03772%, 98.03772%)" stop-opacity="1"/>
</linearGradient>
<clipPath id="clip-15">
<path clip-rule="nonzero" d="M 1652.820312 0 L 1701.839844 0 L 1701.839844 2400 L 1652.820312 2400 Z M 1652.820312 0 "/>
</clipPath>
<linearGradient id="linear-pattern-15" gradientUnits="userSpaceOnUse" x1="0.0740725" y1="0" x2="0.895127" y2="0" gradientTransform="matrix(39.9373, 2923.34, -2923.34, 39.9373, 1658.72, -216.66)">
<stop offset="0" stop-color="rgb(98.429871%, 98.429871%, 98.429871%)" stop-opacity="1"/>
<stop offset="0.5" stop-color="rgb(98.429871%, 98.429871%, 98.429871%)" stop-opacity="1"/>
<stop offset="0.5625" stop-color="rgb(98.429871%, 98.429871%, 98.429871%)" stop-opacity="1"/>
<stop offset="0.59375" stop-color="rgb(98.376465%, 98.376465%, 98.376465%)" stop-opacity="1"/>
<stop offset="0.625" stop-color="rgb(98.179626%, 98.179626%, 98.179626%)" stop-opacity="1"/>
<stop offset="0.75" stop-color="rgb(98.03772%, 98.03772%, 98.03772%)" stop-opacity="1"/>
<stop offset="1" stop-color="rgb(98.03772%, 98.03772%, 98.03772%)" stop-opacity="1"/>
</linearGradient>
<clipPath id="clip-16">
<path clip-rule="nonzero" d="M 1758.890625 0 L 1807.910156 0 L 1807.910156 2400 L 1758.890625 2400 Z M 1758.890625 0 "/>
</clipPath>
<linearGradient id="linear-pattern-16" gradientUnits="userSpaceOnUse" x1="0.0740725" y1="0" x2="0.895127" y2="0" gradientTransform="matrix(39.9373, 2923.34, -2923.34, 39.9373, 1764.79, -216.66)">
<stop offset="0" stop-color="rgb(98.429871%, 98.429871%, 98.429871%)" stop-opacity="1"/>
<stop offset="0.5" stop-color="rgb(98.429871%, 98.429871%, 98.429871%)" stop-opacity="1"/>
<stop offset="0.5625" stop-color="rgb(98.429871%, 98.429871%, 98.429871%)" stop-opacity="1"/>
<stop offset="0.59375" stop-color="rgb(98.376465%, 98.376465%, 98.376465%)" stop-opacity="1"/>
<stop offset="0.625" stop-color="rgb(98.179626%, 98.179626%, 98.179626%)" stop-opacity="1"/>
<stop offset="0.75" stop-color="rgb(98.03772%, 98.03772%, 98.03772%)" stop-opacity="1"/>
<stop offset="1" stop-color="rgb(98.03772%, 98.03772%, 98.03772%)" stop-opacity="1"/>
</linearGradient>
<clipPath id="clip-17">
<path clip-rule="nonzero" d="M 1864.960938 0 L 1913.980469 0 L 1913.980469 2400 L 1864.960938 2400 Z M 1864.960938 0 "/>
</clipPath>
<linearGradient id="linear-pattern-17" gradientUnits="userSpaceOnUse" x1="0.0740725" y1="0" x2="0.895127" y2="0" gradientTransform="matrix(39.9373, 2923.34, -2923.34, 39.9373, 1870.86, -216.66)">
<stop offset="0" stop-color="rgb(98.429871%, 98.429871%, 98.429871%)" stop-opacity="1"/>
<stop offset="0.5" stop-color="rgb(98.429871%, 98.429871%, 98.429871%)" stop-opacity="1"/>
<stop offset="0.5625" stop-color="rgb(98.429871%, 98.429871%, 98.429871%)" stop-opacity="1"/>
<stop offset="0.59375" stop-color="rgb(98.376465%, 98.376465%, 98.376465%)" stop-opacity="1"/>
<stop offset="0.625" stop-color="rgb(98.179626%, 98.179626%, 98.179626%)" stop-opacity="1"/>
<stop offset="0.75" stop-color="rgb(98.03772%, 98.03772%, 98.03772%)" stop-opacity="1"/>
<stop offset="1" stop-color="rgb(98.03772%, 98.03772%, 98.03772%)" stop-opacity="1"/>
</linearGradient>
<clipPath id="clip-18">
<path clip-rule="nonzero" d="M 1971.039062 0 L 2020.058594 0 L 2020.058594 2400 L 1971.039062 2400 Z M 1971.039062 0 "/>
</clipPath>
<linearGradient id="linear-pattern-18" gradientUnits="userSpaceOnUse" x1="0.0740725" y1="0" x2="0.895127" y2="0" gradientTransform="matrix(39.9373, 2923.34, -2923.34, 39.9373, 1976.93, -216.66)">
<stop offset="0" stop-color="rgb(98.429871%, 98.429871%, 98.429871%)" stop-opacity="1"/>
<stop offset="0.5" stop-color="rgb(98.429871%, 98.429871%, 98.429871%)" stop-opacity="1"/>
<stop offset="0.5625" stop-color="rgb(98.429871%, 98.429871%, 98.429871%)" stop-opacity="1"/>
<stop offset="0.59375" stop-color="rgb(98.376465%, 98.376465%, 98.376465%)" stop-opacity="1"/>
<stop offset="0.625" stop-color="rgb(98.179626%, 98.179626%, 98.179626%)" stop-opacity="1"/>
<stop offset="0.75" stop-color="rgb(98.03772%, 98.03772%, 98.03772%)" stop-opacity="1"/>
<stop offset="1" stop-color="rgb(98.03772%, 98.03772%, 98.03772%)" stop-opacity="1"/>
</linearGradient>
<clipPath id="clip-19">
<path clip-rule="nonzero" d="M 2077.109375 0 L 2126.128906 0 L 2126.128906 2400 L 2077.109375 2400 Z M 2077.109375 0 "/>
</clipPath>
<linearGradient id="linear-pattern-19" gradientUnits="userSpaceOnUse" x1="0.0740725" y1="0" x2="0.895127" y2="0" gradientTransform="matrix(39.9373, 2923.34, -2923.34, 39.9373, 2083.01, -216.66)">
<stop offset="0" stop-color="rgb(98.429871%, 98.429871%, 98.429871%)" stop-opacity="1"/>
<stop offset="0.5" stop-color="rgb(98.429871%, 98.429871%, 98.429871%)" stop-opacity="1"/>
<stop offset="0.5625" stop-color="rgb(98.429871%, 98.429871%, 98.429871%)" stop-opacity="1"/>
<stop offset="0.59375" stop-color="rgb(98.376465%, 98.376465%, 98.376465%)" stop-opacity="1"/>
<stop offset="0.625" stop-color="rgb(98.179626%, 98.179626%, 98.179626%)" stop-opacity="1"/>
<stop offset="0.75" stop-color="rgb(98.03772%, 98.03772%, 98.03772%)" stop-opacity="1"/>
<stop offset="1" stop-color="rgb(98.03772%, 98.03772%, 98.03772%)" stop-opacity="1"/>
</linearGradient>
<clipPath id="clip-20">
<path clip-rule="nonzero" d="M 2183.179688 0 L 2232.199219 0 L 2232.199219 2400 L 2183.179688 2400 Z M 2183.179688 0 "/>
</clipPath>
<linearGradient id="linear-pattern-20" gradientUnits="userSpaceOnUse" x1="0.0740725" y1="0" x2="0.895127" y2="0" gradientTransform="matrix(39.9373, 2923.34, -2923.34, 39.9373, 2189.08, -216.66)">
<stop offset="0" stop-color="rgb(98.429871%, 98.429871%, 98.429871%)" stop-opacity="1"/>
<stop offset="0.5" stop-color="rgb(98.429871%, 98.429871%, 98.429871%)" stop-opacity="1"/>
<stop offset="0.5625" stop-color="rgb(98.429871%, 98.429871%, 98.429871%)" stop-opacity="1"/>
<stop offset="0.59375" stop-color="rgb(98.376465%, 98.376465%, 98.376465%)" stop-opacity="1"/>
<stop offset="0.625" stop-color="rgb(98.179626%, 98.179626%, 98.179626%)" stop-opacity="1"/>
<stop offset="0.75" stop-color="rgb(98.03772%, 98.03772%, 98.03772%)" stop-opacity="1"/>
<stop offset="1" stop-color="rgb(98.03772%, 98.03772%, 98.03772%)" stop-opacity="1"/>
</linearGradient>
<clipPath id="clip-21">
<path clip-rule="nonzero" d="M 2289.261719 0 L 2338.269531 0 L 2338.269531 2400 L 2289.261719 2400 Z M 2289.261719 0 "/>
</clipPath>
<linearGradient id="linear-pattern-21" gradientUnits="userSpaceOnUse" x1="0.0740725" y1="0" x2="0.895127" y2="0" gradientTransform="matrix(39.9373, 2923.34, -2923.34, 39.9373, 2295.15, -216.66)">
<stop offset="0" stop-color="rgb(98.429871%, 98.429871%, 98.429871%)" stop-opacity="1"/>
<stop offset="0.5" stop-color="rgb(98.429871%, 98.429871%, 98.429871%)" stop-opacity="1"/>
<stop offset="0.5625" stop-color="rgb(98.429871%, 98.429871%, 98.429871%)" stop-opacity="1"/>
<stop offset="0.59375" stop-color="rgb(98.376465%, 98.376465%, 98.376465%)" stop-opacity="1"/>
<stop offset="0.625" stop-color="rgb(98.179626%, 98.179626%, 98.179626%)" stop-opacity="1"/>
<stop offset="0.75" stop-color="rgb(98.03772%, 98.03772%, 98.03772%)" stop-opacity="1"/>
<stop offset="1" stop-color="rgb(98.03772%, 98.03772%, 98.03772%)" stop-opacity="1"/>
</linearGradient>
</defs>
<rect x="-240" y="-240" width="2880" height="2880" fill="rgb(100%, 100%, 100%)" fill-opacity="1"/>
<rect x="-240" y="-240" width="2880" height="2880" fill="rgb(100%, 100%, 100%)" fill-opacity="1"/>
<g clip-path="url(#clip-0)">
<path fill-rule="nonzero" fill="url(#linear-pattern-0)" d="M 110.734375 -0.667969 L 28.945312 0.449219 L 61.734375 2400.667969 L 143.523438 2399.550781 Z M 110.734375 -0.667969 "/>
</g>
<g clip-path="url(#clip-1)">
<path fill-rule="nonzero" fill="url(#linear-pattern-1)" d="M 216.808594 -0.667969 L 135.015625 0.449219 L 167.808594 2400.667969 L 249.597656 2399.550781 Z M 216.808594 -0.667969 "/>
</g>
<g clip-path="url(#clip-2)">
<path fill-rule="nonzero" fill="url(#linear-pattern-2)" d="M 322.878906 -0.667969 L 241.089844 0.449219 L 273.878906 2400.667969 L 355.671875 2399.550781 Z M 322.878906 -0.667969 "/>
</g>
<g clip-path="url(#clip-3)">
<path fill-rule="nonzero" fill="url(#linear-pattern-3)" d="M 428.953125 -0.667969 L 347.164062 0.449219 L 379.953125 2400.667969 L 461.742188 2399.550781 Z M 428.953125 -0.667969 "/>
</g>
<g clip-path="url(#clip-4)">
<path fill-rule="nonzero" fill="url(#linear-pattern-4)" d="M 535.027344 -0.667969 L 453.234375 0.449219 L 486.027344 2400.667969 L 567.816406 2399.550781 Z M 535.027344 -0.667969 "/>
</g>
<g clip-path="url(#clip-5)">
<path fill-rule="nonzero" fill="url(#linear-pattern-5)" d="M 641.097656 -0.667969 L 559.308594 0.449219 L 592.097656 2400.667969 L 673.890625 2399.550781 Z M 641.097656 -0.667969 "/>
</g>
<g clip-path="url(#clip-6)">
<path fill-rule="nonzero" fill="url(#linear-pattern-6)" d="M 747.171875 -0.667969 L 665.378906 0.449219 L 698.171875 2400.667969 L 779.960938 2399.550781 Z M 747.171875 -0.667969 "/>
</g>
<g clip-path="url(#clip-7)">
<path fill-rule="nonzero" fill="url(#linear-pattern-7)" d="M 853.246094 -0.667969 L 771.453125 0.449219 L 804.246094 2400.667969 L 886.035156 2399.550781 Z M 853.246094 -0.667969 "/>
</g>
<g clip-path="url(#clip-8)">
<path fill-rule="nonzero" fill="url(#linear-pattern-8)" d="M 959.316406 -0.667969 L 877.527344 0.449219 L 910.316406 2400.667969 L 992.109375 2399.550781 Z M 959.316406 -0.667969 "/>
</g>
<g clip-path="url(#clip-9)">
<path fill-rule="nonzero" fill="url(#linear-pattern-9)" d="M 1065.390625 -0.667969 L 983.597656 0.449219 L 1016.390625 2400.667969 L 1098.179688 2399.550781 Z M 1065.390625 -0.667969 "/>
</g>
<g clip-path="url(#clip-10)">
<path fill-rule="nonzero" fill="url(#linear-pattern-10)" d="M 1171.460938 -0.667969 L 1089.667969 0.449219 L 1122.460938 2400.667969 L 1204.25 2399.550781 Z M 1171.460938 -0.667969 "/>
</g>
<g clip-path="url(#clip-11)">
<path fill-rule="nonzero" fill="url(#linear-pattern-11)" d="M 1277.539062 -0.667969 L 1195.75 0.449219 L 1228.539062 2400.667969 L 1310.332031 2399.550781 Z M 1277.539062 -0.667969 "/>
</g>
<g clip-path="url(#clip-12)">
<path fill-rule="nonzero" fill="url(#linear-pattern-12)" d="M 1383.609375 -0.667969 L 1301.820312 0.449219 L 1334.609375 2400.667969 L 1416.402344 2399.550781 Z M 1383.609375 -0.667969 "/>
</g>
<g clip-path="url(#clip-13)">
<path fill-rule="nonzero" fill="url(#linear-pattern-13)" d="M 1489.679688 -0.667969 L 1407.886719 0.449219 L 1440.679688 2400.667969 L 1522.472656 2399.550781 Z M 1489.679688 -0.667969 "/>
</g>
<g clip-path="url(#clip-14)">
<path fill-rule="nonzero" fill="url(#linear-pattern-14)" d="M 1595.75 -0.667969 L 1513.96875 0.449219 L 1546.757812 2400.667969 L 1628.542969 2399.550781 Z M 1595.75 -0.667969 "/>
</g>
<g clip-path="url(#clip-15)">
<path fill-rule="nonzero" fill="url(#linear-pattern-15)" d="M 1701.832031 -0.667969 L 1620.039062 0.449219 L 1652.828125 2400.667969 L 1734.621094 2399.550781 Z M 1701.832031 -0.667969 "/>
</g>
<g clip-path="url(#clip-16)">
<path fill-rule="nonzero" fill="url(#linear-pattern-16)" d="M 1807.902344 -0.667969 L 1726.109375 0.449219 L 1758.898438 2400.667969 L 1840.691406 2399.550781 Z M 1807.902344 -0.667969 "/>
</g>
<g clip-path="url(#clip-17)">
<path fill-rule="nonzero" fill="url(#linear-pattern-17)" d="M 1913.972656 -0.667969 L 1832.179688 0.449219 L 1864.96875 2400.667969 L 1946.761719 2399.550781 Z M 1913.972656 -0.667969 "/>
</g>
<g clip-path="url(#clip-18)">
<path fill-rule="nonzero" fill="url(#linear-pattern-18)" d="M 2020.050781 -0.667969 L 1938.257812 0.449219 L 1971.050781 2400.667969 L 2052.839844 2399.550781 Z M 2020.050781 -0.667969 "/>
</g>
<g clip-path="url(#clip-19)">
<path fill-rule="nonzero" fill="url(#linear-pattern-19)" d="M 2126.121094 -0.667969 L 2044.328125 0.449219 L 2077.121094 2400.667969 L 2158.910156 2399.550781 Z M 2126.121094 -0.667969 "/>
</g>
<g clip-path="url(#clip-20)">
<path fill-rule="nonzero" fill="url(#linear-pattern-20)" d="M 2232.191406 -0.667969 L 2150.398438 0.449219 L 2183.1875 2400.667969 L 2264.980469 2399.550781 Z M 2232.191406 -0.667969 "/>
</g>
<g clip-path="url(#clip-21)">
<path fill-rule="nonzero" fill="url(#linear-pattern-21)" d="M 2338.261719 -0.667969 L 2256.476562 0.449219 L 2289.269531 2400.667969 L 2371.050781 2399.550781 Z M 2338.261719 -0.667969 "/>
</g>
<path fill-rule="nonzero" fill="rgb(4.704285%, 9.008789%, 33.714294%)" fill-opacity="1" d="M 2059.441406 1597.820312 C 2059.011719 1596.5 2058.511719 1595.28125 2058.03125 1594.101562 C 2057.570312 1592.96875 2057.128906 1591.910156 2056.769531 1590.789062 L 2055.949219 1588.289062 L 2053.359375 1588.78125 C 2051.058594 1589.210938 2048.671875 1589.710938 2046.351562 1590.199219 C 2043.980469 1590.691406 2041.53125 1591.199219 2039.101562 1591.660156 C 2038.328125 1590.949219 2037.558594 1590.21875 2036.808594 1589.511719 C 2031.648438 1584.628906 2026.320312 1579.578125 2018.101562 1578.488281 L 2016.460938 1578.28125 L 2008.71875 1587.539062 C 2007.988281 1587.449219 2007.269531 1587.339844 2006.570312 1587.230469 C 2006.039062 1587.148438 2005.5 1587.070312 2004.949219 1586.988281 C 2004.191406 1585.539062 2003.410156 1584.140625 2002.640625 1582.761719 C 2001.648438 1581 2000.628906 1579.179688 1999.710938 1577.351562 L 1998.96875 1575.871094 L 1992.109375 1575.199219 C 1990.28125 1572.199219 1988.390625 1569.191406 1986.550781 1566.261719 C 1984.609375 1563.179688 1982.621094 1559.988281 1980.699219 1556.851562 L 1980.660156 1556.109375 C 1980.25 1548.230469 1979.828125 1540.089844 1973.53125 1533.351562 L 1972.699219 1532.460938 L 1971.488281 1532.398438 C 1967.871094 1532.210938 1964.078125 1531.949219 1960.429688 1531.710938 C 1956.691406 1531.449219 1952.820312 1531.191406 1948.980469 1530.988281 C 1948.191406 1530.519531 1947.398438 1530.058594 1946.609375 1529.601562 C 1937.691406 1524.398438 1929.890625 1519.839844 1925.101562 1511.519531 C 1931.378906 1508.308594 1938.738281 1508.210938 1946.480469 1508.109375 C 1950.101562 1508.070312 1953.839844 1508.019531 1957.46875 1507.628906 L 1958.808594 1507.480469 L 1959.589844 1506.390625 C 1960.578125 1505.011719 1961.558594 1503.699219 1962.550781 1502.398438 C 1963.558594 1501.058594 1964.558594 1499.71875 1965.570312 1498.308594 L 1966.21875 1497.410156 L 1966.121094 1496.308594 C 1965.621094 1490.441406 1964.828125 1484.570312 1964.058594 1478.898438 L 1963.910156 1477.800781 L 1963.089844 1477.058594 C 1961.320312 1475.480469 1959.570312 1473.78125 1957.878906 1472.128906 C 1956.390625 1470.679688 1954.851562 1469.179688 1953.261719 1467.730469 C 1952.488281 1464.179688 1951.710938 1460.691406 1950.941406 1457.191406 C 1950.289062 1454.269531 1949.640625 1451.339844 1948.988281 1448.378906 C 1950.800781 1446.660156 1952.691406 1444.988281 1954.660156 1443.238281 C 1955.929688 1442.121094 1957.199219 1440.988281 1958.480469 1439.828125 L 1959.421875 1438.980469 L 1959.460938 1437.71875 C 1960.269531 1414.570312 1960.988281 1393.441406 1961.660156 1373.109375 L 1961.671875 1372.808594 L 1961.621094 1372.511719 C 1959.421875 1359.46875 1952.429688 1348.730469 1945.679688 1338.339844 C 1945.21875 1337.640625 1944.761719 1336.941406 1944.308594 1336.230469 C 1945.421875 1334.789062 1946.5 1333.328125 1947.550781 1331.910156 C 1948.75 1330.289062 1949.980469 1328.640625 1951.21875 1327.039062 C 1952.261719 1326.960938 1953.28125 1326.910156 1954.351562 1326.851562 C 1955.828125 1326.769531 1957.359375 1326.691406 1958.960938 1326.53125 L 1962.160156 1326.21875 L 1961.628906 1323.050781 C 1960.691406 1317.429688 1956.699219 1313.921875 1953.179688 1310.828125 C 1951.921875 1309.71875 1950.730469 1308.671875 1949.691406 1307.550781 L 1948.789062 1306.601562 L 1940.878906 1306.648438 L 1939.988281 1307.898438 C 1935.808594 1313.761719 1932.058594 1318.519531 1926.261719 1320.96875 C 1924.691406 1318.351562 1923.078125 1315.730469 1921.511719 1313.179688 C 1919.671875 1310.191406 1917.78125 1307.121094 1915.96875 1304.078125 C 1916.011719 1303.5 1916.070312 1302.859375 1916.160156 1302.199219 L 1916.320312 1302.191406 C 1917.128906 1302.121094 1917.890625 1302.050781 1918.609375 1302.050781 L 1922.699219 1302.019531 L 1921.449219 1298.128906 C 1920.460938 1295.058594 1919.378906 1291.949219 1918.351562 1288.941406 C 1917.328125 1286 1916.28125 1282.960938 1915.320312 1279.96875 L 1914.808594 1278.398438 L 1913.210938 1277.988281 C 1910.839844 1277.378906 1908.359375 1276.851562 1905.960938 1276.339844 C 1903.988281 1275.921875 1901.960938 1275.488281 1899.96875 1275 L 1897.308594 1274.359375 L 1896.421875 1276.949219 C 1895.859375 1278.601562 1895.300781 1280.179688 1894.730469 1281.761719 C 1894.378906 1282.761719 1894.019531 1283.769531 1893.660156 1284.789062 C 1891.730469 1284.949219 1889.769531 1285.078125 1887.859375 1285.210938 C 1879.050781 1285.789062 1869.960938 1286.390625 1861.660156 1290.769531 C 1860.199219 1290.128906 1858.75 1289.449219 1857.339844 1288.78125 C 1855.871094 1288.089844 1854.351562 1287.378906 1852.800781 1286.699219 C 1851.46875 1282.269531 1850.148438 1277.789062 1848.820312 1273.308594 C 1847.210938 1267.890625 1845.609375 1262.460938 1844 1257.101562 L 1843.351562 1254.960938 L 1841.109375 1254.96875 C 1840.949219 1254.96875 1840.789062 1254.96875 1840.640625 1254.980469 C 1840.558594 1254.609375 1840.480469 1254.238281 1840.410156 1253.871094 C 1840.128906 1252.578125 1839.859375 1251.28125 1839.578125 1249.921875 L 1839.320312 1248.640625 L 1838.210938 1247.949219 C 1837.140625 1247.300781 1836.070312 1246.578125 1834.941406 1245.808594 C 1833.808594 1245.050781 1832.648438 1244.261719 1831.46875 1243.539062 L 1829.710938 1242.460938 L 1828.070312 1243.71875 C 1823.011719 1247.601562 1816.578125 1248.210938 1809.769531 1248.859375 C 1807.480469 1249.078125 1805.128906 1249.300781 1802.800781 1249.660156 C 1801.179688 1244.039062 1799.460938 1238.589844 1797.660156 1232.878906 L 1795.371094 1225.601562 L 1792.570312 1226.378906 C 1784.210938 1228.710938 1775.851562 1231.039062 1767.480469 1233.371094 C 1767.378906 1233.25 1767.28125 1233.121094 1767.171875 1232.988281 C 1765.480469 1230.890625 1763.738281 1228.75 1762.53125 1226.449219 C 1764.589844 1225.769531 1766.660156 1225.078125 1768.679688 1224.398438 C 1771.730469 1223.371094 1774.890625 1222.300781 1777.980469 1221.328125 L 1780.078125 1220.671875 L 1780.078125 1218.46875 C 1780.078125 1210.371094 1780 1202.230469 1779.929688 1194.359375 C 1779.871094 1187.589844 1779.800781 1180.609375 1779.789062 1173.730469 C 1781.578125 1172.101562 1783.378906 1170.5 1785.128906 1168.941406 C 1787.199219 1167.101562 1789.339844 1165.210938 1791.460938 1163.261719 L 1792.660156 1162.148438 L 1792.378906 1160.539062 C 1791.519531 1155.609375 1790.570312 1150.679688 1789.648438 1145.910156 C 1788.761719 1141.261719 1787.828125 1136.460938 1786.988281 1131.679688 L 1786.601562 1129.449219 L 1784.351562 1129.210938 C 1780.449219 1128.800781 1776.570312 1128.449219 1772.828125 1128.109375 C 1768.578125 1127.730469 1764.558594 1127.359375 1760.46875 1126.921875 L 1759.480469 1126.808594 L 1758.621094 1127.320312 C 1757.191406 1128.160156 1755.828125 1129 1754.480469 1129.851562 C 1753.171875 1130.660156 1751.851562 1131.480469 1750.46875 1132.289062 L 1749.289062 1132.988281 L 1749.050781 1134.339844 C 1749.03125 1134.449219 1749.011719 1134.570312 1748.980469 1134.679688 C 1748.800781 1134.269531 1748.621094 1133.851562 1748.441406 1133.429688 C 1745.089844 1125.75 1741.371094 1117.199219 1733.539062 1112.761719 L 1733.910156 1112.398438 L 1730.359375 1107.140625 C 1734.898438 1106.839844 1739.449219 1106.511719 1743.890625 1106.179688 C 1750.179688 1105.730469 1756.679688 1105.25 1763.070312 1104.859375 L 1765.179688 1104.730469 L 1765.769531 1102.691406 C 1766.75 1099.28125 1767.5 1095.730469 1768.21875 1092.300781 L 1768.730469 1089.941406 L 1768.589844 1089.300781 C 1763.988281 1068.210938 1759.550781 1046.46875 1755.25 1025.449219 L 1755.121094 1024.808594 C 1757.691406 1024.101562 1760.210938 1023.351562 1762.679688 1022.628906 C 1765.320312 1021.851562 1767.820312 1021.109375 1770.359375 1020.410156 L 1771.511719 1020.101562 L 1772.128906 1019.070312 C 1772.640625 1018.230469 1773.03125 1017.378906 1773.410156 1016.550781 C 1773.730469 1015.851562 1774.03125 1015.191406 1774.359375 1014.648438 L 1774.960938 1013.640625 L 1774.730469 1012.488281 C 1772.871094 1003.480469 1771.839844 994.128906 1770.828125 985.101562 C 1769.011719 968.699219 1767.128906 951.75 1760.289062 935.96875 L 1759.710938 934.628906 L 1758.289062 934.261719 C 1757.070312 933.949219 1755.800781 933.710938 1754.570312 933.480469 C 1753.398438 933.261719 1752.289062 933.058594 1751.261719 932.789062 L 1750.46875 932.589844 L 1749.671875 932.820312 C 1745.039062 934.171875 1740.351562 935.519531 1735.648438 936.871094 C 1730.128906 938.460938 1724.601562 940.058594 1719.148438 941.648438 L 1716.921875 942.308594 L 1716.988281 944.621094 C 1717.179688 951.160156 1717.289062 957.808594 1717.398438 964.238281 C 1717.488281 969.558594 1717.589844 975.039062 1717.71875 980.480469 C 1716.820312 980.660156 1715.949219 980.839844 1715.109375 981.019531 C 1701.101562 983.898438 1695.488281 985.058594 1680.828125 979.890625 C 1680.839844 978.140625 1680.878906 976.359375 1680.921875 974.5 C 1680.980469 971.851562 1681.039062 969.109375 1681.019531 966.378906 L 1681.011719 964.949219 L 1679.890625 964.050781 C 1679.199219 963.488281 1678.429688 962.871094 1677.660156 962.238281 C 1677.160156 961.828125 1676.660156 961.421875 1676.171875 961.03125 C 1675.898438 959.929688 1675.660156 958.851562 1675.421875 957.800781 C 1675.128906 956.539062 1674.851562 955.339844 1674.550781 954.128906 C 1676.429688 952.191406 1678.308594 950.089844 1680.128906 948.058594 L 1681.191406 946.878906 L 1680.820312 945.351562 C 1680.25 943.03125 1679.75 940.578125 1679.25 938.210938 C 1678.75 935.769531 1678.230469 933.261719 1677.640625 930.828125 L 1677.378906 929.78125 L 1676.53125 929.140625 C 1676.171875 928.871094 1675.789062 928.609375 1675.398438 928.328125 C 1674.609375 927.78125 1673.789062 927.199219 1673.171875 926.589844 L 1672.050781 925.46875 L 1670.5 925.769531 C 1664.398438 926.921875 1658.421875 928.300781 1651.429688 930.171875 C 1651.128906 929.441406 1650.851562 928.710938 1650.578125 928 L 1648.359375 922 L 1648.308594 922.089844 C 1647.339844 916.78125 1646.378906 911.441406 1645.449219 906.230469 C 1644.070312 898.480469 1642.640625 890.460938 1641.160156 882.640625 L 1640.5 879.148438 L 1637.171875 880.378906 C 1625.511719 884.691406 1615.03125 889.121094 1606.738281 898.011719 C 1606.460938 895.050781 1606.171875 892.101562 1605.890625 889.199219 C 1605.378906 883.96875 1604.859375 878.570312 1604.410156 873.328125 L 1603.859375 866.941406 L 1599.300781 871.460938 C 1592.699219 878.019531 1586.429688 884.230469 1580.089844 890.769531 C 1579.328125 890.601562 1578.550781 890.429688 1577.769531 890.261719 C 1577.128906 890.121094 1576.5 889.980469 1575.871094 889.839844 C 1575.679688 888.589844 1575.488281 887.351562 1575.300781 886.121094 C 1575.078125 884.660156 1574.851562 883.210938 1574.628906 881.71875 C 1575.589844 880.570312 1576.558594 879.449219 1577.5 878.351562 C 1578.738281 876.910156 1580.03125 875.421875 1581.300781 873.871094 L 1582.539062 872.359375 L 1581.660156 870.609375 C 1581.390625 870.089844 1581.128906 869.488281 1580.859375 868.898438 C 1580.558594 868.230469 1580.25 867.558594 1579.949219 866.960938 L 1578.679688 864.449219 L 1575.761719 865.699219 C 1576.238281 865.191406 1576.71875 864.691406 1577.179688 864.191406 L 1578.609375 862.660156 L 1576.828125 859.128906 C 1577.101562 858.78125 1577.371094 858.429688 1577.628906 858.078125 C 1578.25 857.261719 1578.828125 856.480469 1579.480469 855.699219 L 1580.96875 853.921875 L 1578.710938 850.75 C 1577.859375 849.550781 1577.050781 848.410156 1576.140625 847.261719 C 1575.941406 844.429688 1575.898438 841.699219 1575.878906 838.839844 C 1576.050781 838.628906 1576.21875 838.429688 1576.390625 838.230469 C 1576.839844 837.71875 1577.289062 837.191406 1577.769531 836.550781 L 1579.121094 834.75 L 1573.769531 827.640625 L 1571.578125 828.640625 C 1569.441406 829.621094 1567.28125 830.671875 1565.191406 831.691406 C 1564.019531 832.269531 1562.820312 832.859375 1561.628906 833.429688 C 1556.820312 823.871094 1551.921875 813.949219 1547.449219 804.859375 C 1557.238281 801.699219 1567.03125 798.550781 1576.820312 795.398438 L 1578.089844 794.988281 L 1578.640625 793.78125 C 1580.75 789.070312 1582.871094 784.300781 1584.980469 779.519531 C 1586.988281 774.988281 1589 770.449219 1591 765.980469 L 1591.46875 764.941406 L 1591.128906 763.851562 C 1590.558594 762.039062 1589.980469 760.148438 1589.410156 758.261719 C 1589.210938 757.609375 1589.011719 756.960938 1588.808594 756.308594 L 1588.96875 756.308594 L 1590.601562 756.328125 L 1591.511719 754.96875 C 1592.601562 753.328125 1593.691406 751.75 1594.78125 750.179688 C 1595.898438 748.570312 1597.019531 746.960938 1598.128906 745.28125 L 1601.429688 740.320312 L 1595.480469 740.628906 C 1593.441406 740.730469 1591.339844 740.769531 1589.308594 740.808594 C 1588.53125 740.828125 1587.738281 740.839844 1586.949219 740.859375 C 1587.128906 740.128906 1587.289062 739.410156 1587.460938 738.691406 C 1587.789062 737.300781 1588.121094 735.871094 1588.46875 734.488281 C 1588.609375 734.441406 1588.75 734.398438 1588.878906 734.359375 C 1589.460938 734.171875 1589.960938 734.011719 1590.46875 733.921875 L 1592.949219 733.460938 L 1592.921875 730.941406 C 1592.898438 728.058594 1592.800781 725.25 1592.699219 722.519531 C 1592.640625 720.648438 1592.570312 718.851562 1592.53125 717.050781 L 1592.691406 717.019531 C 1593.570312 716.808594 1594.480469 716.601562 1595.421875 716.289062 L 1598.730469 715.238281 L 1597.210938 712.121094 C 1595.230469 708.070312 1593.179688 703.949219 1591.128906 699.828125 C 1589.230469 696.019531 1587.339844 692.210938 1585.488281 688.449219 C 1586.289062 686.070312 1587.019531 683.621094 1587.738281 681.230469 C 1588.261719 679.488281 1588.800781 677.699219 1589.359375 675.929688 C 1594.5 672.890625 1599.460938 669.820312 1604.261719 666.839844 L 1605.628906 665.988281 L 1605.878906 664.710938 C 1606.839844 659.78125 1607.800781 654.910156 1608.761719 650.039062 C 1609.910156 644.191406 1611.058594 638.351562 1612.210938 632.429688 L 1612.648438 630.148438 L 1610.558594 629.148438 C 1608.71875 628.269531 1606.960938 627.46875 1605.191406 626.660156 C 1603.449219 625.871094 1601.710938 625.070312 1599.910156 624.210938 L 1597.628906 623.121094 L 1596.171875 625.171875 C 1595.511719 626.101562 1594.839844 626.96875 1594.179688 627.828125 C 1593.769531 628.371094 1593.359375 628.910156 1592.949219 629.460938 C 1592.550781 629.480469 1592.160156 629.5 1591.78125 629.53125 C 1591.589844 629.539062 1591.410156 629.550781 1591.21875 629.558594 C 1589.820312 627 1588.460938 624.46875 1587.101562 621.949219 C 1585.710938 619.371094 1584.308594 616.789062 1582.878906 614.171875 C 1583.570312 612.671875 1584.238281 611.148438 1584.898438 609.671875 C 1589.621094 599 1594.070312 588.921875 1605.230469 586.089844 L 1606.570312 585.75 L 1607.179688 584.5 C 1609.390625 580 1611.328125 575.460938 1613.199219 571.078125 L 1614.339844 568.398438 L 1611.699219 567.179688 C 1604.238281 563.71875 1596.648438 562.800781 1588.058594 564.359375 C 1588.050781 564.25 1588.050781 564.148438 1588.050781 564.039062 L 1587.96875 558.050781 L 1583.21875 561.699219 C 1581.988281 562.648438 1580.828125 563.519531 1579.671875 564.398438 C 1579.398438 564.609375 1579.121094 564.820312 1578.839844 565.03125 C 1575.339844 557.648438 1574.929688 549.058594 1574.511719 540.03125 C 1573.960938 528.609375 1573.398438 516.800781 1566.210938 507.011719 C 1566.199219 505.140625 1566.230469 503.238281 1566.269531 501.398438 C 1566.308594 499.171875 1566.351562 496.859375 1566.320312 494.570312 L 1566.300781 492.800781 L 1564.730469 491.960938 C 1560.289062 489.589844 1555.371094 488.679688 1550.621094 487.789062 C 1548.25 487.351562 1545.800781 486.898438 1543.511719 486.269531 L 1538.769531 484.96875 L 1539.78125 489.78125 C 1540.089844 491.25 1540.46875 492.710938 1540.828125 494.128906 C 1540.871094 494.269531 1540.910156 494.410156 1540.941406 494.550781 C 1539.070312 494.539062 1537.191406 494.550781 1535.351562 494.558594 C 1532.328125 494.570312 1529.210938 494.578125 1526.21875 494.519531 L 1522.371094 494.449219 L 1523.238281 498.199219 C 1523.808594 500.679688 1524.328125 503.300781 1524.839844 505.828125 C 1524.859375 505.929688 1524.878906 506.03125 1524.898438 506.128906 C 1523.710938 505.28125 1522.519531 504.441406 1521.289062 503.601562 L 1514.949219 499.261719 L 1516.730469 506.988281 C 1517.691406 511.140625 1518.671875 515.410156 1519.648438 519.800781 C 1516.96875 520.589844 1513.941406 520.089844 1510.53125 519.519531 C 1506.261719 518.808594 1501.5 518.03125 1496.789062 519.898438 C 1495.949219 518.519531 1495.070312 517.171875 1494.160156 515.769531 C 1493.609375 514.929688 1493.058594 514.078125 1492.5 513.210938 L 1491.878906 512.21875 L 1485.21875 510.441406 C 1480.078125 502.089844 1474.089844 492.988281 1461.851562 493.738281 L 1460.710938 493.808594 L 1459.898438 494.621094 C 1457.820312 496.710938 1455.789062 498.820312 1453.828125 500.859375 C 1452.460938 502.28125 1451.058594 503.730469 1449.648438 505.179688 C 1444.851562 501.230469 1440.980469 496.128906 1436.910156 490.769531 C 1434.289062 487.328125 1431.589844 483.769531 1428.601562 480.519531 C 1428.238281 478.570312 1427.921875 476.539062 1427.609375 474.570312 C 1427.25 472.269531 1426.871094 469.878906 1426.429688 467.578125 L 1426.25 466.648438 L 1412.941406 453.921875 C 1415.261719 446.058594 1415.058594 437.789062 1412.320312 428.160156 C 1413.601562 426.511719 1414.878906 424.988281 1416.238281 423.390625 L 1416.789062 422.738281 L 1419.421875 404.921875 L 1418.921875 404.03125 C 1417.628906 401.71875 1416.269531 399.480469 1414.949219 397.308594 C 1413.648438 395.171875 1412.300781 392.949219 1411.058594 390.730469 L 1410.609375 389.921875 L 1409.769531 389.5 C 1407.089844 388.191406 1404.339844 386.871094 1401.601562 385.550781 C 1398.929688 384.269531 1396.261719 382.988281 1393.671875 381.710938 L 1392.300781 381.039062 L 1390.941406 381.75 C 1386.929688 383.871094 1383.039062 385.820312 1379.28125 387.699219 C 1378.050781 386.679688 1376.808594 385.660156 1375.601562 384.660156 C 1373.878906 383.25 1372.160156 381.839844 1370.5 380.441406 L 1369.46875 379.558594 L 1368.128906 379.75 C 1366.25 380.019531 1364.441406 380.300781 1362.640625 380.570312 C 1360.988281 380.820312 1359.339844 381.070312 1357.628906 381.320312 L 1356.210938 381.53125 L 1355.480469 382.769531 C 1355.050781 383.5 1354.699219 384.148438 1354.339844 384.800781 C 1354.28125 384.910156 1354.21875 385.019531 1354.160156 385.128906 C 1352.96875 385.058594 1351.800781 384.929688 1350.550781 384.769531 C 1350.460938 384.609375 1350.359375 384.460938 1350.261719 384.300781 C 1349.941406 383.78125 1349.628906 383.289062 1349.421875 382.839844 L 1348.308594 380.621094 L 1345.921875 381.289062 C 1343.121094 382.070312 1340.261719 382.71875 1337.441406 383.328125 C 1336.800781 380.25 1336.148438 377.03125 1335.519531 373.898438 L 1334.929688 370.980469 L 1332 371.550781 C 1330.691406 371.808594 1329.449219 371.988281 1328.140625 372.191406 C 1327.25 372.328125 1326.339844 372.46875 1325.398438 372.628906 C 1319.980469 368.238281 1312.78125 363.699219 1303.558594 363.898438 C 1301.769531 362.210938 1299.96875 360.558594 1298.230469 358.960938 C 1296.191406 357.078125 1294.078125 355.140625 1292.011719 353.179688 L 1290.890625 352.109375 L 1289.359375 352.410156 C 1287.921875 352.691406 1286.421875 353.050781 1284.960938 353.390625 C 1284.160156 353.578125 1283.339844 353.78125 1282.53125 353.960938 C 1282.300781 353.691406 1282.070312 353.421875 1281.839844 353.160156 C 1281.21875 352.46875 1280.648438 351.808594 1280.140625 351.179688 L 1279.519531 350.390625 L 1278.550781 350.128906 C 1268.921875 347.570312 1261.5 354.261719 1254.949219 360.171875 C 1252.039062 362.800781 1249.28125 365.28125 1246.5 366.890625 L 1243.441406 368.660156 L 1245.679688 371.390625 C 1246.351562 372.210938 1247.019531 373.089844 1247.679688 373.96875 C 1248.160156 374.601562 1248.648438 375.25 1249.140625 375.871094 C 1249.121094 376.609375 1249.070312 377.390625 1249.03125 378.191406 C 1249 378.789062 1248.960938 379.410156 1248.941406 380.019531 C 1248.378906 380.320312 1247.839844 380.609375 1247.300781 380.898438 C 1246.289062 381.449219 1245.269531 382 1244.191406 382.539062 L 1241.980469 383.660156 L 1242.660156 386.039062 C 1242.910156 386.949219 1243.109375 387.800781 1243.308594 388.699219 C 1243.53125 389.640625 1243.75 390.609375 1244.050781 391.660156 L 1244.199219 392.179688 C 1243 400.78125 1241.808594 409.378906 1240.609375 417.980469 C 1239.738281 418.558594 1238.929688 419.160156 1238.191406 419.699219 C 1237.601562 420.128906 1237.03125 420.558594 1236.460938 420.949219 L 1235.621094 421.511719 C 1233.671875 421.679688 1231.660156 421.851562 1229.621094 422.011719 C 1227.121094 420.121094 1224.609375 418.269531 1222.160156 416.46875 C 1219.800781 414.71875 1217.359375 412.929688 1214.949219 411.109375 C 1214.578125 407.449219 1214.210938 403.738281 1213.828125 400.03125 C 1213.449219 396.210938 1213.070312 392.398438 1212.679688 388.640625 C 1217.398438 380.421875 1219.078125 372.269531 1218.101562 362.371094 L 1217.988281 361.320312 L 1217.25 360.558594 C 1216.5 359.800781 1215.46875 358.75 1214.769531 357.789062 L 1214.050781 356.820312 L 1212.851562 356.621094 C 1211.128906 356.320312 1209.410156 356.101562 1207.738281 355.890625 C 1206.070312 355.679688 1204.5 355.480469 1202.910156 355.210938 L 1202.03125 355.058594 L 1201.210938 355.410156 C 1197.269531 357.128906 1193.609375 358.851562 1190.078125 360.511719 L 1189.191406 360.929688 L 1188.71875 361.800781 C 1187.210938 364.589844 1185.699219 367.460938 1184.191406 370.320312 C 1182.898438 372.761719 1181.609375 375.199219 1180.328125 377.589844 C 1174.988281 378.25 1169.511719 378.910156 1164 379.570312 L 1163.5 379.621094 C 1163.191406 377.511719 1162.859375 375.421875 1162.539062 373.378906 C 1162.179688 371.128906 1161.820312 368.820312 1161.480469 366.488281 C 1163.589844 365.550781 1165.699219 364.628906 1167.761719 363.738281 C 1170.46875 362.558594 1173.269531 361.339844 1176.039062 360.070312 L 1176.800781 359.71875 L 1177.269531 359.03125 C 1186.769531 345.070312 1186.53125 333.710938 1186.21875 319.320312 C 1186.171875 317.171875 1186.121094 314.941406 1186.109375 312.609375 L 1186.101562 311.699219 L 1177.648438 299.238281 L 1176.808594 298.898438 C 1176.039062 298.578125 1175.359375 298.359375 1174.710938 298.140625 C 1174.140625 297.941406 1173.578125 297.761719 1172.949219 297.5 L 1171.570312 296.941406 L 1170.289062 297.710938 C 1167.390625 299.429688 1164.699219 301.359375 1162.109375 303.28125 C 1160.621094 302.550781 1159.109375 301.78125 1157.640625 301.039062 C 1155.589844 299.988281 1153.460938 298.910156 1151.339844 297.910156 L 1149.621094 297.101562 L 1148.148438 298.308594 C 1143.160156 302.421875 1138.171875 306.671875 1133.328125 310.78125 C 1128.730469 314.691406 1123.980469 318.730469 1119.230469 322.648438 C 1117.390625 322.929688 1115.601562 323.25 1113.871094 323.570312 C 1112.308594 323.851562 1110.71875 324.140625 1109.121094 324.390625 C 1105.808594 322.03125 1102.351562 319.679688 1098.96875 317.398438 C 1098.25 313.578125 1097.570312 309.761719 1096.910156 306.058594 C 1096.179688 302.019531 1095.441406 297.839844 1094.640625 293.648438 L 1094.46875 292.761719 L 1088.929688 287.128906 L 1076.890625 286.210938 L 1076.050781 286.761719 C 1067.460938 292.320312 1060.339844 299.988281 1053.070312 311.539062 C 1048.101562 312.558594 1043.140625 313.570312 1038.171875 314.589844 C 1037.289062 314.019531 1036.449219 313.46875 1035.601562 312.921875 C 1034.890625 312.449219 1034.179688 311.988281 1033.449219 311.511719 C 1033.480469 310.710938 1033.53125 309.890625 1033.578125 309.050781 C 1033.640625 307.96875 1033.699219 306.859375 1033.730469 305.738281 C 1035.910156 302.980469 1038.058594 300.199219 1040.140625 297.5 C 1042.371094 294.601562 1044.679688 291.609375 1047.011719 288.679688 L 1047.5 288.050781 L 1047.621094 287.269531 C 1048.078125 284.261719 1048.628906 281.289062 1049.171875 278.410156 C 1049.621094 275.96875 1050.089844 273.449219 1050.488281 270.96875 L 1050.621094 270.171875 L 1050.320312 269.410156 C 1048.160156 263.808594 1045.699219 258.148438 1043.320312 252.679688 L 1042.910156 251.738281 L 1042.199219 251.25 C 1029.648438 242.621094 1015.300781 243.289062 1001.421875 243.949219 C 989.421875 244.511719 978.078125 245.039062 968.113281 239.878906 C 967.265625 238.808594 966.417969 237.710938 965.601562 236.660156 C 964.386719 235.078125 963.234375 233.601562 962.1875 232.339844 L 962.015625 231.738281 C 960.773438 227.339844 959.527344 222.871094 958.289062 218.410156 C 957.492188 215.539062 956.695312 212.691406 955.898438 209.851562 L 955.957031 209.839844 L 955.242188 206.539062 C 953.265625 197.429688 949.183594 190.640625 942.386719 185.179688 L 942.246094 185.070312 C 936.109375 180.71875 929.875 176.230469 923.847656 171.890625 C 917.09375 167.03125 910.113281 162 903.25 157.140625 L 903.019531 156.980469 L 902.765625 156.859375 C 892.464844 152.140625 881.472656 152.671875 870.835938 153.179688 L 867.5 153.328125 L 843.519531 169.898438 C 836.621094 169.519531 832.457031 166.371094 827.667969 162.761719 C 821.929688 158.429688 815.472656 153.558594 803.828125 153.859375 C 803.777344 153.589844 803.726562 153.320312 803.679688 153.039062 C 803.574219 152.46875 803.472656 151.921875 803.390625 151.390625 C 804.425781 149.199219 805.460938 146.960938 806.492188 144.710938 C 807.625 142.269531 808.753906 139.820312 809.878906 137.449219 L 810.945312 135.199219 L 808.933594 133.730469 C 806.882812 132.238281 804.808594 130.808594 802.808594 129.429688 C 800.847656 128.070312 798.820312 126.671875 796.839844 125.230469 L 795.828125 124.5 L 786.59375 126.011719 L 785.886719 127.269531 C 784.882812 129.070312 783.929688 130.921875 783.003906 132.710938 C 779.070312 140.320312 775.351562 147.53125 767.929688 151 C 765.773438 150.96875 763.664062 150.980469 761.621094 151 C 759.449219 151.011719 757.203125 151.03125 754.949219 150.980469 L 753.773438 150.960938 L 752.894531 151.738281 C 747.507812 156.519531 742.035156 161.628906 736.730469 166.589844 C 734.960938 166.890625 733.355469 167.191406 731.753906 167.480469 L 730.417969 167.730469 L 729.71875 168.621094 C 728.566406 170.089844 727.476562 171.558594 726.425781 172.980469 C 725.640625 174.039062 724.832031 175.128906 724.003906 176.210938 C 723.730469 176.25 723.460938 176.28125 723.195312 176.320312 C 722.753906 175.460938 722.304688 174.578125 721.855469 173.710938 C 720.1875 170.46875 718.46875 167.121094 716.890625 163.800781 L 716.308594 162.570312 L 715 162.199219 C 712.175781 161.398438 709.410156 160.589844 706.652344 159.789062 C 703.582031 158.898438 700.519531 158.011719 697.378906 157.121094 L 696.558594 156.878906 L 695.734375 157.121094 C 672.179688 163.871094 664.40625 181.601562 656.886719 198.738281 C 652.78125 208.101562 648.539062 217.761719 641.703125 225.378906 C 639.078125 225.261719 636.285156 225.148438 633.492188 225.039062 L 632.765625 225.011719 C 630.480469 223.949219 628.195312 222.898438 625.945312 221.859375 C 620.765625 219.480469 615.871094 217.230469 610.890625 214.828125 L 609.636719 214.21875 L 608.363281 214.789062 C 607.636719 215.121094 606.980469 215.441406 606.324219 215.761719 C 605.984375 215.929688 605.648438 216.089844 605.296875 216.261719 C 598.578125 215.050781 591.757812 213.601562 585.148438 212.191406 C 577.1875 204.421875 567.140625 199.160156 552.734375 195.21875 L 551.363281 194.851562 L 550.203125 195.671875 C 548.957031 196.558594 547.777344 197.371094 546.597656 198.191406 C 545.394531 199.019531 544.195312 199.851562 542.921875 200.75 L 541.457031 201.789062 L 541.683594 203.578125 C 542.914062 213.238281 544.429688 223.058594 545.8125 231.910156 C 545.574219 232.03125 545.335938 232.148438 545.097656 232.269531 C 544.75 232.449219 544.402344 232.621094 544.0625 232.800781 C 542.480469 231.648438 540.929688 230.488281 539.378906 229.328125 C 537.316406 227.800781 535.183594 226.210938 533.003906 224.640625 L 531.113281 223.28125 L 529.328125 224.78125 C 526.535156 227.109375 523.8125 229.441406 521.085938 231.769531 C 518.5625 233.929688 516.042969 236.078125 513.46875 238.238281 C 512.78125 238.261719 512.082031 238.25 511.351562 238.25 C 510.550781 238.238281 509.726562 238.230469 508.886719 238.261719 C 504.550781 235.359375 500.269531 232.46875 495.996094 229.578125 C 490.917969 226.148438 485.664062 222.609375 480.425781 219.128906 C 478.617188 217.628906 476.984375 215.671875 475.253906 213.609375 C 471.40625 209 467.042969 203.789062 459.761719 203.25 L 457.523438 203.078125 L 456.734375 205.179688 C 455.503906 208.441406 454.273438 211.628906 453.046875 214.820312 C 452.046875 217.410156 451.050781 220 450.050781 222.621094 C 441.546875 223.921875 433.039062 225.21875 424.535156 226.519531 L 420.007812 227.21875 L 422.453125 231.089844 C 431.390625 245.230469 434.3125 260.730469 430.910156 275.898438 L 430.605469 277.25 L 431.433594 278.359375 C 431.835938 278.890625 432.28125 279.410156 432.746094 279.910156 C 432.25 280.589844 431.78125 281.261719 431.328125 281.921875 C 428.398438 282.109375 425.414062 282.351562 422.511719 282.578125 C 419.867188 282.789062 417.144531 283.011719 414.488281 283.191406 C 408.609375 273.78125 402.582031 263.851562 397.6875 255.789062 L 397.121094 254.859375 L 396.089844 254.511719 C 395.324219 254.25 394.660156 254.058594 394.015625 253.890625 C 393.464844 253.738281 392.914062 253.589844 392.300781 253.378906 L 390.980469 252.929688 L 380.824219 259.070312 L 380.757812 260.679688 C 380.507812 266.769531 380.25 273.070312 379.992188 279.398438 C 378.640625 279.691406 377.292969 279.988281 375.976562 280.289062 C 373.96875 280.75 371.890625 281.21875 369.871094 281.621094 L 368.628906 281.859375 L 367.9375 282.921875 C 365.375 286.828125 362.660156 290.710938 360.039062 294.460938 C 358.484375 296.679688 356.9375 298.890625 355.433594 301.101562 L 354.640625 302.261719 L 355.023438 303.609375 C 356.460938 308.691406 357.90625 313.78125 359.351562 318.871094 L 359.890625 320.75 L 361.828125 321.019531 C 363.863281 321.300781 366.019531 321.648438 368.105469 321.988281 C 369.707031 322.261719 371.351562 322.53125 372.964844 322.769531 C 374.777344 325.761719 376.636719 328.808594 378.507812 331.640625 L 380.296875 334.359375 L 382.855469 332.359375 C 383.503906 331.851562 384.121094 331.300781 384.71875 330.761719 C 385.265625 330.269531 385.78125 329.800781 386.265625 329.421875 L 387.363281 328.570312 L 387.417969 327.171875 C 387.472656 325.730469 387.453125 324.371094 387.433594 323.058594 C 387.421875 322.171875 387.40625 321.308594 387.417969 320.449219 C 387.667969 320.21875 387.925781 319.988281 388.1875 319.761719 C 388.535156 321.21875 388.910156 322.671875 389.292969 324.160156 L 390.429688 328.621094 L 399.132812 328.109375 L 399.875 326.441406 C 400.636719 324.730469 401.324219 323.101562 402.015625 321.460938 C 402.488281 320.339844 402.960938 319.210938 403.460938 318.058594 C 403.96875 317.96875 404.46875 317.871094 404.957031 317.78125 C 405.484375 321.128906 406.015625 324.300781 406.492188 327.179688 L 406.933594 329.828125 L 409.621094 329.679688 C 411.511719 329.570312 413.3125 329.171875 415.078125 328.78125 L 416.015625 328.570312 L 416.65625 327.859375 C 418.121094 326.238281 419.527344 324.609375 420.886719 323.03125 C 421.953125 321.800781 423.042969 320.53125 424.160156 319.269531 L 428.445312 319.03125 C 435.894531 322.820312 443.074219 326.691406 449.226562 331.71875 C 449.234375 332.140625 449.253906 332.558594 449.269531 332.96875 C 449.304688 333.878906 449.34375 334.808594 449.3125 335.699219 L 449.210938 338.679688 L 452.195312 338.800781 C 459.730469 339.089844 465.363281 343.601562 471.324219 348.371094 C 472.761719 349.519531 474.238281 350.699219 475.753906 351.828125 L 475.414062 362.390625 L 475.855469 363.140625 C 476.667969 364.519531 477.550781 365.898438 478.40625 367.238281 C 479.230469 368.519531 480.082031 369.851562 480.839844 371.140625 L 481.757812 372.699219 L 491.777344 372.210938 L 492.609375 370.859375 C 493.019531 370.191406 493.429688 369.589844 493.839844 368.980469 C 494.296875 368.308594 494.753906 367.628906 495.210938 366.890625 L 495.628906 366.210938 L 495.65625 365.410156 C 495.738281 362.710938 495.644531 360.230469 495.515625 357.671875 C 495.636719 357.628906 495.761719 357.578125 495.886719 357.519531 C 497.828125 358.679688 499.789062 359.960938 501.710938 361.238281 C 501.800781 361.460938 501.890625 361.679688 501.980469 361.898438 C 504.089844 367.050781 505.914062 371.5 504.308594 376.660156 L 503.410156 379.539062 L 506.300781 380.421875 C 509.722656 381.460938 513.171875 382.421875 516.597656 383.351562 L 516.433594 383.421875 C 514.6875 384.21875 513.019531 385.078125 511.402344 385.910156 C 509.777344 386.75 508.246094 387.539062 506.632812 388.28125 L 503.066406 389.910156 L 505.566406 392.921875 C 510.460938 398.820312 516.007812 405.511719 525.109375 408.21875 L 526.433594 408.609375 L 527.59375 407.859375 C 529.480469 406.640625 531.304688 405.351562 533.066406 404.101562 C 533.984375 403.449219 534.917969 402.789062 535.863281 402.128906 C 539.773438 406.539062 542.808594 410.910156 542.8125 416.851562 C 537.558594 425.621094 536.417969 434.621094 539.113281 445.898438 L 539.367188 446.96875 L 540.253906 447.621094 C 542.011719 448.910156 543.738281 450.199219 545.460938 451.480469 C 548.910156 454.050781 552.464844 456.710938 556.085938 459.230469 C 556.265625 460.46875 556.464844 461.730469 556.660156 462.960938 C 556.984375 464.980469 557.316406 467.070312 557.5625 469.128906 L 557.824219 471.320312 L 559.996094 471.71875 C 564.4375 472.539062 568.917969 473.148438 573.285156 473.71875 L 573.523438 474.339844 C 570.878906 477.078125 568.398438 479.820312 565.976562 482.5 L 565.226562 483.328125 L 565.203125 484.441406 C 565.183594 485.269531 565.238281 486.109375 565.296875 486.921875 C 565.34375 487.628906 565.390625 488.300781 565.375 488.859375 L 565.3125 491.511719 L 567.941406 491.890625 C 569.386719 492.101562 570.757812 492.378906 572.210938 492.679688 C 573.671875 492.96875 575.179688 493.28125 576.777344 493.511719 L 578.78125 493.800781 L 579.800781 492.050781 C 580.476562 490.890625 581.144531 489.839844 581.828125 488.808594 C 582.761719 489.160156 583.703125 489.5 584.648438 489.851562 C 584.789062 489.898438 584.933594 489.949219 585.074219 490 C 584.183594 490.859375 583.324219 491.730469 582.46875 492.589844 L 581.375 493.699219 L 581.648438 495.230469 C 581.769531 495.898438 581.886719 496.628906 582.003906 497.359375 C 582.128906 498.140625 582.253906 498.921875 582.382812 499.628906 L 582.6875 501.328125 L 584.300781 501.921875 C 589.351562 503.769531 594.398438 505.628906 599.453125 507.488281 C 599.566406 507.828125 599.683594 508.171875 599.800781 508.5 C 599.90625 508.808594 600.011719 509.109375 600.121094 509.429688 C 598.957031 511.269531 597.835938 513.070312 596.714844 514.871094 C 595.347656 517.058594 593.984375 519.25 592.546875 521.519531 L 591.136719 523.738281 L 593.15625 525.421875 C 596.722656 528.410156 600.5 531.601562 604.085938 534.839844 C 604.253906 535.679688 604.390625 536.480469 604.503906 537.28125 C 598.679688 541.75 594.464844 547.589844 591.320312 555.550781 L 590.398438 557.878906 L 592.53125 559.199219 C 599.925781 563.769531 607.972656 565.96875 617.769531 566.078125 L 621.175781 569.441406 C 620.746094 571.359375 620.289062 573.308594 619.828125 575.269531 C 619.066406 578.5 618.285156 581.839844 617.589844 585.160156 L 617.363281 586.261719 L 617.90625 587.230469 C 620.023438 591.039062 621.960938 594.941406 623.832031 598.738281 L 618.089844 608.148438 L 620.320312 609.78125 C 621.398438 610.558594 622.402344 611.351562 623.410156 612.140625 C 624.464844 612.960938 625.519531 613.78125 626.640625 614.601562 L 627.46875 615.199219 L 633.839844 615.03125 C 634.089844 616.058594 634.355469 617.089844 634.609375 618.101562 C 634.84375 619 635.078125 619.929688 635.304688 620.851562 C 634.1875 621.289062 633.085938 621.71875 631.980469 622.148438 C 630.097656 622.890625 628.210938 623.628906 626.253906 624.371094 L 623.554688 625.398438 L 624.472656 628.128906 C 631.007812 647.589844 642.796875 659.558594 656.449219 673.351562 C 656.929688 675.921875 657.386719 678.53125 657.820312 681.078125 C 658.339844 684.101562 658.867188 687.210938 659.449219 690.25 C 659.179688 690.730469 658.886719 691.21875 658.585938 691.730469 C 658.320312 692.179688 658.050781 692.640625 657.785156 693.101562 C 655.160156 693.621094 652.683594 694.238281 650.085938 694.898438 L 647.039062 695.671875 L 646.417969 696.878906 C 645.640625 698.410156 644.582031 699.96875 643.460938 701.640625 L 641.929688 703.910156 L 644.050781 705.640625 C 645.679688 706.96875 647.351562 708.410156 648.96875 709.789062 C 650.191406 710.839844 651.445312 711.921875 652.699219 712.96875 C 652.65625 713.398438 652.617188 713.808594 652.582031 714.21875 C 652.5 715.101562 652.425781 715.929688 652.289062 716.808594 L 652.0625 718.25 L 653.050781 719.320312 C 654.582031 720.96875 656.132812 722.570312 657.628906 724.109375 C 658.816406 725.339844 660.035156 726.601562 661.242188 727.890625 C 661.144531 729.160156 661.074219 730.429688 661.007812 731.671875 C 660.914062 733.351562 660.828125 734.941406 660.671875 736.539062 L 660.527344 738.070312 L 661.679688 739.078125 C 666.566406 743.378906 670.722656 746.808594 674.386719 749.828125 C 688.742188 761.671875 694.683594 766.570312 704.457031 791.121094 L 704.902344 792.230469 L 705.996094 792.738281 C 710.808594 794.941406 715.621094 797.140625 720.4375 799.351562 C 721.898438 804.351562 723.4375 809.421875 724.933594 814.328125 C 726.445312 819.289062 728.007812 824.421875 729.476562 829.46875 L 729.773438 830.488281 L 737.753906 835.980469 C 737.765625 837.398438 737.695312 838.859375 737.625 840.371094 C 737.363281 845.921875 737.070312 852.210938 741.238281 857.621094 L 741.585938 858.078125 L 742.070312 858.371094 C 747.324219 861.519531 752.777344 864.628906 758.050781 867.628906 C 761.5625 869.628906 765.089844 871.640625 768.617188 873.699219 L 770.027344 874.519531 L 771.484375 873.78125 C 772.945312 873.039062 774.402344 872.230469 775.8125 871.441406 C 776.347656 871.140625 776.886719 870.839844 777.429688 870.550781 L 782.230469 878.78125 L 782.988281 879.179688 C 784.796875 880.140625 786.53125 881.089844 788.269531 882.050781 C 789.34375 882.640625 790.417969 883.230469 791.507812 883.820312 C 789.636719 891.011719 787.4375 898.960938 784.660156 908.621094 L 783.964844 911.03125 L 795.164062 916.519531 C 795.246094 916.800781 795.324219 917.089844 795.402344 917.390625 C 795.503906 917.761719 795.605469 918.128906 795.714844 918.511719 C 795.015625 919.710938 794.273438 920.898438 793.550781 922.070312 C 789.785156 928.140625 785.890625 934.410156 786.324219 942.539062 L 786.425781 944.449219 L 800.855469 950.261719 C 801.199219 953.480469 801.417969 956.820312 801.621094 960.078125 L 801.753906 962.25 L 812.59375 970.5 C 812.953125 979.210938 817.609375 985.058594 822.640625 990.070312 L 823.234375 990.671875 L 824.050781 990.859375 C 826.257812 991.398438 828.527344 992.019531 830.71875 992.621094 C 832.628906 993.148438 834.59375 993.691406 836.558594 994.179688 C 837.785156 995.628906 839.0625 997.078125 840.304688 998.488281 C 841.734375 1000.121094 843.21875 1001.800781 844.59375 1003.449219 L 845.859375 1004.960938 L 847.75 1004.398438 C 850.175781 1003.671875 852.625 1002.871094 854.992188 1002.101562 C 856.429688 1001.628906 857.898438 1001.140625 859.363281 1000.679688 C 861.941406 1007.828125 865.179688 1015.449219 872.078125 1021.148438 C 872.460938 1024.558594 872.898438 1028 873.324219 1031.339844 C 873.792969 1035.019531 874.277344 1038.828125 874.6875 1042.558594 L 874.851562 1044.089844 L 876.191406 1044.851562 C 877.105469 1045.359375 878.027344 1045.949219 879.003906 1046.578125 C 879.738281 1047.050781 880.496094 1047.53125 881.265625 1047.988281 C 892.101562 1070.140625 896.933594 1081.21875 897.589844 1104.980469 L 897.644531 1106.941406 L 899.460938 1107.679688 C 902.5625 1108.941406 905.734375 1110.269531 908.90625 1111.601562 C 911.378906 1112.628906 913.847656 1113.671875 916.285156 1114.671875 C 916.214844 1116.039062 916.164062 1117.421875 916.117188 1118.769531 C 916.050781 1120.761719 915.976562 1122.820312 915.839844 1124.828125 L 915.71875 1126.609375 L 917.222656 1127.570312 C 920.765625 1129.828125 924.238281 1132.078125 927.710938 1134.339844 C 930.960938 1136.460938 934.214844 1138.570312 937.523438 1140.691406 C 939.9375 1144.019531 942.351562 1147.300781 944.765625 1150.578125 C 947.292969 1154.011719 949.824219 1157.449219 952.355469 1160.960938 L 953.132812 1162.039062 L 954.460938 1162.179688 C 955.707031 1162.320312 957.023438 1162.460938 958.34375 1162.589844 C 958.988281 1162.660156 959.636719 1162.730469 960.273438 1162.800781 C 960.703125 1164.410156 961.15625 1166.019531 961.597656 1167.601562 C 962.210938 1169.78125 962.847656 1172.03125 963.398438 1174.230469 L 963.960938 1176.488281 L 966.292969 1176.5 C 976.367188 1176.550781 984.449219 1183.25 992.261719 1189.71875 L 993.816406 1191.011719 L 994.792969 1191.070312 C 997.089844 1191.21875 999.402344 1191.289062 1001.640625 1191.359375 C 1003.128906 1191.398438 1004.660156 1191.449219 1006.191406 1191.519531 C 1006.460938 1192.421875 1006.738281 1193.308594 1007.019531 1194.179688 C 1007.519531 1195.738281 1007.980469 1197.210938 1008.390625 1198.691406 L 1008.738281 1199.988281 L 1009.941406 1200.589844 C 1011.328125 1201.28125 1012.648438 1201.96875 1013.960938 1202.660156 C 1015.320312 1203.378906 1016.671875 1204.089844 1018.101562 1204.800781 L 1021.328125 1206.410156 C 1022.230469 1207.359375 1023.128906 1208.300781 1024 1209.230469 C 1025.941406 1211.28125 1027.929688 1213.390625 1029.960938 1215.449219 C 1029.808594 1216.28125 1029.679688 1217.121094 1029.550781 1217.929688 C 1029.339844 1219.261719 1029.140625 1220.511719 1028.878906 1221.679688 L 1028.578125 1223.011719 L 1029.390625 1224.109375 C 1034.839844 1231.488281 1035.011719 1240.171875 1035.199219 1249.351562 C 1035.21875 1250.578125 1035.25 1251.800781 1035.28125 1253.039062 L 1035.300781 1253.53125 L 1035.46875 1254 C 1036.300781 1256.210938 1037.078125 1258.46875 1037.839844 1260.660156 C 1038.5 1262.578125 1039.179688 1264.550781 1039.898438 1266.519531 C 1039.398438 1268.039062 1038.71875 1269.609375 1038.070312 1271.140625 L 1038.621094 1271.539062 L 1037.089844 1272.761719 L 1039.109375 1275.121094 C 1039.988281 1276.148438 1040.859375 1277.089844 1041.710938 1278.011719 C 1042.269531 1278.621094 1042.820312 1279.210938 1043.359375 1279.820312 C 1043.121094 1282.808594 1042.941406 1285.808594 1042.761719 1288.730469 C 1042.550781 1292.03125 1042.339844 1295.429688 1042.070312 1298.769531 L 1041.96875 1299.898438 L 1042.660156 1300.808594 C 1046.859375 1306.421875 1047.058594 1313.25 1047.269531 1320.480469 C 1047.308594 1321.890625 1047.351562 1323.308594 1047.421875 1324.730469 L 1047.46875 1325.800781 L 1055.75 1334.898438 C 1055.679688 1335.820312 1055.628906 1336.738281 1055.578125 1337.640625 C 1055.519531 1338.96875 1055.449219 1340.21875 1055.320312 1341.398438 L 1055.179688 1342.699219 L 1056.039062 1343.691406 C 1061.441406 1349.910156 1066.679688 1356.230469 1071.75 1362.371094 C 1072.429688 1368.011719 1073.179688 1373.648438 1073.910156 1379.121094 C 1074.679688 1384.839844 1075.46875 1390.75 1076.171875 1396.621094 L 1076.25 1397.269531 L 1076.589844 1397.820312 C 1085.949219 1413.269531 1091.601562 1430.75 1097.058594 1447.648438 C 1099.148438 1454.101562 1101.300781 1460.78125 1103.648438 1467.300781 L 1103.808594 1467.75 C 1104.070312 1469.609375 1104.320312 1471.449219 1104.550781 1473.25 C 1104.878906 1475.78125 1105.21875 1478.378906 1105.621094 1480.960938 C 1103.941406 1484.199219 1102.320312 1487.378906 1100.710938 1490.570312 C 1098.96875 1493.96875 1097.238281 1497.378906 1095.441406 1500.859375 L 1095.019531 1501.660156 L 1095.121094 1502.558594 C 1095.941406 1510.148438 1096.511719 1517.878906 1097.058594 1525.378906 C 1096.050781 1527.839844 1094.679688 1530.269531 1093.230469 1532.820312 C 1089.941406 1538.648438 1086.539062 1544.671875 1087.058594 1551.890625 L 1087.128906 1552.730469 L 1087.609375 1553.410156 C 1090.671875 1557.730469 1093.730469 1561.988281 1096.789062 1566.238281 C 1099.679688 1570.25 1102.570312 1574.269531 1105.460938 1578.339844 C 1105.109375 1580.769531 1104.808594 1583.179688 1104.511719 1585.511719 C 1104.179688 1588.179688 1103.828125 1590.949219 1103.421875 1593.71875 L 1103.128906 1595.691406 L 1104.828125 1596.71875 C 1105.929688 1597.390625 1107.039062 1598.128906 1108.011719 1598.839844 C 1108.070312 1599.648438 1108.121094 1600.488281 1108.160156 1601.359375 C 1108.210938 1602.289062 1108.269531 1603.238281 1108.339844 1604.191406 C 1106.640625 1606.28125 1104.96875 1608.390625 1103.351562 1610.441406 C 1101.511719 1612.761719 1099.609375 1615.171875 1097.679688 1617.53125 L 1096.871094 1618.5 L 1097.011719 1619.761719 C 1097.199219 1621.390625 1097.378906 1622.910156 1097.570312 1624.378906 L 1097.570312 1626.738281 C 1097.570312 1627.898438 1097.511719 1629.140625 1097.449219 1630.449219 C 1097.398438 1631.5 1097.339844 1632.589844 1097.320312 1633.691406 C 1092.679688 1638.839844 1089.890625 1644.550781 1088.820312 1651.078125 C 1086.890625 1653.660156 1084.960938 1656.179688 1083.03125 1658.699219 C 1080.929688 1661.449219 1078.828125 1664.191406 1076.730469 1667.011719 L 1075.699219 1668.390625 L 1076.378906 1669.980469 C 1078.949219 1675.980469 1081.730469 1681.941406 1084.429688 1687.710938 C 1084.96875 1688.871094 1085.519531 1690.039062 1086.070312 1691.210938 C 1084.941406 1692.078125 1083.859375 1692.960938 1082.800781 1693.828125 C 1081.921875 1694.558594 1081.039062 1695.269531 1080.171875 1695.949219 L 1079.390625 1696.558594 L 1079.128906 1697.5 C 1078.558594 1699.519531 1078.058594 1701.550781 1077.578125 1703.511719 C 1077.238281 1704.898438 1076.890625 1706.328125 1076.511719 1707.738281 C 1061.988281 1712.53125 1053.378906 1719.578125 1050.230469 1729.261719 L 1049.890625 1730.289062 L 1050.289062 1731.300781 C 1050.820312 1732.628906 1051.289062 1734.03125 1051.789062 1735.511719 C 1052.070312 1736.339844 1052.351562 1737.191406 1052.648438 1738.039062 C 1051.621094 1738.921875 1050.570312 1739.789062 1049.539062 1740.648438 C 1047.941406 1741.96875 1046.289062 1743.339844 1044.710938 1744.78125 L 1043.679688 1745.710938 L 1043.730469 1747.089844 C 1044.121094 1759.339844 1050.128906 1767.660156 1056.75 1774.769531 C 1056.851562 1776.210938 1056.910156 1777.671875 1056.96875 1779.101562 C 1057.03125 1780.519531 1057.089844 1781.988281 1057.191406 1783.460938 C 1056.921875 1783.78125 1056.640625 1784.089844 1056.351562 1784.421875 C 1055.78125 1785.058594 1055.191406 1785.730469 1054.589844 1786.488281 L 1053.929688 1787.320312 L 1053.941406 1788.371094 C 1054.058594 1809.128906 1053.179688 1819.441406 1043.898438 1838.058594 L 1043.730469 1838.421875 L 1043.230469 1838.539062 L 1043.328125 1839.210938 L 1041.019531 1843.851562 L 1043.839844 1843.160156 C 1043.859375 1843.390625 1043.878906 1843.621094 1043.898438 1843.859375 C 1043.949219 1844.429688 1043.988281 1845.011719 1044.058594 1845.621094 C 1041.269531 1849.421875 1038.441406 1853.058594 1035.699219 1856.589844 L 1034.539062 1858.078125 L 1035.378906 1859.769531 C 1038.671875 1866.371094 1038.148438 1873.710938 1037.601562 1881.488281 C 1037.410156 1884.269531 1037.199219 1887.140625 1037.191406 1889.988281 C 1035.640625 1892.941406 1034.328125 1895.890625 1033.050781 1898.75 L 1032.351562 1900.328125 L 1033.359375 1901.730469 C 1041.671875 1913.21875 1052.101562 1930.46875 1046.800781 1947.511719 L 1046.550781 1948.328125 L 1046.769531 1949.171875 C 1049.21875 1958.390625 1051.710938 1967.480469 1054.121094 1976.28125 L 1054.289062 1976.898438 C 1053.558594 1994.148438 1052.839844 2011.398438 1052.121094 2028.648438 L 1052.101562 2029.261719 L 1052.308594 2029.839844 C 1054.320312 2035.148438 1056.25 2040.398438 1058.179688 2045.640625 C 1060.039062 2050.691406 1061.898438 2055.730469 1063.820312 2060.839844 L 1064.199219 2061.871094 L 1065.160156 2062.398438 C 1066.699219 2063.269531 1068.308594 2064.128906 1069.921875 2065 C 1070.910156 2065.539062 1071.898438 2066.070312 1072.871094 2066.601562 C 1072.648438 2068.878906 1072.390625 2071.179688 1072.140625 2073.421875 C 1071.808594 2076.339844 1071.480469 2079.359375 1071.21875 2082.351562 L 1071.128906 2083.339844 L 1071.660156 2084.191406 C 1079.378906 2096.640625 1081.558594 2109.980469 1083.480469 2126.058594 C 1082.519531 2128.148438 1081.558594 2130.191406 1080.601562 2132.21875 C 1079.511719 2134.558594 1078.410156 2136.890625 1077.308594 2139.289062 L 1076.910156 2140.179688 L 1077.101562 2141.128906 C 1077.671875 2143.949219 1078.308594 2146.878906 1078.929688 2149.710938 C 1079.449219 2152.070312 1079.980469 2154.488281 1080.46875 2156.839844 C 1079.71875 2157.679688 1078.96875 2158.488281 1078.230469 2159.289062 C 1077.421875 2160.171875 1076.589844 2161.078125 1075.75 2162.011719 C 1073.421875 2162.128906 1071.089844 2162.28125 1068.820312 2162.429688 C 1066.109375 2162.609375 1063.308594 2162.800781 1060.570312 2162.910156 L 1059.058594 2162.96875 L 1058.210938 2164.210938 C 1057.210938 2165.679688 1056.289062 2167.210938 1055.398438 2168.679688 C 1054.800781 2169.691406 1054.21875 2170.648438 1053.621094 2171.578125 C 1053.140625 2171.609375 1052.660156 2171.628906 1052.199219 2171.660156 C 1051.269531 2171.71875 1050.390625 2171.78125 1049.53125 2171.761719 L 1047.671875 2171.738281 L 1046.828125 2173.390625 C 1045.589844 2175.808594 1044.410156 2178.25 1043.261719 2180.609375 C 1042.148438 2182.921875 1041 2185.300781 1039.800781 2187.628906 L 1038.351562 2190.46875 L 1041.269531 2191.75 C 1042.988281 2192.5 1044.78125 2193.179688 1046.511719 2193.839844 C 1047.960938 2194.390625 1049.351562 2194.921875 1050.691406 2195.480469 C 1052.339844 2197.800781 1054.058594 2200.148438 1055.730469 2202.421875 C 1057.570312 2204.929688 1059.480469 2207.539062 1061.269531 2210.078125 L 1062.050781 2211.179688 L 1063.390625 2211.328125 C 1067.988281 2211.859375 1072.808594 2212.578125 1077.449219 2213.328125 C 1077.441406 2214.988281 1077.398438 2216.660156 1077.371094 2218.289062 C 1077.308594 2220.800781 1077.261719 2223.390625 1077.28125 2225.96875 L 1077.289062 2227.53125 L 1087.140625 2234.339844 C 1087.121094 2235.230469 1087.089844 2236.148438 1087.058594 2237.078125 C 1086.578125 2254.511719 1085.859375 2280.851562 1110.058594 2283.429688 L 1113.128906 2283.761719 L 1113.371094 2280.691406 C 1113.628906 2277.488281 1113.960938 2274.289062 1114.28125 2271.191406 C 1114.570312 2268.328125 1114.878906 2265.378906 1115.121094 2262.398438 C 1117.941406 2258.300781 1120.730469 2254.089844 1123.429688 2250.019531 C 1126.070312 2246.039062 1128.789062 2241.929688 1131.519531 2237.941406 C 1134.238281 2237.730469 1137.109375 2237.511719 1139.980469 2237.300781 L 1143.269531 2237.058594 L 1143.269531 2235.78125 C 1158.609375 2234.078125 1172.589844 2239.578125 1187.351562 2245.410156 C 1190.671875 2246.71875 1194.101562 2248.070312 1197.519531 2249.328125 L 1198.449219 2249.671875 L 1199.390625 2249.390625 C 1206.960938 2247.199219 1214.800781 2247.539062 1222.679688 2250.429688 L 1223.851562 2250.859375 L 1224.980469 2250.328125 C 1231.511719 2247.289062 1238 2244.011719 1244.289062 2240.851562 C 1246.261719 2239.851562 1248.25 2238.851562 1250.25 2237.851562 L 1252 2236.96875 L 1251.898438 2235.019531 C 1251.851562 2233.871094 1251.820312 2232.75 1251.789062 2231.628906 C 1251.640625 2226.320312 1251.5 2220.820312 1248.578125 2215.46875 L 1247.878906 2214.191406 L 1246.441406 2213.949219 C 1245.710938 2213.820312 1244.878906 2213.628906 1244.019531 2213.429688 C 1243.871094 2213.398438 1243.730469 2213.359375 1243.578125 2213.328125 C 1243.5 2212.128906 1243.421875 2210.921875 1243.339844 2209.710938 C 1243.25 2208.308594 1243.160156 2206.898438 1243.070312 2205.511719 C 1245.410156 2204.339844 1247.761719 2203.128906 1250.039062 2201.949219 C 1252.839844 2200.511719 1255.730469 2199.019531 1258.558594 2197.621094 L 1259.941406 2196.941406 L 1260.199219 2195.421875 C 1260.328125 2194.628906 1260.539062 2193.890625 1260.761719 2193.109375 L 1260.769531 2193.078125 L 1261.339844 2192.890625 L 1261.351562 2190.71875 L 1262.28125 2186.039062 L 1261.359375 2186.328125 L 1261.371094 2182.878906 L 1260.828125 2181.398438 C 1256.941406 2170.699219 1252.910156 2159.628906 1249.210938 2148.75 L 1248.878906 2147.78125 L 1248.011719 2147.210938 C 1246.070312 2145.941406 1244.101562 2144.71875 1242.210938 2143.550781 C 1240.671875 2142.601562 1239.101562 2141.621094 1237.539062 2140.621094 C 1237.238281 2139.410156 1236.960938 2138.238281 1236.679688 2137.019531 C 1236.519531 2136.339844 1236.359375 2135.648438 1236.191406 2134.941406 C 1236.519531 2134.789062 1236.859375 2134.648438 1237.179688 2134.5 C 1238.28125 2134.011719 1239.308594 2133.539062 1240.339844 2133.148438 L 1241.851562 2132.558594 L 1242.191406 2130.980469 C 1244.089844 2122.199219 1245.710938 2113.761719 1247.171875 2105.878906 C 1247.660156 2105.839844 1248.148438 2105.800781 1248.648438 2105.761719 L 1250.859375 2105.578125 L 1251.03125 2104.800781 C 1257.71875 2104.53125 1264.421875 2104.261719 1271.121094 2103.980469 L 1273.46875 2103.878906 L 1273.941406 2101.570312 C 1274.171875 2100.378906 1274.460938 2099.128906 1274.761719 2097.851562 C 1274.890625 2097.289062 1275.019531 2096.730469 1275.148438 2096.160156 L 1276.480469 2095.980469 C 1276.21875 2092.160156 1275.878906 2088.351562 1275.550781 2084.671875 C 1275.25 2081.289062 1274.941406 2077.808594 1274.679688 2074.328125 C 1275 2073.710938 1275.339844 2073.070312 1275.679688 2072.429688 C 1275.910156 2071.988281 1276.148438 2071.539062 1276.378906 2071.101562 C 1279.488281 2070.679688 1282.828125 2070.429688 1286.328125 2070.160156 C 1302.269531 2068.960938 1320.339844 2067.601562 1326.210938 2048.679688 L 1326.378906 2048.148438 L 1326.339844 2047.601562 C 1326.210938 2045.679688 1326.089844 2043.699219 1325.96875 2041.71875 C 1325.878906 2040.398438 1325.800781 2039.089844 1325.71875 2037.789062 L 1325.738281 2037.75 C 1326.238281 2036.871094 1326.808594 2036.03125 1327.421875 2035.140625 C 1327.878906 2034.460938 1328.359375 2033.761719 1328.820312 2033.019531 C 1331.179688 2032.050781 1333.609375 2031.140625 1335.96875 2030.25 C 1345.441406 2026.699219 1355.21875 2023.03125 1362.96875 2015.289062 L 1363.761719 2014.5 L 1363.851562 2013.378906 C 1364 2011.269531 1364.078125 2009.21875 1364.160156 2007.25 C 1364.25 2005.199219 1364.328125 2003.261719 1364.480469 2001.320312 L 1364.539062 2000.449219 L 1364.140625 1999.691406 C 1363.21875 1997.941406 1362.328125 1996.050781 1361.480469 1994.230469 C 1360.628906 1992.421875 1359.738281 1990.558594 1358.800781 1988.761719 C 1358.960938 1985.71875 1359.160156 1982.609375 1359.359375 1979.570312 C 1359.578125 1976.171875 1359.820312 1972.660156 1359.980469 1969.261719 L 1360.050781 1967.679688 L 1358.789062 1966.71875 C 1358.328125 1966.371094 1357.828125 1965.941406 1357.308594 1965.46875 C 1357.058594 1965.261719 1356.808594 1965.03125 1356.550781 1964.808594 C 1356.179688 1960.671875 1355.761719 1956.429688 1355.339844 1952.328125 C 1354.941406 1948.351562 1354.53125 1944.25 1354.171875 1940.25 C 1361.070312 1933.601562 1369.890625 1930.539062 1379.199219 1927.320312 L 1379.699219 1927.140625 C 1387.519531 1925.421875 1395.550781 1923.578125 1403.308594 1921.808594 C 1409.171875 1920.46875 1415.011719 1919.140625 1420.820312 1917.839844 L 1420.878906 1918.238281 L 1424.191406 1917.078125 L 1426.578125 1916.550781 L 1426.550781 1916.28125 C 1428.789062 1915.519531 1431.03125 1914.78125 1433.230469 1914.070312 C 1447.359375 1909.480469 1461.96875 1904.730469 1473.441406 1893.210938 L 1474.019531 1892.628906 L 1474.21875 1891.839844 C 1474.949219 1888.988281 1475.621094 1886.191406 1476.261719 1883.46875 C 1476.898438 1880.789062 1477.558594 1878.019531 1478.269531 1875.238281 L 1478.460938 1874.511719 L 1478.28125 1873.78125 C 1475.761719 1863.570312 1469.96875 1855.238281 1464.371094 1847.179688 C 1462.339844 1844.261719 1460.261719 1841.25 1458.371094 1838.210938 C 1458.808594 1836.769531 1459.261719 1835.289062 1459.699219 1833.820312 C 1460.160156 1832.28125 1460.628906 1830.738281 1461.089844 1829.238281 C 1464.75 1826.691406 1468.449219 1824.070312 1472.03125 1821.519531 C 1475.878906 1818.789062 1479.859375 1815.960938 1483.769531 1813.261719 L 1484.710938 1812.601562 L 1484.980469 1811.488281 C 1488.339844 1797.371094 1495.160156 1791.519531 1505.46875 1782.679688 C 1506.921875 1781.441406 1508.421875 1780.148438 1509.96875 1778.789062 L 1510.601562 1778.230469 L 1510.859375 1777.429688 C 1517.921875 1755 1504.050781 1747.75 1490.628906 1740.75 C 1488.070312 1739.410156 1485.429688 1738.019531 1482.828125 1736.511719 C 1479.691406 1734.351562 1476.5 1732.210938 1473.421875 1730.148438 C 1470.589844 1728.261719 1467.679688 1726.320312 1464.800781 1724.339844 C 1464.609375 1723.328125 1464.421875 1722.300781 1464.230469 1721.269531 C 1464.199219 1721.078125 1464.160156 1720.890625 1464.128906 1720.699219 L 1469.289062 1721.929688 L 1463.308594 1714.921875 C 1462.441406 1713.898438 1461.5 1712.890625 1460.589844 1711.910156 C 1460.019531 1711.289062 1459.460938 1710.691406 1458.929688 1710.101562 C 1460.289062 1702.671875 1466.378906 1698.890625 1473.390625 1694.550781 L 1476.128906 1692.839844 L 1476.421875 1691.640625 C 1477.289062 1687.960938 1478.101562 1684.21875 1478.878906 1680.621094 C 1479.660156 1677.039062 1480.460938 1673.351562 1481.308594 1669.730469 L 1481.5 1668.941406 L 1481.261719 1668.160156 C 1480.5 1665.660156 1479.789062 1663.078125 1479.109375 1660.589844 C 1476.058594 1649.398438 1472.898438 1637.851562 1463.199219 1629.488281 C 1462.101562 1623.371094 1460.988281 1617.320312 1459.878906 1611.269531 C 1459 1606.421875 1458.109375 1601.578125 1457.230469 1596.691406 C 1467.699219 1589.929688 1476.878906 1584.171875 1489.46875 1584.5 L 1491.25 1584.550781 L 1492.148438 1583.019531 C 1493.171875 1581.269531 1494.121094 1579.449219 1495.039062 1577.699219 C 1495.5 1576.820312 1495.960938 1575.941406 1496.429688 1575.058594 L 1496.761719 1575.160156 L 1497.988281 1573.308594 C 1499.421875 1571.179688 1500.789062 1569.019531 1502.109375 1566.929688 C 1503.429688 1564.871094 1504.789062 1562.730469 1506.179688 1560.640625 L 1506.679688 1559.890625 L 1506.691406 1558.988281 C 1506.691406 1557.808594 1506.769531 1556.628906 1506.839844 1555.371094 C 1506.871094 1554.941406 1506.898438 1554.5 1506.921875 1554.050781 C 1507.238281 1554.011719 1507.570312 1553.96875 1507.890625 1553.929688 C 1508.429688 1553.859375 1508.96875 1553.789062 1509.5 1553.730469 L 1510.308594 1555.191406 L 1512.980469 1553.269531 L 1515.769531 1552.898438 L 1515.128906 1551.75 C 1515.371094 1551.578125 1515.609375 1551.421875 1515.839844 1551.25 C 1516.53125 1550.769531 1517.230469 1550.28125 1517.949219 1549.769531 C 1524.710938 1549.429688 1531.640625 1549.03125 1538.351562 1548.640625 C 1545.339844 1548.230469 1552.570312 1547.808594 1559.691406 1547.460938 L 1561.921875 1547.351562 L 1562.460938 1545.179688 C 1563.308594 1541.710938 1564.25 1538.230469 1565.171875 1534.871094 C 1565.988281 1531.820312 1566.851562 1528.679688 1567.640625 1525.511719 C 1569.960938 1523.789062 1572.101562 1521.921875 1574.171875 1520.078125 C 1576.558594 1519.789062 1578.910156 1519.449219 1581.191406 1519.128906 C 1583.25 1518.828125 1585.359375 1518.53125 1587.480469 1518.261719 C 1593.550781 1524.820312 1595.25 1532.320312 1596.601562 1542.46875 C 1595.828125 1542.691406 1595.039062 1542.910156 1594.160156 1543.21875 L 1591.25 1544.210938 L 1592.308594 1547.101562 C 1592.75 1548.289062 1593.261719 1549.460938 1593.75 1550.589844 C 1594.128906 1551.460938 1594.488281 1552.289062 1594.820312 1553.109375 C 1594.160156 1558.320312 1592.878906 1563.75 1591.648438 1569.011719 C 1588.839844 1580.910156 1585.941406 1593.210938 1589.398438 1605.289062 C 1581.859375 1615.308594 1574.351562 1625.789062 1574.050781 1640.101562 L 1574.019531 1641.28125 L 1582.371094 1650.640625 L 1599.101562 1650.410156 L 1599.871094 1648.640625 C 1600.558594 1647.070312 1601.21875 1645.5 1601.871094 1643.949219 C 1605.121094 1636.179688 1608.199219 1628.828125 1614.078125 1623.019531 C 1620.101562 1622.429688 1625.851562 1621.660156 1631.921875 1620.839844 L 1635.808594 1620.320312 L 1636.359375 1618.449219 C 1636.628906 1617.539062 1636.96875 1616.539062 1637.328125 1615.488281 C 1637.699219 1614.429688 1638.070312 1613.328125 1638.378906 1612.289062 L 1638.660156 1611.328125 L 1638.308594 1610.398438 C 1637.109375 1607.128906 1635.941406 1603.710938 1634.808594 1600.398438 C 1633.730469 1597.210938 1632.609375 1593.929688 1631.429688 1590.730469 C 1632.128906 1581.230469 1635.371094 1574.488281 1641.878906 1569.050781 C 1642.851562 1568.921875 1643.789062 1568.800781 1644.730469 1568.679688 C 1645.570312 1568.570312 1646.410156 1568.460938 1647.269531 1568.351562 C 1653.910156 1572.679688 1657.199219 1580.660156 1657.578125 1593.328125 L 1657.609375 1594.210938 L 1658.109375 1594.941406 C 1660.910156 1599.011719 1663.589844 1603.25 1666.539062 1608.28125 L 1667.75 1610.339844 L 1670.03125 1609.628906 C 1671.351562 1609.210938 1672.738281 1608.859375 1674.21875 1608.488281 C 1675.710938 1608.121094 1677.25 1607.730469 1678.730469 1607.269531 L 1680.488281 1606.71875 L 1680.789062 1604.898438 C 1681.039062 1603.441406 1681.269531 1602.050781 1681.488281 1600.71875 C 1684.421875 1582.96875 1685.339844 1577.390625 1698.519531 1562.660156 C 1699.011719 1562.601562 1699.539062 1562.550781 1700.078125 1562.511719 C 1700.601562 1562.460938 1701.140625 1562.410156 1701.679688 1562.351562 L 1701.71875 1562.398438 L 1703.320312 1562.171875 C 1704.351562 1562.03125 1705.390625 1561.949219 1706.5 1561.871094 C 1707.210938 1561.808594 1707.929688 1561.761719 1708.660156 1561.691406 C 1709.929688 1562.78125 1711.21875 1563.828125 1712.480469 1564.851562 C 1713.75 1565.878906 1715.058594 1566.949219 1716.308594 1568.03125 C 1717.609375 1575.628906 1719.058594 1582.929688 1720.578125 1590.628906 L 1721.671875 1596.121094 L 1722.511719 1596.800781 C 1723.28125 1597.441406 1724.070312 1598.140625 1724.890625 1598.890625 C 1725.738281 1599.648438 1726.609375 1600.441406 1727.5 1601.171875 L 1728.601562 1602.070312 L 1730 1601.78125 C 1737.910156 1600.171875 1745.109375 1603.039062 1752.738281 1606.058594 C 1753.519531 1606.371094 1754.289062 1606.671875 1755.058594 1606.980469 C 1756.570312 1613.261719 1757.789062 1618.730469 1755.660156 1624.511719 L 1755.269531 1625.589844 L 1755.691406 1626.648438 C 1756.238281 1628.050781 1756.859375 1629.511719 1757.480469 1630.980469 C 1758.078125 1632.398438 1758.691406 1633.828125 1759.21875 1635.191406 L 1759.589844 1636.121094 L 1760.441406 1636.640625 C 1763.601562 1638.589844 1766.699219 1640.46875 1769.789062 1642.351562 C 1772.671875 1644.101562 1775.539062 1645.851562 1778.480469 1647.648438 L 1779.230469 1648.121094 L 1780.109375 1648.101562 C 1786.828125 1647.960938 1793.820312 1647.808594 1800.53125 1647.671875 L 1801.53125 1647.648438 L 1802.320312 1647.03125 C 1805.5 1644.539062 1808.738281 1642.191406 1812.179688 1639.699219 C 1814.128906 1638.28125 1816.109375 1636.851562 1818.078125 1635.390625 L 1819.578125 1634.269531 L 1819.238281 1632.429688 C 1818.941406 1630.828125 1818.628906 1629.238281 1818.328125 1627.648438 C 1816.191406 1616.550781 1814.160156 1606.03125 1815.328125 1595.078125 C 1816.488281 1594.828125 1817.671875 1594.589844 1818.828125 1594.351562 C 1820.261719 1594.058594 1821.730469 1593.769531 1823.179688 1593.441406 C 1824.449219 1594.378906 1825.738281 1595.371094 1826.988281 1596.339844 C 1828.640625 1597.609375 1830.359375 1598.929688 1832.058594 1600.171875 L 1833.058594 1600.898438 L 1834.28125 1600.710938 C 1836.410156 1600.390625 1838.46875 1600.070312 1840.53125 1599.75 C 1842.53125 1599.429688 1844.539062 1599.121094 1846.621094 1598.800781 L 1848.191406 1598.570312 L 1848.871094 1597.140625 C 1850.480469 1593.789062 1851.910156 1590.320312 1853.28125 1586.949219 C 1853.671875 1586.011719 1854.050781 1585.078125 1854.429688 1584.160156 L 1854.929688 1582.949219 L 1854.378906 1581.75 C 1853.441406 1579.730469 1852.5 1577.640625 1851.558594 1575.550781 C 1850.851562 1573.949219 1850.128906 1572.359375 1849.410156 1570.789062 L 1849.570312 1570.589844 C 1865.660156 1576.621094 1868.710938 1590.539062 1872.230469 1606.570312 C 1873.039062 1610.238281 1873.871094 1614.03125 1874.878906 1617.761719 L 1875.140625 1618.699219 L 1875.890625 1619.308594 C 1883.828125 1625.738281 1887.769531 1634.359375 1891.550781 1646.179688 L 1891.851562 1647.121094 L 1892.648438 1647.699219 C 1898.28125 1651.769531 1903.890625 1655.539062 1909.320312 1659.179688 L 1910.488281 1659.96875 L 1911.839844 1659.570312 C 1913.421875 1659.109375 1915.078125 1658.570312 1916.691406 1658.039062 C 1918.261719 1657.539062 1919.890625 1657.011719 1921.390625 1656.570312 L 1922.890625 1656.128906 L 1923.390625 1654.648438 C 1924.410156 1651.628906 1925.511719 1648.621094 1926.589844 1645.710938 C 1927.558594 1643.050781 1928.570312 1640.308594 1929.519531 1637.539062 C 1930.789062 1636.648438 1932.050781 1635.769531 1933.300781 1634.890625 C 1936.648438 1632.550781 1939.828125 1630.320312 1943.121094 1628.171875 C 1945.351562 1629.140625 1947.628906 1630.058594 1949.839844 1630.960938 C 1952.460938 1632.019531 1955.160156 1633.109375 1957.738281 1634.25 L 1958.378906 1634.53125 L 1959.078125 1634.5 C 1966.199219 1634.179688 1973.429688 1633.921875 1980.429688 1633.671875 C 1987.769531 1633.398438 1995.351562 1633.121094 2002.828125 1632.78125 C 2003.140625 1632.929688 2003.46875 1633.089844 2003.789062 1633.25 C 2005.039062 1633.859375 2006.449219 1634.558594 2007.890625 1635.121094 L 2009.28125 1635.671875 L 2010.558594 1634.890625 C 2017.339844 1630.710938 2024.21875 1626.410156 2030.878906 1622.25 C 2038.410156 1617.539062 2046.191406 1612.679688 2053.839844 1607.980469 L 2054.421875 1607.621094 L 2059.890625 1599.179688 L 2059.441406 1597.820312 "/>
</svg>
