<?xml version="1.0" encoding="UTF-8"?>
<svg xmlns="http://www.w3.org/2000/svg" xmlns:xlink="http://www.w3.org/1999/xlink" width="3000" height="2000" viewBox="0 0 3000 2000">
<defs>
<clipPath id="clip-0">

</clipPath>
<linearGradient id="linear-pattern-0" gradientUnits="userSpaceOnUse" x1="0.0740638" y1="0" x2="0.895134" y2="0" gradientTransform="matrix(33.2851, 2436.41, -2436.41, 33.2851, 92.2806, -180.69)">
<stop offset="0" stop-color="rgb(98.429871%, 98.429871%, 98.429871%)" stop-opacity="1"/>
<stop offset="0.5" stop-color="rgb(98.429871%, 98.429871%, 98.429871%)" stop-opacity="1"/>
<stop offset="0.5625" stop-color="rgb(98.429871%, 98.429871%, 98.429871%)" stop-opacity="1"/>
<stop offset="0.59375" stop-color="rgb(98.376465%, 98.376465%, 98.376465%)" stop-opacity="1"/>
<stop offset="0.625" stop-color="rgb(98.179626%, 98.179626%, 98.179626%)" stop-opacity="1"/>
<stop offset="0.75" stop-color="rgb(98.03772%, 98.03772%, 98.03772%)" stop-opacity="1"/>
<stop offset="1" stop-color="rgb(98.03772%, 98.03772%, 98.03772%)" stop-opacity="1"/>
</linearGradient>
<clipPath id="clip-1">
<path clip-rule="nonzero" d="M 209.746094 0 L 271.019531 0 L 271.019531 2000 L 209.746094 2000 Z M 209.746094 0 "/>
</clipPath>
<linearGradient id="linear-pattern-1" gradientUnits="userSpaceOnUse" x1="0.0740638" y1="0" x2="0.895134" y2="0" gradientTransform="matrix(33.2851, 2436.41, -2436.41, 33.2851, 224.872, -180.69)">
<stop offset="0" stop-color="rgb(98.429871%, 98.429871%, 98.429871%)" stop-opacity="1"/>
<stop offset="0.5" stop-color="rgb(98.429871%, 98.429871%, 98.429871%)" stop-opacity="1"/>
<stop offset="0.5625" stop-color="rgb(98.429871%, 98.429871%, 98.429871%)" stop-opacity="1"/>
<stop offset="0.59375" stop-color="rgb(98.376465%, 98.376465%, 98.376465%)" stop-opacity="1"/>
<stop offset="0.625" stop-color="rgb(98.179626%, 98.179626%, 98.179626%)" stop-opacity="1"/>
<stop offset="0.75" stop-color="rgb(98.03772%, 98.03772%, 98.03772%)" stop-opacity="1"/>
<stop offset="1" stop-color="rgb(98.03772%, 98.03772%, 98.03772%)" stop-opacity="1"/>
</linearGradient>
<clipPath id="clip-2">
<path clip-rule="nonzero" d="M 342.339844 0 L 403.613281 0 L 403.613281 2000 L 342.339844 2000 Z M 342.339844 0 "/>
</clipPath>
<linearGradient id="linear-pattern-2" gradientUnits="userSpaceOnUse" x1="0.0740638" y1="0" x2="0.895134" y2="0" gradientTransform="matrix(33.2851, 2436.41, -2436.41, 33.2851, 357.463, -180.69)">
<stop offset="0" stop-color="rgb(98.429871%, 98.429871%, 98.429871%)" stop-opacity="1"/>
<stop offset="0.5" stop-color="rgb(98.429871%, 98.429871%, 98.429871%)" stop-opacity="1"/>
<stop offset="0.5625" stop-color="rgb(98.429871%, 98.429871%, 98.429871%)" stop-opacity="1"/>
<stop offset="0.59375" stop-color="rgb(98.376465%, 98.376465%, 98.376465%)" stop-opacity="1"/>
<stop offset="0.625" stop-color="rgb(98.179626%, 98.179626%, 98.179626%)" stop-opacity="1"/>
<stop offset="0.75" stop-color="rgb(98.03772%, 98.03772%, 98.03772%)" stop-opacity="1"/>
<stop offset="1" stop-color="rgb(98.03772%, 98.03772%, 98.03772%)" stop-opacity="1"/>
</linearGradient>
<clipPath id="clip-3">
<path clip-rule="nonzero" d="M 474.929688 0 L 536.203125 0 L 536.203125 2000 L 474.929688 2000 Z M 474.929688 0 "/>
</clipPath>
<linearGradient id="linear-pattern-3" gradientUnits="userSpaceOnUse" x1="0.0740638" y1="0" x2="0.895134" y2="0" gradientTransform="matrix(33.2851, 2436.41, -2436.41, 33.2851, 490.054, -180.69)">
<stop offset="0" stop-color="rgb(98.429871%, 98.429871%, 98.429871%)" stop-opacity="1"/>
<stop offset="0.5" stop-color="rgb(98.429871%, 98.429871%, 98.429871%)" stop-opacity="1"/>
<stop offset="0.5625" stop-color="rgb(98.429871%, 98.429871%, 98.429871%)" stop-opacity="1"/>
<stop offset="0.59375" stop-color="rgb(98.376465%, 98.376465%, 98.376465%)" stop-opacity="1"/>
<stop offset="0.625" stop-color="rgb(98.179626%, 98.179626%, 98.179626%)" stop-opacity="1"/>
<stop offset="0.75" stop-color="rgb(98.03772%, 98.03772%, 98.03772%)" stop-opacity="1"/>
<stop offset="1" stop-color="rgb(98.03772%, 98.03772%, 98.03772%)" stop-opacity="1"/>
</linearGradient>
<clipPath id="clip-4">
<path clip-rule="nonzero" d="M 607.519531 0 L 668.792969 0 L 668.792969 2000 L 607.519531 2000 Z M 607.519531 0 "/>
</clipPath>
<linearGradient id="linear-pattern-4" gradientUnits="userSpaceOnUse" x1="0.0740638" y1="0" x2="0.895134" y2="0" gradientTransform="matrix(33.2851, 2436.41, -2436.41, 33.2851, 622.645, -180.69)">
<stop offset="0" stop-color="rgb(98.429871%, 98.429871%, 98.429871%)" stop-opacity="1"/>
<stop offset="0.5" stop-color="rgb(98.429871%, 98.429871%, 98.429871%)" stop-opacity="1"/>
<stop offset="0.5625" stop-color="rgb(98.429871%, 98.429871%, 98.429871%)" stop-opacity="1"/>
<stop offset="0.59375" stop-color="rgb(98.376465%, 98.376465%, 98.376465%)" stop-opacity="1"/>
<stop offset="0.625" stop-color="rgb(98.179626%, 98.179626%, 98.179626%)" stop-opacity="1"/>
<stop offset="0.75" stop-color="rgb(98.03772%, 98.03772%, 98.03772%)" stop-opacity="1"/>
<stop offset="1" stop-color="rgb(98.03772%, 98.03772%, 98.03772%)" stop-opacity="1"/>
</linearGradient>
<clipPath id="clip-5">
<path clip-rule="nonzero" d="M 740.113281 0 L 801.386719 0 L 801.386719 2000 L 740.113281 2000 Z M 740.113281 0 "/>
</clipPath>
<linearGradient id="linear-pattern-5" gradientUnits="userSpaceOnUse" x1="0.0740638" y1="0" x2="0.895134" y2="0" gradientTransform="matrix(33.2851, 2436.41, -2436.41, 33.2851, 755.236, -180.69)">
<stop offset="0" stop-color="rgb(98.429871%, 98.429871%, 98.429871%)" stop-opacity="1"/>
<stop offset="0.5" stop-color="rgb(98.429871%, 98.429871%, 98.429871%)" stop-opacity="1"/>
<stop offset="0.5625" stop-color="rgb(98.429871%, 98.429871%, 98.429871%)" stop-opacity="1"/>
<stop offset="0.59375" stop-color="rgb(98.376465%, 98.376465%, 98.376465%)" stop-opacity="1"/>
<stop offset="0.625" stop-color="rgb(98.179626%, 98.179626%, 98.179626%)" stop-opacity="1"/>
<stop offset="0.75" stop-color="rgb(98.03772%, 98.03772%, 98.03772%)" stop-opacity="1"/>
<stop offset="1" stop-color="rgb(98.03772%, 98.03772%, 98.03772%)" stop-opacity="1"/>
</linearGradient>
<clipPath id="clip-6">
<path clip-rule="nonzero" d="M 872.703125 0 L 933.976562 0 L 933.976562 2000 L 872.703125 2000 Z M 872.703125 0 "/>
</clipPath>
<linearGradient id="linear-pattern-6" gradientUnits="userSpaceOnUse" x1="0.0740638" y1="0" x2="0.895134" y2="0" gradientTransform="matrix(33.2851, 2436.41, -2436.41, 33.2851, 887.828, -180.69)">
<stop offset="0" stop-color="rgb(98.429871%, 98.429871%, 98.429871%)" stop-opacity="1"/>
<stop offset="0.5" stop-color="rgb(98.429871%, 98.429871%, 98.429871%)" stop-opacity="1"/>
<stop offset="0.5625" stop-color="rgb(98.429871%, 98.429871%, 98.429871%)" stop-opacity="1"/>
<stop offset="0.59375" stop-color="rgb(98.376465%, 98.376465%, 98.376465%)" stop-opacity="1"/>
<stop offset="0.625" stop-color="rgb(98.179626%, 98.179626%, 98.179626%)" stop-opacity="1"/>
<stop offset="0.75" stop-color="rgb(98.03772%, 98.03772%, 98.03772%)" stop-opacity="1"/>
<stop offset="1" stop-color="rgb(98.03772%, 98.03772%, 98.03772%)" stop-opacity="1"/>
</linearGradient>
<clipPath id="clip-7">
<path clip-rule="nonzero" d="M 1005.289062 0 L 1066.570312 0 L 1066.570312 2000 L 1005.289062 2000 Z M 1005.289062 0 "/>
</clipPath>
<linearGradient id="linear-pattern-7" gradientUnits="userSpaceOnUse" x1="0.0740637" y1="0" x2="0.895134" y2="0" gradientTransform="matrix(33.2851, 2436.41, -2436.41, 33.2851, 1020.42, -180.69)">
<stop offset="0" stop-color="rgb(98.429871%, 98.429871%, 98.429871%)" stop-opacity="1"/>
<stop offset="0.5" stop-color="rgb(98.429871%, 98.429871%, 98.429871%)" stop-opacity="1"/>
<stop offset="0.5625" stop-color="rgb(98.429871%, 98.429871%, 98.429871%)" stop-opacity="1"/>
<stop offset="0.59375" stop-color="rgb(98.376465%, 98.376465%, 98.376465%)" stop-opacity="1"/>
<stop offset="0.625" stop-color="rgb(98.179626%, 98.179626%, 98.179626%)" stop-opacity="1"/>
<stop offset="0.75" stop-color="rgb(98.03772%, 98.03772%, 98.03772%)" stop-opacity="1"/>
<stop offset="1" stop-color="rgb(98.03772%, 98.03772%, 98.03772%)" stop-opacity="1"/>
</linearGradient>
<clipPath id="clip-8">
<path clip-rule="nonzero" d="M 1137.890625 0 L 1199.160156 0 L 1199.160156 2000 L 1137.890625 2000 Z M 1137.890625 0 "/>
</clipPath>
<linearGradient id="linear-pattern-8" gradientUnits="userSpaceOnUse" x1="0.0740638" y1="0" x2="0.895134" y2="0" gradientTransform="matrix(33.2851, 2436.41, -2436.41, 33.2851, 1153.01, -180.69)">
<stop offset="0" stop-color="rgb(98.429871%, 98.429871%, 98.429871%)" stop-opacity="1"/>
<stop offset="0.5" stop-color="rgb(98.429871%, 98.429871%, 98.429871%)" stop-opacity="1"/>
<stop offset="0.5625" stop-color="rgb(98.429871%, 98.429871%, 98.429871%)" stop-opacity="1"/>
<stop offset="0.59375" stop-color="rgb(98.376465%, 98.376465%, 98.376465%)" stop-opacity="1"/>
<stop offset="0.625" stop-color="rgb(98.179626%, 98.179626%, 98.179626%)" stop-opacity="1"/>
<stop offset="0.75" stop-color="rgb(98.03772%, 98.03772%, 98.03772%)" stop-opacity="1"/>
<stop offset="1" stop-color="rgb(98.03772%, 98.03772%, 98.03772%)" stop-opacity="1"/>
</linearGradient>
<clipPath id="clip-9">
<path clip-rule="nonzero" d="M 1270.480469 0 L 1331.75 0 L 1331.75 2000 L 1270.480469 2000 Z M 1270.480469 0 "/>
</clipPath>
<linearGradient id="linear-pattern-9" gradientUnits="userSpaceOnUse" x1="0.0740638" y1="0" x2="0.895134" y2="0" gradientTransform="matrix(33.2851, 2436.41, -2436.41, 33.2851, 1285.6, -180.69)">
<stop offset="0" stop-color="rgb(98.429871%, 98.429871%, 98.429871%)" stop-opacity="1"/>
<stop offset="0.5" stop-color="rgb(98.429871%, 98.429871%, 98.429871%)" stop-opacity="1"/>
<stop offset="0.5625" stop-color="rgb(98.429871%, 98.429871%, 98.429871%)" stop-opacity="1"/>
<stop offset="0.59375" stop-color="rgb(98.376465%, 98.376465%, 98.376465%)" stop-opacity="1"/>
<stop offset="0.625" stop-color="rgb(98.179626%, 98.179626%, 98.179626%)" stop-opacity="1"/>
<stop offset="0.75" stop-color="rgb(98.03772%, 98.03772%, 98.03772%)" stop-opacity="1"/>
<stop offset="1" stop-color="rgb(98.03772%, 98.03772%, 98.03772%)" stop-opacity="1"/>
</linearGradient>
<clipPath id="clip-10">
<path clip-rule="nonzero" d="M 1403.070312 0 L 1464.339844 0 L 1464.339844 2000 L 1403.070312 2000 Z M 1403.070312 0 "/>
</clipPath>
<linearGradient id="linear-pattern-10" gradientUnits="userSpaceOnUse" x1="0.0740638" y1="0" x2="0.895134" y2="0" gradientTransform="matrix(33.2851, 2436.41, -2436.41, 33.2851, 1418.19, -180.69)">
<stop offset="0" stop-color="rgb(98.429871%, 98.429871%, 98.429871%)" stop-opacity="1"/>
<stop offset="0.5" stop-color="rgb(98.429871%, 98.429871%, 98.429871%)" stop-opacity="1"/>
<stop offset="0.5625" stop-color="rgb(98.429871%, 98.429871%, 98.429871%)" stop-opacity="1"/>
<stop offset="0.59375" stop-color="rgb(98.376465%, 98.376465%, 98.376465%)" stop-opacity="1"/>
<stop offset="0.625" stop-color="rgb(98.179626%, 98.179626%, 98.179626%)" stop-opacity="1"/>
<stop offset="0.75" stop-color="rgb(98.03772%, 98.03772%, 98.03772%)" stop-opacity="1"/>
<stop offset="1" stop-color="rgb(98.03772%, 98.03772%, 98.03772%)" stop-opacity="1"/>
</linearGradient>
<clipPath id="clip-11">
<path clip-rule="nonzero" d="M 1535.660156 0 L 1596.929688 0 L 1596.929688 2000 L 1535.660156 2000 Z M 1535.660156 0 "/>
</clipPath>
<linearGradient id="linear-pattern-11" gradientUnits="userSpaceOnUse" x1="0.0740638" y1="0" x2="0.895134" y2="0" gradientTransform="matrix(33.2851, 2436.41, -2436.41, 33.2851, 1550.78, -180.69)">
<stop offset="0" stop-color="rgb(98.429871%, 98.429871%, 98.429871%)" stop-opacity="1"/>
<stop offset="0.5" stop-color="rgb(98.429871%, 98.429871%, 98.429871%)" stop-opacity="1"/>
<stop offset="0.5625" stop-color="rgb(98.429871%, 98.429871%, 98.429871%)" stop-opacity="1"/>
<stop offset="0.59375" stop-color="rgb(98.376465%, 98.376465%, 98.376465%)" stop-opacity="1"/>
<stop offset="0.625" stop-color="rgb(98.179626%, 98.179626%, 98.179626%)" stop-opacity="1"/>
<stop offset="0.75" stop-color="rgb(98.03772%, 98.03772%, 98.03772%)" stop-opacity="1"/>
<stop offset="1" stop-color="rgb(98.03772%, 98.03772%, 98.03772%)" stop-opacity="1"/>
</linearGradient>
<clipPath id="clip-12">
<path clip-rule="nonzero" d="M 1668.25 0 L 1729.519531 0 L 1729.519531 2000 L 1668.25 2000 Z M 1668.25 0 "/>
</clipPath>
<linearGradient id="linear-pattern-12" gradientUnits="userSpaceOnUse" x1="0.0740638" y1="0" x2="0.895134" y2="0" gradientTransform="matrix(33.2851, 2436.41, -2436.41, 33.2851, 1683.37, -180.69)">
<stop offset="0" stop-color="rgb(98.429871%, 98.429871%, 98.429871%)" stop-opacity="1"/>
<stop offset="0.5" stop-color="rgb(98.429871%, 98.429871%, 98.429871%)" stop-opacity="1"/>
<stop offset="0.5625" stop-color="rgb(98.429871%, 98.429871%, 98.429871%)" stop-opacity="1"/>
<stop offset="0.59375" stop-color="rgb(98.376465%, 98.376465%, 98.376465%)" stop-opacity="1"/>
<stop offset="0.625" stop-color="rgb(98.179626%, 98.179626%, 98.179626%)" stop-opacity="1"/>
<stop offset="0.75" stop-color="rgb(98.03772%, 98.03772%, 98.03772%)" stop-opacity="1"/>
<stop offset="1" stop-color="rgb(98.03772%, 98.03772%, 98.03772%)" stop-opacity="1"/>
</linearGradient>
<clipPath id="clip-13">
<path clip-rule="nonzero" d="M 1800.839844 0 L 1862.109375 0 L 1862.109375 2000 L 1800.839844 2000 Z M 1800.839844 0 "/>
</clipPath>
<linearGradient id="linear-pattern-13" gradientUnits="userSpaceOnUse" x1="0.0740637" y1="0" x2="0.895134" y2="0" gradientTransform="matrix(33.2851, 2436.41, -2436.41, 33.2851, 1815.97, -180.69)">
<stop offset="0" stop-color="rgb(98.429871%, 98.429871%, 98.429871%)" stop-opacity="1"/>
<stop offset="0.5" stop-color="rgb(98.429871%, 98.429871%, 98.429871%)" stop-opacity="1"/>
<stop offset="0.5625" stop-color="rgb(98.429871%, 98.429871%, 98.429871%)" stop-opacity="1"/>
<stop offset="0.59375" stop-color="rgb(98.376465%, 98.376465%, 98.376465%)" stop-opacity="1"/>
<stop offset="0.625" stop-color="rgb(98.179626%, 98.179626%, 98.179626%)" stop-opacity="1"/>
<stop offset="0.75" stop-color="rgb(98.03772%, 98.03772%, 98.03772%)" stop-opacity="1"/>
<stop offset="1" stop-color="rgb(98.03772%, 98.03772%, 98.03772%)" stop-opacity="1"/>
</linearGradient>
<clipPath id="clip-14">
<path clip-rule="nonzero" d="M 1933.429688 0 L 1994.699219 0 L 1994.699219 2000 L 1933.429688 2000 Z M 1933.429688 0 "/>
</clipPath>
<linearGradient id="linear-pattern-14" gradientUnits="userSpaceOnUse" x1="0.0740637" y1="0" x2="0.895134" y2="0" gradientTransform="matrix(33.2851, 2436.41, -2436.41, 33.2851, 1948.56, -180.69)">
<stop offset="0" stop-color="rgb(98.429871%, 98.429871%, 98.429871%)" stop-opacity="1"/>
<stop offset="0.5" stop-color="rgb(98.429871%, 98.429871%, 98.429871%)" stop-opacity="1"/>
<stop offset="0.5625" stop-color="rgb(98.429871%, 98.429871%, 98.429871%)" stop-opacity="1"/>
<stop offset="0.59375" stop-color="rgb(98.376465%, 98.376465%, 98.376465%)" stop-opacity="1"/>
<stop offset="0.625" stop-color="rgb(98.179626%, 98.179626%, 98.179626%)" stop-opacity="1"/>
<stop offset="0.75" stop-color="rgb(98.03772%, 98.03772%, 98.03772%)" stop-opacity="1"/>
<stop offset="1" stop-color="rgb(98.03772%, 98.03772%, 98.03772%)" stop-opacity="1"/>
</linearGradient>
<clipPath id="clip-15">
<path clip-rule="nonzero" d="M 2066.019531 0 L 2127.300781 0 L 2127.300781 2000 L 2066.019531 2000 Z M 2066.019531 0 "/>
</clipPath>
<linearGradient id="linear-pattern-15" gradientUnits="userSpaceOnUse" x1="0.0740637" y1="0" x2="0.895134" y2="0" gradientTransform="matrix(33.2851, 2436.41, -2436.41, 33.2851, 2081.15, -180.69)">
<stop offset="0" stop-color="rgb(98.429871%, 98.429871%, 98.429871%)" stop-opacity="1"/>
<stop offset="0.5" stop-color="rgb(98.429871%, 98.429871%, 98.429871%)" stop-opacity="1"/>
<stop offset="0.5625" stop-color="rgb(98.429871%, 98.429871%, 98.429871%)" stop-opacity="1"/>
<stop offset="0.59375" stop-color="rgb(98.376465%, 98.376465%, 98.376465%)" stop-opacity="1"/>
<stop offset="0.625" stop-color="rgb(98.179626%, 98.179626%, 98.179626%)" stop-opacity="1"/>
<stop offset="0.75" stop-color="rgb(98.03772%, 98.03772%, 98.03772%)" stop-opacity="1"/>
<stop offset="1" stop-color="rgb(98.03772%, 98.03772%, 98.03772%)" stop-opacity="1"/>
</linearGradient>
<clipPath id="clip-16">
<path clip-rule="nonzero" d="M 2198.621094 0 L 2259.890625 0 L 2259.890625 2000 L 2198.621094 2000 Z M 2198.621094 0 "/>
</clipPath>
<linearGradient id="linear-pattern-16" gradientUnits="userSpaceOnUse" x1="0.0740638" y1="0" x2="0.895134" y2="0" gradientTransform="matrix(33.2851, 2436.41, -2436.41, 33.2851, 2213.74, -180.69)">
<stop offset="0" stop-color="rgb(98.429871%, 98.429871%, 98.429871%)" stop-opacity="1"/>
<stop offset="0.5" stop-color="rgb(98.429871%, 98.429871%, 98.429871%)" stop-opacity="1"/>
<stop offset="0.5625" stop-color="rgb(98.429871%, 98.429871%, 98.429871%)" stop-opacity="1"/>
<stop offset="0.59375" stop-color="rgb(98.376465%, 98.376465%, 98.376465%)" stop-opacity="1"/>
<stop offset="0.625" stop-color="rgb(98.179626%, 98.179626%, 98.179626%)" stop-opacity="1"/>
<stop offset="0.75" stop-color="rgb(98.03772%, 98.03772%, 98.03772%)" stop-opacity="1"/>
<stop offset="1" stop-color="rgb(98.03772%, 98.03772%, 98.03772%)" stop-opacity="1"/>
</linearGradient>
<clipPath id="clip-17">
<path clip-rule="nonzero" d="M 2331.210938 0 L 2392.480469 0 L 2392.480469 2000 L 2331.210938 2000 Z M 2331.210938 0 "/>
</clipPath>
<linearGradient id="linear-pattern-17" gradientUnits="userSpaceOnUse" x1="0.0740638" y1="0" x2="0.895134" y2="0" gradientTransform="matrix(33.2851, 2436.41, -2436.41, 33.2851, 2346.33, -180.69)">
<stop offset="0" stop-color="rgb(98.429871%, 98.429871%, 98.429871%)" stop-opacity="1"/>
<stop offset="0.5" stop-color="rgb(98.429871%, 98.429871%, 98.429871%)" stop-opacity="1"/>
<stop offset="0.5625" stop-color="rgb(98.429871%, 98.429871%, 98.429871%)" stop-opacity="1"/>
<stop offset="0.59375" stop-color="rgb(98.376465%, 98.376465%, 98.376465%)" stop-opacity="1"/>
<stop offset="0.625" stop-color="rgb(98.179626%, 98.179626%, 98.179626%)" stop-opacity="1"/>
<stop offset="0.75" stop-color="rgb(98.03772%, 98.03772%, 98.03772%)" stop-opacity="1"/>
<stop offset="1" stop-color="rgb(98.03772%, 98.03772%, 98.03772%)" stop-opacity="1"/>
</linearGradient>
<clipPath id="clip-18">
<path clip-rule="nonzero" d="M 2463.800781 0 L 2525.070312 0 L 2525.070312 2000 L 2463.800781 2000 Z M 2463.800781 0 "/>
</clipPath>
<linearGradient id="linear-pattern-18" gradientUnits="userSpaceOnUse" x1="0.0740638" y1="0" x2="0.895134" y2="0" gradientTransform="matrix(33.2851, 2436.41, -2436.41, 33.2851, 2478.92, -180.69)">
<stop offset="0" stop-color="rgb(98.429871%, 98.429871%, 98.429871%)" stop-opacity="1"/>
<stop offset="0.5" stop-color="rgb(98.429871%, 98.429871%, 98.429871%)" stop-opacity="1"/>
<stop offset="0.5625" stop-color="rgb(98.429871%, 98.429871%, 98.429871%)" stop-opacity="1"/>
<stop offset="0.59375" stop-color="rgb(98.376465%, 98.376465%, 98.376465%)" stop-opacity="1"/>
<stop offset="0.625" stop-color="rgb(98.179626%, 98.179626%, 98.179626%)" stop-opacity="1"/>
<stop offset="0.75" stop-color="rgb(98.03772%, 98.03772%, 98.03772%)" stop-opacity="1"/>
<stop offset="1" stop-color="rgb(98.03772%, 98.03772%, 98.03772%)" stop-opacity="1"/>
</linearGradient>
<clipPath id="clip-19">
<path clip-rule="nonzero" d="M 2596.390625 0 L 2657.660156 0 L 2657.660156 2000 L 2596.390625 2000 Z M 2596.390625 0 "/>
</clipPath>
<linearGradient id="linear-pattern-19" gradientUnits="userSpaceOnUse" x1="0.0740638" y1="0" x2="0.895134" y2="0" gradientTransform="matrix(33.2851, 2436.41, -2436.41, 33.2851, 2611.51, -180.69)">
<stop offset="0" stop-color="rgb(98.429871%, 98.429871%, 98.429871%)" stop-opacity="1"/>
<stop offset="0.5" stop-color="rgb(98.429871%, 98.429871%, 98.429871%)" stop-opacity="1"/>
<stop offset="0.5625" stop-color="rgb(98.429871%, 98.429871%, 98.429871%)" stop-opacity="1"/>
<stop offset="0.59375" stop-color="rgb(98.376465%, 98.376465%, 98.376465%)" stop-opacity="1"/>
<stop offset="0.625" stop-color="rgb(98.179626%, 98.179626%, 98.179626%)" stop-opacity="1"/>
<stop offset="0.75" stop-color="rgb(98.03772%, 98.03772%, 98.03772%)" stop-opacity="1"/>
<stop offset="1" stop-color="rgb(98.03772%, 98.03772%, 98.03772%)" stop-opacity="1"/>
</linearGradient>
<clipPath id="clip-20">
<path clip-rule="nonzero" d="M 2728.980469 0 L 2790.25 0 L 2790.25 2000 L 2728.980469 2000 Z M 2728.980469 0 "/>
</clipPath>
<linearGradient id="linear-pattern-20" gradientUnits="userSpaceOnUse" x1="0.0740638" y1="0" x2="0.895134" y2="0" gradientTransform="matrix(33.2851, 2436.41, -2436.41, 33.2851, 2744.1, -180.69)">
<stop offset="0" stop-color="rgb(98.429871%, 98.429871%, 98.429871%)" stop-opacity="1"/>
<stop offset="0.5" stop-color="rgb(98.429871%, 98.429871%, 98.429871%)" stop-opacity="1"/>
<stop offset="0.5625" stop-color="rgb(98.429871%, 98.429871%, 98.429871%)" stop-opacity="1"/>
<stop offset="0.59375" stop-color="rgb(98.376465%, 98.376465%, 98.376465%)" stop-opacity="1"/>
<stop offset="0.625" stop-color="rgb(98.179626%, 98.179626%, 98.179626%)" stop-opacity="1"/>
<stop offset="0.75" stop-color="rgb(98.03772%, 98.03772%, 98.03772%)" stop-opacity="1"/>
<stop offset="1" stop-color="rgb(98.03772%, 98.03772%, 98.03772%)" stop-opacity="1"/>
</linearGradient>
<clipPath id="clip-21">
<path clip-rule="nonzero" d="M 2861.570312 0 L 2922.839844 0 L 2922.839844 2000 L 2861.570312 2000 Z M 2861.570312 0 "/>
</clipPath>
<linearGradient id="linear-pattern-21" gradientUnits="userSpaceOnUse" x1="0.0740637" y1="0" x2="0.895134" y2="0" gradientTransform="matrix(33.2851, 2436.41, -2436.41, 33.2851, 2876.7, -180.69)">
<stop offset="0" stop-color="rgb(98.429871%, 98.429871%, 98.429871%)" stop-opacity="1"/>
<stop offset="0.5" stop-color="rgb(98.429871%, 98.429871%, 98.429871%)" stop-opacity="1"/>
<stop offset="0.5625" stop-color="rgb(98.429871%, 98.429871%, 98.429871%)" stop-opacity="1"/>
<stop offset="0.59375" stop-color="rgb(98.376465%, 98.376465%, 98.376465%)" stop-opacity="1"/>
<stop offset="0.625" stop-color="rgb(98.179626%, 98.179626%, 98.179626%)" stop-opacity="1"/>
<stop offset="0.75" stop-color="rgb(98.03772%, 98.03772%, 98.03772%)" stop-opacity="1"/>
<stop offset="1" stop-color="rgb(98.03772%, 98.03772%, 98.03772%)" stop-opacity="1"/>
</linearGradient>
</defs>


<g clip-path="url(#clip-0)">
<path fill-rule="nonzero" fill="url(#linear-pattern-0)" d="M 138.417969 -0.835938 L 49.839844 0.375 L 77.167969 2000.835938 L 165.746094 1999.625 Z M 138.417969 -0.835938 "/>
</g>
<g clip-path="url(#clip-1)">
<path fill-rule="nonzero" fill="url(#linear-pattern-1)" d="M 271.007812 -0.835938 L 182.429688 0.375 L 209.757812 2000.835938 L 298.339844 1999.625 Z M 271.007812 -0.835938 "/>
</g>
<g clip-path="url(#clip-2)">
<path fill-rule="nonzero" fill="url(#linear-pattern-2)" d="M 403.601562 -0.835938 L 315.019531 0.375 L 342.351562 2000.835938 L 430.929688 1999.625 Z M 403.601562 -0.835938 "/>
</g>
<g clip-path="url(#clip-3)">
<path fill-rule="nonzero" fill="url(#linear-pattern-3)" d="M 536.191406 -0.835938 L 447.613281 0.375 L 474.941406 2000.835938 L 563.519531 1999.625 Z M 536.191406 -0.835938 "/>
</g>
<g clip-path="url(#clip-4)">
<path fill-rule="nonzero" fill="url(#linear-pattern-4)" d="M 668.78125 -0.835938 L 580.203125 0.375 L 607.53125 2000.835938 L 696.109375 1999.625 Z M 668.78125 -0.835938 "/>
</g>
<g clip-path="url(#clip-5)">
<path fill-rule="nonzero" fill="url(#linear-pattern-5)" d="M 801.375 -0.835938 L 712.792969 0.375 L 740.125 2000.835938 L 828.703125 1999.625 Z M 801.375 -0.835938 "/>
</g>
<g clip-path="url(#clip-6)">
<path fill-rule="nonzero" fill="url(#linear-pattern-6)" d="M 933.964844 -0.835938 L 845.386719 0.375 L 872.714844 2000.835938 L 961.292969 1999.625 Z M 933.964844 -0.835938 "/>
</g>
<g clip-path="url(#clip-7)">
<path fill-rule="nonzero" fill="url(#linear-pattern-7)" d="M 1066.558594 -0.835938 L 977.972656 0.375 L 1005.300781 2000.835938 L 1093.886719 1999.625 Z M 1066.558594 -0.835938 "/>
</g>
<g clip-path="url(#clip-8)">
<path fill-rule="nonzero" fill="url(#linear-pattern-8)" d="M 1199.148438 -0.835938 L 1110.570312 0.375 L 1137.902344 2000.835938 L 1226.476562 1999.625 Z M 1199.148438 -0.835938 "/>
</g>
<g clip-path="url(#clip-9)">
<path fill-rule="nonzero" fill="url(#linear-pattern-9)" d="M 1331.738281 -0.835938 L 1243.160156 0.375 L 1270.492188 2000.835938 L 1359.066406 1999.625 Z M 1331.738281 -0.835938 "/>
</g>
<g clip-path="url(#clip-10)">
<path fill-rule="nonzero" fill="url(#linear-pattern-10)" d="M 1464.328125 -0.835938 L 1375.753906 0.375 L 1403.082031 2000.835938 L 1491.65625 1999.625 Z M 1464.328125 -0.835938 "/>
</g>
<g clip-path="url(#clip-11)">
<path fill-rule="nonzero" fill="url(#linear-pattern-11)" d="M 1596.917969 -0.835938 L 1508.34375 0.375 L 1535.671875 2000.835938 L 1624.246094 1999.625 Z M 1596.917969 -0.835938 "/>
</g>
<g clip-path="url(#clip-12)">
<path fill-rule="nonzero" fill="url(#linear-pattern-12)" d="M 1729.507812 -0.835938 L 1640.933594 0.375 L 1668.261719 2000.835938 L 1756.835938 1999.625 Z M 1729.507812 -0.835938 "/>
</g>
<g clip-path="url(#clip-13)">
<path fill-rule="nonzero" fill="url(#linear-pattern-13)" d="M 1862.097656 -0.835938 L 1773.523438 0.375 L 1800.851562 2000.835938 L 1889.429688 1999.625 Z M 1862.097656 -0.835938 "/>
</g>
<g clip-path="url(#clip-14)">
<path fill-rule="nonzero" fill="url(#linear-pattern-14)" d="M 1994.6875 -0.835938 L 1906.113281 0.375 L 1933.441406 2000.835938 L 2022.019531 1999.625 Z M 1994.6875 -0.835938 "/>
</g>
<g clip-path="url(#clip-15)">
<path fill-rule="nonzero" fill="url(#linear-pattern-15)" d="M 2127.289062 -0.835938 L 2038.703125 0.375 L 2066.03125 2000.835938 L 2154.617188 1999.625 Z M 2127.289062 -0.835938 "/>
</g>
<g clip-path="url(#clip-16)">
<path fill-rule="nonzero" fill="url(#linear-pattern-16)" d="M 2259.878906 -0.835938 L 2171.300781 0.375 L 2198.632812 2000.835938 L 2287.207031 1999.625 Z M 2259.878906 -0.835938 "/>
</g>
<g clip-path="url(#clip-17)">
<path fill-rule="nonzero" fill="url(#linear-pattern-17)" d="M 2392.46875 -0.835938 L 2303.890625 0.375 L 2331.222656 2000.835938 L 2419.796875 1999.625 Z M 2392.46875 -0.835938 "/>
</g>
<g clip-path="url(#clip-18)">
<path fill-rule="nonzero" fill="url(#linear-pattern-18)" d="M 2525.058594 -0.835938 L 2436.480469 0.375 L 2463.8125 2000.835938 L 2552.386719 1999.625 Z M 2525.058594 -0.835938 "/>
</g>
<g clip-path="url(#clip-19)">
<path fill-rule="nonzero" fill="url(#linear-pattern-19)" d="M 2657.648438 -0.835938 L 2569.070312 0.375 L 2596.402344 2000.835938 L 2684.976562 1999.625 Z M 2657.648438 -0.835938 "/>
</g>
<g clip-path="url(#clip-20)">
<path fill-rule="nonzero" fill="url(#linear-pattern-20)" d="M 2790.238281 -0.835938 L 2701.660156 0.375 L 2728.992188 2000.835938 L 2817.566406 1999.625 Z M 2790.238281 -0.835938 "/>
</g>
<g clip-path="url(#clip-21)">
<path fill-rule="nonzero" fill="url(#linear-pattern-21)" d="M 2922.828125 -0.835938 L 2834.253906 0.375 L 2861.582031 2000.835938 L 2950.15625 1999.625 Z M 2922.828125 -0.835938 "/>
</g>
<path fill-rule="nonzero" fill="rgb(4.704285%, 9.008789%, 33.714294%)" fill-opacity="1" d="M 2646.789062 879.789062 C 2646.488281 878.671875 2646.101562 877.550781 2645.71875 876.460938 C 2644.160156 871.941406 2643.378906 869.011719 2645.621094 866.390625 L 2646.578125 865.261719 L 2645.78125 864.011719 C 2644.121094 861.429688 2643.648438 859.730469 2643.921875 857.25 L 2644 856.429688 L 2643.488281 855.789062 C 2639.398438 850.660156 2637.621094 844.828125 2635.730469 838.648438 C 2635.480469 837.859375 2635.238281 837.058594 2634.988281 836.261719 L 2634.679688 835.28125 L 2633.710938 834.960938 C 2632.921875 834.699219 2632.171875 834.359375 2631.378906 834.011719 C 2630.941406 833.808594 2630.5 833.609375 2630.03125 833.421875 C 2630.050781 832.578125 2630.078125 831.71875 2630.121094 830.871094 C 2630.171875 829.5 2630.230469 828.078125 2630.210938 826.730469 L 2630.191406 825.890625 L 2629.578125 825.308594 C 2626.179688 822.070312 2624.800781 818.578125 2623.441406 813.269531 L 2623.058594 811.78125 L 2621.519531 811.761719 C 2620.089844 811.75 2618.769531 811.808594 2617.5 811.878906 C 2616.328125 811.941406 2615.238281 811.988281 2614.140625 811.980469 L 2613.199219 811.96875 L 2612.601562 812.691406 C 2611.839844 813.578125 2611.160156 814.480469 2610.5 815.339844 C 2610.410156 815.460938 2610.320312 815.578125 2610.230469 815.699219 L 2610.210938 815.679688 C 2609.699219 814.910156 2609.179688 814.128906 2608.738281 813.421875 L 2606.839844 810.410156 L 2605.25 813.589844 C 2604.511719 815.089844 2603.589844 816.699219 2602.679688 818.121094 L 2597.820312 819.019531 L 2597.300781 821.191406 C 2596.011719 820.449219 2595.058594 819.761719 2594.449219 818.820312 L 2595.828125 817.46875 L 2595.789062 816.578125 C 2595.601562 812.460938 2594.210938 808.5 2592.871094 804.671875 C 2592.160156 802.648438 2591.488281 800.730469 2591.011719 798.859375 L 2590.640625 797.371094 L 2589.101562 797.351562 C 2588.46875 797.359375 2587.949219 797.441406 2587.53125 797.511719 L 2587.390625 797.539062 C 2583.96875 794.390625 2582.53125 790.398438 2580.871094 785.808594 L 2580.140625 783.820312 L 2579.589844 783.460938 C 2578.769531 782.921875 2578.011719 782.308594 2577.199219 781.671875 C 2576.519531 781.121094 2575.820312 780.570312 2575.070312 780.039062 C 2574.871094 779.449219 2574.671875 778.859375 2574.46875 778.269531 C 2573.050781 774.089844 2571.589844 769.78125 2567.929688 766.398438 C 2567.570312 764.011719 2567.328125 761.558594 2567.089844 759.179688 C 2566.238281 750.550781 2565.359375 741.648438 2558.921875 734.070312 C 2558.988281 733.300781 2559.019531 732.539062 2559.058594 731.800781 C 2559.109375 730.800781 2559.160156 729.859375 2559.28125 728.929688 L 2559.558594 726.648438 L 2557.269531 726.679688 C 2556.191406 726.71875 2555.339844 726.230469 2554.121094 724.878906 C 2553.519531 720.449219 2551.878906 716.601562 2549.25 713.410156 C 2549.269531 713.148438 2549.300781 712.878906 2549.328125 712.609375 C 2549.390625 711.980469 2549.460938 711.328125 2549.441406 710.621094 L 2549.429688 709.800781 L 2548.839844 709.230469 C 2548.371094 708.78125 2547.839844 708.460938 2547.421875 708.210938 C 2547.320312 708.160156 2547.21875 708.101562 2547.128906 708.039062 C 2546.851562 706.878906 2546.578125 705.878906 2546.300781 704.898438 L 2546.109375 704.199219 L 2545.511719 703.789062 C 2543.839844 702.640625 2542.660156 700.769531 2541.398438 698.789062 C 2539.328125 695.53125 2536.980469 691.828125 2531.96875 691.148438 L 2531.289062 691.058594 L 2526.929688 693.589844 C 2525.628906 693.328125 2525.03125 692.578125 2524.429688 690.671875 L 2523.859375 688.828125 C 2523.519531 686.308594 2522.648438 683.960938 2521.761719 681.660156 C 2521.960938 681.128906 2522.191406 680.609375 2522.429688 680.058594 C 2522.800781 679.238281 2523.171875 678.378906 2523.480469 677.421875 L 2523.851562 676.238281 L 2522.96875 675.378906 C 2522.398438 674.828125 2521.828125 674.210938 2521.230469 673.558594 C 2520.730469 673.019531 2520.21875 672.460938 2519.699219 671.929688 C 2519.019531 669.519531 2519.800781 667.238281 2520.691406 664.621094 C 2520.808594 664.261719 2520.929688 663.898438 2521.050781 663.539062 L 2521.421875 662.410156 L 2520.601562 661.539062 C 2517.820312 658.609375 2517.058594 655.25 2516.25 651.691406 C 2515.609375 648.871094 2514.949219 645.949219 2513.308594 643.039062 L 2512.960938 642.410156 L 2505.578125 639.601562 C 2503.859375 637.660156 2503.171875 635.21875 2502.449219 632.648438 C 2501.660156 629.820312 2500.769531 626.671875 2498.339844 624.089844 C 2499.679688 622.128906 2501.011719 619.878906 2501.03125 616.949219 L 2501.03125 615.929688 L 2500.210938 615.328125 C 2499.648438 614.910156 2499.148438 614.488281 2498.660156 614.078125 C 2498.480469 613.929688 2498.300781 613.78125 2498.121094 613.628906 C 2498.351562 613.109375 2498.621094 612.550781 2498.890625 611.988281 L 2499.238281 611.261719 L 2498.988281 610.488281 C 2498.511719 609.070312 2498.101562 607.691406 2497.699219 606.351562 C 2497.351562 605.171875 2496.988281 603.960938 2496.578125 602.691406 C 2497.828125 598.691406 2497.851562 594.640625 2497.871094 590.71875 C 2497.890625 586.738281 2497.910156 582.988281 2499.140625 579.410156 L 2499.609375 578.019531 L 2498.429688 577.148438 C 2497.890625 576.75 2497.328125 576.269531 2496.738281 575.761719 C 2496.371094 575.441406 2495.988281 575.121094 2495.601562 574.800781 C 2495.5 570.878906 2495.621094 567.121094 2495.730469 563.171875 L 2495.78125 561.738281 L 2495.519531 561.269531 C 2495.351562 560.941406 2495.089844 560.53125 2494.828125 560.121094 C 2494.75 559.988281 2494.671875 559.871094 2494.589844 559.738281 C 2494.691406 559.019531 2494.828125 558.28125 2494.96875 557.511719 C 2495.160156 556.488281 2495.351562 555.421875 2495.46875 554.339844 L 2495.628906 552.921875 L 2494.339844 552.308594 C 2492.140625 551.269531 2489.949219 550.128906 2487.839844 549.03125 C 2485.96875 548.058594 2484.050781 547.058594 2482.078125 546.109375 L 2482.011719 545.898438 C 2486.101562 539.679688 2489.730469 532.390625 2485.441406 523.828125 L 2484.710938 522.371094 L 2483.140625 522.789062 C 2481.539062 523.210938 2479.929688 523.441406 2478.238281 523.648438 C 2477.128906 522.570312 2475.839844 521.359375 2474.53125 520.328125 L 2472.921875 519.050781 L 2471.691406 520.710938 C 2467.871094 525.851562 2461.421875 524.710938 2454.578125 523.488281 C 2453.601562 523.320312 2452.628906 523.148438 2451.691406 523 C 2444.398438 516.921875 2439.179688 508.621094 2434.128906 500.589844 C 2432.71875 498.339844 2431.261719 496.011719 2429.769531 493.769531 L 2426.308594 488.539062 L 2426.109375 494.800781 C 2426 498.078125 2424.730469 500.789062 2422.238281 503.078125 C 2420.640625 503.46875 2419.011719 503.828125 2417.808594 503.078125 L 2417.109375 502.640625 L 2416.308594 502.820312 C 2415.480469 503.011719 2414.699219 503.308594 2413.941406 503.640625 L 2413.820312 503.449219 L 2413.371094 502.589844 L 2412.421875 502.421875 C 2411.539062 502.261719 2410.730469 502.101562 2409.921875 501.941406 C 2409.390625 501.828125 2408.859375 501.71875 2408.300781 501.609375 C 2408.238281 501.511719 2408.171875 501.410156 2408.109375 501.308594 C 2407.910156 500.988281 2407.699219 500.671875 2407.558594 500.410156 L 2407.25 499.828125 L 2406.648438 499.550781 C 2402.128906 497.421875 2397.828125 496.089844 2392.390625 495.148438 C 2392.058594 494.761719 2391.75 494.398438 2391.429688 494.050781 C 2391 493.558594 2390.570312 493.070312 2390.140625 492.519531 L 2389.550781 491.761719 L 2384.988281 491.671875 L 2384.441406 492.078125 C 2383.878906 492.488281 2383.390625 492.839844 2382.898438 493.191406 C 2382.601562 493.398438 2382.300781 493.609375 2381.980469 493.839844 C 2380.101562 493.441406 2378.558594 492.351562 2376.808594 491.101562 C 2376.171875 490.640625 2375.511719 490.179688 2374.808594 489.71875 C 2374.378906 488.828125 2373.898438 487.96875 2373.441406 487.121094 C 2372.019531 484.519531 2370.679688 482.070312 2370.75 479.449219 L 2370.789062 477.988281 L 2369.410156 477.511719 C 2368.800781 477.289062 2368.160156 477.191406 2367.601562 477.101562 C 2367.359375 477.058594 2367.109375 477.019531 2366.898438 476.980469 C 2366.058594 476.058594 2365.179688 475.199219 2364.328125 474.359375 C 2363.550781 473.601562 2362.808594 472.878906 2362.109375 472.128906 L 2363.070312 461.578125 L 2359.480469 464.261719 C 2358.898438 464.679688 2358.261719 465.179688 2357.609375 465.679688 C 2357.210938 465.988281 2356.808594 466.300781 2356.429688 466.589844 C 2352.71875 466.210938 2349.328125 467.488281 2346.050781 468.738281 C 2344.699219 469.261719 2343.410156 469.75 2342.128906 470.109375 C 2339.238281 469.480469 2336.011719 468.839844 2333.148438 468.261719 L 2332.101562 468.050781 L 2331.039062 469.109375 L 2329.5 467.601562 L 2328.148438 468.480469 C 2327.828125 468.691406 2327.488281 468.859375 2327.078125 469.058594 C 2326.878906 469.160156 2326.660156 469.261719 2326.429688 469.378906 C 2325.71875 469.140625 2325 468.878906 2324.25 468.601562 C 2323.410156 468.289062 2322.550781 467.96875 2321.679688 467.679688 C 2321.050781 466.820312 2320.421875 465.910156 2319.789062 465 C 2319.011719 463.878906 2318.230469 462.761719 2317.460938 461.710938 L 2316.871094 460.921875 L 2313.789062 460.859375 C 2311.949219 459.761719 2310.050781 458.679688 2308.199219 457.648438 C 2305.828125 456.320312 2303.390625 454.941406 2300.96875 453.449219 C 2300.859375 452.960938 2300.75 452.449219 2300.648438 451.941406 C 2300.46875 451.128906 2300.289062 450.308594 2300.121094 449.570312 L 2299.929688 448.75 L 2299.210938 448.308594 C 2298.441406 447.851562 2297.761719 447.460938 2297.070312 447.070312 C 2296.710938 446.871094 2296.359375 446.671875 2295.988281 446.460938 C 2294.628906 443.820312 2292.5 442 2290.441406 440.238281 C 2289.71875 439.628906 2289.050781 439.050781 2288.398438 438.441406 L 2287.828125 437.910156 L 2287.058594 437.890625 C 2286.398438 437.878906 2285.859375 437.730469 2285.25 437.539062 C 2283.960938 435.96875 2282.878906 434.421875 2281.75 432.78125 L 2281.410156 432.289062 L 2268.640625 427.191406 L 2267.960938 427.410156 C 2266.5 427.871094 2265.078125 428.511719 2263.691406 429.171875 C 2260.800781 426.761719 2258.058594 424.960938 2254.109375 424.699219 C 2252.769531 422.621094 2251.421875 420.488281 2250.078125 418.359375 C 2248.53125 415.921875 2246.988281 413.46875 2245.449219 411.101562 L 2244.78125 410.070312 L 2243.558594 410.199219 C 2241.53125 410.410156 2239.730469 410.628906 2237.949219 410.851562 C 2233.210938 407.171875 2228.261719 403.488281 2223.558594 400.03125 C 2222.050781 395.101562 2218.570312 391.949219 2215.191406 388.890625 C 2212.511719 386.46875 2209.96875 384.171875 2208.398438 381.050781 L 2207.988281 380.230469 L 2207.109375 380.011719 C 2201.378906 378.539062 2196.070312 375.609375 2191.121094 372.660156 C 2188.398438 365 2182.308594 360.429688 2176.421875 356.019531 L 2174.609375 354.660156 L 2174.628906 354.488281 L 2174.660156 354.238281 C 2175.03125 354.050781 2175.371094 353.859375 2175.710938 353.679688 C 2176.308594 353.351562 2176.878906 353.03125 2177.480469 352.808594 L 2179.941406 351.851562 L 2178.351562 349.738281 C 2176.671875 347.5 2174.988281 345.191406 2173.300781 342.878906 C 2171.761719 340.761719 2170.230469 338.660156 2168.691406 336.601562 C 2168.558594 332.070312 2167.191406 327.941406 2165.859375 323.941406 C 2165.019531 321.410156 2164.21875 319 2163.730469 316.53125 C 2164.230469 315.691406 2164.609375 314.820312 2164.960938 314.03125 C 2165.078125 313.738281 2165.210938 313.460938 2165.328125 313.191406 L 2165.679688 312.441406 L 2165.398438 311.671875 C 2165.050781 310.710938 2164.640625 309.78125 2164.230469 308.871094 C 2163.839844 308 2163.480469 307.171875 2163.179688 306.351562 L 2162.96875 305.78125 L 2162.480469 305.421875 C 2153.929688 299.199219 2145.46875 296.089844 2136.699219 295.941406 L 2136.699219 295.929688 L 2136.828125 295.480469 L 2136.761719 295.019531 C 2135.539062 287.929688 2132 282.890625 2127.460938 277.160156 L 2127.308594 272.828125 L 2126.269531 272.300781 C 2125.960938 272.140625 2125.578125 271.96875 2125.199219 271.808594 C 2124.570312 266.21875 2121.460938 261.738281 2118.449219 257.398438 C 2117.960938 256.699219 2117.480469 256 2117.011719 255.300781 C 2117.179688 254.46875 2117.320312 253.621094 2117.449219 252.800781 C 2117.628906 251.71875 2117.800781 250.691406 2118.03125 249.761719 L 2118.351562 248.460938 L 2117.28125 247.660156 C 2115.679688 246.480469 2114.109375 245.199219 2112.578125 243.949219 C 2111.269531 242.878906 2109.921875 241.78125 2108.53125 240.71875 L 2108.328125 235.148438 L 2107.921875 234.628906 C 2107.511719 234.121094 2107.109375 233.640625 2106.710938 233.191406 C 2105.238281 231.488281 2104.46875 230.519531 2104.351562 228.898438 L 2104.191406 226.691406 L 2102 227.078125 C 2100.5 227.359375 2099.078125 227.710938 2097.710938 228.050781 C 2097.058594 228.210938 2096.429688 228.371094 2095.800781 228.511719 C 2095.71875 227.648438 2095.648438 226.78125 2095.578125 225.941406 C 2095.449219 224.320312 2095.320312 222.648438 2095.109375 220.980469 L 2094.898438 219.269531 L 2093.171875 219.230469 C 2092.441406 219.21875 2091.839844 219.289062 2091.300781 219.359375 C 2091.101562 219.378906 2090.910156 219.410156 2090.730469 219.429688 C 2090.109375 218.859375 2089.46875 218.328125 2088.851562 217.820312 C 2088.191406 217.269531 2087.570312 216.75 2086.988281 216.210938 C 2086.820312 215.589844 2086.621094 214.988281 2086.429688 214.410156 C 2086.199219 213.699219 2085.980469 213.019531 2085.828125 212.371094 L 2085.648438 211.609375 L 2085 211.171875 C 2084.640625 210.929688 2084.25 210.589844 2083.828125 210.238281 C 2083.539062 209.988281 2083.238281 209.75 2082.941406 209.511719 C 2082.828125 209.160156 2082.730469 208.820312 2082.621094 208.488281 C 2082.46875 207.988281 2082.308594 207.5 2082.148438 206.929688 L 2081.929688 206.148438 L 2081.230469 205.738281 C 2077.910156 203.800781 2075.929688 200.160156 2074.011719 196.628906 C 2073.871094 196.359375 2073.71875 196.101562 2073.578125 195.828125 C 2073.789062 194.910156 2074.03125 193.941406 2074.28125 192.988281 C 2074.589844 191.75 2074.921875 190.46875 2075.179688 189.261719 L 2075.488281 187.769531 L 2074.140625 187.070312 C 2070.890625 185.371094 2067.378906 183.421875 2063.960938 181.511719 C 2063.390625 176.730469 2060.730469 172.988281 2058.160156 169.378906 C 2057.121094 167.898438 2056.03125 166.378906 2055.121094 164.808594 L 2054.25 163.339844 L 2052.660156 163.960938 C 2052.058594 164.199219 2051.359375 164.378906 2050.609375 164.570312 C 2050.140625 164.691406 2049.660156 164.820312 2049.191406 164.960938 C 2049.101562 164.890625 2049 164.808594 2048.910156 164.738281 C 2048.519531 164.410156 2048.109375 164.078125 2047.601562 163.730469 L 2046.789062 163.179688 L 2045.851562 163.480469 C 2045.550781 163.578125 2045.289062 163.621094 2044.960938 163.691406 C 2044.808594 163.710938 2044.648438 163.738281 2044.480469 163.78125 C 2042.171875 162.421875 2040.03125 161.050781 2037.910156 159.679688 L 2036.53125 158.789062 L 2035.390625 159.96875 C 2033.820312 161.601562 2032.199219 163.269531 2030.609375 164.75 C 2015.410156 157.828125 2002.25 146.691406 1991.5 131.621094 L 1991.320312 131.371094 L 1991.070312 131.191406 C 1986.910156 128.039062 1982.898438 124.738281 1978.660156 121.230469 C 1977.238281 120.070312 1975.800781 118.878906 1974.328125 117.671875 L 1973.871094 117.300781 L 1973.28125 117.230469 C 1961.71875 115.988281 1951.300781 115.378906 1940.941406 120.53125 C 1936.179688 121.421875 1931.371094 122.570312 1926.710938 123.671875 C 1914.488281 126.578125 1901.851562 129.589844 1889.191406 128.101562 L 1888.140625 127.980469 L 1887.449219 128.769531 C 1883.710938 133.039062 1879.839844 137.429688 1876.011719 141.78125 L 1869.910156 148.710938 C 1857.109375 152.988281 1843.558594 155.738281 1830.441406 158.398438 C 1827.519531 158.988281 1824.601562 159.578125 1821.691406 160.191406 L 1819.550781 160.640625 L 1819.851562 161.628906 C 1807.089844 164.160156 1794.851562 168.359375 1782.988281 172.449219 C 1780.648438 173.25 1778.300781 174.058594 1775.949219 174.851562 L 1775.789062 174.519531 L 1773.941406 175.460938 C 1773.75 175.558594 1773.550781 175.640625 1773.359375 175.730469 L 1772.390625 176.058594 L 1772.421875 176.128906 C 1768.121094 177.800781 1763.441406 177.640625 1758.5 177.46875 C 1756.769531 177.398438 1755 177.339844 1753.210938 177.359375 C 1746.238281 170.28125 1738.929688 163.109375 1731.839844 156.160156 L 1730.730469 155.070312 L 1729.980469 155.019531 C 1724.261719 154.691406 1718.359375 154.351562 1713.199219 154.28125 C 1708.660156 151.210938 1704.039062 148.019531 1699.578125 144.929688 C 1695.070312 141.808594 1690.410156 138.589844 1685.828125 135.488281 L 1684.601562 134.660156 L 1683.449219 135.589844 C 1663.761719 151.558594 1644 167.558594 1624.179688 183.578125 C 1619.859375 177.878906 1615.539062 172.109375 1611.359375 166.511719 C 1607.21875 160.980469 1602.941406 155.261719 1598.671875 149.628906 L 1597.988281 148.730469 L 1596.871094 148.851562 C 1591.46875 149.410156 1586.25 149.699219 1581.140625 149.96875 L 1580.398438 150.011719 L 1579.871094 150.519531 C 1574.601562 155.558594 1569.390625 160.78125 1564.351562 165.828125 C 1561.671875 168.519531 1559 171.199219 1556.320312 173.839844 L 1555.859375 174.300781 L 1555.75 174.949219 C 1554.710938 181.410156 1554.539062 187.96875 1554.378906 194.308594 C 1554.171875 202.308594 1553.960938 210.570312 1551.941406 218.5 C 1539.460938 221.03125 1528.019531 222.449219 1517.050781 222.839844 L 1517.011719 222.769531 L 1515.96875 222.621094 C 1513.898438 222.308594 1511.738281 222.078125 1509.660156 221.859375 C 1507.621094 221.648438 1505.519531 221.421875 1503.539062 221.128906 L 1502.960938 221.050781 L 1502.429688 221.289062 C 1493.671875 225.230469 1490.261719 229.660156 1487.25 233.558594 C 1483.050781 239.019531 1479.421875 243.730469 1460.210938 245.929688 C 1459.621094 245.589844 1459.050781 245.21875 1458.449219 244.828125 C 1457.621094 244.300781 1456.769531 243.738281 1455.808594 243.25 L 1452.839844 241.738281 L 1452.859375 242.589844 C 1432.300781 228.769531 1420.550781 229.890625 1410.128906 230.871094 C 1400.488281 231.789062 1392.171875 232.578125 1377.800781 221.789062 L 1377.320312 221.429688 L 1376.730469 221.390625 C 1366.710938 220.691406 1358.371094 224.738281 1350.691406 228.988281 C 1342.929688 230.449219 1335.171875 231.898438 1327.410156 233.359375 C 1324.761719 231.769531 1321.890625 230.171875 1319.101562 228.628906 C 1305.058594 212.78125 1290 205.710938 1275.53125 208.160156 L 1273.609375 208.480469 L 1273.878906 210.410156 C 1274.898438 217.609375 1274.730469 225.160156 1274.570312 232.46875 C 1274.390625 240.671875 1274.21875 249.121094 1275.671875 257.308594 C 1273.589844 257.300781 1271.691406 257.5 1269.980469 257.941406 C 1267.550781 256.550781 1265.019531 255.289062 1262.570312 254.078125 C 1261.691406 253.648438 1260.820312 253.21875 1259.96875 252.789062 L 1259.359375 252.480469 L 1243.089844 255.539062 L 1242.628906 256.199219 C 1242.289062 256.671875 1241.96875 257.121094 1241.660156 257.570312 C 1240.75 258.871094 1239.941406 260.019531 1239.039062 261.160156 C 1229.578125 262.71875 1225.640625 260.949219 1221.101562 258.910156 C 1216.21875 256.730469 1210.699219 254.25 1198.230469 255.808594 L 1196.621094 256.011719 L 1196.488281 257.628906 C 1194.078125 287.371094 1177.410156 298.710938 1158.109375 311.851562 C 1151.210938 316.550781 1144.070312 321.398438 1137.019531 327.410156 L 1136.359375 327.96875 L 1136.320312 328.820312 C 1135.550781 342.769531 1128.609375 355.570312 1121.898438 367.949219 C 1120.058594 371.359375 1118.148438 374.878906 1116.398438 378.371094 L 1116.171875 378.828125 L 1116.191406 379.359375 C 1116.628906 388.921875 1120.808594 396.359375 1125.238281 404.238281 C 1126.050781 405.679688 1126.878906 407.171875 1127.691406 408.660156 C 1127.570312 408.910156 1127.460938 409.171875 1127.339844 409.421875 C 1124.910156 407.960938 1122.46875 406.46875 1120.28125 405 L 1118.980469 406.578125 C 1117.75 406.28125 1116.5 405.96875 1115.28125 405.660156 C 1113.328125 405.171875 1111.320312 404.660156 1109.398438 404.230469 L 1108.449219 404.019531 L 1107.699219 404.628906 C 1096.011719 414.148438 1082.300781 424.128906 1066.78125 423.390625 L 1066.761719 422.910156 L 1064.359375 422.929688 C 1061.609375 416.960938 1058.621094 410.730469 1055.640625 404.761719 L 1055.699219 404.691406 L 1055.03125 403.511719 L 1053.660156 400.78125 L 1053.558594 400.890625 C 1051.96875 398.011719 1050.390625 395.050781 1048.75 391.960938 C 1037.660156 371.148438 1025.128906 347.628906 1001.148438 340.191406 C 1001.601562 334.289062 1002.300781 328.289062 1002.96875 322.460938 L 1003.148438 320.851562 L 1001.621094 320.328125 C 993.382812 317.558594 989.339844 311.261719 984.90625 303.320312 L 984.371094 302.359375 L 983.277344 302.300781 C 973.644531 301.730469 966.523438 295.941406 960.832031 290.351562 L 960.269531 289.800781 L 959.476562 289.78125 C 955.765625 289.699219 952.054688 289.550781 948.46875 289.398438 C 944.792969 289.25 940.988281 289.089844 937.164062 289.011719 L 936.59375 289 L 936.105469 289.289062 C 927.207031 294.550781 919.242188 300.339844 911.757812 306.96875 L 911.519531 307.179688 L 911.359375 307.460938 C 904.964844 318.320312 895.378906 325.519531 885.292969 332.539062 L 883.203125 333.988281 L 883.546875 334.300781 C 867.871094 346.96875 865.003906 348.339844 843.769531 352.949219 L 842.960938 353.128906 L 833.726562 367.421875 C 819.789062 371.480469 805.238281 373.398438 791.160156 375.25 C 786.8125 375.820312 782.316406 376.410156 777.894531 377.058594 L 777.414062 377.128906 L 777.015625 377.410156 C 772.871094 380.398438 768.664062 383.699219 764.589844 386.910156 L 763.488281 386.558594 L 762.695312 387.980469 C 762.554688 388.238281 762.390625 388.5 762.246094 388.75 L 761.449219 389.378906 L 761.804688 389.488281 C 757.503906 396.769531 751.292969 404.261719 745.25 411.519531 C 743.140625 414.058594 741.136719 416.46875 739.207031 418.871094 C 726.894531 421.519531 714.917969 420.640625 702.25 419.699219 C 699.277344 419.480469 696.203125 419.25 693.160156 419.078125 L 692.488281 419.039062 L 691.933594 419.421875 C 666.160156 436.691406 647.089844 460.671875 628.648438 483.851562 C 623.824219 489.921875 618.839844 496.191406 613.800781 502.25 L 613.320312 502.828125 L 613.339844 503.578125 C 613.652344 516.578125 613.980469 530.03125 607.277344 542.789062 L 607.074219 543.171875 L 607.050781 543.601562 C 606.210938 558.210938 613.371094 569.679688 620.292969 580.761719 C 621.882812 583.300781 623.523438 585.929688 625.046875 588.558594 C 624.886719 590.121094 624.777344 591.628906 624.675781 593.101562 C 624.558594 594.71875 624.4375 596.390625 624.25 598.089844 L 623.863281 601.550781 L 626.257812 600.488281 C 625.621094 604.269531 624.269531 607.859375 622.839844 611.609375 C 621.929688 613.988281 620.992188 616.460938 620.234375 619.019531 L 619.847656 620.320312 L 620.910156 621.160156 C 623.078125 622.871094 625.351562 624.609375 627.546875 626.289062 C 629.1875 627.550781 630.859375 628.828125 632.503906 630.109375 C 627.175781 637.75 621.246094 645.730469 614.394531 654.46875 L 613.257812 655.921875 L 631.707031 673.011719 C 638.222656 679.039062 644.753906 685.089844 651.226562 691.078125 C 645.789062 695.070312 640.238281 699.101562 634.855469 703.011719 C 629.613281 706.808594 624.382812 710.609375 619.199219 714.410156 L 618.546875 714.179688 L 617.730469 714.699219 C 588.851562 733.050781 577.121094 729.960938 545.765625 721.699219 L 544.367188 721.328125 L 543.578125 722.539062 C 537.464844 731.929688 531.179688 738.539062 523.261719 743.890625 L 514.613281 743.988281 L 514.089844 745.160156 C 510.8125 752.460938 507.496094 759.609375 504.285156 766.519531 C 501.691406 767.558594 498.941406 768.460938 496.273438 769.339844 C 495.554688 769.578125 494.84375 769.820312 494.144531 770.050781 L 493.5 770.269531 L 493.121094 770.828125 C 491.441406 773.320312 489.8125 775.851562 488.238281 778.289062 C 486.683594 780.710938 485.070312 783.210938 483.421875 785.671875 L 482.691406 786.75 L 482.816406 786.941406 C 481.917969 786.359375 481.019531 785.769531 480.140625 785.179688 C 478.546875 784.121094 476.898438 783.03125 475.261719 782.011719 L 474.539062 781.570312 L 471.917969 782.230469 C 468.304688 783.140625 464.585938 784.078125 461.253906 785.160156 C 461.15625 784.988281 461.078125 784.839844 461.03125 784.699219 L 460.488281 783.019531 L 457.46875 783.589844 C 446.550781 785.660156 434.171875 788 426.851562 798.300781 L 426.539062 798.738281 L 426.488281 799.28125 C 425.636719 808.851562 421.773438 817.859375 415.320312 825.339844 L 415.152344 825.539062 L 415.035156 825.769531 C 406.527344 843.199219 411.296875 859.929688 415.914062 876.109375 C 417.394531 881.308594 418.929688 886.679688 419.976562 891.96875 C 420.421875 901.109375 418.4375 910.390625 416.519531 919.371094 C 415.769531 922.859375 415 926.46875 414.386719 930.011719 L 414.261719 930.71875 L 414.617188 931.339844 C 419.140625 939.289062 419.058594 943.28125 418.953125 948.339844 C 418.886719 951.46875 418.8125 955.03125 419.886719 959.871094 L 420.003906 960.410156 L 420.386719 960.808594 C 434.773438 975.988281 444.191406 997.910156 446.316406 1021.089844 C 445.742188 1021.53125 445.160156 1021.960938 444.558594 1022.398438 C 444.160156 1022.691406 443.75 1022.988281 443.339844 1023.300781 L 442.855469 1022.691406 L 441.300781 1023.839844 C 439.433594 1025.230469 437.59375 1026.621094 435.765625 1027.988281 C 431.523438 1031.191406 427.515625 1034.210938 423.300781 1037.148438 C 419.046875 1038.480469 414.855469 1039.820312 410.667969 1041.148438 C 405.941406 1042.648438 401.222656 1044.140625 396.421875 1045.640625 L 396.207031 1045.710938 L 396.011719 1045.820312 C 388.289062 1050.320312 380.625 1051.71875 372.585938 1050.128906 L 371.316406 1049.878906 L 370.566406 1050.929688 C 366.683594 1056.410156 364.859375 1062.648438 363.097656 1068.691406 C 360.933594 1076.109375 358.890625 1083.109375 353.300781 1088.511719 L 352.304688 1089.480469 L 352.859375 1090.75 C 353.636719 1092.53125 354.488281 1094.238281 355.316406 1095.898438 C 356.117188 1097.5 356.941406 1099.148438 357.675781 1100.828125 L 357.953125 1101.46875 L 358.566406 1101.789062 C 360.246094 1102.691406 362.003906 1103.511719 363.703125 1104.300781 C 365.042969 1104.929688 366.417969 1105.578125 367.734375 1106.25 C 368.003906 1108.660156 368.300781 1111.210938 368.585938 1113.039062 L 368.679688 1113.640625 L 369.089844 1114.078125 C 370.304688 1115.398438 371.605469 1116.730469 372.859375 1118.019531 C 374.101562 1119.289062 375.382812 1120.609375 376.5625 1121.890625 L 376.941406 1122.300781 L 377.488281 1122.460938 C 381.066406 1123.46875 384.816406 1124.269531 388.441406 1125.039062 L 390.875 1125.558594 L 391.382812 1125.390625 C 392.175781 1125.140625 393.0625 1124.949219 394 1124.738281 C 394.636719 1124.601562 395.285156 1124.460938 395.925781 1124.289062 C 396.339844 1124.628906 396.738281 1124.980469 397.152344 1125.339844 C 397.636719 1125.761719 398.136719 1126.191406 398.664062 1126.621094 C 398.757812 1127.429688 398.820312 1128.210938 398.886719 1129.03125 C 398.953125 1129.898438 399.035156 1130.808594 399.148438 1131.75 C 398.765625 1132.011719 398.386719 1132.261719 397.996094 1132.519531 C 396.546875 1133.480469 395.046875 1134.46875 393.800781 1135.488281 L 392.644531 1136.429688 L 393.214844 1137.808594 C 398.007812 1149.359375 401.097656 1161.640625 404.085938 1173.511719 C 405.238281 1178.089844 406.429688 1182.828125 407.707031 1187.480469 L 407.921875 1188.269531 L 408.628906 1188.679688 C 412.800781 1191.109375 417.050781 1193.609375 421.300781 1196.109375 C 425.046875 1198.320312 428.792969 1200.53125 432.480469 1202.679688 C 434.773438 1208.171875 438.730469 1212.199219 442.5625 1216.101562 C 445.722656 1219.308594 448.71875 1222.359375 450.773438 1226.121094 C 450.21875 1226.828125 449.597656 1227.53125 448.953125 1228.25 C 448.617188 1228.628906 448.273438 1229.019531 447.933594 1229.421875 L 447.566406 1229.410156 L 447.390625 1230.050781 L 444.878906 1233.03125 L 446.605469 1233.078125 C 445.6875 1236.890625 445.023438 1240.910156 444.390625 1244.839844 C 442.753906 1255.03125 441.058594 1265.570312 434.617188 1272.609375 L 434.265625 1272.988281 L 434.148438 1273.5 C 433.757812 1275.179688 433.28125 1276.898438 432.820312 1278.570312 C 432.402344 1280.078125 431.96875 1281.640625 431.589844 1283.199219 L 424.511719 1289.289062 L 424.460938 1290.128906 C 424.082031 1296.28125 420.933594 1301.878906 416.214844 1304.859375 C 410.445312 1305.28125 405.921875 1302.929688 402.398438 1297.679688 L 401.816406 1296.820312 L 400.769531 1296.800781 C 399.988281 1296.789062 399.320312 1296.878906 398.789062 1296.949219 C 398.414062 1297 398.097656 1297.039062 397.828125 1297.039062 L 396.800781 1297.03125 L 396.191406 1297.859375 C 391.269531 1304.519531 391.746094 1312.121094 392.207031 1319.46875 L 392.261719 1320.351562 L 392.550781 1320.789062 C 399.441406 1331.359375 402.765625 1344.039062 405.984375 1356.289062 C 407.855469 1363.429688 409.789062 1370.789062 412.414062 1377.761719 C 410.800781 1385.988281 409.644531 1394.761719 413.484375 1403.710938 L 413.644531 1404.078125 L 413.933594 1404.359375 C 414.625 1405.03125 415.261719 1405.78125 415.9375 1406.570312 C 416.636719 1407.390625 417.359375 1408.230469 418.175781 1409.019531 C 418.191406 1409.570312 418.039062 1410.328125 417.78125 1411.421875 C 417.480469 1412.691406 417.136719 1414.128906 417.289062 1415.589844 L 417.339844 1415.859375 C 418.007812 1418.558594 418.625 1421.390625 419.222656 1424.121094 C 419.714844 1426.390625 420.234375 1428.71875 420.78125 1431.011719 L 419.996094 1431 L 421.363281 1433.429688 L 421.539062 1434.140625 L 421.761719 1434.148438 C 423.90625 1438 425.886719 1443.539062 427.980469 1449.398438 C 432.566406 1462.25 437.765625 1476.820312 447.320312 1480.378906 L 447.742188 1480.53125 L 448.191406 1480.488281 C 449.453125 1480.378906 450.636719 1480.339844 451.886719 1480.300781 C 452.664062 1480.269531 453.457031 1480.238281 454.277344 1480.199219 C 458.691406 1491.519531 465.351562 1502.019531 471.800781 1512.199219 C 480.078125 1525.261719 488.632812 1538.761719 492.210938 1553.789062 C 487.652344 1557.339844 485.003906 1561.851562 484.332031 1567.21875 C 482.789062 1579.558594 492.140625 1591.960938 496.230469 1596.710938 L 496.640625 1597.191406 L 497.246094 1597.339844 C 507.328125 1599.949219 517.476562 1602.851562 527.292969 1605.671875 L 530.097656 1606.46875 L 529.964844 1605 C 539.351562 1607.25 548.941406 1609.550781 558.195312 1611.808594 C 574.628906 1645.710938 586.0625 1682.539062 597.121094 1718.160156 C 606.507812 1748.390625 616.214844 1779.648438 628.984375 1809.28125 L 628.476562 1809.78125 L 629.777344 1811.210938 L 629.839844 1811.269531 L 630.210938 1812.128906 L 630.449219 1811.890625 C 639.933594 1821.78125 652.0625 1824.269531 664.429688 1824.269531 C 670.871094 1824.269531 677.378906 1823.601562 683.605469 1822.960938 C 688.480469 1822.460938 693.082031 1821.980469 697.472656 1821.820312 L 698.640625 1821.78125 L 699.175781 1820.75 C 699.230469 1820.640625 699.277344 1820.539062 699.332031 1820.429688 C 708.804688 1820.28125 715.199219 1813.609375 720.878906 1807.660156 C 722.8125 1805.640625 724.640625 1803.71875 726.570312 1802.03125 C 743.511719 1795.351562 747.113281 1797.378906 754.242188 1801.398438 C 759.449219 1804.328125 766.578125 1808.351562 781.214844 1810.558594 L 781.789062 1810.648438 L 782.320312 1810.410156 C 787.074219 1808.308594 792.066406 1806.359375 796.894531 1804.46875 C 798.175781 1803.96875 799.445312 1803.480469 800.710938 1802.980469 C 818.042969 1805.761719 821.015625 1808.808594 825.90625 1813.839844 C 829.0625 1817.078125 832.976562 1821.101562 841.597656 1826.039062 C 848.546875 1835.96875 849.671875 1848.980469 850.765625 1861.558594 C 851.183594 1866.390625 851.617188 1871.390625 852.382812 1876.039062 L 852.601562 1877.351562 L 853.894531 1877.660156 C 867.335938 1880.859375 881.320312 1881.78125 895.363281 1881.78125 C 904.953125 1881.78125 914.570312 1881.351562 924.054688 1880.929688 C 938.28125 1880.289062 952.996094 1879.640625 967.125 1880.460938 L 967.351562 1880.480469 L 967.574219 1880.441406 C 973.976562 1879.351562 980.558594 1878.171875 986.921875 1877.019531 C 992.765625 1875.96875 998.804688 1874.890625 1004.671875 1873.878906 L 1004.929688 1873.839844 L 1005.171875 1873.730469 C 1020.898438 1866.570312 1036.121094 1859.378906 1054.25 1850.789062 C 1061.789062 1856.511719 1069.328125 1862.230469 1076.859375 1867.960938 L 1076.628906 1868.871094 L 1077.769531 1869.660156 C 1081.238281 1872.039062 1084.789062 1874.769531 1088.25 1877.429688 L 1088.679688 1877.769531 L 1089.230469 1877.828125 C 1093.648438 1878.351562 1097.980469 1878.601562 1102.238281 1878.601562 C 1144.648438 1878.601562 1179.738281 1854.121094 1213.769531 1830.378906 C 1222.769531 1824.101562 1232.070312 1817.609375 1241.289062 1811.75 C 1265.070312 1824.179688 1273.601562 1824.148438 1293.820312 1824.070312 C 1297.621094 1824.058594 1301.929688 1824.039062 1306.820312 1824.109375 L 1308.691406 1824.140625 L 1308.710938 1823.859375 C 1315.058594 1824.148438 1321.390625 1824.210938 1327.550781 1824.261719 C 1332.058594 1829.660156 1336.171875 1835.820312 1340.140625 1841.789062 C 1347.960938 1853.53125 1356.050781 1865.671875 1367.898438 1873.25 L 1368.511719 1873.648438 L 1369.238281 1873.550781 C 1371.429688 1873.261719 1373.640625 1872.890625 1375.78125 1872.539062 C 1377.878906 1872.191406 1380.039062 1871.828125 1382.160156 1871.550781 L 1382.71875 1871.46875 L 1383.160156 1871.109375 C 1386.699219 1868.21875 1390.269531 1865.328125 1393.851562 1862.429688 C 1401.328125 1856.359375 1409.070312 1850.078125 1416.601562 1843.738281 C 1419.5 1843.070312 1422.550781 1843.25 1425.769531 1843.449219 C 1430.800781 1843.75 1436 1844.058594 1440.910156 1841.011719 L 1442.019531 1840.328125 L 1441.839844 1839.03125 C 1441.699219 1838.070312 1441.628906 1837.03125 1441.550781 1835.921875 C 1441.519531 1835.410156 1441.480469 1834.890625 1441.441406 1834.371094 C 1442.011719 1834.261719 1442.601562 1834.148438 1443.199219 1834.050781 C 1444.441406 1833.820312 1445.730469 1833.589844 1446.949219 1833.28125 L 1448.351562 1832.929688 L 1448.449219 1831.488281 C 1448.738281 1827.480469 1449.019531 1823.558594 1449.308594 1819.628906 C 1449.550781 1816.371094 1449.789062 1813.101562 1450.03125 1809.789062 C 1453.941406 1807.5 1457.679688 1804.679688 1461.308594 1801.949219 C 1468.410156 1796.609375 1475.738281 1791.089844 1484.21875 1789.71875 C 1505.628906 1805.398438 1526.660156 1803.070312 1548.089844 1799.019531 L 1548.761719 1798.890625 L 1549.210938 1798.390625 C 1550.96875 1796.441406 1552.671875 1794.398438 1554.308594 1792.429688 C 1555.949219 1790.46875 1557.640625 1788.449219 1559.359375 1786.539062 L 1559.730469 1786.128906 L 1559.839844 1785.589844 C 1561 1779.730469 1562.109375 1773.699219 1563.191406 1767.871094 C 1564.238281 1762.171875 1565.328125 1756.28125 1566.46875 1750.539062 C 1590.660156 1732.238281 1592.171875 1729.140625 1598.359375 1716.421875 C 1600.730469 1711.558594 1603.671875 1705.539062 1608.828125 1696.660156 C 1614.679688 1695.449219 1620.300781 1693.878906 1624.949219 1689.46875 L 1625.289062 1689.140625 L 1625.449219 1688.699219 C 1626.460938 1685.921875 1627.421875 1683.121094 1628.359375 1680.410156 C 1629.519531 1677.039062 1630.628906 1673.828125 1631.808594 1670.648438 C 1633.320312 1670.511719 1634.828125 1670.320312 1636.308594 1670.140625 C 1638.148438 1669.921875 1640.050781 1669.691406 1641.898438 1669.539062 L 1642.929688 1669.449219 L 1643.460938 1668.558594 C 1647.429688 1661.789062 1650.859375 1655.738281 1654.21875 1649.558594 L 1654.570312 1649.839844 L 1654.460938 1649.128906 L 1654.808594 1648.488281 L 1654.550781 1647.671875 C 1654.359375 1647.089844 1654.359375 1646.75 1654.371094 1645.929688 L 1654.378906 1644.96875 L 1653.730469 1644.449219 C 1651.921875 1632.519531 1653.289062 1620.21875 1657.800781 1607.898438 C 1660.550781 1606.089844 1663.339844 1604.320312 1666.050781 1602.601562 C 1668.039062 1601.339844 1670.078125 1600.03125 1672.121094 1598.710938 L 1672.140625 1598.738281 L 1672.371094 1598.558594 C 1673.191406 1598.019531 1674.019531 1597.488281 1674.839844 1596.949219 L 1676.289062 1596 L 1676.078125 1595.550781 C 1679.28125 1592.96875 1682.449219 1590.410156 1685.609375 1587.871094 C 1689.011719 1585.128906 1692.410156 1582.398438 1695.871094 1579.589844 L 1696.140625 1579.328125 C 1701.898438 1572.511719 1707.179688 1569.058594 1713.761719 1567.800781 C 1716.390625 1567.339844 1719.109375 1567.171875 1721.980469 1566.980469 C 1728.300781 1566.558594 1734.839844 1566.140625 1740.460938 1562.578125 C 1742.761719 1562.328125 1745.128906 1562.160156 1747.421875 1561.988281 C 1758.019531 1561.199219 1768.988281 1560.378906 1777.519531 1552.109375 L 1777.78125 1551.859375 L 1777.929688 1551.550781 C 1779.878906 1547.53125 1781.949219 1543.449219 1783.949219 1539.5 C 1785.609375 1536.199219 1787.320312 1532.820312 1788.96875 1529.449219 C 1789.589844 1529.828125 1790.179688 1530.230469 1790.679688 1530.609375 L 1792.589844 1532.050781 L 1793.671875 1529.921875 C 1793.929688 1529.398438 1794.269531 1528.871094 1794.628906 1528.300781 C 1794.71875 1528.148438 1794.808594 1528 1794.898438 1527.851562 C 1796.179688 1528.25 1797.441406 1528.609375 1798.679688 1528.96875 C 1800.011719 1529.351562 1801.371094 1529.738281 1802.71875 1530.160156 C 1803.191406 1532.71875 1803.859375 1535.671875 1804.761719 1539.140625 L 1804.949219 1539.898438 L 1805.609375 1540.328125 C 1809.25 1542.671875 1812.960938 1545.078125 1816.671875 1547.488281 C 1820.359375 1549.890625 1824.039062 1552.289062 1827.648438 1554.609375 L 1828 1554.828125 L 1828.410156 1554.898438 C 1832.039062 1555.511719 1834.53125 1558.25 1836.679688 1561.128906 L 1837.148438 1561.738281 L 1837.898438 1561.890625 C 1845.300781 1563.320312 1852.699219 1564.449219 1859.851562 1565.539062 L 1860.699219 1565.671875 L 1861.378906 1565.140625 C 1870.269531 1558.199219 1877.929688 1549.519531 1885.339844 1541.121094 C 1889.53125 1536.378906 1893.859375 1531.480469 1898.300781 1527.03125 C 1911.550781 1524.191406 1925.269531 1521.300781 1938.550781 1518.5 L 1944.441406 1517.261719 C 1948.988281 1517.859375 1953.628906 1517.570312 1958.148438 1517.269531 C 1966.300781 1516.738281 1974 1516.238281 1980.339844 1520.871094 C 1980.570312 1521.371094 1980.839844 1521.78125 1981.050781 1522.101562 C 1981.148438 1522.25 1981.25 1522.378906 1981.320312 1522.519531 L 1981.570312 1523.039062 L 1982.050781 1523.339844 C 1987.441406 1526.75 1992.789062 1530.328125 1997.960938 1533.789062 C 2001.140625 1535.898438 2004.289062 1538.011719 2007.441406 1540.078125 L 2008.261719 1540.621094 L 2009.191406 1540.289062 C 2010.941406 1539.691406 2012.648438 1539.148438 2014.300781 1538.628906 C 2015.570312 1538.230469 2016.878906 1537.808594 2018.21875 1537.371094 C 2019.488281 1538.898438 2020.671875 1540.601562 2021.820312 1542.238281 C 2025.699219 1547.820312 2029.710938 1553.589844 2037.859375 1554.410156 L 2038.199219 1554.449219 L 2038.539062 1554.359375 C 2053.210938 1550.75 2068.890625 1548.488281 2085.148438 1547.628906 C 2085.300781 1547.828125 2085.449219 1548 2085.589844 1548.148438 L 2086.109375 1548.679688 L 2086.859375 1548.738281 C 2089.789062 1548.960938 2092.960938 1549.179688 2096.160156 1549.398438 C 2098.171875 1552.160156 2100.128906 1554.859375 2102.078125 1557.558594 C 2104.039062 1560.269531 2106.011719 1562.980469 2108.03125 1565.761719 L 2108.410156 1566.28125 L 2109.03125 1566.480469 C 2118.539062 1569.589844 2128.890625 1571.148438 2140.011719 1571.148438 C 2153.589844 1571.148438 2168.308594 1568.828125 2184.058594 1564.199219 L 2184.371094 1564.078125 C 2196.769531 1558.101562 2212.359375 1554.800781 2230.730469 1554.269531 C 2235.921875 1556.5 2241.039062 1559.191406 2246 1561.789062 C 2249.039062 1563.378906 2252.171875 1565.019531 2255.328125 1566.570312 L 2254.589844 1567.019531 L 2258.390625 1568.480469 C 2259.140625 1568.761719 2259.960938 1569.050781 2260.78125 1569.328125 C 2261.539062 1569.601562 2262.308594 1569.871094 2263.011719 1570.140625 L 2264.089844 1570.550781 L 2264.988281 1569.820312 C 2270.929688 1564.980469 2277.359375 1559.78125 2284.121094 1554.558594 L 2284.308594 1554.421875 L 2284.460938 1554.21875 C 2288.078125 1549.648438 2291.488281 1544.789062 2294.78125 1540.089844 C 2297.328125 1536.460938 2299.960938 1532.710938 2302.640625 1529.148438 L 2302.839844 1528.828125 C 2304.808594 1524.808594 2306.378906 1520.988281 2307.890625 1517.289062 C 2312.679688 1505.601562 2316.46875 1496.371094 2329.039062 1492.058594 L 2329.179688 1492.078125 C 2329.839844 1492.210938 2330.449219 1492.328125 2331.050781 1492.449219 C 2331.558594 1492.558594 2332.070312 1492.660156 2332.621094 1492.761719 C 2338.449219 1497.671875 2343.46875 1504.601562 2346.800781 1512.328125 L 2346.921875 1512.578125 C 2352 1520.921875 2359.519531 1526.871094 2366.800781 1532.628906 C 2367.691406 1533.328125 2368.570312 1534.03125 2369.449219 1534.730469 L 2369.871094 1535.070312 L 2376.589844 1536.050781 L 2377.300781 1535.390625 C 2381.039062 1531.898438 2384.660156 1528.53125 2388.308594 1525.121094 L 2395.589844 1518.339844 L 2395.730469 1517.75 C 2395.898438 1517.039062 2396.058594 1516.398438 2396.230469 1515.75 C 2396.398438 1515.078125 2396.570312 1514.410156 2396.75 1513.671875 L 2397.050781 1512.398438 L 2396.71875 1512.160156 C 2397.011719 1511.109375 2397.230469 1510.078125 2397.441406 1509.070312 C 2409.488281 1491.851562 2410.800781 1471.429688 2412.058594 1451.679688 C 2412.578125 1443.558594 2413.128906 1435.199219 2414.410156 1427.160156 L 2416.539062 1429.289062 L 2416.96875 1425.121094 C 2418.519531 1410.179688 2420.050781 1394.96875 2421.5 1380.5 L 2421.53125 1380.519531 L 2421.53125 1380.179688 C 2421.640625 1379.078125 2421.75 1377.96875 2421.859375 1376.878906 L 2421.988281 1375.589844 L 2421.570312 1375.351562 C 2421.558594 1371.730469 2421.410156 1368.050781 2421.261719 1364.46875 C 2420.769531 1353.171875 2420.28125 1341.511719 2424.511719 1330.960938 L 2425.351562 1331.488281 L 2426.199219 1329.148438 C 2427.140625 1326.539062 2428.25 1324.078125 2429.421875 1321.480469 C 2429.640625 1320.988281 2429.859375 1320.511719 2430.078125 1320.019531 C 2432.871094 1319.449219 2435.691406 1318.820312 2438.429688 1318.210938 C 2441.46875 1317.53125 2444.621094 1316.820312 2447.710938 1316.210938 L 2448.289062 1316.089844 L 2455.921875 1308.648438 L 2455.640625 1308.210938 C 2457.140625 1307.351562 2458.910156 1306.769531 2460.75 1306.179688 C 2462.238281 1305.699219 2463.761719 1305.210938 2465.191406 1304.539062 C 2487.589844 1310.171875 2492.589844 1311.28125 2515.96875 1304.019531 C 2520.109375 1303.960938 2524.398438 1303.96875 2528.539062 1303.988281 C 2532.839844 1304 2537.289062 1304.011719 2541.519531 1303.949219 C 2544.660156 1304.039062 2547.921875 1304.390625 2551.058594 1304.71875 C 2559.320312 1305.589844 2567.859375 1306.488281 2576.179688 1303.320312 L 2577.808594 1302.699219 L 2577.421875 1301 C 2577.171875 1299.921875 2576.988281 1298.828125 2576.789062 1297.679688 C 2576.648438 1296.839844 2576.511719 1295.980469 2576.328125 1295.109375 C 2576.429688 1294.980469 2576.519531 1294.851562 2576.601562 1294.71875 C 2578.089844 1294.601562 2579.550781 1294.519531 2580.960938 1294.449219 C 2582.859375 1294.339844 2584.648438 1294.25 2586.5 1294.070312 L 2586.820312 1294.011719 C 2589.929688 1293.199219 2589.878906 1290.25 2589.859375 1289.179688 C 2589.851562 1283.691406 2588.191406 1278.570312 2586.589844 1273.621094 C 2584.160156 1266.160156 2581.878906 1259.101562 2585.519531 1251.519531 L 2586 1250.539062 L 2578.878906 1238.960938 L 2578.949219 1235.738281 L 2577.890625 1235.160156 C 2576.878906 1234.601562 2575.800781 1233.96875 2574.710938 1233.339844 C 2573.929688 1232.890625 2573.148438 1232.429688 2572.398438 1232.011719 L 2571.808594 1225.828125 L 2572.011719 1225.410156 C 2573.960938 1221.289062 2575.800781 1217.390625 2578.839844 1214.121094 C 2580.640625 1214.089844 2582.25 1214.039062 2583.929688 1213.75 L 2584.898438 1213.578125 L 2585.359375 1212.710938 C 2585.578125 1212.300781 2585.691406 1211.980469 2585.78125 1211.730469 C 2585.828125 1211.589844 2585.878906 1211.449219 2585.980469 1211.269531 L 2591.359375 1201.058594 C 2591.738281 1200.628906 2592.140625 1200.21875 2592.539062 1199.808594 C 2594.570312 1197.699219 2596.871094 1195.308594 2596.859375 1191.511719 L 2596.859375 1191.199219 L 2596.769531 1190.898438 C 2595.320312 1186.378906 2592.21875 1183.269531 2589.230469 1180.261719 C 2586.378906 1177.398438 2583.679688 1174.691406 2582.78125 1171.03125 C 2583.328125 1169.460938 2583.828125 1167.929688 2584.308594 1166.441406 C 2584.839844 1164.828125 2585.378906 1163.160156 2585.980469 1161.460938 L 2586.550781 1159.871094 L 2585.058594 1159.050781 C 2584.058594 1158.488281 2583.121094 1157.929688 2582.179688 1157.371094 C 2581.578125 1157.011719 2580.980469 1156.648438 2580.359375 1156.289062 C 2580.75 1152.371094 2580.890625 1148.03125 2579.429688 1143.988281 C 2579.921875 1142.71875 2579.738281 1141.359375 2579.609375 1140.378906 C 2579.589844 1140.210938 2579.570312 1140.050781 2579.550781 1139.890625 L 2579.46875 1139.171875 L 2577.910156 1137.648438 C 2579.96875 1133.449219 2583.339844 1130.078125 2588.160156 1127.378906 L 2588.878906 1126.980469 L 2589.101562 1126.191406 C 2593.230469 1111.679688 2591.5 1108.878906 2587.511719 1104.390625 C 2585.96875 1102.640625 2584.109375 1100.550781 2582.320312 1096.660156 L 2582.589844 1096.558594 L 2581.558594 1094.53125 C 2581.328125 1094.078125 2581.140625 1093.519531 2580.949219 1092.929688 C 2580.800781 1092.5 2580.648438 1092.050781 2580.480469 1091.621094 C 2581.460938 1088.769531 2581.941406 1086.230469 2581.949219 1083.789062 C 2582.941406 1083.570312 2583.941406 1083.328125 2584.921875 1083.101562 C 2586.429688 1082.738281 2587.988281 1082.378906 2589.441406 1082.089844 L 2591.148438 1081.75 L 2591.050781 1080 C 2590.921875 1077.898438 2590.859375 1075.730469 2590.800781 1073.648438 C 2590.738281 1071.691406 2590.691406 1069.679688 2590.570312 1067.679688 C 2590.738281 1067.410156 2590.910156 1067.140625 2591.070312 1066.878906 C 2593.070312 1063.699219 2595.128906 1060.410156 2594.101562 1055.78125 L 2593.820312 1054.558594 L 2592.609375 1054.269531 C 2592.171875 1054.171875 2591.761719 1053.988281 2591.289062 1053.800781 C 2590.941406 1053.648438 2590.558594 1053.5 2590.148438 1053.351562 C 2588.460938 1050.71875 2587.988281 1047.609375 2587.488281 1044.339844 C 2587.390625 1043.691406 2587.289062 1043.039062 2587.179688 1042.390625 C 2587.421875 1041.808594 2587.648438 1041.160156 2587.890625 1040.46875 L 2588.300781 1039.269531 L 2583.410156 1034.488281 C 2583.351562 1034.179688 2583.308594 1033.859375 2583.269531 1033.53125 C 2583.191406 1032.898438 2583.109375 1032.25 2582.929688 1031.550781 L 2582.550781 1030.039062 L 2580.988281 1030.039062 C 2579.910156 1030.050781 2578.828125 1029.980469 2577.71875 1029.910156 C 2576.988281 1029.859375 2576.25 1029.820312 2575.480469 1029.789062 C 2572.648438 1023.339844 2572.390625 1016.730469 2574.828125 1011.921875 L 2575.289062 1011.011719 L 2574.828125 1010.109375 C 2573.21875 1006.96875 2574.191406 1004.21875 2575.410156 1000.730469 C 2576.328125 998.109375 2577.371094 995.148438 2577.109375 991.839844 L 2577.078125 991.441406 L 2576.898438 991.078125 C 2576.621094 990.53125 2576.328125 989.910156 2576.050781 989.300781 C 2575.871094 988.890625 2575.679688 988.480469 2575.488281 988.089844 C 2575.570312 987.890625 2575.660156 987.691406 2575.761719 987.46875 C 2576 986.921875 2576.269531 986.308594 2576.460938 985.570312 L 2576.539062 985.261719 L 2576.511719 984.929688 C 2576.269531 981.730469 2574.480469 979.378906 2572.898438 977.308594 C 2572.660156 977 2572.421875 976.691406 2572.199219 976.390625 C 2574.101562 973.191406 2574.53125 969.75 2574.671875 966.621094 C 2575.230469 966.300781 2575.820312 965.988281 2576.441406 965.671875 C 2577.421875 965.148438 2578.441406 964.621094 2579.398438 963.988281 L 2579.929688 963.648438 L 2580.160156 963.070312 C 2580.441406 962.398438 2580.648438 961.75 2580.839844 961.121094 L 2581.140625 961 C 2582.148438 960.578125 2583.089844 960.230469 2584.03125 959.878906 C 2584.839844 959.578125 2585.648438 959.269531 2586.511719 958.929688 C 2589.941406 959.511719 2593.460938 960.050781 2596.941406 958.25 L 2598.46875 959.738281 L 2599.609375 959.371094 C 2600.628906 959.039062 2601.328125 958.699219 2601.941406 958.398438 L 2602.890625 957.941406 L 2603.039062 956.890625 C 2603.191406 955.839844 2603.269531 954.828125 2603.339844 953.859375 C 2603.410156 952.890625 2603.46875 951.980469 2603.601562 951.179688 L 2603.78125 950.140625 L 2601.511719 947.941406 C 2601.46875 947.578125 2601.421875 947.25 2601.378906 946.949219 C 2601.359375 946.820312 2601.339844 946.699219 2601.320312 946.589844 C 2602.371094 945.800781 2603.28125 945.160156 2604.378906 944.519531 L 2605.191406 944.050781 L 2605.339844 943.121094 C 2605.46875 942.359375 2605.671875 941.648438 2605.878906 940.878906 C 2606.011719 940.390625 2606.148438 939.878906 2606.28125 939.339844 C 2606.710938 939.179688 2607.128906 939.011719 2607.460938 938.851562 L 2608.699219 938.25 L 2608.578125 936.878906 C 2608.050781 930.570312 2613.050781 924.761719 2617.46875 919.640625 C 2618.25 918.730469 2619.019531 917.839844 2619.738281 916.96875 C 2620.011719 916.890625 2620.289062 916.820312 2620.578125 916.738281 C 2621.121094 916.589844 2621.671875 916.441406 2622.128906 916.289062 L 2623.261719 915.929688 L 2624.109375 911.609375 L 2624.730469 910.441406 C 2627 906.140625 2629.410156 901.890625 2631.738281 897.78125 C 2633.101562 895.371094 2634.460938 892.980469 2635.78125 890.589844 L 2639.878906 890.609375 L 2640.339844 889.238281 C 2640.601562 888.449219 2640.941406 887.648438 2641.300781 886.800781 C 2641.570312 886.148438 2641.851562 885.46875 2642.109375 884.789062 C 2643.460938 883.929688 2644.789062 882.910156 2646.089844 881.898438 L 2647.140625 881.078125 L 2646.789062 879.789062 "/>
</svg>
