<?xml version="1.0" encoding="UTF-8"?>
<svg xmlns="http://www.w3.org/2000/svg" xmlns:xlink="http://www.w3.org/1999/xlink" width="2400" height="2400" viewBox="0 0 2400 2400">
<defs>
<clipPath id="clip-0">
<path clip-rule="nonzero" d="M 61.726562 0 L 110.742188 0 L 110.742188 2400 L 61.726562 2400 Z M 61.726562 0 "/>
</clipPath>
<linearGradient id="linear-pattern-0" gradientUnits="userSpaceOnUse" x1="0.0740725" y1="0" x2="0.895127" y2="0" gradientTransform="matrix(39.9373, 2923.34, -2923.34, 39.9373, 67.6219, -216.66)">
<stop offset="0" stop-color="rgb(98.429871%, 98.429871%, 98.429871%)" stop-opacity="1"/>
<stop offset="0.5" stop-color="rgb(98.429871%, 98.429871%, 98.429871%)" stop-opacity="1"/>
<stop offset="0.5625" stop-color="rgb(98.429871%, 98.429871%, 98.429871%)" stop-opacity="1"/>
<stop offset="0.59375" stop-color="rgb(98.376465%, 98.376465%, 98.376465%)" stop-opacity="1"/>
<stop offset="0.625" stop-color="rgb(98.179626%, 98.179626%, 98.179626%)" stop-opacity="1"/>
<stop offset="0.75" stop-color="rgb(98.03772%, 98.03772%, 98.03772%)" stop-opacity="1"/>
<stop offset="1" stop-color="rgb(98.03772%, 98.03772%, 98.03772%)" stop-opacity="1"/>
</linearGradient>
<clipPath id="clip-1">
<path clip-rule="nonzero" d="M 167.796875 0 L 216.816406 0 L 216.816406 2400 L 167.796875 2400 Z M 167.796875 0 "/>
</clipPath>
<linearGradient id="linear-pattern-1" gradientUnits="userSpaceOnUse" x1="0.0740725" y1="0" x2="0.895127" y2="0" gradientTransform="matrix(39.9373, 2923.34, -2923.34, 39.9373, 173.695, -216.66)">
<stop offset="0" stop-color="rgb(98.429871%, 98.429871%, 98.429871%)" stop-opacity="1"/>
<stop offset="0.5" stop-color="rgb(98.429871%, 98.429871%, 98.429871%)" stop-opacity="1"/>
<stop offset="0.5625" stop-color="rgb(98.429871%, 98.429871%, 98.429871%)" stop-opacity="1"/>
<stop offset="0.59375" stop-color="rgb(98.376465%, 98.376465%, 98.376465%)" stop-opacity="1"/>
<stop offset="0.625" stop-color="rgb(98.179626%, 98.179626%, 98.179626%)" stop-opacity="1"/>
<stop offset="0.75" stop-color="rgb(98.03772%, 98.03772%, 98.03772%)" stop-opacity="1"/>
<stop offset="1" stop-color="rgb(98.03772%, 98.03772%, 98.03772%)" stop-opacity="1"/>
</linearGradient>
<clipPath id="clip-2">
<path clip-rule="nonzero" d="M 273.871094 0 L 322.890625 0 L 322.890625 2400 L 273.871094 2400 Z M 273.871094 0 "/>
</clipPath>
<linearGradient id="linear-pattern-2" gradientUnits="userSpaceOnUse" x1="0.0740725" y1="0" x2="0.895127" y2="0" gradientTransform="matrix(39.9373, 2923.34, -2923.34, 39.9373, 279.768, -216.66)">
<stop offset="0" stop-color="rgb(98.429871%, 98.429871%, 98.429871%)" stop-opacity="1"/>
<stop offset="0.5" stop-color="rgb(98.429871%, 98.429871%, 98.429871%)" stop-opacity="1"/>
<stop offset="0.5625" stop-color="rgb(98.429871%, 98.429871%, 98.429871%)" stop-opacity="1"/>
<stop offset="0.59375" stop-color="rgb(98.376465%, 98.376465%, 98.376465%)" stop-opacity="1"/>
<stop offset="0.625" stop-color="rgb(98.179626%, 98.179626%, 98.179626%)" stop-opacity="1"/>
<stop offset="0.75" stop-color="rgb(98.03772%, 98.03772%, 98.03772%)" stop-opacity="1"/>
<stop offset="1" stop-color="rgb(98.03772%, 98.03772%, 98.03772%)" stop-opacity="1"/>
</linearGradient>
<clipPath id="clip-3">
<path clip-rule="nonzero" d="M 379.945312 0 L 428.960938 0 L 428.960938 2400 L 379.945312 2400 Z M 379.945312 0 "/>
</clipPath>
<linearGradient id="linear-pattern-3" gradientUnits="userSpaceOnUse" x1="0.0740725" y1="0" x2="0.895127" y2="0" gradientTransform="matrix(39.9373, 2923.34, -2923.34, 39.9373, 385.841, -216.66)">
<stop offset="0" stop-color="rgb(98.429871%, 98.429871%, 98.429871%)" stop-opacity="1"/>
<stop offset="0.5" stop-color="rgb(98.429871%, 98.429871%, 98.429871%)" stop-opacity="1"/>
<stop offset="0.5625" stop-color="rgb(98.429871%, 98.429871%, 98.429871%)" stop-opacity="1"/>
<stop offset="0.59375" stop-color="rgb(98.376465%, 98.376465%, 98.376465%)" stop-opacity="1"/>
<stop offset="0.625" stop-color="rgb(98.179626%, 98.179626%, 98.179626%)" stop-opacity="1"/>
<stop offset="0.75" stop-color="rgb(98.03772%, 98.03772%, 98.03772%)" stop-opacity="1"/>
<stop offset="1" stop-color="rgb(98.03772%, 98.03772%, 98.03772%)" stop-opacity="1"/>
</linearGradient>
<clipPath id="clip-4">
<path clip-rule="nonzero" d="M 486.015625 0 L 535.035156 0 L 535.035156 2400 L 486.015625 2400 Z M 486.015625 0 "/>
</clipPath>
<linearGradient id="linear-pattern-4" gradientUnits="userSpaceOnUse" x1="0.0740725" y1="0" x2="0.895127" y2="0" gradientTransform="matrix(39.9373, 2923.34, -2923.34, 39.9373, 491.914, -216.66)">
<stop offset="0" stop-color="rgb(98.429871%, 98.429871%, 98.429871%)" stop-opacity="1"/>
<stop offset="0.5" stop-color="rgb(98.429871%, 98.429871%, 98.429871%)" stop-opacity="1"/>
<stop offset="0.5625" stop-color="rgb(98.429871%, 98.429871%, 98.429871%)" stop-opacity="1"/>
<stop offset="0.59375" stop-color="rgb(98.376465%, 98.376465%, 98.376465%)" stop-opacity="1"/>
<stop offset="0.625" stop-color="rgb(98.179626%, 98.179626%, 98.179626%)" stop-opacity="1"/>
<stop offset="0.75" stop-color="rgb(98.03772%, 98.03772%, 98.03772%)" stop-opacity="1"/>
<stop offset="1" stop-color="rgb(98.03772%, 98.03772%, 98.03772%)" stop-opacity="1"/>
</linearGradient>
<clipPath id="clip-5">
<path clip-rule="nonzero" d="M 592.089844 0 L 641.109375 0 L 641.109375 2400 L 592.089844 2400 Z M 592.089844 0 "/>
</clipPath>
<linearGradient id="linear-pattern-5" gradientUnits="userSpaceOnUse" x1="0.0740725" y1="0" x2="0.895127" y2="0" gradientTransform="matrix(39.9373, 2923.34, -2923.34, 39.9373, 597.987, -216.66)">
<stop offset="0" stop-color="rgb(98.429871%, 98.429871%, 98.429871%)" stop-opacity="1"/>
<stop offset="0.5" stop-color="rgb(98.429871%, 98.429871%, 98.429871%)" stop-opacity="1"/>
<stop offset="0.5625" stop-color="rgb(98.429871%, 98.429871%, 98.429871%)" stop-opacity="1"/>
<stop offset="0.59375" stop-color="rgb(98.376465%, 98.376465%, 98.376465%)" stop-opacity="1"/>
<stop offset="0.625" stop-color="rgb(98.179626%, 98.179626%, 98.179626%)" stop-opacity="1"/>
<stop offset="0.75" stop-color="rgb(98.03772%, 98.03772%, 98.03772%)" stop-opacity="1"/>
<stop offset="1" stop-color="rgb(98.03772%, 98.03772%, 98.03772%)" stop-opacity="1"/>
</linearGradient>
<clipPath id="clip-6">
<path clip-rule="nonzero" d="M 698.160156 0 L 747.179688 0 L 747.179688 2400 L 698.160156 2400 Z M 698.160156 0 "/>
</clipPath>
<linearGradient id="linear-pattern-6" gradientUnits="userSpaceOnUse" x1="0.0740725" y1="0" x2="0.895127" y2="0" gradientTransform="matrix(39.9373, 2923.34, -2923.34, 39.9373, 704.06, -216.66)">
<stop offset="0" stop-color="rgb(98.429871%, 98.429871%, 98.429871%)" stop-opacity="1"/>
<stop offset="0.5" stop-color="rgb(98.429871%, 98.429871%, 98.429871%)" stop-opacity="1"/>
<stop offset="0.5625" stop-color="rgb(98.429871%, 98.429871%, 98.429871%)" stop-opacity="1"/>
<stop offset="0.59375" stop-color="rgb(98.376465%, 98.376465%, 98.376465%)" stop-opacity="1"/>
<stop offset="0.625" stop-color="rgb(98.179626%, 98.179626%, 98.179626%)" stop-opacity="1"/>
<stop offset="0.75" stop-color="rgb(98.03772%, 98.03772%, 98.03772%)" stop-opacity="1"/>
<stop offset="1" stop-color="rgb(98.03772%, 98.03772%, 98.03772%)" stop-opacity="1"/>
</linearGradient>
<clipPath id="clip-7">
<path clip-rule="nonzero" d="M 804.234375 0 L 853.253906 0 L 853.253906 2400 L 804.234375 2400 Z M 804.234375 0 "/>
</clipPath>
<linearGradient id="linear-pattern-7" gradientUnits="userSpaceOnUse" x1="0.0740725" y1="0" x2="0.895127" y2="0" gradientTransform="matrix(39.9373, 2923.34, -2923.34, 39.9373, 810.133, -216.66)">
<stop offset="0" stop-color="rgb(98.429871%, 98.429871%, 98.429871%)" stop-opacity="1"/>
<stop offset="0.5" stop-color="rgb(98.429871%, 98.429871%, 98.429871%)" stop-opacity="1"/>
<stop offset="0.5625" stop-color="rgb(98.429871%, 98.429871%, 98.429871%)" stop-opacity="1"/>
<stop offset="0.59375" stop-color="rgb(98.376465%, 98.376465%, 98.376465%)" stop-opacity="1"/>
<stop offset="0.625" stop-color="rgb(98.179626%, 98.179626%, 98.179626%)" stop-opacity="1"/>
<stop offset="0.75" stop-color="rgb(98.03772%, 98.03772%, 98.03772%)" stop-opacity="1"/>
<stop offset="1" stop-color="rgb(98.03772%, 98.03772%, 98.03772%)" stop-opacity="1"/>
</linearGradient>
<clipPath id="clip-8">
<path clip-rule="nonzero" d="M 910.308594 0 L 959.328125 0 L 959.328125 2400 L 910.308594 2400 Z M 910.308594 0 "/>
</clipPath>
<linearGradient id="linear-pattern-8" gradientUnits="userSpaceOnUse" x1="0.0740725" y1="0" x2="0.895127" y2="0" gradientTransform="matrix(39.9373, 2923.34, -2923.34, 39.9373, 916.205, -216.66)">
<stop offset="0" stop-color="rgb(98.429871%, 98.429871%, 98.429871%)" stop-opacity="1"/>
<stop offset="0.5" stop-color="rgb(98.429871%, 98.429871%, 98.429871%)" stop-opacity="1"/>
<stop offset="0.5625" stop-color="rgb(98.429871%, 98.429871%, 98.429871%)" stop-opacity="1"/>
<stop offset="0.59375" stop-color="rgb(98.376465%, 98.376465%, 98.376465%)" stop-opacity="1"/>
<stop offset="0.625" stop-color="rgb(98.179626%, 98.179626%, 98.179626%)" stop-opacity="1"/>
<stop offset="0.75" stop-color="rgb(98.03772%, 98.03772%, 98.03772%)" stop-opacity="1"/>
<stop offset="1" stop-color="rgb(98.03772%, 98.03772%, 98.03772%)" stop-opacity="1"/>
</linearGradient>
<clipPath id="clip-9">
<path clip-rule="nonzero" d="M 1016.378906 0 L 1065.398438 0 L 1065.398438 2400 L 1016.378906 2400 Z M 1016.378906 0 "/>
</clipPath>
<linearGradient id="linear-pattern-9" gradientUnits="userSpaceOnUse" x1="0.0740725" y1="0" x2="0.895127" y2="0" gradientTransform="matrix(39.9373, 2923.34, -2923.34, 39.9373, 1022.28, -216.66)">
<stop offset="0" stop-color="rgb(98.429871%, 98.429871%, 98.429871%)" stop-opacity="1"/>
<stop offset="0.5" stop-color="rgb(98.429871%, 98.429871%, 98.429871%)" stop-opacity="1"/>
<stop offset="0.5625" stop-color="rgb(98.429871%, 98.429871%, 98.429871%)" stop-opacity="1"/>
<stop offset="0.59375" stop-color="rgb(98.376465%, 98.376465%, 98.376465%)" stop-opacity="1"/>
<stop offset="0.625" stop-color="rgb(98.179626%, 98.179626%, 98.179626%)" stop-opacity="1"/>
<stop offset="0.75" stop-color="rgb(98.03772%, 98.03772%, 98.03772%)" stop-opacity="1"/>
<stop offset="1" stop-color="rgb(98.03772%, 98.03772%, 98.03772%)" stop-opacity="1"/>
</linearGradient>
<clipPath id="clip-10">
<path clip-rule="nonzero" d="M 1122.449219 0 L 1171.46875 0 L 1171.46875 2400 L 1122.449219 2400 Z M 1122.449219 0 "/>
</clipPath>
<linearGradient id="linear-pattern-10" gradientUnits="userSpaceOnUse" x1="0.0740725" y1="0" x2="0.895127" y2="0" gradientTransform="matrix(39.9373, 2923.34, -2923.34, 39.9373, 1128.35, -216.66)">
<stop offset="0" stop-color="rgb(98.429871%, 98.429871%, 98.429871%)" stop-opacity="1"/>
<stop offset="0.5" stop-color="rgb(98.429871%, 98.429871%, 98.429871%)" stop-opacity="1"/>
<stop offset="0.5625" stop-color="rgb(98.429871%, 98.429871%, 98.429871%)" stop-opacity="1"/>
<stop offset="0.59375" stop-color="rgb(98.376465%, 98.376465%, 98.376465%)" stop-opacity="1"/>
<stop offset="0.625" stop-color="rgb(98.179626%, 98.179626%, 98.179626%)" stop-opacity="1"/>
<stop offset="0.75" stop-color="rgb(98.03772%, 98.03772%, 98.03772%)" stop-opacity="1"/>
<stop offset="1" stop-color="rgb(98.03772%, 98.03772%, 98.03772%)" stop-opacity="1"/>
</linearGradient>
<clipPath id="clip-11">
<path clip-rule="nonzero" d="M 1228.53125 0 L 1277.550781 0 L 1277.550781 2400 L 1228.53125 2400 Z M 1228.53125 0 "/>
</clipPath>
<linearGradient id="linear-pattern-11" gradientUnits="userSpaceOnUse" x1="0.0740725" y1="0" x2="0.895127" y2="0" gradientTransform="matrix(39.9373, 2923.34, -2923.34, 39.9373, 1234.42, -216.66)">
<stop offset="0" stop-color="rgb(98.429871%, 98.429871%, 98.429871%)" stop-opacity="1"/>
<stop offset="0.5" stop-color="rgb(98.429871%, 98.429871%, 98.429871%)" stop-opacity="1"/>
<stop offset="0.5625" stop-color="rgb(98.429871%, 98.429871%, 98.429871%)" stop-opacity="1"/>
<stop offset="0.59375" stop-color="rgb(98.376465%, 98.376465%, 98.376465%)" stop-opacity="1"/>
<stop offset="0.625" stop-color="rgb(98.179626%, 98.179626%, 98.179626%)" stop-opacity="1"/>
<stop offset="0.75" stop-color="rgb(98.03772%, 98.03772%, 98.03772%)" stop-opacity="1"/>
<stop offset="1" stop-color="rgb(98.03772%, 98.03772%, 98.03772%)" stop-opacity="1"/>
</linearGradient>
<clipPath id="clip-12">
<path clip-rule="nonzero" d="M 1334.601562 0 L 1383.621094 0 L 1383.621094 2400 L 1334.601562 2400 Z M 1334.601562 0 "/>
</clipPath>
<linearGradient id="linear-pattern-12" gradientUnits="userSpaceOnUse" x1="0.0740725" y1="0" x2="0.895127" y2="0" gradientTransform="matrix(39.9373, 2923.34, -2923.34, 39.9373, 1340.5, -216.66)">
<stop offset="0" stop-color="rgb(98.429871%, 98.429871%, 98.429871%)" stop-opacity="1"/>
<stop offset="0.5" stop-color="rgb(98.429871%, 98.429871%, 98.429871%)" stop-opacity="1"/>
<stop offset="0.5625" stop-color="rgb(98.429871%, 98.429871%, 98.429871%)" stop-opacity="1"/>
<stop offset="0.59375" stop-color="rgb(98.376465%, 98.376465%, 98.376465%)" stop-opacity="1"/>
<stop offset="0.625" stop-color="rgb(98.179626%, 98.179626%, 98.179626%)" stop-opacity="1"/>
<stop offset="0.75" stop-color="rgb(98.03772%, 98.03772%, 98.03772%)" stop-opacity="1"/>
<stop offset="1" stop-color="rgb(98.03772%, 98.03772%, 98.03772%)" stop-opacity="1"/>
</linearGradient>
<clipPath id="clip-13">
<path clip-rule="nonzero" d="M 1440.671875 0 L 1489.691406 0 L 1489.691406 2400 L 1440.671875 2400 Z M 1440.671875 0 "/>
</clipPath>
<linearGradient id="linear-pattern-13" gradientUnits="userSpaceOnUse" x1="0.0740725" y1="0" x2="0.895127" y2="0" gradientTransform="matrix(39.9373, 2923.34, -2923.34, 39.9373, 1446.57, -216.66)">
<stop offset="0" stop-color="rgb(98.429871%, 98.429871%, 98.429871%)" stop-opacity="1"/>
<stop offset="0.5" stop-color="rgb(98.429871%, 98.429871%, 98.429871%)" stop-opacity="1"/>
<stop offset="0.5625" stop-color="rgb(98.429871%, 98.429871%, 98.429871%)" stop-opacity="1"/>
<stop offset="0.59375" stop-color="rgb(98.376465%, 98.376465%, 98.376465%)" stop-opacity="1"/>
<stop offset="0.625" stop-color="rgb(98.179626%, 98.179626%, 98.179626%)" stop-opacity="1"/>
<stop offset="0.75" stop-color="rgb(98.03772%, 98.03772%, 98.03772%)" stop-opacity="1"/>
<stop offset="1" stop-color="rgb(98.03772%, 98.03772%, 98.03772%)" stop-opacity="1"/>
</linearGradient>
<clipPath id="clip-14">
<path clip-rule="nonzero" d="M 1546.75 0 L 1595.761719 0 L 1595.761719 2400 L 1546.75 2400 Z M 1546.75 0 "/>
</clipPath>
<linearGradient id="linear-pattern-14" gradientUnits="userSpaceOnUse" x1="0.0740725" y1="0" x2="0.895127" y2="0" gradientTransform="matrix(39.9373, 2923.34, -2923.34, 39.9373, 1552.64, -216.66)">
<stop offset="0" stop-color="rgb(98.429871%, 98.429871%, 98.429871%)" stop-opacity="1"/>
<stop offset="0.5" stop-color="rgb(98.429871%, 98.429871%, 98.429871%)" stop-opacity="1"/>
<stop offset="0.5625" stop-color="rgb(98.429871%, 98.429871%, 98.429871%)" stop-opacity="1"/>
<stop offset="0.59375" stop-color="rgb(98.376465%, 98.376465%, 98.376465%)" stop-opacity="1"/>
<stop offset="0.625" stop-color="rgb(98.179626%, 98.179626%, 98.179626%)" stop-opacity="1"/>
<stop offset="0.75" stop-color="rgb(98.03772%, 98.03772%, 98.03772%)" stop-opacity="1"/>
<stop offset="1" stop-color="rgb(98.03772%, 98.03772%, 98.03772%)" stop-opacity="1"/>
</linearGradient>
<clipPath id="clip-15">
<path clip-rule="nonzero" d="M 1652.820312 0 L 1701.839844 0 L 1701.839844 2400 L 1652.820312 2400 Z M 1652.820312 0 "/>
</clipPath>
<linearGradient id="linear-pattern-15" gradientUnits="userSpaceOnUse" x1="0.0740725" y1="0" x2="0.895127" y2="0" gradientTransform="matrix(39.9373, 2923.34, -2923.34, 39.9373, 1658.72, -216.66)">
<stop offset="0" stop-color="rgb(98.429871%, 98.429871%, 98.429871%)" stop-opacity="1"/>
<stop offset="0.5" stop-color="rgb(98.429871%, 98.429871%, 98.429871%)" stop-opacity="1"/>
<stop offset="0.5625" stop-color="rgb(98.429871%, 98.429871%, 98.429871%)" stop-opacity="1"/>
<stop offset="0.59375" stop-color="rgb(98.376465%, 98.376465%, 98.376465%)" stop-opacity="1"/>
<stop offset="0.625" stop-color="rgb(98.179626%, 98.179626%, 98.179626%)" stop-opacity="1"/>
<stop offset="0.75" stop-color="rgb(98.03772%, 98.03772%, 98.03772%)" stop-opacity="1"/>
<stop offset="1" stop-color="rgb(98.03772%, 98.03772%, 98.03772%)" stop-opacity="1"/>
</linearGradient>
<clipPath id="clip-16">
<path clip-rule="nonzero" d="M 1758.890625 0 L 1807.910156 0 L 1807.910156 2400 L 1758.890625 2400 Z M 1758.890625 0 "/>
</clipPath>
<linearGradient id="linear-pattern-16" gradientUnits="userSpaceOnUse" x1="0.0740725" y1="0" x2="0.895127" y2="0" gradientTransform="matrix(39.9373, 2923.34, -2923.34, 39.9373, 1764.79, -216.66)">
<stop offset="0" stop-color="rgb(98.429871%, 98.429871%, 98.429871%)" stop-opacity="1"/>
<stop offset="0.5" stop-color="rgb(98.429871%, 98.429871%, 98.429871%)" stop-opacity="1"/>
<stop offset="0.5625" stop-color="rgb(98.429871%, 98.429871%, 98.429871%)" stop-opacity="1"/>
<stop offset="0.59375" stop-color="rgb(98.376465%, 98.376465%, 98.376465%)" stop-opacity="1"/>
<stop offset="0.625" stop-color="rgb(98.179626%, 98.179626%, 98.179626%)" stop-opacity="1"/>
<stop offset="0.75" stop-color="rgb(98.03772%, 98.03772%, 98.03772%)" stop-opacity="1"/>
<stop offset="1" stop-color="rgb(98.03772%, 98.03772%, 98.03772%)" stop-opacity="1"/>
</linearGradient>
<clipPath id="clip-17">
<path clip-rule="nonzero" d="M 1864.960938 0 L 1913.980469 0 L 1913.980469 2400 L 1864.960938 2400 Z M 1864.960938 0 "/>
</clipPath>
<linearGradient id="linear-pattern-17" gradientUnits="userSpaceOnUse" x1="0.0740725" y1="0" x2="0.895127" y2="0" gradientTransform="matrix(39.9373, 2923.34, -2923.34, 39.9373, 1870.86, -216.66)">
<stop offset="0" stop-color="rgb(98.429871%, 98.429871%, 98.429871%)" stop-opacity="1"/>
<stop offset="0.5" stop-color="rgb(98.429871%, 98.429871%, 98.429871%)" stop-opacity="1"/>
<stop offset="0.5625" stop-color="rgb(98.429871%, 98.429871%, 98.429871%)" stop-opacity="1"/>
<stop offset="0.59375" stop-color="rgb(98.376465%, 98.376465%, 98.376465%)" stop-opacity="1"/>
<stop offset="0.625" stop-color="rgb(98.179626%, 98.179626%, 98.179626%)" stop-opacity="1"/>
<stop offset="0.75" stop-color="rgb(98.03772%, 98.03772%, 98.03772%)" stop-opacity="1"/>
<stop offset="1" stop-color="rgb(98.03772%, 98.03772%, 98.03772%)" stop-opacity="1"/>
</linearGradient>
<clipPath id="clip-18">
<path clip-rule="nonzero" d="M 1971.039062 0 L 2020.058594 0 L 2020.058594 2400 L 1971.039062 2400 Z M 1971.039062 0 "/>
</clipPath>
<linearGradient id="linear-pattern-18" gradientUnits="userSpaceOnUse" x1="0.0740725" y1="0" x2="0.895127" y2="0" gradientTransform="matrix(39.9373, 2923.34, -2923.34, 39.9373, 1976.93, -216.66)">
<stop offset="0" stop-color="rgb(98.429871%, 98.429871%, 98.429871%)" stop-opacity="1"/>
<stop offset="0.5" stop-color="rgb(98.429871%, 98.429871%, 98.429871%)" stop-opacity="1"/>
<stop offset="0.5625" stop-color="rgb(98.429871%, 98.429871%, 98.429871%)" stop-opacity="1"/>
<stop offset="0.59375" stop-color="rgb(98.376465%, 98.376465%, 98.376465%)" stop-opacity="1"/>
<stop offset="0.625" stop-color="rgb(98.179626%, 98.179626%, 98.179626%)" stop-opacity="1"/>
<stop offset="0.75" stop-color="rgb(98.03772%, 98.03772%, 98.03772%)" stop-opacity="1"/>
<stop offset="1" stop-color="rgb(98.03772%, 98.03772%, 98.03772%)" stop-opacity="1"/>
</linearGradient>
<clipPath id="clip-19">
<path clip-rule="nonzero" d="M 2077.109375 0 L 2126.128906 0 L 2126.128906 2400 L 2077.109375 2400 Z M 2077.109375 0 "/>
</clipPath>
<linearGradient id="linear-pattern-19" gradientUnits="userSpaceOnUse" x1="0.0740725" y1="0" x2="0.895127" y2="0" gradientTransform="matrix(39.9373, 2923.34, -2923.34, 39.9373, 2083.01, -216.66)">
<stop offset="0" stop-color="rgb(98.429871%, 98.429871%, 98.429871%)" stop-opacity="1"/>
<stop offset="0.5" stop-color="rgb(98.429871%, 98.429871%, 98.429871%)" stop-opacity="1"/>
<stop offset="0.5625" stop-color="rgb(98.429871%, 98.429871%, 98.429871%)" stop-opacity="1"/>
<stop offset="0.59375" stop-color="rgb(98.376465%, 98.376465%, 98.376465%)" stop-opacity="1"/>
<stop offset="0.625" stop-color="rgb(98.179626%, 98.179626%, 98.179626%)" stop-opacity="1"/>
<stop offset="0.75" stop-color="rgb(98.03772%, 98.03772%, 98.03772%)" stop-opacity="1"/>
<stop offset="1" stop-color="rgb(98.03772%, 98.03772%, 98.03772%)" stop-opacity="1"/>
</linearGradient>
<clipPath id="clip-20">
<path clip-rule="nonzero" d="M 2183.179688 0 L 2232.199219 0 L 2232.199219 2400 L 2183.179688 2400 Z M 2183.179688 0 "/>
</clipPath>
<linearGradient id="linear-pattern-20" gradientUnits="userSpaceOnUse" x1="0.0740725" y1="0" x2="0.895127" y2="0" gradientTransform="matrix(39.9373, 2923.34, -2923.34, 39.9373, 2189.08, -216.66)">
<stop offset="0" stop-color="rgb(98.429871%, 98.429871%, 98.429871%)" stop-opacity="1"/>
<stop offset="0.5" stop-color="rgb(98.429871%, 98.429871%, 98.429871%)" stop-opacity="1"/>
<stop offset="0.5625" stop-color="rgb(98.429871%, 98.429871%, 98.429871%)" stop-opacity="1"/>
<stop offset="0.59375" stop-color="rgb(98.376465%, 98.376465%, 98.376465%)" stop-opacity="1"/>
<stop offset="0.625" stop-color="rgb(98.179626%, 98.179626%, 98.179626%)" stop-opacity="1"/>
<stop offset="0.75" stop-color="rgb(98.03772%, 98.03772%, 98.03772%)" stop-opacity="1"/>
<stop offset="1" stop-color="rgb(98.03772%, 98.03772%, 98.03772%)" stop-opacity="1"/>
</linearGradient>
<clipPath id="clip-21">
<path clip-rule="nonzero" d="M 2289.261719 0 L 2338.269531 0 L 2338.269531 2400 L 2289.261719 2400 Z M 2289.261719 0 "/>
</clipPath>
<linearGradient id="linear-pattern-21" gradientUnits="userSpaceOnUse" x1="0.0740725" y1="0" x2="0.895127" y2="0" gradientTransform="matrix(39.9373, 2923.34, -2923.34, 39.9373, 2295.15, -216.66)">
<stop offset="0" stop-color="rgb(98.429871%, 98.429871%, 98.429871%)" stop-opacity="1"/>
<stop offset="0.5" stop-color="rgb(98.429871%, 98.429871%, 98.429871%)" stop-opacity="1"/>
<stop offset="0.5625" stop-color="rgb(98.429871%, 98.429871%, 98.429871%)" stop-opacity="1"/>
<stop offset="0.59375" stop-color="rgb(98.376465%, 98.376465%, 98.376465%)" stop-opacity="1"/>
<stop offset="0.625" stop-color="rgb(98.179626%, 98.179626%, 98.179626%)" stop-opacity="1"/>
<stop offset="0.75" stop-color="rgb(98.03772%, 98.03772%, 98.03772%)" stop-opacity="1"/>
<stop offset="1" stop-color="rgb(98.03772%, 98.03772%, 98.03772%)" stop-opacity="1"/>
</linearGradient>
</defs>
<rect x="-240" y="-240" width="2880" height="2880" fill="rgb(100%, 100%, 100%)" fill-opacity="1"/>
<rect x="-240" y="-240" width="2880" height="2880" fill="rgb(100%, 100%, 100%)" fill-opacity="1"/>
<g clip-path="url(#clip-0)">
<path fill-rule="nonzero" fill="url(#linear-pattern-0)" d="M 110.734375 -0.667969 L 28.945312 0.449219 L 61.734375 2400.667969 L 143.523438 2399.550781 Z M 110.734375 -0.667969 "/>
</g>
<g clip-path="url(#clip-1)">
<path fill-rule="nonzero" fill="url(#linear-pattern-1)" d="M 216.808594 -0.667969 L 135.015625 0.449219 L 167.808594 2400.667969 L 249.597656 2399.550781 Z M 216.808594 -0.667969 "/>
</g>
<g clip-path="url(#clip-2)">
<path fill-rule="nonzero" fill="url(#linear-pattern-2)" d="M 322.878906 -0.667969 L 241.089844 0.449219 L 273.878906 2400.667969 L 355.671875 2399.550781 Z M 322.878906 -0.667969 "/>
</g>
<g clip-path="url(#clip-3)">
<path fill-rule="nonzero" fill="url(#linear-pattern-3)" d="M 428.953125 -0.667969 L 347.164062 0.449219 L 379.953125 2400.667969 L 461.742188 2399.550781 Z M 428.953125 -0.667969 "/>
</g>
<g clip-path="url(#clip-4)">
<path fill-rule="nonzero" fill="url(#linear-pattern-4)" d="M 535.027344 -0.667969 L 453.234375 0.449219 L 486.027344 2400.667969 L 567.816406 2399.550781 Z M 535.027344 -0.667969 "/>
</g>
<g clip-path="url(#clip-5)">
<path fill-rule="nonzero" fill="url(#linear-pattern-5)" d="M 641.097656 -0.667969 L 559.308594 0.449219 L 592.097656 2400.667969 L 673.890625 2399.550781 Z M 641.097656 -0.667969 "/>
</g>
<g clip-path="url(#clip-6)">
<path fill-rule="nonzero" fill="url(#linear-pattern-6)" d="M 747.171875 -0.667969 L 665.378906 0.449219 L 698.171875 2400.667969 L 779.960938 2399.550781 Z M 747.171875 -0.667969 "/>
</g>
<g clip-path="url(#clip-7)">
<path fill-rule="nonzero" fill="url(#linear-pattern-7)" d="M 853.246094 -0.667969 L 771.453125 0.449219 L 804.246094 2400.667969 L 886.035156 2399.550781 Z M 853.246094 -0.667969 "/>
</g>
<g clip-path="url(#clip-8)">
<path fill-rule="nonzero" fill="url(#linear-pattern-8)" d="M 959.316406 -0.667969 L 877.527344 0.449219 L 910.316406 2400.667969 L 992.109375 2399.550781 Z M 959.316406 -0.667969 "/>
</g>
<g clip-path="url(#clip-9)">
<path fill-rule="nonzero" fill="url(#linear-pattern-9)" d="M 1065.390625 -0.667969 L 983.597656 0.449219 L 1016.390625 2400.667969 L 1098.179688 2399.550781 Z M 1065.390625 -0.667969 "/>
</g>
<g clip-path="url(#clip-10)">
<path fill-rule="nonzero" fill="url(#linear-pattern-10)" d="M 1171.460938 -0.667969 L 1089.667969 0.449219 L 1122.460938 2400.667969 L 1204.25 2399.550781 Z M 1171.460938 -0.667969 "/>
</g>
<g clip-path="url(#clip-11)">
<path fill-rule="nonzero" fill="url(#linear-pattern-11)" d="M 1277.539062 -0.667969 L 1195.75 0.449219 L 1228.539062 2400.667969 L 1310.332031 2399.550781 Z M 1277.539062 -0.667969 "/>
</g>
<g clip-path="url(#clip-12)">
<path fill-rule="nonzero" fill="url(#linear-pattern-12)" d="M 1383.609375 -0.667969 L 1301.820312 0.449219 L 1334.609375 2400.667969 L 1416.402344 2399.550781 Z M 1383.609375 -0.667969 "/>
</g>
<g clip-path="url(#clip-13)">
<path fill-rule="nonzero" fill="url(#linear-pattern-13)" d="M 1489.679688 -0.667969 L 1407.886719 0.449219 L 1440.679688 2400.667969 L 1522.472656 2399.550781 Z M 1489.679688 -0.667969 "/>
</g>
<g clip-path="url(#clip-14)">
<path fill-rule="nonzero" fill="url(#linear-pattern-14)" d="M 1595.75 -0.667969 L 1513.96875 0.449219 L 1546.757812 2400.667969 L 1628.542969 2399.550781 Z M 1595.75 -0.667969 "/>
</g>
<g clip-path="url(#clip-15)">
<path fill-rule="nonzero" fill="url(#linear-pattern-15)" d="M 1701.832031 -0.667969 L 1620.039062 0.449219 L 1652.828125 2400.667969 L 1734.621094 2399.550781 Z M 1701.832031 -0.667969 "/>
</g>
<g clip-path="url(#clip-16)">
<path fill-rule="nonzero" fill="url(#linear-pattern-16)" d="M 1807.902344 -0.667969 L 1726.109375 0.449219 L 1758.898438 2400.667969 L 1840.691406 2399.550781 Z M 1807.902344 -0.667969 "/>
</g>
<g clip-path="url(#clip-17)">
<path fill-rule="nonzero" fill="url(#linear-pattern-17)" d="M 1913.972656 -0.667969 L 1832.179688 0.449219 L 1864.96875 2400.667969 L 1946.761719 2399.550781 Z M 1913.972656 -0.667969 "/>
</g>
<g clip-path="url(#clip-18)">
<path fill-rule="nonzero" fill="url(#linear-pattern-18)" d="M 2020.050781 -0.667969 L 1938.257812 0.449219 L 1971.050781 2400.667969 L 2052.839844 2399.550781 Z M 2020.050781 -0.667969 "/>
</g>
<g clip-path="url(#clip-19)">
<path fill-rule="nonzero" fill="url(#linear-pattern-19)" d="M 2126.121094 -0.667969 L 2044.328125 0.449219 L 2077.121094 2400.667969 L 2158.910156 2399.550781 Z M 2126.121094 -0.667969 "/>
</g>
<g clip-path="url(#clip-20)">
<path fill-rule="nonzero" fill="url(#linear-pattern-20)" d="M 2232.191406 -0.667969 L 2150.398438 0.449219 L 2183.1875 2400.667969 L 2264.980469 2399.550781 Z M 2232.191406 -0.667969 "/>
</g>
<g clip-path="url(#clip-21)">
<path fill-rule="nonzero" fill="url(#linear-pattern-21)" d="M 2338.261719 -0.667969 L 2256.476562 0.449219 L 2289.269531 2400.667969 L 2371.050781 2399.550781 Z M 2338.261719 -0.667969 "/>
</g>
<path fill-rule="nonzero" fill="rgb(4.704285%, 9.008789%, 33.714294%)" fill-opacity="1" d="M 2102.128906 985.078125 C 2102.738281 975.121094 2103.359375 964.808594 2096.589844 956.308594 L 2096.289062 955.980469 C 2091.679688 951.679688 2086.160156 947.980469 2078.980469 944.351562 C 2073.148438 937.671875 2065.421875 936.671875 2058.351562 936.570312 C 2056.078125 933.5 2053.148438 931.589844 2050.25 930.140625 L 2050.210938 926.289062 L 2049.539062 925.480469 C 2048.460938 924.128906 2048.121094 922.320312 2047.730469 920.21875 C 2047.300781 917.859375 2046.808594 915.191406 2045.050781 912.871094 L 2044.460938 912.089844 L 2043.53125 911.808594 C 2037.039062 909.851562 2030.320312 908.839844 2023.820312 907.859375 C 2013.511719 906.300781 2003.761719 904.828125 1995 899.898438 C 1993.371094 898.390625 1991.839844 896.71875 1990.351562 895.109375 C 1987.050781 891.519531 1983.640625 887.808594 1978.890625 885.320312 L 1958.328125 876.21875 C 1956.789062 875.558594 1955.21875 875.039062 1953.710938 874.539062 C 1949.871094 873.269531 1946.558594 872.171875 1944.570312 869.238281 L 1944.148438 868.621094 L 1943.488281 868.28125 C 1941.769531 867.371094 1940.058594 867.171875 1938.550781 866.988281 C 1938.050781 866.929688 1937.570312 866.871094 1937.128906 866.800781 C 1934.171875 865.46875 1931.109375 864.539062 1928.148438 863.640625 C 1925.128906 862.71875 1922.261719 861.851562 1919.609375 860.609375 C 1916.609375 856.808594 1912.769531 854.789062 1909.261719 853.519531 L 1909.339844 852.351562 L 1906.230469 852.558594 L 1903.078125 851.648438 L 1902.988281 853.03125 C 1898.769531 854.011719 1895.199219 856.308594 1891.71875 858.558594 C 1886.921875 861.671875 1882.761719 864.359375 1877.421875 863.480469 C 1870.671875 859.488281 1865.308594 853.519531 1859.640625 847.210938 C 1850.980469 837.570312 1842.03125 827.609375 1827.761719 825.320312 C 1827.359375 824.949219 1826.960938 824.601562 1826.578125 824.269531 C 1826 823.769531 1825.460938 823.289062 1824.941406 822.769531 L 1823.238281 821.078125 C 1815.890625 812 1807.148438 804.738281 1798.671875 797.738281 C 1794.75 794.511719 1790.699219 791.160156 1786.851562 787.691406 C 1781.058594 779.871094 1774.378906 772.609375 1767.910156 765.578125 C 1757.808594 754.609375 1747.359375 743.25 1740.621094 729.960938 L 1740.070312 728.871094 L 1738.910156 728.46875 C 1734.070312 726.828125 1732.199219 722.671875 1730.75 716.480469 L 1730.570312 715.691406 L 1730.019531 715.109375 C 1726.191406 711.019531 1724.390625 705.710938 1722.480469 700.089844 C 1720.628906 694.648438 1718.71875 689.019531 1714.820312 684.371094 L 1714.058594 683.46875 L 1712.898438 683.328125 C 1703.289062 682.089844 1698.261719 688.539062 1693.820312 694.230469 C 1690.089844 699.019531 1686.871094 703.148438 1681.28125 703.429688 C 1665.308594 704.679688 1647.210938 706.078125 1631.238281 699.730469 C 1630.050781 698.800781 1628.878906 697.601562 1627.648438 696.339844 C 1624.210938 692.828125 1620.320312 688.851562 1614.269531 689.199219 L 1613.460938 689.25 L 1612.78125 689.699219 C 1610.660156 691.121094 1609.28125 693.148438 1608.070312 694.941406 C 1607.351562 696 1606.671875 697.019531 1605.910156 697.78125 C 1603.070312 694.421875 1600.441406 690.761719 1597.898438 687.210938 C 1597.191406 686.21875 1596.480469 685.238281 1595.78125 684.269531 L 1595.171875 683.429688 L 1594.171875 683.140625 C 1588.558594 681.558594 1582.679688 681.378906 1576.988281 681.199219 C 1572.140625 681.050781 1567.53125 680.898438 1563.128906 679.960938 L 1562.949219 679.71875 C 1562.011719 661.75 1557.230469 653.378906 1552.988281 645.980469 C 1549.128906 639.238281 1545.800781 633.421875 1546.359375 620.769531 L 1546.398438 619.96875 L 1546.03125 619.261719 C 1542.300781 612.03125 1537.660156 603.03125 1527.75 601.058594 L 1526.828125 600.878906 L 1525.960938 601.261719 C 1516.960938 605.230469 1515.851562 614.050781 1514.871094 621.828125 C 1514.621094 623.769531 1514.390625 625.628906 1514.050781 627.378906 L 1513.789062 627.449219 C 1502.988281 616.789062 1488.609375 613.480469 1474.691406 610.28125 C 1468.269531 608.808594 1461.640625 607.289062 1455.628906 605.058594 C 1451.019531 602.328125 1446.5 599.230469 1442.128906 596.238281 C 1436.351562 592.28125 1430.378906 588.191406 1424 584.789062 C 1417.449219 577.558594 1413.550781 568.390625 1409.421875 558.710938 C 1405.640625 549.839844 1401.738281 540.671875 1395.601562 533.058594 L 1395.191406 532.570312 L 1394.628906 532.28125 C 1384.578125 527.148438 1374.980469 520.78125 1365.691406 514.621094 C 1357.519531 509.199219 1349.078125 503.609375 1340.238281 498.78125 L 1340.390625 498.070312 L 1338.191406 497.078125 C 1335.371094 495.820312 1331.570312 492.808594 1329.878906 489.859375 C 1326.359375 474.691406 1322.828125 459.511719 1319.320312 444.339844 L 1319.199219 443.828125 L 1318.921875 443.390625 C 1318.011719 441.980469 1317.199219 440.328125 1316.339844 438.578125 C 1314.050781 433.929688 1311.460938 428.660156 1305.910156 426.308594 L 1305.558594 426.191406 C 1301.789062 425.109375 1297.859375 424.339844 1294.058594 423.601562 C 1283.75 421.589844 1274.011719 419.699219 1267.21875 411.851562 C 1255.441406 399.019531 1253.148438 388.660156 1250.261719 375.558594 C 1249.109375 370.359375 1247.929688 365 1246.058594 358.839844 L 1245.558594 357.171875 L 1243.859375 356.78125 C 1218.628906 351.011719 1199.839844 340.320312 1186.449219 324.121094 C 1180.921875 314.738281 1174.371094 309.148438 1165.851562 306.53125 L 1165.519531 306.449219 C 1145.429688 302.730469 1128.460938 290.871094 1112.050781 279.390625 C 1109.839844 277.839844 1107.628906 276.300781 1105.410156 274.769531 C 1102.238281 271.269531 1098.921875 267.828125 1095.710938 264.5 C 1086.78125 255.25 1077.539062 245.679688 1071.179688 234.398438 L 1070.898438 233.910156 L 1070.460938 233.550781 C 1043.339844 211.5 1043.03125 204.191406 1042.03125 179.96875 C 1041.789062 174.230469 1041.519531 167.71875 1040.871094 159.871094 L 1040.789062 158.941406 L 1040.199219 158.21875 C 1036.320312 153.488281 1031.121094 148.109375 1025.261719 148.488281 C 1022.460938 148.671875 1019.960938 150.121094 1017.808594 152.800781 L 1011.519531 146.371094 L 1010.289062 146.339844 C 1006.351562 146.289062 1003.679688 148.398438 1001.539062 150.101562 C 1000.589844 150.851562 999.734375 151.53125 998.84375 152.011719 C 982.6875 140.921875 975.734375 148.261719 966.996094 157.488281 C 965.070312 159.53125 963.082031 161.628906 960.777344 163.820312 L 960.613281 163.988281 C 959.585938 165.128906 958.613281 166.390625 957.679688 167.609375 C 954.308594 171.980469 951.914062 174.710938 948.445312 174.550781 C 942.140625 169.421875 935.566406 164.550781 929.203125 159.839844 C 922.957031 155.210938 916.496094 150.421875 910.363281 145.449219 L 910.085938 145.21875 L 909.761719 145.058594 C 907.820312 144.140625 905.804688 143.328125 903.855469 142.550781 C 900.429688 141.171875 897.1875 139.859375 894.390625 138.039062 C 893.546875 136.921875 892.746094 135.78125 891.96875 134.671875 C 887.492188 128.28125 882.863281 121.679688 871.796875 123.460938 L 871.359375 123.53125 L 870.964844 123.71875 C 868.816406 124.761719 866.988281 125.578125 865.246094 125.691406 C 861.917969 123.398438 858.054688 122.949219 854.609375 122.550781 L 853.421875 122.410156 L 852.785156 122.621094 C 847.785156 124.289062 845.746094 126.5 844.511719 129.71875 C 844.457031 129.28125 844.414062 128.839844 844.367188 128.390625 C 844.292969 127.699219 844.222656 127 844.128906 126.308594 L 843.917969 124.761719 L 842.527344 124.039062 C 838.839844 122.140625 834.5625 121.871094 830.484375 123.28125 L 830.070312 123.421875 L 829.714844 123.679688 C 822.113281 129.121094 819.457031 137.421875 816.890625 145.449219 C 815.285156 150.460938 813.765625 155.210938 811.132812 159.050781 C 808.105469 161.199219 804.058594 161.078125 799.78125 160.960938 C 797.308594 160.890625 794.753906 160.820312 792.242188 161.171875 L 791.722656 161.25 L 791.261719 161.488281 C 787.523438 163.46875 780.652344 167.769531 776.671875 174.421875 L 776.230469 175.160156 L 776.261719 177.210938 C 776.386719 185.570312 776.527344 195.050781 780.960938 202.730469 L 781.621094 203.871094 L 782.902344 204.148438 C 783.300781 204.238281 783.769531 204.410156 784.269531 204.589844 C 784.882812 204.800781 785.574219 205.050781 786.316406 205.210938 L 787.179688 205.410156 L 788.007812 205.101562 C 788.9375 204.761719 789.632812 204.261719 790.09375 203.929688 C 790.210938 203.839844 790.316406 203.761719 790.417969 203.699219 L 791.066406 203.359375 L 791.480469 202.75 C 794.171875 198.820312 795.457031 194.480469 796.699219 190.269531 C 797.027344 189.171875 797.335938 188.121094 797.671875 187.078125 C 798.0625 186.710938 798.449219 186.320312 798.832031 185.941406 C 801.109375 183.660156 801.972656 183.101562 802.503906 183.238281 C 804.898438 186.769531 806.117188 189.859375 806.21875 192.648438 C 802.054688 200.238281 800.210938 208.421875 800.253906 219.039062 L 800.257812 219.890625 L 800.707031 220.609375 C 803.890625 225.730469 804.84375 231.808594 803.617188 239.191406 L 803.507812 239.851562 L 803.691406 240.5 C 805.386719 246.441406 807.0625 252.851562 807.820312 259.480469 L 808.039062 261.390625 L 809.867188 261.988281 C 812.730469 262.929688 815.460938 264.25 818.183594 266.011719 C 818.300781 266.46875 818.40625 266.929688 818.515625 267.410156 C 818.726562 268.328125 818.941406 269.269531 819.25 270.25 L 819.675781 271.609375 L 820.996094 272.140625 C 823.082031 272.980469 824.382812 275.421875 825.761719 278 C 826.292969 278.988281 826.839844 280.019531 827.449219 280.988281 L 828.359375 282.429688 L 833.589844 282.300781 L 834.265625 280.320312 C 834.558594 279.46875 834.851562 278.679688 835.140625 277.898438 C 835.359375 277.320312 835.574219 276.730469 835.792969 276.121094 C 836.019531 275.921875 836.222656 275.710938 836.410156 275.53125 L 836.453125 275.578125 L 837.832031 277.160156 L 839.15625 276.660156 C 839.167969 277.589844 839.191406 278.539062 839.21875 279.460938 C 839.257812 281.078125 839.300781 282.75 839.277344 284.300781 L 839.261719 285.210938 L 839.761719 285.980469 C 840.621094 287.300781 841.480469 288.550781 842.339844 289.800781 C 843.074219 290.859375 843.808594 291.929688 844.542969 293.039062 C 845.605469 297.550781 845.453125 302.109375 845.292969 306.929688 C 845.082031 313.210938 844.867188 319.699219 847.460938 326.199219 C 851.179688 335.820312 855.167969 345.449219 859.023438 354.769531 C 860.09375 357.339844 861.164062 359.929688 862.234375 362.53125 L 862.46875 363.089844 L 862.902344 363.519531 C 869.917969 370.449219 876.613281 377.980469 882.808594 385.910156 C 887.546875 392.550781 890.949219 399.890625 894.550781 407.671875 C 898.402344 415.980469 902.386719 424.570312 908.136719 432.140625 C 915.101562 446.339844 911.710938 463.410156 908.273438 478.761719 C 875.144531 481.648438 863.628906 483.21875 846.898438 517.570312 L 846.226562 518.949219 C 844.324219 521.488281 841.695312 523.679688 838.902344 525.730469 C 837.960938 523.101562 836.214844 520.488281 832.859375 518.851562 L 832.164062 518.511719 L 831.394531 518.550781 C 830.074219 518.621094 828.894531 518.300781 827.34375 517.421875 C 826.980469 516.851562 826.59375 516.289062 826.21875 515.75 C 826.066406 515.53125 825.925781 515.320312 825.78125 515.109375 L 825.839844 514.890625 L 825.230469 513.808594 C 824.835938 513.101562 824.363281 512.5 823.847656 511.960938 L 821.324219 507.679688 L 820.785156 509.628906 C 820.1875 509.28125 819.585938 508.960938 819.007812 508.660156 C 817.722656 507.980469 816.566406 507.371094 815.804688 506.621094 C 815.816406 506.488281 815.828125 506.359375 815.839844 506.238281 C 817.65625 503.640625 819.667969 500.441406 819.773438 496.171875 L 819.789062 495.488281 L 819.519531 494.878906 C 818.839844 493.339844 818.207031 491.738281 817.597656 490.199219 C 816.964844 488.601562 816.316406 486.960938 815.589844 485.308594 L 815.253906 484.550781 L 814.578125 484.070312 C 805.296875 477.5 797.078125 473.980469 789.523438 473.339844 C 784.480469 464.449219 783.886719 457.351562 787.332031 447.859375 C 788.230469 446.929688 789.078125 446 789.902344 445.101562 C 790.867188 444.050781 791.777344 443.058594 792.769531 442.050781 L 793.359375 441.460938 L 793.550781 440.640625 C 794.796875 435.371094 795.605469 429.570312 793.125 422.851562 L 792.757812 421.851562 L 791.847656 421.308594 C 789.089844 419.660156 786.128906 420 783.515625 420.300781 C 781.949219 420.480469 780.453125 420.660156 779.328125 420.339844 C 778.730469 419.410156 778.136719 418.46875 777.542969 417.53125 C 769.554688 404.960938 761.289062 391.949219 748.332031 383.640625 L 747.558594 383.148438 L 744.308594 383.230469 L 743.472656 384.050781 C 735.914062 391.371094 733.019531 390.871094 727.253906 389.890625 C 724.464844 389.421875 721 388.828125 716.441406 388.980469 L 715.617188 389.011719 L 714.921875 389.449219 C 712.308594 391.128906 709.433594 391.929688 705 392.230469 L 704.546875 392.261719 L 704.121094 392.429688 C 702.113281 393.199219 700.132812 394.078125 698.21875 394.921875 C 692.871094 397.28125 687.824219 399.511719 682.441406 399.609375 L 679.558594 399.660156 L 679.3125 411.171875 L 680.667969 412.078125 C 687.171875 416.480469 689.074219 423.890625 691.089844 431.738281 C 691.386719 432.898438 691.6875 434.070312 692.007812 435.25 C 655.398438 438.179688 623.769531 460.570312 593.144531 482.25 C 586.097656 487.238281 579.4375 491.949219 572.679688 496.460938 L 572.394531 496.679688 C 569.773438 498.929688 566.347656 501.28125 562.714844 503.761719 C 552.890625 510.5 541.75 518.128906 540.042969 528.359375 C 539.230469 533.21875 540.652344 538.160156 544.269531 543.03125 L 544.519531 543.371094 L 544.851562 543.621094 C 547.453125 545.621094 550.390625 547.160156 553.230469 548.648438 C 557.8125 551.050781 562.152344 553.328125 564.492188 557.160156 C 563.210938 568.128906 553.511719 578.300781 544.128906 588.140625 C 537.863281 594.710938 531.386719 601.5 527.265625 608.660156 C 512.410156 628.828125 495.527344 655.941406 496.410156 686.929688 L 496.4375 687.25 C 497.949219 698.328125 501.878906 708.441406 505.679688 718.21875 C 506.65625 720.738281 507.640625 723.320312 508.597656 725.910156 L 505.804688 726.429688 L 506.929688 729.71875 C 512.449219 745.878906 518.9375 762.109375 525.210938 777.820312 C 530.347656 790.671875 535.652344 803.949219 540.347656 817.011719 L 540.269531 817.160156 C 532.328125 818.160156 524.960938 821.28125 517.828125 824.300781 C 507.566406 828.648438 497.863281 832.761719 487.082031 830.609375 C 471.335938 824.441406 454.359375 822.289062 437.9375 820.210938 C 431.105469 819.339844 424.035156 818.449219 417.222656 817.28125 C 408.421875 815.730469 401.105469 819.769531 395.46875 829.289062 C 395.109375 829.578125 394.75 829.871094 394.390625 830.160156 C 391.308594 832.621094 388.121094 835.171875 385.765625 838.730469 L 385.542969 839.058594 L 385.417969 839.449219 C 375.1875 870.550781 365.527344 893.671875 354.105469 914.378906 C 352.898438 916.53125 350.722656 917.679688 348.199219 919.019531 C 345.945312 920.21875 343.390625 921.570312 341.417969 923.859375 L 340.882812 924.46875 L 340.738281 925.28125 C 340.378906 927.25 340.355469 928.898438 340.335938 930.648438 L 340.324219 931.621094 L 340.886719 932.421875 C 342.4375 934.621094 343.878906 936.921875 345.398438 939.351562 C 346.191406 940.621094 346.992188 941.898438 347.816406 943.179688 C 347.773438 946.140625 347.671875 949.078125 347.574219 951.929688 C 347.46875 955.058594 347.359375 958.289062 347.324219 961.46875 L 347.316406 962.320312 L 357.167969 978.800781 L 358.636719 978.96875 C 360.425781 979.179688 362.332031 980.148438 364.113281 981.179688 C 364.332031 982.929688 364.363281 984.269531 363.902344 985.511719 C 363.144531 985.921875 362.355469 986.320312 361.535156 986.738281 C 358.617188 988.21875 355.601562 989.75 353.136719 992.289062 L 352.300781 993.148438 L 352.285156 994.351562 C 352.226562 999.730469 353.742188 1004.609375 355.257812 1009.320312 C 354.445312 1011.589844 352.039062 1013.230469 349.503906 1014.949219 C 348.796875 1015.421875 348.101562 1015.898438 347.433594 1016.378906 L 346.910156 1016.769531 L 346.589844 1017.328125 C 346.007812 1018.371094 345.417969 1019.390625 344.832031 1020.421875 C 340.492188 1027.980469 336.007812 1035.808594 334.863281 1044.851562 C 333.519531 1053.308594 337.195312 1062.03125 340.753906 1070.46875 C 344.816406 1080.121094 348.34375 1088.480469 343.871094 1094.320312 C 338.9375 1096.589844 334.113281 1097.359375 328.753906 1096.738281 L 327.332031 1096.578125 L 326.3125 1097.578125 L 324.238281 1099.5 L 324.230469 1100.761719 C 324.214844 1100.890625 324.101562 1101.238281 323.964844 1101.5 L 323.421875 1102.550781 L 323.738281 1103.679688 C 324.363281 1105.929688 326.035156 1106.808594 327.277344 1107.261719 C 327.839844 1109.089844 327.886719 1111.191406 327.9375 1113.398438 C 327.976562 1115.140625 328.019531 1116.941406 328.308594 1118.769531 L 328.402344 1119.378906 L 328.734375 1119.898438 C 329.480469 1121.089844 330.671875 1122.699219 332.703125 1123.769531 C 333.152344 1124.519531 333.589844 1125.261719 333.945312 1125.96875 C 333.429688 1127.839844 332.820312 1129.71875 332.183594 1131.691406 C 331.3125 1134.371094 330.417969 1137.148438 329.75 1139.921875 L 329.667969 1140.261719 L 329.667969 1140.621094 C 329.671875 1144.339844 331.476562 1147.121094 333.242188 1149.339844 L 333.527344 1149.699219 L 333.910156 1149.960938 C 337.28125 1152.25 340.96875 1152.609375 344.222656 1152.941406 C 346.386719 1153.148438 348.441406 1153.359375 350.273438 1154.078125 C 354.335938 1160.660156 358.691406 1167.308594 362.929688 1173.78125 C 362.875 1174.03125 362.820312 1174.269531 362.765625 1174.511719 C 362.609375 1175.179688 362.457031 1175.851562 362.304688 1176.601562 L 362.101562 1177.578125 L 362.535156 1178.488281 C 369.457031 1193.039062 380.757812 1193.589844 394.808594 1192.800781 L 395.019531 1192.78125 C 398.605469 1192.320312 401.738281 1190.988281 404.769531 1189.710938 C 407.058594 1188.738281 409.230469 1187.820312 411.386719 1187.378906 C 416 1188.460938 418.929688 1193.640625 420.328125 1196.828125 C 421.742188 1202.171875 419.085938 1206.648438 416.011719 1211.828125 C 413.945312 1215.320312 411.808594 1218.921875 410.847656 1223.039062 L 410.746094 1223.46875 L 410.773438 1223.910156 C 411.339844 1233.28125 413.644531 1242.269531 415.871094 1250.960938 C 418.195312 1260.03125 420.398438 1268.628906 420.828125 1277.679688 C 419.824219 1278.21875 418.253906 1278.28125 416.042969 1278.289062 C 414.578125 1278.289062 413.0625 1278.300781 411.578125 1278.578125 C 407.355469 1279.359375 404.203125 1280.519531 400.914062 1282.539062 L 385.074219 1283.371094 L 384.261719 1284.78125 C 378.765625 1294.269531 375.941406 1304.660156 373.210938 1314.710938 L 372.898438 1315.851562 L 373.449219 1316.898438 C 374.59375 1319.058594 375.4375 1321.570312 376.335938 1324.21875 C 377.113281 1326.519531 377.914062 1328.859375 378.941406 1331.070312 L 377.671875 1331.160156 L 380.28125 1333.601562 C 380.742188 1334.359375 381.238281 1335.109375 381.804688 1335.808594 L 382.789062 1337.03125 L 383.960938 1336.949219 C 385.058594 1337.839844 386.230469 1338.679688 387.378906 1339.511719 C 390.59375 1341.800781 393.644531 1343.980469 394.617188 1346.898438 C 394.246094 1347.859375 393.636719 1348.691406 392.789062 1349.378906 L 392.679688 1349.238281 L 390.332031 1350.671875 C 387.390625 1352.46875 383.25 1351.949219 378.867188 1351.398438 C 376.320312 1351.089844 373.691406 1350.75 371.121094 1350.871094 C 370.863281 1350.789062 370.601562 1350.71875 370.328125 1350.640625 C 368.917969 1350.230469 367.585938 1349.851562 365.90625 1348.75 L 364.625 1347.910156 L 363.191406 1348.449219 C 362.515625 1348.710938 361.910156 1348.898438 361.304688 1349.089844 C 360.613281 1349.308594 359.898438 1349.539062 359.085938 1349.851562 L 358.296875 1350.148438 L 357.777344 1350.820312 C 356.640625 1352.300781 355.492188 1353.769531 354.34375 1355.25 C 348.804688 1362.371094 343.089844 1369.730469 338.117188 1377.449219 C 335.191406 1378.390625 332.117188 1378.871094 328.878906 1379.359375 C 325.785156 1379.839844 322.585938 1380.328125 319.421875 1381.28125 C 317.796875 1381.238281 316.132812 1381.109375 314.523438 1380.980469 C 310 1380.609375 305.324219 1380.238281 300.4375 1381.769531 L 298.648438 1382.328125 L 298.371094 1384.191406 C 296.097656 1399.460938 301.425781 1413.839844 306.582031 1427.761719 C 309.40625 1435.390625 312.324219 1443.261719 313.824219 1451.019531 C 312.292969 1453.191406 310.933594 1454.949219 309.71875 1456.53125 C 303.210938 1464.960938 301.6875 1467.851562 305.988281 1484.328125 L 306.207031 1485.171875 L 306.84375 1485.761719 C 316.917969 1495.160156 325.535156 1505.980469 333.875 1516.449219 C 339.160156 1523.078125 344.628906 1529.949219 350.496094 1536.5 C 352.566406 1538.789062 354.882812 1540.929688 357.125 1542.988281 C 361.605469 1547.121094 365.832031 1551.03125 368.199219 1555.949219 L 368.78125 1557.160156 L 370.074219 1557.53125 C 371.707031 1558 373.410156 1558.46875 375.117188 1558.941406 C 376.796875 1559.410156 378.472656 1559.871094 380.078125 1560.328125 L 381.9375 1560.859375 L 383.191406 1559.390625 C 384.441406 1557.921875 385.464844 1556.679688 386.4375 1555.320312 C 386.824219 1555.25 387.296875 1555.171875 387.859375 1554.988281 L 389.210938 1554.578125 L 389.753906 1553.269531 C 390.117188 1552.390625 390.96875 1550.339844 389.984375 1548.070312 L 389.707031 1547.429688 L 389.175781 1546.96875 C 388.304688 1546.238281 387.480469 1545.410156 386.605469 1544.53125 C 384.535156 1542.460938 382.226562 1540.148438 379.015625 1538.871094 C 377.546875 1536.058594 375.457031 1533.808594 373.429688 1531.628906 C 370.542969 1528.519531 368.054688 1525.839844 367.539062 1522.011719 L 367.398438 1520.988281 L 366.621094 1520.21875 C 367.300781 1518.199219 369.214844 1516.761719 372.035156 1514.761719 C 372.996094 1514.078125 373.980469 1513.390625 374.921875 1512.628906 C 377.488281 1513.371094 379.652344 1515.429688 382.105469 1517.761719 C 384.671875 1520.199219 387.574219 1522.96875 391.390625 1524.339844 L 391.695312 1524.449219 L 392.019531 1524.488281 C 394.296875 1524.789062 396.171875 1524.050781 397.691406 1523.410156 C 404.585938 1525.878906 412.085938 1524.53125 416.863281 1520.03125 C 417.359375 1520.128906 417.875 1520.238281 418.40625 1520.351562 C 419.238281 1520.53125 420.09375 1520.710938 420.929688 1520.859375 C 423.777344 1523.441406 425.90625 1526.621094 428.148438 1529.960938 C 428.738281 1530.839844 429.332031 1531.730469 429.941406 1532.609375 L 430.574219 1533.511719 L 431.640625 1533.800781 C 432.070312 1533.910156 432.570312 1534.101562 433.097656 1534.300781 C 433.382812 1534.410156 433.6875 1534.53125 434.003906 1534.640625 C 436.644531 1538.359375 440.644531 1539.679688 444.210938 1540.871094 C 447.019531 1541.800781 449.671875 1542.679688 451.496094 1544.589844 L 453.257812 1546.449219 L 455.367188 1545 C 457.25 1543.699219 459.574219 1543.808594 462.511719 1543.941406 L 464.449219 1544.019531 L 465.367188 1543.171875 C 467.945312 1540.761719 471.53125 1540.199219 475.6875 1539.550781 C 477.953125 1539.191406 480.296875 1538.828125 482.546875 1538.128906 C 487.613281 1536.671875 491.515625 1533.761719 495.289062 1530.941406 C 497.417969 1529.351562 499.449219 1527.839844 501.605469 1526.640625 C 501.878906 1526.710938 502.152344 1526.769531 502.429688 1526.839844 C 503.070312 1526.988281 503.710938 1527.140625 504.28125 1527.289062 L 506.472656 1527.859375 L 507.625 1525.910156 C 509.734375 1522.339844 513.433594 1520.769531 517.71875 1518.960938 C 519.941406 1518.011719 522.226562 1517.019531 524.40625 1515.699219 C 524.355469 1516.109375 524.304688 1516.519531 524.261719 1516.929688 L 524.234375 1517.238281 L 524.265625 1517.550781 C 524.667969 1521.21875 526.601562 1524.328125 528.308594 1527.070312 C 529.722656 1529.339844 531.066406 1531.488281 531.402344 1533.648438 C 531.332031 1533.769531 531.261719 1533.890625 531.191406 1534 C 531 1534.320312 530.808594 1534.640625 530.550781 1535.03125 L 527.472656 1539.609375 L 535.789062 1539.738281 C 536.042969 1539.949219 536.285156 1540.160156 536.53125 1540.371094 C 536.691406 1540.511719 536.855469 1540.648438 537.019531 1540.789062 C 536.90625 1546.710938 539.496094 1551.660156 544.277344 1554.53125 L 544.96875 1554.949219 L 545.226562 1554.949219 C 545.28125 1555.089844 545.335938 1555.238281 545.390625 1555.378906 C 545.703125 1556.210938 546.019531 1557.039062 546.328125 1557.789062 L 546.746094 1558.820312 L 547.738281 1559.320312 C 547.820312 1559.371094 548.039062 1559.53125 548.1875 1559.640625 L 548.191406 1559.640625 L 548.207031 1560.859375 L 550.199219 1561.550781 C 550.726562 1561.730469 551.175781 1561.828125 551.550781 1561.921875 C 552.660156 1563.800781 554.027344 1565.800781 555.890625 1567.53125 C 555.855469 1567.730469 555.820312 1567.910156 555.777344 1568.039062 L 555.460938 1569 L 555.792969 1569.960938 C 556.070312 1570.761719 556.28125 1571.5 556.507812 1572.28125 C 556.648438 1572.78125 556.796875 1573.289062 556.964844 1573.828125 L 554.46875 1574.199219 C 554 1574.011719 553.539062 1573.851562 553.109375 1573.699219 C 552.527344 1573.5 551.980469 1573.308594 551.574219 1573.101562 L 550.253906 1572.429688 L 548.917969 1573.070312 C 548.378906 1573.328125 547.933594 1573.660156 547.574219 1573.921875 C 547.433594 1574.019531 547.300781 1574.128906 547.175781 1574.199219 L 545.445312 1575.03125 L 545.472656 1576.941406 C 545.492188 1578.410156 546.199219 1579.890625 546.414062 1580.308594 L 547.234375 1581.910156 L 551.101562 1581.980469 L 551.105469 1582.25 C 551.109375 1582.871094 551.285156 1583.390625 551.417969 1583.769531 L 551.429688 1584.648438 L 552.296875 1585.511719 C 553.269531 1586.480469 554.296875 1587.339844 555.285156 1588.179688 C 555.761719 1588.578125 556.222656 1588.96875 556.664062 1589.359375 C 556.480469 1590.148438 556.335938 1590.921875 556.207031 1591.679688 C 552.925781 1590.578125 550.628906 1588.058594 548.019531 1585.199219 C 545.519531 1582.460938 542.6875 1579.339844 538.652344 1577.460938 L 538.296875 1577.289062 L 537.910156 1577.21875 C 535.355469 1576.769531 532.6875 1576.691406 530.109375 1576.609375 C 525.488281 1576.46875 521.125 1576.339844 517.957031 1574.140625 L 516.527344 1573.140625 L 516.226562 1573.289062 L 515.796875 1572.050781 L 513.921875 1571.839844 C 507.148438 1571.070312 501.445312 1569.398438 496.132812 1566.640625 L 496.199219 1566.28125 L 495.023438 1566.050781 C 494.84375 1565.949219 494.65625 1565.859375 494.476562 1565.75 L 490.824219 1563.671875 L 490.570312 1565.019531 C 485.308594 1563.46875 480.101562 1560.640625 475.039062 1557.878906 C 472.570312 1556.53125 470.015625 1555.128906 467.476562 1553.898438 L 467.082031 1553.738281 C 461.425781 1551.921875 455.59375 1550.011719 449.953125 1548.148438 C 444.160156 1546.25 438.167969 1544.269531 432.34375 1542.410156 L 431.847656 1542.300781 C 431.074219 1542.191406 430.261719 1542.050781 429.421875 1541.910156 C 424.015625 1541 416.691406 1539.761719 412.273438 1545.058594 C 408.621094 1546.660156 402.90625 1549.949219 400.421875 1555.558594 L 400.042969 1556.421875 L 400.222656 1557.339844 C 400.292969 1557.710938 400.363281 1558.070312 400.4375 1558.429688 C 400.898438 1560.730469 401.234375 1562.390625 400.695312 1564.300781 L 400.492188 1565.03125 L 400.65625 1565.761719 C 401.75 1570.699219 406.226562 1571.441406 409.414062 1571.691406 C 409.359375 1571.960938 409.308594 1572.21875 409.253906 1572.5 L 409.101562 1573.289062 L 409.375 1574.058594 C 412.082031 1581.671875 418.941406 1583.289062 424.992188 1584.71875 C 426.476562 1585.058594 427.917969 1585.398438 429.261719 1585.820312 L 428.738281 1586.328125 L 428.757812 1587.609375 C 428.761719 1588.171875 428.90625 1588.621094 429.007812 1588.949219 L 429.074219 1589.171875 L 429.074219 1589.390625 C 428.230469 1589.71875 427.382812 1589.890625 426.460938 1589.929688 L 425.300781 1589.96875 L 424.472656 1590.78125 C 424.078125 1591.160156 423.839844 1591.550781 423.6875 1591.828125 L 421.960938 1593.519531 L 423.644531 1595.640625 C 424.683594 1596.949219 425.648438 1598.179688 426.613281 1599.421875 C 427.59375 1600.671875 428.570312 1601.929688 429.625 1603.25 L 430.164062 1603.929688 L 430.984375 1604.21875 C 431.519531 1604.410156 431.96875 1604.511719 432.296875 1604.589844 C 432.4375 1604.628906 432.570312 1604.648438 432.671875 1604.691406 L 433.984375 1605.351562 L 435.3125 1604.71875 C 435.457031 1604.660156 435.589844 1604.578125 435.714844 1604.511719 C 435.847656 1604.578125 435.980469 1604.648438 436.113281 1604.71875 C 436.171875 1604.949219 436.226562 1605.179688 436.28125 1605.410156 C 436.433594 1606.050781 436.585938 1606.679688 436.738281 1607.378906 L 437.035156 1608.769531 L 438.300781 1609.410156 C 438.386719 1609.460938 438.609375 1609.628906 438.757812 1609.738281 C 439.113281 1610.011719 439.558594 1610.339844 440.085938 1610.609375 L 440.929688 1611.039062 L 441.867188 1610.910156 L 442.003906 1610.890625 L 442.007812 1610.949219 C 442.015625 1611.5 442.15625 1611.949219 442.257812 1612.28125 L 442.324219 1612.488281 L 442.339844 1613.519531 L 443.09375 1614.351562 C 445.355469 1616.859375 448.066406 1618.058594 450.460938 1619.121094 C 451.121094 1619.421875 451.765625 1619.699219 452.382812 1620 C 452.394531 1620.101562 452.40625 1620.199219 452.421875 1620.300781 C 452.511719 1621.011719 452.613281 1621.800781 452.820312 1622.578125 L 453.402344 1624.75 L 455.652344 1624.800781 C 455.792969 1624.800781 455.964844 1624.839844 456.25 1624.898438 C 456.679688 1624.988281 457.269531 1625.121094 457.996094 1625.140625 L 458.910156 1625.160156 L 459.609375 1624.710938 L 460.152344 1624.898438 L 460.128906 1624.949219 L 459.449219 1626.308594 L 460.148438 1627.660156 C 460.328125 1628.011719 460.59375 1628.449219 460.863281 1628.878906 C 461.046875 1629.179688 461.230469 1629.46875 461.351562 1629.710938 L 462.453125 1631.839844 L 464.773438 1631.230469 C 465.816406 1630.960938 466.785156 1630.691406 467.757812 1630.421875 C 468.4375 1630.230469 469.113281 1630.03125 469.820312 1629.839844 L 469.824219 1630.121094 L 472.507812 1630.371094 C 473.539062 1630.460938 474.917969 1631.160156 476.25 1631.839844 C 478.085938 1632.78125 480.367188 1633.941406 482.804688 1633.941406 C 484.078125 1633.941406 485.398438 1633.628906 486.71875 1632.789062 L 487.316406 1632.410156 L 487.683594 1631.808594 C 488.730469 1630.070312 489.125 1628.109375 488.867188 1625.949219 L 490.726562 1626.898438 L 491.953125 1624.421875 C 492.128906 1624.519531 492.324219 1624.648438 492.511719 1624.769531 C 492.40625 1626.738281 493.042969 1628.21875 493.707031 1629.199219 C 495.933594 1632.480469 500.5 1633.441406 503.941406 1633.671875 L 505.933594 1633.800781 L 508.121094 1629.398438 L 507.238281 1624.578125 C 507.632812 1624.148438 508.070312 1623.699219 508.535156 1623.238281 C 508.664062 1623.21875 508.78125 1623.199219 508.890625 1623.179688 C 509.179688 1623.128906 509.339844 1623.101562 509.476562 1623.109375 L 511.617188 1623.148438 L 512.355469 1621.140625 C 512.648438 1620.339844 512.957031 1619.261719 512.773438 1617.960938 L 512.636719 1616.960938 L 511.917969 1616.25 C 511.125 1615.460938 510.339844 1614.761719 509.585938 1614.078125 C 509.15625 1613.691406 508.742188 1613.320312 508.335938 1612.941406 L 508.273438 1608.710938 C 509.042969 1608.199219 509.847656 1607.539062 510.535156 1606.640625 L 510.554688 1606.640625 C 511.140625 1606.570312 511.804688 1606.480469 512.523438 1606.25 L 514.375 1605.679688 C 515.273438 1605.46875 516.148438 1605.21875 517.011719 1604.960938 C 517.710938 1605.269531 518.414062 1605.601562 519.148438 1605.941406 C 522.460938 1607.5 526.207031 1609.28125 530.539062 1609.078125 L 530.859375 1609.058594 L 531.082031 1609.261719 C 532.425781 1610.429688 533.667969 1611.699219 534.902344 1613.050781 L 534.164062 1613.519531 L 533.835938 1614.539062 C 532.53125 1618.570312 534.976562 1621.429688 536.59375 1623.328125 C 536.941406 1623.738281 537.296875 1624.148438 537.617188 1624.570312 L 538.328125 1625.519531 L 539.492188 1625.71875 C 541.933594 1626.148438 543.613281 1627.488281 545.339844 1630.441406 C 545.359375 1630.761719 545.394531 1631.070312 545.425781 1631.378906 L 541.808594 1632.210938 L 543.675781 1634.070312 C 541.59375 1633.378906 539.359375 1633.039062 536.925781 1633.328125 L 535.910156 1633.449219 L 535.183594 1634.171875 C 534.816406 1634.53125 534.566406 1634.910156 534.359375 1635.210938 L 534.246094 1635.378906 L 533.523438 1636.089844 L 533.433594 1637.210938 C 533.242188 1639.660156 534.023438 1641.769531 534.714844 1643.628906 C 534.863281 1644.019531 535.007812 1644.421875 535.144531 1644.808594 L 535.507812 1645.878906 L 536.472656 1646.441406 C 537.398438 1646.980469 538.285156 1647.601562 539.21875 1648.25 C 539.878906 1648.710938 540.554688 1649.179688 541.265625 1649.640625 C 541.351562 1650.121094 541.464844 1650.710938 541.6875 1651.339844 L 542.210938 1652.839844 L 543.738281 1653.25 C 544.476562 1653.449219 545.101562 1653.550781 545.652344 1653.640625 L 545.710938 1653.648438 C 547.476562 1656.808594 550.097656 1659.011719 552.734375 1661.078125 C 552.484375 1662.78125 552.527344 1664.421875 552.570312 1666.03125 C 552.582031 1666.488281 552.59375 1666.949219 552.597656 1667.410156 L 552.609375 1668.640625 L 553.480469 1669.511719 C 554.480469 1670.511719 555.40625 1671.5 556.382812 1672.550781 C 556.566406 1672.75 556.753906 1672.949219 556.941406 1673.148438 L 556.515625 1673.480469 C 555.359375 1674.378906 554.410156 1675.398438 553.570312 1676.289062 C 553.214844 1676.671875 552.867188 1677.039062 552.519531 1677.390625 L 551.597656 1678.289062 L 551.617188 1679.480469 L 551.566406 1679.699219 C 551.472656 1680.101562 551.34375 1680.640625 551.355469 1681.308594 L 551.390625 1683.570312 L 553.574219 1684.148438 C 553.933594 1684.25 554.3125 1684.421875 554.75 1684.621094 C 555.097656 1684.769531 555.46875 1684.929688 555.886719 1685.089844 C 559.355469 1688.96875 563.585938 1693.378906 568.964844 1697.460938 C 568.988281 1697.621094 569.011719 1697.769531 569.035156 1697.921875 C 569.109375 1698.371094 569.164062 1698.730469 569.171875 1699.089844 L 569.203125 1701.011719 L 570.949219 1701.789062 C 572.0625 1702.28125 573.144531 1702.691406 574.195312 1703.078125 C 574.484375 1703.191406 574.765625 1703.289062 575.046875 1703.398438 C 574.851562 1703.878906 574.664062 1704.449219 574.566406 1705.089844 L 574.054688 1708.460938 L 579.550781 1708.589844 L 579.578125 1708.628906 C 580.992188 1710.449219 582.453125 1712.339844 584.679688 1713.828125 C 585.136719 1714.410156 585.585938 1715.21875 586.058594 1716.058594 C 587.082031 1717.890625 588.375 1720.199219 590.621094 1721.519531 L 590.328125 1722.429688 L 590.910156 1723.539062 C 593.296875 1728.101562 597.246094 1731.558594 601.285156 1734.589844 L 601.3125 1734.769531 C 601.410156 1735.371094 601.519531 1736.050781 601.757812 1736.738281 L 602.230469 1738.109375 L 603.59375 1738.589844 C 604.203125 1738.800781 604.707031 1738.910156 605.113281 1739 L 605.183594 1739.019531 C 606.449219 1740.589844 607.765625 1741.929688 609.042969 1743.238281 C 611.429688 1745.679688 613.488281 1747.78125 614.925781 1750.949219 L 615.414062 1752.019531 L 616.5 1752.46875 C 617.386719 1752.839844 618.285156 1753.109375 619.15625 1753.371094 C 619.90625 1753.578125 620.609375 1753.789062 621.191406 1754.039062 L 622.757812 1754.691406 L 624.796875 1753.199219 C 625.375 1752.789062 625.933594 1752.390625 626.488281 1751.921875 C 626.644531 1751.898438 626.789062 1751.871094 626.917969 1751.851562 C 627.203125 1751.800781 627.363281 1751.78125 627.492188 1751.769531 L 628.199219 1751.789062 L 628.84375 1751.488281 C 631.136719 1750.398438 632.324219 1748.101562 631.941406 1745.46875 L 631.796875 1744.480469 L 631.085938 1743.769531 C 630.109375 1742.800781 630.082031 1741.898438 630.261719 1739.578125 C 630.308594 1738.949219 630.363281 1738.238281 630.363281 1737.488281 C 635.15625 1740.128906 639.234375 1743.578125 642.972656 1747.019531 L 645.925781 1749.730469 L 647.695312 1746.128906 C 647.769531 1745.980469 647.851562 1745.871094 647.929688 1745.75 C 648.09375 1745.5 648.320312 1745.160156 648.550781 1744.699219 L 649.214844 1743.351562 L 648.527344 1742.011719 C 647.664062 1740.328125 646.589844 1738.679688 645.515625 1737.078125 C 646.179688 1736.609375 646.855469 1736.148438 647.535156 1735.679688 C 648.375 1735.101562 649.234375 1734.511719 650.074219 1733.910156 C 650.261719 1733.960938 650.449219 1734 650.636719 1734.050781 C 650.988281 1734.128906 651.335938 1734.21875 651.671875 1734.300781 L 651.863281 1734.519531 C 652.332031 1735.050781 652.863281 1735.628906 653.539062 1736.160156 L 653.542969 1736.429688 L 654.976562 1737.171875 L 655.394531 1737.449219 C 655.421875 1737.75 655.457031 1738.039062 655.488281 1738.320312 C 655.566406 1739 655.640625 1739.628906 655.648438 1740.210938 L 655.683594 1742.71875 L 658.164062 1743.128906 C 659.105469 1743.28125 660.132812 1743.5 661.222656 1743.75 C 662.023438 1743.921875 662.84375 1744.101562 663.648438 1744.261719 C 665.003906 1745.539062 666.335938 1746.621094 667.632812 1747.671875 L 670.238281 1749.78125 L 672.046875 1746.960938 C 672.40625 1746.398438 674.304688 1743.648438 676.476562 1744.300781 L 677.609375 1744.648438 L 678.675781 1744.121094 C 680.402344 1743.261719 681.148438 1741.878906 681.703125 1740.851562 L 682.765625 1738.890625 L 681.1875 1737.308594 C 681.003906 1737.128906 680.753906 1736.808594 680.511719 1736.511719 L 680.484375 1736.480469 C 683.3125 1734.761719 685.816406 1734.109375 688.664062 1734.359375 C 690.085938 1735.859375 691.089844 1737.550781 692.144531 1739.328125 C 693.1875 1741.089844 694.265625 1742.898438 695.808594 1744.691406 L 699.640625 1749.121094 L 700.996094 1743.421875 C 701.109375 1742.960938 701.292969 1742.378906 701.492188 1741.769531 C 701.554688 1741.570312 701.617188 1741.378906 701.679688 1741.179688 C 705.398438 1739.851562 709.621094 1739.980469 713.796875 1740.5 C 713.773438 1740.761719 713.757812 1741.011719 713.738281 1741.261719 C 713.683594 1742.011719 713.625 1742.789062 713.515625 1743.5 L 713.085938 1746.289062 L 715.839844 1746.890625 C 716.726562 1747.078125 717.625 1747.179688 718.492188 1747.28125 C 718.914062 1747.328125 719.320312 1747.371094 719.703125 1747.421875 L 720.484375 1748.210938 C 720.582031 1748.640625 720.679688 1749.050781 720.773438 1749.460938 C 720.925781 1750.089844 721.074219 1750.730469 721.222656 1751.441406 L 721.40625 1752.300781 L 722.03125 1752.929688 C 722.371094 1753.269531 722.742188 1753.578125 723.085938 1753.859375 C 722.996094 1756.691406 723.835938 1759.289062 724.589844 1761.628906 C 724.839844 1762.398438 725.082031 1763.140625 725.285156 1763.878906 L 725.203125 1764.089844 C 725.039062 1764.5 724.882812 1764.921875 724.722656 1765.421875 L 724.074219 1767.429688 L 725.75 1768.71875 C 727.367188 1769.960938 728.117188 1771.628906 728.890625 1773.960938 C 728.734375 1774.441406 728.601562 1774.898438 728.472656 1775.351562 C 728.277344 1776.03125 728.09375 1776.671875 727.859375 1777.269531 L 727.324219 1778.640625 L 728.09375 1779.910156 C 728.523438 1780.621094 728.882812 1781.261719 729.242188 1781.898438 C 729.503906 1782.371094 729.769531 1782.828125 730.058594 1783.328125 L 730.066406 1783.988281 C 729.054688 1785.109375 727.878906 1786.511719 727.550781 1788.691406 L 727.324219 1790.191406 L 728.390625 1791.261719 C 728.539062 1791.410156 728.679688 1791.601562 728.859375 1791.839844 C 729.113281 1792.171875 729.429688 1792.589844 729.867188 1793.039062 L 730.722656 1793.898438 L 731.371094 1793.910156 L 731.414062 1797.121094 L 733.542969 1797.160156 C 734.046875 1797.398438 734.527344 1797.46875 734.902344 1797.480469 L 735.476562 1797.488281 L 735.546875 1797.609375 C 735.8125 1798.039062 736.078125 1798.480469 736.359375 1798.921875 C 736.378906 1800.539062 736.722656 1801.949219 737.027344 1803.21875 C 737.464844 1805.03125 737.691406 1806.109375 737.277344 1807.308594 L 736.902344 1808.378906 L 737.335938 1809.429688 C 737.683594 1810.28125 738.09375 1811.089844 738.488281 1811.871094 C 738.84375 1812.570312 739.179688 1813.230469 739.4375 1813.851562 L 739.738281 1814.589844 L 740.363281 1815.078125 C 742.265625 1816.570312 744.097656 1818.058594 745.929688 1819.550781 C 747.78125 1821.050781 749.632812 1822.550781 751.554688 1824.058594 L 752.34375 1824.679688 L 755.742188 1824.75 C 755.988281 1825.179688 756.105469 1825.921875 756.25 1827.261719 C 756.347656 1828.171875 756.457031 1829.191406 756.730469 1830.199219 L 757.042969 1831.351562 L 758.050781 1831.96875 C 759.753906 1833.019531 761.34375 1832.621094 762.339844 1832.179688 C 763.21875 1832.539062 764.085938 1832.851562 764.992188 1833.179688 C 765.820312 1833.480469 766.675781 1833.789062 767.574219 1834.140625 L 768.445312 1834.480469 L 769.351562 1834.269531 C 769.777344 1834.171875 770.175781 1834.121094 770.640625 1834.070312 C 770.816406 1834.050781 771.003906 1834.019531 771.195312 1834 C 771.433594 1834.289062 771.675781 1834.738281 772.023438 1835.410156 C 772.761719 1836.859375 773.777344 1838.839844 776.125 1840.039062 L 776.738281 1840.351562 L 778.5625 1840.390625 C 778.617188 1842.039062 779.003906 1844 780.855469 1845.589844 L 781.371094 1846.03125 L 782.027344 1846.210938 C 782.386719 1846.308594 782.761719 1846.46875 783.195312 1846.671875 C 783.773438 1846.929688 784.433594 1847.21875 785.242188 1847.441406 L 786.542969 1847.789062 L 787.671875 1847.050781 C 788.089844 1846.78125 788.640625 1846.480469 789.242188 1846.179688 C 789.492188 1846.308594 789.761719 1846.449219 790.046875 1846.578125 C 790.566406 1847.160156 791.109375 1847.738281 791.65625 1848.328125 C 795.085938 1852.019531 797.347656 1854.71875 797.015625 1857.789062 C 796.394531 1858.828125 795.824219 1859.871094 795.269531 1860.871094 C 794.632812 1862.019531 794.03125 1863.109375 793.359375 1864.210938 L 792.746094 1865.199219 L 792.96875 1866.351562 C 794.515625 1874.398438 802.3125 1878.421875 808.582031 1881.648438 C 809.257812 1882 809.921875 1882.339844 810.558594 1882.679688 C 810.578125 1882.828125 810.59375 1882.980469 810.613281 1883.128906 C 810.695312 1883.828125 810.789062 1884.628906 810.964844 1885.460938 L 812.085938 1890.890625 L 815.238281 1887.738281 C 815.398438 1888.351562 815.546875 1888.96875 815.652344 1889.550781 L 816.203125 1892.671875 L 819.289062 1891.949219 C 819.714844 1891.851562 820.109375 1891.800781 820.570312 1891.738281 C 821.121094 1891.671875 821.742188 1891.589844 822.476562 1891.421875 L 824.132812 1891.039062 L 824.300781 1890.511719 C 824.472656 1890.71875 824.640625 1890.929688 824.808594 1891.128906 C 825.597656 1892.078125 826.355469 1892.988281 826.757812 1893.828125 C 825.570312 1896.210938 825.394531 1898.691406 825.238281 1900.921875 C 825.199219 1901.488281 825.160156 1902.070312 825.101562 1902.648438 L 825.015625 1903.46875 L 825.359375 1904.210938 C 826.847656 1907.441406 828.335938 1910.601562 829.820312 1913.761719 C 831.320312 1916.949219 832.820312 1920.128906 834.324219 1923.398438 L 835.109375 1925.109375 L 839.21875 1925.179688 L 840.132812 1924.191406 C 841.8125 1922.351562 842.925781 1920.269531 844.003906 1918.261719 C 844.246094 1917.808594 844.484375 1917.359375 844.722656 1916.929688 C 845.304688 1916.78125 845.820312 1916.640625 846.300781 1916.570312 C 846.492188 1917 846.648438 1917.589844 846.808594 1918.191406 C 847.011719 1918.960938 847.238281 1919.820312 847.617188 1920.679688 L 848.859375 1923.5 L 851.644531 1922.179688 C 855.476562 1920.359375 859.796875 1920.980469 864.371094 1921.640625 C 865.859375 1921.851562 867.394531 1922.070312 868.949219 1922.210938 L 870.328125 1922.359375 L 871.320312 1921.359375 C 871.390625 1921.308594 871.601562 1921.179688 871.757812 1921.089844 C 871.894531 1921.011719 872.050781 1920.921875 872.214844 1920.808594 C 873.476562 1921.019531 874.828125 1921.960938 876.351562 1923.03125 C 877.191406 1923.621094 878.046875 1924.21875 878.96875 1924.75 C 879.761719 1927.140625 880.710938 1929.53125 881.65625 1931.859375 C 881.417969 1933.019531 880.925781 1934 880.207031 1935.191406 L 878.167969 1938.578125 L 881.980469 1939.628906 C 894.742188 1943.160156 907.820312 1955.761719 907.5 1970.289062 C 906.28125 1970.121094 905.300781 1970.578125 904.675781 1971.011719 L 903.640625 1971.738281 L 903.433594 1972.988281 C 903.414062 1973.109375 903.386719 1973.230469 903.363281 1973.339844 C 903.3125 1973.578125 903.253906 1973.878906 903.214844 1974.230469 L 901.078125 1974.179688 L 901.132812 1978.078125 C 900.628906 1977.949219 900.132812 1977.808594 899.644531 1977.679688 L 897.597656 1975.601562 L 896.371094 1975.578125 C 895.375 1975.558594 894.429688 1975.621094 893.515625 1975.679688 C 892.6875 1975.738281 891.90625 1975.789062 891.164062 1975.78125 L 887.402344 1975.710938 L 888.171875 1979.390625 C 889.675781 1986.578125 895.710938 1991.191406 901.328125 1994.828125 L 901.347656 1996.558594 L 902.070312 1997.390625 C 905.847656 2001.730469 910.167969 2004.269531 914.304688 2006.328125 C 914.902344 2006.878906 915.496094 2007.429688 916.089844 2007.988281 C 919.03125 2010.761719 922.34375 2013.890625 926.71875 2015.46875 C 934.628906 2022.46875 943.542969 2030.011719 953.9375 2038.480469 C 954.128906 2039.078125 954.359375 2039.699219 954.601562 2040.328125 C 954.460938 2040.53125 954.324219 2040.761719 954.199219 2041.011719 L 953.664062 2042.109375 L 953.988281 2043.070312 L 953.339844 2043.730469 L 953.367188 2046.769531 L 954.214844 2047.640625 L 954.332031 2047.769531 L 952.53125 2049.578125 L 952.574219 2053.28125 L 953.855469 2054.160156 C 955.183594 2055.070312 956.4375 2055.910156 957.691406 2056.75 C 958.441406 2057.25 959.191406 2057.75 959.957031 2058.269531 C 959.882812 2059.039062 959.808594 2059.828125 959.738281 2060.609375 C 959.671875 2061.289062 959.609375 2061.96875 959.546875 2062.648438 L 959.394531 2062.699219 C 958.800781 2062.890625 958.285156 2063.058594 957.753906 2063.160156 L 955.277344 2063.621094 L 955.304688 2066.140625 C 955.308594 2066.371094 955.253906 2066.800781 955.203125 2067.179688 C 955.128906 2067.761719 955.042969 2068.421875 955.046875 2069.070312 L 955.078125 2071.828125 L 957.835938 2072.03125 C 958.347656 2072.058594 958.78125 2072.410156 959.722656 2073.238281 C 960.136719 2073.601562 960.613281 2074.019531 961.164062 2074.421875 L 961.183594 2076.371094 L 960.695312 2076.621094 L 960.296875 2077.609375 L 956.101562 2081.859375 L 958.128906 2081.519531 C 957.421875 2083.050781 956.96875 2084.921875 957.699219 2087.058594 L 957.867188 2087.539062 L 958.183594 2087.949219 C 958.820312 2088.761719 959.515625 2089.539062 960.1875 2090.308594 C 960.351562 2090.488281 960.511719 2090.671875 960.671875 2090.859375 C 959.875 2092.789062 959.914062 2094.910156 960.792969 2097.210938 L 958.503906 2098.109375 L 957.992188 2099.171875 C 957.824219 2099.519531 957.648438 2099.96875 957.476562 2100.410156 C 957.367188 2100.691406 957.261719 2100.980469 957.152344 2101.210938 L 955.539062 2104.550781 L 959.144531 2105.429688 C 962.460938 2106.230469 965.042969 2108.148438 966.160156 2110.601562 L 966.167969 2111.378906 C 966.046875 2111.550781 965.933594 2111.710938 965.824219 2111.859375 C 963.789062 2111.261719 961.03125 2110.488281 958.128906 2112.28125 L 957.488281 2112.671875 L 957.113281 2113.320312 C 956.667969 2114.078125 956.222656 2114.921875 955.777344 2115.761719 C 955.375 2116.519531 954.976562 2117.28125 954.574219 2117.96875 L 954.15625 2118.691406 L 954.195312 2121.929688 L 955.078125 2122.800781 C 956.453125 2124.148438 957.214844 2125.769531 958.019531 2127.488281 C 959.433594 2130.511719 961.167969 2134.210938 966.464844 2135.980469 C 966.753906 2136.539062 967.058594 2137.109375 967.359375 2137.671875 C 967.863281 2138.609375 968.363281 2139.550781 968.796875 2140.421875 L 969.304688 2141.449219 L 970.371094 2141.871094 C 973.558594 2143.140625 975.664062 2145.328125 977.488281 2148.238281 C 976.613281 2147.980469 975.722656 2147.660156 974.804688 2147.328125 C 972.265625 2146.421875 969.390625 2145.390625 966.167969 2145.390625 L 966.113281 2145.390625 L 961.957031 2145.398438 L 963.277344 2149.339844 C 963.570312 2150.210938 963.863281 2151.148438 964.15625 2152.089844 C 964.460938 2153.070312 964.765625 2154.039062 965.066406 2154.949219 L 965.355469 2155.808594 L 969.550781 2159.058594 L 970.269531 2159.671875 L 971.269531 2159.691406 C 971.367188 2159.699219 971.472656 2159.71875 971.582031 2159.738281 C 973.574219 2162.648438 976.21875 2164.878906 978.785156 2167.039062 C 979.703125 2167.820312 980.582031 2168.558594 981.421875 2169.320312 C 981.96875 2170.898438 983.207031 2171.921875 984.015625 2172.589844 C 984.230469 2172.769531 984.445312 2172.941406 984.621094 2173.121094 L 985.484375 2174 L 986.71875 2174.019531 C 987.078125 2174.03125 987.429688 2174.078125 987.871094 2174.160156 C 988.011719 2174.179688 988.15625 2174.199219 988.308594 2174.21875 L 991.015625 2177.898438 L 992.847656 2177.929688 C 992.949219 2178.039062 993.046875 2178.140625 993.140625 2178.238281 C 993.410156 2178.511719 993.664062 2178.769531 993.796875 2178.980469 L 994.351562 2179.820312 L 995.304688 2180.160156 C 995.480469 2180.21875 995.644531 2180.28125 995.800781 2180.320312 C 996.789062 2182.75 999.097656 2184.03125 1000.609375 2184.859375 L 1002.261719 2185.828125 L 1003.679688 2185.121094 C 1003.769531 2185.191406 1003.871094 2185.261719 1003.96875 2185.328125 C 1004.808594 2185.960938 1005.859375 2186.738281 1007.339844 2187.148438 L 1008.210938 2187.390625 L 1009.058594 2187.109375 C 1009.421875 2187.5 1009.851562 2187.890625 1010.398438 2188.230469 C 1010.570312 2188.738281 1010.78125 2189.148438 1010.941406 2189.480469 L 1012.011719 2191.628906 L 1014.101562 2191.128906 L 1014.101562 2191.171875 L 1014.128906 2194.101562 L 1017.058594 2194.140625 C 1017.960938 2194.148438 1018.730469 2194.070312 1019.410156 2194 C 1019.71875 2193.96875 1020.019531 2193.941406 1020.300781 2193.921875 C 1021.929688 2194.921875 1023.589844 2195.871094 1025.199219 2196.789062 C 1031.75 2200.539062 1037.941406 2204.070312 1041.960938 2210.421875 L 1042.828125 2211.789062 L 1044.140625 2211.808594 C 1044.53125 2211.929688 1045.148438 2212.121094 1045.898438 2212.128906 L 1048.300781 2212.160156 L 1048.851562 2209.820312 C 1048.988281 2209.210938 1049.078125 2208.621094 1049.140625 2208.089844 C 1062.148438 2210.71875 1074.238281 2215.429688 1084.21875 2221.769531 L 1084.539062 2221.941406 C 1086.128906 2222.699219 1087.730469 2223.449219 1089.328125 2224.199219 C 1103.648438 2230.921875 1118.449219 2237.859375 1128.878906 2249.929688 C 1133.191406 2260.820312 1138.800781 2264.421875 1144.230469 2267.898438 C 1148.789062 2270.828125 1153.109375 2273.589844 1156.898438 2281.28125 L 1157.5 2282.480469 L 1158.789062 2282.839844 C 1159.570312 2283.058594 1160.339844 2283.148438 1161.078125 2283.148438 C 1163.058594 2283.148438 1164.859375 2282.511719 1166.390625 2281.96875 C 1167 2281.75 1167.570312 2281.550781 1168.109375 2281.398438 L 1169.710938 2280.949219 L 1170.179688 2279.351562 C 1173.039062 2269.628906 1174.589844 2258.871094 1174.808594 2247.359375 C 1174.910156 2247.210938 1175 2247.058594 1175.101562 2246.898438 C 1177.050781 2243.890625 1179.261719 2240.480469 1179.660156 2236.160156 L 1179.78125 2234.789062 L 1176.101562 2231 L 1175.078125 2230.859375 C 1174.199219 2230.730469 1173.378906 2230.671875 1172.589844 2230.609375 C 1170.859375 2230.480469 1169.570312 2230.390625 1168.351562 2229.738281 C 1167.371094 2228.398438 1167.058594 2226.550781 1166.710938 2224.441406 C 1166.539062 2223.421875 1166.371094 2222.371094 1166.101562 2221.300781 L 1165.898438 2220.519531 L 1165.339844 2219.949219 C 1165.109375 2219.710938 1164.980469 2219.460938 1164.730469 2218.949219 L 1164.320312 2218.109375 L 1163.511719 2217.648438 C 1160.710938 2216.089844 1157.648438 2215.421875 1154.691406 2214.769531 C 1150.75 2213.898438 1147.308594 2213.148438 1144.980469 2210.550781 C 1144.589844 2208.941406 1144.359375 2206.898438 1145.011719 2205.199219 C 1147.359375 2203.128906 1150.890625 2202.421875 1154.601562 2201.671875 C 1160.628906 2200.460938 1168.121094 2198.949219 1170.601562 2190.230469 L 1170.800781 2189.53125 L 1170.660156 2188.828125 C 1170.539062 2188.230469 1170.480469 2187.589844 1170.410156 2186.898438 C 1170.328125 2186.109375 1170.25 2185.289062 1170.078125 2184.410156 L 1170 2184.03125 L 1169.828125 2183.671875 C 1167.460938 2178.828125 1163.121094 2176.101562 1159.289062 2173.691406 C 1155.910156 2171.570312 1152.710938 2169.558594 1151.039062 2166.359375 C 1150.671875 2163.910156 1150.988281 2161.328125 1151.328125 2158.609375 C 1151.710938 2155.558594 1152.101562 2152.421875 1151.621094 2149.121094 C 1155.058594 2145.941406 1159.988281 2145.878906 1165.621094 2145.800781 C 1170.890625 2145.738281 1176.339844 2145.671875 1181.191406 2142.929688 L 1181.898438 2142.53125 L 1182.308594 2141.828125 C 1182.570312 2141.378906 1182.808594 2140.949219 1183.039062 2140.539062 C 1183.539062 2139.648438 1183.941406 2138.949219 1184.441406 2138.269531 L 1185.019531 2137.480469 L 1185.011719 2133.921875 L 1184.609375 2133.230469 C 1183.128906 2130.671875 1180.910156 2129.039062 1178.941406 2127.601562 C 1177.320312 2126.410156 1175.890625 2125.371094 1174.960938 2123.949219 C 1175.128906 2121.210938 1176.25 2119.011719 1177.640625 2116.289062 C 1178.078125 2115.429688 1178.53125 2114.558594 1178.949219 2113.648438 L 1179.148438 2113.230469 L 1179.210938 2112.78125 C 1180.539062 2102.960938 1177.730469 2093.539062 1170.628906 2084.011719 C 1169.75 2079.921875 1170.160156 2075.828125 1170.589844 2071.511719 C 1170.820312 2069.148438 1171.058594 2066.699219 1171.101562 2064.179688 L 1171.109375 2063.539062 L 1170.859375 2062.960938 C 1166.320312 2052.25 1167.78125 2039.160156 1174.480469 2030.378906 L 1175.171875 2029.480469 L 1175.089844 2028.359375 C 1173.839844 2009.761719 1177.871094 2000.398438 1187.398438 1984.449219 L 1187.828125 1984.511719 L 1188.71875 1982.378906 C 1188.789062 1982.21875 1188.871094 1982.058594 1188.941406 1981.898438 L 1190.578125 1979.160156 L 1190.28125 1979.121094 C 1190.839844 1978.058594 1191.449219 1976.988281 1192.070312 1975.890625 C 1194.25 1972.058594 1196.5 1968.089844 1197.300781 1963.519531 L 1197.589844 1961.820312 L 1196.28125 1960.710938 C 1162.351562 1931.96875 1127.691406 1902.351562 1094.171875 1873.710938 L 1087.101562 1867.671875 C 1094.550781 1857.609375 1103.398438 1847.800781 1111.960938 1838.300781 C 1126.148438 1822.570312 1140.789062 1806.300781 1150.351562 1787.738281 L 1150.699219 1787.738281 L 1150.921875 1786.628906 C 1151.019531 1786.441406 1151.121094 1786.25 1151.21875 1786.058594 L 1153.078125 1782.300781 L 1151.980469 1782.148438 C 1154.570312 1773.628906 1160.460938 1766.820312 1166.671875 1759.671875 C 1172.21875 1753.269531 1177.960938 1746.660156 1181.300781 1738.578125 L 1181.589844 1737.878906 L 1181.519531 1737.128906 C 1181.25 1734.421875 1180.808594 1730.058594 1181.289062 1726.648438 C 1188.28125 1720.53125 1193.710938 1713.230469 1198.980469 1706.160156 C 1203.921875 1699.53125 1209.03125 1692.679688 1215.300781 1687.019531 L 1217.179688 1685.328125 L 1215.828125 1683.191406 C 1211.21875 1675.890625 1210.191406 1667.5 1209.089844 1658.621094 C 1209.011719 1658 1208.941406 1657.378906 1208.859375 1656.761719 C 1209.5 1656.300781 1210.378906 1655.890625 1211.25 1655.480469 C 1212.320312 1654.96875 1213.429688 1654.441406 1214.449219 1653.71875 L 1215.058594 1653.289062 L 1215.398438 1652.621094 C 1215.480469 1652.46875 1215.601562 1652.328125 1215.710938 1652.179688 C 1215.980469 1651.820312 1216.308594 1651.378906 1216.578125 1650.839844 L 1216.941406 1650.121094 L 1216.878906 1649.308594 C 1216.738281 1647.148438 1216.671875 1645 1216.601562 1642.929688 C 1216.539062 1641.070312 1216.46875 1639.148438 1216.351562 1637.179688 L 1216.621094 1636.648438 C 1218.671875 1632.53125 1220.441406 1628.96875 1223.789062 1626.691406 L 1224.480469 1626.210938 L 1224.828125 1625.449219 C 1228.160156 1618.128906 1234.019531 1614.589844 1240.519531 1615.949219 L 1241.089844 1616.070312 L 1241.679688 1615.96875 C 1264.609375 1611.761719 1272.839844 1588.230469 1279.460938 1569.320312 C 1279.679688 1568.710938 1279.890625 1568.089844 1280.109375 1567.488281 C 1280.390625 1567.53125 1280.660156 1567.570312 1280.898438 1567.628906 L 1284.160156 1568.441406 L 1284.601562 1565.109375 C 1285.710938 1556.671875 1286.441406 1555.691406 1290.53125 1550.238281 C 1291.078125 1549.488281 1291.699219 1548.671875 1292.378906 1547.75 C 1293.589844 1547.261719 1294.828125 1546.828125 1296.03125 1546.421875 C 1298.949219 1545.410156 1301.960938 1544.371094 1304.761719 1542.449219 L 1305.71875 1541.789062 L 1308.371094 1530.359375 C 1317.628906 1524.078125 1324.289062 1513.089844 1325.96875 1501.261719 C 1326.71875 1500.039062 1327.519531 1498.808594 1328.300781 1497.628906 C 1330.699219 1493.96875 1333.171875 1490.210938 1334.511719 1485.679688 C 1344.371094 1479.179688 1345.488281 1469.449219 1346.480469 1460.828125 C 1346.808594 1457.929688 1347.160156 1454.949219 1347.808594 1452.128906 C 1352.269531 1449.410156 1356.949219 1446.808594 1361.488281 1444.300781 C 1369.269531 1439.980469 1377.328125 1435.519531 1384.589844 1430.210938 L 1386.300781 1428.960938 L 1385.699219 1426.929688 C 1385.25 1425.441406 1384.421875 1422.648438 1393.191406 1419.738281 L 1393.859375 1419.519531 L 1394.371094 1419.011719 C 1394.539062 1418.839844 1394.851562 1418.589844 1395.148438 1418.351562 C 1395.558594 1418.019531 1396.011719 1417.660156 1396.421875 1417.25 L 1397.109375 1416.558594 L 1397.261719 1415.609375 C 1397.941406 1411.5 1396.921875 1407.820312 1395.941406 1404.261719 C 1395.128906 1401.320312 1394.359375 1398.539062 1394.679688 1395.800781 L 1394.800781 1394.710938 L 1391.269531 1389.398438 C 1391.460938 1387.238281 1391.5 1385.089844 1391.539062 1383 C 1391.621094 1379.328125 1391.691406 1375.859375 1392.46875 1372.589844 C 1399.179688 1362.230469 1406.851562 1352.28125 1414.269531 1342.648438 C 1421.019531 1333.878906 1428 1324.808594 1434.289062 1315.410156 L 1435.410156 1313.738281 L 1435.128906 1313.328125 C 1437.929688 1309.050781 1439.589844 1307.609375 1440.5 1307.179688 C 1441.089844 1306.910156 1441.480469 1307 1443.289062 1307.820312 C 1445.78125 1308.960938 1449.550781 1310.691406 1455.449219 1308.601562 L 1456.5 1308.230469 L 1457.050781 1307.269531 C 1460.621094 1301.070312 1465.269531 1295.769531 1472.589844 1289.539062 L 1473.820312 1288.5 L 1473.621094 1286.890625 C 1473.398438 1285.101562 1473.359375 1283.28125 1473.359375 1281.390625 C 1473.570312 1281.171875 1473.789062 1280.949219 1474.011719 1280.730469 C 1475.109375 1279.609375 1476.320312 1278.390625 1477.238281 1276.828125 C 1481.308594 1276.648438 1484.53125 1274.5 1487.421875 1272.570312 C 1490.621094 1270.429688 1492.78125 1269.089844 1495.339844 1269.511719 C 1496.160156 1270.101562 1496.960938 1270.789062 1497.730469 1271.460938 C 1498.070312 1271.75 1498.398438 1272.039062 1498.730469 1272.320312 C 1499.21875 1273.601562 1499.671875 1274.921875 1500.148438 1276.308594 C 1502.171875 1282.171875 1504.261719 1288.21875 1509.21875 1292.648438 L 1509.921875 1293.269531 L 1510.851562 1293.390625 C 1512.039062 1293.53125 1513.289062 1293.679688 1514.550781 1293.820312 C 1515.511719 1293.929688 1516.460938 1294.039062 1517.378906 1294.148438 C 1518.53125 1295.019531 1519.789062 1295.871094 1521.039062 1296.710938 L 1521.328125 1297.589844 C 1521 1298.539062 1520.109375 1299.429688 1518.78125 1300.679688 C 1517.820312 1301.589844 1516.71875 1302.621094 1515.808594 1303.878906 L 1515.570312 1304.21875 L 1515.421875 1304.621094 C 1513.609375 1309.660156 1515.679688 1314.449219 1517.351562 1318.300781 L 1517.488281 1318.640625 C 1517.28125 1320.390625 1517.28125 1322.25 1517.269531 1323.789062 L 1517.269531 1324.671875 L 1517.738281 1325.410156 C 1519.328125 1327.890625 1521.78125 1329.011719 1523.75 1329.910156 C 1524.058594 1330.050781 1524.351562 1330.179688 1524.628906 1330.320312 C 1524.890625 1331 1525.140625 1331.679688 1525.378906 1332.359375 C 1526.980469 1336.78125 1528.640625 1341.320312 1532.179688 1345.058594 L 1531.898438 1345.300781 L 1534.890625 1347.53125 C 1535.578125 1348.039062 1535.738281 1348.160156 1535.730469 1349.511719 L 1535.730469 1350.421875 L 1536.238281 1351.179688 C 1536.429688 1351.460938 1536.589844 1351.789062 1536.78125 1352.171875 C 1536.851562 1352.308594 1536.921875 1352.449219 1537 1352.601562 C 1536.449219 1355.53125 1537.101562 1358.128906 1537.679688 1360.46875 C 1538 1361.769531 1538.308594 1363.019531 1538.371094 1364.199219 C 1535.738281 1365.558594 1528.101562 1364.808594 1524.648438 1364.480469 C 1523.210938 1364.339844 1521.960938 1364.210938 1520.910156 1364.160156 L 1519.578125 1364.101562 L 1517.171875 1366.5 L 1517.171875 1367.738281 C 1517.171875 1368.480469 1517.101562 1369.199219 1517.03125 1369.960938 C 1517 1370.328125 1516.960938 1370.710938 1516.929688 1371.101562 C 1515.441406 1372.308594 1514.390625 1373.910156 1513.761719 1375.949219 L 1513.539062 1376.640625 L 1513.671875 1377.359375 C 1514.460938 1381.878906 1516.210938 1385.128906 1519.160156 1387.449219 C 1518.898438 1389.480469 1517.738281 1391.558594 1516.519531 1393.738281 C 1515.769531 1395.089844 1514.988281 1396.480469 1514.378906 1397.949219 L 1514.238281 1398.28125 L 1514.179688 1398.640625 C 1513.941406 1400.140625 1514.140625 1401.609375 1514.308594 1402.898438 C 1514.53125 1404.480469 1514.558594 1405.179688 1514.390625 1405.53125 C 1513.941406 1405.679688 1513.511719 1405.839844 1513.109375 1405.988281 C 1512.589844 1406.191406 1512.089844 1406.371094 1511.671875 1406.480469 L 1509.941406 1406.921875 L 1509.5 1408.648438 C 1509.308594 1409.421875 1509.210938 1410.128906 1509.128906 1410.761719 C 1509.070312 1411.28125 1509 1411.761719 1508.898438 1412.171875 L 1508.628906 1413.230469 L 1509.109375 1414.210938 C 1509.601562 1415.230469 1510.070312 1416.300781 1510.550781 1417.378906 C 1512.25 1421.21875 1514.171875 1425.539062 1517.410156 1428.910156 C 1518.140625 1434.519531 1520.320312 1439.308594 1523.761719 1442.878906 C 1524.371094 1451.449219 1526.199219 1459.199219 1528.089844 1466.308594 L 1528.429688 1467.601562 L 1529.609375 1468.210938 C 1530.898438 1468.878906 1532.128906 1469.488281 1533.28125 1470.078125 C 1543.019531 1475 1547.050781 1477.039062 1551.25 1488.660156 L 1551.460938 1489.25 L 1551.890625 1489.710938 C 1555.96875 1494 1561.089844 1496.789062 1566.039062 1499.488281 C 1568.679688 1500.929688 1571.171875 1502.289062 1573.511719 1503.859375 C 1578.921875 1509.078125 1585.621094 1511.019531 1591.539062 1512.738281 L 1593.53125 1513.320312 L 1600.460938 1504.128906 L 1600.609375 1503.558594 C 1601.101562 1501.679688 1600.921875 1499.980469 1600.75 1498.480469 C 1600.679688 1497.761719 1600.621094 1497.171875 1600.621094 1496.679688 C 1601.648438 1496.640625 1602.660156 1496.589844 1603.648438 1496.539062 C 1605.351562 1496.449219 1606.949219 1496.359375 1608.648438 1496.351562 L 1609.480469 1496.339844 L 1610.179688 1495.910156 C 1612.421875 1494.539062 1613.941406 1492.71875 1615.210938 1490.851562 C 1616.199219 1491 1617.21875 1491.289062 1618.28125 1491.601562 C 1620.800781 1492.320312 1623.648438 1493.148438 1626.980469 1492.300781 L 1627.910156 1492.070312 L 1628.53125 1491.351562 C 1632.109375 1487.171875 1634.578125 1482.191406 1636.230469 1475.761719 C 1636.769531 1476.039062 1637.308594 1476.320312 1637.871094 1476.601562 C 1638.898438 1477.140625 1639.960938 1477.691406 1641.078125 1478.210938 C 1641.25 1478.449219 1641.421875 1478.691406 1641.578125 1478.929688 C 1644.128906 1482.609375 1647.289062 1487.191406 1653.140625 1488.03125 L 1654.640625 1488.238281 L 1655.699219 1487.171875 C 1656.691406 1486.171875 1657.398438 1485.078125 1658.019531 1484.121094 C 1658.898438 1482.761719 1659.429688 1481.980469 1660.21875 1481.691406 L 1661.371094 1481.269531 L 1661.890625 1480.171875 C 1663.539062 1476.730469 1663.359375 1473.019531 1663.191406 1469.761719 C 1663.050781 1466.789062 1662.921875 1464.160156 1663.96875 1461.941406 C 1670.511719 1461.421875 1675.570312 1457.808594 1680.46875 1454.308594 C 1685.179688 1450.941406 1689.648438 1447.75 1695.101562 1447.671875 C 1701.941406 1454.398438 1710.699219 1457.25 1720.519531 1455.910156 L 1721.058594 1455.839844 L 1721.53125 1455.589844 C 1725 1453.730469 1728.308594 1452.859375 1731.628906 1452.890625 C 1734.199219 1454.21875 1736.890625 1454.21875 1739.289062 1454.199219 C 1740.019531 1454.191406 1740.71875 1454.191406 1741.390625 1454.21875 C 1744.839844 1455.800781 1749.640625 1457.449219 1753.53125 1455.378906 C 1757.308594 1453.359375 1758.789062 1448.789062 1759.78125 1442.53125 C 1766.238281 1430.988281 1765.429688 1425.53125 1764.839844 1421.53125 C 1764.511719 1419.289062 1764.320312 1418.019531 1765.429688 1415.941406 C 1773.949219 1414.171875 1781.929688 1411.441406 1789.179688 1407.808594 C 1796.171875 1406.691406 1799.238281 1401.238281 1801.960938 1396.410156 C 1802.011719 1396.308594 1802.070312 1396.199219 1802.128906 1396.101562 C 1803.351562 1396.441406 1804.550781 1396.820312 1805.730469 1397.179688 C 1809.429688 1398.328125 1813.261719 1399.519531 1817.488281 1399.808594 L 1819.640625 1399.960938 L 1820.460938 1397.96875 C 1822.710938 1392.558594 1824.949219 1387.078125 1827.199219 1381.609375 C 1829.421875 1376.171875 1831.648438 1370.738281 1833.878906 1365.378906 L 1834 1365.078125 L 1834.058594 1364.75 C 1835.578125 1356.109375 1833.480469 1348.289062 1831.449219 1340.730469 C 1828.121094 1328.351562 1825.480469 1318.550781 1838.53125 1307.648438 C 1852.371094 1301.589844 1860.851562 1289.761719 1869.058594 1278.308594 C 1872.988281 1272.839844 1877.050781 1267.171875 1881.589844 1262.371094 L 1882.410156 1261.5 L 1882.410156 1260.308594 C 1882.410156 1258.78125 1882.050781 1257.359375 1881.738281 1256.101562 L 1881.390625 1254.71875 L 1880.101562 1254.121094 C 1867.859375 1248.378906 1863.488281 1240.53125 1859.261719 1232.941406 C 1855.421875 1226.03125 1851.441406 1218.890625 1841.96875 1214.261719 L 1841.351562 1213.960938 L 1840.671875 1213.949219 C 1835.519531 1213.910156 1832.171875 1213.089844 1830.191406 1211.339844 L 1829.648438 1209.851562 C 1827.300781 1203.371094 1822.039062 1201.46875 1817.808594 1199.949219 C 1815.589844 1199.148438 1813.480469 1198.390625 1811.878906 1197.101562 C 1808.949219 1191.300781 1807.140625 1185.230469 1805.230469 1178.820312 C 1804.148438 1175.199219 1803.039062 1171.460938 1801.699219 1167.769531 L 1801.589844 1167.460938 L 1801.070312 1166.628906 C 1798.800781 1163.039062 1796.828125 1159.921875 1797.308594 1156.511719 C 1798.710938 1154.28125 1800.449219 1152.230469 1802.300781 1150.070312 C 1805.511719 1146.289062 1808.839844 1142.390625 1810.511719 1137.21875 L 1810.578125 1136.960938 C 1810.960938 1135.25 1811.179688 1133.488281 1811.398438 1131.789062 C 1811.890625 1127.789062 1812.371094 1124.011719 1814.878906 1121.75 C 1817.21875 1120.941406 1819.890625 1122.050781 1823.789062 1123.890625 C 1825.621094 1124.761719 1827.519531 1125.660156 1829.449219 1126.199219 L 1830.53125 1126.390625 C 1833.421875 1126.851562 1836.148438 1127.269531 1838.070312 1128.851562 L 1838.78125 1129.441406 L 1839.699219 1129.519531 C 1846.53125 1130.171875 1852.710938 1133.269531 1859.25 1136.558594 C 1861 1137.429688 1862.800781 1138.339844 1864.601562 1139.179688 L 1865.070312 1139.410156 L 1865.601562 1139.460938 C 1872.609375 1140.109375 1878.25 1142 1883.339844 1145.390625 L 1883.601562 1145.558594 L 1883.878906 1145.671875 C 1897.191406 1151.039062 1911.480469 1150.789062 1925.300781 1150.539062 C 1931.171875 1150.441406 1937.230469 1150.328125 1943.101562 1150.671875 C 1953.078125 1151.140625 1961.53125 1153 1969.699219 1156.550781 L 1970.128906 1156.738281 L 1970.601562 1156.78125 C 1972 1156.921875 1973.378906 1156.988281 1974.730469 1156.988281 C 1981.25 1156.988281 1987.25 1155.390625 1992.949219 1152.148438 L 1993.511719 1151.828125 L 1993.890625 1151.320312 C 1996.039062 1148.378906 1998.160156 1145.449219 2000.269531 1142.519531 C 2008.410156 1131.25 2016.089844 1120.601562 2025.300781 1110.628906 L 2025.871094 1110.03125 L 2026.039062 1109.21875 C 2027.03125 1104.5 2024.671875 1100.570312 2022.601562 1097.101562 C 2021.949219 1096.019531 2021.339844 1095 2020.871094 1094.019531 C 2020.46875 1092.589844 2020.128906 1091.171875 2019.769531 1089.660156 C 2019.460938 1088.328125 2019.128906 1086.960938 2018.761719 1085.578125 C 2021.878906 1074.859375 2034.578125 1069.089844 2046.300781 1064.519531 L 2046.660156 1064.378906 L 2046.980469 1064.148438 C 2049.679688 1062.171875 2051.601562 1059.800781 2053.449219 1057.5 C 2055.109375 1055.449219 2056.679688 1053.5 2058.679688 1052.039062 C 2062.238281 1051.410156 2066.199219 1052.589844 2070.378906 1053.828125 C 2077.238281 1055.878906 2085.019531 1058.191406 2092.058594 1052.101562 L 2092.261719 1051.910156 C 2101.75 1042.011719 2101.089844 1030.921875 2100.460938 1020.191406 C 2100.058594 1013.410156 2099.648438 1006.398438 2101.921875 999.769531 L 2102.140625 999.128906 L 2102.058594 998.460938 C 2101.578125 994.25 2101.851562 989.789062 2102.128906 985.078125 "/>
</svg>
