<?xml version="1.0" encoding="UTF-8"?>
<svg xmlns="http://www.w3.org/2000/svg" xmlns:xlink="http://www.w3.org/1999/xlink" width="2400" height="2400" viewBox="0 0 2400 2400">
<defs>
<clipPath id="clip-0">
<path clip-rule="nonzero" d="M 61.726562 0 L 110.742188 0 L 110.742188 2400 L 61.726562 2400 Z M 61.726562 0 "/>
</clipPath>
<linearGradient id="linear-pattern-0" gradientUnits="userSpaceOnUse" x1="0.0740725" y1="0" x2="0.895127" y2="0" gradientTransform="matrix(39.9373, 2923.34, -2923.34, 39.9373, 67.6219, -216.66)">
<stop offset="0" stop-color="rgb(98.429871%, 98.429871%, 98.429871%)" stop-opacity="1"/>
<stop offset="0.5" stop-color="rgb(98.429871%, 98.429871%, 98.429871%)" stop-opacity="1"/>
<stop offset="0.5625" stop-color="rgb(98.429871%, 98.429871%, 98.429871%)" stop-opacity="1"/>
<stop offset="0.59375" stop-color="rgb(98.376465%, 98.376465%, 98.376465%)" stop-opacity="1"/>
<stop offset="0.625" stop-color="rgb(98.179626%, 98.179626%, 98.179626%)" stop-opacity="1"/>
<stop offset="0.75" stop-color="rgb(98.03772%, 98.03772%, 98.03772%)" stop-opacity="1"/>
<stop offset="1" stop-color="rgb(98.03772%, 98.03772%, 98.03772%)" stop-opacity="1"/>
</linearGradient>
<clipPath id="clip-1">
<path clip-rule="nonzero" d="M 167.796875 0 L 216.816406 0 L 216.816406 2400 L 167.796875 2400 Z M 167.796875 0 "/>
</clipPath>
<linearGradient id="linear-pattern-1" gradientUnits="userSpaceOnUse" x1="0.0740725" y1="0" x2="0.895127" y2="0" gradientTransform="matrix(39.9373, 2923.34, -2923.34, 39.9373, 173.695, -216.66)">
<stop offset="0" stop-color="rgb(98.429871%, 98.429871%, 98.429871%)" stop-opacity="1"/>
<stop offset="0.5" stop-color="rgb(98.429871%, 98.429871%, 98.429871%)" stop-opacity="1"/>
<stop offset="0.5625" stop-color="rgb(98.429871%, 98.429871%, 98.429871%)" stop-opacity="1"/>
<stop offset="0.59375" stop-color="rgb(98.376465%, 98.376465%, 98.376465%)" stop-opacity="1"/>
<stop offset="0.625" stop-color="rgb(98.179626%, 98.179626%, 98.179626%)" stop-opacity="1"/>
<stop offset="0.75" stop-color="rgb(98.03772%, 98.03772%, 98.03772%)" stop-opacity="1"/>
<stop offset="1" stop-color="rgb(98.03772%, 98.03772%, 98.03772%)" stop-opacity="1"/>
</linearGradient>
<clipPath id="clip-2">
<path clip-rule="nonzero" d="M 273.871094 0 L 322.890625 0 L 322.890625 2400 L 273.871094 2400 Z M 273.871094 0 "/>
</clipPath>
<linearGradient id="linear-pattern-2" gradientUnits="userSpaceOnUse" x1="0.0740725" y1="0" x2="0.895127" y2="0" gradientTransform="matrix(39.9373, 2923.34, -2923.34, 39.9373, 279.768, -216.66)">
<stop offset="0" stop-color="rgb(98.429871%, 98.429871%, 98.429871%)" stop-opacity="1"/>
<stop offset="0.5" stop-color="rgb(98.429871%, 98.429871%, 98.429871%)" stop-opacity="1"/>
<stop offset="0.5625" stop-color="rgb(98.429871%, 98.429871%, 98.429871%)" stop-opacity="1"/>
<stop offset="0.59375" stop-color="rgb(98.376465%, 98.376465%, 98.376465%)" stop-opacity="1"/>
<stop offset="0.625" stop-color="rgb(98.179626%, 98.179626%, 98.179626%)" stop-opacity="1"/>
<stop offset="0.75" stop-color="rgb(98.03772%, 98.03772%, 98.03772%)" stop-opacity="1"/>
<stop offset="1" stop-color="rgb(98.03772%, 98.03772%, 98.03772%)" stop-opacity="1"/>
</linearGradient>
<clipPath id="clip-3">
<path clip-rule="nonzero" d="M 379.945312 0 L 428.960938 0 L 428.960938 2400 L 379.945312 2400 Z M 379.945312 0 "/>
</clipPath>
<linearGradient id="linear-pattern-3" gradientUnits="userSpaceOnUse" x1="0.0740725" y1="0" x2="0.895127" y2="0" gradientTransform="matrix(39.9373, 2923.34, -2923.34, 39.9373, 385.841, -216.66)">
<stop offset="0" stop-color="rgb(98.429871%, 98.429871%, 98.429871%)" stop-opacity="1"/>
<stop offset="0.5" stop-color="rgb(98.429871%, 98.429871%, 98.429871%)" stop-opacity="1"/>
<stop offset="0.5625" stop-color="rgb(98.429871%, 98.429871%, 98.429871%)" stop-opacity="1"/>
<stop offset="0.59375" stop-color="rgb(98.376465%, 98.376465%, 98.376465%)" stop-opacity="1"/>
<stop offset="0.625" stop-color="rgb(98.179626%, 98.179626%, 98.179626%)" stop-opacity="1"/>
<stop offset="0.75" stop-color="rgb(98.03772%, 98.03772%, 98.03772%)" stop-opacity="1"/>
<stop offset="1" stop-color="rgb(98.03772%, 98.03772%, 98.03772%)" stop-opacity="1"/>
</linearGradient>
<clipPath id="clip-4">
<path clip-rule="nonzero" d="M 486.015625 0 L 535.035156 0 L 535.035156 2400 L 486.015625 2400 Z M 486.015625 0 "/>
</clipPath>
<linearGradient id="linear-pattern-4" gradientUnits="userSpaceOnUse" x1="0.0740725" y1="0" x2="0.895127" y2="0" gradientTransform="matrix(39.9373, 2923.34, -2923.34, 39.9373, 491.914, -216.66)">
<stop offset="0" stop-color="rgb(98.429871%, 98.429871%, 98.429871%)" stop-opacity="1"/>
<stop offset="0.5" stop-color="rgb(98.429871%, 98.429871%, 98.429871%)" stop-opacity="1"/>
<stop offset="0.5625" stop-color="rgb(98.429871%, 98.429871%, 98.429871%)" stop-opacity="1"/>
<stop offset="0.59375" stop-color="rgb(98.376465%, 98.376465%, 98.376465%)" stop-opacity="1"/>
<stop offset="0.625" stop-color="rgb(98.179626%, 98.179626%, 98.179626%)" stop-opacity="1"/>
<stop offset="0.75" stop-color="rgb(98.03772%, 98.03772%, 98.03772%)" stop-opacity="1"/>
<stop offset="1" stop-color="rgb(98.03772%, 98.03772%, 98.03772%)" stop-opacity="1"/>
</linearGradient>
<clipPath id="clip-5">
<path clip-rule="nonzero" d="M 592.089844 0 L 641.109375 0 L 641.109375 2400 L 592.089844 2400 Z M 592.089844 0 "/>
</clipPath>
<linearGradient id="linear-pattern-5" gradientUnits="userSpaceOnUse" x1="0.0740725" y1="0" x2="0.895127" y2="0" gradientTransform="matrix(39.9373, 2923.34, -2923.34, 39.9373, 597.987, -216.66)">
<stop offset="0" stop-color="rgb(98.429871%, 98.429871%, 98.429871%)" stop-opacity="1"/>
<stop offset="0.5" stop-color="rgb(98.429871%, 98.429871%, 98.429871%)" stop-opacity="1"/>
<stop offset="0.5625" stop-color="rgb(98.429871%, 98.429871%, 98.429871%)" stop-opacity="1"/>
<stop offset="0.59375" stop-color="rgb(98.376465%, 98.376465%, 98.376465%)" stop-opacity="1"/>
<stop offset="0.625" stop-color="rgb(98.179626%, 98.179626%, 98.179626%)" stop-opacity="1"/>
<stop offset="0.75" stop-color="rgb(98.03772%, 98.03772%, 98.03772%)" stop-opacity="1"/>
<stop offset="1" stop-color="rgb(98.03772%, 98.03772%, 98.03772%)" stop-opacity="1"/>
</linearGradient>
<clipPath id="clip-6">
<path clip-rule="nonzero" d="M 698.160156 0 L 747.179688 0 L 747.179688 2400 L 698.160156 2400 Z M 698.160156 0 "/>
</clipPath>
<linearGradient id="linear-pattern-6" gradientUnits="userSpaceOnUse" x1="0.0740725" y1="0" x2="0.895127" y2="0" gradientTransform="matrix(39.9373, 2923.34, -2923.34, 39.9373, 704.06, -216.66)">
<stop offset="0" stop-color="rgb(98.429871%, 98.429871%, 98.429871%)" stop-opacity="1"/>
<stop offset="0.5" stop-color="rgb(98.429871%, 98.429871%, 98.429871%)" stop-opacity="1"/>
<stop offset="0.5625" stop-color="rgb(98.429871%, 98.429871%, 98.429871%)" stop-opacity="1"/>
<stop offset="0.59375" stop-color="rgb(98.376465%, 98.376465%, 98.376465%)" stop-opacity="1"/>
<stop offset="0.625" stop-color="rgb(98.179626%, 98.179626%, 98.179626%)" stop-opacity="1"/>
<stop offset="0.75" stop-color="rgb(98.03772%, 98.03772%, 98.03772%)" stop-opacity="1"/>
<stop offset="1" stop-color="rgb(98.03772%, 98.03772%, 98.03772%)" stop-opacity="1"/>
</linearGradient>
<clipPath id="clip-7">
<path clip-rule="nonzero" d="M 804.234375 0 L 853.253906 0 L 853.253906 2400 L 804.234375 2400 Z M 804.234375 0 "/>
</clipPath>
<linearGradient id="linear-pattern-7" gradientUnits="userSpaceOnUse" x1="0.0740725" y1="0" x2="0.895127" y2="0" gradientTransform="matrix(39.9373, 2923.34, -2923.34, 39.9373, 810.133, -216.66)">
<stop offset="0" stop-color="rgb(98.429871%, 98.429871%, 98.429871%)" stop-opacity="1"/>
<stop offset="0.5" stop-color="rgb(98.429871%, 98.429871%, 98.429871%)" stop-opacity="1"/>
<stop offset="0.5625" stop-color="rgb(98.429871%, 98.429871%, 98.429871%)" stop-opacity="1"/>
<stop offset="0.59375" stop-color="rgb(98.376465%, 98.376465%, 98.376465%)" stop-opacity="1"/>
<stop offset="0.625" stop-color="rgb(98.179626%, 98.179626%, 98.179626%)" stop-opacity="1"/>
<stop offset="0.75" stop-color="rgb(98.03772%, 98.03772%, 98.03772%)" stop-opacity="1"/>
<stop offset="1" stop-color="rgb(98.03772%, 98.03772%, 98.03772%)" stop-opacity="1"/>
</linearGradient>
<clipPath id="clip-8">
<path clip-rule="nonzero" d="M 910.308594 0 L 959.328125 0 L 959.328125 2400 L 910.308594 2400 Z M 910.308594 0 "/>
</clipPath>
<linearGradient id="linear-pattern-8" gradientUnits="userSpaceOnUse" x1="0.0740725" y1="0" x2="0.895127" y2="0" gradientTransform="matrix(39.9373, 2923.34, -2923.34, 39.9373, 916.205, -216.66)">
<stop offset="0" stop-color="rgb(98.429871%, 98.429871%, 98.429871%)" stop-opacity="1"/>
<stop offset="0.5" stop-color="rgb(98.429871%, 98.429871%, 98.429871%)" stop-opacity="1"/>
<stop offset="0.5625" stop-color="rgb(98.429871%, 98.429871%, 98.429871%)" stop-opacity="1"/>
<stop offset="0.59375" stop-color="rgb(98.376465%, 98.376465%, 98.376465%)" stop-opacity="1"/>
<stop offset="0.625" stop-color="rgb(98.179626%, 98.179626%, 98.179626%)" stop-opacity="1"/>
<stop offset="0.75" stop-color="rgb(98.03772%, 98.03772%, 98.03772%)" stop-opacity="1"/>
<stop offset="1" stop-color="rgb(98.03772%, 98.03772%, 98.03772%)" stop-opacity="1"/>
</linearGradient>
<clipPath id="clip-9">
<path clip-rule="nonzero" d="M 1016.378906 0 L 1065.398438 0 L 1065.398438 2400 L 1016.378906 2400 Z M 1016.378906 0 "/>
</clipPath>
<linearGradient id="linear-pattern-9" gradientUnits="userSpaceOnUse" x1="0.0740725" y1="0" x2="0.895127" y2="0" gradientTransform="matrix(39.9373, 2923.34, -2923.34, 39.9373, 1022.28, -216.66)">
<stop offset="0" stop-color="rgb(98.429871%, 98.429871%, 98.429871%)" stop-opacity="1"/>
<stop offset="0.5" stop-color="rgb(98.429871%, 98.429871%, 98.429871%)" stop-opacity="1"/>
<stop offset="0.5625" stop-color="rgb(98.429871%, 98.429871%, 98.429871%)" stop-opacity="1"/>
<stop offset="0.59375" stop-color="rgb(98.376465%, 98.376465%, 98.376465%)" stop-opacity="1"/>
<stop offset="0.625" stop-color="rgb(98.179626%, 98.179626%, 98.179626%)" stop-opacity="1"/>
<stop offset="0.75" stop-color="rgb(98.03772%, 98.03772%, 98.03772%)" stop-opacity="1"/>
<stop offset="1" stop-color="rgb(98.03772%, 98.03772%, 98.03772%)" stop-opacity="1"/>
</linearGradient>
<clipPath id="clip-10">
<path clip-rule="nonzero" d="M 1122.449219 0 L 1171.46875 0 L 1171.46875 2400 L 1122.449219 2400 Z M 1122.449219 0 "/>
</clipPath>
<linearGradient id="linear-pattern-10" gradientUnits="userSpaceOnUse" x1="0.0740725" y1="0" x2="0.895127" y2="0" gradientTransform="matrix(39.9373, 2923.34, -2923.34, 39.9373, 1128.35, -216.66)">
<stop offset="0" stop-color="rgb(98.429871%, 98.429871%, 98.429871%)" stop-opacity="1"/>
<stop offset="0.5" stop-color="rgb(98.429871%, 98.429871%, 98.429871%)" stop-opacity="1"/>
<stop offset="0.5625" stop-color="rgb(98.429871%, 98.429871%, 98.429871%)" stop-opacity="1"/>
<stop offset="0.59375" stop-color="rgb(98.376465%, 98.376465%, 98.376465%)" stop-opacity="1"/>
<stop offset="0.625" stop-color="rgb(98.179626%, 98.179626%, 98.179626%)" stop-opacity="1"/>
<stop offset="0.75" stop-color="rgb(98.03772%, 98.03772%, 98.03772%)" stop-opacity="1"/>
<stop offset="1" stop-color="rgb(98.03772%, 98.03772%, 98.03772%)" stop-opacity="1"/>
</linearGradient>
<clipPath id="clip-11">
<path clip-rule="nonzero" d="M 1228.53125 0 L 1277.550781 0 L 1277.550781 2400 L 1228.53125 2400 Z M 1228.53125 0 "/>
</clipPath>
<linearGradient id="linear-pattern-11" gradientUnits="userSpaceOnUse" x1="0.0740725" y1="0" x2="0.895127" y2="0" gradientTransform="matrix(39.9373, 2923.34, -2923.34, 39.9373, 1234.42, -216.66)">
<stop offset="0" stop-color="rgb(98.429871%, 98.429871%, 98.429871%)" stop-opacity="1"/>
<stop offset="0.5" stop-color="rgb(98.429871%, 98.429871%, 98.429871%)" stop-opacity="1"/>
<stop offset="0.5625" stop-color="rgb(98.429871%, 98.429871%, 98.429871%)" stop-opacity="1"/>
<stop offset="0.59375" stop-color="rgb(98.376465%, 98.376465%, 98.376465%)" stop-opacity="1"/>
<stop offset="0.625" stop-color="rgb(98.179626%, 98.179626%, 98.179626%)" stop-opacity="1"/>
<stop offset="0.75" stop-color="rgb(98.03772%, 98.03772%, 98.03772%)" stop-opacity="1"/>
<stop offset="1" stop-color="rgb(98.03772%, 98.03772%, 98.03772%)" stop-opacity="1"/>
</linearGradient>
<clipPath id="clip-12">
<path clip-rule="nonzero" d="M 1334.601562 0 L 1383.621094 0 L 1383.621094 2400 L 1334.601562 2400 Z M 1334.601562 0 "/>
</clipPath>
<linearGradient id="linear-pattern-12" gradientUnits="userSpaceOnUse" x1="0.0740725" y1="0" x2="0.895127" y2="0" gradientTransform="matrix(39.9373, 2923.34, -2923.34, 39.9373, 1340.5, -216.66)">
<stop offset="0" stop-color="rgb(98.429871%, 98.429871%, 98.429871%)" stop-opacity="1"/>
<stop offset="0.5" stop-color="rgb(98.429871%, 98.429871%, 98.429871%)" stop-opacity="1"/>
<stop offset="0.5625" stop-color="rgb(98.429871%, 98.429871%, 98.429871%)" stop-opacity="1"/>
<stop offset="0.59375" stop-color="rgb(98.376465%, 98.376465%, 98.376465%)" stop-opacity="1"/>
<stop offset="0.625" stop-color="rgb(98.179626%, 98.179626%, 98.179626%)" stop-opacity="1"/>
<stop offset="0.75" stop-color="rgb(98.03772%, 98.03772%, 98.03772%)" stop-opacity="1"/>
<stop offset="1" stop-color="rgb(98.03772%, 98.03772%, 98.03772%)" stop-opacity="1"/>
</linearGradient>
<clipPath id="clip-13">
<path clip-rule="nonzero" d="M 1440.671875 0 L 1489.691406 0 L 1489.691406 2400 L 1440.671875 2400 Z M 1440.671875 0 "/>
</clipPath>
<linearGradient id="linear-pattern-13" gradientUnits="userSpaceOnUse" x1="0.0740725" y1="0" x2="0.895127" y2="0" gradientTransform="matrix(39.9373, 2923.34, -2923.34, 39.9373, 1446.57, -216.66)">
<stop offset="0" stop-color="rgb(98.429871%, 98.429871%, 98.429871%)" stop-opacity="1"/>
<stop offset="0.5" stop-color="rgb(98.429871%, 98.429871%, 98.429871%)" stop-opacity="1"/>
<stop offset="0.5625" stop-color="rgb(98.429871%, 98.429871%, 98.429871%)" stop-opacity="1"/>
<stop offset="0.59375" stop-color="rgb(98.376465%, 98.376465%, 98.376465%)" stop-opacity="1"/>
<stop offset="0.625" stop-color="rgb(98.179626%, 98.179626%, 98.179626%)" stop-opacity="1"/>
<stop offset="0.75" stop-color="rgb(98.03772%, 98.03772%, 98.03772%)" stop-opacity="1"/>
<stop offset="1" stop-color="rgb(98.03772%, 98.03772%, 98.03772%)" stop-opacity="1"/>
</linearGradient>
<clipPath id="clip-14">
<path clip-rule="nonzero" d="M 1546.75 0 L 1595.761719 0 L 1595.761719 2400 L 1546.75 2400 Z M 1546.75 0 "/>
</clipPath>
<linearGradient id="linear-pattern-14" gradientUnits="userSpaceOnUse" x1="0.0740725" y1="0" x2="0.895127" y2="0" gradientTransform="matrix(39.9373, 2923.34, -2923.34, 39.9373, 1552.64, -216.66)">
<stop offset="0" stop-color="rgb(98.429871%, 98.429871%, 98.429871%)" stop-opacity="1"/>
<stop offset="0.5" stop-color="rgb(98.429871%, 98.429871%, 98.429871%)" stop-opacity="1"/>
<stop offset="0.5625" stop-color="rgb(98.429871%, 98.429871%, 98.429871%)" stop-opacity="1"/>
<stop offset="0.59375" stop-color="rgb(98.376465%, 98.376465%, 98.376465%)" stop-opacity="1"/>
<stop offset="0.625" stop-color="rgb(98.179626%, 98.179626%, 98.179626%)" stop-opacity="1"/>
<stop offset="0.75" stop-color="rgb(98.03772%, 98.03772%, 98.03772%)" stop-opacity="1"/>
<stop offset="1" stop-color="rgb(98.03772%, 98.03772%, 98.03772%)" stop-opacity="1"/>
</linearGradient>
<clipPath id="clip-15">
<path clip-rule="nonzero" d="M 1652.820312 0 L 1701.839844 0 L 1701.839844 2400 L 1652.820312 2400 Z M 1652.820312 0 "/>
</clipPath>
<linearGradient id="linear-pattern-15" gradientUnits="userSpaceOnUse" x1="0.0740725" y1="0" x2="0.895127" y2="0" gradientTransform="matrix(39.9373, 2923.34, -2923.34, 39.9373, 1658.72, -216.66)">
<stop offset="0" stop-color="rgb(98.429871%, 98.429871%, 98.429871%)" stop-opacity="1"/>
<stop offset="0.5" stop-color="rgb(98.429871%, 98.429871%, 98.429871%)" stop-opacity="1"/>
<stop offset="0.5625" stop-color="rgb(98.429871%, 98.429871%, 98.429871%)" stop-opacity="1"/>
<stop offset="0.59375" stop-color="rgb(98.376465%, 98.376465%, 98.376465%)" stop-opacity="1"/>
<stop offset="0.625" stop-color="rgb(98.179626%, 98.179626%, 98.179626%)" stop-opacity="1"/>
<stop offset="0.75" stop-color="rgb(98.03772%, 98.03772%, 98.03772%)" stop-opacity="1"/>
<stop offset="1" stop-color="rgb(98.03772%, 98.03772%, 98.03772%)" stop-opacity="1"/>
</linearGradient>
<clipPath id="clip-16">
<path clip-rule="nonzero" d="M 1758.890625 0 L 1807.910156 0 L 1807.910156 2400 L 1758.890625 2400 Z M 1758.890625 0 "/>
</clipPath>
<linearGradient id="linear-pattern-16" gradientUnits="userSpaceOnUse" x1="0.0740725" y1="0" x2="0.895127" y2="0" gradientTransform="matrix(39.9373, 2923.34, -2923.34, 39.9373, 1764.79, -216.66)">
<stop offset="0" stop-color="rgb(98.429871%, 98.429871%, 98.429871%)" stop-opacity="1"/>
<stop offset="0.5" stop-color="rgb(98.429871%, 98.429871%, 98.429871%)" stop-opacity="1"/>
<stop offset="0.5625" stop-color="rgb(98.429871%, 98.429871%, 98.429871%)" stop-opacity="1"/>
<stop offset="0.59375" stop-color="rgb(98.376465%, 98.376465%, 98.376465%)" stop-opacity="1"/>
<stop offset="0.625" stop-color="rgb(98.179626%, 98.179626%, 98.179626%)" stop-opacity="1"/>
<stop offset="0.75" stop-color="rgb(98.03772%, 98.03772%, 98.03772%)" stop-opacity="1"/>
<stop offset="1" stop-color="rgb(98.03772%, 98.03772%, 98.03772%)" stop-opacity="1"/>
</linearGradient>
<clipPath id="clip-17">
<path clip-rule="nonzero" d="M 1864.960938 0 L 1913.980469 0 L 1913.980469 2400 L 1864.960938 2400 Z M 1864.960938 0 "/>
</clipPath>
<linearGradient id="linear-pattern-17" gradientUnits="userSpaceOnUse" x1="0.0740725" y1="0" x2="0.895127" y2="0" gradientTransform="matrix(39.9373, 2923.34, -2923.34, 39.9373, 1870.86, -216.66)">
<stop offset="0" stop-color="rgb(98.429871%, 98.429871%, 98.429871%)" stop-opacity="1"/>
<stop offset="0.5" stop-color="rgb(98.429871%, 98.429871%, 98.429871%)" stop-opacity="1"/>
<stop offset="0.5625" stop-color="rgb(98.429871%, 98.429871%, 98.429871%)" stop-opacity="1"/>
<stop offset="0.59375" stop-color="rgb(98.376465%, 98.376465%, 98.376465%)" stop-opacity="1"/>
<stop offset="0.625" stop-color="rgb(98.179626%, 98.179626%, 98.179626%)" stop-opacity="1"/>
<stop offset="0.75" stop-color="rgb(98.03772%, 98.03772%, 98.03772%)" stop-opacity="1"/>
<stop offset="1" stop-color="rgb(98.03772%, 98.03772%, 98.03772%)" stop-opacity="1"/>
</linearGradient>
<clipPath id="clip-18">
<path clip-rule="nonzero" d="M 1971.039062 0 L 2020.058594 0 L 2020.058594 2400 L 1971.039062 2400 Z M 1971.039062 0 "/>
</clipPath>
<linearGradient id="linear-pattern-18" gradientUnits="userSpaceOnUse" x1="0.0740725" y1="0" x2="0.895127" y2="0" gradientTransform="matrix(39.9373, 2923.34, -2923.34, 39.9373, 1976.93, -216.66)">
<stop offset="0" stop-color="rgb(98.429871%, 98.429871%, 98.429871%)" stop-opacity="1"/>
<stop offset="0.5" stop-color="rgb(98.429871%, 98.429871%, 98.429871%)" stop-opacity="1"/>
<stop offset="0.5625" stop-color="rgb(98.429871%, 98.429871%, 98.429871%)" stop-opacity="1"/>
<stop offset="0.59375" stop-color="rgb(98.376465%, 98.376465%, 98.376465%)" stop-opacity="1"/>
<stop offset="0.625" stop-color="rgb(98.179626%, 98.179626%, 98.179626%)" stop-opacity="1"/>
<stop offset="0.75" stop-color="rgb(98.03772%, 98.03772%, 98.03772%)" stop-opacity="1"/>
<stop offset="1" stop-color="rgb(98.03772%, 98.03772%, 98.03772%)" stop-opacity="1"/>
</linearGradient>
<clipPath id="clip-19">
<path clip-rule="nonzero" d="M 2077.109375 0 L 2126.128906 0 L 2126.128906 2400 L 2077.109375 2400 Z M 2077.109375 0 "/>
</clipPath>
<linearGradient id="linear-pattern-19" gradientUnits="userSpaceOnUse" x1="0.0740725" y1="0" x2="0.895127" y2="0" gradientTransform="matrix(39.9373, 2923.34, -2923.34, 39.9373, 2083.01, -216.66)">
<stop offset="0" stop-color="rgb(98.429871%, 98.429871%, 98.429871%)" stop-opacity="1"/>
<stop offset="0.5" stop-color="rgb(98.429871%, 98.429871%, 98.429871%)" stop-opacity="1"/>
<stop offset="0.5625" stop-color="rgb(98.429871%, 98.429871%, 98.429871%)" stop-opacity="1"/>
<stop offset="0.59375" stop-color="rgb(98.376465%, 98.376465%, 98.376465%)" stop-opacity="1"/>
<stop offset="0.625" stop-color="rgb(98.179626%, 98.179626%, 98.179626%)" stop-opacity="1"/>
<stop offset="0.75" stop-color="rgb(98.03772%, 98.03772%, 98.03772%)" stop-opacity="1"/>
<stop offset="1" stop-color="rgb(98.03772%, 98.03772%, 98.03772%)" stop-opacity="1"/>
</linearGradient>
<clipPath id="clip-20">
<path clip-rule="nonzero" d="M 2183.179688 0 L 2232.199219 0 L 2232.199219 2400 L 2183.179688 2400 Z M 2183.179688 0 "/>
</clipPath>
<linearGradient id="linear-pattern-20" gradientUnits="userSpaceOnUse" x1="0.0740725" y1="0" x2="0.895127" y2="0" gradientTransform="matrix(39.9373, 2923.34, -2923.34, 39.9373, 2189.08, -216.66)">
<stop offset="0" stop-color="rgb(98.429871%, 98.429871%, 98.429871%)" stop-opacity="1"/>
<stop offset="0.5" stop-color="rgb(98.429871%, 98.429871%, 98.429871%)" stop-opacity="1"/>
<stop offset="0.5625" stop-color="rgb(98.429871%, 98.429871%, 98.429871%)" stop-opacity="1"/>
<stop offset="0.59375" stop-color="rgb(98.376465%, 98.376465%, 98.376465%)" stop-opacity="1"/>
<stop offset="0.625" stop-color="rgb(98.179626%, 98.179626%, 98.179626%)" stop-opacity="1"/>
<stop offset="0.75" stop-color="rgb(98.03772%, 98.03772%, 98.03772%)" stop-opacity="1"/>
<stop offset="1" stop-color="rgb(98.03772%, 98.03772%, 98.03772%)" stop-opacity="1"/>
</linearGradient>
<clipPath id="clip-21">
<path clip-rule="nonzero" d="M 2289.261719 0 L 2338.269531 0 L 2338.269531 2400 L 2289.261719 2400 Z M 2289.261719 0 "/>
</clipPath>
<linearGradient id="linear-pattern-21" gradientUnits="userSpaceOnUse" x1="0.0740725" y1="0" x2="0.895127" y2="0" gradientTransform="matrix(39.9373, 2923.34, -2923.34, 39.9373, 2295.15, -216.66)">
<stop offset="0" stop-color="rgb(98.429871%, 98.429871%, 98.429871%)" stop-opacity="1"/>
<stop offset="0.5" stop-color="rgb(98.429871%, 98.429871%, 98.429871%)" stop-opacity="1"/>
<stop offset="0.5625" stop-color="rgb(98.429871%, 98.429871%, 98.429871%)" stop-opacity="1"/>
<stop offset="0.59375" stop-color="rgb(98.376465%, 98.376465%, 98.376465%)" stop-opacity="1"/>
<stop offset="0.625" stop-color="rgb(98.179626%, 98.179626%, 98.179626%)" stop-opacity="1"/>
<stop offset="0.75" stop-color="rgb(98.03772%, 98.03772%, 98.03772%)" stop-opacity="1"/>
<stop offset="1" stop-color="rgb(98.03772%, 98.03772%, 98.03772%)" stop-opacity="1"/>
</linearGradient>
</defs>
<rect x="-240" y="-240" width="2880" height="2880" fill="rgb(100%, 100%, 100%)" fill-opacity="1"/>
<rect x="-240" y="-240" width="2880" height="2880" fill="rgb(100%, 100%, 100%)" fill-opacity="1"/>
<g clip-path="url(#clip-0)">
<path fill-rule="nonzero" fill="url(#linear-pattern-0)" d="M 110.734375 -0.667969 L 28.945312 0.449219 L 61.734375 2400.667969 L 143.523438 2399.550781 Z M 110.734375 -0.667969 "/>
</g>
<g clip-path="url(#clip-1)">
<path fill-rule="nonzero" fill="url(#linear-pattern-1)" d="M 216.808594 -0.667969 L 135.015625 0.449219 L 167.808594 2400.667969 L 249.597656 2399.550781 Z M 216.808594 -0.667969 "/>
</g>
<g clip-path="url(#clip-2)">
<path fill-rule="nonzero" fill="url(#linear-pattern-2)" d="M 322.878906 -0.667969 L 241.089844 0.449219 L 273.878906 2400.667969 L 355.671875 2399.550781 Z M 322.878906 -0.667969 "/>
</g>
<g clip-path="url(#clip-3)">
<path fill-rule="nonzero" fill="url(#linear-pattern-3)" d="M 428.953125 -0.667969 L 347.164062 0.449219 L 379.953125 2400.667969 L 461.742188 2399.550781 Z M 428.953125 -0.667969 "/>
</g>
<g clip-path="url(#clip-4)">
<path fill-rule="nonzero" fill="url(#linear-pattern-4)" d="M 535.027344 -0.667969 L 453.234375 0.449219 L 486.027344 2400.667969 L 567.816406 2399.550781 Z M 535.027344 -0.667969 "/>
</g>
<g clip-path="url(#clip-5)">
<path fill-rule="nonzero" fill="url(#linear-pattern-5)" d="M 641.097656 -0.667969 L 559.308594 0.449219 L 592.097656 2400.667969 L 673.890625 2399.550781 Z M 641.097656 -0.667969 "/>
</g>
<g clip-path="url(#clip-6)">
<path fill-rule="nonzero" fill="url(#linear-pattern-6)" d="M 747.171875 -0.667969 L 665.378906 0.449219 L 698.171875 2400.667969 L 779.960938 2399.550781 Z M 747.171875 -0.667969 "/>
</g>
<g clip-path="url(#clip-7)">
<path fill-rule="nonzero" fill="url(#linear-pattern-7)" d="M 853.246094 -0.667969 L 771.453125 0.449219 L 804.246094 2400.667969 L 886.035156 2399.550781 Z M 853.246094 -0.667969 "/>
</g>
<g clip-path="url(#clip-8)">
<path fill-rule="nonzero" fill="url(#linear-pattern-8)" d="M 959.316406 -0.667969 L 877.527344 0.449219 L 910.316406 2400.667969 L 992.109375 2399.550781 Z M 959.316406 -0.667969 "/>
</g>
<g clip-path="url(#clip-9)">
<path fill-rule="nonzero" fill="url(#linear-pattern-9)" d="M 1065.390625 -0.667969 L 983.597656 0.449219 L 1016.390625 2400.667969 L 1098.179688 2399.550781 Z M 1065.390625 -0.667969 "/>
</g>
<g clip-path="url(#clip-10)">
<path fill-rule="nonzero" fill="url(#linear-pattern-10)" d="M 1171.460938 -0.667969 L 1089.667969 0.449219 L 1122.460938 2400.667969 L 1204.25 2399.550781 Z M 1171.460938 -0.667969 "/>
</g>
<g clip-path="url(#clip-11)">
<path fill-rule="nonzero" fill="url(#linear-pattern-11)" d="M 1277.539062 -0.667969 L 1195.75 0.449219 L 1228.539062 2400.667969 L 1310.332031 2399.550781 Z M 1277.539062 -0.667969 "/>
</g>
<g clip-path="url(#clip-12)">
<path fill-rule="nonzero" fill="url(#linear-pattern-12)" d="M 1383.609375 -0.667969 L 1301.820312 0.449219 L 1334.609375 2400.667969 L 1416.402344 2399.550781 Z M 1383.609375 -0.667969 "/>
</g>
<g clip-path="url(#clip-13)">
<path fill-rule="nonzero" fill="url(#linear-pattern-13)" d="M 1489.679688 -0.667969 L 1407.886719 0.449219 L 1440.679688 2400.667969 L 1522.472656 2399.550781 Z M 1489.679688 -0.667969 "/>
</g>
<g clip-path="url(#clip-14)">
<path fill-rule="nonzero" fill="url(#linear-pattern-14)" d="M 1595.75 -0.667969 L 1513.96875 0.449219 L 1546.757812 2400.667969 L 1628.542969 2399.550781 Z M 1595.75 -0.667969 "/>
</g>
<g clip-path="url(#clip-15)">
<path fill-rule="nonzero" fill="url(#linear-pattern-15)" d="M 1701.832031 -0.667969 L 1620.039062 0.449219 L 1652.828125 2400.667969 L 1734.621094 2399.550781 Z M 1701.832031 -0.667969 "/>
</g>
<g clip-path="url(#clip-16)">
<path fill-rule="nonzero" fill="url(#linear-pattern-16)" d="M 1807.902344 -0.667969 L 1726.109375 0.449219 L 1758.898438 2400.667969 L 1840.691406 2399.550781 Z M 1807.902344 -0.667969 "/>
</g>
<g clip-path="url(#clip-17)">
<path fill-rule="nonzero" fill="url(#linear-pattern-17)" d="M 1913.972656 -0.667969 L 1832.179688 0.449219 L 1864.96875 2400.667969 L 1946.761719 2399.550781 Z M 1913.972656 -0.667969 "/>
</g>
<g clip-path="url(#clip-18)">
<path fill-rule="nonzero" fill="url(#linear-pattern-18)" d="M 2020.050781 -0.667969 L 1938.257812 0.449219 L 1971.050781 2400.667969 L 2052.839844 2399.550781 Z M 2020.050781 -0.667969 "/>
</g>
<g clip-path="url(#clip-19)">
<path fill-rule="nonzero" fill="url(#linear-pattern-19)" d="M 2126.121094 -0.667969 L 2044.328125 0.449219 L 2077.121094 2400.667969 L 2158.910156 2399.550781 Z M 2126.121094 -0.667969 "/>
</g>
<g clip-path="url(#clip-20)">
<path fill-rule="nonzero" fill="url(#linear-pattern-20)" d="M 2232.191406 -0.667969 L 2150.398438 0.449219 L 2183.1875 2400.667969 L 2264.980469 2399.550781 Z M 2232.191406 -0.667969 "/>
</g>
<g clip-path="url(#clip-21)">
<path fill-rule="nonzero" fill="url(#linear-pattern-21)" d="M 2338.261719 -0.667969 L 2256.476562 0.449219 L 2289.269531 2400.667969 L 2371.050781 2399.550781 Z M 2338.261719 -0.667969 "/>
</g>
<path fill-rule="nonzero" fill="rgb(4.704285%, 9.008789%, 33.714294%)" fill-opacity="1" d="M 1707.410156 420.558594 C 1706.730469 419.078125 1706.058594 417.671875 1705.390625 416.269531 C 1704.730469 414.890625 1704.070312 413.511719 1703.410156 412.050781 L 1702.988281 411.121094 L 1702.101562 410.640625 C 1700.378906 409.71875 1698.609375 408.699219 1696.898438 407.699219 C 1695.449219 406.859375 1693.949219 405.988281 1692.449219 405.171875 C 1683.019531 383.050781 1660.699219 376.96875 1640.980469 371.589844 C 1635.941406 370.21875 1631.179688 368.921875 1626.609375 367.390625 L 1624.289062 366.609375 L 1623.058594 368.730469 C 1622.019531 370.539062 1620.980469 372.558594 1619.949219 374.601562 C 1618.480469 374.929688 1616.96875 375.261719 1615.460938 375.578125 C 1613.679688 375.96875 1611.898438 376.359375 1610.160156 376.75 C 1608.390625 375.289062 1606.570312 373.828125 1604.800781 372.398438 C 1602.960938 370.910156 1601.050781 369.371094 1599.230469 367.859375 C 1598.449219 364.328125 1597.730469 360.691406 1597.03125 357.160156 C 1596.25 353.261719 1595.449219 349.238281 1594.578125 345.339844 L 1594.351562 344.328125 L 1593.550781 343.671875 C 1592.960938 343.191406 1592.390625 342.78125 1591.839844 342.390625 C 1598.378906 331.390625 1600.75 318.699219 1603.039062 306.398438 C 1603.890625 301.898438 1604.761719 297.238281 1605.820312 292.78125 L 1606.441406 290.179688 L 1603.921875 289.261719 C 1601.28125 288.308594 1598.710938 287.359375 1596.140625 286.410156 C 1593.980469 285.621094 1591.828125 284.820312 1589.640625 284.019531 C 1591.460938 276.820312 1593.28125 269.628906 1595.101562 262.441406 L 1595.539062 260.691406 L 1594.210938 259.480469 C 1592.261719 257.710938 1590.210938 255.921875 1588.230469 254.179688 C 1586.269531 252.460938 1584.25 250.691406 1582.339844 248.960938 L 1580.191406 247 L 1578.171875 249.101562 C 1576.421875 250.910156 1574.738281 252.75 1573.121094 254.53125 C 1571.878906 255.890625 1570.601562 257.289062 1569.289062 258.671875 C 1565.398438 258.359375 1561.46875 258.398438 1557.660156 258.429688 C 1549.199219 258.519531 1541.179688 258.589844 1533.828125 255.089844 C 1532.371094 250.351562 1530.589844 245.011719 1528.511719 239.191406 L 1528.039062 237.878906 L 1526.738281 237.390625 C 1523.441406 236.160156 1520.199219 235.269531 1517.058594 234.410156 C 1516.320312 234.160156 1515.640625 233.671875 1513.839844 232.351562 L 1509.980469 229.488281 L 1509.109375 234.21875 C 1508.089844 239.78125 1507.308594 245.421875 1506.570312 250.921875 C 1496.25 251.71875 1485.339844 252.089844 1474.238281 249.441406 C 1473.738281 248.21875 1473.210938 246.980469 1472.679688 245.730469 C 1471.949219 244.019531 1471.230469 242.308594 1470.578125 240.691406 L 1470.070312 239.421875 L 1460.269531 236.011719 L 1458.941406 237.460938 C 1457.5 239.019531 1456.140625 240.609375 1454.820312 242.128906 C 1453.839844 243.261719 1452.839844 244.429688 1451.820312 245.570312 C 1448.789062 245.429688 1445.75 245.339844 1442.800781 245.25 C 1440.289062 245.179688 1437.699219 245.101562 1435.140625 244.988281 L 1430.589844 235.71875 L 1429.601562 235.28125 C 1426.339844 233.828125 1423.121094 232.25 1420.019531 230.71875 C 1417.78125 229.621094 1415.460938 228.488281 1413.179688 227.429688 L 1411.820312 226.789062 L 1410.488281 227.5 C 1406.109375 229.871094 1401.71875 232.238281 1397.328125 234.621094 L 1395.871094 235.421875 L 1395.769531 237.078125 C 1395.628906 239.378906 1395.410156 241.640625 1395.179688 243.820312 C 1394.980469 245.800781 1394.78125 247.851562 1394.648438 249.878906 L 1394.589844 250.789062 L 1395.050781 251.578125 C 1396.71875 254.449219 1398.101562 256.980469 1399.421875 259.601562 C 1398.269531 261.851562 1397.160156 264.109375 1396.078125 266.308594 C 1394.789062 268.929688 1393.460938 271.648438 1392.078125 274.300781 L 1391.871094 274.710938 C 1387.558594 276.21875 1383.328125 278.050781 1379.210938 279.851562 C 1369.511719 284.101562 1360.308594 288.121094 1350.261719 288.121094 C 1350.148438 288.121094 1350.039062 288.121094 1349.929688 288.121094 C 1349.730469 287.761719 1349.539062 287.390625 1349.339844 287.03125 C 1348.851562 286.089844 1348.351562 285.160156 1347.851562 284.308594 L 1345.941406 281.039062 L 1343.199219 283.640625 C 1339.949219 286.710938 1336.648438 289.921875 1333.460938 293.03125 C 1332.25 294.210938 1331.03125 295.390625 1329.800781 296.578125 C 1329.851562 295.929688 1329.921875 295.269531 1329.980469 294.601562 L 1330.121094 293.039062 L 1328.921875 292.03125 C 1327.488281 290.839844 1325.859375 289.660156 1324.210938 288.488281 L 1321.03125 276.789062 L 1318.949219 276.609375 C 1314.109375 276.179688 1309.140625 275.441406 1304.339844 274.71875 L 1301.871094 274.351562 L 1300.871094 276.210938 C 1299.191406 279.359375 1297.511719 282.75 1295.878906 286.089844 C 1291.398438 286.800781 1286.890625 287.601562 1282.511719 288.371094 C 1280.058594 288.808594 1277.550781 289.25 1275.050781 289.679688 C 1277.011719 284.371094 1278.960938 278.828125 1281.070312 272.609375 L 1282.378906 268.71875 L 1278.28125 268.648438 C 1274.808594 268.589844 1271.191406 268.628906 1267.691406 268.660156 C 1264.761719 268.679688 1261.730469 268.710938 1258.730469 268.691406 C 1256.671875 267.101562 1254.578125 265.441406 1252.550781 263.828125 C 1250.179688 261.949219 1247.710938 259.988281 1245.28125 258.148438 L 1243.53125 256.820312 L 1241.738281 258.089844 C 1240.238281 259.148438 1238.679688 260.128906 1237.019531 261.160156 C 1235.761719 261.949219 1234.46875 262.761719 1233.199219 263.609375 C 1232.179688 263.28125 1231.179688 262.960938 1230.191406 262.628906 C 1228.628906 262.109375 1227.070312 261.601562 1225.429688 261.089844 L 1224.050781 260.660156 L 1222.859375 261.46875 C 1220.210938 263.261719 1217.558594 265.328125 1214.980469 267.378906 C 1209.730469 267.398438 1204.441406 267.71875 1199.738281 268 L 1195.871094 268.238281 L 1197.070312 271.929688 C 1197.46875 273.179688 1197.75 274.691406 1197.980469 276.109375 C 1195.929688 278.160156 1193.859375 280.121094 1191.808594 282.019531 L 1188.800781 278.941406 C 1189.078125 275.230469 1189.421875 271.421875 1189.75 267.710938 C 1190.160156 263.050781 1190.589844 258.230469 1190.921875 253.449219 L 1191.089844 251.140625 L 1188.890625 250.398438 C 1186.730469 249.660156 1184.351562 249.320312 1182.050781 248.988281 L 1179.308594 248.679688 L 1178.691406 251.351562 C 1177.269531 257.410156 1175.820312 263.648438 1174.371094 270.800781 C 1169.769531 271.101562 1165.160156 271.410156 1160.550781 271.71875 L 1158.96875 271.828125 L 1158.171875 273.199219 C 1156.289062 276.421875 1154.28125 279.628906 1152.328125 282.738281 C 1150.570312 285.558594 1148.761719 288.460938 1147.011719 291.398438 C 1144.929688 292.109375 1142.941406 292.890625 1141 293.640625 C 1140.898438 293.671875 1140.808594 293.710938 1140.710938 293.75 L 1140.910156 291.960938 L 1135.910156 294.609375 C 1127.640625 299 1119.058594 297.308594 1109.96875 295.511719 C 1108.46875 295.210938 1106.929688 294.921875 1105.378906 294.640625 C 1105.25 291.828125 1105.109375 289.019531 1104.960938 286.28125 C 1104.75 282.308594 1104.53125 278.210938 1104.390625 274.191406 L 1104.28125 270.910156 L 1101.03125 271.308594 C 1098.710938 271.601562 1096.390625 271.890625 1094.078125 272.171875 C 1093.5 270.238281 1092.898438 268.308594 1092.308594 266.421875 C 1091.601562 264.179688 1090.878906 261.878906 1090.21875 259.601562 C 1092.46875 256.011719 1094.550781 252.121094 1096.570312 248.328125 C 1103.769531 234.851562 1110.570312 222.121094 1125.039062 220.320312 L 1126.761719 220.101562 L 1127.441406 218.5 C 1127.878906 217.441406 1128.398438 216.371094 1128.949219 215.238281 C 1129.519531 214.078125 1130.101562 212.878906 1130.609375 211.660156 L 1130.96875 210.808594 L 1130.78125 209.910156 C 1130.160156 206.828125 1129.449219 203.71875 1128.769531 200.710938 C 1128.089844 197.710938 1127.378906 194.609375 1126.769531 191.570312 L 1126.5 190.230469 L 1125.320312 189.558594 C 1124.289062 188.96875 1123.269531 188.308594 1122.179688 187.609375 C 1121.058594 186.890625 1119.898438 186.148438 1118.730469 185.480469 L 1117.5 184.78125 L 1116.179688 185.28125 C 1112.828125 186.550781 1109.339844 187.929688 1105.96875 189.269531 C 1104.199219 189.96875 1102.441406 190.671875 1100.691406 191.351562 C 1100.320312 186.878906 1099.949219 182.359375 1099.578125 177.839844 C 1099.179688 172.921875 1098.78125 168 1098.378906 163.140625 L 1098.339844 162.710938 L 1098.191406 162.308594 C 1097.371094 160.191406 1096.589844 158.191406 1094.46875 157.761719 C 1093.339844 157.539062 1092.171875 157.921875 1091.351562 158.78125 L 1084.660156 166.640625 C 1083.710938 166.539062 1082.78125 166.410156 1081.808594 166.28125 C 1080.289062 166.078125 1078.71875 165.871094 1077.050781 165.738281 L 1074.710938 165.570312 L 1073.980469 167.800781 C 1073.621094 168.910156 1073.359375 170.050781 1073.101562 171.148438 C 1072.980469 171.691406 1072.859375 172.21875 1072.730469 172.71875 C 1070.921875 173.5 1069.070312 174.320312 1067.210938 175.140625 C 1063.679688 176.699219 1060.039062 178.308594 1056.441406 179.789062 L 1055.378906 180.21875 L 1054.878906 181.25 C 1053.921875 183.21875 1052.738281 185.441406 1051.601562 187.570312 C 1049.230469 186.929688 1046.859375 186.28125 1044.488281 185.640625 L 1042.761719 185.171875 L 1036.5 191.75 C 1034.550781 192.070312 1032.570312 192.359375 1030.640625 192.628906 C 1028.699219 192.898438 1026.710938 193.191406 1024.71875 193.511719 C 1024.398438 193.21875 1024.089844 192.898438 1023.761719 192.578125 C 1023.011719 191.828125 1022.230469 191.058594 1021.320312 190.339844 L 1020.328125 189.578125 L 1019.101562 189.730469 C 1011.410156 190.679688 1004.078125 191.328125 996.3125 192.011719 L 994.527344 192.171875 L 993.726562 193.320312 C 992.472656 195.121094 991.101562 196.96875 989.777344 198.75 C 988.6875 200.230469 987.5625 201.75 986.484375 203.261719 C 982.648438 203.859375 978.699219 204.410156 974.863281 204.949219 C 970.214844 205.601562 965.40625 206.28125 960.640625 207.039062 L 959.527344 207.21875 L 958.808594 208.089844 C 957.71875 209.390625 956.601562 210.660156 955.515625 211.890625 C 954.402344 213.148438 953.25 214.460938 952.101562 215.839844 L 951.589844 216.449219 L 951.453125 217.238281 C 951.101562 219.238281 950.832031 221.238281 950.570312 223.179688 C 950.371094 224.640625 950.167969 226.148438 949.933594 227.628906 C 946.257812 230.101562 942.472656 232.550781 938.804688 234.929688 C 934.550781 237.691406 930.152344 240.539062 925.890625 243.429688 L 924.996094 244.039062 L 921.113281 257.398438 C 907.976562 263.140625 896.855469 271.96875 885.238281 285.851562 L 884.554688 286.660156 L 884.539062 287.730469 C 884.484375 291.03125 884.351562 294.421875 884.226562 297.691406 C 884.09375 301.03125 883.957031 304.480469 883.90625 307.878906 L 883.886719 309.191406 L 887.152344 312.328125 C 886.984375 312.539062 886.816406 312.761719 886.652344 312.96875 C 885.949219 313.859375 885.285156 314.710938 884.578125 315.460938 L 883.980469 316.089844 L 883.8125 316.941406 C 880.277344 334.929688 884.179688 345.78125 889.125 359.519531 C 890.175781 362.441406 891.261719 365.460938 892.34375 368.730469 L 894.636719 375.671875 L 897.597656 369.699219 C 899.519531 373.539062 900.207031 378.269531 900.917969 383.191406 C 901.390625 386.429688 901.875 389.789062 902.75 392.941406 L 903.328125 395.03125 C 906.332031 412.660156 909.351562 430.308594 912.386719 447.980469 C 911.359375 455.210938 910.015625 462.878906 908.703125 470.328125 L 908.546875 471.230469 L 908.910156 472.058594 C 913.820312 483.21875 918.515625 494.300781 923.054688 505.019531 C 924.285156 511.640625 924.839844 518.710938 925.371094 525.539062 C 926.625 541.578125 927.921875 558.160156 937.894531 571.699219 L 937.917969 571.730469 C 946.464844 583.011719 947.917969 598.351562 949.324219 613.191406 C 949.84375 618.679688 950.382812 624.320312 951.273438 629.769531 L 951.148438 629.820312 L 950.898438 631.609375 C 943.671875 683.808594 928.0625 735.300781 912.695312 783.558594 L 911.699219 786.691406 L 914.902344 787.398438 C 915.347656 787.5 915.882812 787.660156 916.449219 787.828125 C 915.304688 796.691406 913 805.320312 910.570312 814.410156 C 908.898438 820.679688 907.164062 827.171875 905.867188 833.691406 L 905.550781 835.289062 L 905.949219 835.679688 L 904.390625 842.078125 C 893.867188 885.429688 883.929688 926.371094 867.625 967.308594 L 867.011719 968.839844 L 867.984375 970.179688 C 870.371094 973.46875 872.875 976.800781 875.292969 980.019531 C 877.484375 982.941406 879.742188 985.949219 881.914062 988.921875 C 880.390625 994.710938 878.78125 1000.578125 877.222656 1006.261719 C 875.53125 1012.429688 873.78125 1018.808594 872.140625 1025.078125 L 871.730469 1026.648438 L 872.527344 1027.539062 C 866.863281 1042.960938 860.765625 1058.519531 854.851562 1073.578125 C 838.675781 1114.789062 821.949219 1157.398438 812.679688 1201.269531 L 811.914062 1204.898438 L 815.617188 1204.890625 L 815.621094 1204.890625 C 815.808594 1204.890625 816 1204.898438 816.199219 1204.921875 L 816.179688 1205.140625 C 816.128906 1205.769531 816.074219 1206.371094 816.003906 1206.960938 C 811.144531 1212.589844 806.382812 1218.398438 801.773438 1224.011719 C 799.472656 1226.820312 797.183594 1229.609375 794.894531 1232.359375 L 793.710938 1233.789062 L 794.453125 1235.480469 C 794.886719 1236.480469 795.257812 1237.488281 795.644531 1238.550781 C 795.121094 1238.621094 794.597656 1238.691406 794.0625 1238.761719 C 792.285156 1238.988281 790.449219 1239.230469 788.609375 1239.550781 L 787.390625 1239.769531 L 786.675781 1240.78125 C 781.070312 1248.71875 775.382812 1257.058594 769.878906 1265.140625 L 768.121094 1267.71875 L 768.664062 1268.578125 L 767.636719 1267.679688 L 765.683594 1269.179688 C 758.597656 1274.609375 751.207031 1280 744.0625 1285.21875 C 740.777344 1287.621094 737.488281 1290.019531 734.195312 1292.441406 L 718.4375 1289.410156 L 717.316406 1290.5 C 716.605469 1291.179688 715.921875 1291.929688 715.261719 1292.648438 C 714.628906 1293.339844 714.03125 1293.988281 713.449219 1294.550781 L 709.722656 1298.160156 L 714.703125 1299.589844 C 716.929688 1300.238281 719.21875 1300.980469 721.433594 1301.691406 C 723.183594 1302.261719 724.980469 1302.839844 726.777344 1303.378906 C 727.894531 1306.679688 728.972656 1309.949219 730.015625 1313.140625 C 730.878906 1315.761719 731.773438 1318.460938 732.6875 1321.179688 L 732.640625 1323.03125 C 732.5 1328.738281 732.28125 1334.46875 732.066406 1340.011719 C 731.851562 1345.578125 731.632812 1351.339844 731.488281 1357.089844 C 729.199219 1361.878906 726.988281 1366.328125 724.851562 1370.640625 C 710.699219 1399.121094 701.117188 1418.410156 710.828125 1455.230469 L 709.964844 1457.378906 C 705.84375 1467.648438 701.578125 1478.148438 697.453125 1488.308594 C 693.339844 1498.441406 689.085938 1508.921875 684.992188 1519.121094 L 684.386719 1520.628906 L 685.320312 1521.960938 C 686.785156 1524.050781 688.253906 1526.070312 689.71875 1528.078125 C 690.894531 1529.699219 692.105469 1531.359375 693.304688 1533.050781 C 692.667969 1535.269531 692.078125 1537.5 691.503906 1539.671875 C 690.824219 1542.238281 690.117188 1544.898438 689.355469 1547.5 L 688.609375 1550.011719 L 691.003906 1551.078125 C 694.097656 1552.46875 697.230469 1553.789062 700.261719 1555.078125 C 703.269531 1556.351562 706.386719 1557.671875 709.433594 1559.03125 L 710.726562 1559.609375 L 711.996094 1558.980469 C 714.992188 1557.488281 718.074219 1556.199219 721.085938 1554.96875 C 727.804688 1558.53125 734.566406 1562.378906 741.121094 1566.101562 L 742.730469 1567.019531 L 744.269531 1565.988281 C 746.585938 1564.441406 748.832031 1562.800781 751.003906 1561.210938 C 752.71875 1559.949219 754.484375 1558.660156 756.269531 1557.429688 C 770.015625 1561.011719 782.339844 1560.550781 798.410156 1555.910156 L 798.863281 1555.78125 L 799.257812 1555.511719 C 800.820312 1554.449219 802.386719 1553.359375 804 1552.21875 C 807.050781 1550.089844 810.203125 1547.878906 813.917969 1545.53125 L 815.097656 1544.78125 L 815.289062 1543.398438 C 816.785156 1532.570312 818.617188 1521.289062 820.398438 1510.359375 L 822.1875 1508.050781 C 829.410156 1498.769531 836.804688 1489.261719 842.105469 1478.25 C 842.121094 1480.351562 842.132812 1482.46875 842.144531 1484.621094 L 842.152344 1485.921875 L 842.710938 1486.699219 C 843.589844 1487.929688 844.535156 1489.050781 845.453125 1490.128906 C 845.882812 1490.640625 846.304688 1491.140625 846.707031 1491.628906 C 846.445312 1492.089844 846.199219 1492.550781 845.953125 1493 C 845.414062 1493.980469 844.90625 1494.921875 844.347656 1495.738281 L 843.183594 1497.449219 L 844.375 1499.140625 C 845.464844 1500.699219 846.472656 1502.320312 847.539062 1504.03125 C 847.773438 1504.410156 848.019531 1504.789062 848.257812 1505.171875 L 846.996094 1506.78125 L 849.042969 1508.660156 C 850.433594 1509.929688 851.773438 1511.160156 853.109375 1512.359375 L 853.199219 1512.480469 L 853.21875 1512.460938 C 855.011719 1514.070312 856.796875 1515.640625 858.664062 1517.210938 C 858.789062 1517.921875 858.9375 1518.640625 859.085938 1519.390625 C 859.21875 1520.039062 859.351562 1520.710938 859.476562 1521.378906 C 859.355469 1521.441406 859.234375 1521.5 859.117188 1521.570312 C 858.367188 1521.960938 857.617188 1522.359375 856.785156 1522.828125 L 853.835938 1524.519531 L 855.875 1527.238281 C 856.875 1528.570312 857.878906 1529.828125 858.851562 1531.050781 L 859.023438 1531.261719 C 850.980469 1532.640625 844.132812 1537.191406 837.46875 1541.648438 C 834.242188 1543.800781 831.195312 1545.839844 828.035156 1547.519531 L 826.589844 1548.28125 L 826.449219 1549.910156 C 826.308594 1551.578125 826.089844 1553.160156 825.859375 1554.828125 C 825.628906 1556.511719 825.390625 1558.238281 825.234375 1560.058594 L 824.902344 1563.988281 C 821.109375 1565.75 817.320312 1567.511719 813.527344 1569.269531 L 809.703125 1571.039062 C 806.847656 1569.589844 803.90625 1568.140625 801.007812 1566.71875 L 800.921875 1555.921875 L 797.265625 1556.78125 C 792.035156 1558.011719 786.742188 1559.300781 781.441406 1560.578125 C 774.800781 1562.191406 767.9375 1563.851562 761.289062 1565.378906 L 756.664062 1566.449219 L 759.613281 1570.171875 C 775.140625 1589.769531 777.519531 1599.378906 782.730469 1620.441406 C 783.246094 1622.511719 783.785156 1624.691406 784.363281 1626.988281 L 784.953125 1629.328125 L 784.832031 1629.648438 C 781.3125 1638.921875 777.980469 1648.46875 774.757812 1657.710938 C 773.941406 1660.039062 773.128906 1662.371094 772.316406 1664.679688 L 771.117188 1668.089844 L 774.691406 1668.640625 C 776.976562 1668.988281 779.128906 1669.570312 781.410156 1670.171875 L 782.757812 1670.53125 L 784.4375 1670.890625 L 785.648438 1669.738281 C 788.152344 1667.351562 790.351562 1665.261719 792.734375 1663.191406 C 795.964844 1663.550781 799.167969 1663.679688 802.273438 1663.808594 L 803.292969 1663.851562 L 804.125 1663.261719 C 805.308594 1662.429688 806.578125 1661.660156 807.921875 1660.851562 C 808.917969 1660.25 809.9375 1659.628906 810.941406 1658.96875 C 812.726562 1659.441406 814.53125 1659.960938 816.289062 1660.460938 C 818.539062 1661.101562 820.867188 1661.769531 823.179688 1662.351562 L 823.929688 1662.539062 L 824.679688 1662.339844 C 833.496094 1659.988281 838.683594 1655.859375 843.261719 1652.21875 C 848.800781 1647.808594 853.582031 1644.011719 864.15625 1643.140625 L 866.367188 1642.949219 L 866.839844 1640.78125 C 867.132812 1639.441406 867.351562 1638.191406 867.566406 1636.980469 C 867.71875 1636.101562 867.867188 1635.261719 868.03125 1634.441406 C 869.972656 1633.648438 871.796875 1632.769531 873.699219 1631.859375 C 874.058594 1631.691406 874.414062 1631.519531 874.777344 1631.339844 C 879.921875 1633.660156 885.132812 1635.96875 890.339844 1638.28125 C 894.746094 1640.238281 899.152344 1642.191406 903.511719 1644.148438 C 903.203125 1645.691406 902.996094 1647.210938 902.789062 1648.699219 L 902.253906 1652.621094 L 906.171875 1652.078125 C 907.257812 1651.929688 908.300781 1651.710938 909.308594 1651.480469 C 910.234375 1651.28125 911.109375 1651.078125 911.949219 1650.96875 L 912.800781 1650.851562 L 913.457031 1650.300781 C 915.589844 1648.539062 918.113281 1646.710938 920.554688 1644.941406 L 922.105469 1643.820312 L 921.871094 1642.050781 C 921.714844 1640.851562 921.628906 1639.71875 921.542969 1638.53125 C 921.453125 1637.300781 921.359375 1636.03125 921.179688 1634.660156 L 920.878906 1632.390625 L 918.613281 1632.078125 C 916.953125 1631.851562 915.3125 1631.648438 913.703125 1631.460938 L 913.351562 1630.191406 C 913.089844 1629.261719 912.855469 1628.308594 912.632812 1627.339844 C 913.222656 1627.808594 913.804688 1628.28125 914.386719 1628.730469 L 917.179688 1630.871094 L 918.855469 1627.78125 C 919.378906 1626.820312 919.882812 1625.828125 920.378906 1624.851562 L 920.746094 1629.890625 L 922.042969 1630.699219 C 923.285156 1631.46875 924.6875 1632.230469 926.125 1632.988281 C 926.179688 1642.011719 926.238281 1651.03125 926.300781 1660.050781 L 926.324219 1663.46875 L 929.710938 1663 C 930.574219 1662.878906 931.578125 1662.828125 932.644531 1662.78125 C 933.246094 1662.75 933.863281 1662.730469 934.492188 1662.679688 C 935.421875 1663.710938 936.347656 1664.710938 937.257812 1665.691406 C 929.050781 1665.230469 920.746094 1664.75 912.609375 1664.269531 C 910.269531 1662.058594 908.105469 1659.621094 905.640625 1656.828125 L 898.546875 1648.839844 L 899.414062 1654.898438 L 899.273438 1654.789062 C 895.1875 1651.710938 891.019531 1648.550781 886.855469 1645.390625 C 882.453125 1642.050781 878.050781 1638.710938 873.730469 1635.449219 L 869.679688 1639.839844 C 877.992188 1649.230469 886.296875 1658.621094 894.601562 1668.03125 C 897.015625 1674.421875 899.550781 1680.78125 902.003906 1686.941406 C 903.796875 1691.421875 905.644531 1696.058594 907.40625 1700.609375 C 915.460938 1751.480469 904.6875 1804.820312 877.824219 1847.019531 L 875.042969 1851.390625 L 880.214844 1851.628906 C 882.027344 1851.710938 883.617188 1851.601562 885.230469 1851.449219 C 885.632812 1852.089844 886.027344 1852.75 886.4375 1853.441406 C 887.183594 1854.699219 887.957031 1856 888.832031 1857.238281 L 889.402344 1858.058594 L 890.347656 1858.371094 C 894.277344 1859.671875 898.371094 1860.71875 902.335938 1861.730469 C 903.171875 1868.488281 904.007812 1875.179688 904.84375 1881.878906 C 905.546875 1887.519531 906.25 1893.160156 906.953125 1898.839844 L 906.414062 1901.480469 C 905.523438 1905.839844 904.535156 1910.371094 903.582031 1914.738281 C 902.601562 1919.238281 901.589844 1923.898438 900.671875 1928.398438 L 900.429688 1929.578125 L 901.074219 1930.601562 C 902.523438 1932.898438 903.925781 1935.238281 905.28125 1937.5 C 906.433594 1939.429688 907.617188 1941.410156 908.847656 1943.390625 C 907.230469 1950.5 905.667969 1957.710938 904.152344 1964.679688 C 902.644531 1971.621094 901.085938 1978.800781 899.484375 1985.839844 L 899.25 1986.871094 L 899.714844 1987.820312 C 911.003906 2010.929688 910.449219 2016.488281 908.613281 2034.929688 C 908.304688 2038.039062 907.953125 2041.53125 907.621094 2045.511719 C 905.660156 2049.769531 903.929688 2054.179688 902.257812 2058.460938 C 897.605469 2070.351562 893.210938 2081.589844 884.152344 2089.730469 L 882.746094 2090.988281 L 883.277344 2092.800781 C 884.273438 2096.199219 885.207031 2099.671875 886.113281 2103.019531 C 886.929688 2106.039062 887.769531 2109.148438 888.660156 2112.238281 C 887.128906 2115.769531 885.515625 2119.328125 883.953125 2122.789062 C 882.375 2126.28125 880.75 2129.878906 879.199219 2133.441406 C 877.097656 2134.398438 875.203125 2135.378906 873.359375 2136.320312 L 870.941406 2137.558594 L 871.773438 2140.011719 C 872.902344 2143.351562 874.332031 2147.140625 875.929688 2151.039062 C 867.011719 2168.441406 858.007812 2185.699219 849.289062 2202.410156 L 846.914062 2206.960938 L 851.925781 2206.910156 C 853.898438 2206.890625 855.773438 2206.859375 857.660156 2206.828125 C 858.402344 2206.808594 859.144531 2206.800781 859.894531 2206.789062 C 860.46875 2208.238281 861.039062 2209.671875 861.613281 2211.101562 C 862.433594 2213.148438 863.257812 2215.199219 864.078125 2217.328125 L 865.867188 2221.960938 L 869.136719 2218.230469 C 871.652344 2215.351562 874.222656 2212.488281 876.710938 2209.730469 C 879.011719 2207.171875 881.378906 2204.539062 883.730469 2201.859375 C 886.398438 2202.25 888.878906 2202.421875 891.480469 2202.609375 L 892.683594 2202.691406 L 893.609375 2201.921875 C 894.9375 2200.820312 896.160156 2199.640625 897.34375 2198.5 C 898.167969 2197.710938 898.960938 2196.949219 899.769531 2196.230469 C 912.8125 2197.589844 923.503906 2193.28125 933.328125 2188.550781 C 938.988281 2189.789062 944.648438 2191.03125 950.304688 2192.261719 L 953.675781 2193 L 954.605469 2180.730469 C 974.707031 2171.371094 997.316406 2182.320312 1017.320312 2192 L 1020.769531 2193.671875 L 1021.808594 2193.421875 C 1024.941406 2192.671875 1028.199219 2191.839844 1031.339844 2191.039062 C 1034.839844 2190.148438 1038.449219 2189.21875 1042.03125 2188.378906 C 1046.640625 2190.921875 1051.070312 2193.558594 1055.75 2196.339844 C 1057.648438 2197.46875 1059.558594 2198.609375 1061.5 2199.75 L 1062.429688 2200.300781 L 1063.511719 2200.128906 C 1067.050781 2199.550781 1070.71875 2198.859375 1074.269531 2198.199219 C 1077.359375 2197.628906 1080.558594 2197.03125 1083.628906 2196.511719 C 1088.511719 2195.699219 1093.128906 2194.871094 1097.449219 2194.089844 C 1114.789062 2199.128906 1129.230469 2209.210938 1144.5 2219.878906 C 1148.398438 2222.609375 1152.429688 2225.421875 1156.460938 2228.109375 L 1157.519531 2228.941406 C 1160.269531 2231.128906 1163.050781 2233.25 1165.75 2235.308594 C 1168.308594 2237.261719 1170.96875 2239.289062 1173.558594 2241.351562 L 1174.230469 2241.871094 L 1175.070312 2241.96875 C 1177.761719 2242.300781 1180.449219 2242.699219 1183.050781 2243.089844 C 1184.929688 2243.378906 1186.839844 2243.671875 1188.789062 2243.929688 L 1186.480469 2250.988281 L 1193.921875 2244.558594 L 1202.578125 2245.558594 L 1197.378906 2241.601562 C 1200.230469 2239.210938 1203.128906 2236.871094 1206.160156 2234.429688 C 1208.480469 2232.558594 1210.808594 2230.679688 1213.140625 2228.761719 L 1218.210938 2224.578125 L 1215.570312 2224.128906 L 1216.421875 2223.820312 L 1216.308594 2223.671875 L 1216.609375 2223.46875 C 1226.839844 2216.988281 1236.828125 2208.730469 1247.398438 2199.980469 C 1273.46875 2178.421875 1300.421875 2156.121094 1331.570312 2161.25 L 1335.378906 2161.878906 L 1335.050781 2158.03125 C 1334.898438 2156.320312 1334.789062 2154.601562 1334.679688 2152.890625 C 1334.128906 2144.160156 1333.570312 2135.160156 1327.808594 2127.648438 C 1328.230469 2126.621094 1328.648438 2125.609375 1329.058594 2124.601562 C 1329.710938 2123.039062 1330.359375 2121.46875 1331.011719 2119.828125 L 1331.558594 2118.410156 L 1330.761719 2117.128906 C 1324.300781 2106.871094 1324.859375 2095.078125 1325.460938 2082.589844 C 1325.609375 2079.601562 1325.75 2076.5 1325.800781 2073.421875 L 1325.820312 2072.28125 L 1325.058594 2071.410156 C 1323.601562 2069.738281 1322.140625 2068.199219 1320.699219 2066.71875 C 1321.539062 2066.078125 1322.398438 2065.421875 1323.199219 2064.75 L 1324.890625 2063.339844 L 1324.050781 2061.300781 C 1322.628906 2057.839844 1321.328125 2054.328125 1319.949219 2050.601562 C 1319.070312 2048.230469 1318.171875 2045.789062 1317.230469 2043.359375 C 1317.460938 2042.339844 1317.660156 2041.378906 1317.839844 2040.429688 C 1318.089844 2039.21875 1318.320312 2038.070312 1318.628906 2036.839844 L 1319.140625 2034.78125 L 1317.371094 2033.609375 C 1316.421875 2032.988281 1315.398438 2032.289062 1314.371094 2031.578125 C 1313.671875 2031.101562 1312.96875 2030.621094 1312.289062 2030.160156 C 1311.96875 2028.988281 1311.671875 2027.851562 1311.371094 2026.660156 C 1310.980469 2025.128906 1310.578125 2023.550781 1310.101562 2021.898438 L 1309.648438 2020.371094 L 1308.128906 2019.878906 C 1307.039062 2019.53125 1305.929688 2019.289062 1304.851562 2019.058594 C 1304.53125 2018.988281 1304.230469 2018.921875 1303.929688 2018.851562 C 1303.269531 2016.691406 1302.671875 2014.511719 1302.128906 2012.328125 C 1302.5 2012.289062 1302.859375 2012.269531 1303.210938 2012.261719 L 1305.988281 2012.210938 L 1306.148438 2009.429688 C 1306.308594 2006.449219 1306.480469 2003.390625 1306.648438 2000.339844 C 1306.769531 1998.109375 1306.890625 1995.878906 1307.019531 1993.679688 C 1307.660156 1993.730469 1308.320312 1993.761719 1309.011719 1993.75 L 1311.03125 1993.710938 L 1311.75 1991.828125 C 1312.871094 1988.921875 1313.988281 1985.941406 1315.109375 1982.960938 C 1315.898438 1980.851562 1316.691406 1978.75 1317.480469 1976.671875 C 1317.949219 1976.789062 1318.410156 1976.898438 1318.851562 1977 L 1322.511719 1977.851562 L 1322.53125 1974.089844 C 1322.53125 1973.011719 1322.449219 1971.890625 1322.378906 1970.800781 C 1322.359375 1970.609375 1322.351562 1970.410156 1322.328125 1970.21875 L 1326.648438 1969.03125 L 1325.980469 1966.21875 C 1323.660156 1956.410156 1326.960938 1947.480469 1330.460938 1938.039062 C 1331.160156 1936.140625 1331.878906 1934.199219 1332.558594 1932.21875 C 1341.070312 1930.039062 1347.128906 1923.691406 1353.011719 1917.539062 C 1355.988281 1914.421875 1358.789062 1911.480469 1361.878906 1909.078125 L 1362.308594 1908.75 L 1362.589844 1908.28125 C 1364.679688 1904.859375 1366.761719 1901.359375 1368.851562 1897.859375 C 1370.960938 1894.320312 1373.058594 1890.789062 1375.171875 1887.328125 L 1375.601562 1886.628906 L 1375.609375 1885.789062 C 1375.621094 1883.921875 1375.710938 1882.148438 1375.800781 1880.28125 C 1375.871094 1878.769531 1375.949219 1877.230469 1375.980469 1875.628906 C 1377.191406 1874.230469 1378.351562 1872.828125 1379.488281 1871.46875 C 1380.820312 1869.859375 1382.199219 1868.210938 1383.621094 1866.589844 L 1384.191406 1865.941406 L 1386.46875 1851.519531 L 1386.050781 1850.660156 C 1385.289062 1849.128906 1384.609375 1847.621094 1383.898438 1846.011719 C 1383.558594 1845.261719 1383.21875 1844.5 1382.871094 1843.730469 C 1385.078125 1842.550781 1387.339844 1841.390625 1389.539062 1840.25 C 1392.25 1838.859375 1395.039062 1837.421875 1397.761719 1835.929688 C 1399.109375 1836.488281 1400.429688 1837.101562 1401.710938 1837.699219 C 1402.890625 1838.238281 1404.101562 1838.808594 1405.320312 1839.320312 L 1406.261719 1839.710938 L 1407.25 1839.449219 C 1412.851562 1837.960938 1418.390625 1836.148438 1423.75 1834.410156 L 1426.261719 1833.589844 L 1425.761719 1830.988281 C 1425.441406 1829.320312 1425.039062 1827.660156 1424.648438 1826.050781 C 1424.441406 1825.191406 1424.230469 1824.351562 1424.039062 1823.519531 C 1425.730469 1822.539062 1427.328125 1821.5 1429.011719 1820.410156 C 1429.308594 1820.21875 1429.609375 1820.019531 1429.910156 1819.828125 C 1431.960938 1821.230469 1433.960938 1822.640625 1435.960938 1824.039062 C 1438.628906 1825.910156 1441.390625 1827.851562 1444.191406 1829.75 L 1445.300781 1830.5 L 1446.601562 1830.179688 C 1448.910156 1829.601562 1451.320312 1828.929688 1453.660156 1828.289062 C 1455.890625 1827.671875 1458.210938 1827.03125 1460.378906 1826.480469 L 1462.300781 1826 L 1462.621094 1824.039062 C 1463.398438 1819.089844 1464.128906 1814.160156 1464.828125 1809.378906 C 1465.570312 1804.359375 1466.328125 1799.191406 1467.148438 1794.089844 C 1467.640625 1793.769531 1468.140625 1793.441406 1468.640625 1793.109375 C 1469.5 1792.53125 1470.371094 1791.949219 1471.160156 1791.449219 L 1472.03125 1790.898438 L 1478.871094 1771.738281 L 1477.75 1770.421875 C 1476.859375 1769.378906 1475.921875 1768.460938 1475.011719 1767.578125 C 1474.78125 1767.351562 1474.550781 1767.121094 1474.320312 1766.898438 C 1475.648438 1765.191406 1477.011719 1763.449219 1478.371094 1761.710938 C 1480.191406 1759.371094 1482.019531 1757.03125 1483.761719 1754.769531 L 1484.53125 1753.78125 L 1484.359375 1752.53125 C 1484.230469 1751.53125 1484.160156 1750.421875 1484.089844 1749.25 C 1484.019531 1748.011719 1483.949219 1746.738281 1483.78125 1745.511719 L 1483.160156 1740.941406 L 1479.238281 1743.351562 C 1477.25 1744.570312 1475.339844 1745.878906 1473.488281 1747.140625 C 1472.429688 1747.859375 1471.351562 1748.601562 1470.25 1749.320312 C 1469.980469 1748.910156 1469.699219 1748.488281 1469.378906 1748.078125 L 1468.078125 1746.371094 L 1466.050781 1747.050781 C 1464.5 1747.558594 1462.960938 1747.988281 1461.339844 1748.449219 C 1459.738281 1748.898438 1458.078125 1749.371094 1456.410156 1749.921875 L 1455.421875 1750.25 L 1454.851562 1751.121094 C 1453.839844 1752.640625 1452.921875 1754.171875 1452.019531 1755.640625 C 1451.359375 1756.730469 1450.691406 1757.851562 1449.980469 1758.949219 L 1443.488281 1760.449219 C 1443.179688 1759.96875 1442.929688 1759.53125 1442.679688 1759.019531 L 1440.429688 1754.53125 L 1437.539062 1758.628906 C 1436.570312 1760.011719 1435.441406 1761.429688 1434.269531 1762.851562 L 1428.550781 1757.230469 C 1426.878906 1752.859375 1425.230469 1748.519531 1423.601562 1744.179688 C 1421.480469 1738.539062 1419.28125 1732.710938 1417.039062 1726.890625 L 1416.378906 1725.199219 L 1414.589844 1724.988281 C 1413.488281 1724.859375 1412.421875 1724.628906 1411.378906 1724.398438 C 1410.929688 1724.300781 1410.46875 1724.210938 1410.011719 1724.109375 C 1406.238281 1717.960938 1401.75 1712.078125 1397.410156 1706.390625 C 1388.851562 1695.171875 1380.761719 1684.570312 1377.289062 1671.71875 L 1376.988281 1670.621094 L 1376.03125 1669.988281 C 1374.128906 1668.75 1372.171875 1667.390625 1370.28125 1666.078125 C 1368.460938 1664.808594 1366.570312 1663.5 1364.691406 1662.261719 C 1366.808594 1659.820312 1368.921875 1657.328125 1370.980469 1654.890625 L 1371.921875 1653.789062 L 1371.640625 1652.378906 C 1371.511719 1651.730469 1371.441406 1650.949219 1371.371094 1650.121094 C 1371.289062 1649.171875 1371.199219 1648.191406 1371.019531 1647.230469 L 1370.449219 1644.320312 L 1367.53125 1644.859375 C 1366.800781 1644.988281 1366.039062 1645.171875 1365.25 1645.371094 C 1367.488281 1633.078125 1373.460938 1622.011719 1379.761719 1610.371094 C 1382.851562 1604.648438 1386.039062 1598.730469 1388.730469 1592.691406 L 1389.820312 1590.238281 L 1387.5 1588.890625 C 1384.929688 1587.378906 1382.519531 1585.839844 1380.199219 1584.328125 C 1381.390625 1574.398438 1382.589844 1564.230469 1383.789062 1554.039062 C 1386.320312 1552.441406 1388.871094 1550.78125 1391.351562 1549.171875 C 1394.191406 1547.320312 1397.128906 1545.410156 1400 1543.621094 L 1402.941406 1541.789062 L 1401.679688 1540.289062 C 1404.878906 1536.75 1408.128906 1533.160156 1411.378906 1529.558594 C 1414.109375 1526.539062 1416.828125 1523.53125 1419.5 1520.578125 C 1423.75 1519.300781 1428 1518.03125 1432.25 1516.75 L 1433.410156 1516.398438 L 1434 1515.351562 C 1435.460938 1512.761719 1436.921875 1510.25 1438.378906 1507.738281 C 1439.679688 1505.5 1440.988281 1503.261719 1442.289062 1500.960938 C 1443.488281 1500.390625 1444.738281 1499.789062 1445.988281 1499.179688 C 1447.5 1498.441406 1449.011719 1497.710938 1450.449219 1497.050781 L 1451.53125 1496.550781 L 1451.980469 1495.449219 C 1452.660156 1493.761719 1453.328125 1491.769531 1454 1489.789062 L 1454.398438 1488.609375 L 1453.828125 1487.488281 C 1452.871094 1485.570312 1451.898438 1483.730469 1450.941406 1481.890625 C 1450.25 1480.570312 1449.550781 1479.25 1448.859375 1477.890625 C 1453.96875 1470.25 1459.210938 1462.511719 1464.300781 1455.011719 C 1469.261719 1447.699219 1474.378906 1440.140625 1479.351562 1432.710938 L 1480.601562 1430.828125 L 1479.140625 1429.109375 C 1478.339844 1428.160156 1477.460938 1427.128906 1476.578125 1426.101562 C 1476.109375 1425.558594 1475.640625 1425.011719 1475.179688 1424.480469 C 1475.289062 1424.21875 1475.390625 1423.960938 1475.488281 1423.710938 C 1475.980469 1422.488281 1476.441406 1421.339844 1476.988281 1420.238281 L 1477.519531 1419.191406 L 1477.191406 1418.058594 C 1473.589844 1405.601562 1464.28125 1398.859375 1453.390625 1391.929688 L 1452.230469 1391.199219 L 1450.921875 1391.589844 C 1446.46875 1392.929688 1442.089844 1394.378906 1437.859375 1395.78125 C 1435 1396.71875 1432.058594 1397.699219 1429.171875 1398.609375 C 1427.53125 1398.089844 1425.851562 1397.570312 1424.171875 1397.050781 C 1422.941406 1396.671875 1421.710938 1396.289062 1420.5 1395.910156 C 1421.390625 1388.628906 1422.28125 1381.109375 1423.160156 1373.589844 L 1423.460938 1371.03125 L 1420.988281 1370.351562 C 1419.070312 1369.808594 1417.148438 1369.320312 1415.230469 1368.828125 C 1405.78125 1366.398438 1396.828125 1364.101562 1390.140625 1357.339844 C 1389.851562 1354.601562 1389.570312 1351.921875 1389.28125 1349.230469 C 1388.988281 1346.570312 1388.710938 1343.898438 1388.421875 1341.171875 C 1389.28125 1339.371094 1390.230469 1337.609375 1391.148438 1335.910156 C 1391.839844 1334.628906 1392.558594 1333.300781 1393.21875 1331.988281 L 1394.210938 1330 L 1392.601562 1328.46875 C 1384.730469 1320.980469 1377.050781 1313.648438 1369.671875 1306.328125 C 1368.929688 1303.53125 1368.191406 1300.800781 1367.449219 1298.058594 C 1366.71875 1295.359375 1365.988281 1292.660156 1365.25 1289.890625 L 1374.339844 1258.71875 L 1372.699219 1257.46875 C 1367.210938 1253.300781 1361.71875 1249.121094 1356.230469 1244.941406 L 1354.609375 1243.710938 L 1352.871094 1244.75 C 1352.089844 1245.210938 1351.398438 1245.601562 1350.699219 1245.988281 C 1350.460938 1246.121094 1350.210938 1246.261719 1349.960938 1246.398438 C 1349.441406 1246.070312 1348.898438 1245.738281 1348.378906 1245.421875 C 1347.730469 1245.019531 1347.089844 1244.628906 1346.460938 1244.230469 C 1346.078125 1242.109375 1345.75 1239.949219 1345.421875 1237.851562 C 1345.019531 1235.289062 1344.601562 1232.640625 1344.109375 1230.019531 L 1343.71875 1227.921875 L 1341.609375 1227.601562 C 1339.480469 1227.28125 1337.421875 1226.949219 1335.371094 1226.628906 C 1333.839844 1226.378906 1332.308594 1226.140625 1330.75 1225.898438 C 1325.339844 1216.691406 1319.789062 1208.761719 1309.539062 1204.398438 C 1307.75 1199.96875 1305.96875 1195.601562 1304.191406 1191.21875 C 1302.441406 1186.929688 1300.691406 1182.621094 1298.941406 1178.261719 C 1318.011719 1178.160156 1336.179688 1182.300781 1357.558594 1187.691406 L 1358.53125 1187.941406 L 1359.460938 1187.550781 C 1363.660156 1185.78125 1368.039062 1184.050781 1372.261719 1182.390625 C 1376.148438 1180.859375 1380.160156 1179.28125 1384.070312 1177.648438 C 1410.878906 1184.160156 1422.570312 1182.089844 1443.578125 1178.359375 C 1447.738281 1177.628906 1452.441406 1176.789062 1457.671875 1175.960938 L 1459.691406 1175.640625 L 1460.128906 1173.628906 C 1461.261719 1168.398438 1463.089844 1163.019531 1464.859375 1157.820312 C 1469.121094 1145.261719 1473.53125 1132.289062 1469.550781 1118.75 C 1480.089844 1113.21875 1486.71875 1104.5 1493.710938 1095.300781 L 1494.738281 1093.949219 L 1493.738281 1073.058594 L 1500.53125 1066.371094 L 1500.441406 1065 C 1500.28125 1062.488281 1500.191406 1059.921875 1500.109375 1057.421875 C 1500.03125 1055.148438 1499.949219 1052.800781 1499.808594 1050.460938 C 1500.808594 1048.53125 1501.878906 1046.621094 1502.921875 1044.769531 C 1504.121094 1042.628906 1505.359375 1040.421875 1506.511719 1038.128906 L 1507.160156 1036.851562 L 1497.199219 1014.929688 L 1495.820312 1014.570312 C 1494.609375 1014.261719 1493.390625 1013.871094 1492.101562 1013.449219 C 1491.25 1013.179688 1490.390625 1012.898438 1489.511719 1012.640625 C 1488.421875 1010.03125 1487.371094 1007.328125 1486.351562 1004.699219 C 1485.148438 1001.601562 1483.898438 998.390625 1482.578125 995.289062 L 1481.820312 993.488281 L 1479.859375 993.46875 C 1474.890625 993.410156 1470.179688 993.351562 1465.261719 993.289062 L 1458.058594 982.898438 C 1458.300781 981.019531 1458.5 979.179688 1458.699219 977.390625 C 1458.929688 975.289062 1459.160156 973.121094 1459.46875 970.929688 L 1459.679688 969.449219 L 1458.628906 968.398438 C 1457.921875 967.679688 1457.148438 966.988281 1456.398438 966.320312 C 1456.171875 966.121094 1455.941406 965.921875 1455.71875 965.71875 C 1456.359375 963.738281 1457.03125 961.71875 1457.691406 959.738281 C 1458.390625 957.628906 1459.121094 955.460938 1459.800781 953.328125 C 1461.210938 952.871094 1462.640625 952.398438 1464.089844 951.910156 C 1467.140625 950.890625 1470.289062 949.839844 1473.398438 948.921875 L 1474.640625 948.558594 L 1477.398438 943.089844 L 1478.199219 943.039062 C 1486.261719 942.53125 1494.640625 942.03125 1503.019531 941.539062 L 1505.359375 941.398438 L 1505.789062 939.089844 C 1506.261719 936.570312 1506.71875 934.140625 1507.191406 931.699219 C 1507.578125 929.648438 1507.96875 927.601562 1508.371094 925.511719 C 1511.511719 923.789062 1514.761719 922.050781 1517.898438 920.371094 C 1521.199219 918.609375 1524.488281 916.851562 1527.699219 915.089844 L 1528.828125 914.480469 L 1533.390625 897.28125 L 1530.410156 894.269531 C 1519.898438 883.710938 1514.488281 878.269531 1511.761719 863.539062 C 1514.289062 859.890625 1516.921875 856.191406 1519.480469 852.601562 C 1522.179688 848.800781 1524.980469 844.871094 1527.660156 841 L 1528.261719 840.128906 L 1528.179688 839.078125 C 1527.828125 833.941406 1527.140625 828.410156 1526.449219 823.199219 L 1526.25 821.660156 L 1524.871094 820.929688 C 1522.550781 819.71875 1520.140625 818.589844 1517.808594 817.488281 C 1516.351562 816.808594 1514.859375 816.109375 1513.398438 815.390625 C 1515.601562 809.941406 1517.878906 804.429688 1520.078125 799.089844 C 1522.671875 792.851562 1525.328125 786.390625 1527.871094 780.039062 L 1528.269531 779.039062 L 1527.949219 778.019531 C 1526.011719 771.859375 1524.078125 765.769531 1522.140625 759.691406 C 1520.21875 753.648438 1518.300781 747.621094 1516.378906 741.519531 C 1520.230469 729.878906 1520.648438 720.480469 1517.808594 708.101562 C 1519.390625 707.679688 1520.980469 707.339844 1522.53125 707.011719 L 1524.699219 706.550781 L 1524.898438 704.339844 C 1525.378906 698.921875 1523.949219 693.890625 1522.570312 689.019531 L 1522.128906 687.46875 L 1521.289062 686.859375 C 1519.160156 685.328125 1517.011719 683.859375 1514.929688 682.441406 C 1513.199219 681.25 1511.410156 680.03125 1509.648438 678.769531 C 1508.429688 672.761719 1507.460938 666.660156 1506.53125 660.75 L 1506.398438 659.96875 L 1505.921875 659.359375 C 1503.570312 656.378906 1500.921875 653.558594 1498.359375 650.839844 C 1491.929688 643.988281 1485.851562 637.5 1484.328125 628.910156 L 1485.808594 627.769531 C 1487.660156 628.441406 1489.539062 629.121094 1491.421875 629.789062 C 1493.980469 630.710938 1496.550781 631.640625 1499.03125 632.558594 L 1499.78125 632.839844 L 1500.578125 632.699219 C 1506.648438 631.648438 1512.71875 630.621094 1518.789062 629.589844 L 1520.121094 629.371094 L 1520.828125 628.230469 C 1523.589844 623.839844 1526.261719 619.539062 1528.941406 615.230469 C 1531.769531 610.679688 1534.601562 606.128906 1537.511719 601.5 L 1538.25 600.320312 L 1537.828125 599 C 1537.148438 596.851562 1536.390625 594.679688 1535.648438 592.589844 C 1535.148438 591.179688 1534.640625 589.738281 1534.171875 588.308594 C 1539.640625 583.910156 1545.121094 579.53125 1550.589844 575.160156 L 1551.398438 574.519531 L 1551.640625 573.519531 C 1553.960938 563.851562 1558.839844 555.78125 1567.871094 546.738281 C 1569.890625 547.078125 1571.878906 547.378906 1573.800781 547.679688 C 1576.261719 548.050781 1578.800781 548.441406 1581.359375 548.898438 L 1583.390625 549.269531 L 1584.460938 547.511719 C 1584.648438 547.199219 1584.828125 546.890625 1585 546.578125 C 1585.078125 546.671875 1585.160156 546.761719 1585.238281 546.851562 C 1586.261719 547.980469 1587.308594 549.148438 1588.25 550.269531 L 1590.289062 552.730469 L 1592.621094 550.53125 C 1597.121094 546.25 1601.371094 542.210938 1605.820312 538 C 1606.519531 538.378906 1607.230469 538.75 1607.949219 539.128906 C 1609.300781 539.839844 1610.648438 540.550781 1611.921875 541.261719 L 1613.609375 542.191406 L 1615.160156 541.039062 C 1616.648438 539.941406 1618.5 538.820312 1620.300781 537.738281 L 1622.539062 536.378906 L 1621.5 533.96875 C 1621.011719 532.871094 1620.609375 531.839844 1620.210938 530.820312 L 1620.101562 530.550781 C 1621.398438 530.140625 1622.691406 529.730469 1623.96875 529.320312 C 1626.578125 528.480469 1629.191406 527.640625 1631.878906 526.820312 L 1633.179688 526.421875 L 1633.738281 525.171875 C 1636.050781 519.988281 1638.070312 514.789062 1640.03125 509.730469 C 1641.578125 509.199219 1643.171875 508.679688 1644.761719 508.160156 C 1646.671875 507.53125 1648.578125 506.910156 1650.421875 506.28125 L 1655.390625 504.570312 L 1651.390625 501.160156 C 1650.589844 500.46875 1649.699219 499.699219 1648.820312 498.929688 C 1648.429688 498.589844 1648.039062 498.25 1647.660156 497.921875 C 1647.851562 497.019531 1648.011719 496.109375 1648.140625 495.238281 C 1649.191406 494.828125 1650.269531 494.378906 1651.328125 493.910156 C 1651.570312 494.25 1651.808594 494.601562 1652.039062 494.941406 C 1652.769531 496.011719 1653.488281 497.070312 1654.128906 498.050781 L 1655.238281 499.730469 L 1657.21875 499.339844 C 1660.710938 498.648438 1664.191406 497.96875 1667.679688 497.289062 L 1671.429688 496.558594 L 1669.828125 493.089844 C 1669 491.289062 1668.160156 489.558594 1667.328125 487.839844 C 1666.890625 486.921875 1666.449219 486.011719 1666.011719 485.078125 C 1667.640625 484.070312 1669.21875 483.011719 1670.761719 481.980469 C 1671.761719 481.308594 1672.78125 480.621094 1673.820312 479.949219 L 1675.601562 478.789062 L 1675.109375 476.730469 C 1674.78125 475.359375 1674.53125 474 1674.261719 472.558594 C 1674.058594 471.460938 1673.851562 470.328125 1673.601562 469.191406 C 1675.171875 466.128906 1676.921875 462.941406 1678.628906 460.050781 C 1680.71875 459.210938 1682.621094 458.558594 1684.46875 457.921875 L 1687 457.050781 L 1686.429688 454.441406 C 1686.328125 453.96875 1686.210938 453.519531 1686.078125 453.070312 C 1686.351562 453.039062 1686.628906 453.011719 1686.910156 452.980469 L 1691.191406 452.5 L 1689.25 448.648438 C 1688.800781 447.761719 1688.410156 446.859375 1688.058594 445.949219 C 1688.171875 445.910156 1688.289062 445.871094 1688.398438 445.820312 C 1689.398438 445.449219 1690.410156 445.070312 1691.488281 444.699219 L 1692.441406 444.378906 L 1693.011719 443.539062 C 1695.320312 440.128906 1697.761719 436.738281 1700.121094 433.460938 C 1702.449219 430.21875 1704.859375 426.871094 1707.160156 423.480469 L 1708.101562 422.089844 L 1707.410156 420.558594 "/>
</svg>
