<?xml version="1.0" encoding="UTF-8"?>
<svg xmlns="http://www.w3.org/2000/svg" xmlns:xlink="http://www.w3.org/1999/xlink" width="2400" height="2400" viewBox="0 0 2400 2400">
<defs>
<clipPath id="clip-0">

</clipPath>
<linearGradient id="linear-pattern-0" gradientUnits="userSpaceOnUse" x1="0.0740725" y1="0" x2="0.895127" y2="0" gradientTransform="matrix(39.9373, 2923.34, -2923.34, 39.9373, 67.6219, -216.66)">
<stop offset="0" stop-color="rgb(98.429871%, 98.429871%, 98.429871%)" stop-opacity="1"/>
<stop offset="0.5" stop-color="rgb(98.429871%, 98.429871%, 98.429871%)" stop-opacity="1"/>
<stop offset="0.5625" stop-color="rgb(98.429871%, 98.429871%, 98.429871%)" stop-opacity="1"/>
<stop offset="0.59375" stop-color="rgb(98.376465%, 98.376465%, 98.376465%)" stop-opacity="1"/>
<stop offset="0.625" stop-color="rgb(98.179626%, 98.179626%, 98.179626%)" stop-opacity="1"/>
<stop offset="0.75" stop-color="rgb(98.03772%, 98.03772%, 98.03772%)" stop-opacity="1"/>
<stop offset="1" stop-color="rgb(98.03772%, 98.03772%, 98.03772%)" stop-opacity="1"/>
</linearGradient>
<clipPath id="clip-1">
<path clip-rule="nonzero" d="M 167.796875 0 L 216.816406 0 L 216.816406 2400 L 167.796875 2400 Z M 167.796875 0 "/>
</clipPath>
<linearGradient id="linear-pattern-1" gradientUnits="userSpaceOnUse" x1="0.0740725" y1="0" x2="0.895127" y2="0" gradientTransform="matrix(39.9373, 2923.34, -2923.34, 39.9373, 173.695, -216.66)">
<stop offset="0" stop-color="rgb(98.429871%, 98.429871%, 98.429871%)" stop-opacity="1"/>
<stop offset="0.5" stop-color="rgb(98.429871%, 98.429871%, 98.429871%)" stop-opacity="1"/>
<stop offset="0.5625" stop-color="rgb(98.429871%, 98.429871%, 98.429871%)" stop-opacity="1"/>
<stop offset="0.59375" stop-color="rgb(98.376465%, 98.376465%, 98.376465%)" stop-opacity="1"/>
<stop offset="0.625" stop-color="rgb(98.179626%, 98.179626%, 98.179626%)" stop-opacity="1"/>
<stop offset="0.75" stop-color="rgb(98.03772%, 98.03772%, 98.03772%)" stop-opacity="1"/>
<stop offset="1" stop-color="rgb(98.03772%, 98.03772%, 98.03772%)" stop-opacity="1"/>
</linearGradient>
<clipPath id="clip-2">
<path clip-rule="nonzero" d="M 273.871094 0 L 322.890625 0 L 322.890625 2400 L 273.871094 2400 Z M 273.871094 0 "/>
</clipPath>
<linearGradient id="linear-pattern-2" gradientUnits="userSpaceOnUse" x1="0.0740725" y1="0" x2="0.895127" y2="0" gradientTransform="matrix(39.9373, 2923.34, -2923.34, 39.9373, 279.768, -216.66)">
<stop offset="0" stop-color="rgb(98.429871%, 98.429871%, 98.429871%)" stop-opacity="1"/>
<stop offset="0.5" stop-color="rgb(98.429871%, 98.429871%, 98.429871%)" stop-opacity="1"/>
<stop offset="0.5625" stop-color="rgb(98.429871%, 98.429871%, 98.429871%)" stop-opacity="1"/>
<stop offset="0.59375" stop-color="rgb(98.376465%, 98.376465%, 98.376465%)" stop-opacity="1"/>
<stop offset="0.625" stop-color="rgb(98.179626%, 98.179626%, 98.179626%)" stop-opacity="1"/>
<stop offset="0.75" stop-color="rgb(98.03772%, 98.03772%, 98.03772%)" stop-opacity="1"/>
<stop offset="1" stop-color="rgb(98.03772%, 98.03772%, 98.03772%)" stop-opacity="1"/>
</linearGradient>
<clipPath id="clip-3">
<path clip-rule="nonzero" d="M 379.945312 0 L 428.960938 0 L 428.960938 2400 L 379.945312 2400 Z M 379.945312 0 "/>
</clipPath>
<linearGradient id="linear-pattern-3" gradientUnits="userSpaceOnUse" x1="0.0740725" y1="0" x2="0.895127" y2="0" gradientTransform="matrix(39.9373, 2923.34, -2923.34, 39.9373, 385.841, -216.66)">
<stop offset="0" stop-color="rgb(98.429871%, 98.429871%, 98.429871%)" stop-opacity="1"/>
<stop offset="0.5" stop-color="rgb(98.429871%, 98.429871%, 98.429871%)" stop-opacity="1"/>
<stop offset="0.5625" stop-color="rgb(98.429871%, 98.429871%, 98.429871%)" stop-opacity="1"/>
<stop offset="0.59375" stop-color="rgb(98.376465%, 98.376465%, 98.376465%)" stop-opacity="1"/>
<stop offset="0.625" stop-color="rgb(98.179626%, 98.179626%, 98.179626%)" stop-opacity="1"/>
<stop offset="0.75" stop-color="rgb(98.03772%, 98.03772%, 98.03772%)" stop-opacity="1"/>
<stop offset="1" stop-color="rgb(98.03772%, 98.03772%, 98.03772%)" stop-opacity="1"/>
</linearGradient>
<clipPath id="clip-4">
<path clip-rule="nonzero" d="M 486.015625 0 L 535.035156 0 L 535.035156 2400 L 486.015625 2400 Z M 486.015625 0 "/>
</clipPath>
<linearGradient id="linear-pattern-4" gradientUnits="userSpaceOnUse" x1="0.0740725" y1="0" x2="0.895127" y2="0" gradientTransform="matrix(39.9373, 2923.34, -2923.34, 39.9373, 491.914, -216.66)">
<stop offset="0" stop-color="rgb(98.429871%, 98.429871%, 98.429871%)" stop-opacity="1"/>
<stop offset="0.5" stop-color="rgb(98.429871%, 98.429871%, 98.429871%)" stop-opacity="1"/>
<stop offset="0.5625" stop-color="rgb(98.429871%, 98.429871%, 98.429871%)" stop-opacity="1"/>
<stop offset="0.59375" stop-color="rgb(98.376465%, 98.376465%, 98.376465%)" stop-opacity="1"/>
<stop offset="0.625" stop-color="rgb(98.179626%, 98.179626%, 98.179626%)" stop-opacity="1"/>
<stop offset="0.75" stop-color="rgb(98.03772%, 98.03772%, 98.03772%)" stop-opacity="1"/>
<stop offset="1" stop-color="rgb(98.03772%, 98.03772%, 98.03772%)" stop-opacity="1"/>
</linearGradient>
<clipPath id="clip-5">
<path clip-rule="nonzero" d="M 592.089844 0 L 641.109375 0 L 641.109375 2400 L 592.089844 2400 Z M 592.089844 0 "/>
</clipPath>
<linearGradient id="linear-pattern-5" gradientUnits="userSpaceOnUse" x1="0.0740725" y1="0" x2="0.895127" y2="0" gradientTransform="matrix(39.9373, 2923.34, -2923.34, 39.9373, 597.987, -216.66)">
<stop offset="0" stop-color="rgb(98.429871%, 98.429871%, 98.429871%)" stop-opacity="1"/>
<stop offset="0.5" stop-color="rgb(98.429871%, 98.429871%, 98.429871%)" stop-opacity="1"/>
<stop offset="0.5625" stop-color="rgb(98.429871%, 98.429871%, 98.429871%)" stop-opacity="1"/>
<stop offset="0.59375" stop-color="rgb(98.376465%, 98.376465%, 98.376465%)" stop-opacity="1"/>
<stop offset="0.625" stop-color="rgb(98.179626%, 98.179626%, 98.179626%)" stop-opacity="1"/>
<stop offset="0.75" stop-color="rgb(98.03772%, 98.03772%, 98.03772%)" stop-opacity="1"/>
<stop offset="1" stop-color="rgb(98.03772%, 98.03772%, 98.03772%)" stop-opacity="1"/>
</linearGradient>
<clipPath id="clip-6">
<path clip-rule="nonzero" d="M 698.160156 0 L 747.179688 0 L 747.179688 2400 L 698.160156 2400 Z M 698.160156 0 "/>
</clipPath>
<linearGradient id="linear-pattern-6" gradientUnits="userSpaceOnUse" x1="0.0740725" y1="0" x2="0.895127" y2="0" gradientTransform="matrix(39.9373, 2923.34, -2923.34, 39.9373, 704.06, -216.66)">
<stop offset="0" stop-color="rgb(98.429871%, 98.429871%, 98.429871%)" stop-opacity="1"/>
<stop offset="0.5" stop-color="rgb(98.429871%, 98.429871%, 98.429871%)" stop-opacity="1"/>
<stop offset="0.5625" stop-color="rgb(98.429871%, 98.429871%, 98.429871%)" stop-opacity="1"/>
<stop offset="0.59375" stop-color="rgb(98.376465%, 98.376465%, 98.376465%)" stop-opacity="1"/>
<stop offset="0.625" stop-color="rgb(98.179626%, 98.179626%, 98.179626%)" stop-opacity="1"/>
<stop offset="0.75" stop-color="rgb(98.03772%, 98.03772%, 98.03772%)" stop-opacity="1"/>
<stop offset="1" stop-color="rgb(98.03772%, 98.03772%, 98.03772%)" stop-opacity="1"/>
</linearGradient>
<clipPath id="clip-7">
<path clip-rule="nonzero" d="M 804.234375 0 L 853.253906 0 L 853.253906 2400 L 804.234375 2400 Z M 804.234375 0 "/>
</clipPath>
<linearGradient id="linear-pattern-7" gradientUnits="userSpaceOnUse" x1="0.0740725" y1="0" x2="0.895127" y2="0" gradientTransform="matrix(39.9373, 2923.34, -2923.34, 39.9373, 810.133, -216.66)">
<stop offset="0" stop-color="rgb(98.429871%, 98.429871%, 98.429871%)" stop-opacity="1"/>
<stop offset="0.5" stop-color="rgb(98.429871%, 98.429871%, 98.429871%)" stop-opacity="1"/>
<stop offset="0.5625" stop-color="rgb(98.429871%, 98.429871%, 98.429871%)" stop-opacity="1"/>
<stop offset="0.59375" stop-color="rgb(98.376465%, 98.376465%, 98.376465%)" stop-opacity="1"/>
<stop offset="0.625" stop-color="rgb(98.179626%, 98.179626%, 98.179626%)" stop-opacity="1"/>
<stop offset="0.75" stop-color="rgb(98.03772%, 98.03772%, 98.03772%)" stop-opacity="1"/>
<stop offset="1" stop-color="rgb(98.03772%, 98.03772%, 98.03772%)" stop-opacity="1"/>
</linearGradient>
<clipPath id="clip-8">
<path clip-rule="nonzero" d="M 910.308594 0 L 959.328125 0 L 959.328125 2400 L 910.308594 2400 Z M 910.308594 0 "/>
</clipPath>
<linearGradient id="linear-pattern-8" gradientUnits="userSpaceOnUse" x1="0.0740725" y1="0" x2="0.895127" y2="0" gradientTransform="matrix(39.9373, 2923.34, -2923.34, 39.9373, 916.205, -216.66)">
<stop offset="0" stop-color="rgb(98.429871%, 98.429871%, 98.429871%)" stop-opacity="1"/>
<stop offset="0.5" stop-color="rgb(98.429871%, 98.429871%, 98.429871%)" stop-opacity="1"/>
<stop offset="0.5625" stop-color="rgb(98.429871%, 98.429871%, 98.429871%)" stop-opacity="1"/>
<stop offset="0.59375" stop-color="rgb(98.376465%, 98.376465%, 98.376465%)" stop-opacity="1"/>
<stop offset="0.625" stop-color="rgb(98.179626%, 98.179626%, 98.179626%)" stop-opacity="1"/>
<stop offset="0.75" stop-color="rgb(98.03772%, 98.03772%, 98.03772%)" stop-opacity="1"/>
<stop offset="1" stop-color="rgb(98.03772%, 98.03772%, 98.03772%)" stop-opacity="1"/>
</linearGradient>
<clipPath id="clip-9">
<path clip-rule="nonzero" d="M 1016.378906 0 L 1065.398438 0 L 1065.398438 2400 L 1016.378906 2400 Z M 1016.378906 0 "/>
</clipPath>
<linearGradient id="linear-pattern-9" gradientUnits="userSpaceOnUse" x1="0.0740725" y1="0" x2="0.895127" y2="0" gradientTransform="matrix(39.9373, 2923.34, -2923.34, 39.9373, 1022.28, -216.66)">
<stop offset="0" stop-color="rgb(98.429871%, 98.429871%, 98.429871%)" stop-opacity="1"/>
<stop offset="0.5" stop-color="rgb(98.429871%, 98.429871%, 98.429871%)" stop-opacity="1"/>
<stop offset="0.5625" stop-color="rgb(98.429871%, 98.429871%, 98.429871%)" stop-opacity="1"/>
<stop offset="0.59375" stop-color="rgb(98.376465%, 98.376465%, 98.376465%)" stop-opacity="1"/>
<stop offset="0.625" stop-color="rgb(98.179626%, 98.179626%, 98.179626%)" stop-opacity="1"/>
<stop offset="0.75" stop-color="rgb(98.03772%, 98.03772%, 98.03772%)" stop-opacity="1"/>
<stop offset="1" stop-color="rgb(98.03772%, 98.03772%, 98.03772%)" stop-opacity="1"/>
</linearGradient>
<clipPath id="clip-10">
<path clip-rule="nonzero" d="M 1122.449219 0 L 1171.46875 0 L 1171.46875 2400 L 1122.449219 2400 Z M 1122.449219 0 "/>
</clipPath>
<linearGradient id="linear-pattern-10" gradientUnits="userSpaceOnUse" x1="0.0740725" y1="0" x2="0.895127" y2="0" gradientTransform="matrix(39.9373, 2923.34, -2923.34, 39.9373, 1128.35, -216.66)">
<stop offset="0" stop-color="rgb(98.429871%, 98.429871%, 98.429871%)" stop-opacity="1"/>
<stop offset="0.5" stop-color="rgb(98.429871%, 98.429871%, 98.429871%)" stop-opacity="1"/>
<stop offset="0.5625" stop-color="rgb(98.429871%, 98.429871%, 98.429871%)" stop-opacity="1"/>
<stop offset="0.59375" stop-color="rgb(98.376465%, 98.376465%, 98.376465%)" stop-opacity="1"/>
<stop offset="0.625" stop-color="rgb(98.179626%, 98.179626%, 98.179626%)" stop-opacity="1"/>
<stop offset="0.75" stop-color="rgb(98.03772%, 98.03772%, 98.03772%)" stop-opacity="1"/>
<stop offset="1" stop-color="rgb(98.03772%, 98.03772%, 98.03772%)" stop-opacity="1"/>
</linearGradient>
<clipPath id="clip-11">
<path clip-rule="nonzero" d="M 1228.53125 0 L 1277.550781 0 L 1277.550781 2400 L 1228.53125 2400 Z M 1228.53125 0 "/>
</clipPath>
<linearGradient id="linear-pattern-11" gradientUnits="userSpaceOnUse" x1="0.0740725" y1="0" x2="0.895127" y2="0" gradientTransform="matrix(39.9373, 2923.34, -2923.34, 39.9373, 1234.42, -216.66)">
<stop offset="0" stop-color="rgb(98.429871%, 98.429871%, 98.429871%)" stop-opacity="1"/>
<stop offset="0.5" stop-color="rgb(98.429871%, 98.429871%, 98.429871%)" stop-opacity="1"/>
<stop offset="0.5625" stop-color="rgb(98.429871%, 98.429871%, 98.429871%)" stop-opacity="1"/>
<stop offset="0.59375" stop-color="rgb(98.376465%, 98.376465%, 98.376465%)" stop-opacity="1"/>
<stop offset="0.625" stop-color="rgb(98.179626%, 98.179626%, 98.179626%)" stop-opacity="1"/>
<stop offset="0.75" stop-color="rgb(98.03772%, 98.03772%, 98.03772%)" stop-opacity="1"/>
<stop offset="1" stop-color="rgb(98.03772%, 98.03772%, 98.03772%)" stop-opacity="1"/>
</linearGradient>
<clipPath id="clip-12">
<path clip-rule="nonzero" d="M 1334.601562 0 L 1383.621094 0 L 1383.621094 2400 L 1334.601562 2400 Z M 1334.601562 0 "/>
</clipPath>
<linearGradient id="linear-pattern-12" gradientUnits="userSpaceOnUse" x1="0.0740725" y1="0" x2="0.895127" y2="0" gradientTransform="matrix(39.9373, 2923.34, -2923.34, 39.9373, 1340.5, -216.66)">
<stop offset="0" stop-color="rgb(98.429871%, 98.429871%, 98.429871%)" stop-opacity="1"/>
<stop offset="0.5" stop-color="rgb(98.429871%, 98.429871%, 98.429871%)" stop-opacity="1"/>
<stop offset="0.5625" stop-color="rgb(98.429871%, 98.429871%, 98.429871%)" stop-opacity="1"/>
<stop offset="0.59375" stop-color="rgb(98.376465%, 98.376465%, 98.376465%)" stop-opacity="1"/>
<stop offset="0.625" stop-color="rgb(98.179626%, 98.179626%, 98.179626%)" stop-opacity="1"/>
<stop offset="0.75" stop-color="rgb(98.03772%, 98.03772%, 98.03772%)" stop-opacity="1"/>
<stop offset="1" stop-color="rgb(98.03772%, 98.03772%, 98.03772%)" stop-opacity="1"/>
</linearGradient>
<clipPath id="clip-13">
<path clip-rule="nonzero" d="M 1440.671875 0 L 1489.691406 0 L 1489.691406 2400 L 1440.671875 2400 Z M 1440.671875 0 "/>
</clipPath>
<linearGradient id="linear-pattern-13" gradientUnits="userSpaceOnUse" x1="0.0740725" y1="0" x2="0.895127" y2="0" gradientTransform="matrix(39.9373, 2923.34, -2923.34, 39.9373, 1446.57, -216.66)">
<stop offset="0" stop-color="rgb(98.429871%, 98.429871%, 98.429871%)" stop-opacity="1"/>
<stop offset="0.5" stop-color="rgb(98.429871%, 98.429871%, 98.429871%)" stop-opacity="1"/>
<stop offset="0.5625" stop-color="rgb(98.429871%, 98.429871%, 98.429871%)" stop-opacity="1"/>
<stop offset="0.59375" stop-color="rgb(98.376465%, 98.376465%, 98.376465%)" stop-opacity="1"/>
<stop offset="0.625" stop-color="rgb(98.179626%, 98.179626%, 98.179626%)" stop-opacity="1"/>
<stop offset="0.75" stop-color="rgb(98.03772%, 98.03772%, 98.03772%)" stop-opacity="1"/>
<stop offset="1" stop-color="rgb(98.03772%, 98.03772%, 98.03772%)" stop-opacity="1"/>
</linearGradient>
<clipPath id="clip-14">
<path clip-rule="nonzero" d="M 1546.75 0 L 1595.761719 0 L 1595.761719 2400 L 1546.75 2400 Z M 1546.75 0 "/>
</clipPath>
<linearGradient id="linear-pattern-14" gradientUnits="userSpaceOnUse" x1="0.0740725" y1="0" x2="0.895127" y2="0" gradientTransform="matrix(39.9373, 2923.34, -2923.34, 39.9373, 1552.64, -216.66)">
<stop offset="0" stop-color="rgb(98.429871%, 98.429871%, 98.429871%)" stop-opacity="1"/>
<stop offset="0.5" stop-color="rgb(98.429871%, 98.429871%, 98.429871%)" stop-opacity="1"/>
<stop offset="0.5625" stop-color="rgb(98.429871%, 98.429871%, 98.429871%)" stop-opacity="1"/>
<stop offset="0.59375" stop-color="rgb(98.376465%, 98.376465%, 98.376465%)" stop-opacity="1"/>
<stop offset="0.625" stop-color="rgb(98.179626%, 98.179626%, 98.179626%)" stop-opacity="1"/>
<stop offset="0.75" stop-color="rgb(98.03772%, 98.03772%, 98.03772%)" stop-opacity="1"/>
<stop offset="1" stop-color="rgb(98.03772%, 98.03772%, 98.03772%)" stop-opacity="1"/>
</linearGradient>
<clipPath id="clip-15">
<path clip-rule="nonzero" d="M 1652.820312 0 L 1701.839844 0 L 1701.839844 2400 L 1652.820312 2400 Z M 1652.820312 0 "/>
</clipPath>
<linearGradient id="linear-pattern-15" gradientUnits="userSpaceOnUse" x1="0.0740725" y1="0" x2="0.895127" y2="0" gradientTransform="matrix(39.9373, 2923.34, -2923.34, 39.9373, 1658.72, -216.66)">
<stop offset="0" stop-color="rgb(98.429871%, 98.429871%, 98.429871%)" stop-opacity="1"/>
<stop offset="0.5" stop-color="rgb(98.429871%, 98.429871%, 98.429871%)" stop-opacity="1"/>
<stop offset="0.5625" stop-color="rgb(98.429871%, 98.429871%, 98.429871%)" stop-opacity="1"/>
<stop offset="0.59375" stop-color="rgb(98.376465%, 98.376465%, 98.376465%)" stop-opacity="1"/>
<stop offset="0.625" stop-color="rgb(98.179626%, 98.179626%, 98.179626%)" stop-opacity="1"/>
<stop offset="0.75" stop-color="rgb(98.03772%, 98.03772%, 98.03772%)" stop-opacity="1"/>
<stop offset="1" stop-color="rgb(98.03772%, 98.03772%, 98.03772%)" stop-opacity="1"/>
</linearGradient>
<clipPath id="clip-16">
<path clip-rule="nonzero" d="M 1758.890625 0 L 1807.910156 0 L 1807.910156 2400 L 1758.890625 2400 Z M 1758.890625 0 "/>
</clipPath>
<linearGradient id="linear-pattern-16" gradientUnits="userSpaceOnUse" x1="0.0740725" y1="0" x2="0.895127" y2="0" gradientTransform="matrix(39.9373, 2923.34, -2923.34, 39.9373, 1764.79, -216.66)">
<stop offset="0" stop-color="rgb(98.429871%, 98.429871%, 98.429871%)" stop-opacity="1"/>
<stop offset="0.5" stop-color="rgb(98.429871%, 98.429871%, 98.429871%)" stop-opacity="1"/>
<stop offset="0.5625" stop-color="rgb(98.429871%, 98.429871%, 98.429871%)" stop-opacity="1"/>
<stop offset="0.59375" stop-color="rgb(98.376465%, 98.376465%, 98.376465%)" stop-opacity="1"/>
<stop offset="0.625" stop-color="rgb(98.179626%, 98.179626%, 98.179626%)" stop-opacity="1"/>
<stop offset="0.75" stop-color="rgb(98.03772%, 98.03772%, 98.03772%)" stop-opacity="1"/>
<stop offset="1" stop-color="rgb(98.03772%, 98.03772%, 98.03772%)" stop-opacity="1"/>
</linearGradient>
<clipPath id="clip-17">
<path clip-rule="nonzero" d="M 1864.960938 0 L 1913.980469 0 L 1913.980469 2400 L 1864.960938 2400 Z M 1864.960938 0 "/>
</clipPath>
<linearGradient id="linear-pattern-17" gradientUnits="userSpaceOnUse" x1="0.0740725" y1="0" x2="0.895127" y2="0" gradientTransform="matrix(39.9373, 2923.34, -2923.34, 39.9373, 1870.86, -216.66)">
<stop offset="0" stop-color="rgb(98.429871%, 98.429871%, 98.429871%)" stop-opacity="1"/>
<stop offset="0.5" stop-color="rgb(98.429871%, 98.429871%, 98.429871%)" stop-opacity="1"/>
<stop offset="0.5625" stop-color="rgb(98.429871%, 98.429871%, 98.429871%)" stop-opacity="1"/>
<stop offset="0.59375" stop-color="rgb(98.376465%, 98.376465%, 98.376465%)" stop-opacity="1"/>
<stop offset="0.625" stop-color="rgb(98.179626%, 98.179626%, 98.179626%)" stop-opacity="1"/>
<stop offset="0.75" stop-color="rgb(98.03772%, 98.03772%, 98.03772%)" stop-opacity="1"/>
<stop offset="1" stop-color="rgb(98.03772%, 98.03772%, 98.03772%)" stop-opacity="1"/>
</linearGradient>
<clipPath id="clip-18">
<path clip-rule="nonzero" d="M 1971.039062 0 L 2020.058594 0 L 2020.058594 2400 L 1971.039062 2400 Z M 1971.039062 0 "/>
</clipPath>
<linearGradient id="linear-pattern-18" gradientUnits="userSpaceOnUse" x1="0.0740725" y1="0" x2="0.895127" y2="0" gradientTransform="matrix(39.9373, 2923.34, -2923.34, 39.9373, 1976.93, -216.66)">
<stop offset="0" stop-color="rgb(98.429871%, 98.429871%, 98.429871%)" stop-opacity="1"/>
<stop offset="0.5" stop-color="rgb(98.429871%, 98.429871%, 98.429871%)" stop-opacity="1"/>
<stop offset="0.5625" stop-color="rgb(98.429871%, 98.429871%, 98.429871%)" stop-opacity="1"/>
<stop offset="0.59375" stop-color="rgb(98.376465%, 98.376465%, 98.376465%)" stop-opacity="1"/>
<stop offset="0.625" stop-color="rgb(98.179626%, 98.179626%, 98.179626%)" stop-opacity="1"/>
<stop offset="0.75" stop-color="rgb(98.03772%, 98.03772%, 98.03772%)" stop-opacity="1"/>
<stop offset="1" stop-color="rgb(98.03772%, 98.03772%, 98.03772%)" stop-opacity="1"/>
</linearGradient>
<clipPath id="clip-19">
<path clip-rule="nonzero" d="M 2077.109375 0 L 2126.128906 0 L 2126.128906 2400 L 2077.109375 2400 Z M 2077.109375 0 "/>
</clipPath>
<linearGradient id="linear-pattern-19" gradientUnits="userSpaceOnUse" x1="0.0740725" y1="0" x2="0.895127" y2="0" gradientTransform="matrix(39.9373, 2923.34, -2923.34, 39.9373, 2083.01, -216.66)">
<stop offset="0" stop-color="rgb(98.429871%, 98.429871%, 98.429871%)" stop-opacity="1"/>
<stop offset="0.5" stop-color="rgb(98.429871%, 98.429871%, 98.429871%)" stop-opacity="1"/>
<stop offset="0.5625" stop-color="rgb(98.429871%, 98.429871%, 98.429871%)" stop-opacity="1"/>
<stop offset="0.59375" stop-color="rgb(98.376465%, 98.376465%, 98.376465%)" stop-opacity="1"/>
<stop offset="0.625" stop-color="rgb(98.179626%, 98.179626%, 98.179626%)" stop-opacity="1"/>
<stop offset="0.75" stop-color="rgb(98.03772%, 98.03772%, 98.03772%)" stop-opacity="1"/>
<stop offset="1" stop-color="rgb(98.03772%, 98.03772%, 98.03772%)" stop-opacity="1"/>
</linearGradient>
<clipPath id="clip-20">
<path clip-rule="nonzero" d="M 2183.179688 0 L 2232.199219 0 L 2232.199219 2400 L 2183.179688 2400 Z M 2183.179688 0 "/>
</clipPath>
<linearGradient id="linear-pattern-20" gradientUnits="userSpaceOnUse" x1="0.0740725" y1="0" x2="0.895127" y2="0" gradientTransform="matrix(39.9373, 2923.34, -2923.34, 39.9373, 2189.08, -216.66)">
<stop offset="0" stop-color="rgb(98.429871%, 98.429871%, 98.429871%)" stop-opacity="1"/>
<stop offset="0.5" stop-color="rgb(98.429871%, 98.429871%, 98.429871%)" stop-opacity="1"/>
<stop offset="0.5625" stop-color="rgb(98.429871%, 98.429871%, 98.429871%)" stop-opacity="1"/>
<stop offset="0.59375" stop-color="rgb(98.376465%, 98.376465%, 98.376465%)" stop-opacity="1"/>
<stop offset="0.625" stop-color="rgb(98.179626%, 98.179626%, 98.179626%)" stop-opacity="1"/>
<stop offset="0.75" stop-color="rgb(98.03772%, 98.03772%, 98.03772%)" stop-opacity="1"/>
<stop offset="1" stop-color="rgb(98.03772%, 98.03772%, 98.03772%)" stop-opacity="1"/>
</linearGradient>
<clipPath id="clip-21">
<path clip-rule="nonzero" d="M 2289.261719 0 L 2338.269531 0 L 2338.269531 2400 L 2289.261719 2400 Z M 2289.261719 0 "/>
</clipPath>
<linearGradient id="linear-pattern-21" gradientUnits="userSpaceOnUse" x1="0.0740725" y1="0" x2="0.895127" y2="0" gradientTransform="matrix(39.9373, 2923.34, -2923.34, 39.9373, 2295.15, -216.66)">
<stop offset="0" stop-color="rgb(98.429871%, 98.429871%, 98.429871%)" stop-opacity="1"/>
<stop offset="0.5" stop-color="rgb(98.429871%, 98.429871%, 98.429871%)" stop-opacity="1"/>
<stop offset="0.5625" stop-color="rgb(98.429871%, 98.429871%, 98.429871%)" stop-opacity="1"/>
<stop offset="0.59375" stop-color="rgb(98.376465%, 98.376465%, 98.376465%)" stop-opacity="1"/>
<stop offset="0.625" stop-color="rgb(98.179626%, 98.179626%, 98.179626%)" stop-opacity="1"/>
<stop offset="0.75" stop-color="rgb(98.03772%, 98.03772%, 98.03772%)" stop-opacity="1"/>
<stop offset="1" stop-color="rgb(98.03772%, 98.03772%, 98.03772%)" stop-opacity="1"/>
</linearGradient>
</defs>


<g clip-path="url(#clip-0)">
<path fill-rule="nonzero" fill="url(#linear-pattern-0)" d="M 110.734375 -0.667969 L 28.945312 0.449219 L 61.734375 2400.667969 L 143.523438 2399.550781 Z M 110.734375 -0.667969 "/>
</g>
<g clip-path="url(#clip-1)">
<path fill-rule="nonzero" fill="url(#linear-pattern-1)" d="M 216.808594 -0.667969 L 135.015625 0.449219 L 167.808594 2400.667969 L 249.597656 2399.550781 Z M 216.808594 -0.667969 "/>
</g>
<g clip-path="url(#clip-2)">
<path fill-rule="nonzero" fill="url(#linear-pattern-2)" d="M 322.878906 -0.667969 L 241.089844 0.449219 L 273.878906 2400.667969 L 355.671875 2399.550781 Z M 322.878906 -0.667969 "/>
</g>
<g clip-path="url(#clip-3)">
<path fill-rule="nonzero" fill="url(#linear-pattern-3)" d="M 428.953125 -0.667969 L 347.164062 0.449219 L 379.953125 2400.667969 L 461.742188 2399.550781 Z M 428.953125 -0.667969 "/>
</g>
<g clip-path="url(#clip-4)">
<path fill-rule="nonzero" fill="url(#linear-pattern-4)" d="M 535.027344 -0.667969 L 453.234375 0.449219 L 486.027344 2400.667969 L 567.816406 2399.550781 Z M 535.027344 -0.667969 "/>
</g>
<g clip-path="url(#clip-5)">
<path fill-rule="nonzero" fill="url(#linear-pattern-5)" d="M 641.097656 -0.667969 L 559.308594 0.449219 L 592.097656 2400.667969 L 673.890625 2399.550781 Z M 641.097656 -0.667969 "/>
</g>
<g clip-path="url(#clip-6)">
<path fill-rule="nonzero" fill="url(#linear-pattern-6)" d="M 747.171875 -0.667969 L 665.378906 0.449219 L 698.171875 2400.667969 L 779.960938 2399.550781 Z M 747.171875 -0.667969 "/>
</g>
<g clip-path="url(#clip-7)">
<path fill-rule="nonzero" fill="url(#linear-pattern-7)" d="M 853.246094 -0.667969 L 771.453125 0.449219 L 804.246094 2400.667969 L 886.035156 2399.550781 Z M 853.246094 -0.667969 "/>
</g>
<g clip-path="url(#clip-8)">
<path fill-rule="nonzero" fill="url(#linear-pattern-8)" d="M 959.316406 -0.667969 L 877.527344 0.449219 L 910.316406 2400.667969 L 992.109375 2399.550781 Z M 959.316406 -0.667969 "/>
</g>
<g clip-path="url(#clip-9)">
<path fill-rule="nonzero" fill="url(#linear-pattern-9)" d="M 1065.390625 -0.667969 L 983.597656 0.449219 L 1016.390625 2400.667969 L 1098.179688 2399.550781 Z M 1065.390625 -0.667969 "/>
</g>
<g clip-path="url(#clip-10)">
<path fill-rule="nonzero" fill="url(#linear-pattern-10)" d="M 1171.460938 -0.667969 L 1089.667969 0.449219 L 1122.460938 2400.667969 L 1204.25 2399.550781 Z M 1171.460938 -0.667969 "/>
</g>
<g clip-path="url(#clip-11)">
<path fill-rule="nonzero" fill="url(#linear-pattern-11)" d="M 1277.539062 -0.667969 L 1195.75 0.449219 L 1228.539062 2400.667969 L 1310.332031 2399.550781 Z M 1277.539062 -0.667969 "/>
</g>
<g clip-path="url(#clip-12)">
<path fill-rule="nonzero" fill="url(#linear-pattern-12)" d="M 1383.609375 -0.667969 L 1301.820312 0.449219 L 1334.609375 2400.667969 L 1416.402344 2399.550781 Z M 1383.609375 -0.667969 "/>
</g>
<g clip-path="url(#clip-13)">
<path fill-rule="nonzero" fill="url(#linear-pattern-13)" d="M 1489.679688 -0.667969 L 1407.886719 0.449219 L 1440.679688 2400.667969 L 1522.472656 2399.550781 Z M 1489.679688 -0.667969 "/>
</g>
<g clip-path="url(#clip-14)">
<path fill-rule="nonzero" fill="url(#linear-pattern-14)" d="M 1595.75 -0.667969 L 1513.96875 0.449219 L 1546.757812 2400.667969 L 1628.542969 2399.550781 Z M 1595.75 -0.667969 "/>
</g>
<g clip-path="url(#clip-15)">
<path fill-rule="nonzero" fill="url(#linear-pattern-15)" d="M 1701.832031 -0.667969 L 1620.039062 0.449219 L 1652.828125 2400.667969 L 1734.621094 2399.550781 Z M 1701.832031 -0.667969 "/>
</g>
<g clip-path="url(#clip-16)">
<path fill-rule="nonzero" fill="url(#linear-pattern-16)" d="M 1807.902344 -0.667969 L 1726.109375 0.449219 L 1758.898438 2400.667969 L 1840.691406 2399.550781 Z M 1807.902344 -0.667969 "/>
</g>
<g clip-path="url(#clip-17)">
<path fill-rule="nonzero" fill="url(#linear-pattern-17)" d="M 1913.972656 -0.667969 L 1832.179688 0.449219 L 1864.96875 2400.667969 L 1946.761719 2399.550781 Z M 1913.972656 -0.667969 "/>
</g>
<g clip-path="url(#clip-18)">
<path fill-rule="nonzero" fill="url(#linear-pattern-18)" d="M 2020.050781 -0.667969 L 1938.257812 0.449219 L 1971.050781 2400.667969 L 2052.839844 2399.550781 Z M 2020.050781 -0.667969 "/>
</g>
<g clip-path="url(#clip-19)">
<path fill-rule="nonzero" fill="url(#linear-pattern-19)" d="M 2126.121094 -0.667969 L 2044.328125 0.449219 L 2077.121094 2400.667969 L 2158.910156 2399.550781 Z M 2126.121094 -0.667969 "/>
</g>
<g clip-path="url(#clip-20)">
<path fill-rule="nonzero" fill="url(#linear-pattern-20)" d="M 2232.191406 -0.667969 L 2150.398438 0.449219 L 2183.1875 2400.667969 L 2264.980469 2399.550781 Z M 2232.191406 -0.667969 "/>
</g>
<g clip-path="url(#clip-21)">
<path fill-rule="nonzero" fill="url(#linear-pattern-21)" d="M 2338.261719 -0.667969 L 2256.476562 0.449219 L 2289.269531 2400.667969 L 2371.050781 2399.550781 Z M 2338.261719 -0.667969 "/>
</g>
<path fill-rule="nonzero" fill="rgb(4.704285%, 9.008789%, 33.714294%)" fill-opacity="1" d="M 2038.878906 1185.25 C 2038.109375 1178.449219 2038.070312 1171.050781 2038.03125 1163.890625 C 2037.980469 1152.71875 2037.921875 1141.179688 2035.121094 1130.898438 C 2035.53125 1125.269531 2033.558594 1120.261719 2031.648438 1115.421875 C 2029.871094 1110.890625 2028.191406 1106.621094 2028.640625 1102.261719 L 2028.800781 1100.820312 L 2027.761719 1099.808594 C 2027.511719 1099.570312 2027.25 1099.359375 2027 1099.191406 C 2025.859375 1090.269531 2022.859375 1081.679688 2019.960938 1073.359375 C 2018.660156 1069.648438 2017.320312 1065.808594 2016.191406 1062.050781 C 2015.851562 1054.660156 2013.398438 1047.75 2011.03125 1041.058594 C 2008.910156 1035.101562 2006.910156 1029.46875 2006.269531 1023.5 L 2006.21875 1023.011719 L 2006.011719 1022.558594 C 2001.53125 1012.921875 1994.878906 1004.191406 1988.460938 995.738281 C 1984.898438 991.058594 1981.210938 986.210938 1978.011719 981.339844 L 1976.449219 978.960938 L 1975.359375 979.601562 C 1955.628906 950.550781 1935.699219 921.058594 1916.410156 892.519531 L 1898.75 866.390625 C 1904.730469 852.640625 1909.890625 838.21875 1914.878906 824.261719 C 1919.910156 810.210938 1925.109375 795.671875 1931.121094 781.910156 L 1931.558594 780.890625 L 1931.238281 779.828125 C 1928.671875 771.421875 1922.988281 764.480469 1917.5 757.769531 C 1914.800781 754.460938 1912 751.039062 1909.699219 747.558594 C 1909.390625 743.851562 1909.261719 739.988281 1909.179688 736.160156 L 1909.339844 736.109375 L 1909.128906 733.890625 C 1909.128906 733.570312 1909.121094 733.238281 1909.109375 732.929688 L 1909.039062 728.921875 L 1908.789062 728.988281 C 1908.609375 725.488281 1908.53125 721.898438 1908.460938 718.339844 L 1908.441406 717.128906 L 1907.578125 716.28125 C 1907.328125 716.03125 1907.070312 715.820312 1906.820312 715.640625 C 1906.800781 714.929688 1906.859375 714.109375 1906.910156 713.308594 C 1907.101562 710.660156 1907.339844 707.128906 1905.128906 704.558594 C 1905.089844 703.808594 1905.160156 702.890625 1905.21875 702 C 1905.398438 699.339844 1905.640625 695.800781 1903.398438 693.21875 C 1902.851562 689.480469 1902.300781 685.671875 1901.75 681.859375 C 1901.058594 677.078125 1900.371094 672.289062 1899.679688 667.601562 L 1899.53125 666.609375 L 1898.828125 665.910156 C 1898.609375 665.691406 1898.378906 665.511719 1898.160156 665.339844 C 1897.539062 653.269531 1893.78125 641.238281 1890.140625 629.589844 C 1888.398438 623.980469 1886.601562 618.230469 1885.191406 612.570312 C 1886.449219 612.480469 1887.71875 612.390625 1888.960938 612.300781 C 1891.378906 612.109375 1893.890625 611.929688 1896.238281 611.828125 L 1897.390625 611.78125 L 1898.941406 610.269531 C 1902.878906 609.738281 1906.820312 609.28125 1910.628906 608.828125 C 1914.589844 608.359375 1918.691406 607.878906 1922.820312 607.320312 L 1923.851562 607.179688 L 1924.578125 606.429688 C 1927.78125 603.121094 1931.148438 599.851562 1934.410156 596.671875 C 1937.441406 593.71875 1940.570312 590.671875 1943.589844 587.578125 C 1953 585.511719 1958.789062 579.078125 1964.398438 572.859375 C 1965.339844 571.808594 1966.289062 570.761719 1967.261719 569.730469 L 1968 568.929688 L 1968.070312 567.839844 C 1968.878906 553.191406 1962.679688 540.070312 1956.691406 527.378906 C 1954.648438 523.070312 1952.550781 518.609375 1950.761719 514.171875 C 1950.019531 505.839844 1949.28125 497.671875 1948.53125 489.429688 L 1947.390625 476.851562 L 1946.628906 476.078125 C 1946.390625 475.839844 1946.140625 475.640625 1945.890625 475.460938 C 1945.421875 470.269531 1944.179688 465.25 1942.980469 460.390625 C 1941.359375 453.78125 1939.820312 447.539062 1940.109375 441.089844 L 1940.171875 439.769531 L 1939.25 438.839844 C 1939.058594 438.660156 1938.871094 438.488281 1938.679688 438.351562 C 1938.730469 431.609375 1935.859375 425.480469 1933.089844 419.539062 C 1932.058594 417.339844 1931.078125 415.238281 1930.25 413.140625 C 1932.539062 404.738281 1937.261719 398.5 1945.039062 393.539062 L 1945.578125 393.199219 L 1945.929688 392.660156 C 1947.660156 390.03125 1949.480469 387.320312 1951.289062 384.609375 C 1953.101562 381.921875 1954.898438 379.21875 1956.621094 376.621094 L 1957.050781 375.949219 L 1957.101562 375.160156 C 1958.121094 359.171875 1971.609375 351.269531 1986.648438 344.011719 C 1988.191406 343.859375 1989.878906 343.871094 1991.648438 343.890625 C 1995.960938 343.921875 2000.828125 343.960938 2004.75 341.398438 L 2006.261719 340.410156 L 2006.089844 338.609375 C 2005.191406 329.109375 2003.460938 316.640625 1998.050781 304.320312 C 1997.589844 302.429688 1997.628906 300.109375 1997.671875 297.671875 C 1997.730469 293.691406 1997.800781 289.21875 1995.488281 285.671875 C 1995.28125 283.769531 1995.238281 281.820312 1995.199219 279.769531 C 1995.101562 275.109375 1995 270.289062 1992.839844 265.601562 C 1991.628906 256.449219 1991.238281 250.019531 1991.621094 245.390625 L 1991.691406 244.519531 L 1991.28125 243.75 C 1990.839844 242.910156 1990.25 242.328125 1989.78125 241.929688 C 1989.328125 240 1989.179688 237.839844 1989.03125 235.570312 C 1988.730469 231.210938 1988.421875 226.710938 1985.949219 222.890625 C 1985.769531 219.320312 1985.519531 215.78125 1985.28125 212.359375 C 1985.03125 208.769531 1984.769531 205.058594 1984.601562 201.351562 L 1984.511719 199.488281 L 1972.988281 194.429688 L 1971.921875 194.769531 C 1970.410156 195.230469 1968.921875 195.789062 1967.488281 196.339844 C 1966.078125 196.871094 1964.761719 197.371094 1963.429688 197.78125 L 1961.050781 198.53125 L 1961.351562 201.011719 C 1961.769531 204.5 1962 208.058594 1962.171875 211.550781 L 1960.730469 211.460938 L 1961.109375 219.878906 C 1960.148438 221.949219 1959.171875 222.851562 1957.25 223.378906 C 1955.769531 222.980469 1954.238281 222.640625 1952.761719 222.308594 C 1951.398438 222.011719 1950.101562 221.71875 1948.851562 221.390625 C 1942.191406 212.339844 1933.5 208.800781 1922.988281 210.878906 L 1921.988281 211.070312 L 1921.320312 211.839844 C 1920.039062 213.289062 1918.878906 214.828125 1917.761719 216.308594 C 1917.03125 217.289062 1916.320312 218.21875 1915.589844 219.121094 C 1915.148438 219.050781 1914.710938 218.980469 1914.28125 218.921875 C 1913.71875 218.828125 1913.171875 218.75 1912.660156 218.648438 C 1910.339844 215.589844 1908.28125 213 1906.398438 210.78125 C 1906.398438 206.71875 1904.578125 203.21875 1902.949219 200.101562 C 1902.308594 198.890625 1901.710938 197.738281 1901.210938 196.570312 L 1900.480469 194.878906 L 1898.640625 194.761719 C 1897.730469 194.710938 1896.871094 194.761719 1896.109375 194.808594 C 1895.46875 194.851562 1894.871094 194.890625 1894.328125 194.859375 L 1892.460938 194.738281 L 1891.53125 196.378906 C 1889.878906 199.308594 1888.089844 202.230469 1886.351562 205.039062 C 1884.859375 207.46875 1883.328125 209.960938 1881.851562 212.511719 C 1880.339844 212.460938 1878.769531 211.710938 1877.011719 210.871094 C 1874.179688 209.53125 1870.96875 208 1867.050781 208.921875 L 1865.910156 209.179688 L 1865.25 210.148438 C 1864.058594 211.898438 1862.949219 213.558594 1861.839844 215.21875 C 1860.738281 216.878906 1859.628906 218.53125 1858.441406 220.269531 L 1857.878906 221.089844 L 1857.980469 223.710938 L 1857.980469 223.71875 C 1857.550781 224.179688 1857.121094 224.660156 1856.699219 225.128906 C 1856.351562 225.539062 1856 225.929688 1855.660156 226.300781 C 1853.359375 226.191406 1851.109375 226.140625 1848.921875 226.101562 C 1846.398438 226.039062 1843.800781 225.988281 1841.171875 225.839844 L 1840.109375 225.78125 L 1829.789062 233.230469 L 1829.410156 235.78125 C 1828.539062 241.578125 1827.648438 247.558594 1824.640625 251.878906 C 1818.160156 251.820312 1813.578125 254.75 1809.910156 257.699219 L 1809.128906 258.328125 L 1808.878906 259.300781 C 1808.160156 262.140625 1807.851562 264.628906 1807.601562 266.941406 L 1807.449219 268.339844 L 1808.441406 269.359375 C 1809.46875 270.421875 1810.558594 271.351562 1811.621094 272.25 C 1812.308594 272.828125 1812.96875 273.398438 1813.578125 273.96875 L 1813.660156 276.238281 C 1800.160156 298.230469 1796.210938 304.179688 1768.808594 303.871094 L 1767.679688 303.851562 L 1766.828125 304.578125 C 1764.140625 306.871094 1761.511719 309.199219 1758.960938 311.441406 C 1756.730469 313.410156 1754.441406 315.441406 1752.109375 317.441406 C 1747.769531 317.441406 1743.308594 317.519531 1739 317.601562 C 1734.609375 317.679688 1730.078125 317.761719 1725.71875 317.761719 L 1724.75 317.761719 L 1723.980469 318.28125 C 1711.070312 327.121094 1704.410156 341.449219 1697.96875 355.300781 C 1697.339844 356.671875 1696.699219 358.03125 1696.070312 359.378906 C 1685.839844 365.53125 1676.160156 371.988281 1669.441406 382.078125 L 1662.929688 383.519531 C 1652.03125 378.699219 1640.058594 379.171875 1628.730469 380.429688 L 1628.191406 380.488281 L 1627.699219 380.730469 C 1617.351562 386.011719 1608.730469 394.628906 1600.390625 402.960938 C 1587.789062 415.558594 1575.878906 427.460938 1558.671875 428.609375 L 1557.539062 428.679688 L 1556.039062 430.179688 C 1549.519531 430.941406 1542.730469 431.449219 1536.140625 431.929688 L 1534.449219 432.058594 C 1526.070312 429.558594 1517.871094 430.53125 1509.929688 431.46875 L 1508.558594 431.628906 L 1508.191406 431.78125 C 1501.261719 434.519531 1495.46875 439.160156 1489.878906 443.648438 C 1488.730469 444.578125 1487.578125 445.488281 1486.441406 446.390625 C 1478.210938 447.230469 1470.789062 450.738281 1464.359375 456.839844 C 1459.261719 457.738281 1454.160156 458.601562 1449.21875 459.421875 C 1443.511719 460.378906 1437.609375 461.359375 1431.699219 462.441406 L 1431.058594 462.550781 L 1430.53125 462.921875 C 1422.019531 468.820312 1413.191406 472.789062 1404.871094 476.339844 L 1404.339844 476.558594 L 1403.941406 476.960938 C 1401.789062 479.078125 1399.820312 481.429688 1397.921875 483.699219 C 1394.070312 488.300781 1390.421875 492.648438 1385.5 495.070312 C 1373.28125 494.460938 1363.761719 501.929688 1355.320312 508.53125 L 1354.039062 509.53125 C 1341.609375 513.210938 1332.75 521.980469 1324.179688 530.46875 C 1321.101562 533.519531 1317.921875 536.671875 1314.640625 539.511719 C 1300.671875 547.480469 1288.429688 558.351562 1276.589844 568.851562 C 1270.039062 574.671875 1263.269531 580.679688 1256.351562 586.050781 L 1256.238281 586.140625 C 1234.410156 604.851562 1211.078125 622.898438 1188.519531 640.359375 C 1135.878906 681.101562 1081.441406 723.21875 1040.171875 777.988281 L 1039.570312 778.789062 L 1039.558594 779.75 L 1038.820312 780.179688 C 1033.050781 783.570312 1026.769531 785.441406 1020.121094 787.410156 C 1011.128906 790.078125 1001.828125 792.851562 993.984375 799.671875 L 993.703125 799.921875 L 993.488281 800.21875 C 981.953125 816.808594 970.40625 833.429688 958.855469 850.058594 C 935.808594 883.238281 911.972656 917.558594 888.570312 951.039062 C 885.617188 955.03125 881.085938 957.308594 876.289062 959.738281 C 874.777344 960.5 873.210938 961.289062 871.6875 962.140625 L 871.105469 962.46875 L 870.714844 963.011719 C 867 968.191406 863.324219 973.441406 859.765625 978.53125 C 856.179688 983.648438 852.46875 988.949219 848.734375 994.160156 L 847.933594 995.269531 C 841.300781 996.039062 834.628906 996.761719 828.132812 997.460938 C 820.523438 998.28125 812.671875 999.128906 804.914062 1000.050781 C 804.75 999.910156 804.597656 999.789062 804.46875 999.699219 L 804.351562 999.609375 L 803.351562 998.621094 L 801.949219 998.761719 C 799.878906 998.960938 797.898438 999.160156 795.921875 999.359375 C 794.496094 999.511719 793.070312 999.648438 791.609375 999.789062 C 791.433594 999.648438 791.269531 999.519531 791.132812 999.421875 L 791.011719 999.328125 L 790.089844 998.421875 L 775.777344 998.949219 C 768.226562 999.21875 760.636719 999.5 753.171875 999.78125 C 752.957031 999.601562 752.761719 999.449219 752.597656 999.320312 L 752.480469 999.238281 L 751.488281 998.261719 L 750.101562 998.378906 C 747.808594 998.589844 745.511719 998.890625 743.289062 999.179688 C 741.632812 999.398438 739.929688 999.628906 738.25 999.808594 C 738.074219 999.660156 737.910156 999.539062 737.773438 999.429688 L 737.65625 999.351562 L 736.652344 998.359375 L 735.242188 998.5 C 712.679688 1000.808594 690.714844 1002.75 666.453125 1004.871094 C 653.03125 998.011719 642.179688 994.488281 624.257812 995.421875 L 623.117188 995.480469 L 621.523438 997.058594 C 620.667969 997.160156 619.832031 997.238281 618.960938 997.308594 C 617.730469 997.421875 616.457031 997.519531 615.0625 997.730469 L 613.914062 997.910156 L 613.183594 998.808594 C 606.882812 1006.53125 601.558594 1015.179688 596.410156 1023.550781 C 593.226562 1028.71875 589.933594 1034.078125 586.492188 1039.058594 C 580.910156 1047.109375 574.875 1054.898438 569.039062 1062.429688 L 568.890625 1062.640625 C 566.097656 1066.980469 563.675781 1071.539062 561.328125 1075.941406 C 558.417969 1081.410156 555.65625 1086.601562 552.277344 1091.351562 C 550.671875 1091.480469 549.097656 1091.75 547.558594 1092.019531 C 544.3125 1092.578125 541.242188 1093.121094 538.765625 1092.011719 L 537.585938 1091.480469 L 523.804688 1097.191406 C 523.019531 1097.078125 522.222656 1097.011719 521.449219 1096.949219 C 520.480469 1096.871094 519.570312 1096.789062 518.796875 1096.640625 L 517.253906 1096.351562 L 513.878906 1099.671875 L 513.765625 1100.738281 C 513.5625 1102.628906 513.363281 1104.609375 513.164062 1106.589844 C 513.015625 1108.070312 512.867188 1109.550781 512.71875 1110.980469 C 512.183594 1111.539062 511.65625 1112.128906 511.140625 1112.691406 C 510.628906 1113.261719 510.136719 1113.800781 509.65625 1114.308594 C 503.6875 1115.339844 498.652344 1115.109375 493.867188 1113.589844 L 492.324219 1113.101562 L 491.066406 1114.121094 C 487.578125 1116.960938 483.019531 1117.351562 478.199219 1117.769531 L 477.53125 1117.828125 C 470.152344 1114.390625 462.972656 1110.558594 456.015625 1106.851562 L 455.34375 1106.488281 L 454.800781 1106.421875 C 443.953125 1105.019531 432.882812 1103.28125 422.515625 1101.601562 C 412.613281 1098.328125 402.875 1095.011719 393.453125 1091.800781 L 390.050781 1090.640625 L 388.894531 1091.269531 C 372.117188 1100.441406 364.855469 1108.101562 366.714844 1128.75 C 359.964844 1141.570312 360.515625 1155.570312 361.050781 1169.121094 C 361.289062 1175.101562 361.53125 1181.289062 361.113281 1187.179688 L 361.015625 1188.570312 L 362.019531 1189.550781 C 362.539062 1190.050781 363.046875 1190.421875 363.453125 1190.71875 C 363.558594 1190.789062 363.652344 1190.859375 363.742188 1190.929688 C 365.980469 1197.910156 366.820312 1204.21875 366.3125 1210.199219 L 366.253906 1210.890625 L 366.503906 1211.539062 C 370.246094 1221.171875 370.027344 1231.601562 369.796875 1242.640625 C 369.679688 1248.140625 369.5625 1253.820312 369.984375 1259.390625 L 368.746094 1260.589844 L 368.632812 1261.671875 C 368.101562 1266.699219 368.179688 1271.851562 368.257812 1276.828125 C 368.378906 1284.808594 368.492188 1292.351562 366.308594 1299.269531 L 365.933594 1300.449219 L 366.503906 1301.558594 C 366.820312 1302.171875 367.21875 1302.628906 367.597656 1302.988281 C 367.539062 1307.421875 368.578125 1311.609375 369.585938 1315.679688 C 370.800781 1320.578125 371.949219 1325.21875 371.191406 1330.019531 L 371.085938 1330.691406 L 371.277344 1331.339844 C 375.554688 1345.789062 386.96875 1358.730469 406.171875 1370.898438 L 406.472656 1371.089844 L 406.804688 1371.199219 C 424.324219 1377.199219 438.335938 1384.789062 450.90625 1395.089844 L 451.1875 1395.320312 L 451.511719 1395.480469 C 468.628906 1403.679688 480.785156 1412.679688 490.867188 1424.628906 C 492.34375 1428.25 491.917969 1432.308594 491.46875 1436.601562 C 491.207031 1439.070312 490.941406 1441.621094 491.019531 1444.210938 L 491.101562 1446.960938 L 493.851562 1447.109375 C 499.179688 1447.410156 503.742188 1449.949219 508.769531 1453.769531 C 507.824219 1470.851562 513.625 1487.558594 525.605469 1502.179688 L 526.886719 1503.738281 L 528.816406 1503.140625 C 530.847656 1502.511719 533.050781 1502.019531 535.253906 1501.570312 C 536.515625 1506.480469 536.6875 1511.898438 536.847656 1517.589844 C 536.949219 1521.160156 537.058594 1524.828125 537.464844 1528.421875 C 537.15625 1528.53125 536.863281 1528.628906 536.550781 1528.738281 C 534.789062 1529.351562 532.972656 1529.980469 531.230469 1530.710938 L 528.992188 1531.648438 L 529.445312 1534.039062 C 530.058594 1537.230469 530.667969 1540.320312 531.277344 1543.421875 C 531.855469 1546.351562 532.433594 1549.289062 533.011719 1552.308594 L 533.1875 1553.21875 L 533.84375 1553.871094 C 534.070312 1554.101562 534.3125 1554.289062 534.546875 1554.460938 C 535.285156 1566.28125 535.75 1577.441406 529.988281 1587.011719 C 520.597656 1597.660156 510.925781 1608.261719 501.574219 1618.519531 C 496.828125 1623.71875 492.101562 1628.910156 487.417969 1634.089844 L 487.230469 1634.308594 C 476.078125 1649.390625 465.210938 1665.921875 451.992188 1687.921875 L 451.675781 1688.441406 L 451.59375 1689.050781 C 450.070312 1700.191406 446.160156 1710.890625 442.539062 1719.890625 L 442.335938 1720.398438 L 442.320312 1720.941406 C 442.203125 1726.398438 442.09375 1732.019531 441.980469 1737.589844 L 441.832031 1745.019531 L 439.84375 1746.949219 L 440.582031 1748.820312 C 442.285156 1753.101562 443.476562 1757.640625 444.628906 1762.03125 C 446.105469 1767.660156 447.632812 1773.46875 450.285156 1779.101562 C 450.195312 1785.441406 452.519531 1791.101562 454.773438 1796.589844 C 455.640625 1798.699219 456.464844 1800.710938 457.144531 1802.730469 C 457.183594 1809.851562 459.789062 1816.449219 462.3125 1822.839844 C 463.546875 1825.96875 464.710938 1828.921875 465.601562 1831.929688 C 465.496094 1837.988281 467.792969 1843.609375 470.015625 1849.050781 C 470.960938 1851.371094 471.855469 1853.558594 472.5625 1855.75 C 479.78125 1892.53125 494.859375 1928.679688 509.441406 1963.640625 C 511.871094 1969.46875 514.300781 1975.300781 516.695312 1981.121094 C 514.308594 1985.550781 513.558594 1990.660156 513.253906 1995.351562 C 499.859375 2003.109375 493.390625 2010.238281 487.121094 2023.921875 L 487.082031 2024 C 480.902344 2036.359375 474.519531 2049.128906 475.828125 2064.511719 C 469.0625 2076.121094 462.34375 2088 454.914062 2101.171875 L 453.066406 2104.449219 L 456.675781 2105.519531 C 461.144531 2106.851562 465.792969 2108.289062 470.289062 2109.691406 C 474.820312 2111.101562 479.5 2112.550781 484.03125 2113.890625 C 488.875 2117.148438 493.78125 2120.359375 498.527344 2123.46875 C 503.488281 2126.71875 508.613281 2130.070312 513.648438 2133.460938 L 514.238281 2133.859375 L 514.9375 2133.949219 C 528.25 2135.679688 542.175781 2141.050781 553.144531 2148.691406 L 553.941406 2149.25 L 554.914062 2149.230469 C 559.742188 2149.148438 564.664062 2149.140625 569.429688 2149.140625 C 574.601562 2149.128906 579.953125 2149.121094 585.226562 2149.011719 L 586.425781 2148.988281 L 587.859375 2147.570312 C 594.6875 2147.230469 601.515625 2146.878906 608.34375 2146.53125 L 609.488281 2146.46875 L 610.890625 2145.070312 C 628.144531 2144.070312 645.445312 2140.300781 663.75 2133.550781 L 664.695312 2133.199219 L 665.238281 2132.351562 C 669.765625 2125.261719 676.140625 2119.710938 685.292969 2114.890625 L 686.121094 2114.460938 L 686.554688 2113.628906 C 688.609375 2109.710938 690.601562 2105.730469 692.53125 2101.878906 C 694.320312 2098.300781 696.167969 2094.621094 698.058594 2090.980469 C 711.769531 2086.179688 723.238281 2081.738281 733.472656 2074.078125 C 742.660156 2078.898438 749.726562 2076.210938 756.890625 2072.621094 C 759.378906 2076.179688 761.929688 2079.761719 764.410156 2083.25 C 767.496094 2087.578125 770.6875 2092.050781 773.722656 2096.449219 L 774.582031 2097.691406 L 776.09375 2097.738281 C 779.992188 2097.871094 783.890625 2098 787.792969 2098.121094 C 788.03125 2098.351562 788.261719 2098.53125 788.441406 2098.671875 L 788.578125 2098.78125 L 789.425781 2099.648438 L 790.632812 2099.679688 C 793.199219 2099.769531 795.710938 2099.578125 798.160156 2099.359375 C 798.324219 2099.5 798.480469 2099.628906 798.609375 2099.730469 L 798.75 2099.828125 L 799.734375 2100.851562 L 801.144531 2100.730469 C 802.707031 2100.609375 804.351562 2100.480469 806 2100.351562 C 807.789062 2100.21875 809.582031 2100.078125 811.277344 2099.941406 L 812.558594 2099.828125 L 813.363281 2098.839844 C 815.417969 2096.300781 817.574219 2095.738281 820.554688 2094.96875 C 824.097656 2094.050781 828.457031 2092.929688 832.652344 2087.898438 C 832.804688 2087.871094 832.941406 2087.851562 833.074219 2087.828125 C 833.460938 2087.761719 833.691406 2087.710938 833.921875 2087.730469 L 835.605469 2087.769531 L 836.519531 2086.359375 C 839.15625 2082.300781 841.816406 2078.550781 844.398438 2074.921875 C 845.617188 2074.460938 846.820312 2073.949219 847.988281 2073.460938 C 848.226562 2073.359375 848.453125 2073.269531 848.683594 2073.171875 L 848.730469 2073.480469 L 852.222656 2072.140625 C 853.09375 2071.808594 854.050781 2071.480469 855.007812 2071.148438 C 855.699219 2070.910156 856.394531 2070.671875 857.058594 2070.429688 L 859.628906 2071.140625 C 861.597656 2073.601562 862.277344 2076.710938 862.886719 2080.199219 L 863.886719 2085.910156 L 867.972656 2081.789062 C 869.546875 2080.199219 871.257812 2078.578125 872.910156 2077 C 874.296875 2075.679688 875.71875 2074.320312 877.09375 2072.960938 C 877.847656 2072.949219 878.613281 2072.910156 879.363281 2072.871094 C 880.230469 2072.820312 881.117188 2072.78125 881.992188 2072.769531 C 882.59375 2073.289062 883.199219 2073.859375 883.835938 2074.441406 C 884.769531 2075.308594 885.734375 2076.199219 886.714844 2077.011719 L 889.085938 2078.96875 L 900.949219 2063.878906 L 899.589844 2062.039062 C 897.894531 2059.75 896.089844 2057.429688 894.34375 2055.191406 C 893.167969 2053.679688 891.960938 2052.140625 890.792969 2050.601562 C 895.511719 2046.019531 900.347656 2041.390625 905.042969 2036.898438 C 910.28125 2031.878906 915.691406 2026.710938 920.953125 2021.589844 C 925.875 2020.46875 930.84375 2019.339844 935.820312 2018.21875 C 944.175781 2016.328125 952.5625 2014.429688 960.8125 2012.53125 L 961.65625 2012.328125 L 962.308594 2011.671875 L 962.328125 2011.679688 C 963.65625 2014.308594 965.125 2016.800781 966.550781 2019.210938 C 969.847656 2024.800781 972.964844 2030.070312 973.824219 2036.199219 L 973.992188 2037.410156 L 974.960938 2038.148438 C 975.605469 2038.648438 976.28125 2039.261719 976.992188 2039.898438 C 977.753906 2040.578125 978.542969 2041.289062 979.363281 2041.921875 L 979.859375 2042.308594 L 980.46875 2042.460938 C 988.132812 2044.378906 995.058594 2048.75 1002.398438 2053.390625 C 1007.03125 2056.308594 1011.828125 2059.339844 1016.828125 2061.691406 L 1017.230469 2061.839844 C 1022.820312 2063.550781 1027.371094 2068.011719 1032.171875 2072.730469 C 1034.980469 2075.480469 1037.871094 2078.320312 1041.039062 2080.609375 C 1041.648438 2081.71875 1042.269531 2082.910156 1042.878906 2084.058594 C 1043.390625 2085.03125 1043.910156 2086.011719 1044.429688 2086.96875 C 1043.039062 2090.480469 1041.648438 2093.921875 1040.261719 2097.359375 C 1038.621094 2101.421875 1036.980469 2105.46875 1035.351562 2109.628906 L 1034.210938 2112.519531 L 1037.140625 2113.550781 C 1037.628906 2113.730469 1038.03125 2113.898438 1038.429688 2114.070312 C 1038.671875 2114.171875 1038.898438 2114.261719 1039.148438 2114.359375 C 1039.46875 2114.808594 1039.761719 2115.230469 1040.058594 2115.648438 C 1040.148438 2115.78125 1040.230469 2115.898438 1040.320312 2116.03125 C 1039.488281 2117.261719 1038.691406 2118.46875 1037.890625 2119.671875 C 1036.738281 2121.398438 1035.578125 2123.128906 1034.339844 2124.949219 L 1033.359375 2126.398438 L 1034.128906 2127.96875 C 1034.46875 2128.640625 1034.898438 2129.148438 1035.300781 2129.53125 L 1035.351562 2136.441406 L 1036.230469 2137.300781 C 1040.390625 2141.460938 1048.570312 2148.289062 1058.660156 2149.988281 C 1058.519531 2154.308594 1057.148438 2158.410156 1055.71875 2162.71875 C 1054.910156 2165.148438 1054.078125 2167.660156 1053.441406 2170.269531 L 1053.308594 2170.808594 L 1053.378906 2171.359375 C 1055.589844 2188.679688 1069.269531 2194.511719 1082.5 2200.148438 C 1090.828125 2203.699219 1098.691406 2207.050781 1103.78125 2213.078125 L 1104.46875 2213.898438 L 1105.519531 2214.101562 C 1115.789062 2216.039062 1122.03125 2219.410156 1125.171875 2224.710938 L 1125.910156 2225.941406 L 1127.328125 2226.148438 C 1131.351562 2226.71875 1135.441406 2227.121094 1139.390625 2227.511719 C 1148.589844 2228.421875 1157.28125 2229.269531 1165.71875 2232.128906 L 1166.769531 2232.488281 L 1167.800781 2232.078125 C 1176.5 2228.578125 1180.769531 2225 1184.199219 2222.128906 C 1189.128906 2218 1192.378906 2215.269531 1207.101562 2214.910156 L 1208.050781 2214.878906 L 1208.808594 2214.320312 C 1217.589844 2207.851562 1227.199219 2212.089844 1237.359375 2216.570312 C 1241.449219 2218.378906 1245.671875 2220.238281 1249.859375 2221.371094 L 1252.671875 2222.128906 L 1253.511719 2219.328125 C 1254.570312 2215.808594 1255.238281 2212.039062 1255.890625 2208.410156 C 1257.011719 2202.121094 1258.070312 2196.160156 1260.941406 2191.351562 C 1281.429688 2185.53125 1297.148438 2171.21875 1312.351562 2157.359375 C 1312.890625 2156.871094 1313.429688 2156.378906 1313.960938 2155.898438 C 1314.78125 2156.480469 1315.578125 2157.039062 1316.378906 2157.601562 C 1317.828125 2158.609375 1319.199219 2159.570312 1320.589844 2160.628906 L 1321.410156 2161.25 L 1322.441406 2161.238281 C 1323.289062 2161.230469 1323.949219 2161.089844 1324.488281 2160.96875 C 1324.878906 2160.890625 1325.109375 2160.839844 1325.339844 2160.839844 L 1326.441406 2160.828125 L 1327.28125 2160.101562 C 1335.21875 2153.171875 1344.988281 2150.640625 1354.121094 2149.21875 L 1354.089844 2149.761719 L 1357.261719 2149.71875 C 1358.148438 2149.710938 1359.070312 2149.589844 1359.949219 2149.480469 C 1360.191406 2149.449219 1360.421875 2149.421875 1360.640625 2149.390625 C 1360.820312 2149.550781 1360.980469 2149.671875 1361.109375 2149.78125 L 1361.21875 2149.851562 L 1362.261719 2150.898438 L 1363.71875 2150.730469 C 1367.621094 2150.25 1371.398438 2149.78125 1375.199219 2149.308594 C 1378.101562 2148.941406 1381.019531 2148.578125 1384.011719 2148.210938 L 1385.058594 2148.078125 L 1386.511719 2146.578125 C 1392.578125 2145.800781 1398.300781 2143.988281 1403.851562 2142.230469 C 1409.910156 2140.308594 1415.628906 2138.5 1421.648438 2137.96875 L 1422.761719 2137.871094 L 1424.230469 2136.359375 C 1426.628906 2136.128906 1428.980469 2135.839844 1431.261719 2135.558594 C 1433.441406 2135.289062 1435.679688 2135.011719 1437.941406 2134.789062 L 1438.148438 2134.929688 L 1439.148438 2135.949219 L 1440.628906 2135.75 C 1445.351562 2135.128906 1450.070312 2134.578125 1454.628906 2134.039062 C 1459.128906 2133.519531 1463.769531 2132.96875 1468.449219 2132.359375 L 1468.589844 2132.460938 L 1469.558594 2133.441406 L 1471 2133.28125 C 1475.480469 2132.800781 1480.03125 2132.21875 1484.421875 2131.648438 C 1488.210938 2131.160156 1492.109375 2130.660156 1495.960938 2130.21875 L 1496.140625 2130.351562 L 1497.101562 2131.320312 L 1498.53125 2131.171875 C 1519.628906 2128.960938 1541.101562 2126.890625 1561.851562 2124.878906 C 1567.789062 2124.308594 1573.730469 2123.730469 1579.671875 2123.160156 C 1579.828125 2123.300781 1579.980469 2123.410156 1580.109375 2123.511719 L 1581.269531 2124.648438 L 1582.78125 2124.421875 C 1587.179688 2123.75 1591.769531 2123.140625 1596.199219 2122.558594 C 1600.328125 2122.019531 1604.601562 2121.460938 1608.769531 2120.839844 C 1608.898438 2120.941406 1609.019531 2121.039062 1609.121094 2121.109375 L 1611.359375 2123.328125 L 1615.539062 2119.039062 L 1615.730469 2118.238281 C 1617.769531 2109.78125 1619.039062 2100.988281 1620.261719 2092.5 C 1622.191406 2079.070312 1624.191406 2065.179688 1629.308594 2052.75 L 1629.398438 2052.480469 C 1630.96875 2047.269531 1632.179688 2041.800781 1633.351562 2036.511719 C 1635.53125 2026.671875 1637.789062 2016.488281 1642.410156 2007.789062 C 1642.890625 2007.519531 1643.328125 2007.261719 1643.769531 2007 C 1644.371094 2006.640625 1644.96875 2006.269531 1645.648438 2005.910156 L 1646.78125 2005.308594 L 1647.128906 2004.089844 C 1649.308594 1996.5 1654.121094 1989.691406 1658.78125 1983.109375 C 1659.800781 1981.660156 1660.828125 1980.21875 1661.820312 1978.769531 L 1662.019531 1978.429688 C 1666.570312 1969.480469 1671.539062 1960.800781 1676.339844 1952.410156 L 1676.640625 1951.878906 L 1676.710938 1951.269531 C 1677.371094 1945.660156 1680.148438 1940.199219 1683.101562 1934.421875 C 1686.511719 1927.71875 1690.039062 1920.800781 1690.28125 1913.210938 L 1691.859375 1911.609375 L 1691.769531 1910.261719 C 1691.480469 1905.820312 1692.71875 1901.929688 1694.160156 1897.429688 C 1694.328125 1896.878906 1694.511719 1896.320312 1694.679688 1895.761719 C 1700.371094 1889.648438 1706.058594 1883.378906 1711.558594 1877.300781 C 1717.488281 1870.761719 1723.621094 1864 1729.738281 1857.449219 L 1730.398438 1856.75 L 1730.519531 1855.789062 C 1730.671875 1854.671875 1730.878906 1853.46875 1731.109375 1852.210938 C 1731.980469 1847.480469 1732.960938 1842.109375 1730.570312 1837.21875 L 1730.378906 1836.828125 L 1730.078125 1836.519531 C 1724.359375 1830.28125 1716.359375 1829.511719 1708.851562 1829.78125 C 1708.738281 1826.089844 1708.808594 1822.351562 1708.871094 1818.679688 L 1708.929688 1815.550781 L 1705.75 1815.628906 C 1705.089844 1814.878906 1704.398438 1814.140625 1703.730469 1813.410156 C 1703.148438 1812.78125 1702.589844 1812.171875 1702.058594 1811.570312 C 1704.550781 1804 1704.429688 1796.378906 1704.320312 1788.988281 C 1704.210938 1782.21875 1704.109375 1775.820312 1705.921875 1769.660156 L 1707.078125 1765.71875 L 1704.378906 1765.78125 C 1704.03125 1761.808594 1703.359375 1758.988281 1702.808594 1756.621094 C 1701.539062 1751.238281 1700.910156 1748.488281 1706.058594 1737.539062 L 1709.070312 1734.511719 L 1708.261719 1732.878906 L 1708.621094 1732.128906 L 1707.890625 1732.21875 C 1707.609375 1731.769531 1707.308594 1731.378906 1707 1731.078125 L 1707.109375 1723.539062 L 1704 1723.609375 C 1703 1723.628906 1701.75 1723.53125 1700.179688 1723.289062 C 1699.449219 1721.300781 1699.578125 1718.71875 1699.710938 1716.019531 C 1699.890625 1712.46875 1700.101562 1708.480469 1698.089844 1705.21875 C 1697.808594 1701.699219 1697.601562 1698.191406 1697.398438 1694.789062 C 1697.199219 1691.421875 1696.988281 1687.941406 1696.710938 1684.421875 C 1701.261719 1678.21875 1704.609375 1671.351562 1707.859375 1664.691406 C 1713.140625 1653.859375 1718.121094 1643.621094 1727.761719 1636.519531 L 1729.058594 1635.570312 L 1728.980469 1633.960938 C 1728.589844 1625.550781 1733.890625 1618.410156 1739.511719 1610.839844 C 1741.871094 1607.660156 1744.308594 1604.371094 1746.269531 1600.988281 C 1756.578125 1587.429688 1772.839844 1579.128906 1794.609375 1576.289062 C 1794.769531 1576.421875 1794.921875 1576.53125 1795.039062 1576.621094 L 1795.148438 1576.691406 L 1795.988281 1577.519531 L 1797.171875 1577.550781 C 1802.441406 1577.730469 1806.539062 1574.941406 1810.179688 1572.511719 C 1811.730469 1571.480469 1813.191406 1570.5 1814.679688 1569.75 C 1817.378906 1568.988281 1819.988281 1568.230469 1822.601562 1567.46875 C 1825.28125 1566.691406 1827.960938 1565.910156 1830.730469 1565.128906 L 1831.460938 1564.929688 L 1832 1564.398438 C 1850.769531 1546.289062 1860.089844 1531.039062 1866.390625 1508.128906 L 1866.488281 1507.761719 L 1866.488281 1507.371094 C 1866.550781 1502.128906 1866.511719 1496.929688 1866.480469 1491.898438 C 1866.441406 1487.378906 1866.410156 1482.710938 1866.449219 1478.140625 C 1868.261719 1474.128906 1870.179688 1470.050781 1872.039062 1466.101562 C 1874 1461.949219 1876.019531 1457.648438 1877.921875 1453.421875 L 1878.230469 1452.730469 L 1878.179688 1451.96875 C 1877.71875 1445.71875 1879.449219 1439.761719 1881.28125 1433.449219 C 1881.628906 1432.238281 1881.988281 1431.011719 1882.328125 1429.78125 C 1886.929688 1417.628906 1893.96875 1408.46875 1900.898438 1400.378906 L 1901.421875 1399.769531 L 1901.570312 1398.980469 C 1903.140625 1390.609375 1908.148438 1383.660156 1913.449219 1376.300781 C 1915.238281 1373.820312 1917.089844 1371.25 1918.78125 1368.628906 L 1919.410156 1367.671875 L 1919.230469 1366.539062 C 1916.320312 1347.851562 1922.941406 1343.039062 1932.960938 1335.769531 C 1938.789062 1331.53125 1945.398438 1326.730469 1950.949219 1318.320312 L 1951.011719 1318.21875 C 1955.679688 1310.519531 1959.28125 1302.980469 1962.46875 1296.328125 C 1973.371094 1273.539062 1980.578125 1258.480469 2016.199219 1258.191406 L 2018.371094 1258.171875 L 2019.070312 1255.980469 C 2022.328125 1245.828125 2025.710938 1235.320312 2030.441406 1225.441406 L 2030.660156 1224.96875 L 2030.71875 1224.449219 C 2031.878906 1212.898438 2034.449219 1200.828125 2038.78125 1186.460938 L 2038.960938 1185.871094 L 2038.878906 1185.25 "/>
</svg>
