<?xml version="1.0" standalone="no"?>
<!DOCTYPE svg PUBLIC "-//W3C//DTD SVG 20010904//EN"
 "http://www.w3.org/TR/2001/REC-SVG-20010904/DTD/svg10.dtd">
<svg version="1.0" xmlns="http://www.w3.org/2000/svg"
 width="500.000000pt" height="500.000000pt" viewBox="0 0 500.000000 500.000000"
 preserveAspectRatio="xMidYMid meet">

<g transform="translate(0.000000,500.000000) scale(0.100000,-0.100000)"
fill="#000000" stroke="none">
<path d="M2465 3924 c-11 -2 -45 -9 -75 -15 -99 -19 -212 -81 -293 -162 -87
-86 -139 -174 -167 -282 -28 -108 -26 -198 5 -291 35 -105 125 -280 253 -492
66 -109 106 -184 99 -186 -7 -2 -50 -9 -96 -16 -190 -26 -357 -90 -406 -154
-37 -49 -35 -114 6 -161 39 -44 150 -99 254 -125 274 -70 735 -67 1005 6 194
53 280 122 267 217 -14 102 -173 182 -441 221 -54 8 -100 17 -103 20 -3 3 18
42 48 88 144 225 269 460 309 583 81 247 -66 560 -321 683 -46 23 -106 46
-133 52 -57 12 -181 21 -211 14z m250 -124 c203 -77 345 -276 345 -484 0 -134
-101 -334 -437 -863 -66 -104 -93 -139 -101 -130 -5 6 -70 109 -143 227 -284
460 -379 651 -379 764 0 109 55 251 130 338 140 161 385 223 585 148z"/>
<path d="M2433 3612 c-67 -24 -118 -64 -154 -120 -42 -66 -52 -106 -47 -186 8
-116 65 -203 166 -253 75 -37 193 -39 260 -4 146 75 209 226 158 378 -51 152
-231 239 -383 185z m158 -84 c133 -39 192 -208 113 -321 -89 -126 -274 -121
-351 10 -71 122 -20 261 114 309 47 17 75 17 124 2z"/>
<path d="M1810 1814 c-10 -11 -11 -23 -4 -42 8 -23 16 -27 52 -30 l42 -3 0
-109 c0 -114 9 -140 49 -140 35 0 41 21 41 137 l0 113 38 0 c43 0 62 14 62 45
0 39 -18 45 -146 45 -98 0 -124 -3 -134 -16z"/>
<path d="M2120 1682 c0 -117 3 -152 16 -170 29 -42 74 -22 74 35 0 28 3 33 25
33 18 0 32 -11 51 -40 28 -41 50 -55 77 -44 28 10 31 44 7 77 -23 30 -23 30
-4 65 35 66 14 146 -47 178 -18 9 -58 14 -114 14 l-85 0 0 -148z m162 51 c10
-9 18 -22 18 -29 0 -22 -30 -44 -61 -44 -28 0 -29 2 -29 45 0 42 2 45 27 45
14 0 35 -7 45 -17z"/>
<path d="M2420 1676 c0 -163 6 -186 49 -186 36 0 41 20 41 172 0 135 -2 148
-19 158 -11 5 -31 10 -45 10 l-26 0 0 -154z"/>
<path d="M2552 1818 c-19 -19 -15 -35 40 -173 59 -149 62 -155 93 -155 12 0
27 6 32 13 22 27 113 281 108 298 -8 24 -50 35 -70 19 -7 -6 -22 -35 -31 -63
-39 -119 -37 -118 -69 -30 -15 43 -32 84 -38 91 -12 15 -49 16 -65 0z"/>
<path d="M2860 1676 c0 -163 6 -186 49 -186 36 0 41 20 41 172 0 135 -2 148
-19 158 -11 5 -31 10 -45 10 l-26 0 0 -154z"/>
<path d="M3093 1818 c-25 -40 -113 -282 -108 -298 12 -39 70 -35 85 6 8 20 16
24 55 24 39 0 47 -4 57 -25 13 -30 40 -40 68 -25 28 15 26 36 -21 152 -63 156
-75 178 -104 178 -13 0 -27 -6 -32 -12z m52 -175 c5 -20 3 -23 -19 -23 -24 0
-24 2 -14 31 11 32 21 29 33 -8z"/>
</g>
</svg>
