<?xml version="1.0" standalone="no"?>
<!DOCTYPE svg PUBLIC "-//W3C//DTD SVG 20010904//EN"
 "http://www.w3.org/TR/2001/REC-SVG-20010904/DTD/svg10.dtd">
<svg version="1.0" xmlns="http://www.w3.org/2000/svg"
 width="500.000000pt" height="500.000000pt" viewBox="0 0 500.000000 500.000000"
 preserveAspectRatio="xMidYMid meet">

<g transform="translate(0.000000,500.000000) scale(0.100000,-0.100000)"
fill="#000000" stroke="none">
<path d="M845 3615 c-120 -27 -213 -79 -308 -173 -159 -155 -219 -383 -154
-575 38 -109 117 -262 246 -476 61 -101 110 -186 108 -187 -2 -2 -55 -13 -118
-23 -318 -55 -464 -158 -404 -285 63 -133 417 -216 862 -203 383 11 641 96
684 224 31 94 -66 179 -264 233 -56 15 -252 50 -282 50 -3 0 18 37 47 83 169
267 280 479 319 606 73 243 -76 553 -324 672 -137 65 -278 84 -412 54z m312
-113 c193 -74 316 -228 345 -431 15 -99 1 -157 -77 -316 -59 -122 -406 -700
-443 -737 -4 -4 -43 50 -87 120 -271 435 -382 635 -425 761 -92 274 136 596
445 630 82 8 179 -2 242 -27z"/>
<path d="M887 3320 c-47 -14 -123 -69 -150 -108 -45 -65 -61 -112 -60 -187 0
-120 62 -218 170 -272 46 -22 69 -27 133 -26 68 0 85 4 140 34 110 58 167 162
158 288 -8 113 -67 199 -170 251 -51 25 -73 30 -127 29 -36 0 -79 -5 -94 -9z
m199 -115 c109 -64 135 -217 52 -311 -94 -107 -252 -100 -332 14 -41 58 -48
149 -17 210 57 111 189 150 297 87z"/>
<path d="M2500 3058 c-13 -11 -14 -56 -10 -326 l5 -314 24 -19 c33 -27 86 -25
116 6 22 21 25 33 25 90 l0 65 53 0 52 0 45 -66 c67 -99 83 -114 125 -114 25
0 44 8 60 25 39 38 33 74 -24 148 l-50 65 25 22 c60 58 84 182 50 263 -22 54
-81 112 -139 138 -45 20 -71 24 -197 27 -110 3 -149 0 -160 -10z m311 -177
c44 -44 43 -102 -2 -143 -25 -24 -38 -28 -89 -28 l-60 0 0 100 0 100 61 0 c54
0 64 -3 90 -29z"/>
<path d="M1853 3042 c-45 -36 -38 -118 13 -141 14 -6 56 -11 94 -11 l70 0 0
-220 c0 -270 6 -290 91 -290 18 0 39 10 54 25 l25 24 0 231 0 230 78 0 c80 1
100 8 120 47 19 35 14 72 -13 98 l-24 25 -243 0 c-215 0 -246 -2 -265 -18z"/>
<path d="M3103 3044 c-4 -11 -6 -156 -3 -322 l5 -304 24 -19 c33 -27 92 -25
119 4 22 23 22 29 22 314 0 343 3 334 -98 341 -51 4 -61 2 -69 -14z"/>
<path d="M3377 3046 c-9 -7 -22 -27 -28 -44 -9 -28 0 -57 95 -299 59 -147 114
-279 125 -293 23 -32 88 -39 119 -13 13 11 54 100 102 223 44 113 92 231 105
263 34 79 33 129 -1 156 -33 26 -85 27 -113 4 -12 -11 -44 -85 -81 -188 -34
-93 -63 -171 -64 -173 -2 -1 -20 43 -41 100 -77 212 -97 258 -115 268 -26 14
-82 12 -103 -4z"/>
<path d="M4003 3044 c-4 -11 -6 -156 -3 -322 l5 -304 24 -19 c33 -27 92 -25
119 4 22 23 22 29 22 314 0 343 3 334 -98 341 -51 4 -61 2 -69 -14z"/>
<path d="M4478 3049 c-10 -5 -18 -17 -18 -25 0 -8 -47 -132 -105 -276 -58
-145 -105 -274 -105 -289 0 -42 35 -79 76 -79 51 0 73 15 94 66 l19 44 101 0
101 0 19 -44 c21 -49 43 -66 88 -66 46 0 82 34 82 78 -1 48 -199 537 -233 575
-19 21 -34 27 -63 27 -22 0 -47 -5 -56 -11z m96 -340 c14 -38 26 -72 26 -75 0
-2 -27 -4 -61 -4 -33 0 -59 4 -57 8 2 4 14 38 27 75 14 37 28 67 32 67 4 0 18
-32 33 -71z"/>
</g>
</svg>
