<?xml version="1.0" standalone="no"?>
<!DOCTYPE svg PUBLIC "-//W3C//DTD SVG 20010904//EN"
 "http://www.w3.org/TR/2001/REC-SVG-20010904/DTD/svg10.dtd">
<svg version="1.0" xmlns="http://www.w3.org/2000/svg"
 width="200.000000pt" height="200.000000pt" viewBox="0 0 500.000000 500.000000"
 preserveAspectRatio="xMidYMid meet">

<g transform="translate(0.000000,500.000000) scale(0.100000,-0.100000)"
fill="#fc4d1d" stroke="none">
<path d="M2373 4899 c-198 -20 -457 -105 -625 -206 -454 -272 -741 -743 -765
-1253 -8 -170 19 -307 103 -522 50 -127 203 -442 304 -623 98 -177 371 -633
493 -825 l86 -135 -37 -7 c-20 -3 -82 -11 -137 -18 -141 -16 -350 -55 -485
-90 -366 -93 -601 -224 -682 -380 -33 -65 -33 -185 1 -253 119 -243 625 -425
1381 -499 179 -17 899 -17 1070 0 724 74 1185 223 1350 438 120 154 82 335
-99 468 -219 161 -676 289 -1204 338 l-28 3 92 145 c593 936 839 1430 889
1779 12 85 0 273 -26 398 -125 617 -602 1095 -1217 1218 -142 28 -330 38 -464
24z m409 -235 c466 -88 854 -426 1011 -879 74 -214 93 -456 48 -615 -96 -339
-340 -793 -925 -1715 -104 -165 -234 -371 -287 -458 l-97 -157 -23 37 c-12 21
-163 263 -334 538 -448 719 -587 957 -755 1295 -104 207 -173 378 -201 498
-39 160 -13 420 61 610 183 473 610 805 1108 862 99 11 291 4 394 -16z"/>
<path d="M2400 4150 c-227 -39 -444 -204 -544 -413 -57 -120 -71 -184 -70
-337 1 -118 4 -145 27 -215 43 -128 99 -220 191 -310 94 -92 164 -137 278
-177 303 -107 645 -8 844 245 106 136 158 288 157 462 -3 368 -244 665 -602
741 -70 15 -207 17 -281 4z m318 -238 c250 -95 401 -377 337 -627 -54 -213
-231 -374 -447 -407 -316 -48 -608 205 -608 527 0 231 132 422 353 507 99 39
261 39 365 0z"/>
</g>
</svg>
