<?xml version="1.0" encoding="UTF-8"?>
<svg xmlns="http://www.w3.org/2000/svg" xmlns:xlink="http://www.w3.org/1999/xlink" width="2400" height="2400" viewBox="0 0 2400 2400">
<defs>
<clipPath id="clip-0">
<path clip-rule="nonzero" d="M 61.726562 0 L 110.742188 0 L 110.742188 2400 L 61.726562 2400 Z M 61.726562 0 "/>
</clipPath>
<linearGradient id="linear-pattern-0" gradientUnits="userSpaceOnUse" x1="0.0740725" y1="0" x2="0.895127" y2="0" gradientTransform="matrix(39.9373, 2923.34, -2923.34, 39.9373, 67.6219, -216.66)">
<stop offset="0" stop-color="rgb(98.429871%, 98.429871%, 98.429871%)" stop-opacity="1"/>
<stop offset="0.5" stop-color="rgb(98.429871%, 98.429871%, 98.429871%)" stop-opacity="1"/>
<stop offset="0.5625" stop-color="rgb(98.429871%, 98.429871%, 98.429871%)" stop-opacity="1"/>
<stop offset="0.59375" stop-color="rgb(98.376465%, 98.376465%, 98.376465%)" stop-opacity="1"/>
<stop offset="0.625" stop-color="rgb(98.179626%, 98.179626%, 98.179626%)" stop-opacity="1"/>
<stop offset="0.75" stop-color="rgb(98.03772%, 98.03772%, 98.03772%)" stop-opacity="1"/>
<stop offset="1" stop-color="rgb(98.03772%, 98.03772%, 98.03772%)" stop-opacity="1"/>
</linearGradient>
<clipPath id="clip-1">
<path clip-rule="nonzero" d="M 167.796875 0 L 216.816406 0 L 216.816406 2400 L 167.796875 2400 Z M 167.796875 0 "/>
</clipPath>
<linearGradient id="linear-pattern-1" gradientUnits="userSpaceOnUse" x1="0.0740725" y1="0" x2="0.895127" y2="0" gradientTransform="matrix(39.9373, 2923.34, -2923.34, 39.9373, 173.695, -216.66)">
<stop offset="0" stop-color="rgb(98.429871%, 98.429871%, 98.429871%)" stop-opacity="1"/>
<stop offset="0.5" stop-color="rgb(98.429871%, 98.429871%, 98.429871%)" stop-opacity="1"/>
<stop offset="0.5625" stop-color="rgb(98.429871%, 98.429871%, 98.429871%)" stop-opacity="1"/>
<stop offset="0.59375" stop-color="rgb(98.376465%, 98.376465%, 98.376465%)" stop-opacity="1"/>
<stop offset="0.625" stop-color="rgb(98.179626%, 98.179626%, 98.179626%)" stop-opacity="1"/>
<stop offset="0.75" stop-color="rgb(98.03772%, 98.03772%, 98.03772%)" stop-opacity="1"/>
<stop offset="1" stop-color="rgb(98.03772%, 98.03772%, 98.03772%)" stop-opacity="1"/>
</linearGradient>
<clipPath id="clip-2">
<path clip-rule="nonzero" d="M 273.871094 0 L 322.890625 0 L 322.890625 2400 L 273.871094 2400 Z M 273.871094 0 "/>
</clipPath>
<linearGradient id="linear-pattern-2" gradientUnits="userSpaceOnUse" x1="0.0740725" y1="0" x2="0.895127" y2="0" gradientTransform="matrix(39.9373, 2923.34, -2923.34, 39.9373, 279.768, -216.66)">
<stop offset="0" stop-color="rgb(98.429871%, 98.429871%, 98.429871%)" stop-opacity="1"/>
<stop offset="0.5" stop-color="rgb(98.429871%, 98.429871%, 98.429871%)" stop-opacity="1"/>
<stop offset="0.5625" stop-color="rgb(98.429871%, 98.429871%, 98.429871%)" stop-opacity="1"/>
<stop offset="0.59375" stop-color="rgb(98.376465%, 98.376465%, 98.376465%)" stop-opacity="1"/>
<stop offset="0.625" stop-color="rgb(98.179626%, 98.179626%, 98.179626%)" stop-opacity="1"/>
<stop offset="0.75" stop-color="rgb(98.03772%, 98.03772%, 98.03772%)" stop-opacity="1"/>
<stop offset="1" stop-color="rgb(98.03772%, 98.03772%, 98.03772%)" stop-opacity="1"/>
</linearGradient>
<clipPath id="clip-3">
<path clip-rule="nonzero" d="M 379.945312 0 L 428.960938 0 L 428.960938 2400 L 379.945312 2400 Z M 379.945312 0 "/>
</clipPath>
<linearGradient id="linear-pattern-3" gradientUnits="userSpaceOnUse" x1="0.0740725" y1="0" x2="0.895127" y2="0" gradientTransform="matrix(39.9373, 2923.34, -2923.34, 39.9373, 385.841, -216.66)">
<stop offset="0" stop-color="rgb(98.429871%, 98.429871%, 98.429871%)" stop-opacity="1"/>
<stop offset="0.5" stop-color="rgb(98.429871%, 98.429871%, 98.429871%)" stop-opacity="1"/>
<stop offset="0.5625" stop-color="rgb(98.429871%, 98.429871%, 98.429871%)" stop-opacity="1"/>
<stop offset="0.59375" stop-color="rgb(98.376465%, 98.376465%, 98.376465%)" stop-opacity="1"/>
<stop offset="0.625" stop-color="rgb(98.179626%, 98.179626%, 98.179626%)" stop-opacity="1"/>
<stop offset="0.75" stop-color="rgb(98.03772%, 98.03772%, 98.03772%)" stop-opacity="1"/>
<stop offset="1" stop-color="rgb(98.03772%, 98.03772%, 98.03772%)" stop-opacity="1"/>
</linearGradient>
<clipPath id="clip-4">
<path clip-rule="nonzero" d="M 486.015625 0 L 535.035156 0 L 535.035156 2400 L 486.015625 2400 Z M 486.015625 0 "/>
</clipPath>
<linearGradient id="linear-pattern-4" gradientUnits="userSpaceOnUse" x1="0.0740725" y1="0" x2="0.895127" y2="0" gradientTransform="matrix(39.9373, 2923.34, -2923.34, 39.9373, 491.914, -216.66)">
<stop offset="0" stop-color="rgb(98.429871%, 98.429871%, 98.429871%)" stop-opacity="1"/>
<stop offset="0.5" stop-color="rgb(98.429871%, 98.429871%, 98.429871%)" stop-opacity="1"/>
<stop offset="0.5625" stop-color="rgb(98.429871%, 98.429871%, 98.429871%)" stop-opacity="1"/>
<stop offset="0.59375" stop-color="rgb(98.376465%, 98.376465%, 98.376465%)" stop-opacity="1"/>
<stop offset="0.625" stop-color="rgb(98.179626%, 98.179626%, 98.179626%)" stop-opacity="1"/>
<stop offset="0.75" stop-color="rgb(98.03772%, 98.03772%, 98.03772%)" stop-opacity="1"/>
<stop offset="1" stop-color="rgb(98.03772%, 98.03772%, 98.03772%)" stop-opacity="1"/>
</linearGradient>
<clipPath id="clip-5">
<path clip-rule="nonzero" d="M 592.089844 0 L 641.109375 0 L 641.109375 2400 L 592.089844 2400 Z M 592.089844 0 "/>
</clipPath>
<linearGradient id="linear-pattern-5" gradientUnits="userSpaceOnUse" x1="0.0740725" y1="0" x2="0.895127" y2="0" gradientTransform="matrix(39.9373, 2923.34, -2923.34, 39.9373, 597.987, -216.66)">
<stop offset="0" stop-color="rgb(98.429871%, 98.429871%, 98.429871%)" stop-opacity="1"/>
<stop offset="0.5" stop-color="rgb(98.429871%, 98.429871%, 98.429871%)" stop-opacity="1"/>
<stop offset="0.5625" stop-color="rgb(98.429871%, 98.429871%, 98.429871%)" stop-opacity="1"/>
<stop offset="0.59375" stop-color="rgb(98.376465%, 98.376465%, 98.376465%)" stop-opacity="1"/>
<stop offset="0.625" stop-color="rgb(98.179626%, 98.179626%, 98.179626%)" stop-opacity="1"/>
<stop offset="0.75" stop-color="rgb(98.03772%, 98.03772%, 98.03772%)" stop-opacity="1"/>
<stop offset="1" stop-color="rgb(98.03772%, 98.03772%, 98.03772%)" stop-opacity="1"/>
</linearGradient>
<clipPath id="clip-6">
<path clip-rule="nonzero" d="M 698.160156 0 L 747.179688 0 L 747.179688 2400 L 698.160156 2400 Z M 698.160156 0 "/>
</clipPath>
<linearGradient id="linear-pattern-6" gradientUnits="userSpaceOnUse" x1="0.0740725" y1="0" x2="0.895127" y2="0" gradientTransform="matrix(39.9373, 2923.34, -2923.34, 39.9373, 704.06, -216.66)">
<stop offset="0" stop-color="rgb(98.429871%, 98.429871%, 98.429871%)" stop-opacity="1"/>
<stop offset="0.5" stop-color="rgb(98.429871%, 98.429871%, 98.429871%)" stop-opacity="1"/>
<stop offset="0.5625" stop-color="rgb(98.429871%, 98.429871%, 98.429871%)" stop-opacity="1"/>
<stop offset="0.59375" stop-color="rgb(98.376465%, 98.376465%, 98.376465%)" stop-opacity="1"/>
<stop offset="0.625" stop-color="rgb(98.179626%, 98.179626%, 98.179626%)" stop-opacity="1"/>
<stop offset="0.75" stop-color="rgb(98.03772%, 98.03772%, 98.03772%)" stop-opacity="1"/>
<stop offset="1" stop-color="rgb(98.03772%, 98.03772%, 98.03772%)" stop-opacity="1"/>
</linearGradient>
<clipPath id="clip-7">
<path clip-rule="nonzero" d="M 804.234375 0 L 853.253906 0 L 853.253906 2400 L 804.234375 2400 Z M 804.234375 0 "/>
</clipPath>
<linearGradient id="linear-pattern-7" gradientUnits="userSpaceOnUse" x1="0.0740725" y1="0" x2="0.895127" y2="0" gradientTransform="matrix(39.9373, 2923.34, -2923.34, 39.9373, 810.133, -216.66)">
<stop offset="0" stop-color="rgb(98.429871%, 98.429871%, 98.429871%)" stop-opacity="1"/>
<stop offset="0.5" stop-color="rgb(98.429871%, 98.429871%, 98.429871%)" stop-opacity="1"/>
<stop offset="0.5625" stop-color="rgb(98.429871%, 98.429871%, 98.429871%)" stop-opacity="1"/>
<stop offset="0.59375" stop-color="rgb(98.376465%, 98.376465%, 98.376465%)" stop-opacity="1"/>
<stop offset="0.625" stop-color="rgb(98.179626%, 98.179626%, 98.179626%)" stop-opacity="1"/>
<stop offset="0.75" stop-color="rgb(98.03772%, 98.03772%, 98.03772%)" stop-opacity="1"/>
<stop offset="1" stop-color="rgb(98.03772%, 98.03772%, 98.03772%)" stop-opacity="1"/>
</linearGradient>
<clipPath id="clip-8">
<path clip-rule="nonzero" d="M 910.308594 0 L 959.328125 0 L 959.328125 2400 L 910.308594 2400 Z M 910.308594 0 "/>
</clipPath>
<linearGradient id="linear-pattern-8" gradientUnits="userSpaceOnUse" x1="0.0740725" y1="0" x2="0.895127" y2="0" gradientTransform="matrix(39.9373, 2923.34, -2923.34, 39.9373, 916.205, -216.66)">
<stop offset="0" stop-color="rgb(98.429871%, 98.429871%, 98.429871%)" stop-opacity="1"/>
<stop offset="0.5" stop-color="rgb(98.429871%, 98.429871%, 98.429871%)" stop-opacity="1"/>
<stop offset="0.5625" stop-color="rgb(98.429871%, 98.429871%, 98.429871%)" stop-opacity="1"/>
<stop offset="0.59375" stop-color="rgb(98.376465%, 98.376465%, 98.376465%)" stop-opacity="1"/>
<stop offset="0.625" stop-color="rgb(98.179626%, 98.179626%, 98.179626%)" stop-opacity="1"/>
<stop offset="0.75" stop-color="rgb(98.03772%, 98.03772%, 98.03772%)" stop-opacity="1"/>
<stop offset="1" stop-color="rgb(98.03772%, 98.03772%, 98.03772%)" stop-opacity="1"/>
</linearGradient>
<clipPath id="clip-9">
<path clip-rule="nonzero" d="M 1016.378906 0 L 1065.398438 0 L 1065.398438 2400 L 1016.378906 2400 Z M 1016.378906 0 "/>
</clipPath>
<linearGradient id="linear-pattern-9" gradientUnits="userSpaceOnUse" x1="0.0740725" y1="0" x2="0.895127" y2="0" gradientTransform="matrix(39.9373, 2923.34, -2923.34, 39.9373, 1022.28, -216.66)">
<stop offset="0" stop-color="rgb(98.429871%, 98.429871%, 98.429871%)" stop-opacity="1"/>
<stop offset="0.5" stop-color="rgb(98.429871%, 98.429871%, 98.429871%)" stop-opacity="1"/>
<stop offset="0.5625" stop-color="rgb(98.429871%, 98.429871%, 98.429871%)" stop-opacity="1"/>
<stop offset="0.59375" stop-color="rgb(98.376465%, 98.376465%, 98.376465%)" stop-opacity="1"/>
<stop offset="0.625" stop-color="rgb(98.179626%, 98.179626%, 98.179626%)" stop-opacity="1"/>
<stop offset="0.75" stop-color="rgb(98.03772%, 98.03772%, 98.03772%)" stop-opacity="1"/>
<stop offset="1" stop-color="rgb(98.03772%, 98.03772%, 98.03772%)" stop-opacity="1"/>
</linearGradient>
<clipPath id="clip-10">
<path clip-rule="nonzero" d="M 1122.449219 0 L 1171.46875 0 L 1171.46875 2400 L 1122.449219 2400 Z M 1122.449219 0 "/>
</clipPath>
<linearGradient id="linear-pattern-10" gradientUnits="userSpaceOnUse" x1="0.0740725" y1="0" x2="0.895127" y2="0" gradientTransform="matrix(39.9373, 2923.34, -2923.34, 39.9373, 1128.35, -216.66)">
<stop offset="0" stop-color="rgb(98.429871%, 98.429871%, 98.429871%)" stop-opacity="1"/>
<stop offset="0.5" stop-color="rgb(98.429871%, 98.429871%, 98.429871%)" stop-opacity="1"/>
<stop offset="0.5625" stop-color="rgb(98.429871%, 98.429871%, 98.429871%)" stop-opacity="1"/>
<stop offset="0.59375" stop-color="rgb(98.376465%, 98.376465%, 98.376465%)" stop-opacity="1"/>
<stop offset="0.625" stop-color="rgb(98.179626%, 98.179626%, 98.179626%)" stop-opacity="1"/>
<stop offset="0.75" stop-color="rgb(98.03772%, 98.03772%, 98.03772%)" stop-opacity="1"/>
<stop offset="1" stop-color="rgb(98.03772%, 98.03772%, 98.03772%)" stop-opacity="1"/>
</linearGradient>
<clipPath id="clip-11">
<path clip-rule="nonzero" d="M 1228.53125 0 L 1277.550781 0 L 1277.550781 2400 L 1228.53125 2400 Z M 1228.53125 0 "/>
</clipPath>
<linearGradient id="linear-pattern-11" gradientUnits="userSpaceOnUse" x1="0.0740725" y1="0" x2="0.895127" y2="0" gradientTransform="matrix(39.9373, 2923.34, -2923.34, 39.9373, 1234.42, -216.66)">
<stop offset="0" stop-color="rgb(98.429871%, 98.429871%, 98.429871%)" stop-opacity="1"/>
<stop offset="0.5" stop-color="rgb(98.429871%, 98.429871%, 98.429871%)" stop-opacity="1"/>
<stop offset="0.5625" stop-color="rgb(98.429871%, 98.429871%, 98.429871%)" stop-opacity="1"/>
<stop offset="0.59375" stop-color="rgb(98.376465%, 98.376465%, 98.376465%)" stop-opacity="1"/>
<stop offset="0.625" stop-color="rgb(98.179626%, 98.179626%, 98.179626%)" stop-opacity="1"/>
<stop offset="0.75" stop-color="rgb(98.03772%, 98.03772%, 98.03772%)" stop-opacity="1"/>
<stop offset="1" stop-color="rgb(98.03772%, 98.03772%, 98.03772%)" stop-opacity="1"/>
</linearGradient>
<clipPath id="clip-12">
<path clip-rule="nonzero" d="M 1334.601562 0 L 1383.621094 0 L 1383.621094 2400 L 1334.601562 2400 Z M 1334.601562 0 "/>
</clipPath>
<linearGradient id="linear-pattern-12" gradientUnits="userSpaceOnUse" x1="0.0740725" y1="0" x2="0.895127" y2="0" gradientTransform="matrix(39.9373, 2923.34, -2923.34, 39.9373, 1340.5, -216.66)">
<stop offset="0" stop-color="rgb(98.429871%, 98.429871%, 98.429871%)" stop-opacity="1"/>
<stop offset="0.5" stop-color="rgb(98.429871%, 98.429871%, 98.429871%)" stop-opacity="1"/>
<stop offset="0.5625" stop-color="rgb(98.429871%, 98.429871%, 98.429871%)" stop-opacity="1"/>
<stop offset="0.59375" stop-color="rgb(98.376465%, 98.376465%, 98.376465%)" stop-opacity="1"/>
<stop offset="0.625" stop-color="rgb(98.179626%, 98.179626%, 98.179626%)" stop-opacity="1"/>
<stop offset="0.75" stop-color="rgb(98.03772%, 98.03772%, 98.03772%)" stop-opacity="1"/>
<stop offset="1" stop-color="rgb(98.03772%, 98.03772%, 98.03772%)" stop-opacity="1"/>
</linearGradient>
<clipPath id="clip-13">
<path clip-rule="nonzero" d="M 1440.671875 0 L 1489.691406 0 L 1489.691406 2400 L 1440.671875 2400 Z M 1440.671875 0 "/>
</clipPath>
<linearGradient id="linear-pattern-13" gradientUnits="userSpaceOnUse" x1="0.0740725" y1="0" x2="0.895127" y2="0" gradientTransform="matrix(39.9373, 2923.34, -2923.34, 39.9373, 1446.57, -216.66)">
<stop offset="0" stop-color="rgb(98.429871%, 98.429871%, 98.429871%)" stop-opacity="1"/>
<stop offset="0.5" stop-color="rgb(98.429871%, 98.429871%, 98.429871%)" stop-opacity="1"/>
<stop offset="0.5625" stop-color="rgb(98.429871%, 98.429871%, 98.429871%)" stop-opacity="1"/>
<stop offset="0.59375" stop-color="rgb(98.376465%, 98.376465%, 98.376465%)" stop-opacity="1"/>
<stop offset="0.625" stop-color="rgb(98.179626%, 98.179626%, 98.179626%)" stop-opacity="1"/>
<stop offset="0.75" stop-color="rgb(98.03772%, 98.03772%, 98.03772%)" stop-opacity="1"/>
<stop offset="1" stop-color="rgb(98.03772%, 98.03772%, 98.03772%)" stop-opacity="1"/>
</linearGradient>
<clipPath id="clip-14">
<path clip-rule="nonzero" d="M 1546.75 0 L 1595.761719 0 L 1595.761719 2400 L 1546.75 2400 Z M 1546.75 0 "/>
</clipPath>
<linearGradient id="linear-pattern-14" gradientUnits="userSpaceOnUse" x1="0.0740725" y1="0" x2="0.895127" y2="0" gradientTransform="matrix(39.9373, 2923.34, -2923.34, 39.9373, 1552.64, -216.66)">
<stop offset="0" stop-color="rgb(98.429871%, 98.429871%, 98.429871%)" stop-opacity="1"/>
<stop offset="0.5" stop-color="rgb(98.429871%, 98.429871%, 98.429871%)" stop-opacity="1"/>
<stop offset="0.5625" stop-color="rgb(98.429871%, 98.429871%, 98.429871%)" stop-opacity="1"/>
<stop offset="0.59375" stop-color="rgb(98.376465%, 98.376465%, 98.376465%)" stop-opacity="1"/>
<stop offset="0.625" stop-color="rgb(98.179626%, 98.179626%, 98.179626%)" stop-opacity="1"/>
<stop offset="0.75" stop-color="rgb(98.03772%, 98.03772%, 98.03772%)" stop-opacity="1"/>
<stop offset="1" stop-color="rgb(98.03772%, 98.03772%, 98.03772%)" stop-opacity="1"/>
</linearGradient>
<clipPath id="clip-15">
<path clip-rule="nonzero" d="M 1652.820312 0 L 1701.839844 0 L 1701.839844 2400 L 1652.820312 2400 Z M 1652.820312 0 "/>
</clipPath>
<linearGradient id="linear-pattern-15" gradientUnits="userSpaceOnUse" x1="0.0740725" y1="0" x2="0.895127" y2="0" gradientTransform="matrix(39.9373, 2923.34, -2923.34, 39.9373, 1658.72, -216.66)">
<stop offset="0" stop-color="rgb(98.429871%, 98.429871%, 98.429871%)" stop-opacity="1"/>
<stop offset="0.5" stop-color="rgb(98.429871%, 98.429871%, 98.429871%)" stop-opacity="1"/>
<stop offset="0.5625" stop-color="rgb(98.429871%, 98.429871%, 98.429871%)" stop-opacity="1"/>
<stop offset="0.59375" stop-color="rgb(98.376465%, 98.376465%, 98.376465%)" stop-opacity="1"/>
<stop offset="0.625" stop-color="rgb(98.179626%, 98.179626%, 98.179626%)" stop-opacity="1"/>
<stop offset="0.75" stop-color="rgb(98.03772%, 98.03772%, 98.03772%)" stop-opacity="1"/>
<stop offset="1" stop-color="rgb(98.03772%, 98.03772%, 98.03772%)" stop-opacity="1"/>
</linearGradient>
<clipPath id="clip-16">
<path clip-rule="nonzero" d="M 1758.890625 0 L 1807.910156 0 L 1807.910156 2400 L 1758.890625 2400 Z M 1758.890625 0 "/>
</clipPath>
<linearGradient id="linear-pattern-16" gradientUnits="userSpaceOnUse" x1="0.0740725" y1="0" x2="0.895127" y2="0" gradientTransform="matrix(39.9373, 2923.34, -2923.34, 39.9373, 1764.79, -216.66)">
<stop offset="0" stop-color="rgb(98.429871%, 98.429871%, 98.429871%)" stop-opacity="1"/>
<stop offset="0.5" stop-color="rgb(98.429871%, 98.429871%, 98.429871%)" stop-opacity="1"/>
<stop offset="0.5625" stop-color="rgb(98.429871%, 98.429871%, 98.429871%)" stop-opacity="1"/>
<stop offset="0.59375" stop-color="rgb(98.376465%, 98.376465%, 98.376465%)" stop-opacity="1"/>
<stop offset="0.625" stop-color="rgb(98.179626%, 98.179626%, 98.179626%)" stop-opacity="1"/>
<stop offset="0.75" stop-color="rgb(98.03772%, 98.03772%, 98.03772%)" stop-opacity="1"/>
<stop offset="1" stop-color="rgb(98.03772%, 98.03772%, 98.03772%)" stop-opacity="1"/>
</linearGradient>
<clipPath id="clip-17">
<path clip-rule="nonzero" d="M 1864.960938 0 L 1913.980469 0 L 1913.980469 2400 L 1864.960938 2400 Z M 1864.960938 0 "/>
</clipPath>
<linearGradient id="linear-pattern-17" gradientUnits="userSpaceOnUse" x1="0.0740725" y1="0" x2="0.895127" y2="0" gradientTransform="matrix(39.9373, 2923.34, -2923.34, 39.9373, 1870.86, -216.66)">
<stop offset="0" stop-color="rgb(98.429871%, 98.429871%, 98.429871%)" stop-opacity="1"/>
<stop offset="0.5" stop-color="rgb(98.429871%, 98.429871%, 98.429871%)" stop-opacity="1"/>
<stop offset="0.5625" stop-color="rgb(98.429871%, 98.429871%, 98.429871%)" stop-opacity="1"/>
<stop offset="0.59375" stop-color="rgb(98.376465%, 98.376465%, 98.376465%)" stop-opacity="1"/>
<stop offset="0.625" stop-color="rgb(98.179626%, 98.179626%, 98.179626%)" stop-opacity="1"/>
<stop offset="0.75" stop-color="rgb(98.03772%, 98.03772%, 98.03772%)" stop-opacity="1"/>
<stop offset="1" stop-color="rgb(98.03772%, 98.03772%, 98.03772%)" stop-opacity="1"/>
</linearGradient>
<clipPath id="clip-18">
<path clip-rule="nonzero" d="M 1971.039062 0 L 2020.058594 0 L 2020.058594 2400 L 1971.039062 2400 Z M 1971.039062 0 "/>
</clipPath>
<linearGradient id="linear-pattern-18" gradientUnits="userSpaceOnUse" x1="0.0740725" y1="0" x2="0.895127" y2="0" gradientTransform="matrix(39.9373, 2923.34, -2923.34, 39.9373, 1976.93, -216.66)">
<stop offset="0" stop-color="rgb(98.429871%, 98.429871%, 98.429871%)" stop-opacity="1"/>
<stop offset="0.5" stop-color="rgb(98.429871%, 98.429871%, 98.429871%)" stop-opacity="1"/>
<stop offset="0.5625" stop-color="rgb(98.429871%, 98.429871%, 98.429871%)" stop-opacity="1"/>
<stop offset="0.59375" stop-color="rgb(98.376465%, 98.376465%, 98.376465%)" stop-opacity="1"/>
<stop offset="0.625" stop-color="rgb(98.179626%, 98.179626%, 98.179626%)" stop-opacity="1"/>
<stop offset="0.75" stop-color="rgb(98.03772%, 98.03772%, 98.03772%)" stop-opacity="1"/>
<stop offset="1" stop-color="rgb(98.03772%, 98.03772%, 98.03772%)" stop-opacity="1"/>
</linearGradient>
<clipPath id="clip-19">
<path clip-rule="nonzero" d="M 2077.109375 0 L 2126.128906 0 L 2126.128906 2400 L 2077.109375 2400 Z M 2077.109375 0 "/>
</clipPath>
<linearGradient id="linear-pattern-19" gradientUnits="userSpaceOnUse" x1="0.0740725" y1="0" x2="0.895127" y2="0" gradientTransform="matrix(39.9373, 2923.34, -2923.34, 39.9373, 2083.01, -216.66)">
<stop offset="0" stop-color="rgb(98.429871%, 98.429871%, 98.429871%)" stop-opacity="1"/>
<stop offset="0.5" stop-color="rgb(98.429871%, 98.429871%, 98.429871%)" stop-opacity="1"/>
<stop offset="0.5625" stop-color="rgb(98.429871%, 98.429871%, 98.429871%)" stop-opacity="1"/>
<stop offset="0.59375" stop-color="rgb(98.376465%, 98.376465%, 98.376465%)" stop-opacity="1"/>
<stop offset="0.625" stop-color="rgb(98.179626%, 98.179626%, 98.179626%)" stop-opacity="1"/>
<stop offset="0.75" stop-color="rgb(98.03772%, 98.03772%, 98.03772%)" stop-opacity="1"/>
<stop offset="1" stop-color="rgb(98.03772%, 98.03772%, 98.03772%)" stop-opacity="1"/>
</linearGradient>
<clipPath id="clip-20">
<path clip-rule="nonzero" d="M 2183.179688 0 L 2232.199219 0 L 2232.199219 2400 L 2183.179688 2400 Z M 2183.179688 0 "/>
</clipPath>
<linearGradient id="linear-pattern-20" gradientUnits="userSpaceOnUse" x1="0.0740725" y1="0" x2="0.895127" y2="0" gradientTransform="matrix(39.9373, 2923.34, -2923.34, 39.9373, 2189.08, -216.66)">
<stop offset="0" stop-color="rgb(98.429871%, 98.429871%, 98.429871%)" stop-opacity="1"/>
<stop offset="0.5" stop-color="rgb(98.429871%, 98.429871%, 98.429871%)" stop-opacity="1"/>
<stop offset="0.5625" stop-color="rgb(98.429871%, 98.429871%, 98.429871%)" stop-opacity="1"/>
<stop offset="0.59375" stop-color="rgb(98.376465%, 98.376465%, 98.376465%)" stop-opacity="1"/>
<stop offset="0.625" stop-color="rgb(98.179626%, 98.179626%, 98.179626%)" stop-opacity="1"/>
<stop offset="0.75" stop-color="rgb(98.03772%, 98.03772%, 98.03772%)" stop-opacity="1"/>
<stop offset="1" stop-color="rgb(98.03772%, 98.03772%, 98.03772%)" stop-opacity="1"/>
</linearGradient>
<clipPath id="clip-21">
<path clip-rule="nonzero" d="M 2289.261719 0 L 2338.269531 0 L 2338.269531 2400 L 2289.261719 2400 Z M 2289.261719 0 "/>
</clipPath>
<linearGradient id="linear-pattern-21" gradientUnits="userSpaceOnUse" x1="0.0740725" y1="0" x2="0.895127" y2="0" gradientTransform="matrix(39.9373, 2923.34, -2923.34, 39.9373, 2295.15, -216.66)">
<stop offset="0" stop-color="rgb(98.429871%, 98.429871%, 98.429871%)" stop-opacity="1"/>
<stop offset="0.5" stop-color="rgb(98.429871%, 98.429871%, 98.429871%)" stop-opacity="1"/>
<stop offset="0.5625" stop-color="rgb(98.429871%, 98.429871%, 98.429871%)" stop-opacity="1"/>
<stop offset="0.59375" stop-color="rgb(98.376465%, 98.376465%, 98.376465%)" stop-opacity="1"/>
<stop offset="0.625" stop-color="rgb(98.179626%, 98.179626%, 98.179626%)" stop-opacity="1"/>
<stop offset="0.75" stop-color="rgb(98.03772%, 98.03772%, 98.03772%)" stop-opacity="1"/>
<stop offset="1" stop-color="rgb(98.03772%, 98.03772%, 98.03772%)" stop-opacity="1"/>
</linearGradient>
</defs>
<rect x="-240" y="-240" width="2880" height="2880" fill="rgb(100%, 100%, 100%)" fill-opacity="1"/>
<rect x="-240" y="-240" width="2880" height="2880" fill="rgb(100%, 100%, 100%)" fill-opacity="1"/>
<g clip-path="url(#clip-0)">
<path fill-rule="nonzero" fill="url(#linear-pattern-0)" d="M 110.734375 -0.667969 L 28.945312 0.449219 L 61.734375 2400.667969 L 143.523438 2399.550781 Z M 110.734375 -0.667969 "/>
</g>
<g clip-path="url(#clip-1)">
<path fill-rule="nonzero" fill="url(#linear-pattern-1)" d="M 216.808594 -0.667969 L 135.015625 0.449219 L 167.808594 2400.667969 L 249.597656 2399.550781 Z M 216.808594 -0.667969 "/>
</g>
<g clip-path="url(#clip-2)">
<path fill-rule="nonzero" fill="url(#linear-pattern-2)" d="M 322.878906 -0.667969 L 241.089844 0.449219 L 273.878906 2400.667969 L 355.671875 2399.550781 Z M 322.878906 -0.667969 "/>
</g>
<g clip-path="url(#clip-3)">
<path fill-rule="nonzero" fill="url(#linear-pattern-3)" d="M 428.953125 -0.667969 L 347.164062 0.449219 L 379.953125 2400.667969 L 461.742188 2399.550781 Z M 428.953125 -0.667969 "/>
</g>
<g clip-path="url(#clip-4)">
<path fill-rule="nonzero" fill="url(#linear-pattern-4)" d="M 535.027344 -0.667969 L 453.234375 0.449219 L 486.027344 2400.667969 L 567.816406 2399.550781 Z M 535.027344 -0.667969 "/>
</g>
<g clip-path="url(#clip-5)">
<path fill-rule="nonzero" fill="url(#linear-pattern-5)" d="M 641.097656 -0.667969 L 559.308594 0.449219 L 592.097656 2400.667969 L 673.890625 2399.550781 Z M 641.097656 -0.667969 "/>
</g>
<g clip-path="url(#clip-6)">
<path fill-rule="nonzero" fill="url(#linear-pattern-6)" d="M 747.171875 -0.667969 L 665.378906 0.449219 L 698.171875 2400.667969 L 779.960938 2399.550781 Z M 747.171875 -0.667969 "/>
</g>
<g clip-path="url(#clip-7)">
<path fill-rule="nonzero" fill="url(#linear-pattern-7)" d="M 853.246094 -0.667969 L 771.453125 0.449219 L 804.246094 2400.667969 L 886.035156 2399.550781 Z M 853.246094 -0.667969 "/>
</g>
<g clip-path="url(#clip-8)">
<path fill-rule="nonzero" fill="url(#linear-pattern-8)" d="M 959.316406 -0.667969 L 877.527344 0.449219 L 910.316406 2400.667969 L 992.109375 2399.550781 Z M 959.316406 -0.667969 "/>
</g>
<g clip-path="url(#clip-9)">
<path fill-rule="nonzero" fill="url(#linear-pattern-9)" d="M 1065.390625 -0.667969 L 983.597656 0.449219 L 1016.390625 2400.667969 L 1098.179688 2399.550781 Z M 1065.390625 -0.667969 "/>
</g>
<g clip-path="url(#clip-10)">
<path fill-rule="nonzero" fill="url(#linear-pattern-10)" d="M 1171.460938 -0.667969 L 1089.667969 0.449219 L 1122.460938 2400.667969 L 1204.25 2399.550781 Z M 1171.460938 -0.667969 "/>
</g>
<g clip-path="url(#clip-11)">
<path fill-rule="nonzero" fill="url(#linear-pattern-11)" d="M 1277.539062 -0.667969 L 1195.75 0.449219 L 1228.539062 2400.667969 L 1310.332031 2399.550781 Z M 1277.539062 -0.667969 "/>
</g>
<g clip-path="url(#clip-12)">
<path fill-rule="nonzero" fill="url(#linear-pattern-12)" d="M 1383.609375 -0.667969 L 1301.820312 0.449219 L 1334.609375 2400.667969 L 1416.402344 2399.550781 Z M 1383.609375 -0.667969 "/>
</g>
<g clip-path="url(#clip-13)">
<path fill-rule="nonzero" fill="url(#linear-pattern-13)" d="M 1489.679688 -0.667969 L 1407.886719 0.449219 L 1440.679688 2400.667969 L 1522.472656 2399.550781 Z M 1489.679688 -0.667969 "/>
</g>
<g clip-path="url(#clip-14)">
<path fill-rule="nonzero" fill="url(#linear-pattern-14)" d="M 1595.75 -0.667969 L 1513.96875 0.449219 L 1546.757812 2400.667969 L 1628.542969 2399.550781 Z M 1595.75 -0.667969 "/>
</g>
<g clip-path="url(#clip-15)">
<path fill-rule="nonzero" fill="url(#linear-pattern-15)" d="M 1701.832031 -0.667969 L 1620.039062 0.449219 L 1652.828125 2400.667969 L 1734.621094 2399.550781 Z M 1701.832031 -0.667969 "/>
</g>
<g clip-path="url(#clip-16)">
<path fill-rule="nonzero" fill="url(#linear-pattern-16)" d="M 1807.902344 -0.667969 L 1726.109375 0.449219 L 1758.898438 2400.667969 L 1840.691406 2399.550781 Z M 1807.902344 -0.667969 "/>
</g>
<g clip-path="url(#clip-17)">
<path fill-rule="nonzero" fill="url(#linear-pattern-17)" d="M 1913.972656 -0.667969 L 1832.179688 0.449219 L 1864.96875 2400.667969 L 1946.761719 2399.550781 Z M 1913.972656 -0.667969 "/>
</g>
<g clip-path="url(#clip-18)">
<path fill-rule="nonzero" fill="url(#linear-pattern-18)" d="M 2020.050781 -0.667969 L 1938.257812 0.449219 L 1971.050781 2400.667969 L 2052.839844 2399.550781 Z M 2020.050781 -0.667969 "/>
</g>
<g clip-path="url(#clip-19)">
<path fill-rule="nonzero" fill="url(#linear-pattern-19)" d="M 2126.121094 -0.667969 L 2044.328125 0.449219 L 2077.121094 2400.667969 L 2158.910156 2399.550781 Z M 2126.121094 -0.667969 "/>
</g>
<g clip-path="url(#clip-20)">
<path fill-rule="nonzero" fill="url(#linear-pattern-20)" d="M 2232.191406 -0.667969 L 2150.398438 0.449219 L 2183.1875 2400.667969 L 2264.980469 2399.550781 Z M 2232.191406 -0.667969 "/>
</g>
<g clip-path="url(#clip-21)">
<path fill-rule="nonzero" fill="url(#linear-pattern-21)" d="M 2338.261719 -0.667969 L 2256.476562 0.449219 L 2289.269531 2400.667969 L 2371.050781 2399.550781 Z M 2338.261719 -0.667969 "/>
</g>
<path fill-rule="nonzero" fill="rgb(4.704285%, 9.008789%, 33.714294%)" fill-opacity="1" d="M 2301.53125 946.871094 C 2300.410156 944.308594 2299.339844 941.609375 2298.300781 938.988281 C 2294.410156 929.210938 2290.398438 919.101562 2282.410156 911.609375 C 2278.890625 901.398438 2275.699219 892.910156 2270.03125 884.78125 L 2269.421875 883.898438 L 2268.359375 883.738281 C 2257.839844 882.148438 2248.128906 883.550781 2238.691406 888.019531 C 2226.789062 889.53125 2214.699219 891.140625 2203.011719 892.699219 C 2193.261719 894 2183.191406 895.339844 2173.28125 896.609375 C 2124.398438 886.460938 2079 868.390625 2038.339844 842.898438 L 2037.839844 842.589844 L 2037.25 842.53125 C 2030.539062 841.878906 2023.75 841.078125 2017.171875 840.308594 C 1995.660156 837.789062 1973.429688 835.171875 1950.980469 837.511719 C 1950.398438 837.101562 1949.808594 836.699219 1949.21875 836.300781 C 1945.960938 834.089844 1942.871094 832 1941.339844 828.78125 C 1941 820.648438 1940.570312 812.300781 1940.148438 804.230469 C 1939.789062 797.191406 1939.421875 789.921875 1939.101562 782.75 C 1941.539062 771.761719 1943.96875 761.03125 1946.839844 750.570312 C 1948.921875 748.898438 1951.179688 747.371094 1953.371094 745.878906 C 1958.308594 742.519531 1963.421875 739.050781 1967.140625 733.679688 L 1967.320312 733.421875 L 1967.429688 733.121094 C 1971.691406 721.640625 1976.140625 709.269531 1979.898438 696.46875 C 1989.679688 688.78125 1997.738281 679.269531 2005.53125 670.058594 C 2007.339844 667.921875 2009.140625 665.789062 2010.96875 663.679688 L 2011.800781 662.710938 L 2011.511719 661.46875 C 2010.851562 658.640625 2010.300781 655.640625 2009.769531 652.730469 C 2007.761719 641.761719 2005.671875 630.410156 1997.140625 622.148438 L 1995.871094 620.929688 L 1994.289062 621.710938 C 1972.320312 632.558594 1953.269531 633.648438 1936.050781 625.019531 L 1935.519531 624.761719 L 1934.921875 624.761719 C 1923.898438 624.800781 1914.371094 627.230469 1905.820312 632.199219 C 1893.699219 632.179688 1881.429688 632.410156 1868.890625 632.671875 C 1863.738281 628.761719 1858.648438 624.441406 1853.71875 620.261719 C 1838.480469 607.308594 1822.730469 593.929688 1802.128906 589.921875 C 1797.769531 584.171875 1792.371094 580.269531 1786.671875 576.148438 C 1785.828125 575.539062 1784.980469 574.929688 1784.121094 574.300781 L 1783.488281 573.839844 L 1782.710938 573.820312 C 1777.871094 573.691406 1773.039062 573.980469 1768.371094 574.25 C 1757.929688 574.859375 1748.070312 575.429688 1738.5 571.75 C 1728.488281 566.808594 1718.871094 563.21875 1709.898438 561.089844 C 1699.691406 553.941406 1685.890625 552.871094 1673.75 558.339844 L 1673.179688 558.589844 L 1672.800781 559.078125 C 1671.96875 560.171875 1671.171875 561.261719 1670.378906 562.351562 C 1667.75 565.960938 1665.261719 569.378906 1661.679688 571.589844 C 1659.828125 571.699219 1658.019531 571.859375 1656.261719 572.019531 C 1654.371094 572.179688 1652.410156 572.359375 1650.441406 572.460938 L 1649.488281 572.511719 L 1648.820312 573.171875 C 1642.578125 579.320312 1633.828125 582.699219 1624.140625 582.699219 L 1624.121094 582.699219 C 1622.519531 582.28125 1620.898438 581.761719 1619.191406 581.21875 C 1613.070312 579.28125 1606.730469 577.269531 1600.058594 579.179688 L 1599.53125 579.328125 L 1599.121094 579.679688 C 1594.570312 583.589844 1591.261719 588.421875 1588.058594 593.089844 L 1587.449219 593.96875 C 1585.359375 594.988281 1583.371094 595.871094 1581.160156 596.769531 C 1577.628906 595.929688 1574.46875 594.328125 1571.140625 592.640625 C 1567.460938 590.769531 1563.660156 588.828125 1559.179688 587.910156 C 1548.898438 583.960938 1541.320312 576.78125 1534.671875 569.550781 C 1532.878906 564.179688 1531.140625 558.710938 1529.449219 553.410156 C 1528.230469 549.550781 1526.988281 545.671875 1525.710938 541.75 L 1525.230469 540.261719 L 1523.671875 540.039062 C 1507.488281 537.820312 1490.101562 534.769531 1468.960938 530.421875 L 1468.871094 530.398438 C 1448.621094 527.011719 1447.089844 525.691406 1432.410156 512.980469 L 1429.140625 510.160156 L 1428.089844 510.25 C 1416.28125 511.289062 1404.949219 518.238281 1395.28125 530.359375 C 1382.351562 534.261719 1370.050781 535.511719 1357.699219 534.179688 L 1357.339844 534.140625 L 1355.488281 534.480469 C 1344.75 536.441406 1333.648438 538.460938 1322.761719 541.5 C 1311.300781 535.140625 1298.820312 535.679688 1286.75 536.210938 C 1286.21875 536.230469 1285.679688 536.261719 1285.140625 536.28125 C 1284.058594 534.640625 1282.96875 533.039062 1281.878906 531.441406 C 1280.519531 529.441406 1279.160156 527.429688 1277.789062 525.351562 L 1277.261719 524.539062 L 1276.328125 524.300781 C 1272.960938 523.441406 1269.339844 522.859375 1265.851562 522.308594 L 1264.578125 522.109375 L 1263.679688 523.019531 C 1262.121094 524.601562 1260.578125 526.25 1259.078125 527.851562 C 1252.75 534.628906 1246.71875 541.070312 1238.558594 543.910156 L 1238.460938 543.101562 L 1236.269531 543.839844 L 1235.75 542.441406 L 1234.171875 542.300781 C 1232.5 542.160156 1230.820312 542.089844 1229.199219 542.019531 C 1228.070312 541.96875 1226.921875 541.921875 1225.769531 541.839844 C 1219.699219 531.070312 1212.199219 520.988281 1204.941406 511.230469 C 1200.160156 504.820312 1195.230469 498.191406 1190.800781 491.488281 L 1190.628906 491.230469 L 1190.390625 491.011719 C 1178.121094 479.878906 1162.078125 479.980469 1146.570312 480.058594 C 1143.96875 480.070312 1141.5 480.089844 1139.050781 480.050781 C 1122.878906 468.011719 1112.300781 455.578125 1106.730469 442.050781 C 1105.71875 438.109375 1106.070312 434.089844 1106.441406 429.839844 C 1106.910156 424.449219 1107.390625 418.871094 1104.988281 413.289062 L 1104.28125 411.648438 L 1092.46875 412.578125 C 1091.761719 411.769531 1091.078125 410.890625 1090.421875 410.03125 C 1090.210938 409.75 1090 409.46875 1089.78125 409.199219 C 1090.980469 393.460938 1088.960938 388.28125 1085.359375 379.03125 C 1084.128906 375.859375 1082.730469 372.261719 1081.160156 367.511719 L 1080.539062 365.601562 L 1078.539062 365.800781 C 1074.011719 366.261719 1069.351562 366.789062 1064.828125 367.308594 C 1060.878906 367.769531 1056.789062 368.230469 1052.808594 368.648438 C 1045.039062 362.671875 1039.070312 355.21875 1034.230469 348.660156 C 1032.699219 345.761719 1031.441406 342.671875 1030.121094 339.410156 C 1027.910156 333.960938 1025.628906 328.328125 1021.929688 323.601562 L 1021.109375 322.558594 L 1019.800781 322.648438 C 1017.320312 322.808594 1014.78125 322.910156 1012.328125 323 C 1009.808594 323.089844 1007.210938 323.191406 1004.640625 323.359375 L 1003.648438 323.421875 L 1002.96875 324.148438 C 998.355469 329.101562 994.613281 332.960938 991.253906 336.210938 C 989.953125 336.308594 988.601562 336.378906 987.1875 336.460938 C 985.847656 336.53125 984.472656 336.601562 983.082031 336.710938 C 971.644531 326.730469 959.523438 318.089844 947.035156 311 L 946.445312 310.660156 L 945.765625 310.671875 C 931.539062 310.878906 919.214844 317.390625 907.296875 323.691406 C 898.207031 328.488281 888.808594 333.460938 878.871094 335.339844 L 877.980469 335.511719 L 876.804688 336.941406 C 869.800781 345.460938 862.566406 354.261719 851.847656 356.429688 C 844.601562 350.121094 837.574219 345.539062 830.398438 342.460938 L 829.71875 342.171875 L 828.992188 342.289062 C 816.601562 344.410156 806.257812 351.570312 796.253906 358.511719 C 792.609375 361.03125 788.835938 363.648438 785.082031 365.921875 L 784.386719 366.339844 L 784.070312 367.089844 C 780.035156 376.75 775.730469 383.890625 770.210938 390.058594 C 759.773438 388.839844 749.488281 387.121094 739.621094 384.96875 L 739.273438 384.890625 L 738.921875 384.910156 C 730.410156 385.488281 721.914062 386.789062 713.703125 388.050781 C 697.8125 390.480469 682.792969 392.78125 667.222656 390.390625 C 659.917969 385.769531 656.554688 377.769531 652.996094 369.300781 C 652.28125 367.601562 651.566406 365.898438 650.824219 364.25 L 650.753906 364.101562 C 649.96875 362.609375 649.1875 361.109375 648.40625 359.601562 C 643.585938 350.308594 638.601562 340.710938 631.582031 332.671875 L 630.949219 331.949219 L 629.992188 331.839844 C 620.628906 330.738281 613.234375 330.878906 605.316406 335.011719 L 604.671875 335.339844 L 600.691406 342.199219 L 597.046875 342.21875 C 580.394531 342.308594 563.175781 342.410156 546.339844 345.160156 L 545.289062 345.339844 L 544.6875 346.210938 C 544.28125 346.800781 543.84375 347.390625 543.394531 347.988281 C 542.550781 349.121094 541.679688 350.28125 540.878906 351.609375 L 540.503906 352.238281 L 540.519531 352.960938 C 540.769531 363.171875 540.820312 373.988281 538.566406 384.390625 C 536.453125 386.28125 534.347656 388.128906 532.050781 389.949219 L 531.429688 390.441406 L 531.203125 391.199219 C 529.492188 396.949219 529.875 402.601562 530.246094 408.058594 C 530.511719 412 530.765625 415.71875 530.285156 419.578125 C 529.5625 427.808594 527.078125 432.96875 521.710938 437.378906 L 521.433594 437.601562 L 521.230469 437.898438 C 518.308594 442.191406 514.425781 447.648438 510.0625 452.28125 L 501.007812 454.210938 L 500.449219 454.921875 C 495.789062 460.859375 492.140625 465.421875 487.597656 469.980469 L 486.941406 470.640625 L 486.875 471.558594 C 486.242188 480.390625 482.714844 488.140625 478.976562 496.339844 C 478.351562 497.710938 477.722656 499.089844 477.109375 500.46875 L 476.828125 501.101562 L 476.910156 501.789062 C 477.097656 503.339844 477.28125 504.960938 477.46875 506.578125 C 477.664062 508.328125 477.863281 510.070312 478.066406 511.738281 L 478.1875 512.730469 L 478.945312 513.359375 C 485.972656 519.230469 489.894531 527.710938 490.046875 537.289062 C 488.738281 539.109375 487.425781 541.121094 486.148438 543.070312 L 485.773438 543.648438 L 485.746094 544.328125 C 485.667969 546.179688 485.523438 548.011719 485.382812 549.78125 C 485.238281 551.601562 485.089844 553.488281 485.007812 555.429688 L 484.941406 556.96875 L 486.285156 557.71875 C 488.859375 559.160156 491.289062 560.730469 493.855469 562.390625 C 494.632812 562.898438 495.410156 563.398438 496.199219 563.910156 C 496.363281 564.378906 496.519531 564.851562 496.679688 565.320312 C 498.203125 569.820312 499.773438 574.46875 503.34375 578.300781 C 504.300781 590.648438 506.113281 605.011719 511.921875 618.808594 L 512.097656 619.21875 L 512.402344 619.550781 C 516.074219 623.460938 518.402344 628.089844 520.085938 634.878906 C 517.96875 637.5 515.835938 640.109375 513.699219 642.71875 C 500.140625 659.320312 486.121094 676.488281 475.191406 695.320312 L 474.363281 696.738281 L 475.027344 697.640625 C 467.277344 697.808594 459.347656 697.980469 451.636719 698.160156 L 450.726562 698.179688 L 450.039062 698.78125 C 448.808594 699.859375 447.542969 700.910156 446.316406 701.921875 C 445.277344 702.78125 444.207031 703.671875 443.132812 704.601562 C 440.378906 704.789062 437.652344 705.039062 435.007812 705.289062 C 432.160156 705.550781 429.214844 705.820312 426.265625 706.019531 L 424.796875 706.121094 L 424.171875 707.449219 C 421.265625 713.671875 418.601562 720.171875 416.023438 726.46875 C 409.265625 733.648438 400.929688 732.808594 391.296875 731.839844 C 386.789062 731.378906 382.128906 730.910156 377.511719 731.339844 C 365.238281 726.789062 352.652344 727.328125 340.472656 727.859375 C 337.207031 728 333.832031 728.148438 330.492188 728.199219 L 328.109375 728.230469 L 328.03125 730.609375 C 327.59375 743.910156 326.472656 757.769531 318.179688 768.289062 L 317.789062 768.789062 L 317.679688 769.410156 C 317.433594 770.851562 317.191406 772.28125 316.953125 773.710938 C 315.355469 783.320312 313.84375 792.390625 309.628906 800.769531 C 301.738281 809.410156 293.132812 816.269531 283.332031 821.769531 L 282.96875 822.011719 C 279.210938 825.089844 275.863281 828.710938 272.621094 832.199219 C 267.707031 837.511719 263.0625 842.519531 257.195312 845.699219 L 256.671875 845.851562 C 251.164062 847.460938 244.929688 849.28125 239.738281 852.371094 L 239.109375 852.738281 L 238.78125 853.390625 C 236.394531 858.160156 235.753906 863.230469 235.132812 868.140625 C 234.671875 871.761719 234.238281 875.191406 233.152344 878.460938 C 224.613281 888.480469 232.976562 898.351562 236.820312 902.761719 C 240.226562 908.78125 243.929688 915.109375 248.4375 920.769531 C 252.414062 926.660156 256.394531 932.699219 260.242188 938.539062 C 263.371094 943.289062 266.605469 948.199219 269.824219 953 L 270.058594 953.351562 L 270.394531 953.609375 C 282.441406 962.71875 294.429688 964.519531 304.058594 965.96875 C 314.890625 967.589844 322.046875 968.671875 324.597656 978.621094 L 324.699219 978.941406 C 331.058594 994.679688 326.65625 1011.371094 314 1019.511719 L 313.65625 1019.738281 L 313.402344 1020.050781 C 306.664062 1028.488281 296.394531 1032.921875 286.464844 1037.210938 C 284.148438 1038.210938 281.757812 1039.238281 279.441406 1040.308594 L 279.296875 1040.378906 C 272.234375 1044.230469 263.914062 1048.25 253.863281 1052.679688 C 237.125 1054.820312 227.089844 1066.921875 217.378906 1078.628906 C 216.113281 1080.160156 214.851562 1081.679688 213.574219 1083.179688 L 213.3125 1083.488281 L 213.160156 1083.859375 C 208.371094 1095.738281 202.542969 1107.390625 196.90625 1118.660156 C 192.785156 1126.898438 188.523438 1135.410156 184.710938 1143.941406 L 184.445312 1144.53125 L 184.503906 1145.179688 C 185.441406 1155.75 185.679688 1167 185.234375 1179.539062 C 179.070312 1185.328125 174.664062 1192.378906 170.398438 1199.199219 C 165.601562 1206.878906 161.070312 1214.128906 154.238281 1219.75 L 153.40625 1220.429688 L 153.332031 1221.511719 C 153.238281 1222.859375 153.109375 1224.230469 152.984375 1225.609375 C 152.332031 1232.710938 151.65625 1240.058594 154.722656 1246.910156 L 155.078125 1247.710938 L 155.851562 1248.109375 C 164.058594 1252.378906 173.007812 1251.070312 180.898438 1249.898438 L 182.539062 1249.660156 L 183.089844 1249.191406 C 193.785156 1240.039062 206.652344 1229.75 221.023438 1222.769531 C 225.953125 1221.339844 231.007812 1220.71875 235.742188 1220.261719 L 236.324219 1220.210938 L 236.820312 1219.898438 C 245.351562 1214.621094 254.8125 1210.101562 266.59375 1205.691406 L 266.90625 1205.550781 C 270.925781 1203.371094 274.488281 1201.21875 277.9375 1199.140625 C 292.453125 1190.378906 302.042969 1184.601562 321.59375 1190.710938 C 328.714844 1192.878906 334.882812 1196.5 341.410156 1200.328125 C 342.679688 1201.070312 343.957031 1201.820312 345.253906 1202.570312 L 345.375 1202.628906 C 347.457031 1203.691406 349.632812 1204.710938 351.734375 1205.699219 C 360.511719 1209.820312 369.582031 1214.070312 374.863281 1221.988281 C 375.695312 1231.460938 373.609375 1240.230469 368.660156 1248.070312 L 368.328125 1248.589844 L 368.28125 1249.210938 C 365.449219 1286.570312 391.78125 1316.429688 407.882812 1331.011719 C 421.011719 1348.921875 430.277344 1369.789062 439.238281 1389.96875 C 442.652344 1397.671875 446.1875 1405.621094 449.878906 1413.300781 C 453.089844 1420.78125 455.613281 1429.058594 457.582031 1438.578125 C 457.359375 1438.941406 457.164062 1439.300781 456.980469 1439.628906 C 456.679688 1440.179688 456.398438 1440.691406 456.101562 1441.078125 L 452.570312 1445.789062 L 452.863281 1445.75 C 451.402344 1447.160156 449.785156 1448.488281 448.121094 1449.859375 C 446.183594 1451.460938 444.183594 1453.101562 442.371094 1454.929688 C 439.5 1457.5 436.753906 1460.300781 434.09375 1463.019531 C 426.945312 1470.328125 420.191406 1477.230469 410.964844 1480.140625 L 410.542969 1480.320312 C 402.59375 1484.53125 396.652344 1490.910156 390.90625 1497.078125 C 385.761719 1502.601562 380.90625 1507.820312 374.6875 1511.679688 L 374.046875 1512.078125 L 373.734375 1512.761719 C 371.898438 1516.769531 371.425781 1521.050781 370.964844 1525.199219 C 370.816406 1526.550781 370.671875 1527.828125 370.488281 1529.078125 L 368.496094 1531.398438 L 366.957031 1530.050781 L 365.3125 1531.921875 C 355.070312 1543.609375 338.621094 1550.769531 315.03125 1553.820312 L 314.253906 1553.921875 L 313.671875 1554.441406 C 312.058594 1555.910156 310.425781 1557.449219 308.851562 1558.941406 C 307.449219 1560.269531 306.003906 1561.640625 304.582031 1562.941406 C 287.324219 1566.878906 269.304688 1565.828125 251.871094 1564.820312 C 242.0625 1564.25 231.917969 1563.660156 221.949219 1563.949219 L 221.289062 1563.96875 L 220.722656 1564.320312 C 214.914062 1567.859375 208.359375 1567.878906 201.421875 1567.910156 C 194.71875 1567.941406 187.785156 1567.96875 181.34375 1571.308594 C 174.722656 1574.230469 170.613281 1579.550781 166.636719 1584.691406 C 163.90625 1588.21875 161.328125 1591.550781 157.910156 1594.25 C 155.433594 1596.359375 152.644531 1598.171875 149.691406 1600.089844 C 142.714844 1604.628906 135.5 1609.308594 132.71875 1618.128906 L 132.53125 1618.730469 L 132.644531 1619.339844 C 134.34375 1628.449219 138.117188 1635.121094 144.183594 1639.738281 L 144.652344 1640.089844 L 145.230469 1640.199219 C 146.039062 1640.351562 146.78125 1640.511719 147.523438 1640.660156 C 148.289062 1640.808594 149.058594 1640.96875 149.898438 1641.128906 L 150.601562 1641.261719 L 151.265625 1641 C 153.972656 1639.949219 156.15625 1638.800781 158.058594 1637.421875 C 162.429688 1637.609375 166.789062 1637.378906 171.015625 1637.160156 C 171.488281 1637.140625 171.957031 1637.109375 172.429688 1637.089844 C 175.289062 1640.738281 177.589844 1644.28125 179.800781 1648.429688 L 180.097656 1648.988281 L 180.617188 1649.328125 C 185.949219 1652.898438 190.871094 1651.28125 195.214844 1649.839844 C 197.113281 1649.210938 198.914062 1648.621094 200.691406 1648.441406 C 216.347656 1653.449219 232.859375 1653.828125 248.828125 1654.210938 C 254.992188 1654.351562 261.355469 1654.5 267.550781 1654.910156 C 274.101562 1661.960938 280.511719 1669.128906 286.71875 1676.078125 C 289.648438 1679.359375 292.585938 1682.648438 295.558594 1685.949219 L 295.632812 1686.03125 C 297.917969 1688.351562 300.378906 1690.519531 302.761719 1692.609375 C 308.085938 1697.289062 313.128906 1701.71875 316.167969 1707.738281 C 311.214844 1716.339844 312.230469 1725.660156 313.210938 1734.679688 C 313.53125 1737.621094 313.863281 1740.660156 313.957031 1743.550781 L 313.980469 1743.839844 C 314.734375 1748.910156 314.847656 1754.289062 314.953125 1759.5 C 315.164062 1769.558594 315.378906 1779.960938 320.058594 1789.5 L 320.246094 1789.820312 C 325.566406 1797.511719 333.09375 1803.03125 340.367188 1808.378906 L 340.957031 1808.800781 C 342.226562 1809.660156 343.578125 1810.480469 344.890625 1811.269531 C 350.480469 1814.671875 355.773438 1817.878906 356.078125 1823.859375 C 347.914062 1834.5 341.9375 1839.949219 337.550781 1843.960938 C 326.125 1854.378906 326.355469 1855.839844 332.230469 1893.441406 L 332.414062 1894.621094 L 333.445312 1895.210938 C 341.859375 1900.101562 344.796875 1910.109375 346.5625 1919.25 L 346.6875 1919.921875 L 347.132812 1920.429688 C 351.71875 1925.671875 352.933594 1932.558594 354.21875 1939.851562 C 354.5 1941.460938 354.789062 1943.089844 355.117188 1944.71875 C 351.367188 1943.96875 347.121094 1943.648438 343.007812 1944.851562 L 341.101562 1945.410156 L 341.386719 1950.230469 L 341.761719 1950.789062 C 347.714844 1959.699219 354.457031 1969.789062 363.109375 1978.199219 C 369.585938 1986.199219 375.738281 1993.140625 385.210938 1997.070312 C 391.363281 2000.609375 398.21875 2001.390625 404.851562 2002.128906 C 406.585938 2002.328125 408.371094 2002.53125 410.101562 2002.78125 C 411.601562 2003.578125 413.132812 2004.449219 414.621094 2005.300781 C 416.257812 2006.230469 417.953125 2007.191406 419.632812 2008.078125 L 420.082031 2008.320312 L 420.589844 2008.359375 C 444.8125 2010.410156 468.753906 2012.109375 491.226562 2013.679688 C 499.855469 2020.660156 510.703125 2021.960938 521.207031 2023.210938 C 525.0625 2023.671875 528.707031 2024.109375 532.253906 2024.808594 C 534.6875 2025.828125 537.113281 2026.859375 539.546875 2027.890625 C 552.953125 2033.601562 566.8125 2039.5 581.511719 2042.46875 L 581.847656 2042.539062 L 582.1875 2042.511719 C 584.699219 2042.328125 587.152344 2042.148438 589.550781 2041.96875 C 632.667969 2038.789062 656.484375 2037.039062 695.984375 2061.390625 C 709.605469 2079.011719 733.089844 2081.628906 753.828125 2083.941406 C 759.179688 2084.539062 764.238281 2085.101562 769.078125 2085.890625 L 769.851562 2086.019531 L 770.5625 2085.679688 C 774.023438 2084.019531 777.5625 2082.390625 780.980469 2080.808594 C 784.335938 2079.269531 787.800781 2077.671875 791.226562 2076.039062 C 799.355469 2075.910156 806.820312 2073.800781 813.070312 2071.75 L 813.664062 2071.558594 L 814.09375 2071.109375 C 815.773438 2069.359375 817.402344 2067.601562 818.976562 2065.890625 C 820.339844 2064.410156 821.738281 2062.898438 823.164062 2061.398438 C 826.761719 2061.339844 830.464844 2061.519531 834.058594 2061.691406 C 842.496094 2062.101562 851.214844 2062.53125 859.6875 2060.03125 C 863.613281 2060.699219 867.695312 2061.128906 871.648438 2061.539062 C 875.101562 2061.898438 878.675781 2062.28125 882.09375 2062.808594 L 883.488281 2063.03125 L 884.394531 2061.941406 C 885.339844 2060.820312 886.351562 2059.621094 887.363281 2058.421875 C 888.050781 2057.609375 888.742188 2056.789062 889.40625 2056 C 893.800781 2055.75 898.054688 2056.898438 902.703125 2059.578125 L 903.261719 2059.898438 L 903.898438 2059.910156 C 905.152344 2059.941406 906.414062 2059.980469 907.6875 2060.019531 C 917.714844 2060.320312 928.074219 2060.628906 937.371094 2055.820312 C 941.050781 2056.261719 944.175781 2058.199219 947.9375 2061.160156 L 948.71875 2061.769531 L 949.707031 2061.679688 C 955.15625 2061.199219 960.808594 2060.429688 966.273438 2059.699219 L 967.027344 2059.601562 L 967.597656 2059.089844 C 968.441406 2058.351562 969.359375 2057.660156 970.328125 2056.921875 C 971.335938 2056.171875 972.378906 2055.378906 973.367188 2054.5 L 974.109375 2053.851562 L 974.199219 2052.859375 C 975.304688 2041.019531 975.058594 2029.03125 974.816406 2017.441406 C 974.546875 2004.410156 974.269531 1990.949219 975.9375 1977.789062 C 977.128906 1976.898438 978.351562 1975.96875 979.578125 1975.050781 C 980.894531 1974.050781 982.210938 1973.058594 983.488281 1972.109375 C 990.195312 1971.679688 996.328125 1971.101562 1002.878906 1968.941406 L 1004.148438 1968.519531 L 1004.511719 1967.21875 C 1007.160156 1957.5 1005.289062 1948.078125 1003.480469 1938.960938 C 1002.800781 1935.558594 1002.101562 1932.039062 1001.660156 1928.589844 C 1001.871094 1924.96875 1002.128906 1921.21875 1002.398438 1917.578125 C 1002.691406 1913.539062 1002.988281 1909.371094 1003.210938 1905.230469 L 1003.230469 1904.851562 L 1003.140625 1904.480469 C 1002.601562 1902.359375 1002.019531 1900.230469 1001.449219 1898.171875 C 999.578125 1891.339844 997.804688 1884.878906 997.488281 1878.101562 C 998.046875 1875.5 998.332031 1872.769531 998.605469 1870.128906 C 999.25 1863.960938 999.867188 1858.089844 1003.761719 1854.140625 L 1004.058594 1854.25 C 1007.808594 1855.589844 1011.339844 1855.640625 1014.761719 1855.699219 C 1016.980469 1855.730469 1019.078125 1855.761719 1021.21875 1856.128906 L 1022.570312 1856.371094 L 1023.5 1855.351562 C 1026.21875 1852.339844 1028.710938 1849.660156 1031.558594 1847.519531 C 1045.039062 1844.140625 1051.578125 1855.320312 1054.691406 1865.359375 L 1054.800781 1865.71875 L 1055.011719 1866.019531 C 1068.808594 1886.320312 1085.101562 1904.550781 1100.648438 1921.21875 L 1101.238281 1921.859375 L 1102.101562 1921.988281 C 1103.929688 1922.269531 1105.75 1922.621094 1107.511719 1922.960938 C 1109.320312 1923.308594 1111.199219 1923.671875 1113.128906 1923.960938 L 1113.941406 1924.089844 L 1114.671875 1923.699219 C 1127.28125 1917.070312 1131.828125 1899.011719 1135.839844 1883.078125 C 1137.710938 1875.671875 1139.480469 1868.671875 1141.859375 1863.25 L 1141.960938 1863.019531 L 1142.011719 1862.78125 C 1146.46875 1842.238281 1158.171875 1822.199219 1174.96875 1806.289062 C 1179.699219 1804.839844 1184.488281 1803.25 1189.128906 1801.710938 C 1194.949219 1799.78125 1200.96875 1797.78125 1206.839844 1796.058594 L 1207.578125 1795.851562 L 1208.078125 1795.25 C 1208.578125 1794.628906 1209.050781 1794.019531 1209.511719 1793.410156 C 1210.121094 1792.609375 1210.699219 1791.851562 1211.300781 1791.179688 C 1217.21875 1789.378906 1223.339844 1789.320312 1229.800781 1789.289062 C 1251.878906 1809.558594 1278.921875 1815.019531 1302.378906 1803.921875 C 1311.050781 1802.671875 1320.019531 1803.769531 1328.710938 1804.828125 C 1332.449219 1805.289062 1336.320312 1805.761719 1340.140625 1806.039062 L 1341.03125 1806.109375 L 1341.75 1805.601562 C 1343.921875 1804.078125 1346.019531 1802.570312 1348.121094 1801.058594 C 1349.921875 1799.75 1351.730469 1798.449219 1353.578125 1797.148438 C 1359.28125 1798.730469 1365.328125 1800.71875 1371.300781 1804.191406 C 1373.238281 1805.289062 1375.339844 1806.171875 1377.371094 1807.03125 C 1381.578125 1808.800781 1385.558594 1810.46875 1387.988281 1813.808594 L 1388.578125 1814.621094 L 1389.550781 1814.800781 C 1395.96875 1816 1401.789062 1815.269531 1407.351562 1812.558594 L 1408.578125 1811.96875 L 1408.738281 1810.609375 C 1409.769531 1801.941406 1416.488281 1797.101562 1423.601562 1791.980469 C 1427.800781 1788.960938 1432.140625 1785.839844 1435.519531 1781.789062 C 1436.738281 1781.960938 1437.980469 1782.101562 1439.191406 1782.238281 C 1440.449219 1782.378906 1441.75 1782.53125 1443 1782.710938 C 1445.179688 1785.96875 1447.390625 1789.5 1449.519531 1792.910156 L 1450.089844 1793.820312 L 1467.25 1797.339844 L 1467.929688 1797.078125 C 1473.429688 1794.941406 1477.980469 1791.511719 1482.390625 1788.199219 C 1486.851562 1784.839844 1491.070312 1781.660156 1496.058594 1779.898438 C 1502.300781 1782.890625 1509.191406 1785.441406 1517.621094 1787.878906 L 1518.109375 1788.03125 L 1518.621094 1787.960938 C 1521.910156 1787.558594 1525.410156 1787.421875 1528.789062 1787.28125 C 1538.089844 1786.910156 1547.699219 1786.53125 1555.859375 1780.839844 L 1556.378906 1780.480469 L 1556.660156 1779.910156 C 1557.441406 1778.378906 1558.179688 1776.890625 1558.910156 1775.449219 C 1567.488281 1758.320312 1573.160156 1747.011719 1590.730469 1735.589844 L 1591.851562 1734.859375 L 1592.03125 1724.191406 L 1583.859375 1713.351562 C 1582.519531 1707.640625 1580.328125 1703.21875 1577.339844 1700.179688 C 1576.789062 1694.460938 1578.648438 1688.78125 1580.609375 1682.789062 C 1581.589844 1679.808594 1582.601562 1676.730469 1583.28125 1673.648438 L 1583.75 1664.910156 C 1584 1660.121094 1584.238281 1655.371094 1584.480469 1650.589844 C 1585.121094 1642.640625 1584.890625 1634.46875 1584.660156 1626.570312 C 1584.25 1612.21875 1583.828125 1597.371094 1588.769531 1583.878906 L 1589.890625 1580.828125 L 1588.550781 1580.710938 C 1588.769531 1580.210938 1588.988281 1579.699219 1589.199219 1579.199219 C 1589.570312 1578.328125 1589.921875 1577.488281 1590.289062 1576.699219 C 1591.621094 1576.101562 1592.96875 1575.550781 1594.289062 1575 C 1596.929688 1573.910156 1599.660156 1572.789062 1602.328125 1571.300781 C 1618.398438 1574.421875 1634.398438 1573.800781 1649.320312 1572.660156 L 1649.699219 1572.628906 L 1650.039062 1572.5 C 1659.191406 1568.910156 1669.160156 1566.960938 1678.800781 1565.070312 L 1682.171875 1564.398438 C 1694.050781 1562.730469 1704.039062 1561.660156 1714.300781 1561.648438 L 1714.769531 1561.648438 L 1715.199219 1561.488281 C 1728.308594 1556.460938 1738.410156 1554.941406 1747.929688 1556.578125 C 1759.921875 1560.570312 1768.960938 1568.859375 1778.53125 1577.628906 C 1781.898438 1580.730469 1785.398438 1583.929688 1789 1586.890625 L 1789.269531 1587.078125 C 1798.710938 1592.96875 1808.21875 1600.148438 1820.128906 1610.359375 L 1820.75 1610.898438 L 1821.578125 1610.960938 C 1822.878906 1611.058594 1824.171875 1611.101562 1825.441406 1611.101562 C 1859.078125 1611.101562 1879.660156 1578.25 1897.878906 1549.140625 C 1903.191406 1540.660156 1908.210938 1532.640625 1913.25 1525.960938 C 1920.460938 1520.371094 1928.578125 1516.640625 1937.179688 1512.691406 C 1940.539062 1511.140625 1944.03125 1509.539062 1947.410156 1507.828125 L 1947.878906 1507.601562 L 1948.210938 1507.191406 C 1955.378906 1498.460938 1954.769531 1486.929688 1954.191406 1475.769531 C 1953.898438 1470.300781 1953.628906 1465.128906 1954.25 1460.421875 L 1954.289062 1460.148438 L 1954.261719 1459.871094 C 1953.03125 1446.320312 1952.5 1432.480469 1951.980469 1419.101562 C 1951.769531 1413.628906 1951.558594 1407.960938 1951.289062 1402.390625 L 1951.230469 1401.019531 L 1950.039062 1400.339844 C 1946.210938 1398.140625 1942.441406 1396 1938.671875 1393.871094 C 1935.089844 1391.839844 1931.519531 1389.808594 1927.890625 1387.730469 C 1927.941406 1384.761719 1928.039062 1381.710938 1928.128906 1378.738281 C 1928.21875 1375.609375 1928.320312 1372.390625 1928.371094 1369.230469 C 1937.851562 1363.550781 1943.449219 1354.160156 1948.871094 1345.078125 C 1950.578125 1342.199219 1952.359375 1339.21875 1954.210938 1336.460938 C 1967.570312 1323.429688 1974.800781 1310.539062 1976.898438 1296.011719 C 1987.511719 1286.878906 1995.28125 1274.429688 1999.390625 1259.949219 L 1999.539062 1259.410156 L 1999.449219 1258.859375 C 1995.328125 1233.691406 1994.191406 1211.761719 1995.988281 1191.820312 C 2002.851562 1174.910156 2000.679688 1157.558594 1997.578125 1139.789062 C 1998.28125 1130.859375 2003.890625 1124.128906 2009.820312 1117.011719 C 2011.660156 1114.800781 2013.570312 1112.511719 2015.308594 1110.160156 L 2015.628906 1109.71875 L 2015.75 1109.191406 C 2016.269531 1106.710938 2016.628906 1104.210938 2016.980469 1101.800781 C 2017.871094 1095.550781 2018.71875 1089.640625 2022.300781 1084.511719 L 2025.300781 1080.21875 L 2024.480469 1080.28125 C 2026.171875 1078.230469 2028.328125 1076.5 2030.578125 1074.699219 C 2032.371094 1073.269531 2034.21875 1071.800781 2035.898438 1070.089844 L 2036.101562 1069.871094 C 2052.890625 1048.320312 2068.621094 1033.039062 2085.539062 1021.839844 C 2125.300781 1014.789062 2162.679688 1013.941406 2196.648438 1019.289062 L 2197.261719 1019.390625 L 2197.851562 1019.191406 C 2218.851562 1011.988281 2236.261719 1002.699219 2251.039062 990.789062 C 2269.671875 982.679688 2287.480469 967.980469 2301.25 949.359375 L 2302.109375 948.191406 L 2301.53125 946.871094 "/>
</svg>
