<?xml version="1.0" encoding="UTF-8"?>
<svg xmlns="http://www.w3.org/2000/svg" xmlns:xlink="http://www.w3.org/1999/xlink" width="2000" height="2000" viewBox="0 0 2000 2000">
<defs>
<clipPath id="clip-0">
<path clip-rule="nonzero" d="M 291 339 L 1829 339 L 1829 1661 L 291 1661 Z M 291 339 "/>
</clipPath>
<clipPath id="clip-1">
<path clip-rule="nonzero" d="M 1827.378906 938.789062 C 1823.308594 929.289062 1824.671875 923.859375 1811.078125 912.980469 C 1799.171875 903.460938 1796.648438 907.488281 1783.421875 895.851562 C 1781.539062 894.199219 1779.460938 892.238281 1777.101562 889.878906 C 1765.828125 878.609375 1762.660156 875.441406 1759.410156 872.199219 C 1757.179688 869.960938 1754.898438 867.679688 1749.921875 862.699219 C 1742.011719 854.789062 1746.03125 846.320312 1742.148438 842.78125 C 1740.03125 840.851562 1735.550781 840.390625 1725.460938 842.308594 C 1700.898438 846.988281 1699.480469 847.640625 1688.308594 852.070312 C 1686.5 852.78125 1684.429688 853.601562 1681.960938 854.539062 C 1677.578125 856.230469 1671.828125 856.269531 1665.429688 855.148438 C 1646.039062 851.75 1620.699219 837.671875 1609.460938 826.328125 C 1609.058594 825.929688 1608.671875 825.550781 1608.28125 825.171875 C 1594.011719 811.25 1584.851562 810.859375 1579.558594 796.308594 C 1574.121094 781.359375 1578.199219 773.199219 1572.761719 759.609375 C 1567.328125 746.019531 1544.699219 755.328125 1535.191406 748.539062 C 1534.050781 747.730469 1532.921875 746.859375 1531.78125 745.941406 C 1531.089844 745.378906 1530.390625 744.789062 1529.691406 744.191406 C 1521.878906 737.480469 1513.558594 728.269531 1502.570312 717.28125 C 1488.980469 703.691406 1499.578125 713.199219 1485.449219 690.101562 C 1483.691406 687.230469 1482.199219 684.609375 1480.910156 682.171875 C 1479.859375 680.191406 1478.941406 678.320312 1478.128906 676.53125 C 1475.210938 670.058594 1473.660156 664.578125 1472.070312 658.191406 C 1470.898438 653.511719 1469.710938 648.328125 1467.960938 641.921875 C 1467.210938 639.191406 1466.359375 636.238281 1465.359375 633.011719 C 1465.089844 632.121094 1464.808594 631.21875 1464.519531 630.300781 C 1462.820312 624.96875 1461.128906 619.261719 1459.410156 613.359375 C 1451.480469 586.160156 1443.070312 555.121094 1431.898438 540.601562 C 1418.308594 522.941406 1412.871094 514.78125 1399.28125 494.398438 C 1385.691406 474.011719 1397.921875 487.601562 1369.378906 454.980469 C 1361.289062 445.738281 1353.53125 434.738281 1346.25 424.109375 C 1336.640625 410.070312 1327.878906 396.660156 1320.300781 388.710938 C 1313.371094 381.429688 1307.441406 378.730469 1302.789062 384.308594 C 1290.738281 398.769531 1287.238281 401.480469 1279.019531 413.269531 C 1277.96875 414.78125 1276.839844 416.441406 1275.609375 418.289062 C 1264.738281 434.601562 1266.089844 434.601562 1252.5 448.191406 C 1248.871094 451.820312 1246.109375 454.480469 1243.859375 456.558594 C 1237.699219 462.261719 1235.371094 463.601562 1229.398438 468.570312 C 1224.480469 472.671875 1219.070312 476.28125 1211.671875 480.28125 C 1206.800781 482.921875 1201.078125 485.71875 1194.058594 488.960938 C 1176.398438 497.109375 1172.300781 477.96875 1160.070312 484.761719 C 1147.828125 491.558594 1160.96875 487.480469 1145.570312 505.148438 C 1144.75 506.089844 1143.949219 506.988281 1143.171875 507.871094 C 1129.328125 523.421875 1122.011719 529.050781 1122.011719 543.199219 C 1122.011719 558.148438 1122.390625 543.46875 1103.371094 554.339844 C 1084.339844 565.210938 1078.898438 569.289062 1058.519531 573.371094 C 1038.128906 577.441406 1039.488281 578.800781 1012.308594 574.71875 C 1011.011719 574.53125 1009.761719 574.339844 1008.570312 574.160156 C 984.835938 570.621094 981.5625 570.128906 964.742188 559.769531 C 955.058594 553.820312 946.898438 551.039062 940.824219 547.960938 C 939.265625 547.171875 937.84375 546.359375 936.570312 545.46875 C 933.75 543.511719 931.65625 541.148438 930.386719 537.769531 C 926.308594 526.890625 930.386719 517.378906 923.589844 509.230469 C 916.796875 501.070312 912.738281 514.78125 905.945312 505.269531 C 899.148438 495.761719 895.070312 478.089844 878.765625 475.371094 C 876.921875 475.058594 875.269531 474.820312 873.777344 474.628906 C 865.65625 473.578125 862.257812 473.820312 858.523438 471.261719 C 856.964844 470.191406 855.34375 468.621094 853.296875 466.269531 C 853.179688 466.128906 853.0625 466 852.941406 465.859375 C 844.785156 456.339844 833.914062 431.878906 820.324219 421.011719 C 806.734375 410.128906 808.09375 410.128906 797.21875 397.898438 C 786.347656 385.671875 793.144531 393.289062 779.550781 381.328125 C 776.417969 378.570312 773.859375 375.871094 771.632812 373.511719 C 764.203125 365.648438 760.421875 361.628906 751.011719 372.078125 C 738.78125 385.671875 718.710938 380.898438 707.839844 374.109375 C 706.308594 373.148438 704.945312 372.191406 703.699219 371.21875 C 703.578125 371.121094 703.460938 371.03125 703.34375 370.941406 C 695.972656 365.101562 692.78125 359.019531 684.734375 352.859375 C 676.019531 346.179688 667.308594 334.21875 657.546875 341.660156 C 656.652344 342.339844 655.75 343.179688 654.835938 344.210938 C 643.960938 356.441406 648.039062 353.71875 637.167969 365.949219 C 626.292969 378.179688 601.832031 387.699219 596.394531 398.570312 C 592.316406 406.730469 592.828125 415.648438 594.484375 423.609375 C 594.671875 424.511719 594.875 425.398438 595.085938 426.269531 C 595.5 427.96875 595.945312 429.621094 596.394531 431.191406 C 596.6875 432.210938 597.082031 433.21875 597.546875 434.21875 C 601.386719 442.410156 610.425781 449.289062 614.0625 452.929688 C 618.140625 457.011719 641.246094 459.730469 645.320312 463.800781 C 649.398438 467.878906 649.398438 484.191406 650.757812 488.269531 C 651.226562 489.671875 653.902344 493.238281 657.546875 497.429688 C 664.507812 505.441406 674.988281 515.71875 680.339844 517.5 C 680.445312 517.53125 680.546875 517.570312 680.648438 517.601562 C 688.601562 520.320312 692.761719 524.429688 707.523438 535.171875 C 720.1875 544.378906 727.972656 550.660156 735.84375 559.808594 C 737.261719 561.460938 738.683594 563.199219 740.140625 565.070312 C 740.84375 565.96875 741.546875 566.789062 742.246094 567.550781 C 747.335938 573.039062 752.195312 574.898438 755.121094 578.210938 C 757.226562 580.601562 758.335938 583.738281 757.808594 589.53125 C 756.449219 604.480469 702.152344 574.121094 702.152344 583.628906 C 702.152344 590.71875 708.183594 595.539062 705.644531 600.351562 C 704.773438 602 702.898438 603.640625 699.433594 605.371094 C 685.84375 612.171875 684.484375 616.25 668.175781 618.960938 C 655.136719 621.140625 649.042969 621.570312 639.480469 616.789062 C 639.148438 616.621094 638.808594 616.449219 638.464844 616.269531 C 636.347656 615.160156 634.058594 613.808594 631.480469 612.171875 C 631.296875 612.050781 631.117188 611.941406 630.9375 611.820312 C 616.832031 602.789062 626.167969 611.761719 623.382812 614.019531 C 622.535156 614.699219 621.582031 612.921875 620.769531 612.441406 C 600.195312 600.179688 615.535156 614.039062 592.003906 615.351562 C 590.996094 615.410156 590.019531 615.46875 589.074219 615.550781 C 572.230469 616.851562 564.90625 620.660156 554.21875 619.449219 C 550.941406 619.078125 547.355469 618.238281 543.078125 616.710938 C 524.050781 609.921875 529.484375 619.429688 511.816406 603.121094 C 509.980469 601.421875 508.351562 600.050781 506.898438 598.941406 C 494.40625 589.351562 495.367188 598.988281 494.152344 586.808594 C 494.082031 586.128906 494.0625 585.46875 494.085938 584.839844 C 494.484375 572.941406 509.640625 570.160156 494.152344 563.710938 C 491.773438 562.71875 489.308594 561.929688 486.808594 561.289062 C 481.328125 559.898438 475.675781 559.230469 470.378906 558.761719 C 461.519531 557.96875 453.660156 557.730469 449.300781 555.550781 C 441.148438 551.480469 459.042969 556.199219 429.144531 541.25 C 424.894531 539.128906 424.660156 537.839844 421.890625 536.089844 C 412.078125 529.890625 410.082031 525.960938 405.890625 523.761719 C 402.925781 522.199219 398.867188 521.511719 390.175781 521.511719 C 365.714844 521.511719 365.714844 512 348.046875 531.019531 C 330.378906 550.050781 335.816406 548.691406 323.582031 562.28125 C 318 568.488281 315.910156 569.871094 314.636719 570.96875 C 313.125 572.269531 312.773438 573.160156 309.078125 581.289062 C 302.285156 596.238281 303.644531 596.238281 309.078125 608.46875 C 314.515625 620.699219 319.953125 619.339844 333.542969 623.421875 C 347.132812 627.5 343.296875 626.21875 341.9375 638.460938 C 341.28125 644.371094 333.960938 646.789062 325.957031 649.089844 C 317.394531 651.550781 308.050781 653.878906 305.242188 660.199219 C 299.804688 672.429688 279.421875 673.789062 301.164062 683.308594 C 322.808594 692.769531 328.296875 690.121094 339.066406 690.101562 C 339.117188 690.101562 339.167969 690.101562 339.21875 690.101562 C 350.089844 690.101562 348.730469 687.378906 366.398438 699.609375 C 384.066406 711.839844 386.785156 713.199219 400.375 726.789062 C 413.964844 740.378906 386.613281 730.160156 401.5625 746.46875 C 403.429688 748.511719 405.335938 750.261719 407.191406 751.808594 C 415.183594 758.5 422.191406 761.300781 420.628906 765.5 C 419.644531 768.128906 415.28125 771.320312 405.640625 776.371094 C 400.832031 778.890625 396.761719 781.511719 393.347656 784.179688 C 379.289062 795.199219 376.402344 807.210938 379.125 817.441406 C 379.660156 819.46875 380.417969 821.421875 381.347656 823.289062 C 388.144531 836.878906 390.863281 838.238281 399.015625 849.109375 C 401.480469 852.390625 403.691406 855.058594 405.585938 857.511719 C 409.957031 863.191406 412.605469 867.75 412.605469 876.289062 C 412.605469 888.519531 415.324219 889.878906 420.761719 902.109375 C 421.210938 903.128906 421.585938 904.078125 421.90625 904.988281 C 425.339844 914.730469 422.3125 918.738281 435.769531 924.660156 C 436.1875 924.839844 436.617188 925.03125 437.070312 925.21875 C 446.628906 929.199219 441.53125 934.628906 448.433594 937.28125 C 453.308594 939.148438 455.339844 946.628906 463.777344 952.261719 C 484.160156 965.839844 482.269531 970.421875 487.707031 975.851562 C 487.953125 976.101562 488.238281 976.300781 488.550781 976.441406 C 490.863281 977.539062 494.839844 976.039062 499.09375 974.660156 C 503.53125 973.21875 508.273438 971.898438 511.742188 973.789062 C 514.316406 975.191406 516.191406 978.351562 516.726562 984.519531 C 518.761719 1008.078125 540.523438 996.089844 528.292969 1015.539062 C 520.828125 1027.410156 523.238281 1038.109375 520.21875 1045.101562 C 518.292969 1049.570312 514.15625 1052.53125 503.835938 1053.320312 C 484.757812 1054.789062 479.417969 1048.859375 468.792969 1049.988281 C 464.660156 1050.429688 459.730469 1051.941406 452.882812 1055.359375 C 451.4375 1056.078125 450.097656 1056.769531 448.847656 1057.421875 C 436.359375 1063.921875 433.605469 1067.039062 438.039062 1071.789062 C 440.664062 1074.601562 445.800781 1077.980469 452.929688 1082.96875 C 453.617188 1083.449219 454.296875 1083.910156 454.972656 1084.351562 C 474.402344 1097.101562 490.027344 1095.269531 501.847656 1097.238281 C 514.074219 1099.269531 516.113281 1097.238281 532.417969 1121.691406 C 536.296875 1127.511719 540.058594 1132.398438 543.621094 1136.671875 C 555.046875 1150.371094 564.445312 1157.699219 569.105469 1168.570312 C 575.222656 1182.839844 577.257812 1182.839844 585.410156 1201.179688 C 593.5625 1219.53125 583.375 1227.679688 613.945312 1227.679688 C 616.339844 1227.679688 618.519531 1227.621094 620.515625 1227.5 C 643.800781 1226.171875 642.394531 1217.828125 664.175781 1219.46875 C 664.417969 1219.488281 664.65625 1219.511719 664.902344 1219.53125 C 669.011719 1219.871094 673.414062 1220.558594 677.847656 1221.53125 C 690.347656 1224.25 703.128906 1229.171875 710.570312 1234.789062 C 716.199219 1239.039062 718.777344 1243.679688 715.855469 1248.058594 C 714.921875 1249.460938 713.878906 1250.75 712.753906 1251.960938 C 704.046875 1261.328125 690.230469 1265.769531 681.207031 1276.601562 C 679.1875 1279.019531 677.007812 1281.199219 674.953125 1283.269531 C 666.640625 1291.648438 660.382812 1298.171875 675.09375 1311.238281 C 676.90625 1312.859375 678.679688 1314.308594 680.421875 1315.628906 C 695.804688 1327.351562 708.695312 1329.25 724.519531 1344.398438 C 725.027344 1344.878906 725.535156 1345.378906 726.046875 1345.890625 C 736.675781 1356.519531 733.617188 1364.410156 727.976562 1371.550781 C 725.085938 1375.210938 721.523438 1378.660156 718.769531 1382.191406 C 717.621094 1383.660156 716.613281 1385.140625 715.855469 1386.660156 C 711.175781 1396.011719 706.773438 1438.601562 705 1458.691406 C 704.457031 1464.859375 704.519531 1470.808594 705.476562 1476.070312 C 709.550781 1498.488281 701.398438 1504.609375 711.589844 1518.878906 C 713.125 1521.019531 714.65625 1523.21875 716.246094 1525.269531 C 720.703125 1531.019531 725.597656 1535.671875 732.15625 1535.058594 C 736.472656 1534.660156 741.507812 1531.980469 747.613281 1525.851562 C 750.902344 1522.550781 754.503906 1518.25 758.46875 1512.761719 C 766.289062 1501.929688 771.4375 1492.171875 775.390625 1483.308594 C 784.824219 1462.148438 783.617188 1426.078125 799.421875 1413.148438 C 821.839844 1394.808594 809.609375 1398.890625 832.03125 1390.730469 C 832.085938 1390.710938 832.140625 1390.691406 832.195312 1390.671875 C 841.859375 1387.160156 846.949219 1385.550781 851.117188 1383.351562 C 856.546875 1380.488281 860.40625 1376.621094 870.757812 1366.269531 C 877.507812 1359.519531 884.535156 1350.839844 891.429688 1341.851562 C 896.824219 1334.820312 902.140625 1327.601562 907.183594 1320.96875 C 913.207031 1313.039062 918.839844 1305.960938 923.75 1301.050781 C 935.648438 1289.160156 937.625 1285.761719 953.324219 1276.691406 C 956.449219 1274.878906 960.113281 1272.851562 964.511719 1270.480469 C 991.007812 1256.210938 1003.429688 1252.140625 1034.921875 1239.910156 C 1039.671875 1238.070312 1044.011719 1236.089844 1048.078125 1234.03125 C 1063.039062 1226.460938 1074.070312 1217.851562 1086.191406 1211.351562 C 1092.628906 1207.890625 1099.371094 1205.019531 1107.179688 1203.21875 C 1125.851562 1198.910156 1126.039062 1210.171875 1140.519531 1214.398438 C 1146.601562 1216.171875 1159.480469 1220.578125 1167.308594 1229.011719 C 1193.210938 1256.898438 1206.679688 1251.390625 1212.75 1263.53125 C 1212.890625 1263.808594 1213.03125 1264.089844 1213.171875 1264.371094 C 1214.171875 1266.371094 1215.550781 1268.039062 1217.070312 1269.53125 C 1224.269531 1276.558594 1234.609375 1279.480469 1222.679688 1293.339844 C 1221.710938 1294.46875 1220.578125 1295.679688 1219.28125 1296.980469 C 1213.800781 1302.460938 1208.910156 1306.621094 1204.601562 1310.039062 C 1192.910156 1319.339844 1185.578125 1323.238281 1182.601562 1333.671875 C 1179.488281 1344.550781 1157.828125 1354.960938 1155.859375 1362.910156 C 1155.398438 1364.78125 1156.03125 1366.511719 1158.238281 1368.078125 C 1158.949219 1368.589844 1159.828125 1369.078125 1160.898438 1369.550781 C 1173.199219 1375.019531 1192.300781 1389.679688 1192.808594 1404.691406 C 1192.96875 1409.308594 1191.359375 1413.960938 1187.269531 1418.378906 C 1186.089844 1419.648438 1184.699219 1420.910156 1183.089844 1422.140625 C 1182.589844 1422.53125 1182.058594 1422.910156 1181.511719 1423.289062 C 1180.171875 1424.21875 1178.691406 1425.140625 1177.070312 1426.03125 C 1174.691406 1427.351562 1173.800781 1428.378906 1173.238281 1429.328125 C 1172.011719 1431.421875 1172.390625 1433.171875 1162.121094 1436.910156 C 1147.171875 1442.339844 1141.738281 1446.421875 1129.5 1450.5 C 1117.269531 1454.570312 1098.25 1451.859375 1106.398438 1462.730469 C 1108.648438 1465.730469 1110.890625 1468.730469 1112.96875 1471.519531 C 1118.410156 1478.828125 1122.660156 1484.589844 1122.660156 1484.589844 C 1122.660156 1484.589844 1121.480469 1485.378906 1120.460938 1486.808594 C 1119.160156 1488.640625 1118.140625 1491.519531 1120.25 1495.140625 C 1120.820312 1496.101562 1121.601562 1497.121094 1122.660156 1498.179688 C 1127.410156 1502.929688 1134.011719 1509.058594 1140.570312 1513.890625 C 1145.269531 1517.359375 1149.949219 1520.148438 1153.921875 1521.289062 C 1163.441406 1524 1178.378906 1526.71875 1181.101562 1530.800781 C 1183.820312 1534.878906 1210.371094 1555.820312 1211.730469 1569.410156 C 1213.089844 1583 1217.171875 1589.789062 1226.679688 1592.511719 C 1236.191406 1595.230469 1234.839844 1591.148438 1245.710938 1592.511719 C 1256.578125 1593.871094 1257.941406 1584.910156 1266.089844 1593.46875 C 1274.25 1602.03125 1278.328125 1607.460938 1283.761719 1619.691406 C 1285.550781 1623.730469 1286.460938 1626.429688 1287.410156 1628.679688 C 1289.328125 1633.25 1291.410156 1635.960938 1301.429688 1644.160156 C 1316.378906 1656.390625 1316.378906 1663.179688 1329.96875 1657.75 C 1343.300781 1652.410156 1321.328125 1652.308594 1342.289062 1652.308594 C 1342.699219 1652.308594 1343.121094 1652.308594 1343.558594 1652.308594 C 1364.691406 1652.308594 1355.140625 1662.300781 1371.011719 1660.480469 C 1372.5 1660.308594 1374.199219 1660.039062 1376.179688 1659.640625 C 1399.28125 1655.03125 1414.230469 1667.261719 1408.789062 1648.230469 C 1403.359375 1629.210938 1403.359375 1630.570312 1396.558594 1619.691406 C 1390.78125 1610.441406 1388.929688 1608.078125 1388.511719 1600.871094 C 1388.441406 1599.609375 1388.410156 1598.210938 1388.410156 1596.589844 C 1388.410156 1585.71875 1399.28125 1547.660156 1395.199219 1539.511719 C 1391.128906 1531.351562 1388.410156 1534.070312 1385.691406 1524.558594 C 1382.96875 1515.050781 1378.898438 1509.609375 1382.96875 1501.460938 C 1387.050781 1493.300781 1389.769531 1494.660156 1393.851562 1478.351562 C 1397.320312 1464.441406 1399.808594 1425.808594 1400.46875 1412.230469 C 1400.578125 1409.878906 1400.640625 1408.28125 1400.640625 1407.679688 C 1400.640625 1404.359375 1408.171875 1413.570312 1412.121094 1406.308594 C 1413.019531 1404.648438 1414.011719 1402.929688 1415.058594 1401.160156 C 1418.371094 1395.628906 1420.210938 1390.550781 1423.839844 1386.210938 C 1426.460938 1383.078125 1430 1380.328125 1435.691406 1378.050781 C 1449.28125 1372.621094 1457.441406 1368.539062 1457.441406 1378.050781 C 1457.441406 1387.570312 1441.128906 1394.359375 1457.441406 1397.078125 C 1460.941406 1397.671875 1463.75 1398.558594 1466.101562 1399.519531 C 1474.699219 1403.011719 1477.148438 1407.269531 1484.621094 1399.800781 C 1491.421875 1392.988281 1496.839844 1390.78125 1500.371094 1383.691406 C 1501.019531 1382.378906 1501.601562 1380.910156 1502.121094 1379.210938 C 1502.71875 1377.25 1503.230469 1375 1503.640625 1372.351562 C 1505.101562 1363.019531 1499.21875 1353.929688 1495.75 1346.039062 C 1492.75 1339.199219 1491.558594 1333.269531 1498.488281 1328.859375 C 1513.441406 1319.339844 1525.671875 1331.570312 1533.828125 1328.859375 C 1541.980469 1326.140625 1548.78125 1322.058594 1544.699219 1311.191406 C 1544.160156 1309.738281 1543.738281 1308.558594 1543.378906 1307.558594 C 1541.078125 1301.070312 1541.710938 1302.398438 1531.109375 1289.441406 C 1518.878906 1274.488281 1516.160156 1270.421875 1513.441406 1260.898438 C 1512.96875 1259.238281 1512.488281 1257.078125 1512.058594 1254.570312 C 1510.101562 1243.140625 1509.039062 1224.410156 1512.96875 1212.019531 C 1513.121094 1211.539062 1513.28125 1211.070312 1513.441406 1210.621094 C 1515.648438 1204.550781 1521.390625 1198.710938 1527.449219 1193.269531 C 1536.308594 1185.308594 1545.839844 1178.21875 1545.921875 1172.558594 C 1546.058594 1163.050781 1541.699219 1161.691406 1545.921875 1144.019531 C 1550.140625 1126.359375 1545.789062 1108.691406 1545.921875 1093.738281 C 1546.058594 1078.789062 1542.671875 1078.789062 1547.761719 1062.480469 C 1552.859375 1046.171875 1548.78125 1043.449219 1556.929688 1031.21875 C 1559.269531 1027.710938 1561.269531 1024.320312 1563.070312 1021.101562 C 1567.539062 1013.089844 1570.71875 1006.171875 1574.601562 1001.320312 C 1580.039062 994.53125 1582.75 982.980469 1601.78125 977.878906 C 1608.25 976.148438 1615.089844 976.140625 1621.449219 976.820312 C 1633.789062 978.160156 1644.351562 982.121094 1647.039062 981.21875 C 1649.601562 980.371094 1652.160156 976.828125 1655.730469 972.300781 C 1657.839844 969.621094 1660.308594 966.589844 1663.339844 963.550781 C 1671.5 955.398438 1700.039062 958.121094 1706.828125 963.550781 C 1707.890625 964.398438 1709.371094 964.789062 1711.171875 964.878906 C 1720.960938 965.320312 1740.199219 956.351562 1751.679688 958.410156 C 1765.269531 960.828125 1762.148438 945.601562 1771.660156 948.320312 C 1773.648438 948.890625 1775.398438 949.519531 1777.070312 950.179688 C 1783.359375 952.691406 1788.378906 955.679688 1800.199219 957.828125 C 1815.148438 960.550781 1831.460938 948.289062 1827.378906 938.789062 Z M 1827.378906 938.789062 "/>
</clipPath>
<clipPath id="clip-2">
<path clip-rule="nonzero" d="M 1827.378906 938.789062 C 1823.308594 929.289062 1824.671875 923.859375 1811.078125 912.980469 C 1799.171875 903.460938 1796.648438 907.488281 1783.421875 895.851562 C 1781.539062 894.199219 1779.460938 892.238281 1777.101562 889.878906 C 1765.828125 878.609375 1762.660156 875.441406 1759.410156 872.199219 C 1757.179688 869.960938 1754.898438 867.679688 1749.921875 862.699219 C 1742.011719 854.789062 1746.03125 846.320312 1742.148438 842.78125 C 1740.03125 840.851562 1735.550781 840.390625 1725.460938 842.308594 C 1700.898438 846.988281 1699.480469 847.640625 1688.308594 852.070312 C 1686.5 852.78125 1684.429688 853.601562 1681.960938 854.539062 C 1677.578125 856.230469 1671.828125 856.269531 1665.429688 855.148438 C 1646.039062 851.75 1620.699219 837.671875 1609.460938 826.328125 C 1609.058594 825.929688 1608.671875 825.550781 1608.28125 825.171875 C 1594.011719 811.25 1584.851562 810.859375 1579.558594 796.308594 C 1574.121094 781.359375 1578.199219 773.199219 1572.761719 759.609375 C 1567.328125 746.019531 1544.699219 755.328125 1535.191406 748.539062 C 1534.050781 747.730469 1532.921875 746.859375 1531.78125 745.941406 C 1531.089844 745.378906 1530.390625 744.789062 1529.691406 744.191406 C 1521.878906 737.480469 1513.558594 728.269531 1502.570312 717.28125 C 1488.980469 703.691406 1499.578125 713.199219 1485.449219 690.101562 C 1483.691406 687.230469 1482.199219 684.609375 1480.910156 682.171875 C 1479.859375 680.191406 1478.941406 678.320312 1478.128906 676.53125 C 1475.210938 670.058594 1473.660156 664.578125 1472.070312 658.191406 C 1470.898438 653.511719 1469.710938 648.328125 1467.960938 641.921875 C 1467.210938 639.191406 1466.359375 636.238281 1465.359375 633.011719 C 1465.089844 632.121094 1464.808594 631.21875 1464.519531 630.300781 C 1462.820312 624.96875 1461.128906 619.261719 1459.410156 613.359375 C 1451.480469 586.160156 1443.070312 555.121094 1431.898438 540.601562 C 1418.308594 522.941406 1412.871094 514.78125 1399.28125 494.398438 C 1385.691406 474.011719 1397.921875 487.601562 1369.378906 454.980469 C 1361.289062 445.738281 1353.53125 434.738281 1346.25 424.109375 C 1336.640625 410.070312 1327.878906 396.660156 1320.300781 388.710938 C 1313.371094 381.429688 1307.441406 378.730469 1302.789062 384.308594 C 1290.738281 398.769531 1287.238281 401.480469 1279.019531 413.269531 C 1277.96875 414.78125 1276.839844 416.441406 1275.609375 418.289062 C 1264.738281 434.601562 1266.089844 434.601562 1252.5 448.191406 C 1248.871094 451.820312 1246.109375 454.480469 1243.859375 456.558594 C 1237.699219 462.261719 1235.371094 463.601562 1229.398438 468.570312 C 1224.480469 472.671875 1219.070312 476.28125 1211.671875 480.28125 C 1206.800781 482.921875 1201.078125 485.71875 1194.058594 488.960938 C 1176.398438 497.109375 1172.300781 477.96875 1160.070312 484.761719 C 1147.828125 491.558594 1160.96875 487.480469 1145.570312 505.148438 C 1144.75 506.089844 1143.949219 506.988281 1143.171875 507.871094 C 1129.328125 523.421875 1122.011719 529.050781 1122.011719 543.199219 C 1122.011719 558.148438 1122.390625 543.46875 1103.371094 554.339844 C 1084.339844 565.210938 1078.898438 569.289062 1058.519531 573.371094 C 1038.128906 577.441406 1039.488281 578.800781 1012.308594 574.71875 C 1011.011719 574.53125 1009.761719 574.339844 1008.570312 574.160156 C 984.835938 570.621094 981.5625 570.128906 964.742188 559.769531 C 955.058594 553.820312 946.898438 551.039062 940.824219 547.960938 C 939.265625 547.171875 937.84375 546.359375 936.570312 545.46875 C 933.75 543.511719 931.65625 541.148438 930.386719 537.769531 C 926.308594 526.890625 930.386719 517.378906 923.589844 509.230469 C 916.796875 501.070312 912.738281 514.78125 905.945312 505.269531 C 899.148438 495.761719 895.070312 478.089844 878.765625 475.371094 C 876.921875 475.058594 875.269531 474.820312 873.777344 474.628906 C 865.65625 473.578125 862.257812 473.820312 858.523438 471.261719 C 856.964844 470.191406 855.34375 468.621094 853.296875 466.269531 C 853.179688 466.128906 853.0625 466 852.941406 465.859375 C 844.785156 456.339844 833.914062 431.878906 820.324219 421.011719 C 806.734375 410.128906 808.09375 410.128906 797.21875 397.898438 C 786.347656 385.671875 793.144531 393.289062 779.550781 381.328125 C 776.417969 378.570312 773.859375 375.871094 771.632812 373.511719 C 764.203125 365.648438 760.421875 361.628906 751.011719 372.078125 C 738.78125 385.671875 718.710938 380.898438 707.839844 374.109375 C 706.308594 373.148438 704.945312 372.191406 703.699219 371.21875 C 703.578125 371.121094 703.460938 371.03125 703.34375 370.941406 C 695.972656 365.101562 692.78125 359.019531 684.734375 352.859375 C 676.019531 346.179688 667.308594 334.21875 657.546875 341.660156 C 656.652344 342.339844 655.75 343.179688 654.835938 344.210938 C 643.960938 356.441406 648.039062 353.71875 637.167969 365.949219 C 626.292969 378.179688 601.832031 387.699219 596.394531 398.570312 C 592.316406 406.730469 592.828125 415.648438 594.484375 423.609375 C 594.671875 424.511719 594.875 425.398438 595.085938 426.269531 C 595.5 427.96875 595.945312 429.621094 596.394531 431.191406 C 596.6875 432.210938 597.082031 433.21875 597.546875 434.21875 C 601.386719 442.410156 610.425781 449.289062 614.0625 452.929688 C 618.140625 457.011719 641.246094 459.730469 645.320312 463.800781 C 649.398438 467.878906 649.398438 484.191406 650.757812 488.269531 C 651.226562 489.671875 653.902344 493.238281 657.546875 497.429688 C 664.507812 505.441406 674.988281 515.71875 680.339844 517.5 C 680.445312 517.53125 680.546875 517.570312 680.648438 517.601562 C 688.601562 520.320312 692.761719 524.429688 707.523438 535.171875 C 720.1875 544.378906 727.972656 550.660156 735.84375 559.808594 C 737.261719 561.460938 738.683594 563.199219 740.140625 565.070312 C 740.84375 565.96875 741.546875 566.789062 742.246094 567.550781 C 747.335938 573.039062 752.195312 574.898438 755.121094 578.210938 C 757.226562 580.601562 758.335938 583.738281 757.808594 589.53125 C 756.449219 604.480469 702.152344 574.121094 702.152344 583.628906 C 702.152344 590.71875 708.183594 595.539062 705.644531 600.351562 C 704.773438 602 702.898438 603.640625 699.433594 605.371094 C 685.84375 612.171875 684.484375 616.25 668.175781 618.960938 C 655.136719 621.140625 649.042969 621.570312 639.480469 616.789062 C 639.148438 616.621094 638.808594 616.449219 638.464844 616.269531 C 636.347656 615.160156 634.058594 613.808594 631.480469 612.171875 C 631.296875 612.050781 631.117188 611.941406 630.9375 611.820312 C 616.832031 602.789062 626.167969 611.761719 623.382812 614.019531 C 622.535156 614.699219 621.582031 612.921875 620.769531 612.441406 C 600.195312 600.179688 615.535156 614.039062 592.003906 615.351562 C 590.996094 615.410156 590.019531 615.46875 589.074219 615.550781 C 572.230469 616.851562 564.90625 620.660156 554.21875 619.449219 C 550.941406 619.078125 547.355469 618.238281 543.078125 616.710938 C 524.050781 609.921875 529.484375 619.429688 511.816406 603.121094 C 509.980469 601.421875 508.351562 600.050781 506.898438 598.941406 C 494.40625 589.351562 495.367188 598.988281 494.152344 586.808594 C 494.082031 586.128906 494.0625 585.46875 494.085938 584.839844 C 494.484375 572.941406 509.640625 570.160156 494.152344 563.710938 C 491.773438 562.71875 489.308594 561.929688 486.808594 561.289062 C 481.328125 559.898438 475.675781 559.230469 470.378906 558.761719 C 461.519531 557.96875 453.660156 557.730469 449.300781 555.550781 C 441.148438 551.480469 459.042969 556.199219 429.144531 541.25 C 424.894531 539.128906 424.660156 537.839844 421.890625 536.089844 C 412.078125 529.890625 410.082031 525.960938 405.890625 523.761719 C 402.925781 522.199219 398.867188 521.511719 390.175781 521.511719 C 365.714844 521.511719 365.714844 512 348.046875 531.019531 C 330.378906 550.050781 335.816406 548.691406 323.582031 562.28125 C 318 568.488281 315.910156 569.871094 314.636719 570.96875 C 313.125 572.269531 312.773438 573.160156 309.078125 581.289062 C 302.285156 596.238281 303.644531 596.238281 309.078125 608.46875 C 314.515625 620.699219 319.953125 619.339844 333.542969 623.421875 C 347.132812 627.5 343.296875 626.21875 341.9375 638.460938 C 341.28125 644.371094 333.960938 646.789062 325.957031 649.089844 C 317.394531 651.550781 308.050781 653.878906 305.242188 660.199219 C 299.804688 672.429688 279.421875 673.789062 301.164062 683.308594 C 322.808594 692.769531 328.296875 690.121094 339.066406 690.101562 C 339.117188 690.101562 339.167969 690.101562 339.21875 690.101562 C 350.089844 690.101562 348.730469 687.378906 366.398438 699.609375 C 384.066406 711.839844 386.785156 713.199219 400.375 726.789062 C 413.964844 740.378906 386.613281 730.160156 401.5625 746.46875 C 403.429688 748.511719 405.335938 750.261719 407.191406 751.808594 C 415.183594 758.5 422.191406 761.300781 420.628906 765.5 C 419.644531 768.128906 415.28125 771.320312 405.640625 776.371094 C 400.832031 778.890625 396.761719 781.511719 393.347656 784.179688 C 379.289062 795.199219 376.402344 807.210938 379.125 817.441406 C 379.660156 819.46875 380.417969 821.421875 381.347656 823.289062 C 388.144531 836.878906 390.863281 838.238281 399.015625 849.109375 C 401.480469 852.390625 403.691406 855.058594 405.585938 857.511719 C 409.957031 863.191406 412.605469 867.75 412.605469 876.289062 C 412.605469 888.519531 415.324219 889.878906 420.761719 902.109375 C 421.210938 903.128906 421.585938 904.078125 421.90625 904.988281 C 425.339844 914.730469 422.3125 918.738281 435.769531 924.660156 C 436.1875 924.839844 436.617188 925.03125 437.070312 925.21875 C 446.628906 929.199219 441.53125 934.628906 448.433594 937.28125 C 453.308594 939.148438 455.339844 946.628906 463.777344 952.261719 C 484.160156 965.839844 482.269531 970.421875 487.707031 975.851562 C 487.953125 976.101562 488.238281 976.300781 488.550781 976.441406 C 490.863281 977.539062 494.839844 976.039062 499.09375 974.660156 C 503.53125 973.21875 508.273438 971.898438 511.742188 973.789062 C 514.316406 975.191406 516.191406 978.351562 516.726562 984.519531 C 518.761719 1008.078125 540.523438 996.089844 528.292969 1015.539062 C 520.828125 1027.410156 523.238281 1038.109375 520.21875 1045.101562 C 518.292969 1049.570312 514.15625 1052.53125 503.835938 1053.320312 C 484.757812 1054.789062 479.417969 1048.859375 468.792969 1049.988281 C 464.660156 1050.429688 459.730469 1051.941406 452.882812 1055.359375 C 451.4375 1056.078125 450.097656 1056.769531 448.847656 1057.421875 C 436.359375 1063.921875 433.605469 1067.039062 438.039062 1071.789062 C 440.664062 1074.601562 445.800781 1077.980469 452.929688 1082.96875 C 453.617188 1083.449219 454.296875 1083.910156 454.972656 1084.351562 C 474.402344 1097.101562 490.027344 1095.269531 501.847656 1097.238281 C 514.074219 1099.269531 516.113281 1097.238281 532.417969 1121.691406 C 536.296875 1127.511719 540.058594 1132.398438 543.621094 1136.671875 C 555.046875 1150.371094 564.445312 1157.699219 569.105469 1168.570312 C 575.222656 1182.839844 577.257812 1182.839844 585.410156 1201.179688 C 593.5625 1219.53125 583.375 1227.679688 613.945312 1227.679688 C 616.339844 1227.679688 618.519531 1227.621094 620.515625 1227.5 C 643.800781 1226.171875 642.394531 1217.828125 664.175781 1219.46875 C 664.417969 1219.488281 664.65625 1219.511719 664.902344 1219.53125 C 669.011719 1219.871094 673.414062 1220.558594 677.847656 1221.53125 C 690.347656 1224.25 703.128906 1229.171875 710.570312 1234.789062 C 716.199219 1239.039062 718.777344 1243.679688 715.855469 1248.058594 C 714.921875 1249.460938 713.878906 1250.75 712.753906 1251.960938 C 704.046875 1261.328125 690.230469 1265.769531 681.207031 1276.601562 C 679.1875 1279.019531 677.007812 1281.199219 674.953125 1283.269531 C 666.640625 1291.648438 660.382812 1298.171875 675.09375 1311.238281 C 676.90625 1312.859375 678.679688 1314.308594 680.421875 1315.628906 C 695.804688 1327.351562 708.695312 1329.25 724.519531 1344.398438 C 725.027344 1344.878906 725.535156 1345.378906 726.046875 1345.890625 C 736.675781 1356.519531 733.617188 1364.410156 727.976562 1371.550781 C 725.085938 1375.210938 721.523438 1378.660156 718.769531 1382.191406 C 717.621094 1383.660156 716.613281 1385.140625 715.855469 1386.660156 C 711.175781 1396.011719 706.773438 1438.601562 705 1458.691406 C 704.457031 1464.859375 704.519531 1470.808594 705.476562 1476.070312 C 709.550781 1498.488281 701.398438 1504.609375 711.589844 1518.878906 C 713.125 1521.019531 714.65625 1523.21875 716.246094 1525.269531 C 720.703125 1531.019531 725.597656 1535.671875 732.15625 1535.058594 C 736.472656 1534.660156 741.507812 1531.980469 747.613281 1525.851562 C 750.902344 1522.550781 754.503906 1518.25 758.46875 1512.761719 C 766.289062 1501.929688 771.4375 1492.171875 775.390625 1483.308594 C 784.824219 1462.148438 783.617188 1426.078125 799.421875 1413.148438 C 821.839844 1394.808594 809.609375 1398.890625 832.03125 1390.730469 C 832.085938 1390.710938 832.140625 1390.691406 832.195312 1390.671875 C 841.859375 1387.160156 846.949219 1385.550781 851.117188 1383.351562 C 856.546875 1380.488281 860.40625 1376.621094 870.757812 1366.269531 C 877.507812 1359.519531 884.535156 1350.839844 891.429688 1341.851562 C 896.824219 1334.820312 902.140625 1327.601562 907.183594 1320.96875 C 913.207031 1313.039062 918.839844 1305.960938 923.75 1301.050781 C 935.648438 1289.160156 937.625 1285.761719 953.324219 1276.691406 C 956.449219 1274.878906 960.113281 1272.851562 964.511719 1270.480469 C 991.007812 1256.210938 1003.429688 1252.140625 1034.921875 1239.910156 C 1039.671875 1238.070312 1044.011719 1236.089844 1048.078125 1234.03125 C 1063.039062 1226.460938 1074.070312 1217.851562 1086.191406 1211.351562 C 1092.628906 1207.890625 1099.371094 1205.019531 1107.179688 1203.21875 C 1125.851562 1198.910156 1126.039062 1210.171875 1140.519531 1214.398438 C 1146.601562 1216.171875 1159.480469 1220.578125 1167.308594 1229.011719 C 1193.210938 1256.898438 1206.679688 1251.390625 1212.75 1263.53125 C 1212.890625 1263.808594 1213.03125 1264.089844 1213.171875 1264.371094 C 1214.171875 1266.371094 1215.550781 1268.039062 1217.070312 1269.53125 C 1224.269531 1276.558594 1234.609375 1279.480469 1222.679688 1293.339844 C 1221.710938 1294.46875 1220.578125 1295.679688 1219.28125 1296.980469 C 1213.800781 1302.460938 1208.910156 1306.621094 1204.601562 1310.039062 C 1192.910156 1319.339844 1185.578125 1323.238281 1182.601562 1333.671875 C 1179.488281 1344.550781 1157.828125 1354.960938 1155.859375 1362.910156 C 1155.398438 1364.78125 1156.03125 1366.511719 1158.238281 1368.078125 C 1158.949219 1368.589844 1159.828125 1369.078125 1160.898438 1369.550781 C 1173.199219 1375.019531 1192.300781 1389.679688 1192.808594 1404.691406 C 1192.96875 1409.308594 1191.359375 1413.960938 1187.269531 1418.378906 C 1186.089844 1419.648438 1184.699219 1420.910156 1183.089844 1422.140625 C 1182.589844 1422.53125 1182.058594 1422.910156 1181.511719 1423.289062 C 1180.171875 1424.21875 1178.691406 1425.140625 1177.070312 1426.03125 C 1174.691406 1427.351562 1173.800781 1428.378906 1173.238281 1429.328125 C 1172.011719 1431.421875 1172.390625 1433.171875 1162.121094 1436.910156 C 1147.171875 1442.339844 1141.738281 1446.421875 1129.5 1450.5 C 1117.269531 1454.570312 1098.25 1451.859375 1106.398438 1462.730469 C 1108.648438 1465.730469 1110.890625 1468.730469 1112.96875 1471.519531 C 1118.410156 1478.828125 1122.660156 1484.589844 1122.660156 1484.589844 C 1122.660156 1484.589844 1121.480469 1485.378906 1120.460938 1486.808594 C 1119.160156 1488.640625 1118.140625 1491.519531 1120.25 1495.140625 C 1120.820312 1496.101562 1121.601562 1497.121094 1122.660156 1498.179688 C 1127.410156 1502.929688 1134.011719 1509.058594 1140.570312 1513.890625 C 1145.269531 1517.359375 1149.949219 1520.148438 1153.921875 1521.289062 C 1163.441406 1524 1178.378906 1526.71875 1181.101562 1530.800781 C 1183.820312 1534.878906 1210.371094 1555.820312 1211.730469 1569.410156 C 1213.089844 1583 1217.171875 1589.789062 1226.679688 1592.511719 C 1236.191406 1595.230469 1234.839844 1591.148438 1245.710938 1592.511719 C 1256.578125 1593.871094 1257.941406 1584.910156 1266.089844 1593.46875 C 1274.25 1602.03125 1278.328125 1607.460938 1283.761719 1619.691406 C 1285.550781 1623.730469 1286.460938 1626.429688 1287.410156 1628.679688 C 1289.328125 1633.25 1291.410156 1635.960938 1301.429688 1644.160156 C 1316.378906 1656.390625 1316.378906 1663.179688 1329.96875 1657.75 C 1343.300781 1652.410156 1321.328125 1652.308594 1342.289062 1652.308594 C 1342.699219 1652.308594 1343.121094 1652.308594 1343.558594 1652.308594 C 1364.691406 1652.308594 1355.140625 1662.300781 1371.011719 1660.480469 C 1372.5 1660.308594 1374.199219 1660.039062 1376.179688 1659.640625 C 1399.28125 1655.03125 1414.230469 1667.261719 1408.789062 1648.230469 C 1403.359375 1629.210938 1403.359375 1630.570312 1396.558594 1619.691406 C 1390.78125 1610.441406 1388.929688 1608.078125 1388.511719 1600.871094 C 1388.441406 1599.609375 1388.410156 1598.210938 1388.410156 1596.589844 C 1388.410156 1585.71875 1399.28125 1547.660156 1395.199219 1539.511719 C 1391.128906 1531.351562 1388.410156 1534.070312 1385.691406 1524.558594 C 1382.96875 1515.050781 1378.898438 1509.609375 1382.96875 1501.460938 C 1387.050781 1493.300781 1389.769531 1494.660156 1393.851562 1478.351562 C 1397.320312 1464.441406 1399.808594 1425.808594 1400.46875 1412.230469 C 1400.578125 1409.878906 1400.640625 1408.28125 1400.640625 1407.679688 C 1400.640625 1404.359375 1408.171875 1413.570312 1412.121094 1406.308594 C 1413.019531 1404.648438 1414.011719 1402.929688 1415.058594 1401.160156 C 1418.371094 1395.628906 1420.210938 1390.550781 1423.839844 1386.210938 C 1426.460938 1383.078125 1430 1380.328125 1435.691406 1378.050781 C 1449.28125 1372.621094 1457.441406 1368.539062 1457.441406 1378.050781 C 1457.441406 1387.570312 1441.128906 1394.359375 1457.441406 1397.078125 C 1460.941406 1397.671875 1463.75 1398.558594 1466.101562 1399.519531 C 1474.699219 1403.011719 1477.148438 1407.269531 1484.621094 1399.800781 C 1491.421875 1392.988281 1496.839844 1390.78125 1500.371094 1383.691406 C 1501.019531 1382.378906 1501.601562 1380.910156 1502.121094 1379.210938 C 1502.71875 1377.25 1503.230469 1375 1503.640625 1372.351562 C 1505.101562 1363.019531 1499.21875 1353.929688 1495.75 1346.039062 C 1492.75 1339.199219 1491.558594 1333.269531 1498.488281 1328.859375 C 1513.441406 1319.339844 1525.671875 1331.570312 1533.828125 1328.859375 C 1541.980469 1326.140625 1548.78125 1322.058594 1544.699219 1311.191406 C 1544.160156 1309.738281 1543.738281 1308.558594 1543.378906 1307.558594 C 1541.078125 1301.070312 1541.710938 1302.398438 1531.109375 1289.441406 C 1518.878906 1274.488281 1516.160156 1270.421875 1513.441406 1260.898438 C 1512.96875 1259.238281 1512.488281 1257.078125 1512.058594 1254.570312 C 1510.101562 1243.140625 1509.039062 1224.410156 1512.96875 1212.019531 C 1513.121094 1211.539062 1513.28125 1211.070312 1513.441406 1210.621094 C 1515.648438 1204.550781 1521.390625 1198.710938 1527.449219 1193.269531 C 1536.308594 1185.308594 1545.839844 1178.21875 1545.921875 1172.558594 C 1546.058594 1163.050781 1541.699219 1161.691406 1545.921875 1144.019531 C 1550.140625 1126.359375 1545.789062 1108.691406 1545.921875 1093.738281 C 1546.058594 1078.789062 1542.671875 1078.789062 1547.761719 1062.480469 C 1552.859375 1046.171875 1548.78125 1043.449219 1556.929688 1031.21875 C 1559.269531 1027.710938 1561.269531 1024.320312 1563.070312 1021.101562 C 1567.539062 1013.089844 1570.71875 1006.171875 1574.601562 1001.320312 C 1580.039062 994.53125 1582.75 982.980469 1601.78125 977.878906 C 1608.25 976.148438 1615.089844 976.140625 1621.449219 976.820312 C 1633.789062 978.160156 1644.351562 982.121094 1647.039062 981.21875 C 1649.601562 980.371094 1652.160156 976.828125 1655.730469 972.300781 C 1657.839844 969.621094 1660.308594 966.589844 1663.339844 963.550781 C 1671.5 955.398438 1700.039062 958.121094 1706.828125 963.550781 C 1707.890625 964.398438 1709.371094 964.789062 1711.171875 964.878906 C 1720.960938 965.320312 1740.199219 956.351562 1751.679688 958.410156 C 1765.269531 960.828125 1762.148438 945.601562 1771.660156 948.320312 C 1773.648438 948.890625 1775.398438 949.519531 1777.070312 950.179688 C 1783.359375 952.691406 1788.378906 955.679688 1800.199219 957.828125 C 1815.148438 960.550781 1831.460938 948.289062 1827.378906 938.789062 "/>
</clipPath>
<linearGradient id="linear-pattern-0" gradientUnits="userSpaceOnUse" x1="-0.00776354" y1="0" x2="1.002239" y2="0" gradientTransform="matrix(1536.67, 0, 0, 1536.67, 291.35, 1000)">
<stop offset="0" stop-color="rgb(2.352905%, 0%, 19.215393%)" stop-opacity="1"/>
<stop offset="0.0078125" stop-color="rgb(2.352905%, 0%, 19.218445%)" stop-opacity="1"/>
<stop offset="0.0117187" stop-color="rgb(2.357483%, 0%, 19.474792%)" stop-opacity="1"/>
<stop offset="0.015625" stop-color="rgb(2.362061%, 0%, 19.728088%)" stop-opacity="1"/>
<stop offset="0.0195312" stop-color="rgb(2.366638%, 0%, 19.979858%)" stop-opacity="1"/>
<stop offset="0.0234375" stop-color="rgb(2.371216%, 0%, 20.231628%)" stop-opacity="1"/>
<stop offset="0.0273437" stop-color="rgb(2.375793%, 0%, 20.483398%)" stop-opacity="1"/>
<stop offset="0.03125" stop-color="rgb(2.380371%, 0%, 20.736694%)" stop-opacity="1"/>
<stop offset="0.0351562" stop-color="rgb(2.384949%, 0%, 20.988464%)" stop-opacity="1"/>
<stop offset="0.0390625" stop-color="rgb(2.389526%, 0%, 21.240234%)" stop-opacity="1"/>
<stop offset="0.0429687" stop-color="rgb(2.394104%, 0%, 21.492004%)" stop-opacity="1"/>
<stop offset="0.046875" stop-color="rgb(2.398682%, 0%, 21.7453%)" stop-opacity="1"/>
<stop offset="0.0507812" stop-color="rgb(2.403259%, 0%, 21.99707%)" stop-opacity="1"/>
<stop offset="0.0546875" stop-color="rgb(2.407837%, 0%, 22.24884%)" stop-opacity="1"/>
<stop offset="0.0585937" stop-color="rgb(2.412415%, 0%, 22.50061%)" stop-opacity="1"/>
<stop offset="0.0625" stop-color="rgb(2.416992%, 0%, 22.753906%)" stop-opacity="1"/>
<stop offset="0.0664062" stop-color="rgb(2.42157%, 0%, 23.005676%)" stop-opacity="1"/>
<stop offset="0.0703125" stop-color="rgb(2.426147%, 0%, 23.257446%)" stop-opacity="1"/>
<stop offset="0.0742187" stop-color="rgb(2.430725%, 0%, 23.509216%)" stop-opacity="1"/>
<stop offset="0.078125" stop-color="rgb(2.435303%, 0%, 23.762512%)" stop-opacity="1"/>
<stop offset="0.0820312" stop-color="rgb(2.43988%, 0%, 24.014282%)" stop-opacity="1"/>
<stop offset="0.0859375" stop-color="rgb(2.444458%, 0%, 24.267578%)" stop-opacity="1"/>
<stop offset="0.0898437" stop-color="rgb(2.449036%, 0%, 24.519348%)" stop-opacity="1"/>
<stop offset="0.09375" stop-color="rgb(2.455139%, 0%, 24.771118%)" stop-opacity="1"/>
<stop offset="0.0976562" stop-color="rgb(2.459717%, 0%, 25.022888%)" stop-opacity="1"/>
<stop offset="0.101562" stop-color="rgb(2.464294%, 0%, 25.276184%)" stop-opacity="1"/>
<stop offset="0.105469" stop-color="rgb(2.468872%, 0%, 25.527954%)" stop-opacity="1"/>
<stop offset="0.109375" stop-color="rgb(2.47345%, 0%, 25.779724%)" stop-opacity="1"/>
<stop offset="0.113281" stop-color="rgb(2.478027%, 0%, 26.031494%)" stop-opacity="1"/>
<stop offset="0.117187" stop-color="rgb(2.482605%, 0%, 26.28479%)" stop-opacity="1"/>
<stop offset="0.121094" stop-color="rgb(2.487183%, 0%, 26.53656%)" stop-opacity="1"/>
<stop offset="0.125" stop-color="rgb(2.49176%, 0%, 26.78833%)" stop-opacity="1"/>
<stop offset="0.128906" stop-color="rgb(2.496338%, 0%, 27.0401%)" stop-opacity="1"/>
<stop offset="0.132812" stop-color="rgb(2.500916%, 0%, 27.293396%)" stop-opacity="1"/>
<stop offset="0.136719" stop-color="rgb(2.505493%, 0%, 27.545166%)" stop-opacity="1"/>
<stop offset="0.140625" stop-color="rgb(2.510071%, 0%, 27.796936%)" stop-opacity="1"/>
<stop offset="0.144531" stop-color="rgb(2.514648%, 0%, 28.048706%)" stop-opacity="1"/>
<stop offset="0.148437" stop-color="rgb(2.519226%, 0%, 28.302002%)" stop-opacity="1"/>
<stop offset="0.152344" stop-color="rgb(2.523804%, 0%, 28.553772%)" stop-opacity="1"/>
<stop offset="0.15625" stop-color="rgb(2.528381%, 0%, 28.807068%)" stop-opacity="1"/>
<stop offset="0.160156" stop-color="rgb(2.532959%, 0%, 29.058838%)" stop-opacity="1"/>
<stop offset="0.164062" stop-color="rgb(2.537537%, 0%, 29.310608%)" stop-opacity="1"/>
<stop offset="0.167969" stop-color="rgb(2.542114%, 0%, 29.562378%)" stop-opacity="1"/>
<stop offset="0.171875" stop-color="rgb(2.546692%, 0%, 29.815674%)" stop-opacity="1"/>
<stop offset="0.175781" stop-color="rgb(2.55127%, 0%, 30.067444%)" stop-opacity="1"/>
<stop offset="0.179687" stop-color="rgb(2.555847%, 0%, 30.319214%)" stop-opacity="1"/>
<stop offset="0.183594" stop-color="rgb(2.560425%, 0%, 30.570984%)" stop-opacity="1"/>
<stop offset="0.1875" stop-color="rgb(2.566528%, 0%, 30.82428%)" stop-opacity="1"/>
<stop offset="0.191406" stop-color="rgb(2.571106%, 0%, 31.07605%)" stop-opacity="1"/>
<stop offset="0.195312" stop-color="rgb(2.575684%, 0%, 31.32782%)" stop-opacity="1"/>
<stop offset="0.199219" stop-color="rgb(2.580261%, 0%, 31.57959%)" stop-opacity="1"/>
<stop offset="0.203125" stop-color="rgb(2.584839%, 0%, 31.832886%)" stop-opacity="1"/>
<stop offset="0.207031" stop-color="rgb(2.589417%, 0%, 32.084656%)" stop-opacity="1"/>
<stop offset="0.210937" stop-color="rgb(2.593994%, 0%, 32.336426%)" stop-opacity="1"/>
<stop offset="0.214844" stop-color="rgb(2.598572%, 0%, 32.588196%)" stop-opacity="1"/>
<stop offset="0.21875" stop-color="rgb(2.603149%, 0%, 32.841492%)" stop-opacity="1"/>
<stop offset="0.222656" stop-color="rgb(2.607727%, 0%, 33.093262%)" stop-opacity="1"/>
<stop offset="0.226562" stop-color="rgb(2.612305%, 0%, 33.345032%)" stop-opacity="1"/>
<stop offset="0.230469" stop-color="rgb(2.616882%, 0%, 33.596802%)" stop-opacity="1"/>
<stop offset="0.234375" stop-color="rgb(2.62146%, 0%, 33.850098%)" stop-opacity="1"/>
<stop offset="0.238281" stop-color="rgb(2.626038%, 0%, 34.101868%)" stop-opacity="1"/>
<stop offset="0.242187" stop-color="rgb(2.630615%, 0%, 34.355164%)" stop-opacity="1"/>
<stop offset="0.246094" stop-color="rgb(2.635193%, 0%, 34.606934%)" stop-opacity="1"/>
<stop offset="0.25" stop-color="rgb(2.639771%, 0%, 34.858704%)" stop-opacity="1"/>
<stop offset="0.253906" stop-color="rgb(2.644348%, 0%, 35.110474%)" stop-opacity="1"/>
<stop offset="0.257812" stop-color="rgb(2.648926%, 0%, 35.36377%)" stop-opacity="1"/>
<stop offset="0.261719" stop-color="rgb(2.653503%, 0%, 35.61554%)" stop-opacity="1"/>
<stop offset="0.265625" stop-color="rgb(2.658081%, 0%, 35.86731%)" stop-opacity="1"/>
<stop offset="0.269531" stop-color="rgb(2.662659%, 0%, 36.11908%)" stop-opacity="1"/>
<stop offset="0.273438" stop-color="rgb(2.667236%, 0%, 36.372375%)" stop-opacity="1"/>
<stop offset="0.277344" stop-color="rgb(2.671814%, 0%, 36.624146%)" stop-opacity="1"/>
<stop offset="0.28125" stop-color="rgb(2.677917%, 0%, 36.875916%)" stop-opacity="1"/>
<stop offset="0.285156" stop-color="rgb(2.682495%, 0%, 37.127686%)" stop-opacity="1"/>
<stop offset="0.289062" stop-color="rgb(2.687073%, 0%, 37.380981%)" stop-opacity="1"/>
<stop offset="0.292969" stop-color="rgb(2.69165%, 0%, 37.632751%)" stop-opacity="1"/>
<stop offset="0.296875" stop-color="rgb(2.696228%, 0%, 37.884521%)" stop-opacity="1"/>
<stop offset="0.300781" stop-color="rgb(2.700806%, 0%, 38.136292%)" stop-opacity="1"/>
<stop offset="0.304687" stop-color="rgb(2.705383%, 0%, 38.389587%)" stop-opacity="1"/>
<stop offset="0.308594" stop-color="rgb(2.709961%, 0%, 38.641357%)" stop-opacity="1"/>
<stop offset="0.3125" stop-color="rgb(2.714539%, 0%, 38.894653%)" stop-opacity="1"/>
<stop offset="0.316406" stop-color="rgb(2.719116%, 0%, 39.146423%)" stop-opacity="1"/>
<stop offset="0.320312" stop-color="rgb(2.723694%, 0%, 39.398193%)" stop-opacity="1"/>
<stop offset="0.324219" stop-color="rgb(2.728271%, 0%, 39.649963%)" stop-opacity="1"/>
<stop offset="0.328125" stop-color="rgb(2.732849%, 0%, 39.903259%)" stop-opacity="1"/>
<stop offset="0.332031" stop-color="rgb(2.737427%, 0%, 40.155029%)" stop-opacity="1"/>
<stop offset="0.335938" stop-color="rgb(2.742004%, 0%, 40.406799%)" stop-opacity="1"/>
<stop offset="0.339844" stop-color="rgb(2.746582%, 0%, 40.658569%)" stop-opacity="1"/>
<stop offset="0.34375" stop-color="rgb(2.75116%, 0%, 40.911865%)" stop-opacity="1"/>
<stop offset="0.347656" stop-color="rgb(2.755737%, 0%, 41.163635%)" stop-opacity="1"/>
<stop offset="0.351562" stop-color="rgb(2.760315%, 0%, 41.415405%)" stop-opacity="1"/>
<stop offset="0.355469" stop-color="rgb(2.764893%, 0%, 41.667175%)" stop-opacity="1"/>
<stop offset="0.359375" stop-color="rgb(2.76947%, 0%, 41.920471%)" stop-opacity="1"/>
<stop offset="0.363281" stop-color="rgb(2.774048%, 0%, 42.172241%)" stop-opacity="1"/>
<stop offset="0.367187" stop-color="rgb(2.778625%, 0%, 42.424011%)" stop-opacity="1"/>
<stop offset="0.371094" stop-color="rgb(2.783203%, 0%, 42.675781%)" stop-opacity="1"/>
<stop offset="0.375" stop-color="rgb(2.789307%, 0%, 42.929077%)" stop-opacity="1"/>
<stop offset="0.378906" stop-color="rgb(2.793884%, 0%, 43.180847%)" stop-opacity="1"/>
<stop offset="0.382812" stop-color="rgb(2.798462%, 0%, 43.434143%)" stop-opacity="1"/>
<stop offset="0.386719" stop-color="rgb(2.80304%, 0%, 43.685913%)" stop-opacity="1"/>
<stop offset="0.390625" stop-color="rgb(2.807617%, 0%, 43.937683%)" stop-opacity="1"/>
<stop offset="0.394531" stop-color="rgb(2.812195%, 0%, 44.189453%)" stop-opacity="1"/>
<stop offset="0.398437" stop-color="rgb(2.816772%, 0%, 44.442749%)" stop-opacity="1"/>
<stop offset="0.402344" stop-color="rgb(2.82135%, 0%, 44.694519%)" stop-opacity="1"/>
<stop offset="0.40625" stop-color="rgb(2.825928%, 0%, 44.946289%)" stop-opacity="1"/>
<stop offset="0.410156" stop-color="rgb(2.830505%, 0%, 45.198059%)" stop-opacity="1"/>
<stop offset="0.414062" stop-color="rgb(2.835083%, 0%, 45.451355%)" stop-opacity="1"/>
<stop offset="0.417969" stop-color="rgb(2.839661%, 0%, 45.703125%)" stop-opacity="1"/>
<stop offset="0.421875" stop-color="rgb(2.844238%, 0%, 45.954895%)" stop-opacity="1"/>
<stop offset="0.425781" stop-color="rgb(2.848816%, 0%, 46.206665%)" stop-opacity="1"/>
<stop offset="0.429687" stop-color="rgb(2.853394%, 0%, 46.459961%)" stop-opacity="1"/>
<stop offset="0.433594" stop-color="rgb(2.857971%, 0%, 46.711731%)" stop-opacity="1"/>
<stop offset="0.4375" stop-color="rgb(2.862549%, 0%, 46.963501%)" stop-opacity="1"/>
<stop offset="0.441406" stop-color="rgb(2.867126%, 0%, 47.215271%)" stop-opacity="1"/>
<stop offset="0.445312" stop-color="rgb(2.871704%, 0%, 47.468567%)" stop-opacity="1"/>
<stop offset="0.449219" stop-color="rgb(2.876282%, 0%, 47.720337%)" stop-opacity="1"/>
<stop offset="0.453125" stop-color="rgb(2.880859%, 0%, 47.972107%)" stop-opacity="1"/>
<stop offset="0.457031" stop-color="rgb(2.885437%, 0%, 48.223877%)" stop-opacity="1"/>
<stop offset="0.460938" stop-color="rgb(2.890015%, 0%, 48.477173%)" stop-opacity="1"/>
<stop offset="0.464844" stop-color="rgb(2.894592%, 0%, 48.728943%)" stop-opacity="1"/>
<stop offset="0.46875" stop-color="rgb(2.900696%, 0%, 48.982239%)" stop-opacity="1"/>
<stop offset="0.472656" stop-color="rgb(2.905273%, 0%, 49.234009%)" stop-opacity="1"/>
<stop offset="0.476562" stop-color="rgb(2.909851%, 0%, 49.485779%)" stop-opacity="1"/>
<stop offset="0.480469" stop-color="rgb(2.914429%, 0%, 49.737549%)" stop-opacity="1"/>
<stop offset="0.484375" stop-color="rgb(2.919006%, 0%, 49.990845%)" stop-opacity="1"/>
<stop offset="0.488281" stop-color="rgb(2.923584%, 0%, 50.242615%)" stop-opacity="1"/>
<stop offset="0.492187" stop-color="rgb(2.928162%, 0%, 50.494385%)" stop-opacity="1"/>
<stop offset="0.496094" stop-color="rgb(2.932739%, 0%, 50.746155%)" stop-opacity="1"/>
<stop offset="0.5" stop-color="rgb(2.937317%, 0%, 50.999451%)" stop-opacity="1"/>
<stop offset="0.503906" stop-color="rgb(2.941895%, 0%, 51.251221%)" stop-opacity="1"/>
<stop offset="0.507812" stop-color="rgb(2.946472%, 0%, 51.502991%)" stop-opacity="1"/>
<stop offset="0.511719" stop-color="rgb(2.95105%, 0%, 51.754761%)" stop-opacity="1"/>
<stop offset="0.515625" stop-color="rgb(2.955627%, 0%, 52.008057%)" stop-opacity="1"/>
<stop offset="0.519531" stop-color="rgb(2.960205%, 0%, 52.259827%)" stop-opacity="1"/>
<stop offset="0.523438" stop-color="rgb(2.964783%, 0%, 52.511597%)" stop-opacity="1"/>
<stop offset="0.527344" stop-color="rgb(2.96936%, 0%, 52.763367%)" stop-opacity="1"/>
<stop offset="0.53125" stop-color="rgb(2.973938%, 0%, 53.016663%)" stop-opacity="1"/>
<stop offset="0.535156" stop-color="rgb(2.978516%, 0%, 53.268433%)" stop-opacity="1"/>
<stop offset="0.539062" stop-color="rgb(2.983093%, 0%, 53.521729%)" stop-opacity="1"/>
<stop offset="0.542969" stop-color="rgb(2.987671%, 0%, 53.773499%)" stop-opacity="1"/>
<stop offset="0.546875" stop-color="rgb(2.992249%, 0%, 54.025269%)" stop-opacity="1"/>
<stop offset="0.550781" stop-color="rgb(2.996826%, 0%, 54.277039%)" stop-opacity="1"/>
<stop offset="0.554688" stop-color="rgb(3.001404%, 0%, 54.530334%)" stop-opacity="1"/>
<stop offset="0.558594" stop-color="rgb(3.005981%, 0%, 54.782104%)" stop-opacity="1"/>
<stop offset="0.5625" stop-color="rgb(3.012085%, 0%, 55.033875%)" stop-opacity="1"/>
<stop offset="0.566406" stop-color="rgb(3.016663%, 0%, 55.285645%)" stop-opacity="1"/>
<stop offset="0.570312" stop-color="rgb(3.02124%, 0%, 55.53894%)" stop-opacity="1"/>
<stop offset="0.574219" stop-color="rgb(3.025818%, 0%, 55.79071%)" stop-opacity="1"/>
<stop offset="0.578125" stop-color="rgb(3.030396%, 0%, 56.04248%)" stop-opacity="1"/>
<stop offset="0.582031" stop-color="rgb(3.034973%, 0%, 56.29425%)" stop-opacity="1"/>
<stop offset="0.585938" stop-color="rgb(3.039551%, 0%, 56.547546%)" stop-opacity="1"/>
<stop offset="0.589844" stop-color="rgb(3.044128%, 0%, 56.799316%)" stop-opacity="1"/>
<stop offset="0.59375" stop-color="rgb(3.048706%, 0%, 57.051086%)" stop-opacity="1"/>
<stop offset="0.597656" stop-color="rgb(3.053284%, 0%, 57.302856%)" stop-opacity="1"/>
<stop offset="0.601562" stop-color="rgb(3.057861%, 0%, 57.556152%)" stop-opacity="1"/>
<stop offset="0.605469" stop-color="rgb(3.062439%, 0%, 57.807922%)" stop-opacity="1"/>
<stop offset="0.609375" stop-color="rgb(3.067017%, 0%, 58.061218%)" stop-opacity="1"/>
<stop offset="0.613281" stop-color="rgb(3.071594%, 0%, 58.312988%)" stop-opacity="1"/>
<stop offset="0.617188" stop-color="rgb(3.076172%, 0%, 58.564758%)" stop-opacity="1"/>
<stop offset="0.621094" stop-color="rgb(3.08075%, 0%, 58.816528%)" stop-opacity="1"/>
<stop offset="0.625" stop-color="rgb(3.085327%, 0%, 59.069824%)" stop-opacity="1"/>
<stop offset="0.628906" stop-color="rgb(3.089905%, 0%, 59.321594%)" stop-opacity="1"/>
<stop offset="0.632812" stop-color="rgb(3.094482%, 0%, 59.573364%)" stop-opacity="1"/>
<stop offset="0.636719" stop-color="rgb(3.09906%, 0%, 59.825134%)" stop-opacity="1"/>
<stop offset="0.640625" stop-color="rgb(3.103638%, 0%, 60.07843%)" stop-opacity="1"/>
<stop offset="0.644531" stop-color="rgb(3.108215%, 0%, 60.3302%)" stop-opacity="1"/>
<stop offset="0.648437" stop-color="rgb(3.112793%, 0%, 60.58197%)" stop-opacity="1"/>
<stop offset="0.652344" stop-color="rgb(3.117371%, 0%, 60.83374%)" stop-opacity="1"/>
<stop offset="0.65625" stop-color="rgb(3.123474%, 0%, 61.087036%)" stop-opacity="1"/>
<stop offset="0.660156" stop-color="rgb(3.128052%, 0%, 61.338806%)" stop-opacity="1"/>
<stop offset="0.664062" stop-color="rgb(3.132629%, 0%, 61.590576%)" stop-opacity="1"/>
<stop offset="0.667969" stop-color="rgb(3.137207%, 0%, 61.842346%)" stop-opacity="1"/>
<stop offset="0.671875" stop-color="rgb(3.141785%, 0%, 62.095642%)" stop-opacity="1"/>
<stop offset="0.675781" stop-color="rgb(3.146362%, 0%, 62.347412%)" stop-opacity="1"/>
<stop offset="0.679688" stop-color="rgb(3.15094%, 0%, 62.600708%)" stop-opacity="1"/>
<stop offset="0.683594" stop-color="rgb(3.155518%, 0%, 62.852478%)" stop-opacity="1"/>
<stop offset="0.6875" stop-color="rgb(3.160095%, 0%, 63.104248%)" stop-opacity="1"/>
<stop offset="0.691406" stop-color="rgb(3.164673%, 0%, 63.356018%)" stop-opacity="1"/>
<stop offset="0.695312" stop-color="rgb(3.16925%, 0%, 63.609314%)" stop-opacity="1"/>
<stop offset="0.699219" stop-color="rgb(3.173828%, 0%, 63.861084%)" stop-opacity="1"/>
<stop offset="0.703125" stop-color="rgb(3.178406%, 0%, 64.112854%)" stop-opacity="1"/>
<stop offset="0.707031" stop-color="rgb(3.182983%, 0%, 64.364624%)" stop-opacity="1"/>
<stop offset="0.710938" stop-color="rgb(3.187561%, 0%, 64.61792%)" stop-opacity="1"/>
<stop offset="0.714844" stop-color="rgb(3.192139%, 0%, 64.86969%)" stop-opacity="1"/>
<stop offset="0.71875" stop-color="rgb(3.196716%, 0%, 65.12146%)" stop-opacity="1"/>
<stop offset="0.722656" stop-color="rgb(3.201294%, 0%, 65.37323%)" stop-opacity="1"/>
<stop offset="0.726562" stop-color="rgb(3.205872%, 0%, 65.626526%)" stop-opacity="1"/>
<stop offset="0.730469" stop-color="rgb(3.210449%, 0%, 65.878296%)" stop-opacity="1"/>
<stop offset="0.734375" stop-color="rgb(3.215027%, 0%, 66.130066%)" stop-opacity="1"/>
<stop offset="0.738281" stop-color="rgb(3.219604%, 0%, 66.381836%)" stop-opacity="1"/>
<stop offset="0.742188" stop-color="rgb(3.224182%, 0%, 66.635132%)" stop-opacity="1"/>
<stop offset="0.746094" stop-color="rgb(3.22876%, 0%, 66.886902%)" stop-opacity="1"/>
<stop offset="0.75" stop-color="rgb(3.234863%, 0%, 67.138672%)" stop-opacity="1"/>
<stop offset="0.753906" stop-color="rgb(3.239441%, 0%, 67.390442%)" stop-opacity="1"/>
<stop offset="0.757812" stop-color="rgb(3.244019%, 0%, 67.643738%)" stop-opacity="1"/>
<stop offset="0.761719" stop-color="rgb(3.248596%, 0%, 67.895508%)" stop-opacity="1"/>
<stop offset="0.765625" stop-color="rgb(3.253174%, 0%, 68.148804%)" stop-opacity="1"/>
<stop offset="0.769531" stop-color="rgb(3.257751%, 0%, 68.400574%)" stop-opacity="1"/>
<stop offset="0.773438" stop-color="rgb(3.262329%, 0%, 68.652344%)" stop-opacity="1"/>
<stop offset="0.777344" stop-color="rgb(3.266907%, 0%, 68.904114%)" stop-opacity="1"/>
<stop offset="0.78125" stop-color="rgb(3.271484%, 0%, 69.15741%)" stop-opacity="1"/>
<stop offset="0.785156" stop-color="rgb(3.276062%, 0%, 69.40918%)" stop-opacity="1"/>
<stop offset="0.789062" stop-color="rgb(3.28064%, 0%, 69.66095%)" stop-opacity="1"/>
<stop offset="0.792969" stop-color="rgb(3.285217%, 0%, 69.91272%)" stop-opacity="1"/>
<stop offset="0.796875" stop-color="rgb(3.289795%, 0%, 70.166016%)" stop-opacity="1"/>
<stop offset="0.800781" stop-color="rgb(3.294373%, 0%, 70.417786%)" stop-opacity="1"/>
<stop offset="0.804688" stop-color="rgb(3.29895%, 0%, 70.669556%)" stop-opacity="1"/>
<stop offset="0.808594" stop-color="rgb(3.303528%, 0%, 70.921326%)" stop-opacity="1"/>
<stop offset="0.8125" stop-color="rgb(3.308105%, 0%, 71.174622%)" stop-opacity="1"/>
<stop offset="0.816406" stop-color="rgb(3.312683%, 0%, 71.426392%)" stop-opacity="1"/>
<stop offset="0.820312" stop-color="rgb(3.317261%, 0%, 71.678162%)" stop-opacity="1"/>
<stop offset="0.824219" stop-color="rgb(3.321838%, 0%, 71.929932%)" stop-opacity="1"/>
<stop offset="0.828125" stop-color="rgb(3.326416%, 0%, 72.183228%)" stop-opacity="1"/>
<stop offset="0.832031" stop-color="rgb(3.330994%, 0%, 72.434998%)" stop-opacity="1"/>
<stop offset="0.835938" stop-color="rgb(3.337097%, 0%, 72.688293%)" stop-opacity="1"/>
<stop offset="0.839844" stop-color="rgb(3.341675%, 0%, 72.940063%)" stop-opacity="1"/>
<stop offset="0.84375" stop-color="rgb(3.346252%, 0%, 73.191833%)" stop-opacity="1"/>
<stop offset="0.847656" stop-color="rgb(3.35083%, 0%, 73.443604%)" stop-opacity="1"/>
<stop offset="0.851562" stop-color="rgb(3.355408%, 0%, 73.696899%)" stop-opacity="1"/>
<stop offset="0.855469" stop-color="rgb(3.359985%, 0%, 73.948669%)" stop-opacity="1"/>
<stop offset="0.859375" stop-color="rgb(3.364563%, 0%, 74.200439%)" stop-opacity="1"/>
<stop offset="0.863281" stop-color="rgb(3.369141%, 0%, 74.452209%)" stop-opacity="1"/>
<stop offset="0.867188" stop-color="rgb(3.373718%, 0%, 74.705505%)" stop-opacity="1"/>
<stop offset="0.871094" stop-color="rgb(3.378296%, 0%, 74.957275%)" stop-opacity="1"/>
<stop offset="0.875" stop-color="rgb(3.382874%, 0%, 75.209045%)" stop-opacity="1"/>
<stop offset="0.878906" stop-color="rgb(3.387451%, 0%, 75.460815%)" stop-opacity="1"/>
<stop offset="0.882812" stop-color="rgb(3.392029%, 0%, 75.714111%)" stop-opacity="1"/>
<stop offset="0.886719" stop-color="rgb(3.396606%, 0%, 75.965881%)" stop-opacity="1"/>
<stop offset="0.890625" stop-color="rgb(3.401184%, 0%, 76.217651%)" stop-opacity="1"/>
<stop offset="0.894531" stop-color="rgb(3.405762%, 0%, 76.469421%)" stop-opacity="1"/>
<stop offset="0.898437" stop-color="rgb(3.410339%, 0%, 76.722717%)" stop-opacity="1"/>
<stop offset="0.902344" stop-color="rgb(3.414917%, 0%, 76.974487%)" stop-opacity="1"/>
<stop offset="0.90625" stop-color="rgb(3.419495%, 0%, 77.227783%)" stop-opacity="1"/>
<stop offset="0.910156" stop-color="rgb(3.424072%, 0%, 77.479553%)" stop-opacity="1"/>
<stop offset="0.914062" stop-color="rgb(3.42865%, 0%, 77.731323%)" stop-opacity="1"/>
<stop offset="0.917969" stop-color="rgb(3.433228%, 0%, 77.983093%)" stop-opacity="1"/>
<stop offset="0.921875" stop-color="rgb(3.437805%, 0%, 78.236389%)" stop-opacity="1"/>
<stop offset="0.925781" stop-color="rgb(3.442383%, 0%, 78.488159%)" stop-opacity="1"/>
<stop offset="0.929688" stop-color="rgb(3.448486%, 0%, 78.739929%)" stop-opacity="1"/>
<stop offset="0.933594" stop-color="rgb(3.453064%, 0%, 78.991699%)" stop-opacity="1"/>
<stop offset="0.9375" stop-color="rgb(3.457642%, 0%, 79.244995%)" stop-opacity="1"/>
<stop offset="0.941406" stop-color="rgb(3.462219%, 0%, 79.496765%)" stop-opacity="1"/>
<stop offset="0.945312" stop-color="rgb(3.466797%, 0%, 79.748535%)" stop-opacity="1"/>
<stop offset="0.949219" stop-color="rgb(3.471375%, 0%, 80.000305%)" stop-opacity="1"/>
<stop offset="0.953125" stop-color="rgb(3.475952%, 0%, 80.253601%)" stop-opacity="1"/>
<stop offset="0.957031" stop-color="rgb(3.48053%, 0%, 80.505371%)" stop-opacity="1"/>
<stop offset="0.960938" stop-color="rgb(3.485107%, 0%, 80.757141%)" stop-opacity="1"/>
<stop offset="0.964844" stop-color="rgb(3.489685%, 0%, 81.008911%)" stop-opacity="1"/>
<stop offset="0.96875" stop-color="rgb(3.494263%, 0%, 81.262207%)" stop-opacity="1"/>
<stop offset="0.972656" stop-color="rgb(3.49884%, 0%, 81.513977%)" stop-opacity="1"/>
<stop offset="0.976562" stop-color="rgb(3.503418%, 0%, 81.765747%)" stop-opacity="1"/>
<stop offset="0.980469" stop-color="rgb(3.507996%, 0%, 82.017517%)" stop-opacity="1"/>
<stop offset="0.984375" stop-color="rgb(3.512573%, 0%, 82.270813%)" stop-opacity="1"/>
<stop offset="0.988281" stop-color="rgb(3.517151%, 0%, 82.522583%)" stop-opacity="1"/>
<stop offset="0.992188" stop-color="rgb(3.521729%, 0%, 82.775879%)" stop-opacity="1"/>
<stop offset="1" stop-color="rgb(3.52478%, 0%, 82.955933%)" stop-opacity="1"/>
</linearGradient>
<clipPath id="clip-3">
<path clip-rule="nonzero" d="M 171 1131 L 616 1131 L 616 1501 L 171 1501 Z M 171 1131 "/>
</clipPath>
<clipPath id="clip-4">
<path clip-rule="nonzero" d="M 607.832031 1462.070312 C 591.527344 1439.648438 599.414062 1441.109375 591.261719 1420.71875 C 591.019531 1420.121094 590.769531 1419.53125 590.515625 1418.960938 C 587.554688 1412.308594 583.945312 1408.300781 580.445312 1405.070312 C 579.671875 1404.359375 578.902344 1403.679688 578.148438 1403.019531 C 577.722656 1402.648438 577.296875 1402.28125 576.878906 1401.910156 C 572.101562 1397.730469 568.089844 1393.789062 567.066406 1384.621094 C 565.496094 1370.46875 562.714844 1367.230469 563.390625 1360.878906 C 563.59375 1359 564.097656 1356.839844 565.03125 1354.050781 C 568.457031 1343.769531 574.757812 1327.421875 560.945312 1320.78125 C 559.53125 1320.109375 557.910156 1319.53125 556.054688 1319.070312 C 554.464844 1318.679688 552.710938 1318.371094 550.761719 1318.160156 C 524.265625 1315.320312 514.074219 1323.46875 512.039062 1309.210938 C 510 1294.941406 517.710938 1292.898438 523.824219 1272.519531 C 529.9375 1252.128906 548.28125 1258.25 529.9375 1237.871094 C 511.59375 1217.488281 540.128906 1217.488281 511.59375 1217.488281 C 483.058594 1217.488281 489.175781 1215.449219 472.867188 1225.640625 C 456.5625 1235.828125 448.855469 1256.210938 428.472656 1248.058594 C 422.214844 1245.558594 417.378906 1236.179688 411.484375 1228.101562 C 408.382812 1223.851562 404.992188 1219.960938 400.945312 1217.621094 C 399.0625 1216.53125 397.230469 1215.460938 395.46875 1214.421875 C 388.253906 1210.171875 382.242188 1206.46875 379.085938 1204.511719 C 377.554688 1203.558594 376.691406 1203.011719 376.691406 1203.011719 C 370.566406 1199.671875 366.355469 1198.089844 363.046875 1197.101562 C 354.253906 1194.46875 351.882812 1196.019531 337.070312 1179.71875 C 335.042969 1177.5 333.402344 1175.628906 332.066406 1174.058594 C 331.3125 1173.171875 330.652344 1172.378906 330.078125 1171.671875 C 329.8125 1171.339844 329.5625 1171.03125 329.332031 1170.730469 C 326.667969 1167.320312 325.296875 1167.921875 323.855469 1169.421875 C 321.421875 1171.960938 318.789062 1177.070312 309.359375 1169.738281 C 291.019531 1155.46875 285.367188 1124.898438 269.847656 1133.050781 C 264.078125 1136.078125 261.582031 1138.269531 260.09375 1140.339844 C 259.453125 1141.230469 259 1142.101562 258.554688 1143.011719 C 257.242188 1145.671875 255.984375 1148.660156 250.253906 1153.429688 C 238.023438 1163.628906 260.445312 1163.628906 238.023438 1163.628906 C 232.140625 1163.628906 225.558594 1163.078125 218.941406 1162.460938 C 214.648438 1162.058594 210.339844 1161.621094 206.195312 1161.28125 C 192.394531 1160.128906 180.425781 1160.019531 176.957031 1165.609375 C 170.84375 1175.460938 166.769531 1195.839844 187.148438 1201.960938 C 192.566406 1203.578125 197.117188 1204.921875 201.03125 1206.199219 C 203.816406 1207.109375 206.285156 1207.988281 208.511719 1208.921875 C 211.792969 1210.289062 219.320312 1212.421875 226.492188 1214.910156 C 233.371094 1217.289062 239.925781 1220.011719 242.101562 1222.730469 C 242.148438 1222.789062 242.199219 1222.851562 242.25 1222.910156 C 247.277344 1229.089844 256.320312 1234.859375 263.070312 1243.039062 C 265.535156 1246.019531 267.6875 1249.328125 269.230469 1253.089844 C 269.652344 1254.121094 270.03125 1255.179688 270.355469 1256.28125 C 270.914062 1258.179688 271.320312 1260.191406 271.53125 1262.328125 C 271.742188 1264.421875 271.941406 1266.339844 272.148438 1268.128906 C 273.167969 1276.988281 274.316406 1282.359375 277.390625 1288.039062 C 279.203125 1291.398438 281.695312 1294.871094 285.222656 1299.230469 C 286.203125 1300.449219 287.257812 1301.71875 288.40625 1303.089844 C 298.835938 1315.5 306.046875 1322.011719 313.394531 1328.011719 C 315.699219 1329.890625 318.015625 1331.71875 320.449219 1333.671875 C 330.640625 1341.820312 334.714844 1337.738281 334.714844 1354.050781 C 334.714844 1370.351562 331.953125 1395.730469 348.257812 1397.769531 C 364.5625 1399.808594 368.640625 1397.769531 384.945312 1414.078125 C 401.253906 1430.378906 393.097656 1412.039062 401.253906 1430.378906 C 409.402344 1448.730469 401.253906 1452.800781 415.519531 1460.960938 C 424.648438 1466.171875 425.4375 1466.378906 433.898438 1468.53125 C 436.035156 1469.070312 438.660156 1469.730469 442.027344 1470.628906 C 445.742188 1471.628906 450.359375 1472.898438 456.234375 1474.609375 C 456.914062 1474.808594 457.605469 1475.011719 458.320312 1475.21875 C 463.03125 1476.609375 467.308594 1478 471.238281 1479.378906 C 480.289062 1482.558594 487.503906 1485.671875 493.949219 1488.519531 C 494.238281 1488.648438 494.53125 1488.78125 494.820312 1488.910156 C 505.757812 1493.761719 514.566406 1497.800781 526.605469 1499.988281 C 538.117188 1502.078125 542.5625 1493.640625 546.925781 1486.308594 C 547.605469 1485.171875 548.28125 1484.058594 548.980469 1483.019531 C 552.546875 1477.710938 556.742188 1474.230469 565.03125 1478.378906 C 585.410156 1488.570312 579.296875 1498.761719 595.601562 1490.601562 C 597.257812 1489.78125 598.863281 1489.058594 600.410156 1488.398438 C 609.105469 1484.71875 615.664062 1483.21875 615.527344 1477.441406 C 615.488281 1475.96875 615.019531 1474.21875 614.042969 1472.078125 C 612.816406 1469.421875 610.800781 1466.148438 607.832031 1462.070312 Z M 607.832031 1462.070312 "/>
</clipPath>
<clipPath id="clip-5">
<path clip-rule="nonzero" d="M 607.832031 1462.070312 C 591.527344 1439.648438 599.414062 1441.109375 591.261719 1420.71875 C 591.019531 1420.121094 590.769531 1419.53125 590.515625 1418.960938 C 587.554688 1412.308594 583.945312 1408.300781 580.445312 1405.070312 C 579.671875 1404.359375 578.902344 1403.679688 578.148438 1403.019531 C 577.722656 1402.648438 577.296875 1402.28125 576.878906 1401.910156 C 572.101562 1397.730469 568.089844 1393.789062 567.066406 1384.621094 C 565.496094 1370.46875 562.714844 1367.230469 563.390625 1360.878906 C 563.59375 1359 564.097656 1356.839844 565.03125 1354.050781 C 568.457031 1343.769531 574.757812 1327.421875 560.945312 1320.78125 C 559.53125 1320.109375 557.910156 1319.53125 556.054688 1319.070312 C 554.464844 1318.679688 552.710938 1318.371094 550.761719 1318.160156 C 524.265625 1315.320312 514.074219 1323.46875 512.039062 1309.210938 C 510 1294.941406 517.710938 1292.898438 523.824219 1272.519531 C 529.9375 1252.128906 548.28125 1258.25 529.9375 1237.871094 C 511.59375 1217.488281 540.128906 1217.488281 511.59375 1217.488281 C 483.058594 1217.488281 489.175781 1215.449219 472.867188 1225.640625 C 456.5625 1235.828125 448.855469 1256.210938 428.472656 1248.058594 C 422.214844 1245.558594 417.378906 1236.179688 411.484375 1228.101562 C 408.382812 1223.851562 404.992188 1219.960938 400.945312 1217.621094 C 399.0625 1216.53125 397.230469 1215.460938 395.46875 1214.421875 C 388.253906 1210.171875 382.242188 1206.46875 379.085938 1204.511719 C 377.554688 1203.558594 376.691406 1203.011719 376.691406 1203.011719 C 370.566406 1199.671875 366.355469 1198.089844 363.046875 1197.101562 C 354.253906 1194.46875 351.882812 1196.019531 337.070312 1179.71875 C 335.042969 1177.5 333.402344 1175.628906 332.066406 1174.058594 C 331.3125 1173.171875 330.652344 1172.378906 330.078125 1171.671875 C 329.8125 1171.339844 329.5625 1171.03125 329.332031 1170.730469 C 326.667969 1167.320312 325.296875 1167.921875 323.855469 1169.421875 C 321.421875 1171.960938 318.789062 1177.070312 309.359375 1169.738281 C 291.019531 1155.46875 285.367188 1124.898438 269.847656 1133.050781 C 264.078125 1136.078125 261.582031 1138.269531 260.09375 1140.339844 C 259.453125 1141.230469 259 1142.101562 258.554688 1143.011719 C 257.242188 1145.671875 255.984375 1148.660156 250.253906 1153.429688 C 238.023438 1163.628906 260.445312 1163.628906 238.023438 1163.628906 C 232.140625 1163.628906 225.558594 1163.078125 218.941406 1162.460938 C 214.648438 1162.058594 210.339844 1161.621094 206.195312 1161.28125 C 192.394531 1160.128906 180.425781 1160.019531 176.957031 1165.609375 C 170.84375 1175.460938 166.769531 1195.839844 187.148438 1201.960938 C 192.566406 1203.578125 197.117188 1204.921875 201.03125 1206.199219 C 203.816406 1207.109375 206.285156 1207.988281 208.511719 1208.921875 C 211.792969 1210.289062 219.320312 1212.421875 226.492188 1214.910156 C 233.371094 1217.289062 239.925781 1220.011719 242.101562 1222.730469 C 242.148438 1222.789062 242.199219 1222.851562 242.25 1222.910156 C 247.277344 1229.089844 256.320312 1234.859375 263.070312 1243.039062 C 265.535156 1246.019531 267.6875 1249.328125 269.230469 1253.089844 C 269.652344 1254.121094 270.03125 1255.179688 270.355469 1256.28125 C 270.914062 1258.179688 271.320312 1260.191406 271.53125 1262.328125 C 271.742188 1264.421875 271.941406 1266.339844 272.148438 1268.128906 C 273.167969 1276.988281 274.316406 1282.359375 277.390625 1288.039062 C 279.203125 1291.398438 281.695312 1294.871094 285.222656 1299.230469 C 286.203125 1300.449219 287.257812 1301.71875 288.40625 1303.089844 C 298.835938 1315.5 306.046875 1322.011719 313.394531 1328.011719 C 315.699219 1329.890625 318.015625 1331.71875 320.449219 1333.671875 C 330.640625 1341.820312 334.714844 1337.738281 334.714844 1354.050781 C 334.714844 1370.351562 331.953125 1395.730469 348.257812 1397.769531 C 364.5625 1399.808594 368.640625 1397.769531 384.945312 1414.078125 C 401.253906 1430.378906 393.097656 1412.039062 401.253906 1430.378906 C 409.402344 1448.730469 401.253906 1452.800781 415.519531 1460.960938 C 424.648438 1466.171875 425.4375 1466.378906 433.898438 1468.53125 C 436.035156 1469.070312 438.660156 1469.730469 442.027344 1470.628906 C 445.742188 1471.628906 450.359375 1472.898438 456.234375 1474.609375 C 456.914062 1474.808594 457.605469 1475.011719 458.320312 1475.21875 C 463.03125 1476.609375 467.308594 1478 471.238281 1479.378906 C 480.289062 1482.558594 487.503906 1485.671875 493.949219 1488.519531 C 494.238281 1488.648438 494.53125 1488.78125 494.820312 1488.910156 C 505.757812 1493.761719 514.566406 1497.800781 526.605469 1499.988281 C 538.117188 1502.078125 542.5625 1493.640625 546.925781 1486.308594 C 547.605469 1485.171875 548.28125 1484.058594 548.980469 1483.019531 C 552.546875 1477.710938 556.742188 1474.230469 565.03125 1478.378906 C 585.410156 1488.570312 579.296875 1498.761719 595.601562 1490.601562 C 597.257812 1489.78125 598.863281 1489.058594 600.410156 1488.398438 C 609.105469 1484.71875 615.664062 1483.21875 615.527344 1477.441406 C 615.488281 1475.96875 615.019531 1474.21875 614.042969 1472.078125 C 612.816406 1469.421875 610.800781 1466.148438 607.832031 1462.070312 "/>
</clipPath>
<linearGradient id="linear-pattern-1" gradientUnits="userSpaceOnUse" x1="-0.011753" y1="0" x2="1.000309" y2="0" gradientTransform="matrix(443.547, 0, 0, 443.547, 171.981, 1316)">
<stop offset="0" stop-color="rgb(2.352905%, 0%, 19.215393%)" stop-opacity="1"/>
<stop offset="0.015625" stop-color="rgb(2.354431%, 0%, 19.345093%)" stop-opacity="1"/>
<stop offset="0.0195312" stop-color="rgb(2.362061%, 0%, 19.726562%)" stop-opacity="1"/>
<stop offset="0.0234375" stop-color="rgb(2.366638%, 0%, 19.979858%)" stop-opacity="1"/>
<stop offset="0.0273438" stop-color="rgb(2.371216%, 0%, 20.231628%)" stop-opacity="1"/>
<stop offset="0.03125" stop-color="rgb(2.375793%, 0%, 20.484924%)" stop-opacity="1"/>
<stop offset="0.0351562" stop-color="rgb(2.380371%, 0%, 20.736694%)" stop-opacity="1"/>
<stop offset="0.0390625" stop-color="rgb(2.384949%, 0%, 20.98999%)" stop-opacity="1"/>
<stop offset="0.0429688" stop-color="rgb(2.389526%, 0%, 21.243286%)" stop-opacity="1"/>
<stop offset="0.046875" stop-color="rgb(2.394104%, 0%, 21.496582%)" stop-opacity="1"/>
<stop offset="0.0507812" stop-color="rgb(2.398682%, 0%, 21.748352%)" stop-opacity="1"/>
<stop offset="0.0546875" stop-color="rgb(2.403259%, 0%, 22.001648%)" stop-opacity="1"/>
<stop offset="0.0585937" stop-color="rgb(2.407837%, 0%, 22.253418%)" stop-opacity="1"/>
<stop offset="0.0625" stop-color="rgb(2.412415%, 0%, 22.506714%)" stop-opacity="1"/>
<stop offset="0.0664062" stop-color="rgb(2.416992%, 0%, 22.758484%)" stop-opacity="1"/>
<stop offset="0.0703125" stop-color="rgb(2.42157%, 0%, 23.01178%)" stop-opacity="1"/>
<stop offset="0.0742187" stop-color="rgb(2.426147%, 0%, 23.265076%)" stop-opacity="1"/>
<stop offset="0.078125" stop-color="rgb(2.430725%, 0%, 23.518372%)" stop-opacity="1"/>
<stop offset="0.0820312" stop-color="rgb(2.435303%, 0%, 23.770142%)" stop-opacity="1"/>
<stop offset="0.0859375" stop-color="rgb(2.441406%, 0%, 24.023438%)" stop-opacity="1"/>
<stop offset="0.0898437" stop-color="rgb(2.445984%, 0%, 24.275208%)" stop-opacity="1"/>
<stop offset="0.09375" stop-color="rgb(2.450562%, 0%, 24.528503%)" stop-opacity="1"/>
<stop offset="0.0976562" stop-color="rgb(2.455139%, 0%, 24.780273%)" stop-opacity="1"/>
<stop offset="0.101562" stop-color="rgb(2.459717%, 0%, 25.033569%)" stop-opacity="1"/>
<stop offset="0.105469" stop-color="rgb(2.464294%, 0%, 25.286865%)" stop-opacity="1"/>
<stop offset="0.109375" stop-color="rgb(2.468872%, 0%, 25.540161%)" stop-opacity="1"/>
<stop offset="0.113281" stop-color="rgb(2.47345%, 0%, 25.791931%)" stop-opacity="1"/>
<stop offset="0.117187" stop-color="rgb(2.478027%, 0%, 26.045227%)" stop-opacity="1"/>
<stop offset="0.121094" stop-color="rgb(2.482605%, 0%, 26.296997%)" stop-opacity="1"/>
<stop offset="0.125" stop-color="rgb(2.487183%, 0%, 26.550293%)" stop-opacity="1"/>
<stop offset="0.128906" stop-color="rgb(2.49176%, 0%, 26.802063%)" stop-opacity="1"/>
<stop offset="0.132812" stop-color="rgb(2.496338%, 0%, 27.055359%)" stop-opacity="1"/>
<stop offset="0.136719" stop-color="rgb(2.500916%, 0%, 27.307129%)" stop-opacity="1"/>
<stop offset="0.140625" stop-color="rgb(2.505493%, 0%, 27.560425%)" stop-opacity="1"/>
<stop offset="0.144531" stop-color="rgb(2.510071%, 0%, 27.813721%)" stop-opacity="1"/>
<stop offset="0.148437" stop-color="rgb(2.514648%, 0%, 28.067017%)" stop-opacity="1"/>
<stop offset="0.152344" stop-color="rgb(2.519226%, 0%, 28.318787%)" stop-opacity="1"/>
<stop offset="0.15625" stop-color="rgb(2.523804%, 0%, 28.572083%)" stop-opacity="1"/>
<stop offset="0.160156" stop-color="rgb(2.528381%, 0%, 28.823853%)" stop-opacity="1"/>
<stop offset="0.164062" stop-color="rgb(2.532959%, 0%, 29.077148%)" stop-opacity="1"/>
<stop offset="0.167969" stop-color="rgb(2.537537%, 0%, 29.328918%)" stop-opacity="1"/>
<stop offset="0.171875" stop-color="rgb(2.54364%, 0%, 29.582214%)" stop-opacity="1"/>
<stop offset="0.175781" stop-color="rgb(2.548218%, 0%, 29.83551%)" stop-opacity="1"/>
<stop offset="0.179687" stop-color="rgb(2.552795%, 0%, 30.088806%)" stop-opacity="1"/>
<stop offset="0.183594" stop-color="rgb(2.557373%, 0%, 30.340576%)" stop-opacity="1"/>
<stop offset="0.1875" stop-color="rgb(2.561951%, 0%, 30.593872%)" stop-opacity="1"/>
<stop offset="0.191406" stop-color="rgb(2.566528%, 0%, 30.845642%)" stop-opacity="1"/>
<stop offset="0.195312" stop-color="rgb(2.571106%, 0%, 31.098938%)" stop-opacity="1"/>
<stop offset="0.199219" stop-color="rgb(2.575684%, 0%, 31.350708%)" stop-opacity="1"/>
<stop offset="0.203125" stop-color="rgb(2.580261%, 0%, 31.604004%)" stop-opacity="1"/>
<stop offset="0.207031" stop-color="rgb(2.584839%, 0%, 31.855774%)" stop-opacity="1"/>
<stop offset="0.210938" stop-color="rgb(2.589417%, 0%, 32.10907%)" stop-opacity="1"/>
<stop offset="0.214844" stop-color="rgb(2.593994%, 0%, 32.362366%)" stop-opacity="1"/>
<stop offset="0.21875" stop-color="rgb(2.598572%, 0%, 32.615662%)" stop-opacity="1"/>
<stop offset="0.222656" stop-color="rgb(2.603149%, 0%, 32.867432%)" stop-opacity="1"/>
<stop offset="0.226562" stop-color="rgb(2.607727%, 0%, 33.120728%)" stop-opacity="1"/>
<stop offset="0.230469" stop-color="rgb(2.612305%, 0%, 33.372498%)" stop-opacity="1"/>
<stop offset="0.234375" stop-color="rgb(2.616882%, 0%, 33.625793%)" stop-opacity="1"/>
<stop offset="0.238281" stop-color="rgb(2.62146%, 0%, 33.877563%)" stop-opacity="1"/>
<stop offset="0.242187" stop-color="rgb(2.626038%, 0%, 34.130859%)" stop-opacity="1"/>
<stop offset="0.246094" stop-color="rgb(2.630615%, 0%, 34.384155%)" stop-opacity="1"/>
<stop offset="0.25" stop-color="rgb(2.636719%, 0%, 34.637451%)" stop-opacity="1"/>
<stop offset="0.253906" stop-color="rgb(2.641296%, 0%, 34.889221%)" stop-opacity="1"/>
<stop offset="0.257812" stop-color="rgb(2.645874%, 0%, 35.142517%)" stop-opacity="1"/>
<stop offset="0.261719" stop-color="rgb(2.650452%, 0%, 35.394287%)" stop-opacity="1"/>
<stop offset="0.265625" stop-color="rgb(2.655029%, 0%, 35.647583%)" stop-opacity="1"/>
<stop offset="0.269531" stop-color="rgb(2.659607%, 0%, 35.899353%)" stop-opacity="1"/>
<stop offset="0.273437" stop-color="rgb(2.664185%, 0%, 36.152649%)" stop-opacity="1"/>
<stop offset="0.277344" stop-color="rgb(2.668762%, 0%, 36.404419%)" stop-opacity="1"/>
<stop offset="0.28125" stop-color="rgb(2.67334%, 0%, 36.657715%)" stop-opacity="1"/>
<stop offset="0.285156" stop-color="rgb(2.677917%, 0%, 36.911011%)" stop-opacity="1"/>
<stop offset="0.289062" stop-color="rgb(2.682495%, 0%, 37.164307%)" stop-opacity="1"/>
<stop offset="0.292969" stop-color="rgb(2.687073%, 0%, 37.416077%)" stop-opacity="1"/>
<stop offset="0.296875" stop-color="rgb(2.69165%, 0%, 37.669373%)" stop-opacity="1"/>
<stop offset="0.300781" stop-color="rgb(2.696228%, 0%, 37.921143%)" stop-opacity="1"/>
<stop offset="0.304687" stop-color="rgb(2.700806%, 0%, 38.174438%)" stop-opacity="1"/>
<stop offset="0.308594" stop-color="rgb(2.705383%, 0%, 38.426208%)" stop-opacity="1"/>
<stop offset="0.3125" stop-color="rgb(2.709961%, 0%, 38.679504%)" stop-opacity="1"/>
<stop offset="0.316406" stop-color="rgb(2.714539%, 0%, 38.9328%)" stop-opacity="1"/>
<stop offset="0.320312" stop-color="rgb(2.719116%, 0%, 39.186096%)" stop-opacity="1"/>
<stop offset="0.324219" stop-color="rgb(2.723694%, 0%, 39.437866%)" stop-opacity="1"/>
<stop offset="0.328125" stop-color="rgb(2.729797%, 0%, 39.691162%)" stop-opacity="1"/>
<stop offset="0.332031" stop-color="rgb(2.734375%, 0%, 39.942932%)" stop-opacity="1"/>
<stop offset="0.335938" stop-color="rgb(2.738953%, 0%, 40.196228%)" stop-opacity="1"/>
<stop offset="0.339844" stop-color="rgb(2.74353%, 0%, 40.447998%)" stop-opacity="1"/>
<stop offset="0.34375" stop-color="rgb(2.748108%, 0%, 40.701294%)" stop-opacity="1"/>
<stop offset="0.347656" stop-color="rgb(2.752686%, 0%, 40.95459%)" stop-opacity="1"/>
<stop offset="0.351562" stop-color="rgb(2.757263%, 0%, 41.207886%)" stop-opacity="1"/>
<stop offset="0.355469" stop-color="rgb(2.761841%, 0%, 41.459656%)" stop-opacity="1"/>
<stop offset="0.359375" stop-color="rgb(2.766418%, 0%, 41.712952%)" stop-opacity="1"/>
<stop offset="0.363281" stop-color="rgb(2.770996%, 0%, 41.964722%)" stop-opacity="1"/>
<stop offset="0.367187" stop-color="rgb(2.775574%, 0%, 42.218018%)" stop-opacity="1"/>
<stop offset="0.371094" stop-color="rgb(2.780151%, 0%, 42.469788%)" stop-opacity="1"/>
<stop offset="0.375" stop-color="rgb(2.784729%, 0%, 42.723083%)" stop-opacity="1"/>
<stop offset="0.378906" stop-color="rgb(2.789307%, 0%, 42.974854%)" stop-opacity="1"/>
<stop offset="0.382812" stop-color="rgb(2.793884%, 0%, 43.228149%)" stop-opacity="1"/>
<stop offset="0.386719" stop-color="rgb(2.798462%, 0%, 43.481445%)" stop-opacity="1"/>
<stop offset="0.390625" stop-color="rgb(2.80304%, 0%, 43.734741%)" stop-opacity="1"/>
<stop offset="0.394531" stop-color="rgb(2.807617%, 0%, 43.986511%)" stop-opacity="1"/>
<stop offset="0.398437" stop-color="rgb(2.812195%, 0%, 44.239807%)" stop-opacity="1"/>
<stop offset="0.402344" stop-color="rgb(2.816772%, 0%, 44.491577%)" stop-opacity="1"/>
<stop offset="0.40625" stop-color="rgb(2.82135%, 0%, 44.744873%)" stop-opacity="1"/>
<stop offset="0.410156" stop-color="rgb(2.825928%, 0%, 44.996643%)" stop-opacity="1"/>
<stop offset="0.414062" stop-color="rgb(2.832031%, 0%, 45.249939%)" stop-opacity="1"/>
<stop offset="0.417969" stop-color="rgb(2.836609%, 0%, 45.503235%)" stop-opacity="1"/>
<stop offset="0.421875" stop-color="rgb(2.841187%, 0%, 45.756531%)" stop-opacity="1"/>
<stop offset="0.425781" stop-color="rgb(2.845764%, 0%, 46.008301%)" stop-opacity="1"/>
<stop offset="0.429688" stop-color="rgb(2.850342%, 0%, 46.261597%)" stop-opacity="1"/>
<stop offset="0.433594" stop-color="rgb(2.854919%, 0%, 46.513367%)" stop-opacity="1"/>
<stop offset="0.4375" stop-color="rgb(2.859497%, 0%, 46.766663%)" stop-opacity="1"/>
<stop offset="0.441406" stop-color="rgb(2.864075%, 0%, 47.018433%)" stop-opacity="1"/>
<stop offset="0.445312" stop-color="rgb(2.868652%, 0%, 47.271729%)" stop-opacity="1"/>
<stop offset="0.449219" stop-color="rgb(2.87323%, 0%, 47.523499%)" stop-opacity="1"/>
<stop offset="0.453125" stop-color="rgb(2.877808%, 0%, 47.776794%)" stop-opacity="1"/>
<stop offset="0.457031" stop-color="rgb(2.882385%, 0%, 48.03009%)" stop-opacity="1"/>
<stop offset="0.460937" stop-color="rgb(2.886963%, 0%, 48.283386%)" stop-opacity="1"/>
<stop offset="0.464844" stop-color="rgb(2.891541%, 0%, 48.535156%)" stop-opacity="1"/>
<stop offset="0.46875" stop-color="rgb(2.896118%, 0%, 48.788452%)" stop-opacity="1"/>
<stop offset="0.472656" stop-color="rgb(2.900696%, 0%, 49.040222%)" stop-opacity="1"/>
<stop offset="0.476562" stop-color="rgb(2.905273%, 0%, 49.293518%)" stop-opacity="1"/>
<stop offset="0.480469" stop-color="rgb(2.909851%, 0%, 49.545288%)" stop-opacity="1"/>
<stop offset="0.484375" stop-color="rgb(2.914429%, 0%, 49.798584%)" stop-opacity="1"/>
<stop offset="0.488281" stop-color="rgb(2.919006%, 0%, 50.05188%)" stop-opacity="1"/>
<stop offset="0.492187" stop-color="rgb(2.92511%, 0%, 50.305176%)" stop-opacity="1"/>
<stop offset="0.496094" stop-color="rgb(2.929688%, 0%, 50.556946%)" stop-opacity="1"/>
<stop offset="0.5" stop-color="rgb(2.934265%, 0%, 50.810242%)" stop-opacity="1"/>
<stop offset="0.503906" stop-color="rgb(2.938843%, 0%, 51.062012%)" stop-opacity="1"/>
<stop offset="0.507812" stop-color="rgb(2.94342%, 0%, 51.315308%)" stop-opacity="1"/>
<stop offset="0.511719" stop-color="rgb(2.947998%, 0%, 51.567078%)" stop-opacity="1"/>
<stop offset="0.515625" stop-color="rgb(2.952576%, 0%, 51.820374%)" stop-opacity="1"/>
<stop offset="0.519531" stop-color="rgb(2.957153%, 0%, 52.073669%)" stop-opacity="1"/>
<stop offset="0.523438" stop-color="rgb(2.961731%, 0%, 52.326965%)" stop-opacity="1"/>
<stop offset="0.527344" stop-color="rgb(2.966309%, 0%, 52.578735%)" stop-opacity="1"/>
<stop offset="0.53125" stop-color="rgb(2.970886%, 0%, 52.832031%)" stop-opacity="1"/>
<stop offset="0.535156" stop-color="rgb(2.975464%, 0%, 53.083801%)" stop-opacity="1"/>
<stop offset="0.539062" stop-color="rgb(2.980042%, 0%, 53.337097%)" stop-opacity="1"/>
<stop offset="0.542969" stop-color="rgb(2.984619%, 0%, 53.588867%)" stop-opacity="1"/>
<stop offset="0.546875" stop-color="rgb(2.989197%, 0%, 53.842163%)" stop-opacity="1"/>
<stop offset="0.550781" stop-color="rgb(2.993774%, 0%, 54.093933%)" stop-opacity="1"/>
<stop offset="0.554687" stop-color="rgb(2.998352%, 0%, 54.347229%)" stop-opacity="1"/>
<stop offset="0.558594" stop-color="rgb(3.00293%, 0%, 54.600525%)" stop-opacity="1"/>
<stop offset="0.5625" stop-color="rgb(3.007507%, 0%, 54.853821%)" stop-opacity="1"/>
<stop offset="0.566406" stop-color="rgb(3.012085%, 0%, 55.105591%)" stop-opacity="1"/>
<stop offset="0.570312" stop-color="rgb(3.016663%, 0%, 55.358887%)" stop-opacity="1"/>
<stop offset="0.574219" stop-color="rgb(3.02124%, 0%, 55.610657%)" stop-opacity="1"/>
<stop offset="0.578125" stop-color="rgb(3.027344%, 0%, 55.863953%)" stop-opacity="1"/>
<stop offset="0.582031" stop-color="rgb(3.031921%, 0%, 56.115723%)" stop-opacity="1"/>
<stop offset="0.585938" stop-color="rgb(3.036499%, 0%, 56.369019%)" stop-opacity="1"/>
<stop offset="0.589844" stop-color="rgb(3.041077%, 0%, 56.622314%)" stop-opacity="1"/>
<stop offset="0.59375" stop-color="rgb(3.045654%, 0%, 56.87561%)" stop-opacity="1"/>
<stop offset="0.597656" stop-color="rgb(3.050232%, 0%, 57.12738%)" stop-opacity="1"/>
<stop offset="0.601562" stop-color="rgb(3.05481%, 0%, 57.380676%)" stop-opacity="1"/>
<stop offset="0.605469" stop-color="rgb(3.059387%, 0%, 57.632446%)" stop-opacity="1"/>
<stop offset="0.609375" stop-color="rgb(3.063965%, 0%, 57.885742%)" stop-opacity="1"/>
<stop offset="0.613281" stop-color="rgb(3.068542%, 0%, 58.137512%)" stop-opacity="1"/>
<stop offset="0.617188" stop-color="rgb(3.07312%, 0%, 58.390808%)" stop-opacity="1"/>
<stop offset="0.621094" stop-color="rgb(3.077698%, 0%, 58.642578%)" stop-opacity="1"/>
<stop offset="0.625" stop-color="rgb(3.082275%, 0%, 58.895874%)" stop-opacity="1"/>
<stop offset="0.628906" stop-color="rgb(3.086853%, 0%, 59.14917%)" stop-opacity="1"/>
<stop offset="0.632812" stop-color="rgb(3.091431%, 0%, 59.402466%)" stop-opacity="1"/>
<stop offset="0.636719" stop-color="rgb(3.096008%, 0%, 59.654236%)" stop-opacity="1"/>
<stop offset="0.640625" stop-color="rgb(3.100586%, 0%, 59.907532%)" stop-opacity="1"/>
<stop offset="0.644531" stop-color="rgb(3.105164%, 0%, 60.159302%)" stop-opacity="1"/>
<stop offset="0.648437" stop-color="rgb(3.109741%, 0%, 60.412598%)" stop-opacity="1"/>
<stop offset="0.652344" stop-color="rgb(3.114319%, 0%, 60.664368%)" stop-opacity="1"/>
<stop offset="0.65625" stop-color="rgb(3.120422%, 0%, 60.917664%)" stop-opacity="1"/>
<stop offset="0.660156" stop-color="rgb(3.125%, 0%, 61.170959%)" stop-opacity="1"/>
<stop offset="0.664062" stop-color="rgb(3.129578%, 0%, 61.424255%)" stop-opacity="1"/>
<stop offset="0.667969" stop-color="rgb(3.134155%, 0%, 61.676025%)" stop-opacity="1"/>
<stop offset="0.671875" stop-color="rgb(3.138733%, 0%, 61.929321%)" stop-opacity="1"/>
<stop offset="0.675781" stop-color="rgb(3.143311%, 0%, 62.181091%)" stop-opacity="1"/>
<stop offset="0.679687" stop-color="rgb(3.147888%, 0%, 62.434387%)" stop-opacity="1"/>
<stop offset="0.683594" stop-color="rgb(3.152466%, 0%, 62.686157%)" stop-opacity="1"/>
<stop offset="0.6875" stop-color="rgb(3.157043%, 0%, 62.939453%)" stop-opacity="1"/>
<stop offset="0.691406" stop-color="rgb(3.161621%, 0%, 63.191223%)" stop-opacity="1"/>
<stop offset="0.695312" stop-color="rgb(3.166199%, 0%, 63.444519%)" stop-opacity="1"/>
<stop offset="0.699219" stop-color="rgb(3.170776%, 0%, 63.697815%)" stop-opacity="1"/>
<stop offset="0.703125" stop-color="rgb(3.175354%, 0%, 63.951111%)" stop-opacity="1"/>
<stop offset="0.707031" stop-color="rgb(3.179932%, 0%, 64.202881%)" stop-opacity="1"/>
<stop offset="0.710937" stop-color="rgb(3.184509%, 0%, 64.456177%)" stop-opacity="1"/>
<stop offset="0.714844" stop-color="rgb(3.189087%, 0%, 64.707947%)" stop-opacity="1"/>
<stop offset="0.71875" stop-color="rgb(3.193665%, 0%, 64.961243%)" stop-opacity="1"/>
<stop offset="0.722656" stop-color="rgb(3.198242%, 0%, 65.213013%)" stop-opacity="1"/>
<stop offset="0.726562" stop-color="rgb(3.20282%, 0%, 65.466309%)" stop-opacity="1"/>
<stop offset="0.730469" stop-color="rgb(3.207397%, 0%, 65.719604%)" stop-opacity="1"/>
<stop offset="0.734375" stop-color="rgb(3.213501%, 0%, 65.9729%)" stop-opacity="1"/>
<stop offset="0.738281" stop-color="rgb(3.218079%, 0%, 66.22467%)" stop-opacity="1"/>
<stop offset="0.742187" stop-color="rgb(3.222656%, 0%, 66.477966%)" stop-opacity="1"/>
<stop offset="0.746094" stop-color="rgb(3.227234%, 0%, 66.729736%)" stop-opacity="1"/>
<stop offset="0.75" stop-color="rgb(3.231812%, 0%, 66.983032%)" stop-opacity="1"/>
<stop offset="0.753906" stop-color="rgb(3.236389%, 0%, 67.234802%)" stop-opacity="1"/>
<stop offset="0.757812" stop-color="rgb(3.240967%, 0%, 67.488098%)" stop-opacity="1"/>
<stop offset="0.761719" stop-color="rgb(3.245544%, 0%, 67.741394%)" stop-opacity="1"/>
<stop offset="0.765625" stop-color="rgb(3.250122%, 0%, 67.99469%)" stop-opacity="1"/>
<stop offset="0.769531" stop-color="rgb(3.2547%, 0%, 68.24646%)" stop-opacity="1"/>
<stop offset="0.773438" stop-color="rgb(3.259277%, 0%, 68.499756%)" stop-opacity="1"/>
<stop offset="0.777344" stop-color="rgb(3.263855%, 0%, 68.751526%)" stop-opacity="1"/>
<stop offset="0.78125" stop-color="rgb(3.268433%, 0%, 69.004822%)" stop-opacity="1"/>
<stop offset="0.785156" stop-color="rgb(3.27301%, 0%, 69.256592%)" stop-opacity="1"/>
<stop offset="0.789062" stop-color="rgb(3.277588%, 0%, 69.509888%)" stop-opacity="1"/>
<stop offset="0.792969" stop-color="rgb(3.282166%, 0%, 69.761658%)" stop-opacity="1"/>
<stop offset="0.796875" stop-color="rgb(3.286743%, 0%, 70.014954%)" stop-opacity="1"/>
<stop offset="0.800781" stop-color="rgb(3.291321%, 0%, 70.26825%)" stop-opacity="1"/>
<stop offset="0.804687" stop-color="rgb(3.295898%, 0%, 70.521545%)" stop-opacity="1"/>
<stop offset="0.808594" stop-color="rgb(3.300476%, 0%, 70.773315%)" stop-opacity="1"/>
<stop offset="0.8125" stop-color="rgb(3.305054%, 0%, 71.026611%)" stop-opacity="1"/>
<stop offset="0.816406" stop-color="rgb(3.309631%, 0%, 71.278381%)" stop-opacity="1"/>
<stop offset="0.820312" stop-color="rgb(3.315735%, 0%, 71.531677%)" stop-opacity="1"/>
<stop offset="0.824219" stop-color="rgb(3.320312%, 0%, 71.783447%)" stop-opacity="1"/>
<stop offset="0.828125" stop-color="rgb(3.32489%, 0%, 72.036743%)" stop-opacity="1"/>
<stop offset="0.832031" stop-color="rgb(3.329468%, 0%, 72.290039%)" stop-opacity="1"/>
<stop offset="0.835937" stop-color="rgb(3.334045%, 0%, 72.543335%)" stop-opacity="1"/>
<stop offset="0.839844" stop-color="rgb(3.338623%, 0%, 72.795105%)" stop-opacity="1"/>
<stop offset="0.84375" stop-color="rgb(3.343201%, 0%, 73.048401%)" stop-opacity="1"/>
<stop offset="0.847656" stop-color="rgb(3.347778%, 0%, 73.300171%)" stop-opacity="1"/>
<stop offset="0.851562" stop-color="rgb(3.352356%, 0%, 73.553467%)" stop-opacity="1"/>
<stop offset="0.855469" stop-color="rgb(3.356934%, 0%, 73.805237%)" stop-opacity="1"/>
<stop offset="0.859375" stop-color="rgb(3.361511%, 0%, 74.058533%)" stop-opacity="1"/>
<stop offset="0.863281" stop-color="rgb(3.366089%, 0%, 74.310303%)" stop-opacity="1"/>
<stop offset="0.867187" stop-color="rgb(3.370667%, 0%, 74.563599%)" stop-opacity="1"/>
<stop offset="0.871094" stop-color="rgb(3.375244%, 0%, 74.816895%)" stop-opacity="1"/>
<stop offset="0.875" stop-color="rgb(3.379822%, 0%, 75.07019%)" stop-opacity="1"/>
<stop offset="0.878906" stop-color="rgb(3.384399%, 0%, 75.32196%)" stop-opacity="1"/>
<stop offset="0.882812" stop-color="rgb(3.388977%, 0%, 75.575256%)" stop-opacity="1"/>
<stop offset="0.886719" stop-color="rgb(3.393555%, 0%, 75.827026%)" stop-opacity="1"/>
<stop offset="0.890625" stop-color="rgb(3.398132%, 0%, 76.080322%)" stop-opacity="1"/>
<stop offset="0.894531" stop-color="rgb(3.40271%, 0%, 76.332092%)" stop-opacity="1"/>
<stop offset="0.898437" stop-color="rgb(3.408813%, 0%, 76.585388%)" stop-opacity="1"/>
<stop offset="0.902344" stop-color="rgb(3.413391%, 0%, 76.838684%)" stop-opacity="1"/>
<stop offset="0.90625" stop-color="rgb(3.417969%, 0%, 77.09198%)" stop-opacity="1"/>
<stop offset="0.910156" stop-color="rgb(3.422546%, 0%, 77.34375%)" stop-opacity="1"/>
<stop offset="0.914062" stop-color="rgb(3.427124%, 0%, 77.597046%)" stop-opacity="1"/>
<stop offset="0.917969" stop-color="rgb(3.431702%, 0%, 77.848816%)" stop-opacity="1"/>
<stop offset="0.921875" stop-color="rgb(3.436279%, 0%, 78.102112%)" stop-opacity="1"/>
<stop offset="0.925781" stop-color="rgb(3.440857%, 0%, 78.353882%)" stop-opacity="1"/>
<stop offset="0.929687" stop-color="rgb(3.445435%, 0%, 78.607178%)" stop-opacity="1"/>
<stop offset="0.933594" stop-color="rgb(3.450012%, 0%, 78.858948%)" stop-opacity="1"/>
<stop offset="0.9375" stop-color="rgb(3.45459%, 0%, 79.112244%)" stop-opacity="1"/>
<stop offset="0.941406" stop-color="rgb(3.459167%, 0%, 79.36554%)" stop-opacity="1"/>
<stop offset="0.945312" stop-color="rgb(3.463745%, 0%, 79.618835%)" stop-opacity="1"/>
<stop offset="0.949219" stop-color="rgb(3.468323%, 0%, 79.870605%)" stop-opacity="1"/>
<stop offset="0.953125" stop-color="rgb(3.4729%, 0%, 80.123901%)" stop-opacity="1"/>
<stop offset="0.957031" stop-color="rgb(3.477478%, 0%, 80.375671%)" stop-opacity="1"/>
<stop offset="0.960937" stop-color="rgb(3.482056%, 0%, 80.628967%)" stop-opacity="1"/>
<stop offset="0.964844" stop-color="rgb(3.486633%, 0%, 80.880737%)" stop-opacity="1"/>
<stop offset="0.96875" stop-color="rgb(3.491211%, 0%, 81.134033%)" stop-opacity="1"/>
<stop offset="0.972656" stop-color="rgb(3.495789%, 0%, 81.387329%)" stop-opacity="1"/>
<stop offset="0.976562" stop-color="rgb(3.500366%, 0%, 81.640625%)" stop-opacity="1"/>
<stop offset="0.980469" stop-color="rgb(3.504944%, 0%, 81.892395%)" stop-opacity="1"/>
<stop offset="0.984375" stop-color="rgb(3.511047%, 0%, 82.145691%)" stop-opacity="1"/>
<stop offset="0.988281" stop-color="rgb(3.515625%, 0%, 82.397461%)" stop-opacity="1"/>
<stop offset="0.992187" stop-color="rgb(3.520203%, 0%, 82.650757%)" stop-opacity="1"/>
<stop offset="0.996094" stop-color="rgb(3.52478%, 0%, 82.893372%)" stop-opacity="1"/>
<stop offset="1" stop-color="rgb(3.529358%, 0%, 83.135986%)" stop-opacity="1"/>
</linearGradient>
</defs>
<rect x="-200" y="-200" width="2400" height="2400" fill="rgb(100%, 100%, 100%)" fill-opacity="1"/>
<g clip-path="url(#clip-0)">
<g clip-path="url(#clip-1)">
<g clip-path="url(#clip-2)">
<path fill-rule="nonzero" fill="url(#linear-pattern-0)" d="M 279.421875 334.21875 L 279.421875 1667.261719 L 1831.460938 1667.261719 L 1831.460938 334.21875 Z M 279.421875 334.21875 "/>
</g>
</g>
</g>
<g clip-path="url(#clip-3)">
<g clip-path="url(#clip-4)">
<g clip-path="url(#clip-5)">
<path fill-rule="nonzero" fill="url(#linear-pattern-1)" d="M 166.769531 1124.898438 L 166.769531 1502.078125 L 615.664062 1502.078125 L 615.664062 1124.898438 Z M 166.769531 1124.898438 "/>
</g>
</g>
</g>
</svg>
