<?xml version="1.0" encoding="UTF-8"?>
<svg xmlns="http://www.w3.org/2000/svg" xmlns:xlink="http://www.w3.org/1999/xlink" width="3000" height="2000" viewBox="0 0 3000 2000">
<defs>
<clipPath id="clip-0">

</clipPath>
<linearGradient id="linear-pattern-0" gradientUnits="userSpaceOnUse" x1="0.0740638" y1="0" x2="0.895134" y2="0" gradientTransform="matrix(33.2851, 2436.41, -2436.41, 33.2851, 92.2806, -180.69)">
<stop offset="0" stop-color="rgb(98.429871%, 98.429871%, 98.429871%)" stop-opacity="1"/>
<stop offset="0.5" stop-color="rgb(98.429871%, 98.429871%, 98.429871%)" stop-opacity="1"/>
<stop offset="0.5625" stop-color="rgb(98.429871%, 98.429871%, 98.429871%)" stop-opacity="1"/>
<stop offset="0.59375" stop-color="rgb(98.376465%, 98.376465%, 98.376465%)" stop-opacity="1"/>
<stop offset="0.625" stop-color="rgb(98.179626%, 98.179626%, 98.179626%)" stop-opacity="1"/>
<stop offset="0.75" stop-color="rgb(98.03772%, 98.03772%, 98.03772%)" stop-opacity="1"/>
<stop offset="1" stop-color="rgb(98.03772%, 98.03772%, 98.03772%)" stop-opacity="1"/>
</linearGradient>
<clipPath id="clip-1">
<path clip-rule="nonzero" d="M 209.746094 0 L 271.019531 0 L 271.019531 2000 L 209.746094 2000 Z M 209.746094 0 "/>
</clipPath>
<linearGradient id="linear-pattern-1" gradientUnits="userSpaceOnUse" x1="0.0740638" y1="0" x2="0.895134" y2="0" gradientTransform="matrix(33.2851, 2436.41, -2436.41, 33.2851, 224.872, -180.69)">
<stop offset="0" stop-color="rgb(98.429871%, 98.429871%, 98.429871%)" stop-opacity="1"/>
<stop offset="0.5" stop-color="rgb(98.429871%, 98.429871%, 98.429871%)" stop-opacity="1"/>
<stop offset="0.5625" stop-color="rgb(98.429871%, 98.429871%, 98.429871%)" stop-opacity="1"/>
<stop offset="0.59375" stop-color="rgb(98.376465%, 98.376465%, 98.376465%)" stop-opacity="1"/>
<stop offset="0.625" stop-color="rgb(98.179626%, 98.179626%, 98.179626%)" stop-opacity="1"/>
<stop offset="0.75" stop-color="rgb(98.03772%, 98.03772%, 98.03772%)" stop-opacity="1"/>
<stop offset="1" stop-color="rgb(98.03772%, 98.03772%, 98.03772%)" stop-opacity="1"/>
</linearGradient>
<clipPath id="clip-2">
<path clip-rule="nonzero" d="M 342.339844 0 L 403.613281 0 L 403.613281 2000 L 342.339844 2000 Z M 342.339844 0 "/>
</clipPath>
<linearGradient id="linear-pattern-2" gradientUnits="userSpaceOnUse" x1="0.0740638" y1="0" x2="0.895134" y2="0" gradientTransform="matrix(33.2851, 2436.41, -2436.41, 33.2851, 357.463, -180.69)">
<stop offset="0" stop-color="rgb(98.429871%, 98.429871%, 98.429871%)" stop-opacity="1"/>
<stop offset="0.5" stop-color="rgb(98.429871%, 98.429871%, 98.429871%)" stop-opacity="1"/>
<stop offset="0.5625" stop-color="rgb(98.429871%, 98.429871%, 98.429871%)" stop-opacity="1"/>
<stop offset="0.59375" stop-color="rgb(98.376465%, 98.376465%, 98.376465%)" stop-opacity="1"/>
<stop offset="0.625" stop-color="rgb(98.179626%, 98.179626%, 98.179626%)" stop-opacity="1"/>
<stop offset="0.75" stop-color="rgb(98.03772%, 98.03772%, 98.03772%)" stop-opacity="1"/>
<stop offset="1" stop-color="rgb(98.03772%, 98.03772%, 98.03772%)" stop-opacity="1"/>
</linearGradient>
<clipPath id="clip-3">
<path clip-rule="nonzero" d="M 474.929688 0 L 536.203125 0 L 536.203125 2000 L 474.929688 2000 Z M 474.929688 0 "/>
</clipPath>
<linearGradient id="linear-pattern-3" gradientUnits="userSpaceOnUse" x1="0.0740638" y1="0" x2="0.895134" y2="0" gradientTransform="matrix(33.2851, 2436.41, -2436.41, 33.2851, 490.054, -180.69)">
<stop offset="0" stop-color="rgb(98.429871%, 98.429871%, 98.429871%)" stop-opacity="1"/>
<stop offset="0.5" stop-color="rgb(98.429871%, 98.429871%, 98.429871%)" stop-opacity="1"/>
<stop offset="0.5625" stop-color="rgb(98.429871%, 98.429871%, 98.429871%)" stop-opacity="1"/>
<stop offset="0.59375" stop-color="rgb(98.376465%, 98.376465%, 98.376465%)" stop-opacity="1"/>
<stop offset="0.625" stop-color="rgb(98.179626%, 98.179626%, 98.179626%)" stop-opacity="1"/>
<stop offset="0.75" stop-color="rgb(98.03772%, 98.03772%, 98.03772%)" stop-opacity="1"/>
<stop offset="1" stop-color="rgb(98.03772%, 98.03772%, 98.03772%)" stop-opacity="1"/>
</linearGradient>
<clipPath id="clip-4">
<path clip-rule="nonzero" d="M 607.519531 0 L 668.792969 0 L 668.792969 2000 L 607.519531 2000 Z M 607.519531 0 "/>
</clipPath>
<linearGradient id="linear-pattern-4" gradientUnits="userSpaceOnUse" x1="0.0740638" y1="0" x2="0.895134" y2="0" gradientTransform="matrix(33.2851, 2436.41, -2436.41, 33.2851, 622.645, -180.69)">
<stop offset="0" stop-color="rgb(98.429871%, 98.429871%, 98.429871%)" stop-opacity="1"/>
<stop offset="0.5" stop-color="rgb(98.429871%, 98.429871%, 98.429871%)" stop-opacity="1"/>
<stop offset="0.5625" stop-color="rgb(98.429871%, 98.429871%, 98.429871%)" stop-opacity="1"/>
<stop offset="0.59375" stop-color="rgb(98.376465%, 98.376465%, 98.376465%)" stop-opacity="1"/>
<stop offset="0.625" stop-color="rgb(98.179626%, 98.179626%, 98.179626%)" stop-opacity="1"/>
<stop offset="0.75" stop-color="rgb(98.03772%, 98.03772%, 98.03772%)" stop-opacity="1"/>
<stop offset="1" stop-color="rgb(98.03772%, 98.03772%, 98.03772%)" stop-opacity="1"/>
</linearGradient>
<clipPath id="clip-5">
<path clip-rule="nonzero" d="M 740.113281 0 L 801.386719 0 L 801.386719 2000 L 740.113281 2000 Z M 740.113281 0 "/>
</clipPath>
<linearGradient id="linear-pattern-5" gradientUnits="userSpaceOnUse" x1="0.0740638" y1="0" x2="0.895134" y2="0" gradientTransform="matrix(33.2851, 2436.41, -2436.41, 33.2851, 755.236, -180.69)">
<stop offset="0" stop-color="rgb(98.429871%, 98.429871%, 98.429871%)" stop-opacity="1"/>
<stop offset="0.5" stop-color="rgb(98.429871%, 98.429871%, 98.429871%)" stop-opacity="1"/>
<stop offset="0.5625" stop-color="rgb(98.429871%, 98.429871%, 98.429871%)" stop-opacity="1"/>
<stop offset="0.59375" stop-color="rgb(98.376465%, 98.376465%, 98.376465%)" stop-opacity="1"/>
<stop offset="0.625" stop-color="rgb(98.179626%, 98.179626%, 98.179626%)" stop-opacity="1"/>
<stop offset="0.75" stop-color="rgb(98.03772%, 98.03772%, 98.03772%)" stop-opacity="1"/>
<stop offset="1" stop-color="rgb(98.03772%, 98.03772%, 98.03772%)" stop-opacity="1"/>
</linearGradient>
<clipPath id="clip-6">
<path clip-rule="nonzero" d="M 872.703125 0 L 933.976562 0 L 933.976562 2000 L 872.703125 2000 Z M 872.703125 0 "/>
</clipPath>
<linearGradient id="linear-pattern-6" gradientUnits="userSpaceOnUse" x1="0.0740638" y1="0" x2="0.895134" y2="0" gradientTransform="matrix(33.2851, 2436.41, -2436.41, 33.2851, 887.828, -180.69)">
<stop offset="0" stop-color="rgb(98.429871%, 98.429871%, 98.429871%)" stop-opacity="1"/>
<stop offset="0.5" stop-color="rgb(98.429871%, 98.429871%, 98.429871%)" stop-opacity="1"/>
<stop offset="0.5625" stop-color="rgb(98.429871%, 98.429871%, 98.429871%)" stop-opacity="1"/>
<stop offset="0.59375" stop-color="rgb(98.376465%, 98.376465%, 98.376465%)" stop-opacity="1"/>
<stop offset="0.625" stop-color="rgb(98.179626%, 98.179626%, 98.179626%)" stop-opacity="1"/>
<stop offset="0.75" stop-color="rgb(98.03772%, 98.03772%, 98.03772%)" stop-opacity="1"/>
<stop offset="1" stop-color="rgb(98.03772%, 98.03772%, 98.03772%)" stop-opacity="1"/>
</linearGradient>
<clipPath id="clip-7">
<path clip-rule="nonzero" d="M 1005.289062 0 L 1066.570312 0 L 1066.570312 2000 L 1005.289062 2000 Z M 1005.289062 0 "/>
</clipPath>
<linearGradient id="linear-pattern-7" gradientUnits="userSpaceOnUse" x1="0.0740637" y1="0" x2="0.895134" y2="0" gradientTransform="matrix(33.2851, 2436.41, -2436.41, 33.2851, 1020.42, -180.69)">
<stop offset="0" stop-color="rgb(98.429871%, 98.429871%, 98.429871%)" stop-opacity="1"/>
<stop offset="0.5" stop-color="rgb(98.429871%, 98.429871%, 98.429871%)" stop-opacity="1"/>
<stop offset="0.5625" stop-color="rgb(98.429871%, 98.429871%, 98.429871%)" stop-opacity="1"/>
<stop offset="0.59375" stop-color="rgb(98.376465%, 98.376465%, 98.376465%)" stop-opacity="1"/>
<stop offset="0.625" stop-color="rgb(98.179626%, 98.179626%, 98.179626%)" stop-opacity="1"/>
<stop offset="0.75" stop-color="rgb(98.03772%, 98.03772%, 98.03772%)" stop-opacity="1"/>
<stop offset="1" stop-color="rgb(98.03772%, 98.03772%, 98.03772%)" stop-opacity="1"/>
</linearGradient>
<clipPath id="clip-8">
<path clip-rule="nonzero" d="M 1137.890625 0 L 1199.160156 0 L 1199.160156 2000 L 1137.890625 2000 Z M 1137.890625 0 "/>
</clipPath>
<linearGradient id="linear-pattern-8" gradientUnits="userSpaceOnUse" x1="0.0740638" y1="0" x2="0.895134" y2="0" gradientTransform="matrix(33.2851, 2436.41, -2436.41, 33.2851, 1153.01, -180.69)">
<stop offset="0" stop-color="rgb(98.429871%, 98.429871%, 98.429871%)" stop-opacity="1"/>
<stop offset="0.5" stop-color="rgb(98.429871%, 98.429871%, 98.429871%)" stop-opacity="1"/>
<stop offset="0.5625" stop-color="rgb(98.429871%, 98.429871%, 98.429871%)" stop-opacity="1"/>
<stop offset="0.59375" stop-color="rgb(98.376465%, 98.376465%, 98.376465%)" stop-opacity="1"/>
<stop offset="0.625" stop-color="rgb(98.179626%, 98.179626%, 98.179626%)" stop-opacity="1"/>
<stop offset="0.75" stop-color="rgb(98.03772%, 98.03772%, 98.03772%)" stop-opacity="1"/>
<stop offset="1" stop-color="rgb(98.03772%, 98.03772%, 98.03772%)" stop-opacity="1"/>
</linearGradient>
<clipPath id="clip-9">
<path clip-rule="nonzero" d="M 1270.480469 0 L 1331.75 0 L 1331.75 2000 L 1270.480469 2000 Z M 1270.480469 0 "/>
</clipPath>
<linearGradient id="linear-pattern-9" gradientUnits="userSpaceOnUse" x1="0.0740638" y1="0" x2="0.895134" y2="0" gradientTransform="matrix(33.2851, 2436.41, -2436.41, 33.2851, 1285.6, -180.69)">
<stop offset="0" stop-color="rgb(98.429871%, 98.429871%, 98.429871%)" stop-opacity="1"/>
<stop offset="0.5" stop-color="rgb(98.429871%, 98.429871%, 98.429871%)" stop-opacity="1"/>
<stop offset="0.5625" stop-color="rgb(98.429871%, 98.429871%, 98.429871%)" stop-opacity="1"/>
<stop offset="0.59375" stop-color="rgb(98.376465%, 98.376465%, 98.376465%)" stop-opacity="1"/>
<stop offset="0.625" stop-color="rgb(98.179626%, 98.179626%, 98.179626%)" stop-opacity="1"/>
<stop offset="0.75" stop-color="rgb(98.03772%, 98.03772%, 98.03772%)" stop-opacity="1"/>
<stop offset="1" stop-color="rgb(98.03772%, 98.03772%, 98.03772%)" stop-opacity="1"/>
</linearGradient>
<clipPath id="clip-10">
<path clip-rule="nonzero" d="M 1403.070312 0 L 1464.339844 0 L 1464.339844 2000 L 1403.070312 2000 Z M 1403.070312 0 "/>
</clipPath>
<linearGradient id="linear-pattern-10" gradientUnits="userSpaceOnUse" x1="0.0740638" y1="0" x2="0.895134" y2="0" gradientTransform="matrix(33.2851, 2436.41, -2436.41, 33.2851, 1418.19, -180.69)">
<stop offset="0" stop-color="rgb(98.429871%, 98.429871%, 98.429871%)" stop-opacity="1"/>
<stop offset="0.5" stop-color="rgb(98.429871%, 98.429871%, 98.429871%)" stop-opacity="1"/>
<stop offset="0.5625" stop-color="rgb(98.429871%, 98.429871%, 98.429871%)" stop-opacity="1"/>
<stop offset="0.59375" stop-color="rgb(98.376465%, 98.376465%, 98.376465%)" stop-opacity="1"/>
<stop offset="0.625" stop-color="rgb(98.179626%, 98.179626%, 98.179626%)" stop-opacity="1"/>
<stop offset="0.75" stop-color="rgb(98.03772%, 98.03772%, 98.03772%)" stop-opacity="1"/>
<stop offset="1" stop-color="rgb(98.03772%, 98.03772%, 98.03772%)" stop-opacity="1"/>
</linearGradient>
<clipPath id="clip-11">
<path clip-rule="nonzero" d="M 1535.660156 0 L 1596.929688 0 L 1596.929688 2000 L 1535.660156 2000 Z M 1535.660156 0 "/>
</clipPath>
<linearGradient id="linear-pattern-11" gradientUnits="userSpaceOnUse" x1="0.0740638" y1="0" x2="0.895134" y2="0" gradientTransform="matrix(33.2851, 2436.41, -2436.41, 33.2851, 1550.78, -180.69)">
<stop offset="0" stop-color="rgb(98.429871%, 98.429871%, 98.429871%)" stop-opacity="1"/>
<stop offset="0.5" stop-color="rgb(98.429871%, 98.429871%, 98.429871%)" stop-opacity="1"/>
<stop offset="0.5625" stop-color="rgb(98.429871%, 98.429871%, 98.429871%)" stop-opacity="1"/>
<stop offset="0.59375" stop-color="rgb(98.376465%, 98.376465%, 98.376465%)" stop-opacity="1"/>
<stop offset="0.625" stop-color="rgb(98.179626%, 98.179626%, 98.179626%)" stop-opacity="1"/>
<stop offset="0.75" stop-color="rgb(98.03772%, 98.03772%, 98.03772%)" stop-opacity="1"/>
<stop offset="1" stop-color="rgb(98.03772%, 98.03772%, 98.03772%)" stop-opacity="1"/>
</linearGradient>
<clipPath id="clip-12">
<path clip-rule="nonzero" d="M 1668.25 0 L 1729.519531 0 L 1729.519531 2000 L 1668.25 2000 Z M 1668.25 0 "/>
</clipPath>
<linearGradient id="linear-pattern-12" gradientUnits="userSpaceOnUse" x1="0.0740638" y1="0" x2="0.895134" y2="0" gradientTransform="matrix(33.2851, 2436.41, -2436.41, 33.2851, 1683.37, -180.69)">
<stop offset="0" stop-color="rgb(98.429871%, 98.429871%, 98.429871%)" stop-opacity="1"/>
<stop offset="0.5" stop-color="rgb(98.429871%, 98.429871%, 98.429871%)" stop-opacity="1"/>
<stop offset="0.5625" stop-color="rgb(98.429871%, 98.429871%, 98.429871%)" stop-opacity="1"/>
<stop offset="0.59375" stop-color="rgb(98.376465%, 98.376465%, 98.376465%)" stop-opacity="1"/>
<stop offset="0.625" stop-color="rgb(98.179626%, 98.179626%, 98.179626%)" stop-opacity="1"/>
<stop offset="0.75" stop-color="rgb(98.03772%, 98.03772%, 98.03772%)" stop-opacity="1"/>
<stop offset="1" stop-color="rgb(98.03772%, 98.03772%, 98.03772%)" stop-opacity="1"/>
</linearGradient>
<clipPath id="clip-13">
<path clip-rule="nonzero" d="M 1800.839844 0 L 1862.109375 0 L 1862.109375 2000 L 1800.839844 2000 Z M 1800.839844 0 "/>
</clipPath>
<linearGradient id="linear-pattern-13" gradientUnits="userSpaceOnUse" x1="0.0740637" y1="0" x2="0.895134" y2="0" gradientTransform="matrix(33.2851, 2436.41, -2436.41, 33.2851, 1815.97, -180.69)">
<stop offset="0" stop-color="rgb(98.429871%, 98.429871%, 98.429871%)" stop-opacity="1"/>
<stop offset="0.5" stop-color="rgb(98.429871%, 98.429871%, 98.429871%)" stop-opacity="1"/>
<stop offset="0.5625" stop-color="rgb(98.429871%, 98.429871%, 98.429871%)" stop-opacity="1"/>
<stop offset="0.59375" stop-color="rgb(98.376465%, 98.376465%, 98.376465%)" stop-opacity="1"/>
<stop offset="0.625" stop-color="rgb(98.179626%, 98.179626%, 98.179626%)" stop-opacity="1"/>
<stop offset="0.75" stop-color="rgb(98.03772%, 98.03772%, 98.03772%)" stop-opacity="1"/>
<stop offset="1" stop-color="rgb(98.03772%, 98.03772%, 98.03772%)" stop-opacity="1"/>
</linearGradient>
<clipPath id="clip-14">
<path clip-rule="nonzero" d="M 1933.429688 0 L 1994.699219 0 L 1994.699219 2000 L 1933.429688 2000 Z M 1933.429688 0 "/>
</clipPath>
<linearGradient id="linear-pattern-14" gradientUnits="userSpaceOnUse" x1="0.0740637" y1="0" x2="0.895134" y2="0" gradientTransform="matrix(33.2851, 2436.41, -2436.41, 33.2851, 1948.56, -180.69)">
<stop offset="0" stop-color="rgb(98.429871%, 98.429871%, 98.429871%)" stop-opacity="1"/>
<stop offset="0.5" stop-color="rgb(98.429871%, 98.429871%, 98.429871%)" stop-opacity="1"/>
<stop offset="0.5625" stop-color="rgb(98.429871%, 98.429871%, 98.429871%)" stop-opacity="1"/>
<stop offset="0.59375" stop-color="rgb(98.376465%, 98.376465%, 98.376465%)" stop-opacity="1"/>
<stop offset="0.625" stop-color="rgb(98.179626%, 98.179626%, 98.179626%)" stop-opacity="1"/>
<stop offset="0.75" stop-color="rgb(98.03772%, 98.03772%, 98.03772%)" stop-opacity="1"/>
<stop offset="1" stop-color="rgb(98.03772%, 98.03772%, 98.03772%)" stop-opacity="1"/>
</linearGradient>
<clipPath id="clip-15">
<path clip-rule="nonzero" d="M 2066.019531 0 L 2127.300781 0 L 2127.300781 2000 L 2066.019531 2000 Z M 2066.019531 0 "/>
</clipPath>
<linearGradient id="linear-pattern-15" gradientUnits="userSpaceOnUse" x1="0.0740637" y1="0" x2="0.895134" y2="0" gradientTransform="matrix(33.2851, 2436.41, -2436.41, 33.2851, 2081.15, -180.69)">
<stop offset="0" stop-color="rgb(98.429871%, 98.429871%, 98.429871%)" stop-opacity="1"/>
<stop offset="0.5" stop-color="rgb(98.429871%, 98.429871%, 98.429871%)" stop-opacity="1"/>
<stop offset="0.5625" stop-color="rgb(98.429871%, 98.429871%, 98.429871%)" stop-opacity="1"/>
<stop offset="0.59375" stop-color="rgb(98.376465%, 98.376465%, 98.376465%)" stop-opacity="1"/>
<stop offset="0.625" stop-color="rgb(98.179626%, 98.179626%, 98.179626%)" stop-opacity="1"/>
<stop offset="0.75" stop-color="rgb(98.03772%, 98.03772%, 98.03772%)" stop-opacity="1"/>
<stop offset="1" stop-color="rgb(98.03772%, 98.03772%, 98.03772%)" stop-opacity="1"/>
</linearGradient>
<clipPath id="clip-16">
<path clip-rule="nonzero" d="M 2198.621094 0 L 2259.890625 0 L 2259.890625 2000 L 2198.621094 2000 Z M 2198.621094 0 "/>
</clipPath>
<linearGradient id="linear-pattern-16" gradientUnits="userSpaceOnUse" x1="0.0740638" y1="0" x2="0.895134" y2="0" gradientTransform="matrix(33.2851, 2436.41, -2436.41, 33.2851, 2213.74, -180.69)">
<stop offset="0" stop-color="rgb(98.429871%, 98.429871%, 98.429871%)" stop-opacity="1"/>
<stop offset="0.5" stop-color="rgb(98.429871%, 98.429871%, 98.429871%)" stop-opacity="1"/>
<stop offset="0.5625" stop-color="rgb(98.429871%, 98.429871%, 98.429871%)" stop-opacity="1"/>
<stop offset="0.59375" stop-color="rgb(98.376465%, 98.376465%, 98.376465%)" stop-opacity="1"/>
<stop offset="0.625" stop-color="rgb(98.179626%, 98.179626%, 98.179626%)" stop-opacity="1"/>
<stop offset="0.75" stop-color="rgb(98.03772%, 98.03772%, 98.03772%)" stop-opacity="1"/>
<stop offset="1" stop-color="rgb(98.03772%, 98.03772%, 98.03772%)" stop-opacity="1"/>
</linearGradient>
<clipPath id="clip-17">
<path clip-rule="nonzero" d="M 2331.210938 0 L 2392.480469 0 L 2392.480469 2000 L 2331.210938 2000 Z M 2331.210938 0 "/>
</clipPath>
<linearGradient id="linear-pattern-17" gradientUnits="userSpaceOnUse" x1="0.0740638" y1="0" x2="0.895134" y2="0" gradientTransform="matrix(33.2851, 2436.41, -2436.41, 33.2851, 2346.33, -180.69)">
<stop offset="0" stop-color="rgb(98.429871%, 98.429871%, 98.429871%)" stop-opacity="1"/>
<stop offset="0.5" stop-color="rgb(98.429871%, 98.429871%, 98.429871%)" stop-opacity="1"/>
<stop offset="0.5625" stop-color="rgb(98.429871%, 98.429871%, 98.429871%)" stop-opacity="1"/>
<stop offset="0.59375" stop-color="rgb(98.376465%, 98.376465%, 98.376465%)" stop-opacity="1"/>
<stop offset="0.625" stop-color="rgb(98.179626%, 98.179626%, 98.179626%)" stop-opacity="1"/>
<stop offset="0.75" stop-color="rgb(98.03772%, 98.03772%, 98.03772%)" stop-opacity="1"/>
<stop offset="1" stop-color="rgb(98.03772%, 98.03772%, 98.03772%)" stop-opacity="1"/>
</linearGradient>
<clipPath id="clip-18">
<path clip-rule="nonzero" d="M 2463.800781 0 L 2525.070312 0 L 2525.070312 2000 L 2463.800781 2000 Z M 2463.800781 0 "/>
</clipPath>
<linearGradient id="linear-pattern-18" gradientUnits="userSpaceOnUse" x1="0.0740638" y1="0" x2="0.895134" y2="0" gradientTransform="matrix(33.2851, 2436.41, -2436.41, 33.2851, 2478.92, -180.69)">
<stop offset="0" stop-color="rgb(98.429871%, 98.429871%, 98.429871%)" stop-opacity="1"/>
<stop offset="0.5" stop-color="rgb(98.429871%, 98.429871%, 98.429871%)" stop-opacity="1"/>
<stop offset="0.5625" stop-color="rgb(98.429871%, 98.429871%, 98.429871%)" stop-opacity="1"/>
<stop offset="0.59375" stop-color="rgb(98.376465%, 98.376465%, 98.376465%)" stop-opacity="1"/>
<stop offset="0.625" stop-color="rgb(98.179626%, 98.179626%, 98.179626%)" stop-opacity="1"/>
<stop offset="0.75" stop-color="rgb(98.03772%, 98.03772%, 98.03772%)" stop-opacity="1"/>
<stop offset="1" stop-color="rgb(98.03772%, 98.03772%, 98.03772%)" stop-opacity="1"/>
</linearGradient>
<clipPath id="clip-19">
<path clip-rule="nonzero" d="M 2596.390625 0 L 2657.660156 0 L 2657.660156 2000 L 2596.390625 2000 Z M 2596.390625 0 "/>
</clipPath>
<linearGradient id="linear-pattern-19" gradientUnits="userSpaceOnUse" x1="0.0740638" y1="0" x2="0.895134" y2="0" gradientTransform="matrix(33.2851, 2436.41, -2436.41, 33.2851, 2611.51, -180.69)">
<stop offset="0" stop-color="rgb(98.429871%, 98.429871%, 98.429871%)" stop-opacity="1"/>
<stop offset="0.5" stop-color="rgb(98.429871%, 98.429871%, 98.429871%)" stop-opacity="1"/>
<stop offset="0.5625" stop-color="rgb(98.429871%, 98.429871%, 98.429871%)" stop-opacity="1"/>
<stop offset="0.59375" stop-color="rgb(98.376465%, 98.376465%, 98.376465%)" stop-opacity="1"/>
<stop offset="0.625" stop-color="rgb(98.179626%, 98.179626%, 98.179626%)" stop-opacity="1"/>
<stop offset="0.75" stop-color="rgb(98.03772%, 98.03772%, 98.03772%)" stop-opacity="1"/>
<stop offset="1" stop-color="rgb(98.03772%, 98.03772%, 98.03772%)" stop-opacity="1"/>
</linearGradient>
<clipPath id="clip-20">
<path clip-rule="nonzero" d="M 2728.980469 0 L 2790.25 0 L 2790.25 2000 L 2728.980469 2000 Z M 2728.980469 0 "/>
</clipPath>
<linearGradient id="linear-pattern-20" gradientUnits="userSpaceOnUse" x1="0.0740638" y1="0" x2="0.895134" y2="0" gradientTransform="matrix(33.2851, 2436.41, -2436.41, 33.2851, 2744.1, -180.69)">
<stop offset="0" stop-color="rgb(98.429871%, 98.429871%, 98.429871%)" stop-opacity="1"/>
<stop offset="0.5" stop-color="rgb(98.429871%, 98.429871%, 98.429871%)" stop-opacity="1"/>
<stop offset="0.5625" stop-color="rgb(98.429871%, 98.429871%, 98.429871%)" stop-opacity="1"/>
<stop offset="0.59375" stop-color="rgb(98.376465%, 98.376465%, 98.376465%)" stop-opacity="1"/>
<stop offset="0.625" stop-color="rgb(98.179626%, 98.179626%, 98.179626%)" stop-opacity="1"/>
<stop offset="0.75" stop-color="rgb(98.03772%, 98.03772%, 98.03772%)" stop-opacity="1"/>
<stop offset="1" stop-color="rgb(98.03772%, 98.03772%, 98.03772%)" stop-opacity="1"/>
</linearGradient>
<clipPath id="clip-21">
<path clip-rule="nonzero" d="M 2861.570312 0 L 2922.839844 0 L 2922.839844 2000 L 2861.570312 2000 Z M 2861.570312 0 "/>
</clipPath>
<linearGradient id="linear-pattern-21" gradientUnits="userSpaceOnUse" x1="0.0740637" y1="0" x2="0.895134" y2="0" gradientTransform="matrix(33.2851, 2436.41, -2436.41, 33.2851, 2876.7, -180.69)">
<stop offset="0" stop-color="rgb(98.429871%, 98.429871%, 98.429871%)" stop-opacity="1"/>
<stop offset="0.5" stop-color="rgb(98.429871%, 98.429871%, 98.429871%)" stop-opacity="1"/>
<stop offset="0.5625" stop-color="rgb(98.429871%, 98.429871%, 98.429871%)" stop-opacity="1"/>
<stop offset="0.59375" stop-color="rgb(98.376465%, 98.376465%, 98.376465%)" stop-opacity="1"/>
<stop offset="0.625" stop-color="rgb(98.179626%, 98.179626%, 98.179626%)" stop-opacity="1"/>
<stop offset="0.75" stop-color="rgb(98.03772%, 98.03772%, 98.03772%)" stop-opacity="1"/>
<stop offset="1" stop-color="rgb(98.03772%, 98.03772%, 98.03772%)" stop-opacity="1"/>
</linearGradient>
</defs>


<g clip-path="url(#clip-0)">
<path fill-rule="nonzero" fill="url(#linear-pattern-0)" d="M 138.417969 -0.835938 L 49.839844 0.375 L 77.167969 2000.835938 L 165.746094 1999.625 Z M 138.417969 -0.835938 "/>
</g>
<g clip-path="url(#clip-1)">
<path fill-rule="nonzero" fill="url(#linear-pattern-1)" d="M 271.007812 -0.835938 L 182.429688 0.375 L 209.757812 2000.835938 L 298.339844 1999.625 Z M 271.007812 -0.835938 "/>
</g>
<g clip-path="url(#clip-2)">
<path fill-rule="nonzero" fill="url(#linear-pattern-2)" d="M 403.601562 -0.835938 L 315.019531 0.375 L 342.351562 2000.835938 L 430.929688 1999.625 Z M 403.601562 -0.835938 "/>
</g>
<g clip-path="url(#clip-3)">
<path fill-rule="nonzero" fill="url(#linear-pattern-3)" d="M 536.191406 -0.835938 L 447.613281 0.375 L 474.941406 2000.835938 L 563.519531 1999.625 Z M 536.191406 -0.835938 "/>
</g>
<g clip-path="url(#clip-4)">
<path fill-rule="nonzero" fill="url(#linear-pattern-4)" d="M 668.78125 -0.835938 L 580.203125 0.375 L 607.53125 2000.835938 L 696.109375 1999.625 Z M 668.78125 -0.835938 "/>
</g>
<g clip-path="url(#clip-5)">
<path fill-rule="nonzero" fill="url(#linear-pattern-5)" d="M 801.375 -0.835938 L 712.792969 0.375 L 740.125 2000.835938 L 828.703125 1999.625 Z M 801.375 -0.835938 "/>
</g>
<g clip-path="url(#clip-6)">
<path fill-rule="nonzero" fill="url(#linear-pattern-6)" d="M 933.964844 -0.835938 L 845.386719 0.375 L 872.714844 2000.835938 L 961.292969 1999.625 Z M 933.964844 -0.835938 "/>
</g>
<g clip-path="url(#clip-7)">
<path fill-rule="nonzero" fill="url(#linear-pattern-7)" d="M 1066.558594 -0.835938 L 977.972656 0.375 L 1005.300781 2000.835938 L 1093.886719 1999.625 Z M 1066.558594 -0.835938 "/>
</g>
<g clip-path="url(#clip-8)">
<path fill-rule="nonzero" fill="url(#linear-pattern-8)" d="M 1199.148438 -0.835938 L 1110.570312 0.375 L 1137.902344 2000.835938 L 1226.476562 1999.625 Z M 1199.148438 -0.835938 "/>
</g>
<g clip-path="url(#clip-9)">
<path fill-rule="nonzero" fill="url(#linear-pattern-9)" d="M 1331.738281 -0.835938 L 1243.160156 0.375 L 1270.492188 2000.835938 L 1359.066406 1999.625 Z M 1331.738281 -0.835938 "/>
</g>
<g clip-path="url(#clip-10)">
<path fill-rule="nonzero" fill="url(#linear-pattern-10)" d="M 1464.328125 -0.835938 L 1375.753906 0.375 L 1403.082031 2000.835938 L 1491.65625 1999.625 Z M 1464.328125 -0.835938 "/>
</g>
<g clip-path="url(#clip-11)">
<path fill-rule="nonzero" fill="url(#linear-pattern-11)" d="M 1596.917969 -0.835938 L 1508.34375 0.375 L 1535.671875 2000.835938 L 1624.246094 1999.625 Z M 1596.917969 -0.835938 "/>
</g>
<g clip-path="url(#clip-12)">
<path fill-rule="nonzero" fill="url(#linear-pattern-12)" d="M 1729.507812 -0.835938 L 1640.933594 0.375 L 1668.261719 2000.835938 L 1756.835938 1999.625 Z M 1729.507812 -0.835938 "/>
</g>
<g clip-path="url(#clip-13)">
<path fill-rule="nonzero" fill="url(#linear-pattern-13)" d="M 1862.097656 -0.835938 L 1773.523438 0.375 L 1800.851562 2000.835938 L 1889.429688 1999.625 Z M 1862.097656 -0.835938 "/>
</g>
<g clip-path="url(#clip-14)">
<path fill-rule="nonzero" fill="url(#linear-pattern-14)" d="M 1994.6875 -0.835938 L 1906.113281 0.375 L 1933.441406 2000.835938 L 2022.019531 1999.625 Z M 1994.6875 -0.835938 "/>
</g>
<g clip-path="url(#clip-15)">
<path fill-rule="nonzero" fill="url(#linear-pattern-15)" d="M 2127.289062 -0.835938 L 2038.703125 0.375 L 2066.03125 2000.835938 L 2154.617188 1999.625 Z M 2127.289062 -0.835938 "/>
</g>
<g clip-path="url(#clip-16)">
<path fill-rule="nonzero" fill="url(#linear-pattern-16)" d="M 2259.878906 -0.835938 L 2171.300781 0.375 L 2198.632812 2000.835938 L 2287.207031 1999.625 Z M 2259.878906 -0.835938 "/>
</g>
<g clip-path="url(#clip-17)">
<path fill-rule="nonzero" fill="url(#linear-pattern-17)" d="M 2392.46875 -0.835938 L 2303.890625 0.375 L 2331.222656 2000.835938 L 2419.796875 1999.625 Z M 2392.46875 -0.835938 "/>
</g>
<g clip-path="url(#clip-18)">
<path fill-rule="nonzero" fill="url(#linear-pattern-18)" d="M 2525.058594 -0.835938 L 2436.480469 0.375 L 2463.8125 2000.835938 L 2552.386719 1999.625 Z M 2525.058594 -0.835938 "/>
</g>
<g clip-path="url(#clip-19)">
<path fill-rule="nonzero" fill="url(#linear-pattern-19)" d="M 2657.648438 -0.835938 L 2569.070312 0.375 L 2596.402344 2000.835938 L 2684.976562 1999.625 Z M 2657.648438 -0.835938 "/>
</g>
<g clip-path="url(#clip-20)">
<path fill-rule="nonzero" fill="url(#linear-pattern-20)" d="M 2790.238281 -0.835938 L 2701.660156 0.375 L 2728.992188 2000.835938 L 2817.566406 1999.625 Z M 2790.238281 -0.835938 "/>
</g>
<g clip-path="url(#clip-21)">
<path fill-rule="nonzero" fill="url(#linear-pattern-21)" d="M 2922.828125 -0.835938 L 2834.253906 0.375 L 2861.582031 2000.835938 L 2950.15625 1999.625 Z M 2922.828125 -0.835938 "/>
</g>
<path fill-rule="nonzero" fill="rgb(4.704285%, 9.008789%, 33.714294%)" fill-opacity="1" d="M 2696.628906 554.480469 C 2700.089844 543.019531 2697.671875 533.761719 2695.109375 523.96875 C 2693.960938 519.578125 2692.769531 515.039062 2692.070312 510.101562 C 2696.761719 505.320312 2696.050781 499.628906 2695.421875 494.570312 C 2694.96875 490.929688 2694.539062 487.488281 2695.789062 484.210938 L 2696.851562 481.441406 L 2693.878906 481.5 C 2685.179688 481.679688 2676.238281 481.960938 2667.601562 482.238281 C 2659.539062 482.5 2651.199219 482.761719 2643.089844 482.941406 C 2636.75 481.25 2630.199219 479.429688 2623.871094 477.671875 C 2617.519531 475.898438 2610.941406 474.070312 2604.578125 472.371094 L 2604.269531 472.308594 C 2597.058594 471.550781 2589.738281 470.878906 2582.648438 470.230469 C 2575.851562 469.601562 2568.808594 468.960938 2561.890625 468.230469 C 2546.03125 460.769531 2530.019531 453.421875 2513 445.789062 C 2466.070312 423.371094 2465.46875 421.21875 2458.121094 394.921875 C 2455.691406 386.261719 2452.679688 375.488281 2447.25 360.710938 C 2446.351562 349.558594 2441.238281 339.328125 2432.839844 331.878906 L 2431.609375 330.789062 L 2430.300781 331.789062 C 2424.109375 336.5 2417.980469 341.519531 2412.058594 346.371094 C 2409.519531 348.441406 2406.96875 350.53125 2404.390625 352.621094 C 2399.191406 352.351562 2392.71875 353.761719 2385.890625 355.261719 C 2371.871094 358.328125 2357.378906 361.5 2353.160156 350.339844 L 2352.46875 348.511719 L 2351.371094 348.898438 C 2351.328125 348.800781 2351.289062 348.699219 2351.261719 348.589844 C 2346.640625 335.488281 2340.898438 319.191406 2327.199219 311.019531 L 2325.449219 309.96875 L 2324.441406 311.738281 C 2322.640625 314.871094 2320.710938 318.070312 2318.839844 321.160156 C 2317.238281 323.800781 2315.589844 326.519531 2314.011719 329.230469 C 2309.390625 328.699219 2304.71875 328.078125 2300.179688 327.480469 C 2278.671875 324.628906 2256.441406 321.699219 2235.078125 327.691406 C 2221.46875 306.640625 2216.199219 301.550781 2192.488281 294.289062 C 2188.730469 288.808594 2188.640625 285.179688 2188.550781 281.339844 C 2188.449219 277.058594 2188.351562 272.628906 2183.269531 266.480469 L 2182.109375 265.070312 L 2180.601562 266.109375 C 2168.75 274.25 2156.980469 269.28125 2144.519531 264.011719 C 2134.878906 259.941406 2124.921875 255.730469 2114.53125 257.578125 C 2104.25 250.910156 2095.058594 254.160156 2086.160156 257.300781 C 2082.621094 258.558594 2078.949219 259.851562 2075.179688 260.550781 C 2064.070312 260.359375 2053.101562 260.601562 2043.421875 260.808594 L 2043.191406 260.808594 L 2042.960938 260.871094 C 2030.980469 263.980469 2020.398438 270.320312 2010.171875 276.449219 C 1998.628906 283.371094 1987.730469 289.898438 1974.898438 292.28125 C 1963.621094 289.929688 1955.550781 293.039062 1947.011719 296.320312 C 1936.511719 300.359375 1924.621094 304.941406 1903.359375 300.601562 L 1902.910156 300.5 L 1902.460938 300.621094 C 1896.5 302.179688 1890.339844 303.878906 1884.378906 305.519531 C 1878.878906 307.03125 1873.191406 308.601562 1867.671875 310.058594 C 1852.289062 306.261719 1839.941406 304.960938 1826.929688 309.960938 L 1826.839844 309.191406 L 1824.609375 309.769531 C 1812.511719 312.949219 1800.890625 319.648438 1789.648438 326.140625 C 1784 329.398438 1778.660156 332.480469 1773.28125 335.128906 C 1758.589844 333.5 1747.019531 336.761719 1736.828125 345.441406 C 1727.210938 354.339844 1722.21875 366.171875 1717.46875 377.679688 C 1678.480469 398.398438 1672.710938 408.050781 1651.511719 443.460938 L 1649.371094 447.039062 C 1642.238281 455.019531 1634.539062 460.199219 1624.441406 463.828125 L 1623.570312 464.140625 L 1623.238281 465.011719 C 1614.910156 487.441406 1598.078125 496.328125 1567 494.738281 L 1566.378906 494.710938 L 1565.859375 495.03125 C 1553.019531 502.898438 1540.171875 510.78125 1527.300781 518.660156 C 1525.628906 518.660156 1523.96875 518.640625 1522.308594 518.621094 C 1509.128906 518.488281 1495.511719 518.371094 1483.550781 526.539062 C 1479.96875 527.289062 1476.359375 528.101562 1472.859375 528.898438 C 1469.109375 529.75 1465.238281 530.628906 1461.429688 531.410156 C 1448.730469 529.230469 1440.441406 521.320312 1431.671875 512.960938 C 1427.550781 509.019531 1423.289062 504.96875 1418.449219 501.398438 L 1419.148438 501.050781 L 1415.378906 499.339844 C 1384.160156 485.140625 1374.910156 488.878906 1365.960938 492.5 C 1359.238281 495.21875 1352.890625 497.789062 1336.308594 492.800781 C 1322.261719 479.230469 1307.949219 467.738281 1287.859375 474.5 L 1287.25 474.699219 L 1286.871094 475.230469 C 1283.929688 479.359375 1279.230469 481.179688 1274.261719 483.101562 C 1272.570312 483.75 1270.828125 484.421875 1269.128906 485.199219 C 1241.328125 481.980469 1238.078125 484.019531 1230.988281 488.449219 C 1227.039062 490.921875 1222.140625 493.988281 1210.601562 497.410156 C 1197.859375 492.410156 1187.710938 482.140625 1177.898438 472.199219 C 1175.898438 470.171875 1173.820312 468.070312 1171.78125 466.070312 L 1171.398438 465.699219 L 1170.878906 465.570312 C 1167.269531 464.628906 1163.949219 463.75 1160.890625 462.941406 C 1126.800781 453.910156 1123.238281 452.96875 1083.25 469.519531 L 1082.75 469.71875 L 1082.421875 470.160156 C 1074.710938 480.289062 1068.058594 486.050781 1059.480469 490.050781 L 1058.609375 490.460938 L 1058.570312 490.628906 C 1043.71875 490.429688 1029.019531 493.238281 1014.769531 495.980469 C 1008.050781 497.28125 1001.101562 498.609375 994.238281 499.609375 C 979.609375 497.289062 966.492188 490.390625 953.804688 483.71875 C 937.21875 474.988281 920.070312 465.96875 899.347656 466.988281 C 886.660156 465.828125 874.351562 460.75 862.441406 455.839844 C 854.746094 452.671875 846.792969 449.390625 838.765625 447.171875 C 830.144531 430.449219 809.28125 436.578125 793.984375 441.078125 C 791.667969 441.769531 789.480469 442.410156 787.445312 442.949219 L 786.320312 443.238281 L 786.050781 444.261719 C 769.542969 446.550781 753.679688 434.589844 744.765625 423.089844 L 744.164062 422.320312 L 743.1875 422.320312 C 730.820312 422.300781 719.746094 418.308594 710.542969 414.421875 L 710.0625 414.210938 L 709.539062 414.269531 C 700.097656 415.328125 690.65625 415.429688 681.523438 415.519531 C 663.652344 415.710938 646.773438 415.878906 629.734375 422.640625 L 629.425781 422.789062 C 611.199219 433.96875 589.679688 441.320312 565.46875 444.660156 L 564.292969 444.820312 L 563.871094 445.929688 C 563.6875 446.410156 563.480469 446.859375 563.261719 447.289062 C 559.636719 444.820312 551.410156 442.160156 533.476562 439.199219 C 527.535156 434.46875 520.1875 432.789062 513.078125 431.171875 C 504.769531 429.28125 496.917969 427.488281 491.804688 421.070312 C 484.855469 405.859375 491.320312 390.460938 498.167969 374.160156 C 501.035156 367.328125 504 360.28125 505.890625 353.230469 C 511.3125 347.300781 517.605469 343.128906 524.113281 341.171875 C 529.207031 340.25 534.382812 339.230469 539.382812 338.238281 C 544.445312 337.238281 549.675781 336.210938 554.804688 335.289062 L 555.664062 335.140625 L 556.136719 334.398438 C 557.40625 332.429688 558.742188 330.480469 560.03125 328.589844 C 567.058594 318.328125 573.699219 308.628906 570.457031 295.28125 L 570.316406 294.699219 L 569.875 294.289062 C 562.148438 287.128906 550.992188 286.199219 540.203125 285.300781 C 534.535156 284.820312 529.167969 284.378906 524.304688 283.089844 C 511.832031 272.269531 498.390625 263.78125 483.234375 257.140625 C 475.515625 249.859375 468.097656 242.460938 461.542969 235.921875 L 461.121094 235.511719 L 460.539062 235.378906 C 457.914062 234.828125 455.191406 234.609375 452.5625 234.390625 C 446.492188 233.890625 440.757812 233.410156 437.058594 229.089844 L 436.800781 228.789062 L 436.429688 228.601562 C 436.347656 228.550781 436.148438 228.28125 436 228.089844 C 435.796875 227.820312 435.542969 227.480469 435.214844 227.140625 L 432.90625 224.691406 L 431.976562 227.53125 L 431.285156 225.890625 L 429.183594 227.980469 C 428.5 228.660156 427.90625 229.390625 427.332031 230.078125 C 426.722656 230.828125 425.582031 232.21875 425.140625 232.238281 C 425.136719 232.238281 424.789062 232.21875 424.039062 231.421875 L 419.199219 226.261719 L 420.621094 233.191406 C 421.21875 236.101562 419.878906 238.109375 416.847656 241.269531 L 415.523438 242.640625 L 416.28125 243.441406 C 415.644531 243.601562 415.011719 243.78125 414.390625 243.949219 L 411.699219 244.699219 L 413.277344 247.011719 C 413.738281 247.691406 414.128906 248.390625 414.539062 249.128906 C 414.636719 249.308594 414.738281 249.488281 414.839844 249.671875 C 413.566406 250.371094 413.464844 250.269531 413.117188 249.960938 L 411.550781 248.511719 L 410.207031 250.171875 C 408.8125 251.890625 407.855469 253.578125 406.925781 255.199219 L 405.835938 257.121094 L 407.84375 258.019531 C 410.875 259.378906 412.199219 260.980469 412.121094 263.421875 C 411.839844 263.328125 411.550781 263.238281 411.257812 263.148438 L 408.9375 262.429688 L 408.675781 264.851562 C 408.382812 267.609375 407.429688 270.660156 406.511719 273.601562 C 404.566406 279.839844 402.378906 286.851562 406.226562 292.578125 C 403.648438 298.628906 404.632812 301.410156 405.4375 303.660156 C 405.941406 305.078125 406.296875 306.089844 405.710938 308.058594 C 404.460938 308.191406 403.066406 308.160156 401.613281 308.128906 C 397.476562 308.058594 391.976562 307.949219 389.625 312.808594 C 384.179688 311.148438 378.574219 313.128906 373.558594 314.898438 L 370.335938 316.03125 L 371.398438 318.078125 C 373.652344 322.421875 374.140625 325.761719 372.847656 328 C 369.96875 333 358.320312 333.539062 348.960938 333.96875 C 344.640625 334.171875 340.5625 334.359375 337.40625 334.941406 L 336.207031 335.160156 L 335.851562 336.328125 C 335.074219 338.910156 332.699219 339.550781 328.890625 340.371094 C 326.933594 340.800781 324.910156 341.230469 323.078125 342.148438 L 321.617188 342.878906 L 322.039062 344.460938 C 323.109375 348.460938 323.59375 350.859375 321.039062 353.558594 L 320.589844 354.03125 L 320.507812 354.679688 C 319.90625 359.339844 319.605469 364.039062 319.316406 368.589844 C 319.144531 371.230469 318.972656 373.949219 318.738281 376.660156 C 313.648438 381.421875 309.042969 386.039062 311.882812 393.941406 C 311.066406 398.289062 310.070312 402.699219 309.109375 406.960938 C 308.601562 409.210938 308.09375 411.46875 307.601562 413.738281 C 306.152344 417.398438 304.636719 420.761719 303.171875 424.011719 C 296.765625 438.210938 291.703125 449.421875 301.433594 465.511719 L 301.65625 465.878906 L 302.015625 466.128906 C 309.804688 471.449219 309.632812 477.078125 306.390625 486.929688 L 306.199219 487.519531 L 306.367188 488.109375 C 306.722656 489.351562 307.066406 490.578125 307.40625 491.78125 C 312.050781 508.328125 316.070312 522.648438 337.914062 527.75 C 341.847656 532.578125 341.742188 536.949219 337.613281 542.269531 L 336.800781 543.308594 L 337.445312 544.46875 C 342.210938 553.03125 341.613281 561.828125 339.097656 573.269531 L 338.992188 573.75 L 339.121094 574.21875 C 341.753906 583.839844 345.058594 593.390625 348.257812 602.628906 C 350.511719 609.140625 352.839844 615.871094 354.917969 622.570312 L 355.0625 623.039062 L 355.402344 623.378906 C 359.996094 628.058594 365.945312 628.550781 371.378906 628.191406 C 378.894531 642.640625 385.460938 643.570312 400.753906 645.71875 L 402.292969 645.941406 C 406.113281 663.609375 411.835938 664.179688 427.5625 664.179688 C 428.09375 664.179688 428.632812 664.179688 429.1875 664.179688 L 431.742188 664.171875 L 432.210938 663.898438 C 432.515625 663.71875 432.8125 663.539062 433.105469 663.351562 C 440.742188 666.71875 444.070312 671.828125 447.566406 677.210938 C 451.667969 683.519531 455.902344 690.050781 466.816406 694.230469 C 471.851562 704.558594 474.191406 713.160156 474.183594 721.230469 L 474.183594 721.960938 L 474.652344 722.519531 C 475.808594 723.890625 477.335938 724.820312 478.683594 725.640625 C 481.457031 727.328125 482.558594 728.121094 481.972656 730.699219 L 481.820312 731.371094 L 482.105469 731.980469 C 487.097656 742.828125 494.972656 751.5 506.753906 759.089844 L 501.800781 762.878906 L 508.890625 762.121094 C 517.683594 761.191406 524.101562 764.320312 531.207031 768.738281 C 530.148438 770.421875 529.132812 772.140625 528.140625 773.808594 C 526.835938 776.011719 525.484375 778.289062 524.074219 780.421875 L 523.054688 781.949219 L 524.5 783.089844 C 528.824219 786.5 527.453125 791.621094 524.679688 799.648438 C 523.589844 802.808594 522.46875 806.058594 522.089844 809.109375 C 518.003906 812.410156 514.214844 815.730469 510.539062 818.949219 C 498.183594 821.519531 494.746094 831.308594 491.421875 840.78125 C 490.484375 843.441406 489.519531 846.199219 488.355469 848.789062 C 480.585938 852.28125 472.96875 856.78125 468.953125 865.371094 C 464.402344 867.601562 459.804688 869.671875 454.945312 871.851562 C 451.609375 873.351562 448.160156 874.910156 444.75 876.5 L 443.605469 877.039062 L 443.59375 879.5 C 443.574219 885.660156 443.558594 890.96875 438.601562 894.710938 L 437.007812 895.921875 L 438.203125 897.511719 C 442.621094 903.410156 439.292969 908.898438 435.4375 915.269531 C 434.683594 916.519531 433.914062 917.789062 433.199219 919.078125 L 432.785156 918.808594 L 431.789062 920.828125 C 430.128906 924.199219 427.78125 924.328125 423.789062 924.289062 C 420.742188 924.261719 417.070312 924.210938 414.375 927.109375 C 413.828125 926.71875 413.246094 926.339844 412.671875 925.96875 L 411.089844 924.929688 L 409.96875 926.460938 C 408.96875 927.820312 407.863281 929.28125 406.761719 930.730469 C 406.332031 931.300781 405.902344 931.871094 405.480469 932.429688 C 402.300781 927.378906 397.8125 927.480469 394.101562 927.558594 C 390.054688 927.660156 386.859375 927.730469 384.289062 922.210938 L 383.8125 921.199219 L 382.699219 921.070312 C 375.195312 920.230469 369.652344 921.558594 366.230469 925.019531 C 364 927.28125 362.796875 930.320312 362.632812 934.109375 C 355 929.28125 350.511719 927.730469 347.121094 928.621094 C 343.710938 929.511719 342.148438 932.609375 340.339844 936.210938 C 336.914062 943.011719 332.226562 952.328125 312.351562 956.691406 L 311.078125 956.96875 L 310.816406 958.238281 C 309.558594 964.441406 312.105469 968.941406 314.570312 973.28125 C 316.335938 976.398438 318 979.339844 318.289062 982.878906 L 318.332031 983.390625 L 318.621094 983.828125 C 320.410156 986.5 322.699219 988.988281 324.910156 991.398438 C 330.277344 997.238281 334.949219 1002.328125 333.121094 1009.269531 C 328.609375 1010.238281 327.015625 1014.640625 325.597656 1018.558594 C 323.957031 1023.089844 322.726562 1025.890625 319.488281 1026.601562 L 315.3125 1027.511719 L 318.6875 1030.128906 C 319.601562 1030.839844 320.441406 1031.660156 321.324219 1032.519531 C 321.640625 1032.820312 321.964844 1033.128906 322.289062 1033.441406 L 322.332031 1034.121094 C 322.53125 1037.46875 320.511719 1039.890625 318.171875 1042.699219 C 316.765625 1044.390625 315.316406 1046.128906 314.238281 1048.21875 L 313.453125 1049.738281 L 314.839844 1050.75 C 315.527344 1051.25 316.160156 1051.871094 316.832031 1052.519531 C 317.230469 1052.910156 317.640625 1053.300781 318.074219 1053.691406 C 317.035156 1056.539062 315.859375 1059.378906 314.714844 1062.148438 C 311.054688 1070.988281 307.273438 1080.140625 307.566406 1090.328125 L 307.625 1092.300781 L 309.59375 1092.28125 C 317.640625 1092.140625 321.933594 1096.671875 326.921875 1101.878906 C 330.84375 1105.988281 334.898438 1110.230469 341.085938 1112.390625 C 349.265625 1119.949219 353.636719 1126.980469 353.730469 1132.761719 C 353.785156 1136.148438 352.429688 1139.148438 349.578125 1141.921875 L 349.101562 1142.390625 L 349 1143.050781 C 348.523438 1146.128906 348.046875 1149.128906 347.570312 1152.128906 C 347.007812 1155.671875 346.445312 1159.210938 345.890625 1162.828125 C 341.597656 1166.199219 340.429688 1170.398438 340.097656 1174.609375 C 337.992188 1174.929688 335.835938 1175.300781 333.734375 1175.671875 C 331.105469 1176.121094 328.386719 1176.589844 325.828125 1176.949219 L 323.378906 1177.300781 L 324.230469 1179.621094 C 326.078125 1184.640625 323.542969 1187.828125 319.25 1192.609375 C 318.761719 1193.160156 318.273438 1193.699219 317.785156 1194.261719 L 316.992188 1195.171875 L 317.429688 1196.300781 C 319.871094 1202.578125 317.515625 1207.820312 310.429688 1211.890625 C 308.511719 1209.621094 305.519531 1208.199219 302.316406 1208.238281 C 299.328125 1208.269531 296.773438 1209.609375 295.300781 1211.871094 C 294.027344 1212.148438 292.507812 1212.230469 291.023438 1212.308594 C 286.652344 1212.539062 280.664062 1212.871094 280.050781 1219.460938 L 279.867188 1221.410156 L 281.816406 1221.628906 C 289.527344 1222.5 292.828125 1228.980469 296.320312 1235.828125 C 299.578125 1242.230469 302.945312 1248.828125 310.15625 1250.519531 C 314.199219 1254.351562 316.417969 1259.601562 318.566406 1264.691406 C 322.078125 1273 325.703125 1281.589844 337.097656 1283.441406 C 337.320312 1284.570312 337.53125 1285.71875 337.746094 1286.878906 C 339.835938 1298.140625 342.195312 1310.878906 356.140625 1314.390625 C 360.171875 1319.621094 364.949219 1324.660156 372.253906 1326.96875 C 375.773438 1333.28125 381.480469 1334.160156 387.503906 1335.101562 L 388.109375 1335.191406 C 388.734375 1335.75 389.347656 1336.308594 389.960938 1336.859375 C 399.523438 1345.519531 408.570312 1353.71875 422.671875 1350.558594 C 426.511719 1357.089844 432.808594 1362.089844 439.789062 1364.089844 C 445.578125 1365.738281 451.511719 1365.261719 456.699219 1362.738281 C 463.636719 1373.800781 469.238281 1374.121094 475.289062 1373.390625 C 478.820312 1372.960938 480.953125 1372.699219 483.644531 1377.511719 L 483.996094 1378.140625 C 483.683594 1380.78125 483.796875 1384.429688 487.46875 1387.140625 C 488.652344 1394.941406 488.453125 1402.988281 488.257812 1410.789062 C 488.210938 1412.808594 488.160156 1414.828125 488.132812 1416.851562 L 488.117188 1417.78125 L 488.824219 1418.390625 C 496.734375 1425.210938 498.1875 1434.820312 499.726562 1444.988281 C 499.855469 1445.828125 499.980469 1446.671875 500.113281 1447.511719 L 500.347656 1449.019531 L 501.871094 1449.191406 C 511.992188 1450.289062 514.410156 1466.808594 515.851562 1476.679688 L 516.152344 1478.710938 L 516.363281 1479.050781 C 517.457031 1480.828125 518.765625 1482.601562 520.03125 1484.308594 C 523.78125 1489.371094 527.320312 1494.148438 526.207031 1499.730469 L 525.828125 1501.628906 L 527.71875 1502.070312 C 532.996094 1503.28125 538.707031 1504.519531 544.269531 1505.730469 C 545.296875 1508.03125 546.398438 1510.261719 547.472656 1512.421875 C 550.730469 1518.988281 553.8125 1525.199219 554.105469 1532.261719 C 552.367188 1535.039062 549.972656 1537.78125 547.441406 1540.671875 C 541.914062 1546.988281 535.71875 1554.070312 536.484375 1562.699219 C 532.40625 1562.511719 529.441406 1563.410156 527.46875 1565.410156 C 523.671875 1569.261719 524.671875 1575.851562 525.730469 1582.828125 C 526.394531 1587.21875 527.082031 1591.75 526.445312 1595.25 L 526.195312 1596.601562 L 527.378906 1597.320312 C 531.945312 1600.078125 533.515625 1604.269531 535.039062 1609.46875 C 535.304688 1613.269531 534.246094 1615.671875 533.21875 1617.988281 C 531.476562 1621.921875 529.824219 1625.640625 535.308594 1633.019531 C 535.574219 1635.140625 534.613281 1637.558594 533.601562 1640.109375 C 531.917969 1644.359375 529.640625 1650.101562 535.292969 1654.371094 C 535.308594 1660.871094 537.128906 1663.929688 538.355469 1665.980469 C 539.90625 1668.589844 540.550781 1669.671875 531.707031 1680.929688 L 530.75 1682.140625 L 531.6875 1683.371094 C 536.351562 1689.5 536.5625 1695.488281 536.808594 1702.421875 C 536.921875 1705.730469 537.042969 1709.140625 537.683594 1712.699219 C 533.378906 1713.511719 530.128906 1715.898438 527.566406 1720.101562 L 526.253906 1722.25 L 530.210938 1723.550781 C 540.824219 1727.039062 553.953125 1731.359375 564.675781 1727.519531 C 576.25 1734.949219 588.773438 1738.628906 602.929688 1738.628906 C 612.332031 1738.628906 622.449219 1737 633.484375 1733.78125 L 634.035156 1733.621094 L 634.417969 1733.191406 C 642.753906 1723.828125 642.863281 1720.570312 642.355469 1716.019531 C 642.121094 1713.921875 641.878906 1711.75 643.039062 1707.859375 C 650.828125 1705.910156 656.023438 1701.699219 661.203125 1695.988281 C 673.664062 1694.96875 675.398438 1698.890625 679.886719 1709.058594 C 680.558594 1710.578125 681.28125 1712.21875 682.097656 1713.960938 L 683 1715.890625 L 684.871094 1714.871094 C 688.410156 1712.921875 691.582031 1709.769531 694.648438 1706.71875 C 700.226562 1701.179688 705.492188 1695.949219 712.386719 1698 L 713.28125 1698.261719 L 714.0625 1697.738281 C 718.683594 1694.671875 724.0625 1695.730469 730.289062 1696.949219 C 736.855469 1698.238281 744.246094 1699.699219 752.351562 1696.628906 C 758.398438 1704.148438 764.394531 1706.46875 772.511719 1704.421875 C 779.496094 1712.878906 789.292969 1712.390625 798.886719 1710.539062 L 800.542969 1710.21875 L 800.507812 1708.539062 C 800.410156 1703.628906 803.136719 1698.601562 806.992188 1696.578125 C 808.988281 1695.539062 812.136719 1694.859375 815.832031 1697.53125 L 816.429688 1697.960938 L 817.167969 1697.910156 C 818.355469 1697.808594 819.597656 1697.679688 820.882812 1697.550781 C 828.921875 1696.710938 838.035156 1695.761719 842.933594 1702.019531 L 844.296875 1703.761719 L 845.890625 1702.238281 C 851.515625 1696.859375 853.785156 1692.28125 855.609375 1688.609375 C 858.65625 1682.460938 859.914062 1679.921875 875.835938 1680.800781 L 877.226562 1680.878906 L 877.78125 1679.601562 C 879.777344 1675.019531 882.859375 1674.78125 887.71875 1674.761719 C 891.035156 1674.75 894.796875 1674.738281 897.511719 1671.980469 C 899.5625 1669.890625 900.671875 1666.601562 900.933594 1661.75 C 904.757812 1664.261719 906.628906 1668.941406 908.59375 1673.839844 L 909.21875 1675.398438 L 909.53125 1675.691406 C 920.8125 1686.429688 928.414062 1678.980469 935.121094 1672.398438 C 936.140625 1671.398438 937.183594 1670.378906 938.253906 1669.390625 C 940.085938 1673.21875 942.839844 1674.671875 945.015625 1675.179688 C 950.875 1676.578125 957.636719 1672.589844 961.738281 1668.019531 L 962.8125 1666.828125 L 961.878906 1665.519531 C 956.734375 1658.320312 956.972656 1650.238281 957.226562 1641.699219 C 957.273438 1640.101562 957.320312 1638.488281 957.332031 1636.878906 L 957.335938 1636.660156 L 957.289062 1636.449219 C 957.179688 1635.929688 957.09375 1635.410156 957.019531 1634.898438 C 959.46875 1632.839844 960.691406 1630.828125 961.695312 1629.191406 C 963.128906 1626.820312 964.210938 1625.039062 968.742188 1623.640625 C 970.210938 1626.789062 973.597656 1627.140625 975.96875 1627.378906 C 979.113281 1627.710938 979.9375 1628 980.136719 1629.898438 L 980.347656 1631.898438 L 989.773438 1630.828125 C 990.601562 1633.878906 993.113281 1635.589844 995.203125 1637.011719 L 995.3125 1637.089844 L 995.277344 1637.300781 C 995.226562 1637.601562 995.15625 1638.019531 995.089844 1638.171875 L 994.085938 1640.328125 L 996.382812 1640.941406 C 999.910156 1641.890625 1002.109375 1641.851562 1003.730469 1640.800781 C 1005.691406 1639.539062 1006.070312 1637.25 1006.46875 1634.828125 C 1006.988281 1631.75 1007.621094 1627.960938 1011.300781 1624.109375 C 1017.378906 1626.480469 1021.261719 1621.628906 1024.148438 1618.019531 C 1026.101562 1615.601562 1027.941406 1613.300781 1029.949219 1613.078125 C 1030.800781 1612.988281 1031.761719 1613.269531 1032.839844 1613.929688 C 1030.859375 1619.488281 1036.011719 1623.039062 1039.851562 1625.710938 C 1041.351562 1626.738281 1042.878906 1627.800781 1044.011719 1628.898438 C 1042.039062 1634.300781 1043.949219 1639 1045.648438 1643.179688 L 1046.558594 1645.398438 L 1048.578125 1644.109375 C 1057.300781 1638.550781 1062.621094 1635.679688 1070.519531 1641.53125 L 1072.410156 1642.921875 L 1073.488281 1640.839844 C 1076.089844 1635.851562 1080.539062 1630.789062 1084.019531 1630.789062 C 1085.691406 1630.789062 1087.230469 1632.101562 1088.578125 1634.679688 L 1089.121094 1635.71875 L 1090.289062 1635.761719 C 1090.871094 1635.769531 1091.441406 1635.789062 1092.011719 1635.800781 C 1096.441406 1635.878906 1099.941406 1635.949219 1102.628906 1639.160156 L 1103.558594 1640.28125 L 1104.921875 1639.730469 C 1109.628906 1637.820312 1110.171875 1633.828125 1110.609375 1630.628906 C 1111.019531 1627.648438 1111.390625 1625.699219 1113.5 1624.359375 C 1115.96875 1623.941406 1119.039062 1622.371094 1122.289062 1620.730469 C 1125.929688 1618.878906 1131.429688 1616.078125 1133.109375 1617.128906 C 1133.640625 1617.460938 1133.929688 1618.601562 1133.898438 1620.238281 L 1133.828125 1623.511719 L 1136.78125 1622.070312 C 1138.171875 1621.390625 1139.011719 1621.671875 1140.761719 1623.328125 C 1137.660156 1628.289062 1140.671875 1633.199219 1143.128906 1637.21875 C 1143.890625 1638.480469 1144.621094 1639.671875 1145.171875 1640.820312 C 1143.441406 1647.019531 1145.699219 1652.441406 1147.898438 1657.691406 C 1148.550781 1659.261719 1149.230469 1660.878906 1149.78125 1662.480469 L 1150.101562 1663.421875 L 1151.039062 1663.730469 C 1157.601562 1665.929688 1158.429688 1670.371094 1159.480469 1675.988281 C 1160.269531 1680.230469 1161.171875 1685.03125 1164.808594 1689.179688 L 1165.519531 1689.988281 L 1166.589844 1689.839844 C 1168.539062 1689.570312 1170.820312 1688.898438 1173.238281 1688.199219 C 1176.679688 1687.199219 1182.441406 1685.519531 1183.628906 1686.808594 C 1183.800781 1686.980469 1184.539062 1688.089844 1182.898438 1692.511719 L 1180.621094 1698.628906 L 1185.941406 1694.828125 C 1190.761719 1691.390625 1195.03125 1692.648438 1200.429688 1694.238281 C 1203.339844 1695.101562 1206.578125 1696.050781 1210.128906 1696.21875 C 1214.191406 1712.578125 1226.050781 1721.738281 1238.578125 1731.410156 L 1240.378906 1732.808594 L 1241.578125 1732 C 1250.398438 1726.039062 1249.738281 1712.988281 1248.410156 1705.230469 C 1267.320312 1710.261719 1268.660156 1710.398438 1271.609375 1706.921875 C 1272.75 1705.578125 1274.429688 1703.601562 1281.300781 1701.441406 C 1292.539062 1715.828125 1309.46875 1718.878906 1325.851562 1721.828125 C 1328.839844 1722.378906 1331.921875 1722.929688 1334.898438 1723.550781 C 1339.089844 1730.269531 1344.710938 1737.820312 1351.601562 1738.980469 C 1354.199219 1739.421875 1356.730469 1738.910156 1359.140625 1737.460938 C 1364.589844 1745.039062 1371.398438 1748.160156 1378.148438 1750.140625 L 1377.941406 1750.859375 L 1379.859375 1751.421875 C 1382.460938 1752.171875 1383.089844 1753.628906 1383.550781 1757.339844 L 1383.710938 1758.671875 L 1384.988281 1759.03125 C 1390.988281 1760.699219 1395.171875 1763.21875 1398.46875 1767.160156 C 1400.808594 1783.519531 1404.039062 1784.929688 1411.050781 1786.519531 C 1414.230469 1787.238281 1418.179688 1788.128906 1423.480469 1791.621094 L 1425.25 1792.789062 L 1426.308594 1790.960938 C 1429.269531 1785.851562 1432.839844 1786.320312 1439.410156 1787.660156 C 1440.648438 1787.910156 1441.941406 1788.171875 1443.261719 1788.378906 L 1444.03125 1788.5 L 1444.679688 1788.058594 C 1446.328125 1786.960938 1447.859375 1785.589844 1449.351562 1784.261719 C 1453.769531 1780.300781 1456.691406 1777.988281 1460.828125 1780.210938 L 1461.570312 1780.601562 L 1462.378906 1780.351562 C 1464.03125 1779.820312 1465.648438 1779.089844 1467.21875 1778.390625 C 1470.898438 1776.738281 1474.378906 1775.179688 1477.808594 1776.359375 L 1479.550781 1776.960938 L 1480.289062 1775.261719 C 1482.550781 1770.070312 1487.339844 1767.679688 1490.960938 1766.601562 C 1499.128906 1764.148438 1510.058594 1765.648438 1516.96875 1770.148438 L 1519.429688 1771.75 L 1520.019531 1768.878906 C 1522.089844 1758.890625 1524.511719 1753.640625 1527.890625 1751.859375 C 1532.101562 1749.640625 1539.210938 1752.308594 1548.800781 1756.320312 L 1549.621094 1756.660156 L 1550.421875 1756.28125 C 1564.191406 1749.789062 1575.53125 1751.871094 1584.128906 1762.441406 L 1586.371094 1765.191406 L 1587.570312 1761.851562 C 1588.351562 1759.660156 1589.261719 1757.320312 1590.140625 1755.058594 C 1590.769531 1753.421875 1591.421875 1751.75 1592.03125 1750.109375 C 1596.949219 1751.429688 1600.519531 1749.75 1603.449219 1748.371094 C 1606.398438 1746.980469 1608.738281 1745.878906 1612.230469 1747.371094 L 1614.21875 1748.210938 L 1614.910156 1746.171875 C 1616.078125 1742.699219 1618.480469 1741.878906 1622.289062 1740.828125 C 1625.261719 1740.011719 1628.820312 1739.039062 1630.949219 1735.628906 C 1631.359375 1736.019531 1631.769531 1736.421875 1632.191406 1736.839844 C 1635.941406 1740.511719 1640.128906 1744.589844 1645.960938 1744.261719 C 1645.320312 1749.738281 1647.378906 1752.390625 1649.390625 1753.660156 C 1655 1757.21875 1665.691406 1753.351562 1672.398438 1748.800781 L 1672.578125 1748.828125 C 1675.960938 1749.378906 1679.03125 1749.660156 1681.800781 1749.660156 C 1687.550781 1749.660156 1692.019531 1748.46875 1695.351562 1746.070312 C 1698.429688 1743.839844 1700.429688 1740.621094 1701.300781 1736.488281 C 1708.859375 1732.949219 1716.761719 1733.859375 1725.121094 1734.828125 C 1726.640625 1735.011719 1728.171875 1735.179688 1729.710938 1735.328125 L 1731.148438 1735.46875 L 1731.730469 1734.148438 C 1733.621094 1729.890625 1736.488281 1729.890625 1741.808594 1730.269531 C 1743.289062 1730.378906 1744.839844 1730.480469 1746.398438 1730.441406 L 1748.308594 1730.378906 L 1748.339844 1728.46875 C 1748.429688 1723.070312 1750.660156 1720.839844 1753.480469 1718.019531 C 1755.511719 1715.988281 1757.800781 1713.699219 1759.421875 1710.019531 L 1759.519531 1709.710938 C 1760.578125 1705.5 1760.761719 1701.78125 1760.910156 1698.789062 C 1761.289062 1691.121094 1761.410156 1688.53125 1774.398438 1688.359375 L 1777.839844 1688.320312 L 1776.101562 1685.351562 C 1774.148438 1682.039062 1772.050781 1678.890625 1770.011719 1675.851562 C 1768.800781 1674.050781 1767.660156 1672.339844 1766.550781 1670.609375 L 1766.140625 1669.96875 L 1765.410156 1669.761719 C 1761.148438 1668.550781 1759.339844 1666.660156 1758.789062 1662.789062 C 1758.71875 1660.75 1759.558594 1660.261719 1762.179688 1659.058594 C 1762.941406 1658.710938 1763.730469 1658.351562 1764.550781 1657.878906 L 1765.308594 1657.441406 L 1765.5 1656.578125 C 1766.730469 1651.140625 1768.039062 1648.339844 1769.089844 1646.101562 C 1771.480469 1640.96875 1772.140625 1638.488281 1768.738281 1624.550781 L 1768.410156 1623.171875 L 1766.988281 1623.03125 C 1764.988281 1622.839844 1763.089844 1622.648438 1761.191406 1622.460938 C 1760.019531 1622.339844 1758.839844 1622.230469 1757.648438 1622.109375 C 1758.03125 1618.480469 1758.410156 1614.910156 1758.789062 1611.339844 C 1759.25 1606.980469 1759.710938 1602.628906 1760.179688 1598.171875 L 1760.320312 1596.828125 L 1759.121094 1596.199219 C 1754.308594 1593.660156 1753.660156 1590.03125 1754.101562 1583.789062 L 1754.28125 1581.25 L 1751.480469 1581.730469 C 1748.558594 1582.230469 1744.679688 1582.890625 1743.089844 1586.558594 C 1739.140625 1586.558594 1738.101562 1584.621094 1736.589844 1581.761719 C 1735.148438 1579.019531 1733.378906 1575.671875 1728.660156 1574.5 C 1725.730469 1563.300781 1724.328125 1549.078125 1729.671875 1544.140625 C 1732.21875 1541.78125 1736.421875 1541.628906 1742.140625 1543.710938 L 1744.199219 1544.460938 L 1744.761719 1542.339844 C 1746.851562 1534.398438 1753.609375 1531.128906 1760.769531 1527.660156 C 1762.390625 1526.871094 1764.058594 1526.070312 1765.691406 1525.199219 C 1768.921875 1529.441406 1774.339844 1532.519531 1779.46875 1532.910156 C 1782.96875 1533.179688 1786.128906 1532.210938 1788.589844 1530.171875 C 1802.28125 1546.070312 1810.339844 1545.148438 1820.449219 1543.988281 C 1825.191406 1543.441406 1830.550781 1542.828125 1837.390625 1544 L 1842.5 1544.871094 L 1839.300781 1540.789062 C 1838.019531 1539.148438 1836.539062 1537.628906 1835.109375 1536.148438 C 1830.96875 1531.859375 1827.371094 1528.140625 1828.519531 1522.558594 C 1831.179688 1518.261719 1832.941406 1512.910156 1834.640625 1507.71875 C 1837.878906 1497.851562 1840.941406 1488.511719 1849.621094 1486.179688 C 1868.75 1485.671875 1888.199219 1485.519531 1907.011719 1485.371094 L 1909.929688 1485.351562 L 1910.441406 1484.121094 C 1910.871094 1483.058594 1911.269531 1481.988281 1911.671875 1480.929688 C 1913.53125 1475.96875 1915.140625 1471.691406 1919.738281 1469.101562 L 1920.828125 1468.488281 L 1920.761719 1467.238281 C 1920.488281 1462.851562 1921.421875 1461.441406 1925.5 1460.058594 L 1928.410156 1459.070312 L 1926.328125 1456.808594 C 1921.75 1451.820312 1922.839844 1449.980469 1924.480469 1447.210938 C 1927.191406 1442.628906 1928.691406 1438.078125 1919.660156 1428.960938 C 1922.101562 1426.46875 1924.949219 1424.148438 1927.71875 1421.898438 C 1933.988281 1416.808594 1940.449219 1411.558594 1943.25 1403.839844 C 1951.359375 1408.480469 1960.011719 1408.808594 1968.398438 1409.128906 C 1976.300781 1409.441406 1983.761719 1409.71875 1990.929688 1413.300781 L 1993.109375 1414.390625 L 1993.75 1412.03125 C 1994.980469 1407.480469 1998.671875 1404.308594 2002.578125 1400.949219 C 2003.71875 1399.96875 2004.890625 1398.960938 2006 1397.921875 C 2011.640625 1403.199219 2018.199219 1406.308594 2026.480469 1407.628906 L 2028.230469 1407.921875 L 2028.71875 1406.210938 C 2031.308594 1397.070312 2039.25 1396.410156 2051.238281 1398.289062 L 2052.339844 1398.46875 L 2053.070312 1397.621094 C 2058.859375 1390.851562 2064.96875 1390.800781 2072.949219 1392.898438 L 2074.289062 1393.25 L 2075.089844 1392.121094 C 2075.929688 1390.921875 2076.808594 1389.761719 2077.660156 1388.648438 C 2081.558594 1383.5 2085.28125 1378.601562 2084.050781 1371.601562 C 2089.230469 1371.460938 2093.859375 1369.191406 2097.03125 1365.140625 C 2100.628906 1360.558594 2101.800781 1354.308594 2100.261719 1348.421875 C 2101.570312 1347.859375 2102.390625 1347.140625 2102.910156 1346.398438 C 2103.421875 1347.171875 2103.890625 1347.949219 2104.289062 1348.761719 L 2105.289062 1350.75 L 2107.160156 1349.539062 C 2118.871094 1342 2133.480469 1345.179688 2141.148438 1356.949219 L 2142.25 1358.640625 L 2143.929688 1357.53125 C 2147 1355.5 2149.511719 1356.171875 2152.421875 1356.949219 C 2154.988281 1357.640625 2157.839844 1358.410156 2160.898438 1357.058594 C 2162.621094 1360.128906 2165.761719 1360.78125 2168.589844 1361.371094 L 2171.960938 1362.089844 L 2171.71875 1359.390625 C 2171.550781 1357.53125 2171.390625 1355.78125 2171.21875 1354.03125 C 2171.121094 1352.96875 2171.019531 1351.921875 2170.921875 1350.828125 C 2175.101562 1349.53125 2177.039062 1346.429688 2178.78125 1343.648438 C 2180.359375 1341.128906 2181.738281 1338.921875 2184.699219 1337.929688 C 2188.109375 1341.160156 2192.171875 1340 2195.570312 1338.878906 C 2197.269531 1342.21875 2201.128906 1342.03125 2203.828125 1341.898438 C 2203.921875 1341.898438 2204.019531 1341.890625 2204.109375 1341.890625 C 2205.578125 1345.328125 2207.859375 1346.21875 2209.578125 1346.878906 C 2211.121094 1347.480469 2212.128906 1347.878906 2212.949219 1349.96875 L 2213.648438 1351.75 L 2215.449219 1351.128906 C 2215.859375 1350.988281 2216.320312 1350.910156 2216.800781 1350.820312 C 2218.871094 1360.550781 2224.839844 1362.859375 2233.171875 1362.898438 C 2234.578125 1365.738281 2235.511719 1369.25 2236.398438 1372.671875 C 2238.398438 1380.289062 2240.648438 1388.878906 2249.058594 1390.859375 C 2250.429688 1395.308594 2253.101562 1397.128906 2257.710938 1396.730469 C 2258.109375 1397.53125 2258.488281 1398.371094 2258.859375 1399.191406 C 2260.941406 1403.789062 2263.480469 1409.429688 2270.511719 1408.558594 C 2271.941406 1411.988281 2275.789062 1414.269531 2279.460938 1415.089844 C 2283.199219 1415.929688 2286.601562 1415.359375 2288.949219 1413.609375 C 2290.160156 1415.78125 2291.289062 1418.371094 2292.460938 1421.070312 C 2296.109375 1429.46875 2300.589844 1439.789062 2310.449219 1439.789062 C 2311.210938 1439.789062 2311.988281 1439.71875 2312.808594 1439.601562 L 2316.671875 1439 L 2313.929688 1436.21875 C 2313.121094 1435.390625 2312.429688 1434.570312 2311.78125 1433.71875 C 2311.898438 1433.660156 2312.019531 1433.609375 2312.140625 1433.550781 C 2313.078125 1433.128906 2314.011719 1432.710938 2314.839844 1432.300781 L 2317.910156 1430.75 L 2317.140625 1430.238281 L 2320.488281 1425.730469 C 2321.5 1424.371094 2322.640625 1422.96875 2323.738281 1421.609375 C 2323.898438 1421.421875 2324.058594 1421.230469 2324.210938 1421.03125 L 2324.578125 1422.730469 L 2326.421875 1422.480469 C 2329.578125 1422.039062 2331.488281 1420.128906 2333.171875 1418.449219 C 2334.019531 1417.589844 2334.820312 1416.789062 2335.800781 1416.109375 L 2337.191406 1415.148438 L 2336.820312 1414.359375 L 2337.101562 1414.5 L 2338.109375 1413.511719 L 2338.148438 1413.46875 L 2339.101562 1415.488281 L 2341.058594 1414.039062 C 2341.828125 1413.46875 2342.730469 1412.871094 2343.609375 1412.289062 C 2343.78125 1412.179688 2343.949219 1412.070312 2344.121094 1411.949219 C 2344.179688 1412.128906 2344.238281 1412.328125 2344.308594 1412.53125 L 2345.078125 1415.101562 L 2347.320312 1413.621094 C 2347.910156 1413.230469 2348.578125 1412.761719 2349.261719 1412.28125 C 2349.320312 1412.460938 2349.378906 1412.648438 2349.441406 1412.851562 L 2350.828125 1417.441406 L 2353.109375 1413.21875 C 2356.308594 1407.308594 2358.140625 1405.03125 2363.480469 1406.179688 L 2368.199219 1407.210938 L 2365.691406 1403.308594 C 2368.949219 1403.828125 2372.058594 1404.351562 2375.101562 1404.859375 L 2376.539062 1405.101562 L 2373.910156 1407.660156 L 2386.550781 1407.480469 C 2386.828125 1408.199219 2387.160156 1408.859375 2387.488281 1409.511719 C 2387.671875 1409.859375 2387.851562 1410.21875 2388.03125 1410.601562 L 2389.5 1413.71875 L 2390.671875 1412.050781 L 2389.03125 1415.820312 L 2393.011719 1414.789062 C 2393.691406 1414.609375 2394.410156 1414.511719 2395.171875 1414.410156 C 2395.441406 1414.371094 2395.71875 1414.328125 2396.011719 1414.28125 C 2396.160156 1414.738281 2396.308594 1415.238281 2396.449219 1415.699219 L 2397.398438 1418.851562 L 2399.75 1416.550781 C 2400.378906 1415.949219 2401 1415.460938 2401.628906 1415 C 2402.019531 1415.460938 2402.410156 1415.898438 2402.789062 1416.339844 C 2403.550781 1417.21875 2404.269531 1418.039062 2405 1418.96875 L 2408.371094 1423.308594 L 2408.691406 1414.75 C 2409.128906 1414.921875 2409.570312 1415.078125 2410 1415.238281 C 2411.289062 1415.71875 2412.5 1416.171875 2413.828125 1416.71875 L 2416.519531 1417.839844 L 2416.609375 1414.539062 C 2416.699219 1411.429688 2416.789062 1408.199219 2414.691406 1406.21875 C 2413.980469 1405.539062 2413.089844 1405.089844 2412.03125 1404.851562 C 2412.441406 1403.800781 2412.898438 1402.851562 2413.289062 1402.128906 L 2414.308594 1400.230469 L 2412.339844 1399.351562 C 2410.871094 1398.710938 2410.738281 1398.03125 2410.691406 1397.808594 C 2410.5 1396.859375 2411 1394.96875 2414.199219 1391.289062 C 2414.53125 1391.550781 2414.871094 1391.820312 2415.210938 1392.078125 C 2416.101562 1392.769531 2416.980469 1393.449219 2417.769531 1394.039062 L 2419.789062 1395.550781 L 2420.800781 1393.238281 C 2420.96875 1392.851562 2421.140625 1392.441406 2421.308594 1392.019531 C 2421.328125 1392.121094 2421.351562 1392.21875 2421.359375 1392.308594 L 2421.851562 1395.25 L 2424.378906 1393.691406 C 2426.539062 1392.359375 2427.339844 1390.640625 2427.550781 1388.910156 C 2430.449219 1390.878906 2433.980469 1392.550781 2438.308594 1392.890625 C 2438.460938 1397.480469 2441.078125 1400.441406 2443.460938 1402.570312 L 2444.851562 1403.808594 L 2446.191406 1402.511719 C 2447.089844 1401.628906 2447.871094 1400.679688 2448.621094 1399.75 C 2448.878906 1399.429688 2449.140625 1399.121094 2449.390625 1398.808594 L 2452.789062 1402.25 L 2453.890625 1399.308594 C 2453.949219 1399.148438 2454.019531 1398.980469 2454.089844 1398.800781 C 2454.308594 1399.078125 2454.511719 1399.351562 2454.691406 1399.628906 L 2455.589844 1401.019531 L 2457.121094 1400.398438 C 2458.148438 1399.980469 2459.070312 1399.570312 2460 1399.160156 C 2460.371094 1398.988281 2460.738281 1398.820312 2461.121094 1398.660156 C 2461.339844 1399.03125 2461.539062 1399.378906 2461.679688 1399.679688 L 2462.878906 1402.210938 L 2470.769531 1394.558594 C 2477.160156 1398.238281 2484.191406 1401.058594 2493.050781 1396.640625 L 2494.101562 1396.121094 L 2494.148438 1394.941406 C 2494.441406 1388 2490.910156 1382.988281 2487.488281 1378.128906 C 2486.730469 1377.050781 2485.949219 1375.941406 2485.21875 1374.820312 C 2486.609375 1370.359375 2482.96875 1366.519531 2480.011719 1363.390625 C 2478.789062 1362.101562 2477.53125 1360.769531 2476.710938 1359.519531 C 2476.921875 1359.140625 2477.101562 1358.75 2477.269531 1358.371094 C 2477.570312 1357.738281 2477.839844 1357.148438 2478.160156 1356.699219 L 2479.429688 1354.890625 L 2477.5 1353.808594 C 2475.28125 1352.558594 2472.898438 1351.609375 2470.589844 1350.679688 C 2470.03125 1350.460938 2469.480469 1350.230469 2468.941406 1350.011719 C 2466.328125 1335.949219 2463.621094 1334.089844 2457.558594 1332.890625 C 2455.261719 1332.429688 2452.671875 1331.910156 2449.261719 1329.539062 C 2449.949219 1320.730469 2444.710938 1316.53125 2440.460938 1313.128906 C 2437.238281 1310.539062 2434.449219 1308.308594 2434 1304.53125 L 2433.699219 1302.078125 L 2431.371094 1302.871094 C 2430.96875 1303.011719 2430.609375 1303.140625 2430.28125 1303.28125 C 2429.609375 1301.910156 2428.671875 1300.738281 2427.089844 1300.128906 C 2427.359375 1299.691406 2427.621094 1299.28125 2427.878906 1298.910156 L 2429.300781 1296.859375 L 2426.988281 1295.921875 C 2422.859375 1294.230469 2421.171875 1291.878906 2420.941406 1287.539062 L 2420.828125 1285.328125 L 2418.648438 1285.660156 C 2416.570312 1285.980469 2415.898438 1285.089844 2414.359375 1282.261719 C 2413.808594 1281.238281 2413.179688 1280.078125 2412.351562 1279.03125 L 2412.269531 1278.929688 C 2410.410156 1276.851562 2407.671875 1275.429688 2405.03125 1274.058594 C 2400.828125 1271.878906 2398.070312 1270.289062 2397.878906 1267.558594 C 2398.089844 1267.511719 2398.300781 1267.460938 2398.421875 1267.460938 L 2401.828125 1267.429688 L 2400.140625 1264.46875 C 2397.679688 1260.179688 2393.769531 1258.910156 2389.980469 1257.691406 C 2389.398438 1257.5 2388.800781 1257.308594 2388.199219 1257.101562 L 2388.199219 1256.960938 C 2388.101562 1252.488281 2388.351562 1251.519531 2391.261719 1251.421875 L 2395.621094 1251.269531 L 2392.671875 1248.058594 C 2390.21875 1245.398438 2389.109375 1242.699219 2389.640625 1240.660156 C 2390.238281 1238.351562 2392.839844 1237.039062 2394.921875 1236.359375 L 2397.089844 1235.640625 L 2396.089844 1233.578125 C 2395.988281 1233.371094 2395.878906 1233.121094 2395.78125 1232.871094 L 2406.660156 1228.78125 L 2398.25 1221.621094 C 2400.378906 1219.921875 2401.011719 1217.191406 2401.539062 1214.871094 C 2401.628906 1214.46875 2401.71875 1214.070312 2401.820312 1213.679688 L 2402.558594 1210.730469 L 2399.558594 1211.21875 C 2398.578125 1211.378906 2397.359375 1211.371094 2396.070312 1211.359375 C 2392.648438 1211.328125 2387.671875 1211.308594 2386.210938 1215.699219 C 2381.898438 1215.558594 2379.839844 1211.710938 2377.140625 1205.660156 C 2375.96875 1203.058594 2374.769531 1200.371094 2373.160156 1198.21875 C 2372.128906 1195.910156 2372.898438 1195.160156 2376.621094 1192.898438 L 2380.550781 1190.5 L 2376.640625 1189.078125 C 2373.21875 1187.828125 2371.980469 1186.308594 2372.019531 1182.988281 C 2376.058594 1182.441406 2379.570312 1180.71875 2380.191406 1174.628906 L 2380.421875 1172.410156 L 2378.191406 1172.429688 C 2376.539062 1172.441406 2374.878906 1172.550781 2373.28125 1172.660156 C 2372.269531 1172.730469 2371.289062 1172.789062 2370.328125 1172.828125 C 2370.300781 1172.601562 2370.28125 1172.371094 2370.261719 1172.128906 C 2370.160156 1171.191406 2370.070312 1170.21875 2369.851562 1169.300781 L 2369.480469 1167.761719 L 2367.890625 1167.769531 C 2367.789062 1167.769531 2367.621094 1167.75 2367.441406 1167.71875 C 2367.558594 1167.328125 2367.710938 1166.921875 2367.851562 1166.511719 L 2364.269531 1164.78125 C 2362.140625 1168.160156 2358.828125 1172.210938 2355.109375 1172.308594 C 2352.621094 1172.410156 2350.109375 1170.699219 2347.550781 1167.351562 C 2347.949219 1166.539062 2348.308594 1165.769531 2348.660156 1165.019531 C 2349.179688 1163.929688 2349.671875 1162.890625 2350.261719 1161.75 L 2351.199219 1159.929688 L 2349.371094 1159.03125 C 2349.148438 1158.921875 2348.839844 1158.699219 2348.539062 1158.480469 C 2349.070312 1156.878906 2349.410156 1155.300781 2349.738281 1153.769531 L 2350.558594 1149.929688 L 2346.96875 1151.519531 C 2343.558594 1153.039062 2342.140625 1152.28125 2340.078125 1147.828125 L 2336.269531 1148.621094 C 2336.191406 1151.5 2335.558594 1153.328125 2334.539062 1153.660156 C 2332.328125 1154.371094 2326.789062 1150.441406 2323.140625 1145.589844 L 2321.5 1143.421875 L 2319.921875 1145.621094 C 2319.640625 1146 2319.351562 1146.378906 2319.058594 1146.761719 C 2317.628906 1148.628906 2315.800781 1151.019531 2316 1153.921875 C 2311.859375 1153.570312 2307.800781 1151.179688 2304.28125 1148.769531 L 2302.050781 1147.25 L 2301.238281 1149.820312 C 2299.539062 1155.191406 2297.878906 1159.601562 2293.808594 1162.460938 C 2291.839844 1160.140625 2289.851562 1157.738281 2287.921875 1155.398438 C 2285.570312 1152.570312 2283.148438 1149.648438 2280.761719 1146.871094 L 2278.570312 1144.308594 L 2277.371094 1147.460938 C 2277.03125 1148.359375 2276.609375 1149.28125 2276.171875 1150.25 C 2275.730469 1151.210938 2275.261719 1152.238281 2274.859375 1153.320312 C 2274.210938 1152.058594 2273.300781 1150.851562 2272.421875 1149.660156 C 2269.648438 1145.949219 2267.378906 1142.898438 2270.289062 1138.648438 L 2271.210938 1140.519531 L 2273.179688 1138.578125 C 2273.660156 1138.109375 2274.109375 1137.558594 2274.539062 1137.03125 L 2274.691406 1136.851562 L 2277.460938 1138.21875 L 2278.191406 1136.800781 L 2278.300781 1136.890625 C 2278.929688 1137.398438 2279.570312 1137.941406 2280.261719 1138.390625 L 2283.289062 1140.390625 L 2283.359375 1136.75 C 2283.558594 1125.308594 2288.109375 1106.179688 2297.238281 1101.46875 C 2300.988281 1099.53125 2305.191406 1100.210938 2310.070312 1103.558594 L 2311.480469 1104.519531 L 2312.660156 1103.28125 C 2318.171875 1097.449219 2320.460938 1097.921875 2323.351562 1098.511719 C 2325.910156 1099.019531 2329.050781 1099.660156 2333.730469 1096.679688 C 2334.621094 1097.199219 2335.519531 1097.859375 2336.460938 1098.550781 C 2339.578125 1100.839844 2343.109375 1103.429688 2347.480469 1101.671875 L 2349.710938 1100.78125 L 2348.429688 1098.75 C 2341.53125 1087.820312 2338.980469 1070.179688 2347.460938 1058.320312 C 2354.101562 1059.570312 2360.378906 1059.691406 2365.03125 1052.359375 C 2365.710938 1052.660156 2366.378906 1052.929688 2367.039062 1053.199219 C 2368.238281 1053.691406 2369.371094 1054.160156 2370.5 1054.710938 L 2372.820312 1055.859375 L 2373.339844 1053.320312 C 2374.28125 1048.738281 2376.640625 1047.289062 2382.960938 1047.429688 L 2383.101562 1043.429688 C 2379.511719 1043.238281 2376.878906 1041.960938 2375.269531 1039.609375 C 2373.25 1036.671875 2372.980469 1032.070312 2374.53125 1027.300781 C 2378.441406 1019.371094 2400.449219 1022 2418.148438 1024.121094 C 2428.488281 1025.359375 2438.269531 1026.53125 2444.410156 1025.730469 L 2445.699219 1025.558594 L 2446.070312 1024.308594 C 2448.191406 1017.070312 2446.230469 1010.339844 2444.339844 1003.828125 C 2443.761719 1001.839844 2443.160156 999.789062 2442.699219 997.75 C 2448.351562 987.011719 2445.421875 975.921875 2442.578125 965.191406 C 2441.519531 961.140625 2440.429688 956.96875 2439.800781 952.859375 L 2440.019531 952.050781 C 2440.128906 951.609375 2440.25 951.171875 2440.359375 950.730469 C 2441.46875 946.320312 2442.121094 944.359375 2445.75 944.128906 L 2447.570312 944.019531 L 2447.621094 942.199219 C 2447.761719 937.691406 2447.089844 933 2446.441406 928.480469 C 2445.179688 919.671875 2443.988281 911.351562 2448.261719 904.339844 L 2448.648438 903.699219 L 2448.519531 902.960938 C 2447.828125 898.949219 2447.070312 894.910156 2446.320312 890.988281 C 2443.488281 876.058594 2440.808594 861.949219 2441.488281 847.148438 C 2452.179688 834.359375 2455.03125 817.800781 2457.789062 801.769531 C 2459.089844 794.199219 2460.441406 786.371094 2462.609375 779.261719 L 2462.828125 778.511719 L 2462.5 777.808594 C 2460.691406 774.019531 2456.839844 773.808594 2453.75 773.648438 C 2449.980469 773.441406 2448.25 773.210938 2447.839844 770.039062 C 2448.328125 769.601562 2448.75 769.128906 2449.171875 768.660156 L 2452.898438 768.191406 C 2453.941406 757.378906 2457.898438 757.078125 2465.101562 756.53125 C 2476.859375 755.640625 2492.890625 754.421875 2502.558594 707.371094 L 2502.800781 707.558594 L 2503.730469 704.960938 C 2505.570312 699.808594 2507.488281 694.589844 2509.421875 689.359375 C 2511.601562 683.421875 2513.851562 677.28125 2515.96875 671.328125 C 2518.121094 669.910156 2520.21875 668.410156 2522.25 666.949219 C 2532.78125 659.398438 2541.871094 652.871094 2555.050781 659.871094 L 2555.53125 660.128906 L 2556.078125 660.101562 C 2564.429688 659.699219 2572.089844 657.550781 2579.511719 655.46875 C 2588.941406 652.820312 2597.851562 650.320312 2608.058594 651.128906 L 2608.789062 651.351562 C 2619.328125 654.511719 2630.21875 657.78125 2638.128906 665.820312 L 2638.589844 666.289062 L 2639.25 666.398438 C 2649.191406 667.960938 2654.601562 671.769531 2658.539062 679.980469 L 2662.339844 679.039062 C 2661.808594 665.871094 2670.460938 658.519531 2679.609375 650.730469 C 2685.109375 646.058594 2690.800781 641.21875 2694.761719 634.921875 L 2694.910156 634.621094 C 2697.910156 627.398438 2700.78125 621.511719 2703.320312 616.308594 C 2713.691406 595.101562 2718.03125 586.21875 2696.628906 554.480469 "/>
</svg>
