<?xml version="1.0" encoding="UTF-8"?>
<svg xmlns="http://www.w3.org/2000/svg" xmlns:xlink="http://www.w3.org/1999/xlink" width="2400" height="2400" viewBox="0 0 2400 2400">
<defs>
<clipPath id="clip-0">
<path clip-rule="nonzero" d="M 61.726562 0 L 110.742188 0 L 110.742188 2400 L 61.726562 2400 Z M 61.726562 0 "/>
</clipPath>
<linearGradient id="linear-pattern-0" gradientUnits="userSpaceOnUse" x1="0.0740725" y1="0" x2="0.895127" y2="0" gradientTransform="matrix(39.9373, 2923.34, -2923.34, 39.9373, 67.6219, -216.66)">
<stop offset="0" stop-color="rgb(98.429871%, 98.429871%, 98.429871%)" stop-opacity="1"/>
<stop offset="0.5" stop-color="rgb(98.429871%, 98.429871%, 98.429871%)" stop-opacity="1"/>
<stop offset="0.5625" stop-color="rgb(98.429871%, 98.429871%, 98.429871%)" stop-opacity="1"/>
<stop offset="0.59375" stop-color="rgb(98.376465%, 98.376465%, 98.376465%)" stop-opacity="1"/>
<stop offset="0.625" stop-color="rgb(98.179626%, 98.179626%, 98.179626%)" stop-opacity="1"/>
<stop offset="0.75" stop-color="rgb(98.03772%, 98.03772%, 98.03772%)" stop-opacity="1"/>
<stop offset="1" stop-color="rgb(98.03772%, 98.03772%, 98.03772%)" stop-opacity="1"/>
</linearGradient>
<clipPath id="clip-1">
<path clip-rule="nonzero" d="M 167.796875 0 L 216.816406 0 L 216.816406 2400 L 167.796875 2400 Z M 167.796875 0 "/>
</clipPath>
<linearGradient id="linear-pattern-1" gradientUnits="userSpaceOnUse" x1="0.0740725" y1="0" x2="0.895127" y2="0" gradientTransform="matrix(39.9373, 2923.34, -2923.34, 39.9373, 173.695, -216.66)">
<stop offset="0" stop-color="rgb(98.429871%, 98.429871%, 98.429871%)" stop-opacity="1"/>
<stop offset="0.5" stop-color="rgb(98.429871%, 98.429871%, 98.429871%)" stop-opacity="1"/>
<stop offset="0.5625" stop-color="rgb(98.429871%, 98.429871%, 98.429871%)" stop-opacity="1"/>
<stop offset="0.59375" stop-color="rgb(98.376465%, 98.376465%, 98.376465%)" stop-opacity="1"/>
<stop offset="0.625" stop-color="rgb(98.179626%, 98.179626%, 98.179626%)" stop-opacity="1"/>
<stop offset="0.75" stop-color="rgb(98.03772%, 98.03772%, 98.03772%)" stop-opacity="1"/>
<stop offset="1" stop-color="rgb(98.03772%, 98.03772%, 98.03772%)" stop-opacity="1"/>
</linearGradient>
<clipPath id="clip-2">
<path clip-rule="nonzero" d="M 273.871094 0 L 322.890625 0 L 322.890625 2400 L 273.871094 2400 Z M 273.871094 0 "/>
</clipPath>
<linearGradient id="linear-pattern-2" gradientUnits="userSpaceOnUse" x1="0.0740725" y1="0" x2="0.895127" y2="0" gradientTransform="matrix(39.9373, 2923.34, -2923.34, 39.9373, 279.768, -216.66)">
<stop offset="0" stop-color="rgb(98.429871%, 98.429871%, 98.429871%)" stop-opacity="1"/>
<stop offset="0.5" stop-color="rgb(98.429871%, 98.429871%, 98.429871%)" stop-opacity="1"/>
<stop offset="0.5625" stop-color="rgb(98.429871%, 98.429871%, 98.429871%)" stop-opacity="1"/>
<stop offset="0.59375" stop-color="rgb(98.376465%, 98.376465%, 98.376465%)" stop-opacity="1"/>
<stop offset="0.625" stop-color="rgb(98.179626%, 98.179626%, 98.179626%)" stop-opacity="1"/>
<stop offset="0.75" stop-color="rgb(98.03772%, 98.03772%, 98.03772%)" stop-opacity="1"/>
<stop offset="1" stop-color="rgb(98.03772%, 98.03772%, 98.03772%)" stop-opacity="1"/>
</linearGradient>
<clipPath id="clip-3">
<path clip-rule="nonzero" d="M 379.945312 0 L 428.960938 0 L 428.960938 2400 L 379.945312 2400 Z M 379.945312 0 "/>
</clipPath>
<linearGradient id="linear-pattern-3" gradientUnits="userSpaceOnUse" x1="0.0740725" y1="0" x2="0.895127" y2="0" gradientTransform="matrix(39.9373, 2923.34, -2923.34, 39.9373, 385.841, -216.66)">
<stop offset="0" stop-color="rgb(98.429871%, 98.429871%, 98.429871%)" stop-opacity="1"/>
<stop offset="0.5" stop-color="rgb(98.429871%, 98.429871%, 98.429871%)" stop-opacity="1"/>
<stop offset="0.5625" stop-color="rgb(98.429871%, 98.429871%, 98.429871%)" stop-opacity="1"/>
<stop offset="0.59375" stop-color="rgb(98.376465%, 98.376465%, 98.376465%)" stop-opacity="1"/>
<stop offset="0.625" stop-color="rgb(98.179626%, 98.179626%, 98.179626%)" stop-opacity="1"/>
<stop offset="0.75" stop-color="rgb(98.03772%, 98.03772%, 98.03772%)" stop-opacity="1"/>
<stop offset="1" stop-color="rgb(98.03772%, 98.03772%, 98.03772%)" stop-opacity="1"/>
</linearGradient>
<clipPath id="clip-4">
<path clip-rule="nonzero" d="M 486.015625 0 L 535.035156 0 L 535.035156 2400 L 486.015625 2400 Z M 486.015625 0 "/>
</clipPath>
<linearGradient id="linear-pattern-4" gradientUnits="userSpaceOnUse" x1="0.0740725" y1="0" x2="0.895127" y2="0" gradientTransform="matrix(39.9373, 2923.34, -2923.34, 39.9373, 491.914, -216.66)">
<stop offset="0" stop-color="rgb(98.429871%, 98.429871%, 98.429871%)" stop-opacity="1"/>
<stop offset="0.5" stop-color="rgb(98.429871%, 98.429871%, 98.429871%)" stop-opacity="1"/>
<stop offset="0.5625" stop-color="rgb(98.429871%, 98.429871%, 98.429871%)" stop-opacity="1"/>
<stop offset="0.59375" stop-color="rgb(98.376465%, 98.376465%, 98.376465%)" stop-opacity="1"/>
<stop offset="0.625" stop-color="rgb(98.179626%, 98.179626%, 98.179626%)" stop-opacity="1"/>
<stop offset="0.75" stop-color="rgb(98.03772%, 98.03772%, 98.03772%)" stop-opacity="1"/>
<stop offset="1" stop-color="rgb(98.03772%, 98.03772%, 98.03772%)" stop-opacity="1"/>
</linearGradient>
<clipPath id="clip-5">
<path clip-rule="nonzero" d="M 592.089844 0 L 641.109375 0 L 641.109375 2400 L 592.089844 2400 Z M 592.089844 0 "/>
</clipPath>
<linearGradient id="linear-pattern-5" gradientUnits="userSpaceOnUse" x1="0.0740725" y1="0" x2="0.895127" y2="0" gradientTransform="matrix(39.9373, 2923.34, -2923.34, 39.9373, 597.987, -216.66)">
<stop offset="0" stop-color="rgb(98.429871%, 98.429871%, 98.429871%)" stop-opacity="1"/>
<stop offset="0.5" stop-color="rgb(98.429871%, 98.429871%, 98.429871%)" stop-opacity="1"/>
<stop offset="0.5625" stop-color="rgb(98.429871%, 98.429871%, 98.429871%)" stop-opacity="1"/>
<stop offset="0.59375" stop-color="rgb(98.376465%, 98.376465%, 98.376465%)" stop-opacity="1"/>
<stop offset="0.625" stop-color="rgb(98.179626%, 98.179626%, 98.179626%)" stop-opacity="1"/>
<stop offset="0.75" stop-color="rgb(98.03772%, 98.03772%, 98.03772%)" stop-opacity="1"/>
<stop offset="1" stop-color="rgb(98.03772%, 98.03772%, 98.03772%)" stop-opacity="1"/>
</linearGradient>
<clipPath id="clip-6">
<path clip-rule="nonzero" d="M 698.160156 0 L 747.179688 0 L 747.179688 2400 L 698.160156 2400 Z M 698.160156 0 "/>
</clipPath>
<linearGradient id="linear-pattern-6" gradientUnits="userSpaceOnUse" x1="0.0740725" y1="0" x2="0.895127" y2="0" gradientTransform="matrix(39.9373, 2923.34, -2923.34, 39.9373, 704.06, -216.66)">
<stop offset="0" stop-color="rgb(98.429871%, 98.429871%, 98.429871%)" stop-opacity="1"/>
<stop offset="0.5" stop-color="rgb(98.429871%, 98.429871%, 98.429871%)" stop-opacity="1"/>
<stop offset="0.5625" stop-color="rgb(98.429871%, 98.429871%, 98.429871%)" stop-opacity="1"/>
<stop offset="0.59375" stop-color="rgb(98.376465%, 98.376465%, 98.376465%)" stop-opacity="1"/>
<stop offset="0.625" stop-color="rgb(98.179626%, 98.179626%, 98.179626%)" stop-opacity="1"/>
<stop offset="0.75" stop-color="rgb(98.03772%, 98.03772%, 98.03772%)" stop-opacity="1"/>
<stop offset="1" stop-color="rgb(98.03772%, 98.03772%, 98.03772%)" stop-opacity="1"/>
</linearGradient>
<clipPath id="clip-7">
<path clip-rule="nonzero" d="M 804.234375 0 L 853.253906 0 L 853.253906 2400 L 804.234375 2400 Z M 804.234375 0 "/>
</clipPath>
<linearGradient id="linear-pattern-7" gradientUnits="userSpaceOnUse" x1="0.0740725" y1="0" x2="0.895127" y2="0" gradientTransform="matrix(39.9373, 2923.34, -2923.34, 39.9373, 810.133, -216.66)">
<stop offset="0" stop-color="rgb(98.429871%, 98.429871%, 98.429871%)" stop-opacity="1"/>
<stop offset="0.5" stop-color="rgb(98.429871%, 98.429871%, 98.429871%)" stop-opacity="1"/>
<stop offset="0.5625" stop-color="rgb(98.429871%, 98.429871%, 98.429871%)" stop-opacity="1"/>
<stop offset="0.59375" stop-color="rgb(98.376465%, 98.376465%, 98.376465%)" stop-opacity="1"/>
<stop offset="0.625" stop-color="rgb(98.179626%, 98.179626%, 98.179626%)" stop-opacity="1"/>
<stop offset="0.75" stop-color="rgb(98.03772%, 98.03772%, 98.03772%)" stop-opacity="1"/>
<stop offset="1" stop-color="rgb(98.03772%, 98.03772%, 98.03772%)" stop-opacity="1"/>
</linearGradient>
<clipPath id="clip-8">
<path clip-rule="nonzero" d="M 910.308594 0 L 959.328125 0 L 959.328125 2400 L 910.308594 2400 Z M 910.308594 0 "/>
</clipPath>
<linearGradient id="linear-pattern-8" gradientUnits="userSpaceOnUse" x1="0.0740725" y1="0" x2="0.895127" y2="0" gradientTransform="matrix(39.9373, 2923.34, -2923.34, 39.9373, 916.205, -216.66)">
<stop offset="0" stop-color="rgb(98.429871%, 98.429871%, 98.429871%)" stop-opacity="1"/>
<stop offset="0.5" stop-color="rgb(98.429871%, 98.429871%, 98.429871%)" stop-opacity="1"/>
<stop offset="0.5625" stop-color="rgb(98.429871%, 98.429871%, 98.429871%)" stop-opacity="1"/>
<stop offset="0.59375" stop-color="rgb(98.376465%, 98.376465%, 98.376465%)" stop-opacity="1"/>
<stop offset="0.625" stop-color="rgb(98.179626%, 98.179626%, 98.179626%)" stop-opacity="1"/>
<stop offset="0.75" stop-color="rgb(98.03772%, 98.03772%, 98.03772%)" stop-opacity="1"/>
<stop offset="1" stop-color="rgb(98.03772%, 98.03772%, 98.03772%)" stop-opacity="1"/>
</linearGradient>
<clipPath id="clip-9">
<path clip-rule="nonzero" d="M 1016.378906 0 L 1065.398438 0 L 1065.398438 2400 L 1016.378906 2400 Z M 1016.378906 0 "/>
</clipPath>
<linearGradient id="linear-pattern-9" gradientUnits="userSpaceOnUse" x1="0.0740725" y1="0" x2="0.895127" y2="0" gradientTransform="matrix(39.9373, 2923.34, -2923.34, 39.9373, 1022.28, -216.66)">
<stop offset="0" stop-color="rgb(98.429871%, 98.429871%, 98.429871%)" stop-opacity="1"/>
<stop offset="0.5" stop-color="rgb(98.429871%, 98.429871%, 98.429871%)" stop-opacity="1"/>
<stop offset="0.5625" stop-color="rgb(98.429871%, 98.429871%, 98.429871%)" stop-opacity="1"/>
<stop offset="0.59375" stop-color="rgb(98.376465%, 98.376465%, 98.376465%)" stop-opacity="1"/>
<stop offset="0.625" stop-color="rgb(98.179626%, 98.179626%, 98.179626%)" stop-opacity="1"/>
<stop offset="0.75" stop-color="rgb(98.03772%, 98.03772%, 98.03772%)" stop-opacity="1"/>
<stop offset="1" stop-color="rgb(98.03772%, 98.03772%, 98.03772%)" stop-opacity="1"/>
</linearGradient>
<clipPath id="clip-10">
<path clip-rule="nonzero" d="M 1122.449219 0 L 1171.46875 0 L 1171.46875 2400 L 1122.449219 2400 Z M 1122.449219 0 "/>
</clipPath>
<linearGradient id="linear-pattern-10" gradientUnits="userSpaceOnUse" x1="0.0740725" y1="0" x2="0.895127" y2="0" gradientTransform="matrix(39.9373, 2923.34, -2923.34, 39.9373, 1128.35, -216.66)">
<stop offset="0" stop-color="rgb(98.429871%, 98.429871%, 98.429871%)" stop-opacity="1"/>
<stop offset="0.5" stop-color="rgb(98.429871%, 98.429871%, 98.429871%)" stop-opacity="1"/>
<stop offset="0.5625" stop-color="rgb(98.429871%, 98.429871%, 98.429871%)" stop-opacity="1"/>
<stop offset="0.59375" stop-color="rgb(98.376465%, 98.376465%, 98.376465%)" stop-opacity="1"/>
<stop offset="0.625" stop-color="rgb(98.179626%, 98.179626%, 98.179626%)" stop-opacity="1"/>
<stop offset="0.75" stop-color="rgb(98.03772%, 98.03772%, 98.03772%)" stop-opacity="1"/>
<stop offset="1" stop-color="rgb(98.03772%, 98.03772%, 98.03772%)" stop-opacity="1"/>
</linearGradient>
<clipPath id="clip-11">
<path clip-rule="nonzero" d="M 1228.53125 0 L 1277.550781 0 L 1277.550781 2400 L 1228.53125 2400 Z M 1228.53125 0 "/>
</clipPath>
<linearGradient id="linear-pattern-11" gradientUnits="userSpaceOnUse" x1="0.0740725" y1="0" x2="0.895127" y2="0" gradientTransform="matrix(39.9373, 2923.34, -2923.34, 39.9373, 1234.42, -216.66)">
<stop offset="0" stop-color="rgb(98.429871%, 98.429871%, 98.429871%)" stop-opacity="1"/>
<stop offset="0.5" stop-color="rgb(98.429871%, 98.429871%, 98.429871%)" stop-opacity="1"/>
<stop offset="0.5625" stop-color="rgb(98.429871%, 98.429871%, 98.429871%)" stop-opacity="1"/>
<stop offset="0.59375" stop-color="rgb(98.376465%, 98.376465%, 98.376465%)" stop-opacity="1"/>
<stop offset="0.625" stop-color="rgb(98.179626%, 98.179626%, 98.179626%)" stop-opacity="1"/>
<stop offset="0.75" stop-color="rgb(98.03772%, 98.03772%, 98.03772%)" stop-opacity="1"/>
<stop offset="1" stop-color="rgb(98.03772%, 98.03772%, 98.03772%)" stop-opacity="1"/>
</linearGradient>
<clipPath id="clip-12">
<path clip-rule="nonzero" d="M 1334.601562 0 L 1383.621094 0 L 1383.621094 2400 L 1334.601562 2400 Z M 1334.601562 0 "/>
</clipPath>
<linearGradient id="linear-pattern-12" gradientUnits="userSpaceOnUse" x1="0.0740725" y1="0" x2="0.895127" y2="0" gradientTransform="matrix(39.9373, 2923.34, -2923.34, 39.9373, 1340.5, -216.66)">
<stop offset="0" stop-color="rgb(98.429871%, 98.429871%, 98.429871%)" stop-opacity="1"/>
<stop offset="0.5" stop-color="rgb(98.429871%, 98.429871%, 98.429871%)" stop-opacity="1"/>
<stop offset="0.5625" stop-color="rgb(98.429871%, 98.429871%, 98.429871%)" stop-opacity="1"/>
<stop offset="0.59375" stop-color="rgb(98.376465%, 98.376465%, 98.376465%)" stop-opacity="1"/>
<stop offset="0.625" stop-color="rgb(98.179626%, 98.179626%, 98.179626%)" stop-opacity="1"/>
<stop offset="0.75" stop-color="rgb(98.03772%, 98.03772%, 98.03772%)" stop-opacity="1"/>
<stop offset="1" stop-color="rgb(98.03772%, 98.03772%, 98.03772%)" stop-opacity="1"/>
</linearGradient>
<clipPath id="clip-13">
<path clip-rule="nonzero" d="M 1440.671875 0 L 1489.691406 0 L 1489.691406 2400 L 1440.671875 2400 Z M 1440.671875 0 "/>
</clipPath>
<linearGradient id="linear-pattern-13" gradientUnits="userSpaceOnUse" x1="0.0740725" y1="0" x2="0.895127" y2="0" gradientTransform="matrix(39.9373, 2923.34, -2923.34, 39.9373, 1446.57, -216.66)">
<stop offset="0" stop-color="rgb(98.429871%, 98.429871%, 98.429871%)" stop-opacity="1"/>
<stop offset="0.5" stop-color="rgb(98.429871%, 98.429871%, 98.429871%)" stop-opacity="1"/>
<stop offset="0.5625" stop-color="rgb(98.429871%, 98.429871%, 98.429871%)" stop-opacity="1"/>
<stop offset="0.59375" stop-color="rgb(98.376465%, 98.376465%, 98.376465%)" stop-opacity="1"/>
<stop offset="0.625" stop-color="rgb(98.179626%, 98.179626%, 98.179626%)" stop-opacity="1"/>
<stop offset="0.75" stop-color="rgb(98.03772%, 98.03772%, 98.03772%)" stop-opacity="1"/>
<stop offset="1" stop-color="rgb(98.03772%, 98.03772%, 98.03772%)" stop-opacity="1"/>
</linearGradient>
<clipPath id="clip-14">
<path clip-rule="nonzero" d="M 1546.75 0 L 1595.761719 0 L 1595.761719 2400 L 1546.75 2400 Z M 1546.75 0 "/>
</clipPath>
<linearGradient id="linear-pattern-14" gradientUnits="userSpaceOnUse" x1="0.0740725" y1="0" x2="0.895127" y2="0" gradientTransform="matrix(39.9373, 2923.34, -2923.34, 39.9373, 1552.64, -216.66)">
<stop offset="0" stop-color="rgb(98.429871%, 98.429871%, 98.429871%)" stop-opacity="1"/>
<stop offset="0.5" stop-color="rgb(98.429871%, 98.429871%, 98.429871%)" stop-opacity="1"/>
<stop offset="0.5625" stop-color="rgb(98.429871%, 98.429871%, 98.429871%)" stop-opacity="1"/>
<stop offset="0.59375" stop-color="rgb(98.376465%, 98.376465%, 98.376465%)" stop-opacity="1"/>
<stop offset="0.625" stop-color="rgb(98.179626%, 98.179626%, 98.179626%)" stop-opacity="1"/>
<stop offset="0.75" stop-color="rgb(98.03772%, 98.03772%, 98.03772%)" stop-opacity="1"/>
<stop offset="1" stop-color="rgb(98.03772%, 98.03772%, 98.03772%)" stop-opacity="1"/>
</linearGradient>
<clipPath id="clip-15">
<path clip-rule="nonzero" d="M 1652.820312 0 L 1701.839844 0 L 1701.839844 2400 L 1652.820312 2400 Z M 1652.820312 0 "/>
</clipPath>
<linearGradient id="linear-pattern-15" gradientUnits="userSpaceOnUse" x1="0.0740725" y1="0" x2="0.895127" y2="0" gradientTransform="matrix(39.9373, 2923.34, -2923.34, 39.9373, 1658.72, -216.66)">
<stop offset="0" stop-color="rgb(98.429871%, 98.429871%, 98.429871%)" stop-opacity="1"/>
<stop offset="0.5" stop-color="rgb(98.429871%, 98.429871%, 98.429871%)" stop-opacity="1"/>
<stop offset="0.5625" stop-color="rgb(98.429871%, 98.429871%, 98.429871%)" stop-opacity="1"/>
<stop offset="0.59375" stop-color="rgb(98.376465%, 98.376465%, 98.376465%)" stop-opacity="1"/>
<stop offset="0.625" stop-color="rgb(98.179626%, 98.179626%, 98.179626%)" stop-opacity="1"/>
<stop offset="0.75" stop-color="rgb(98.03772%, 98.03772%, 98.03772%)" stop-opacity="1"/>
<stop offset="1" stop-color="rgb(98.03772%, 98.03772%, 98.03772%)" stop-opacity="1"/>
</linearGradient>
<clipPath id="clip-16">
<path clip-rule="nonzero" d="M 1758.890625 0 L 1807.910156 0 L 1807.910156 2400 L 1758.890625 2400 Z M 1758.890625 0 "/>
</clipPath>
<linearGradient id="linear-pattern-16" gradientUnits="userSpaceOnUse" x1="0.0740725" y1="0" x2="0.895127" y2="0" gradientTransform="matrix(39.9373, 2923.34, -2923.34, 39.9373, 1764.79, -216.66)">
<stop offset="0" stop-color="rgb(98.429871%, 98.429871%, 98.429871%)" stop-opacity="1"/>
<stop offset="0.5" stop-color="rgb(98.429871%, 98.429871%, 98.429871%)" stop-opacity="1"/>
<stop offset="0.5625" stop-color="rgb(98.429871%, 98.429871%, 98.429871%)" stop-opacity="1"/>
<stop offset="0.59375" stop-color="rgb(98.376465%, 98.376465%, 98.376465%)" stop-opacity="1"/>
<stop offset="0.625" stop-color="rgb(98.179626%, 98.179626%, 98.179626%)" stop-opacity="1"/>
<stop offset="0.75" stop-color="rgb(98.03772%, 98.03772%, 98.03772%)" stop-opacity="1"/>
<stop offset="1" stop-color="rgb(98.03772%, 98.03772%, 98.03772%)" stop-opacity="1"/>
</linearGradient>
<clipPath id="clip-17">
<path clip-rule="nonzero" d="M 1864.960938 0 L 1913.980469 0 L 1913.980469 2400 L 1864.960938 2400 Z M 1864.960938 0 "/>
</clipPath>
<linearGradient id="linear-pattern-17" gradientUnits="userSpaceOnUse" x1="0.0740725" y1="0" x2="0.895127" y2="0" gradientTransform="matrix(39.9373, 2923.34, -2923.34, 39.9373, 1870.86, -216.66)">
<stop offset="0" stop-color="rgb(98.429871%, 98.429871%, 98.429871%)" stop-opacity="1"/>
<stop offset="0.5" stop-color="rgb(98.429871%, 98.429871%, 98.429871%)" stop-opacity="1"/>
<stop offset="0.5625" stop-color="rgb(98.429871%, 98.429871%, 98.429871%)" stop-opacity="1"/>
<stop offset="0.59375" stop-color="rgb(98.376465%, 98.376465%, 98.376465%)" stop-opacity="1"/>
<stop offset="0.625" stop-color="rgb(98.179626%, 98.179626%, 98.179626%)" stop-opacity="1"/>
<stop offset="0.75" stop-color="rgb(98.03772%, 98.03772%, 98.03772%)" stop-opacity="1"/>
<stop offset="1" stop-color="rgb(98.03772%, 98.03772%, 98.03772%)" stop-opacity="1"/>
</linearGradient>
<clipPath id="clip-18">
<path clip-rule="nonzero" d="M 1971.039062 0 L 2020.058594 0 L 2020.058594 2400 L 1971.039062 2400 Z M 1971.039062 0 "/>
</clipPath>
<linearGradient id="linear-pattern-18" gradientUnits="userSpaceOnUse" x1="0.0740725" y1="0" x2="0.895127" y2="0" gradientTransform="matrix(39.9373, 2923.34, -2923.34, 39.9373, 1976.93, -216.66)">
<stop offset="0" stop-color="rgb(98.429871%, 98.429871%, 98.429871%)" stop-opacity="1"/>
<stop offset="0.5" stop-color="rgb(98.429871%, 98.429871%, 98.429871%)" stop-opacity="1"/>
<stop offset="0.5625" stop-color="rgb(98.429871%, 98.429871%, 98.429871%)" stop-opacity="1"/>
<stop offset="0.59375" stop-color="rgb(98.376465%, 98.376465%, 98.376465%)" stop-opacity="1"/>
<stop offset="0.625" stop-color="rgb(98.179626%, 98.179626%, 98.179626%)" stop-opacity="1"/>
<stop offset="0.75" stop-color="rgb(98.03772%, 98.03772%, 98.03772%)" stop-opacity="1"/>
<stop offset="1" stop-color="rgb(98.03772%, 98.03772%, 98.03772%)" stop-opacity="1"/>
</linearGradient>
<clipPath id="clip-19">
<path clip-rule="nonzero" d="M 2077.109375 0 L 2126.128906 0 L 2126.128906 2400 L 2077.109375 2400 Z M 2077.109375 0 "/>
</clipPath>
<linearGradient id="linear-pattern-19" gradientUnits="userSpaceOnUse" x1="0.0740725" y1="0" x2="0.895127" y2="0" gradientTransform="matrix(39.9373, 2923.34, -2923.34, 39.9373, 2083.01, -216.66)">
<stop offset="0" stop-color="rgb(98.429871%, 98.429871%, 98.429871%)" stop-opacity="1"/>
<stop offset="0.5" stop-color="rgb(98.429871%, 98.429871%, 98.429871%)" stop-opacity="1"/>
<stop offset="0.5625" stop-color="rgb(98.429871%, 98.429871%, 98.429871%)" stop-opacity="1"/>
<stop offset="0.59375" stop-color="rgb(98.376465%, 98.376465%, 98.376465%)" stop-opacity="1"/>
<stop offset="0.625" stop-color="rgb(98.179626%, 98.179626%, 98.179626%)" stop-opacity="1"/>
<stop offset="0.75" stop-color="rgb(98.03772%, 98.03772%, 98.03772%)" stop-opacity="1"/>
<stop offset="1" stop-color="rgb(98.03772%, 98.03772%, 98.03772%)" stop-opacity="1"/>
</linearGradient>
<clipPath id="clip-20">
<path clip-rule="nonzero" d="M 2183.179688 0 L 2232.199219 0 L 2232.199219 2400 L 2183.179688 2400 Z M 2183.179688 0 "/>
</clipPath>
<linearGradient id="linear-pattern-20" gradientUnits="userSpaceOnUse" x1="0.0740725" y1="0" x2="0.895127" y2="0" gradientTransform="matrix(39.9373, 2923.34, -2923.34, 39.9373, 2189.08, -216.66)">
<stop offset="0" stop-color="rgb(98.429871%, 98.429871%, 98.429871%)" stop-opacity="1"/>
<stop offset="0.5" stop-color="rgb(98.429871%, 98.429871%, 98.429871%)" stop-opacity="1"/>
<stop offset="0.5625" stop-color="rgb(98.429871%, 98.429871%, 98.429871%)" stop-opacity="1"/>
<stop offset="0.59375" stop-color="rgb(98.376465%, 98.376465%, 98.376465%)" stop-opacity="1"/>
<stop offset="0.625" stop-color="rgb(98.179626%, 98.179626%, 98.179626%)" stop-opacity="1"/>
<stop offset="0.75" stop-color="rgb(98.03772%, 98.03772%, 98.03772%)" stop-opacity="1"/>
<stop offset="1" stop-color="rgb(98.03772%, 98.03772%, 98.03772%)" stop-opacity="1"/>
</linearGradient>
<clipPath id="clip-21">
<path clip-rule="nonzero" d="M 2289.261719 0 L 2338.269531 0 L 2338.269531 2400 L 2289.261719 2400 Z M 2289.261719 0 "/>
</clipPath>
<linearGradient id="linear-pattern-21" gradientUnits="userSpaceOnUse" x1="0.0740725" y1="0" x2="0.895127" y2="0" gradientTransform="matrix(39.9373, 2923.34, -2923.34, 39.9373, 2295.15, -216.66)">
<stop offset="0" stop-color="rgb(98.429871%, 98.429871%, 98.429871%)" stop-opacity="1"/>
<stop offset="0.5" stop-color="rgb(98.429871%, 98.429871%, 98.429871%)" stop-opacity="1"/>
<stop offset="0.5625" stop-color="rgb(98.429871%, 98.429871%, 98.429871%)" stop-opacity="1"/>
<stop offset="0.59375" stop-color="rgb(98.376465%, 98.376465%, 98.376465%)" stop-opacity="1"/>
<stop offset="0.625" stop-color="rgb(98.179626%, 98.179626%, 98.179626%)" stop-opacity="1"/>
<stop offset="0.75" stop-color="rgb(98.03772%, 98.03772%, 98.03772%)" stop-opacity="1"/>
<stop offset="1" stop-color="rgb(98.03772%, 98.03772%, 98.03772%)" stop-opacity="1"/>
</linearGradient>
</defs>
<rect x="-240" y="-240" width="2880" height="2880" fill="rgb(100%, 100%, 100%)" fill-opacity="1"/>
<rect x="-240" y="-240" width="2880" height="2880" fill="rgb(100%, 100%, 100%)" fill-opacity="1"/>
<g clip-path="url(#clip-0)">
<path fill-rule="nonzero" fill="url(#linear-pattern-0)" d="M 110.734375 -0.667969 L 28.945312 0.449219 L 61.734375 2400.667969 L 143.523438 2399.550781 Z M 110.734375 -0.667969 "/>
</g>
<g clip-path="url(#clip-1)">
<path fill-rule="nonzero" fill="url(#linear-pattern-1)" d="M 216.808594 -0.667969 L 135.015625 0.449219 L 167.808594 2400.667969 L 249.597656 2399.550781 Z M 216.808594 -0.667969 "/>
</g>
<g clip-path="url(#clip-2)">
<path fill-rule="nonzero" fill="url(#linear-pattern-2)" d="M 322.878906 -0.667969 L 241.089844 0.449219 L 273.878906 2400.667969 L 355.671875 2399.550781 Z M 322.878906 -0.667969 "/>
</g>
<g clip-path="url(#clip-3)">
<path fill-rule="nonzero" fill="url(#linear-pattern-3)" d="M 428.953125 -0.667969 L 347.164062 0.449219 L 379.953125 2400.667969 L 461.742188 2399.550781 Z M 428.953125 -0.667969 "/>
</g>
<g clip-path="url(#clip-4)">
<path fill-rule="nonzero" fill="url(#linear-pattern-4)" d="M 535.027344 -0.667969 L 453.234375 0.449219 L 486.027344 2400.667969 L 567.816406 2399.550781 Z M 535.027344 -0.667969 "/>
</g>
<g clip-path="url(#clip-5)">
<path fill-rule="nonzero" fill="url(#linear-pattern-5)" d="M 641.097656 -0.667969 L 559.308594 0.449219 L 592.097656 2400.667969 L 673.890625 2399.550781 Z M 641.097656 -0.667969 "/>
</g>
<g clip-path="url(#clip-6)">
<path fill-rule="nonzero" fill="url(#linear-pattern-6)" d="M 747.171875 -0.667969 L 665.378906 0.449219 L 698.171875 2400.667969 L 779.960938 2399.550781 Z M 747.171875 -0.667969 "/>
</g>
<g clip-path="url(#clip-7)">
<path fill-rule="nonzero" fill="url(#linear-pattern-7)" d="M 853.246094 -0.667969 L 771.453125 0.449219 L 804.246094 2400.667969 L 886.035156 2399.550781 Z M 853.246094 -0.667969 "/>
</g>
<g clip-path="url(#clip-8)">
<path fill-rule="nonzero" fill="url(#linear-pattern-8)" d="M 959.316406 -0.667969 L 877.527344 0.449219 L 910.316406 2400.667969 L 992.109375 2399.550781 Z M 959.316406 -0.667969 "/>
</g>
<g clip-path="url(#clip-9)">
<path fill-rule="nonzero" fill="url(#linear-pattern-9)" d="M 1065.390625 -0.667969 L 983.597656 0.449219 L 1016.390625 2400.667969 L 1098.179688 2399.550781 Z M 1065.390625 -0.667969 "/>
</g>
<g clip-path="url(#clip-10)">
<path fill-rule="nonzero" fill="url(#linear-pattern-10)" d="M 1171.460938 -0.667969 L 1089.667969 0.449219 L 1122.460938 2400.667969 L 1204.25 2399.550781 Z M 1171.460938 -0.667969 "/>
</g>
<g clip-path="url(#clip-11)">
<path fill-rule="nonzero" fill="url(#linear-pattern-11)" d="M 1277.539062 -0.667969 L 1195.75 0.449219 L 1228.539062 2400.667969 L 1310.332031 2399.550781 Z M 1277.539062 -0.667969 "/>
</g>
<g clip-path="url(#clip-12)">
<path fill-rule="nonzero" fill="url(#linear-pattern-12)" d="M 1383.609375 -0.667969 L 1301.820312 0.449219 L 1334.609375 2400.667969 L 1416.402344 2399.550781 Z M 1383.609375 -0.667969 "/>
</g>
<g clip-path="url(#clip-13)">
<path fill-rule="nonzero" fill="url(#linear-pattern-13)" d="M 1489.679688 -0.667969 L 1407.886719 0.449219 L 1440.679688 2400.667969 L 1522.472656 2399.550781 Z M 1489.679688 -0.667969 "/>
</g>
<g clip-path="url(#clip-14)">
<path fill-rule="nonzero" fill="url(#linear-pattern-14)" d="M 1595.75 -0.667969 L 1513.96875 0.449219 L 1546.757812 2400.667969 L 1628.542969 2399.550781 Z M 1595.75 -0.667969 "/>
</g>
<g clip-path="url(#clip-15)">
<path fill-rule="nonzero" fill="url(#linear-pattern-15)" d="M 1701.832031 -0.667969 L 1620.039062 0.449219 L 1652.828125 2400.667969 L 1734.621094 2399.550781 Z M 1701.832031 -0.667969 "/>
</g>
<g clip-path="url(#clip-16)">
<path fill-rule="nonzero" fill="url(#linear-pattern-16)" d="M 1807.902344 -0.667969 L 1726.109375 0.449219 L 1758.898438 2400.667969 L 1840.691406 2399.550781 Z M 1807.902344 -0.667969 "/>
</g>
<g clip-path="url(#clip-17)">
<path fill-rule="nonzero" fill="url(#linear-pattern-17)" d="M 1913.972656 -0.667969 L 1832.179688 0.449219 L 1864.96875 2400.667969 L 1946.761719 2399.550781 Z M 1913.972656 -0.667969 "/>
</g>
<g clip-path="url(#clip-18)">
<path fill-rule="nonzero" fill="url(#linear-pattern-18)" d="M 2020.050781 -0.667969 L 1938.257812 0.449219 L 1971.050781 2400.667969 L 2052.839844 2399.550781 Z M 2020.050781 -0.667969 "/>
</g>
<g clip-path="url(#clip-19)">
<path fill-rule="nonzero" fill="url(#linear-pattern-19)" d="M 2126.121094 -0.667969 L 2044.328125 0.449219 L 2077.121094 2400.667969 L 2158.910156 2399.550781 Z M 2126.121094 -0.667969 "/>
</g>
<g clip-path="url(#clip-20)">
<path fill-rule="nonzero" fill="url(#linear-pattern-20)" d="M 2232.191406 -0.667969 L 2150.398438 0.449219 L 2183.1875 2400.667969 L 2264.980469 2399.550781 Z M 2232.191406 -0.667969 "/>
</g>
<g clip-path="url(#clip-21)">
<path fill-rule="nonzero" fill="url(#linear-pattern-21)" d="M 2338.261719 -0.667969 L 2256.476562 0.449219 L 2289.269531 2400.667969 L 2371.050781 2399.550781 Z M 2338.261719 -0.667969 "/>
</g>
<path fill-rule="nonzero" fill="rgb(4.704285%, 9.008789%, 33.714294%)" fill-opacity="1" d="M 2189.050781 1118.308594 L 2184.410156 1119.058594 C 2178.140625 1120.058594 2177.550781 1117.738281 2176.5 1113.53125 C 2175.53125 1109.691406 2174.21875 1104.441406 2166.671875 1104.230469 L 2164.988281 1104.191406 L 2164.648438 1105.820312 C 2163.078125 1113.371094 2161.828125 1117.820312 2160.929688 1119.058594 C 2160.179688 1118.46875 2158.828125 1116.730469 2157.710938 1115.289062 C 2152.789062 1108.960938 2144.621094 1098.441406 2128.050781 1095.148438 C 2127.230469 1093.160156 2126.519531 1091.019531 2125.839844 1088.929688 C 2123.230469 1081.039062 2120.308594 1072.171875 2110.199219 1070.550781 C 2110.550781 1069.671875 2110.949219 1068.78125 2111.359375 1067.859375 C 2113.621094 1062.761719 2116.191406 1056.96875 2111.410156 1051.25 L 2110.019531 1049.589844 L 2108.46875 1051.101562 C 2101.609375 1057.808594 2095.640625 1060.480469 2090.75 1059.03125 C 2085.160156 1057.390625 2080.601562 1050.019531 2077.910156 1038.28125 L 2077.679688 1037.289062 L 2076.738281 1036.890625 C 2074.140625 1035.789062 2071.609375 1034.878906 2069.179688 1034.011719 C 2057.75 1029.898438 2050.851562 1027.421875 2053.539062 1013.378906 L 2053.75 1012.289062 L 2052.929688 1011.53125 C 2046.851562 1005.929688 2044.519531 1002.75 2047.71875 995.828125 L 2048.269531 994.628906 L 2047.390625 993.648438 C 2040.261719 985.710938 2035.480469 978.429688 2035.359375 968.660156 L 2035.339844 967.339844 L 2034.128906 966.839844 C 2019.269531 960.671875 2007.601562 965.101562 1999.078125 968.328125 C 1993.640625 970.390625 1989.339844 972.019531 1986.21875 970.351562 C 1983.128906 968.699219 1980.628906 963.558594 1978.570312 954.628906 L 1978.171875 952.890625 L 1976.398438 953.089844 C 1968.960938 953.921875 1961.558594 955.039062 1954.371094 956.140625 C 1952.640625 954 1950.78125 951.921875 1948.96875 949.910156 C 1941 941.011719 1934.121094 933.320312 1938.21875 921.710938 L 1939.03125 919.429688 L 1936.640625 919.058594 C 1931.589844 918.300781 1927.941406 915.949219 1926.628906 912.609375 C 1925.46875 909.671875 1926.289062 906.199219 1928.960938 902.851562 L 1931.941406 899.089844 L 1927.171875 899.609375 C 1925.199219 899.828125 1923.871094 899.558594 1923.21875 898.820312 C 1921.609375 896.980469 1922.960938 891.511719 1923.949219 887.511719 C 1924.429688 885.578125 1924.890625 883.738281 1925.109375 882.121094 C 1926.539062 881.21875 1927.949219 880.328125 1929.351562 879.449219 C 1933.96875 876.539062 1938.328125 873.800781 1942.761719 870.839844 L 1943.570312 870.300781 L 1943.648438 869.339844 C 1944.679688 857.039062 1945.300781 826.410156 1929.210938 805.410156 C 1932.210938 791.460938 1938.539062 792.261719 1953.429688 794.128906 L 1954.621094 794.28125 L 1955.480469 793.058594 C 1963.191406 782.21875 1970.460938 771.980469 1960.320312 758.25 C 1961.960938 753.75 1966.121094 751.738281 1970.511719 749.609375 C 1976.261719 746.828125 1983.359375 743.398438 1979.558594 732.890625 C 1980.929688 731.339844 1983 729.820312 1985 728.351562 C 1990.070312 724.628906 1996.320312 720.03125 1993.039062 712.890625 C 1995.339844 707.480469 1997.578125 702.070312 1999.75 696.839844 C 2001.640625 692.269531 2003.539062 687.691406 2005.488281 683.058594 C 2025.078125 677.179688 2022.789062 668.621094 2019.339844 655.78125 C 2018.878906 654.050781 2018.378906 652.179688 2017.890625 650.179688 C 2021.648438 651.371094 2025.660156 651.859375 2027.648438 649.121094 C 2031.5 643.851562 2022.359375 631 2018.351562 625.839844 C 2022.078125 624.421875 2025.648438 623 2029.121094 621.609375 L 2030.871094 620.898438 L 2030.53125 619.261719 C 2029.050781 612.148438 2023.929688 610.871094 2019.121094 610.46875 C 2024.789062 605.71875 2024.738281 598.300781 2024.5 590.46875 C 2031.601562 591.558594 2038.488281 588.929688 2041.871094 583.628906 C 2044.28125 579.839844 2044.5 575.410156 2042.628906 571.109375 C 2048.5 571.691406 2051.371094 566.550781 2053.789062 562.238281 C 2054.398438 561.140625 2055.039062 560.011719 2055.71875 558.921875 L 2057.828125 555.578125 L 2053.890625 555.859375 C 2048.980469 556.210938 2047.929688 552.878906 2046.5 546.96875 C 2046.03125 545.058594 2045.550781 543.089844 2044.820312 541.300781 L 2044.199219 539.78125 L 2042.578125 540.101562 C 2035.160156 541.558594 2028.960938 536.96875 2022.390625 532.101562 C 2019.679688 530.089844 2016.871094 528.011719 2013.960938 526.378906 L 2013.21875 525.960938 L 2012.410156 526.210938 C 2002.441406 529.191406 1998.210938 527.359375 1994.109375 525.589844 C 1987.441406 522.710938 1982.21875 521.640625 1968.011719 531.308594 C 1965.078125 523.019531 1961.28125 518.238281 1956.460938 516.738281 C 1948.398438 514.238281 1939.5 521.308594 1930.078125 528.789062 C 1921.640625 535.488281 1912.910156 542.421875 1904.789062 542.621094 L 1903.570312 542.660156 L 1903.039062 543.738281 C 1897.101562 555.859375 1884.539062 557.039062 1871.230469 558.28125 C 1866.359375 558.738281 1861.328125 559.21875 1856.609375 560.269531 L 1855.691406 560.039062 C 1847.429688 558.019531 1837.03125 557.980469 1826.011719 557.941406 C 1804.171875 557.871094 1781.578125 557.800781 1774 542.210938 L 1773.761719 541.710938 L 1773.289062 541.410156 C 1745.289062 523.171875 1745.78125 520.910156 1746.519531 517.488281 C 1747.238281 514.191406 1748.191406 509.808594 1740.730469 499.199219 C 1741.449219 499.410156 1742.171875 499.628906 1742.878906 499.851562 C 1749.949219 502.011719 1757.949219 504.449219 1763.710938 496.539062 L 1764.539062 495.410156 L 1763.75 494.238281 C 1762.558594 492.488281 1761.5 490.601562 1760.480469 488.761719 C 1758.550781 485.308594 1756.488281 481.621094 1753.53125 479.289062 C 1756.039062 476.179688 1756.679688 471.5 1757.289062 466.941406 C 1757.570312 464.820312 1757.871094 462.621094 1758.339844 460.621094 L 1758.75 458.871094 L 1757.058594 458.269531 C 1745.671875 454.261719 1736.289062 453.320312 1727.269531 455.359375 C 1732 441.011719 1719.601562 430.960938 1708.558594 422.019531 C 1704.03125 418.351562 1699.359375 414.558594 1695.960938 410.609375 C 1703.058594 404.050781 1705.371094 397.96875 1697.691406 387.859375 L 1696.789062 386.671875 L 1695.390625 387.199219 C 1682.929688 391.871094 1683.820312 402.140625 1685.011719 412.230469 C 1683.828125 412 1682.640625 411.78125 1681.46875 411.570312 C 1675.261719 410.421875 1664.851562 408.511719 1664.480469 406.121094 C 1664.441406 405.878906 1664.390625 403.558594 1674.238281 398.261719 L 1675.328125 397.679688 L 1675.300781 396.449219 C 1675.230469 393.78125 1674.941406 390.761719 1674.421875 387.230469 L 1673.601562 381.761719 L 1670.730469 386.488281 C 1664.511719 396.710938 1659.289062 394.320312 1648.070312 387.941406 C 1647 387.328125 1645.890625 386.699219 1644.761719 386.070312 L 1639.160156 382.980469 L 1642.621094 389.960938 C 1645.261719 395.230469 1646.910156 398.910156 1645.769531 402.5 C 1642.210938 394.050781 1634.570312 390.511719 1626.539062 386.78125 L 1624.550781 385.859375 L 1623.589844 387.210938 C 1619.28125 393.308594 1624.578125 397.339844 1628.101562 400.011719 C 1628.921875 400.628906 1629.761719 401.269531 1630.511719 401.910156 C 1627.03125 405.371094 1625.398438 409.429688 1624.558594 413.910156 C 1620.429688 408.109375 1613.308594 407.671875 1605.878906 407.210938 C 1605.078125 407.160156 1604.269531 407.109375 1603.441406 407.058594 L 1601.460938 406.921875 C 1599.449219 405.589844 1597.308594 404.488281 1594.988281 403.671875 C 1586.691406 393.390625 1578.390625 383.109375 1570.109375 372.828125 L 1569.429688 371.980469 L 1557.101562 373.289062 C 1545.71875 374.488281 1534.25 375.699219 1522.949219 376.929688 C 1517.789062 370.371094 1512.519531 365.359375 1503.050781 367.691406 C 1500.089844 362.390625 1497.039062 356.910156 1493.75 351.230469 L 1493.019531 349.960938 L 1489.941406 350.648438 C 1478.789062 353.101562 1468.261719 355.421875 1463.351562 368.148438 L 1462.960938 369.179688 L 1463.621094 370.070312 C 1470.75 379.550781 1467.878906 384.441406 1459.929688 392.300781 L 1459.800781 392.160156 L 1459.261719 391.570312 L 1458.46875 391.519531 C 1454.511719 391.238281 1450.671875 391.089844 1446.960938 390.941406 C 1427.539062 390.171875 1412.078125 389.550781 1398.160156 373.089844 C 1402.660156 368.699219 1404.070312 362.730469 1401.929688 356.75 C 1399.710938 350.570312 1394.351562 346.359375 1388.929688 346.488281 C 1386.019531 346.558594 1380.960938 347.988281 1377.421875 356.101562 C 1376.761719 355.050781 1376.121094 353.980469 1375.480469 352.929688 C 1372.050781 347.21875 1368.808594 341.828125 1363.449219 340.738281 C 1360.128906 340.058594 1356.519531 341.179688 1352.421875 344.160156 L 1351.949219 344.488281 L 1351.699219 345.121094 C 1346.289062 358.511719 1342.011719 369.089844 1327.511719 370.308594 L 1324.898438 370.53125 L 1325.800781 372.988281 C 1332.039062 389.941406 1320.179688 397.171875 1306.460938 405.539062 C 1301.890625 408.328125 1297.171875 411.210938 1293.171875 414.53125 C 1278.890625 414.261719 1269.230469 405.199219 1259 395.628906 C 1257.089844 393.828125 1255.128906 392.011719 1253.121094 390.21875 C 1252.910156 389.648438 1252.671875 389.058594 1252.378906 388.46875 L 1252.03125 387.738281 L 1251.28125 387.460938 C 1239.601562 383.128906 1230.25 374.96875 1220.351562 366.320312 C 1214.5 361.210938 1208.441406 355.910156 1201.890625 351.539062 L 1200.859375 350.859375 L 1199.789062 351.46875 C 1188.308594 358 1177.148438 364.5 1166.578125 370.800781 C 1159.449219 365.628906 1153.398438 364.980469 1146.46875 368.75 C 1146.179688 367.21875 1145.890625 365.671875 1145.601562 364.121094 C 1145.140625 361.648438 1144.679688 359.179688 1144.21875 356.78125 L 1142.96875 350.300781 L 1140.410156 356.390625 C 1134.828125 369.671875 1131.859375 368.96875 1126.480469 367.710938 C 1123.019531 366.890625 1118.488281 365.828125 1112.578125 368.160156 C 1113.691406 363.070312 1114.96875 357.941406 1116.21875 352.921875 L 1117.089844 349.410156 L 1113.648438 350.539062 C 1110.238281 351.660156 1106.839844 352.730469 1103.558594 353.761719 C 1101.25 354.488281 1098.890625 355.230469 1096.5 356 C 1098.050781 348.460938 1098.46875 341.480469 1094.058594 334.429688 L 1092.628906 332.148438 L 1090.859375 334.171875 C 1088.46875 336.910156 1086.128906 339.578125 1083.808594 342.238281 C 1081.121094 345.320312 1078.441406 348.390625 1075.679688 351.539062 C 1074.171875 351.429688 1072.558594 351.328125 1070.871094 351.21875 C 1059.691406 350.519531 1044.359375 349.570312 1038.03125 342.238281 C 1035.628906 339.46875 1034.640625 335.988281 1035.011719 331.601562 L 1035.210938 329.148438 L 1032.769531 329.449219 C 1031.410156 329.609375 1030.070312 329.699219 1028.648438 329.800781 C 1027.898438 329.851562 1027.128906 329.898438 1026.359375 329.960938 C 1026.320312 329.230469 1026.289062 328.488281 1026.25 327.71875 C 1026.191406 326.269531 1026.121094 324.78125 1025.980469 323.28125 L 1025.738281 320.878906 L 1023.429688 321.550781 C 1014.921875 324.03125 1011.53125 322.660156 1008.308594 315.441406 L 1006.351562 311.039062 L 1004.621094 315.539062 C 998.628906 331.109375 995.566406 338.738281 991.40625 342.191406 C 987.351562 345.539062 981.460938 345.359375 969.730469 345 C 966.683594 344.898438 963.253906 344.800781 959.378906 344.738281 C 951.71875 338.699219 942.496094 333.910156 933.570312 329.28125 C 915.195312 319.730469 897.835938 310.71875 892.113281 291.640625 L 891.351562 289.101562 L 889.121094 290.53125 C 886.578125 292.148438 883.875 293.679688 881.140625 295.160156 L 885.863281 283.550781 L 883.597656 283.011719 C 882.285156 282.699219 880.980469 282.46875 879.71875 282.25 C 878.472656 282.03125 877.292969 281.828125 876.109375 281.550781 L 873.734375 280.980469 L 873.640625 283.621094 C 873.46875 288.429688 873.25 291.070312 870.734375 292.691406 C 870.496094 291.78125 870.269531 290.851562 870.046875 289.949219 C 868.429688 283.351562 866.753906 276.53125 859.398438 273.328125 L 858.246094 272.828125 L 857.292969 273.648438 C 850.765625 279.308594 854.277344 284.820312 857.097656 289.25 C 857.199219 289.410156 857.300781 289.558594 857.398438 289.71875 L 853.464844 290.019531 C 850.628906 290.238281 847.777344 290.449219 844.988281 290.660156 C 843.152344 283.328125 845.183594 278.148438 851.769531 273.058594 L 853.335938 271.851562 L 852.140625 270.269531 C 850.464844 268.050781 848.683594 265.808594 846.964844 263.640625 C 845.246094 261.46875 843.46875 259.21875 841.804688 257.019531 L 840.371094 255.128906 L 838.75 256.859375 C 835.320312 260.539062 832.203125 264.621094 829.195312 268.570312 C 819.609375 281.140625 811.339844 292 795.324219 289.308594 L 790.371094 288.480469 L 793.398438 292.488281 C 794.792969 294.339844 795.371094 295.828125 795.113281 296.929688 C 794.824219 298.171875 793.375 299.429688 790.6875 300.78125 L 789.085938 301.578125 L 789.710938 303.269531 C 791.6875 308.578125 793.410156 315.539062 790.382812 318.558594 C 784.808594 324.121094 765.316406 316.800781 752.417969 311.949219 C 748.003906 310.289062 744.1875 308.859375 741.179688 307.980469 L 740.285156 307.71875 L 739.507812 308.230469 C 718.765625 322.050781 698.445312 307.910156 680.515625 295.429688 C 679.558594 294.761719 678.605469 294.101562 677.664062 293.449219 L 676.433594 292.601562 L 675.269531 293.539062 C 668.550781 298.96875 660.6875 298.070312 652.355469 297.101562 C 649.378906 296.761719 646.296875 296.410156 643.265625 296.359375 L 642.886719 296.351562 L 642.527344 296.488281 C 618.53125 305.558594 610.066406 335.378906 605.835938 357.449219 C 571.253906 378.050781 570.546875 380.761719 573.394531 386.871094 C 574.59375 389.441406 576.234375 392.960938 567.625 404.5 L 567.242188 405.019531 L 567.230469 405.660156 C 566.996094 417.410156 562.726562 423.300781 558.203125 429.53125 C 553.445312 436.078125 548.53125 442.851562 548.953125 456.199219 C 544.367188 456.058594 539.390625 456.800781 534.554688 457.53125 C 523.589844 459.179688 513.230469 460.730469 507.726562 452.609375 L 506.558594 453.109375 C 506.53125 452.980469 506.496094 452.859375 506.46875 452.730469 L 506.066406 450.871094 L 504.191406 451.179688 C 496.777344 452.378906 490.851562 453.101562 487.652344 450.449219 C 485.679688 448.808594 484.660156 445.78125 484.539062 441.171875 L 484.519531 440.398438 L 483.988281 439.839844 C 465.941406 420.859375 446.03125 401.609375 418.554688 392.558594 C 418.367188 390.898438 418.203125 389.050781 418.035156 387.109375 C 416.941406 374.480469 415.460938 357.410156 403.039062 355.679688 C 402.765625 349.839844 401.410156 346.101562 398.734375 343.710938 C 396.351562 341.570312 393.074219 340.589844 388.050781 340.621094 C 391.605469 335.699219 392.910156 331.019531 391.933594 326.660156 C 389.933594 317.738281 378.839844 312.210938 369.398438 308.378906 L 368.316406 307.941406 L 367.402344 308.671875 C 361.949219 313 350.601562 322 346.441406 319.730469 C 345.1875 319.039062 343.242188 316.351562 344.296875 306.070312 L 344.550781 303.601562 L 342.085938 303.878906 C 337.5 304.390625 333.207031 305.140625 328.664062 305.941406 L 325.34375 306.519531 L 325.503906 308.351562 C 325.597656 309.398438 325.609375 310.558594 325.621094 311.789062 C 325.625 312.089844 325.628906 312.390625 325.632812 312.691406 C 304.363281 306.859375 300.203125 311.140625 297.066406 317.328125 C 295.476562 320.46875 294.320312 322.738281 286.335938 321.460938 L 285.25 321.289062 L 284.519531 322.121094 C 258.203125 351.960938 257.847656 353.089844 265.449219 382.960938 C 266.039062 385.28125 266.679688 387.78125 267.351562 390.5 C 245.535156 425.070312 247.003906 428.191406 257.957031 451.359375 C 260.019531 455.71875 262.351562 460.648438 264.957031 466.710938 C 264.941406 469.390625 265.035156 471.851562 265.117188 474.019531 C 265.550781 485.679688 265.683594 489.199219 249.800781 490.359375 L 248.515625 490.449219 L 248.070312 491.660156 C 242.90625 505.640625 228.773438 552.378906 259.902344 575.410156 C 251.917969 584.921875 244.882812 585.71875 239.171875 586.359375 C 233.441406 587.011719 228.03125 587.628906 225.367188 596.699219 L 225.082031 597.679688 L 225.703125 598.488281 C 230.054688 604.121094 233.730469 610.828125 237.28125 617.320312 C 245.027344 631.449219 253.027344 646.050781 268.914062 652.261719 C 269.957031 657.988281 273.917969 661.808594 279.71875 662.578125 C 286.269531 663.46875 294.890625 660.058594 298.398438 652.078125 C 307.203125 647.730469 312.015625 645.859375 315.226562 646.871094 C 318.472656 647.898438 321.132812 652.011719 326.375 660.460938 L 326.859375 661.238281 L 327.769531 661.378906 C 343.519531 663.820312 346.667969 675.011719 350.65625 689.191406 C 351.0625 690.621094 351.46875 692.070312 351.898438 693.53125 L 352.175781 694.480469 L 353.09375 694.828125 C 378.09375 704.539062 382.472656 708.71875 389.980469 732.871094 C 387.816406 733.140625 385.535156 733.421875 383.25 733.699219 L 381.195312 733.949219 L 381.296875 735.808594 C 381.402344 737.910156 381.59375 740.089844 381.78125 742.210938 C 381.890625 743.46875 382.003906 744.75 382.097656 746.011719 C 375.191406 745.28125 371.035156 746.238281 369.105469 748.988281 C 366.128906 753.21875 369.625 759.761719 373.328125 766.679688 C 374.773438 769.378906 376.269531 772.179688 377.292969 774.710938 L 377.574219 775.398438 L 378.242188 775.738281 C 386.660156 780 395.140625 784.441406 403.339844 788.730469 C 410.644531 792.550781 418.1875 796.5 425.703125 800.328125 C 431.046875 812.210938 434.75 825.269531 426.875 840.269531 L 426.03125 841.878906 L 427.550781 842.878906 C 432 845.789062 432.046875 849.46875 432.105469 854.550781 C 432.179688 860.558594 432.269531 867.929688 440.34375 875.460938 C 433.082031 879.53125 426.792969 880.558594 419.730469 878.921875 L 416.976562 878.28125 L 417.292969 881.089844 C 418.933594 895.78125 428.78125 896.089844 440.183594 896.449219 L 440.382812 896.449219 C 442.4375 897.460938 444.664062 898.410156 447.011719 899.410156 C 454.800781 902.738281 463.628906 906.519531 465.453125 912.460938 C 466.378906 915.46875 465.527344 918.96875 462.84375 923.148438 L 462.464844 923.738281 L 462.539062 924.429688 C 463.609375 934.859375 464.808594 945.371094 465.964844 955.539062 C 466.867188 963.46875 467.796875 971.660156 468.667969 979.800781 L 468.148438 979.910156 L 468.261719 981.640625 C 470.65625 1017.851562 497.632812 1042.109375 518.132812 1057.320312 C 518.417969 1067.449219 524.246094 1073.789062 529.890625 1079.921875 C 534.492188 1084.921875 538.839844 1089.640625 540.492188 1096.378906 L 540.878906 1097.960938 L 542.507812 1097.898438 C 547.328125 1097.71875 552.238281 1097.621094 556.984375 1097.53125 C 561.140625 1097.441406 565.417969 1097.351562 569.664062 1097.210938 C 570.136719 1100.878906 570.507812 1104.140625 570.839844 1107.058594 C 573.714844 1132.351562 574.925781 1132.46875 605.960938 1135.589844 L 607.730469 1135.769531 C 609.15625 1138.21875 610.65625 1140.671875 612.113281 1143.039062 C 619.476562 1155.078125 627.089844 1167.519531 627.476562 1182.050781 L 627.507812 1183.269531 L 628.609375 1183.800781 C 645.449219 1191.871094 657.96875 1203.691406 668.003906 1220.96875 L 668.210938 1221.320312 L 668.535156 1221.570312 C 675.59375 1226.859375 682.773438 1232.160156 689.714844 1237.289062 C 696.765625 1242.511719 704.050781 1247.890625 711.234375 1253.28125 C 710.96875 1280.589844 722.878906 1310.601562 757.109375 1314.730469 C 766.328125 1335.359375 783.214844 1349.671875 799.558594 1363.511719 C 803.152344 1366.558594 806.871094 1369.699219 810.457031 1372.878906 C 816.589844 1387.53125 826.410156 1399.929688 840.460938 1410.761719 C 847.285156 1419.699219 854.21875 1428.871094 860.925781 1437.738281 C 867.324219 1446.199219 873.71875 1454.660156 880.113281 1463.050781 L 881.5625 1464.949219 L 883.179688 1463.191406 C 887.003906 1459.011719 890.144531 1459.871094 896.261719 1462.921875 L 896.824219 1463.480469 C 908.164062 1474.808594 919.886719 1486.519531 931.566406 1497.890625 L 932.226562 1498.539062 L 933.144531 1498.449219 C 971.292969 1494.949219 997.671875 1499.699219 1002.359375 1534.179688 C 997.128906 1549.359375 992.554688 1562.28125 987.964844 1574.800781 L 987.652344 1575.660156 L 988.089844 1576.449219 C 998.253906 1594.980469 1008.371094 1613.960938 1018.148438 1632.320312 C 1021.109375 1637.878906 1024.070312 1643.441406 1027.019531 1648.96875 C 1029.421875 1671.800781 1033.648438 1673.300781 1050.890625 1675.921875 C 1053.128906 1676.261719 1055.648438 1676.640625 1058.429688 1677.121094 C 1068.46875 1683.488281 1075.390625 1692.160156 1081.410156 1705.949219 C 1074.800781 1725.019531 1109.828125 1743.519531 1140.78125 1759.859375 C 1155.890625 1767.839844 1170.171875 1775.378906 1176.789062 1781.621094 L 1176.808594 1781.640625 L 1176.679688 1781.808594 L 1178.191406 1783.011719 C 1190.910156 1793.179688 1194.570312 1807.570312 1197.21875 1821.449219 L 1197.28125 1821.75 L 1197.421875 1822.019531 C 1205.019531 1836.171875 1212.609375 1850.320312 1220.179688 1864.46875 C 1213.980469 1866.960938 1208.128906 1869.601562 1202.449219 1872.160156 C 1187.011719 1879.128906 1172.429688 1885.710938 1155.949219 1886.660156 L 1150.558594 1886.96875 L 1154.859375 1890.25 C 1158.660156 1893.148438 1162.449219 1896.179688 1166.121094 1899.121094 C 1166.730469 1899.609375 1167.339844 1900.101562 1167.960938 1900.589844 C 1165.898438 1899.871094 1163.851562 1899.140625 1161.828125 1898.421875 C 1156.308594 1896.46875 1150.609375 1894.449219 1145 1892.53125 L 1143.320312 1896.140625 C 1148.511719 1899.269531 1154.089844 1901.898438 1159.480469 1904.441406 C 1171.511719 1910.109375 1182.871094 1915.460938 1190.621094 1925.949219 L 1192.371094 1928.320312 L 1193.929688 1925.828125 C 1203.269531 1910.929688 1210.570312 1903.691406 1217.578125 1902.359375 C 1225.878906 1900.789062 1234.519531 1907.171875 1247.601562 1916.820312 C 1250.730469 1919.140625 1253.96875 1921.53125 1257.558594 1924.070312 L 1259.191406 1925.230469 L 1260.351562 1923.589844 C 1264.78125 1917.289062 1269.199219 1911.300781 1273.488281 1905.5 C 1285.441406 1913.828125 1291.121094 1921.539062 1289.269531 1938.210938 L 1289.21875 1938.621094 L 1289.339844 1939.011719 C 1294.261719 1955.210938 1300.941406 1958.691406 1305.351562 1960.988281 C 1309.351562 1963.070312 1311 1963.929688 1307.460938 1977.101562 L 1306.960938 1978.960938 L 1308.789062 1979.53125 C 1311.980469 1980.519531 1315.25 1981.351562 1318.421875 1982.148438 C 1329.96875 1985.058594 1340.878906 1987.808594 1347.609375 1998.050781 L 1348.171875 1998.898438 L 1349.179688 1998.949219 C 1358.289062 1999.421875 1361.148438 2004.148438 1364.089844 2014.578125 L 1364.460938 2015.878906 L 1365.789062 2016.03125 C 1380.039062 2017.628906 1391.109375 2026.378906 1402.839844 2035.640625 C 1405.761719 2037.949219 1408.769531 2040.328125 1411.808594 2042.558594 C 1412.171875 2045.078125 1411.910156 2048.140625 1411.648438 2051.109375 C 1411.460938 2053.28125 1411.269531 2055.519531 1411.300781 2057.640625 L 1411.328125 2059.03125 L 1412.628906 2059.488281 C 1414.921875 2060.308594 1417.148438 2060.960938 1419.300781 2061.601562 C 1428.789062 2064.398438 1435.660156 2066.421875 1437.210938 2079.140625 L 1437.359375 2080.371094 L 1438.539062 2080.78125 C 1441.179688 2081.699219 1444.460938 2081.039062 1447.640625 2080.398438 C 1448.921875 2080.140625 1450.140625 2079.890625 1451.25 2079.761719 C 1458.039062 2086.929688 1464.5 2095.21875 1470.75 2103.238281 C 1475.199219 2108.949219 1479.800781 2114.859375 1484.519531 2120.359375 L 1485.378906 2121.371094 L 1486.648438 2120.960938 C 1488.261719 2120.441406 1490.28125 2119.96875 1492.429688 2119.480469 C 1500.320312 2117.679688 1510.140625 2115.449219 1512.929688 2107.53125 L 1513.109375 2107.03125 C 1521.738281 2106.011719 1530.058594 2104.800781 1538.828125 2103.511719 L 1539.730469 2103.378906 C 1545.578125 2115.808594 1555.578125 2124.628906 1565.269531 2133.160156 C 1568.820312 2136.289062 1572.488281 2139.53125 1575.871094 2142.878906 L 1576.601562 2143.601562 L 1577.609375 2143.429688 C 1584.140625 2142.328125 1590.980469 2141.21875 1597.820312 2140.109375 L 1599.011719 2139.910156 L 1599.46875 2138.988281 C 1605.550781 2126.78125 1613.800781 2121.601562 1627.941406 2121.121094 L 1632.410156 2120.96875 L 1629.320312 2117.738281 C 1618.621094 2106.550781 1609.871094 2096.949219 1611.140625 2092.859375 C 1612.289062 2089.160156 1622.398438 2087.058594 1637.691406 2083.878906 C 1639.601562 2083.480469 1641.609375 2083.070312 1643.710938 2082.621094 L 1645.570312 2082.230469 L 1645.28125 2080.351562 C 1643.898438 2071.648438 1642.738281 2062.621094 1641.621094 2053.878906 L 1641.128906 2050.109375 C 1645.03125 2042.609375 1649.089844 2034.199219 1639.921875 2026.761719 L 1639.191406 2026.171875 L 1638.28125 2026.339844 C 1618.601562 2030.101562 1617.730469 2028.21875 1609.390625 2010.21875 L 1608.980469 2009.328125 L 1608.03125 2009.109375 C 1600.121094 2007.28125 1600.269531 2004.960938 1600.601562 1999.890625 C 1600.839844 1996.03125 1601.171875 1990.890625 1597.609375 1984.988281 C 1609.53125 1979.628906 1608.988281 1973.960938 1607.140625 1965.421875 C 1605.078125 1955.921875 1602.25 1942.898438 1619.359375 1919.171875 L 1620.230469 1917.960938 L 1619.320312 1916.78125 C 1616.179688 1912.691406 1606.070312 1898.601562 1608.070312 1888.78125 C 1608.691406 1885.71875 1610.449219 1883.410156 1613.441406 1881.730469 L 1614.101562 1881.359375 L 1614.351562 1880.628906 C 1632.78125 1826.261719 1640.789062 1828.28125 1658.359375 1832.699219 C 1670.511719 1835.75 1687.160156 1839.941406 1713.359375 1828.46875 L 1715.011719 1827.738281 L 1714.460938 1826.019531 C 1710.640625 1814.238281 1706.898438 1804.21875 1703.601562 1795.378906 C 1687.820312 1753.078125 1682.5 1738.828125 1725.980469 1688.019531 L 1727.230469 1686.550781 L 1725.808594 1685.238281 C 1715.128906 1675.421875 1714.859375 1670.988281 1714.660156 1667.761719 C 1714.609375 1666.960938 1714.539062 1666.238281 1714.398438 1665.550781 C 1721.011719 1661.191406 1727.289062 1656.601562 1733.359375 1652.160156 C 1751.890625 1638.609375 1769.398438 1625.808594 1792.738281 1622.121094 L 1795.191406 1621.730469 L 1794.289062 1619.421875 C 1793.089844 1616.339844 1791.898438 1613.179688 1790.710938 1610.019531 C 1789.699219 1607.359375 1788.699219 1604.710938 1787.691406 1602.089844 C 1803.691406 1597.179688 1811.78125 1595.191406 1816.25 1595.03125 C 1820.171875 1594.871094 1820.921875 1595.980469 1822.859375 1598.921875 C 1825.359375 1602.710938 1829.101562 1608.359375 1841.96875 1613.921875 C 1841.769531 1616.058594 1841.488281 1618.179688 1841.21875 1620.238281 C 1839.691406 1631.960938 1838.109375 1644.058594 1854.011719 1648 C 1852.859375 1658.5 1859.410156 1664.191406 1866.308594 1670.199219 C 1866.929688 1670.738281 1867.558594 1671.28125 1868.191406 1671.839844 L 1869.910156 1673.359375 L 1871.179688 1671.449219 C 1881.128906 1656.449219 1891.570312 1646.25 1910.160156 1645.21875 L 1911.609375 1645.140625 L 1911.980469 1643.730469 C 1917.78125 1621.691406 1906.308594 1605.511719 1895.21875 1589.859375 C 1892.519531 1586.058594 1889.738281 1582.121094 1887.210938 1578.128906 C 1885.570312 1572.109375 1883.929688 1566.050781 1882.289062 1559.96875 C 1879.71875 1550.5 1877.148438 1541 1874.578125 1531.609375 L 1874 1529.5 L 1871.949219 1530.269531 C 1867.769531 1531.820312 1864.699219 1531.878906 1862.550781 1530.429688 C 1857.628906 1527.128906 1857.28125 1515.738281 1856.96875 1505.691406 C 1856.609375 1493.898438 1856.269531 1482.761719 1849.339844 1480.050781 L 1847.761719 1479.429688 L 1846.890625 1480.878906 C 1845.75 1482.808594 1844.679688 1484.648438 1843.609375 1486.488281 C 1843 1487.539062 1842.390625 1488.589844 1841.769531 1489.660156 C 1839.980469 1487.160156 1839.410156 1484.859375 1840.078125 1482.808594 C 1841.429688 1478.671875 1848 1474.929688 1856.808594 1473.300781 L 1857.75 1473.121094 L 1858.210938 1472.28125 C 1859.859375 1469.230469 1861.511719 1466.101562 1863.160156 1462.96875 C 1864.410156 1460.589844 1865.660156 1458.21875 1866.921875 1455.871094 C 1869.558594 1457.921875 1872.078125 1459.320312 1874.761719 1458.871094 C 1876.800781 1458.519531 1878.609375 1457.128906 1880.289062 1454.621094 C 1894.5 1454.289062 1905.261719 1462.679688 1916.628906 1471.550781 C 1921.769531 1475.570312 1927.089844 1479.710938 1932.730469 1482.960938 L 1934.289062 1483.851562 L 1935.351562 1482.390625 C 1946.96875 1466.261719 1961 1469.25 1977.25 1472.71875 C 1982.238281 1473.789062 1987.390625 1474.878906 1992.699219 1475.480469 L 1994.898438 1475.730469 L 1994.921875 1473.511719 C 1995.199219 1445.820312 1997.148438 1433.070312 2001.660156 1429.488281 C 2004.289062 1427.410156 2008.359375 1428.308594 2013.988281 1429.570312 C 2023.78125 1431.75 2037.101562 1434.71875 2054.941406 1425.058594 C 2058.53125 1428.929688 2061.21875 1432.78125 2063.621094 1436.210938 C 2067.808594 1442.210938 2071.121094 1446.941406 2076.660156 1447.839844 C 2081.558594 1448.628906 2087.640625 1446.140625 2096.289062 1439.769531 C 2098.851562 1439.75 2101.601562 1440.121094 2104.25 1440.5 C 2111.398438 1441.5 2119.511719 1442.648438 2124.660156 1434.75 L 2125.890625 1432.871094 L 2123.878906 1431.871094 C 2116.628906 1428.269531 2117.800781 1424.621094 2121.410156 1416 L 2121.910156 1414.808594 L 2121.511719 1414 C 2120.898438 1412.738281 2120.230469 1411.570312 2119.570312 1410.429688 C 2118.078125 1407.851562 2116.800781 1405.621094 2117.269531 1404.050781 C 2117.511719 1403.28125 2118.230469 1402.5 2119.410156 1401.75 C 2120.078125 1402.550781 2120.761719 1403.320312 2121.429688 1404.078125 C 2122.460938 1405.25 2123.441406 1406.351562 2124.339844 1407.539062 L 2125.511719 1409.070312 L 2127.078125 1407.96875 C 2137.851562 1400.441406 2133.390625 1381.378906 2129.449219 1364.570312 C 2127.429688 1355.96875 2125.519531 1347.839844 2125.75 1342.101562 L 2125.789062 1340.988281 L 2124.878906 1340.371094 C 2108.5 1329.199219 2105.148438 1322.648438 2102.191406 1316.859375 C 2098.558594 1309.761719 2095.679688 1304.128906 2072.851562 1294.769531 C 2069.441406 1260 2057.429688 1238.199219 2036.179688 1228.199219 C 2036.011719 1218.210938 2034.339844 1209.128906 2021.148438 1205.558594 C 2021.21875 1196.101562 2014.699219 1190.878906 2008.378906 1185.828125 C 2007.660156 1185.25 2006.929688 1184.660156 2006.199219 1184.070312 L 2004.820312 1182.441406 C 1994.609375 1170.441406 1990.78125 1160.269531 1991.839844 1147.261719 C 2001.25 1155.910156 2012.058594 1159.851562 2025.578125 1159.578125 C 2027.191406 1160.578125 2028.738281 1161.78125 2030.371094 1163.039062 C 2035.089844 1166.691406 2040.410156 1170.808594 2047.421875 1169.210938 C 2049.660156 1170.570312 2051.890625 1172.71875 2054.058594 1174.800781 C 2059.421875 1179.929688 2066.019531 1186.261719 2073.75 1179.949219 C 2086.660156 1187 2101.398438 1186.710938 2115.648438 1186.429688 C 2122.238281 1186.300781 2129.039062 1186.171875 2135.460938 1186.78125 L 2136.96875 1186.929688 L 2137.519531 1185.519531 C 2140.789062 1177.148438 2146.890625 1171.238281 2156.71875 1166.898438 L 2158.421875 1166.148438 L 2157.789062 1164.398438 C 2156.851562 1161.75 2156.820312 1159.621094 2157.691406 1157.898438 C 2159.621094 1154.070312 2166.050781 1152.128906 2172.261719 1150.25 C 2176.558594 1148.949219 2181 1147.609375 2184.28125 1145.550781 L 2185.691406 1144.671875 L 2185.078125 1143.121094 C 2181.648438 1134.511719 2182.019531 1128.441406 2186.371094 1122.171875 L 2189.050781 1118.308594 "/>
</svg>
