<?xml version="1.0" encoding="UTF-8"?>
<svg xmlns="http://www.w3.org/2000/svg" xmlns:xlink="http://www.w3.org/1999/xlink" width="3000" height="2001" viewBox="0 0 3000 2001">
<defs>
<clipPath id="clip-0">
<path clip-rule="nonzero" d="M 77.15625 0 L 138.429688 0 L 138.429688 2001 L 77.15625 2001 Z M 77.15625 0 "/>
</clipPath>
<linearGradient id="linear-pattern-0" gradientUnits="userSpaceOnUse" x1="0.0740637" y1="0" x2="0.895133" y2="0" gradientTransform="matrix(33.3018, 2437.63, -2437.63, 33.3018, 92.2729, -180.78)">
<stop offset="0" stop-color="rgb(98.429871%, 98.429871%, 98.429871%)" stop-opacity="1"/>
<stop offset="0.5" stop-color="rgb(98.429871%, 98.429871%, 98.429871%)" stop-opacity="1"/>
<stop offset="0.5625" stop-color="rgb(98.429871%, 98.429871%, 98.429871%)" stop-opacity="1"/>
<stop offset="0.59375" stop-color="rgb(98.376465%, 98.376465%, 98.376465%)" stop-opacity="1"/>
<stop offset="0.625" stop-color="rgb(98.179626%, 98.179626%, 98.179626%)" stop-opacity="1"/>
<stop offset="0.75" stop-color="rgb(98.03772%, 98.03772%, 98.03772%)" stop-opacity="1"/>
<stop offset="1" stop-color="rgb(98.03772%, 98.03772%, 98.03772%)" stop-opacity="1"/>
</linearGradient>
<clipPath id="clip-1">
<path clip-rule="nonzero" d="M 209.746094 0 L 271.019531 0 L 271.019531 2001 L 209.746094 2001 Z M 209.746094 0 "/>
</clipPath>
<linearGradient id="linear-pattern-1" gradientUnits="userSpaceOnUse" x1="0.0740637" y1="0" x2="0.895133" y2="0" gradientTransform="matrix(33.3018, 2437.63, -2437.63, 33.3018, 224.864, -180.78)">
<stop offset="0" stop-color="rgb(98.429871%, 98.429871%, 98.429871%)" stop-opacity="1"/>
<stop offset="0.5" stop-color="rgb(98.429871%, 98.429871%, 98.429871%)" stop-opacity="1"/>
<stop offset="0.5625" stop-color="rgb(98.429871%, 98.429871%, 98.429871%)" stop-opacity="1"/>
<stop offset="0.59375" stop-color="rgb(98.376465%, 98.376465%, 98.376465%)" stop-opacity="1"/>
<stop offset="0.625" stop-color="rgb(98.179626%, 98.179626%, 98.179626%)" stop-opacity="1"/>
<stop offset="0.75" stop-color="rgb(98.03772%, 98.03772%, 98.03772%)" stop-opacity="1"/>
<stop offset="1" stop-color="rgb(98.03772%, 98.03772%, 98.03772%)" stop-opacity="1"/>
</linearGradient>
<clipPath id="clip-2">
<path clip-rule="nonzero" d="M 342.339844 0 L 403.613281 0 L 403.613281 2001 L 342.339844 2001 Z M 342.339844 0 "/>
</clipPath>
<linearGradient id="linear-pattern-2" gradientUnits="userSpaceOnUse" x1="0.0740637" y1="0" x2="0.895133" y2="0" gradientTransform="matrix(33.3018, 2437.63, -2437.63, 33.3018, 357.455, -180.78)">
<stop offset="0" stop-color="rgb(98.429871%, 98.429871%, 98.429871%)" stop-opacity="1"/>
<stop offset="0.5" stop-color="rgb(98.429871%, 98.429871%, 98.429871%)" stop-opacity="1"/>
<stop offset="0.5625" stop-color="rgb(98.429871%, 98.429871%, 98.429871%)" stop-opacity="1"/>
<stop offset="0.59375" stop-color="rgb(98.376465%, 98.376465%, 98.376465%)" stop-opacity="1"/>
<stop offset="0.625" stop-color="rgb(98.179626%, 98.179626%, 98.179626%)" stop-opacity="1"/>
<stop offset="0.75" stop-color="rgb(98.03772%, 98.03772%, 98.03772%)" stop-opacity="1"/>
<stop offset="1" stop-color="rgb(98.03772%, 98.03772%, 98.03772%)" stop-opacity="1"/>
</linearGradient>
<clipPath id="clip-3">
<path clip-rule="nonzero" d="M 474.929688 0 L 536.203125 0 L 536.203125 2001 L 474.929688 2001 Z M 474.929688 0 "/>
</clipPath>
<linearGradient id="linear-pattern-3" gradientUnits="userSpaceOnUse" x1="0.0740637" y1="0" x2="0.895133" y2="0" gradientTransform="matrix(33.3018, 2437.63, -2437.63, 33.3018, 490.046, -180.78)">
<stop offset="0" stop-color="rgb(98.429871%, 98.429871%, 98.429871%)" stop-opacity="1"/>
<stop offset="0.5" stop-color="rgb(98.429871%, 98.429871%, 98.429871%)" stop-opacity="1"/>
<stop offset="0.5625" stop-color="rgb(98.429871%, 98.429871%, 98.429871%)" stop-opacity="1"/>
<stop offset="0.59375" stop-color="rgb(98.376465%, 98.376465%, 98.376465%)" stop-opacity="1"/>
<stop offset="0.625" stop-color="rgb(98.179626%, 98.179626%, 98.179626%)" stop-opacity="1"/>
<stop offset="0.75" stop-color="rgb(98.03772%, 98.03772%, 98.03772%)" stop-opacity="1"/>
<stop offset="1" stop-color="rgb(98.03772%, 98.03772%, 98.03772%)" stop-opacity="1"/>
</linearGradient>
<clipPath id="clip-4">
<path clip-rule="nonzero" d="M 607.519531 0 L 668.792969 0 L 668.792969 2001 L 607.519531 2001 Z M 607.519531 0 "/>
</clipPath>
<linearGradient id="linear-pattern-4" gradientUnits="userSpaceOnUse" x1="0.0740637" y1="0" x2="0.895133" y2="0" gradientTransform="matrix(33.3018, 2437.63, -2437.63, 33.3018, 622.638, -180.78)">
<stop offset="0" stop-color="rgb(98.429871%, 98.429871%, 98.429871%)" stop-opacity="1"/>
<stop offset="0.5" stop-color="rgb(98.429871%, 98.429871%, 98.429871%)" stop-opacity="1"/>
<stop offset="0.5625" stop-color="rgb(98.429871%, 98.429871%, 98.429871%)" stop-opacity="1"/>
<stop offset="0.59375" stop-color="rgb(98.376465%, 98.376465%, 98.376465%)" stop-opacity="1"/>
<stop offset="0.625" stop-color="rgb(98.179626%, 98.179626%, 98.179626%)" stop-opacity="1"/>
<stop offset="0.75" stop-color="rgb(98.03772%, 98.03772%, 98.03772%)" stop-opacity="1"/>
<stop offset="1" stop-color="rgb(98.03772%, 98.03772%, 98.03772%)" stop-opacity="1"/>
</linearGradient>
<clipPath id="clip-5">
<path clip-rule="nonzero" d="M 740.113281 0 L 801.386719 0 L 801.386719 2001 L 740.113281 2001 Z M 740.113281 0 "/>
</clipPath>
<linearGradient id="linear-pattern-5" gradientUnits="userSpaceOnUse" x1="0.0740637" y1="0" x2="0.895133" y2="0" gradientTransform="matrix(33.3018, 2437.63, -2437.63, 33.3018, 755.229, -180.78)">
<stop offset="0" stop-color="rgb(98.429871%, 98.429871%, 98.429871%)" stop-opacity="1"/>
<stop offset="0.5" stop-color="rgb(98.429871%, 98.429871%, 98.429871%)" stop-opacity="1"/>
<stop offset="0.5625" stop-color="rgb(98.429871%, 98.429871%, 98.429871%)" stop-opacity="1"/>
<stop offset="0.59375" stop-color="rgb(98.376465%, 98.376465%, 98.376465%)" stop-opacity="1"/>
<stop offset="0.625" stop-color="rgb(98.179626%, 98.179626%, 98.179626%)" stop-opacity="1"/>
<stop offset="0.75" stop-color="rgb(98.03772%, 98.03772%, 98.03772%)" stop-opacity="1"/>
<stop offset="1" stop-color="rgb(98.03772%, 98.03772%, 98.03772%)" stop-opacity="1"/>
</linearGradient>
<clipPath id="clip-6">
<path clip-rule="nonzero" d="M 872.703125 0 L 933.976562 0 L 933.976562 2001 L 872.703125 2001 Z M 872.703125 0 "/>
</clipPath>
<linearGradient id="linear-pattern-6" gradientUnits="userSpaceOnUse" x1="0.0740637" y1="0" x2="0.895133" y2="0" gradientTransform="matrix(33.3018, 2437.63, -2437.63, 33.3018, 887.82, -180.78)">
<stop offset="0" stop-color="rgb(98.429871%, 98.429871%, 98.429871%)" stop-opacity="1"/>
<stop offset="0.5" stop-color="rgb(98.429871%, 98.429871%, 98.429871%)" stop-opacity="1"/>
<stop offset="0.5625" stop-color="rgb(98.429871%, 98.429871%, 98.429871%)" stop-opacity="1"/>
<stop offset="0.59375" stop-color="rgb(98.376465%, 98.376465%, 98.376465%)" stop-opacity="1"/>
<stop offset="0.625" stop-color="rgb(98.179626%, 98.179626%, 98.179626%)" stop-opacity="1"/>
<stop offset="0.75" stop-color="rgb(98.03772%, 98.03772%, 98.03772%)" stop-opacity="1"/>
<stop offset="1" stop-color="rgb(98.03772%, 98.03772%, 98.03772%)" stop-opacity="1"/>
</linearGradient>
<clipPath id="clip-7">
<path clip-rule="nonzero" d="M 1005.289062 0 L 1066.570312 0 L 1066.570312 2001 L 1005.289062 2001 Z M 1005.289062 0 "/>
</clipPath>
<linearGradient id="linear-pattern-7" gradientUnits="userSpaceOnUse" x1="0.0740636" y1="0" x2="0.895133" y2="0" gradientTransform="matrix(33.3018, 2437.63, -2437.63, 33.3018, 1020.41, -180.78)">
<stop offset="0" stop-color="rgb(98.429871%, 98.429871%, 98.429871%)" stop-opacity="1"/>
<stop offset="0.5" stop-color="rgb(98.429871%, 98.429871%, 98.429871%)" stop-opacity="1"/>
<stop offset="0.5625" stop-color="rgb(98.429871%, 98.429871%, 98.429871%)" stop-opacity="1"/>
<stop offset="0.59375" stop-color="rgb(98.376465%, 98.376465%, 98.376465%)" stop-opacity="1"/>
<stop offset="0.625" stop-color="rgb(98.179626%, 98.179626%, 98.179626%)" stop-opacity="1"/>
<stop offset="0.75" stop-color="rgb(98.03772%, 98.03772%, 98.03772%)" stop-opacity="1"/>
<stop offset="1" stop-color="rgb(98.03772%, 98.03772%, 98.03772%)" stop-opacity="1"/>
</linearGradient>
<clipPath id="clip-8">
<path clip-rule="nonzero" d="M 1137.890625 0 L 1199.160156 0 L 1199.160156 2001 L 1137.890625 2001 Z M 1137.890625 0 "/>
</clipPath>
<linearGradient id="linear-pattern-8" gradientUnits="userSpaceOnUse" x1="0.0740637" y1="0" x2="0.895133" y2="0" gradientTransform="matrix(33.3018, 2437.63, -2437.63, 33.3018, 1153, -180.78)">
<stop offset="0" stop-color="rgb(98.429871%, 98.429871%, 98.429871%)" stop-opacity="1"/>
<stop offset="0.5" stop-color="rgb(98.429871%, 98.429871%, 98.429871%)" stop-opacity="1"/>
<stop offset="0.5625" stop-color="rgb(98.429871%, 98.429871%, 98.429871%)" stop-opacity="1"/>
<stop offset="0.59375" stop-color="rgb(98.376465%, 98.376465%, 98.376465%)" stop-opacity="1"/>
<stop offset="0.625" stop-color="rgb(98.179626%, 98.179626%, 98.179626%)" stop-opacity="1"/>
<stop offset="0.75" stop-color="rgb(98.03772%, 98.03772%, 98.03772%)" stop-opacity="1"/>
<stop offset="1" stop-color="rgb(98.03772%, 98.03772%, 98.03772%)" stop-opacity="1"/>
</linearGradient>
<clipPath id="clip-9">
<path clip-rule="nonzero" d="M 1270.480469 0 L 1331.75 0 L 1331.75 2001 L 1270.480469 2001 Z M 1270.480469 0 "/>
</clipPath>
<linearGradient id="linear-pattern-9" gradientUnits="userSpaceOnUse" x1="0.0740637" y1="0" x2="0.895133" y2="0" gradientTransform="matrix(33.3018, 2437.63, -2437.63, 33.3018, 1285.59, -180.78)">
<stop offset="0" stop-color="rgb(98.429871%, 98.429871%, 98.429871%)" stop-opacity="1"/>
<stop offset="0.5" stop-color="rgb(98.429871%, 98.429871%, 98.429871%)" stop-opacity="1"/>
<stop offset="0.5625" stop-color="rgb(98.429871%, 98.429871%, 98.429871%)" stop-opacity="1"/>
<stop offset="0.59375" stop-color="rgb(98.376465%, 98.376465%, 98.376465%)" stop-opacity="1"/>
<stop offset="0.625" stop-color="rgb(98.179626%, 98.179626%, 98.179626%)" stop-opacity="1"/>
<stop offset="0.75" stop-color="rgb(98.03772%, 98.03772%, 98.03772%)" stop-opacity="1"/>
<stop offset="1" stop-color="rgb(98.03772%, 98.03772%, 98.03772%)" stop-opacity="1"/>
</linearGradient>
<clipPath id="clip-10">
<path clip-rule="nonzero" d="M 1403.070312 0 L 1464.339844 0 L 1464.339844 2001 L 1403.070312 2001 Z M 1403.070312 0 "/>
</clipPath>
<linearGradient id="linear-pattern-10" gradientUnits="userSpaceOnUse" x1="0.0740637" y1="0" x2="0.895133" y2="0" gradientTransform="matrix(33.3018, 2437.63, -2437.63, 33.3018, 1418.18, -180.78)">
<stop offset="0" stop-color="rgb(98.429871%, 98.429871%, 98.429871%)" stop-opacity="1"/>
<stop offset="0.5" stop-color="rgb(98.429871%, 98.429871%, 98.429871%)" stop-opacity="1"/>
<stop offset="0.5625" stop-color="rgb(98.429871%, 98.429871%, 98.429871%)" stop-opacity="1"/>
<stop offset="0.59375" stop-color="rgb(98.376465%, 98.376465%, 98.376465%)" stop-opacity="1"/>
<stop offset="0.625" stop-color="rgb(98.179626%, 98.179626%, 98.179626%)" stop-opacity="1"/>
<stop offset="0.75" stop-color="rgb(98.03772%, 98.03772%, 98.03772%)" stop-opacity="1"/>
<stop offset="1" stop-color="rgb(98.03772%, 98.03772%, 98.03772%)" stop-opacity="1"/>
</linearGradient>
<clipPath id="clip-11">
<path clip-rule="nonzero" d="M 1535.660156 0 L 1596.929688 0 L 1596.929688 2001 L 1535.660156 2001 Z M 1535.660156 0 "/>
</clipPath>
<linearGradient id="linear-pattern-11" gradientUnits="userSpaceOnUse" x1="0.0740636" y1="0" x2="0.895133" y2="0" gradientTransform="matrix(33.3018, 2437.63, -2437.63, 33.3018, 1550.78, -180.78)">
<stop offset="0" stop-color="rgb(98.429871%, 98.429871%, 98.429871%)" stop-opacity="1"/>
<stop offset="0.5" stop-color="rgb(98.429871%, 98.429871%, 98.429871%)" stop-opacity="1"/>
<stop offset="0.5625" stop-color="rgb(98.429871%, 98.429871%, 98.429871%)" stop-opacity="1"/>
<stop offset="0.59375" stop-color="rgb(98.376465%, 98.376465%, 98.376465%)" stop-opacity="1"/>
<stop offset="0.625" stop-color="rgb(98.179626%, 98.179626%, 98.179626%)" stop-opacity="1"/>
<stop offset="0.75" stop-color="rgb(98.03772%, 98.03772%, 98.03772%)" stop-opacity="1"/>
<stop offset="1" stop-color="rgb(98.03772%, 98.03772%, 98.03772%)" stop-opacity="1"/>
</linearGradient>
<clipPath id="clip-12">
<path clip-rule="nonzero" d="M 1668.25 0 L 1729.519531 0 L 1729.519531 2001 L 1668.25 2001 Z M 1668.25 0 "/>
</clipPath>
<linearGradient id="linear-pattern-12" gradientUnits="userSpaceOnUse" x1="0.0740636" y1="0" x2="0.895133" y2="0" gradientTransform="matrix(33.3018, 2437.63, -2437.63, 33.3018, 1683.37, -180.78)">
<stop offset="0" stop-color="rgb(98.429871%, 98.429871%, 98.429871%)" stop-opacity="1"/>
<stop offset="0.5" stop-color="rgb(98.429871%, 98.429871%, 98.429871%)" stop-opacity="1"/>
<stop offset="0.5625" stop-color="rgb(98.429871%, 98.429871%, 98.429871%)" stop-opacity="1"/>
<stop offset="0.59375" stop-color="rgb(98.376465%, 98.376465%, 98.376465%)" stop-opacity="1"/>
<stop offset="0.625" stop-color="rgb(98.179626%, 98.179626%, 98.179626%)" stop-opacity="1"/>
<stop offset="0.75" stop-color="rgb(98.03772%, 98.03772%, 98.03772%)" stop-opacity="1"/>
<stop offset="1" stop-color="rgb(98.03772%, 98.03772%, 98.03772%)" stop-opacity="1"/>
</linearGradient>
<clipPath id="clip-13">
<path clip-rule="nonzero" d="M 1800.839844 0 L 1862.109375 0 L 1862.109375 2001 L 1800.839844 2001 Z M 1800.839844 0 "/>
</clipPath>
<linearGradient id="linear-pattern-13" gradientUnits="userSpaceOnUse" x1="0.0740636" y1="0" x2="0.895133" y2="0" gradientTransform="matrix(33.3018, 2437.63, -2437.63, 33.3018, 1815.96, -180.78)">
<stop offset="0" stop-color="rgb(98.429871%, 98.429871%, 98.429871%)" stop-opacity="1"/>
<stop offset="0.5" stop-color="rgb(98.429871%, 98.429871%, 98.429871%)" stop-opacity="1"/>
<stop offset="0.5625" stop-color="rgb(98.429871%, 98.429871%, 98.429871%)" stop-opacity="1"/>
<stop offset="0.59375" stop-color="rgb(98.376465%, 98.376465%, 98.376465%)" stop-opacity="1"/>
<stop offset="0.625" stop-color="rgb(98.179626%, 98.179626%, 98.179626%)" stop-opacity="1"/>
<stop offset="0.75" stop-color="rgb(98.03772%, 98.03772%, 98.03772%)" stop-opacity="1"/>
<stop offset="1" stop-color="rgb(98.03772%, 98.03772%, 98.03772%)" stop-opacity="1"/>
</linearGradient>
<clipPath id="clip-14">
<path clip-rule="nonzero" d="M 1933.429688 0 L 1994.699219 0 L 1994.699219 2001 L 1933.429688 2001 Z M 1933.429688 0 "/>
</clipPath>
<linearGradient id="linear-pattern-14" gradientUnits="userSpaceOnUse" x1="0.0740636" y1="0" x2="0.895133" y2="0" gradientTransform="matrix(33.3018, 2437.63, -2437.63, 33.3018, 1948.55, -180.78)">
<stop offset="0" stop-color="rgb(98.429871%, 98.429871%, 98.429871%)" stop-opacity="1"/>
<stop offset="0.5" stop-color="rgb(98.429871%, 98.429871%, 98.429871%)" stop-opacity="1"/>
<stop offset="0.5625" stop-color="rgb(98.429871%, 98.429871%, 98.429871%)" stop-opacity="1"/>
<stop offset="0.59375" stop-color="rgb(98.376465%, 98.376465%, 98.376465%)" stop-opacity="1"/>
<stop offset="0.625" stop-color="rgb(98.179626%, 98.179626%, 98.179626%)" stop-opacity="1"/>
<stop offset="0.75" stop-color="rgb(98.03772%, 98.03772%, 98.03772%)" stop-opacity="1"/>
<stop offset="1" stop-color="rgb(98.03772%, 98.03772%, 98.03772%)" stop-opacity="1"/>
</linearGradient>
<clipPath id="clip-15">
<path clip-rule="nonzero" d="M 2066.019531 0 L 2127.300781 0 L 2127.300781 2001 L 2066.019531 2001 Z M 2066.019531 0 "/>
</clipPath>
<linearGradient id="linear-pattern-15" gradientUnits="userSpaceOnUse" x1="0.0740636" y1="0" x2="0.895133" y2="0" gradientTransform="matrix(33.3018, 2437.63, -2437.63, 33.3018, 2081.14, -180.78)">
<stop offset="0" stop-color="rgb(98.429871%, 98.429871%, 98.429871%)" stop-opacity="1"/>
<stop offset="0.5" stop-color="rgb(98.429871%, 98.429871%, 98.429871%)" stop-opacity="1"/>
<stop offset="0.5625" stop-color="rgb(98.429871%, 98.429871%, 98.429871%)" stop-opacity="1"/>
<stop offset="0.59375" stop-color="rgb(98.376465%, 98.376465%, 98.376465%)" stop-opacity="1"/>
<stop offset="0.625" stop-color="rgb(98.179626%, 98.179626%, 98.179626%)" stop-opacity="1"/>
<stop offset="0.75" stop-color="rgb(98.03772%, 98.03772%, 98.03772%)" stop-opacity="1"/>
<stop offset="1" stop-color="rgb(98.03772%, 98.03772%, 98.03772%)" stop-opacity="1"/>
</linearGradient>
<clipPath id="clip-16">
<path clip-rule="nonzero" d="M 2198.621094 0 L 2259.890625 0 L 2259.890625 2001 L 2198.621094 2001 Z M 2198.621094 0 "/>
</clipPath>
<linearGradient id="linear-pattern-16" gradientUnits="userSpaceOnUse" x1="0.0740637" y1="0" x2="0.895133" y2="0" gradientTransform="matrix(33.3018, 2437.63, -2437.63, 33.3018, 2213.73, -180.78)">
<stop offset="0" stop-color="rgb(98.429871%, 98.429871%, 98.429871%)" stop-opacity="1"/>
<stop offset="0.5" stop-color="rgb(98.429871%, 98.429871%, 98.429871%)" stop-opacity="1"/>
<stop offset="0.5625" stop-color="rgb(98.429871%, 98.429871%, 98.429871%)" stop-opacity="1"/>
<stop offset="0.59375" stop-color="rgb(98.376465%, 98.376465%, 98.376465%)" stop-opacity="1"/>
<stop offset="0.625" stop-color="rgb(98.179626%, 98.179626%, 98.179626%)" stop-opacity="1"/>
<stop offset="0.75" stop-color="rgb(98.03772%, 98.03772%, 98.03772%)" stop-opacity="1"/>
<stop offset="1" stop-color="rgb(98.03772%, 98.03772%, 98.03772%)" stop-opacity="1"/>
</linearGradient>
<clipPath id="clip-17">
<path clip-rule="nonzero" d="M 2331.210938 0 L 2392.480469 0 L 2392.480469 2001 L 2331.210938 2001 Z M 2331.210938 0 "/>
</clipPath>
<linearGradient id="linear-pattern-17" gradientUnits="userSpaceOnUse" x1="0.0740637" y1="0" x2="0.895133" y2="0" gradientTransform="matrix(33.3018, 2437.63, -2437.63, 33.3018, 2346.32, -180.78)">
<stop offset="0" stop-color="rgb(98.429871%, 98.429871%, 98.429871%)" stop-opacity="1"/>
<stop offset="0.5" stop-color="rgb(98.429871%, 98.429871%, 98.429871%)" stop-opacity="1"/>
<stop offset="0.5625" stop-color="rgb(98.429871%, 98.429871%, 98.429871%)" stop-opacity="1"/>
<stop offset="0.59375" stop-color="rgb(98.376465%, 98.376465%, 98.376465%)" stop-opacity="1"/>
<stop offset="0.625" stop-color="rgb(98.179626%, 98.179626%, 98.179626%)" stop-opacity="1"/>
<stop offset="0.75" stop-color="rgb(98.03772%, 98.03772%, 98.03772%)" stop-opacity="1"/>
<stop offset="1" stop-color="rgb(98.03772%, 98.03772%, 98.03772%)" stop-opacity="1"/>
</linearGradient>
<clipPath id="clip-18">
<path clip-rule="nonzero" d="M 2463.800781 0 L 2525.070312 0 L 2525.070312 2001 L 2463.800781 2001 Z M 2463.800781 0 "/>
</clipPath>
<linearGradient id="linear-pattern-18" gradientUnits="userSpaceOnUse" x1="0.0740637" y1="0" x2="0.895133" y2="0" gradientTransform="matrix(33.3018, 2437.63, -2437.63, 33.3018, 2478.91, -180.78)">
<stop offset="0" stop-color="rgb(98.429871%, 98.429871%, 98.429871%)" stop-opacity="1"/>
<stop offset="0.5" stop-color="rgb(98.429871%, 98.429871%, 98.429871%)" stop-opacity="1"/>
<stop offset="0.5625" stop-color="rgb(98.429871%, 98.429871%, 98.429871%)" stop-opacity="1"/>
<stop offset="0.59375" stop-color="rgb(98.376465%, 98.376465%, 98.376465%)" stop-opacity="1"/>
<stop offset="0.625" stop-color="rgb(98.179626%, 98.179626%, 98.179626%)" stop-opacity="1"/>
<stop offset="0.75" stop-color="rgb(98.03772%, 98.03772%, 98.03772%)" stop-opacity="1"/>
<stop offset="1" stop-color="rgb(98.03772%, 98.03772%, 98.03772%)" stop-opacity="1"/>
</linearGradient>
<clipPath id="clip-19">
<path clip-rule="nonzero" d="M 2596.390625 0 L 2657.660156 0 L 2657.660156 2001 L 2596.390625 2001 Z M 2596.390625 0 "/>
</clipPath>
<linearGradient id="linear-pattern-19" gradientUnits="userSpaceOnUse" x1="0.0740637" y1="0" x2="0.895133" y2="0" gradientTransform="matrix(33.3018, 2437.63, -2437.63, 33.3018, 2611.5, -180.78)">
<stop offset="0" stop-color="rgb(98.429871%, 98.429871%, 98.429871%)" stop-opacity="1"/>
<stop offset="0.5" stop-color="rgb(98.429871%, 98.429871%, 98.429871%)" stop-opacity="1"/>
<stop offset="0.5625" stop-color="rgb(98.429871%, 98.429871%, 98.429871%)" stop-opacity="1"/>
<stop offset="0.59375" stop-color="rgb(98.376465%, 98.376465%, 98.376465%)" stop-opacity="1"/>
<stop offset="0.625" stop-color="rgb(98.179626%, 98.179626%, 98.179626%)" stop-opacity="1"/>
<stop offset="0.75" stop-color="rgb(98.03772%, 98.03772%, 98.03772%)" stop-opacity="1"/>
<stop offset="1" stop-color="rgb(98.03772%, 98.03772%, 98.03772%)" stop-opacity="1"/>
</linearGradient>
<clipPath id="clip-20">
<path clip-rule="nonzero" d="M 2728.980469 0 L 2790.25 0 L 2790.25 2001 L 2728.980469 2001 Z M 2728.980469 0 "/>
</clipPath>
<linearGradient id="linear-pattern-20" gradientUnits="userSpaceOnUse" x1="0.0740636" y1="0" x2="0.895133" y2="0" gradientTransform="matrix(33.3018, 2437.63, -2437.63, 33.3018, 2744.1, -180.78)">
<stop offset="0" stop-color="rgb(98.429871%, 98.429871%, 98.429871%)" stop-opacity="1"/>
<stop offset="0.5" stop-color="rgb(98.429871%, 98.429871%, 98.429871%)" stop-opacity="1"/>
<stop offset="0.5625" stop-color="rgb(98.429871%, 98.429871%, 98.429871%)" stop-opacity="1"/>
<stop offset="0.59375" stop-color="rgb(98.376465%, 98.376465%, 98.376465%)" stop-opacity="1"/>
<stop offset="0.625" stop-color="rgb(98.179626%, 98.179626%, 98.179626%)" stop-opacity="1"/>
<stop offset="0.75" stop-color="rgb(98.03772%, 98.03772%, 98.03772%)" stop-opacity="1"/>
<stop offset="1" stop-color="rgb(98.03772%, 98.03772%, 98.03772%)" stop-opacity="1"/>
</linearGradient>
<clipPath id="clip-21">
<path clip-rule="nonzero" d="M 2861.570312 0 L 2922.839844 0 L 2922.839844 2001 L 2861.570312 2001 Z M 2861.570312 0 "/>
</clipPath>
<linearGradient id="linear-pattern-21" gradientUnits="userSpaceOnUse" x1="0.0740636" y1="0" x2="0.895133" y2="0" gradientTransform="matrix(33.3018, 2437.63, -2437.63, 33.3018, 2876.69, -180.78)">
<stop offset="0" stop-color="rgb(98.429871%, 98.429871%, 98.429871%)" stop-opacity="1"/>
<stop offset="0.5" stop-color="rgb(98.429871%, 98.429871%, 98.429871%)" stop-opacity="1"/>
<stop offset="0.5625" stop-color="rgb(98.429871%, 98.429871%, 98.429871%)" stop-opacity="1"/>
<stop offset="0.59375" stop-color="rgb(98.376465%, 98.376465%, 98.376465%)" stop-opacity="1"/>
<stop offset="0.625" stop-color="rgb(98.179626%, 98.179626%, 98.179626%)" stop-opacity="1"/>
<stop offset="0.75" stop-color="rgb(98.03772%, 98.03772%, 98.03772%)" stop-opacity="1"/>
<stop offset="1" stop-color="rgb(98.03772%, 98.03772%, 98.03772%)" stop-opacity="1"/>
</linearGradient>
</defs>
<path fill-rule="nonzero" fill="rgb(100%, 100%, 100%)" fill-opacity="1" d="M 0 2000.5 L 3000 2000.5 L 3000 0.5 L 0 0.5 Z M 0 2000.5 "/>
<rect x="-300" y="-200.1" width="3600" height="2401.2" fill="rgb(100%, 100%, 100%)" fill-opacity="1"/>
<g clip-path="url(#clip-0)">
<path fill-rule="nonzero" fill="url(#linear-pattern-0)" d="M 138.417969 -0.835938 L 49.824219 0.375 L 77.167969 2001.835938 L 165.761719 2000.625 Z M 138.417969 -0.835938 "/>
</g>
<g clip-path="url(#clip-1)">
<path fill-rule="nonzero" fill="url(#linear-pattern-1)" d="M 271.007812 -0.835938 L 182.414062 0.375 L 209.757812 2001.835938 L 298.351562 2000.625 Z M 271.007812 -0.835938 "/>
</g>
<g clip-path="url(#clip-2)">
<path fill-rule="nonzero" fill="url(#linear-pattern-2)" d="M 403.601562 -0.835938 L 315.007812 0.375 L 342.351562 2001.835938 L 430.945312 2000.625 Z M 403.601562 -0.835938 "/>
</g>
<g clip-path="url(#clip-3)">
<path fill-rule="nonzero" fill="url(#linear-pattern-3)" d="M 536.191406 -0.835938 L 447.597656 0.375 L 474.941406 2001.835938 L 563.535156 2000.625 Z M 536.191406 -0.835938 "/>
</g>
<g clip-path="url(#clip-4)">
<path fill-rule="nonzero" fill="url(#linear-pattern-4)" d="M 668.78125 -0.835938 L 580.1875 0.375 L 607.53125 2001.835938 L 696.125 2000.625 Z M 668.78125 -0.835938 "/>
</g>
<g clip-path="url(#clip-5)">
<path fill-rule="nonzero" fill="url(#linear-pattern-5)" d="M 801.375 -0.835938 L 712.78125 0.375 L 740.125 2001.835938 L 828.714844 2000.625 Z M 801.375 -0.835938 "/>
</g>
<g clip-path="url(#clip-6)">
<path fill-rule="nonzero" fill="url(#linear-pattern-6)" d="M 933.964844 -0.835938 L 845.371094 0.375 L 872.714844 2001.835938 L 961.308594 2000.625 Z M 933.964844 -0.835938 "/>
</g>
<g clip-path="url(#clip-7)">
<path fill-rule="nonzero" fill="url(#linear-pattern-7)" d="M 1066.558594 -0.835938 L 977.957031 0.375 L 1005.300781 2001.835938 L 1093.902344 2000.625 Z M 1066.558594 -0.835938 "/>
</g>
<g clip-path="url(#clip-8)">
<path fill-rule="nonzero" fill="url(#linear-pattern-8)" d="M 1199.148438 -0.835938 L 1110.558594 0.375 L 1137.902344 2001.835938 L 1226.492188 2000.625 Z M 1199.148438 -0.835938 "/>
</g>
<g clip-path="url(#clip-9)">
<path fill-rule="nonzero" fill="url(#linear-pattern-9)" d="M 1331.738281 -0.835938 L 1243.148438 0.375 L 1270.492188 2001.835938 L 1359.082031 2000.625 Z M 1331.738281 -0.835938 "/>
</g>
<g clip-path="url(#clip-10)">
<path fill-rule="nonzero" fill="url(#linear-pattern-10)" d="M 1464.328125 -0.835938 L 1375.738281 0.375 L 1403.082031 2001.835938 L 1491.671875 2000.625 Z M 1464.328125 -0.835938 "/>
</g>
<g clip-path="url(#clip-11)">
<path fill-rule="nonzero" fill="url(#linear-pattern-11)" d="M 1596.917969 -0.835938 L 1508.328125 0.375 L 1535.671875 2001.835938 L 1624.261719 2000.625 Z M 1596.917969 -0.835938 "/>
</g>
<g clip-path="url(#clip-12)">
<path fill-rule="nonzero" fill="url(#linear-pattern-12)" d="M 1729.507812 -0.835938 L 1640.917969 0.375 L 1668.261719 2001.835938 L 1756.851562 2000.625 Z M 1729.507812 -0.835938 "/>
</g>
<g clip-path="url(#clip-13)">
<path fill-rule="nonzero" fill="url(#linear-pattern-13)" d="M 1862.097656 -0.835938 L 1773.507812 0.375 L 1800.851562 2001.835938 L 1889.441406 2000.625 Z M 1862.097656 -0.835938 "/>
</g>
<g clip-path="url(#clip-14)">
<path fill-rule="nonzero" fill="url(#linear-pattern-14)" d="M 1994.6875 -0.835938 L 1906.097656 0.375 L 1933.441406 2001.835938 L 2022.03125 2000.625 Z M 1994.6875 -0.835938 "/>
</g>
<g clip-path="url(#clip-15)">
<path fill-rule="nonzero" fill="url(#linear-pattern-15)" d="M 2127.289062 -0.835938 L 2038.6875 0.375 L 2066.03125 2001.835938 L 2154.632812 2000.625 Z M 2127.289062 -0.835938 "/>
</g>
<g clip-path="url(#clip-16)">
<path fill-rule="nonzero" fill="url(#linear-pattern-16)" d="M 2259.878906 -0.835938 L 2171.289062 0.375 L 2198.632812 2001.835938 L 2287.222656 2000.625 Z M 2259.878906 -0.835938 "/>
</g>
<g clip-path="url(#clip-17)">
<path fill-rule="nonzero" fill="url(#linear-pattern-17)" d="M 2392.46875 -0.835938 L 2303.878906 0.375 L 2331.222656 2001.835938 L 2419.8125 2000.625 Z M 2392.46875 -0.835938 "/>
</g>
<g clip-path="url(#clip-18)">
<path fill-rule="nonzero" fill="url(#linear-pattern-18)" d="M 2525.058594 -0.835938 L 2436.46875 0.375 L 2463.8125 2001.835938 L 2552.402344 2000.625 Z M 2525.058594 -0.835938 "/>
</g>
<g clip-path="url(#clip-19)">
<path fill-rule="nonzero" fill="url(#linear-pattern-19)" d="M 2657.648438 -0.835938 L 2569.058594 0.375 L 2596.402344 2001.835938 L 2684.992188 2000.625 Z M 2657.648438 -0.835938 "/>
</g>
<g clip-path="url(#clip-20)">
<path fill-rule="nonzero" fill="url(#linear-pattern-20)" d="M 2790.238281 -0.835938 L 2701.648438 0.375 L 2728.992188 2001.835938 L 2817.582031 2000.625 Z M 2790.238281 -0.835938 "/>
</g>
<g clip-path="url(#clip-21)">
<path fill-rule="nonzero" fill="url(#linear-pattern-21)" d="M 2922.828125 -0.835938 L 2834.238281 0.375 L 2861.582031 2001.835938 L 2950.171875 2000.625 Z M 2922.828125 -0.835938 "/>
</g>
<path fill-rule="nonzero" fill="rgb(4.704285%, 9.008789%, 33.714294%)" fill-opacity="1" d="M 2753.089844 257.761719 L 2749.039062 258.140625 C 2731.300781 259.820312 2719.539062 261.261719 2705.851562 267.078125 L 2704.5 267.648438 L 2704.910156 271.960938 C 2702.46875 273.449219 2700.070312 275.210938 2697.738281 276.910156 L 2696.289062 277.96875 L 2697.191406 279.53125 C 2697.261719 279.648438 2697.328125 279.78125 2697.410156 279.929688 C 2697.21875 279.941406 2697.039062 279.949219 2696.859375 279.960938 C 2695.75 280.019531 2694.710938 280.078125 2693.558594 280.050781 L 2692.550781 280.011719 L 2691.929688 280.808594 C 2690.769531 282.269531 2689.519531 283.851562 2688.269531 285.421875 C 2687.351562 286.570312 2686.429688 287.730469 2685.550781 288.828125 L 2676.738281 288.558594 C 2676.300781 287.488281 2675.828125 286.480469 2675.359375 285.488281 C 2674.730469 284.128906 2674.128906 282.851562 2673.609375 281.46875 L 2673.03125 279.910156 L 2663.511719 281.550781 L 2663.679688 283.390625 C 2663.941406 286.300781 2663.859375 289.261719 2663.761719 292.148438 C 2661.679688 293.96875 2659.601562 295.878906 2657.570312 297.738281 C 2655.539062 299.589844 2653.449219 301.511719 2651.378906 303.320312 C 2649.890625 303.089844 2648.460938 302.789062 2646.960938 302.488281 C 2645.179688 302.128906 2643.328125 301.75 2641.398438 301.480469 L 2640.839844 301.398438 L 2640.320312 301.628906 C 2637.738281 302.761719 2635.28125 304.210938 2632.898438 305.609375 C 2627.898438 308.558594 2623.171875 311.359375 2617.601562 311.128906 L 2614.628906 305.949219 L 2613.410156 306.011719 C 2610.78125 306.140625 2608.089844 306.160156 2605.480469 306.191406 C 2602.828125 306.21875 2600.078125 306.238281 2597.371094 306.371094 L 2596.679688 306.410156 L 2596.160156 306.859375 C 2593.960938 308.761719 2591.679688 310.75 2589.398438 312.75 C 2587.070312 314.78125 2584.738281 316.808594 2582.488281 318.761719 L 2576.941406 318.609375 L 2576.410156 319.859375 C 2575.828125 321.210938 2575.53125 322.71875 2575.308594 324.269531 C 2574.941406 324.21875 2574.558594 324.179688 2574.179688 324.128906 C 2573.109375 323.988281 2572 323.851562 2570.871094 323.820312 L 2569.511719 323.78125 L 2568.96875 325.03125 C 2567.738281 327.910156 2566.488281 330.460938 2565.261719 332.898438 C 2562.078125 333.140625 2559.128906 333.390625 2556.210938 333.640625 C 2556.019531 333.238281 2555.839844 332.839844 2555.660156 332.421875 C 2555.269531 331.550781 2554.871094 330.660156 2554.351562 329.730469 L 2553.679688 328.539062 L 2552.320312 328.738281 C 2544.179688 329.921875 2535.929688 332.390625 2526.359375 336.5 L 2525.699219 336.789062 L 2525.371094 337.441406 C 2524.660156 338.851562 2523.921875 340.191406 2523.199219 341.488281 C 2522.691406 342.429688 2522.160156 343.378906 2521.640625 344.378906 C 2519.96875 344.199219 2518.300781 344.078125 2516.679688 343.960938 C 2514.671875 343.808594 2512.578125 343.648438 2510.550781 343.398438 L 2508.808594 343.179688 L 2508.371094 344.871094 C 2508.171875 345.621094 2508.089844 346.230469 2508.019531 346.78125 L 2508.011719 346.851562 C 2506.851562 346.960938 2505.648438 347.070312 2504.449219 347.191406 C 2502.679688 347.351562 2500.898438 347.519531 2499.230469 347.691406 L 2497.441406 347.878906 L 2497.429688 349.679688 C 2497.429688 352.570312 2497.511719 355.398438 2497.601562 358.128906 C 2497.671875 360.660156 2497.75 363.261719 2497.761719 365.910156 C 2494.191406 369.648438 2490.78125 373.210938 2487.101562 376.738281 L 2478.53125 371.058594 L 2477.660156 373.441406 C 2476.570312 376.421875 2475.441406 379.351562 2474.359375 382.191406 C 2473.449219 384.539062 2472.550781 386.898438 2471.648438 389.320312 C 2460.910156 391.96875 2452.921875 399 2445.191406 405.800781 C 2443.808594 407.011719 2442.390625 408.261719 2440.980469 409.460938 C 2439.578125 409.289062 2438.238281 409.171875 2436.949219 409.058594 C 2435.730469 408.949219 2434.570312 408.851562 2433.359375 408.699219 C 2433.191406 408.328125 2433.011719 407.941406 2432.828125 407.570312 C 2432.488281 406.878906 2432.148438 406.171875 2431.941406 405.609375 L 2430.820312 402.738281 L 2428.648438 404.929688 C 2427.71875 405.859375 2426.871094 406.871094 2426.03125 407.851562 C 2424.011719 410.230469 2422.078125 412.5 2419.429688 413.410156 C 2419.320312 413.238281 2419.210938 413.070312 2419.109375 412.910156 C 2418.75 412.359375 2418.390625 411.808594 2417.921875 411.140625 L 2416.328125 408.921875 L 2414.691406 411.101562 C 2413.878906 412.179688 2413.179688 413.25 2412.5 414.289062 C 2412.039062 415 2411.589844 415.691406 2411.121094 416.359375 C 2409.191406 416.171875 2407.320312 416.050781 2405.5 415.929688 C 2403.371094 415.78125 2401.171875 415.640625 2398.921875 415.390625 L 2397.589844 415.238281 L 2396.949219 416.410156 C 2395.808594 418.480469 2394.640625 420.480469 2393.511719 422.421875 C 2392.5 424.171875 2391.441406 425.96875 2390.398438 427.839844 C 2389.878906 428.109375 2389.359375 428.390625 2388.828125 428.660156 C 2382.988281 431.730469 2377.449219 434.640625 2371.050781 433.789062 C 2370.480469 432.570312 2370.109375 431.308594 2369.710938 429.988281 L 2368.828125 427.050781 L 2366.5 429.039062 C 2364.578125 430.679688 2362.671875 432.578125 2360.789062 434.519531 C 2360.25 433.808594 2359.710938 433.078125 2359.160156 432.328125 C 2358.148438 430.941406 2357.101562 429.511719 2355.941406 428.179688 L 2354.320312 426.308594 L 2348.699219 433.730469 C 2344.78125 433.980469 2340.761719 433.929688 2336.828125 433.859375 C 2335.640625 432.738281 2334.390625 431.699219 2333.171875 430.691406 C 2331.75 429.511719 2330.410156 428.390625 2329.148438 427.171875 L 2328.589844 426.609375 L 2327.789062 426.601562 C 2326.621094 426.578125 2325.339844 426.460938 2323.980469 426.328125 C 2322.609375 426.199219 2321.191406 426.070312 2319.859375 426.050781 L 2319.128906 426.03125 L 2317.570312 427.308594 C 2315.96875 428.601562 2314.589844 429.71875 2313.199219 431.171875 L 2312.769531 431.609375 L 2312.660156 432.230469 C 2312.179688 435.160156 2311.789062 438.21875 2311.421875 441.191406 C 2311.089844 443.828125 2310.75 446.550781 2310.339844 449.148438 C 2308.191406 450.210938 2305.941406 451.289062 2303.75 452.328125 C 2301.238281 453.519531 2298.628906 454.761719 2296.171875 455.988281 L 2295.378906 456.378906 L 2295.140625 457.21875 C 2294.609375 459.070312 2294.070312 461.019531 2293.539062 462.980469 C 2293.089844 464.648438 2292.640625 466.308594 2292.179688 467.921875 C 2281.101562 472.328125 2276.03125 482.28125 2271.128906 491.921875 C 2269.390625 495.339844 2267.601562 498.859375 2265.550781 502.109375 C 2254.921875 505.570312 2244.738281 509.21875 2233.980469 513.078125 C 2231.410156 514.011719 2228.820312 514.929688 2226.21875 515.859375 C 2223.578125 515.410156 2220.921875 514.621094 2218.109375 513.789062 L 2216.820312 513.410156 L 2215.980469 514.460938 C 2208.820312 523.441406 2201.828125 529.640625 2194.039062 533.898438 C 2193.050781 533.75 2192.140625 533.648438 2191.25 533.558594 C 2190.128906 533.441406 2189.078125 533.320312 2188.070312 533.109375 L 2186.71875 532.828125 L 2185.980469 533.988281 C 2184.808594 535.820312 2183.5 537.589844 2182.238281 539.308594 C 2181.050781 540.921875 2179.828125 542.578125 2178.691406 544.320312 C 2173.859375 546.519531 2169.28125 548.421875 2164.839844 550.25 L 2159.320312 547.460938 L 2158.300781 548.398438 C 2143.601562 561.898438 2137.96875 566.269531 2117.269531 568.46875 L 2116.550781 568.550781 L 2116.039062 569.070312 C 2104.5 581.039062 2094.53125 586.941406 2077.730469 581.648438 L 2076.039062 581.121094 L 2075.300781 582.730469 C 2072.480469 588.949219 2066.160156 591.910156 2060.050781 594.78125 L 2059.03125 595.261719 C 2056.429688 595.050781 2053.820312 594.929688 2051.289062 594.808594 C 2048.621094 594.691406 2045.871094 594.558594 2043.171875 594.328125 L 2041.660156 594.210938 L 2041.128906 595.621094 C 2040.710938 596.71875 2040.398438 597.710938 2040.109375 598.671875 C 2039.929688 599.25 2039.75 599.820312 2039.550781 600.398438 C 2036.75 600.808594 2034.039062 601.300781 2031.421875 601.78125 C 2028.859375 602.25 2026.449219 602.691406 2024 603.050781 L 2023.328125 603.148438 L 2019.53125 607.011719 C 2018.039062 606.660156 2016.601562 606.320312 2015.160156 605.96875 C 2013.359375 605.53125 2011.558594 605.089844 2009.648438 604.660156 L 2008.421875 604.378906 L 2007.628906 605.359375 C 1999.828125 615.148438 1988.28125 618.398438 1976.039062 621.839844 C 1972.578125 622.808594 1969 623.820312 1965.550781 624.980469 C 1960.988281 624.988281 1956.351562 625.300781 1951.871094 625.601562 C 1939.300781 626.429688 1927.441406 627.210938 1916.171875 622.308594 L 1915.449219 622 L 1914.699219 622.261719 C 1902.609375 626.589844 1893.539062 625.988281 1880.050781 623.269531 L 1879 623.050781 L 1878.25 623.808594 C 1873.488281 628.539062 1867.929688 629.621094 1859.921875 629.890625 L 1859.328125 629.910156 L 1858.839844 630.25 C 1857.578125 631.128906 1856.339844 632.058594 1855.140625 632.960938 C 1850.039062 636.820312 1845.210938 640.460938 1838.820312 639.941406 L 1837.460938 639.828125 L 1836.859375 641.058594 C 1836.230469 642.351562 1835.710938 643.550781 1835.199219 644.699219 C 1834.808594 645.578125 1834.441406 646.421875 1834.03125 647.300781 L 1826.75 648.488281 L 1820.558594 656.03125 C 1818.890625 656.230469 1817.21875 656.511719 1815.589844 656.769531 C 1813.761719 657.070312 1811.871094 657.378906 1810.03125 657.578125 L 1808.738281 657.71875 L 1808.339844 658.960938 C 1807.960938 660.160156 1807.46875 661.351562 1806.960938 662.621094 C 1806.519531 663.699219 1806.070312 664.808594 1805.679688 665.929688 C 1802.910156 667.96875 1800.160156 670.109375 1797.5 672.171875 C 1790.378906 677.699219 1783.03125 683.410156 1774.878906 687.578125 L 1770.78125 684.851562 L 1769.628906 685.808594 C 1768.378906 686.859375 1767.019531 688.019531 1765.660156 689.179688 C 1764.710938 689.988281 1763.769531 690.789062 1762.859375 691.558594 C 1761.808594 690.789062 1760.851562 689.980469 1760.140625 689.269531 L 1759.339844 688.480469 L 1758.238281 688.75 C 1756.609375 689.160156 1754.5 689.570312 1752.449219 689.980469 L 1751.71875 690.121094 L 1751.269531 690.699219 C 1750.390625 691.808594 1749.628906 692.910156 1748.898438 693.96875 C 1748.269531 694.878906 1747.660156 695.738281 1747 696.601562 L 1746.410156 696.78125 C 1744.359375 697.390625 1742.25 697.921875 1740.210938 698.429688 C 1738.550781 698.839844 1736.851562 699.261719 1735.140625 699.738281 C 1734.25 698.53125 1733.460938 697.46875 1732.378906 696.390625 L 1731.550781 695.558594 L 1730.421875 695.878906 C 1722.078125 698.261719 1713.589844 700.289062 1705.300781 702.261719 C 1704.28125 700.890625 1703.179688 699.628906 1702.019531 698.320312 C 1701.371094 697.578125 1700.710938 696.828125 1700.039062 696.03125 L 1698.460938 694.140625 L 1696.941406 696.070312 C 1696.128906 697.089844 1695.328125 697.988281 1694.488281 698.949219 C 1693.761719 699.769531 1693.011719 700.621094 1692.261719 701.539062 C 1672.878906 708.789062 1649.769531 716.300781 1624.761719 717.601562 C 1623.410156 717.03125 1622.128906 716.53125 1620.898438 716.058594 C 1619.558594 715.539062 1618.191406 715.011719 1616.738281 714.390625 L 1615.851562 714 L 1615 714.46875 C 1601.488281 721.800781 1590.039062 726.230469 1574.71875 725.621094 L 1573.671875 725.578125 L 1573.039062 726.421875 C 1572.398438 727.28125 1571.859375 728.039062 1571.328125 728.789062 C 1571.128906 729.070312 1570.921875 729.359375 1570.71875 729.648438 C 1570.570312 729.570312 1570.421875 729.5 1570.28125 729.421875 C 1569.679688 729.128906 1569.121094 728.839844 1568.589844 728.488281 L 1567.449219 727.71875 L 1566.320312 728.519531 C 1560.648438 732.53125 1554.628906 733.839844 1546.269531 732.871094 C 1545.230469 732.148438 1544.25 731.339844 1543.21875 730.5 C 1542.039062 729.53125 1540.820312 728.53125 1539.480469 727.628906 L 1538.5 726.980469 L 1537.460938 727.511719 C 1530.21875 731.199219 1522.558594 730.398438 1514.441406 729.558594 C 1512.378906 729.351562 1510.25 729.128906 1508.121094 728.980469 L 1507.578125 728.949219 L 1507.089844 729.191406 C 1505.378906 730.050781 1503.550781 731.019531 1501.769531 731.96875 C 1500.199219 732.800781 1498.578125 733.660156 1497.050781 734.441406 C 1493.261719 734.089844 1489.460938 734.058594 1485.75 734.058594 C 1484.519531 732.539062 1483.078125 731.089844 1481.980469 729.988281 L 1480.75 728.761719 L 1479.359375 729.808594 C 1478.53125 730.429688 1477.808594 730.949219 1477.078125 731.46875 C 1476.539062 731.859375 1476 732.238281 1475.421875 732.671875 C 1472.140625 732.078125 1468.808594 731.390625 1465.578125 730.71875 C 1462.03125 729.988281 1458.371094 729.230469 1454.75 728.601562 L 1453.960938 728.460938 L 1453.289062 728.898438 C 1452.589844 729.371094 1452.019531 729.828125 1451.460938 730.28125 L 1451.21875 730.46875 L 1445.671875 724.890625 L 1444.269531 726.070312 C 1443.039062 727.101562 1441.820312 728.011719 1440.539062 728.980469 C 1439.558594 729.71875 1438.550781 730.46875 1437.539062 731.289062 C 1433.941406 730.058594 1430.96875 728.898438 1427.800781 727.480469 L 1427.25 727.238281 L 1426.648438 727.339844 C 1421.78125 728.160156 1416.890625 729.359375 1412.140625 730.558594 C 1395.101562 719.808594 1378.929688 719.828125 1362.511719 720.988281 C 1360.140625 719.609375 1357.660156 718.210938 1355.25 716.859375 C 1352.671875 715.410156 1349.988281 713.910156 1347.480469 712.429688 L 1346.691406 711.980469 L 1345.828125 712.261719 C 1343.289062 713.121094 1340.851562 713.96875 1338.410156 714.820312 C 1336.21875 715.589844 1334.019531 716.359375 1331.738281 717.128906 C 1328.828125 715.949219 1325.878906 714.671875 1323.011719 713.429688 C 1319.898438 712.070312 1316.671875 710.679688 1313.488281 709.398438 L 1312.058594 708.828125 L 1311.140625 710.058594 C 1310.46875 710.949219 1309.808594 711.941406 1309.171875 712.898438 C 1308.699219 713.589844 1308.230469 714.308594 1307.761719 714.960938 C 1305.851562 715.371094 1303.949219 715.851562 1302.101562 716.320312 C 1300.210938 716.800781 1298.261719 717.289062 1296.359375 717.691406 C 1290.25 715.71875 1284.230469 712.71875 1278.398438 709.808594 C 1267.28125 704.269531 1255.78125 698.550781 1242.710938 699.269531 L 1242.121094 699.300781 L 1241.640625 699.648438 C 1238.570312 701.890625 1235.691406 704.289062 1232.898438 706.621094 C 1231.589844 707.71875 1230.289062 708.800781 1228.988281 709.851562 C 1216.121094 709.328125 1203.730469 705.179688 1191.738281 701.160156 C 1187.761719 699.820312 1183.640625 698.441406 1179.539062 697.199219 C 1178.898438 696.359375 1178.308594 695.511719 1177.699219 694.621094 C 1176.96875 693.558594 1176.210938 692.46875 1175.339844 691.371094 L 1174.671875 690.519531 L 1173.601562 690.609375 C 1168.96875 691.019531 1164.339844 691.421875 1160.03125 691.820312 C 1159.839844 691.519531 1159.648438 691.230469 1159.46875 690.949219 C 1158.359375 689.210938 1157.308594 687.578125 1156.019531 685.941406 L 1153.890625 683.25 L 1152.589844 686.429688 C 1149.328125 694.429688 1142.859375 699.089844 1134.71875 704.25 C 1131.019531 704.140625 1127.449219 704.089844 1124 704.039062 C 1101.261719 703.71875 1083.289062 703.46875 1064.359375 686.109375 L 1063.261719 685.101562 L 1061.980469 685.871094 C 1060.949219 686.480469 1059.78125 687.121094 1058.648438 687.738281 C 1057.710938 688.261719 1056.738281 688.789062 1055.820312 689.320312 C 1047.570312 687.960938 1039.699219 686.351562 1031.371094 684.640625 L 1025.730469 683.480469 L 1024.96875 684.238281 C 1024.238281 684.96875 1023.5 685.539062 1022.730469 686.078125 C 1014.351562 678.359375 1006.058594 670.988281 997.304688 663.21875 L 993.0625 659.460938 L 992.386719 659.410156 C 979.066406 658.441406 967.398438 652.929688 955.636719 646.871094 C 951.476562 643.949219 947.269531 641.421875 943.167969 638.960938 L 939.820312 636.949219 L 940.144531 640.828125 C 940.875 649.699219 940.628906 658.820312 940.390625 667.648438 C 939.972656 683.109375 939.539062 699.101562 944.382812 714.101562 L 944.695312 715.070312 L 945.660156 715.390625 C 947.011719 715.828125 948.445312 716.160156 949.835938 716.46875 C 950.828125 716.699219 951.777344 716.910156 952.671875 717.160156 C 954.769531 724.230469 954.300781 731.558594 953.808594 739.308594 C 953.546875 743.398438 953.273438 747.640625 953.417969 751.839844 L 953.429688 752.148438 L 953.535156 752.441406 C 959.335938 768.699219 957.5 785.269531 955.558594 802.828125 C 954.894531 808.828125 954.210938 815.03125 953.871094 821.160156 L 953.855469 821.46875 C 949.464844 834.738281 946.292969 848.71875 942.957031 863.488281 C 934.625 900.371094 926.011719 938.5 897.011719 963.871094 C 884.761719 965.378906 875.105469 972.121094 865.769531 978.640625 C 855.949219 985.5 846.660156 991.980469 834.625 992.789062 C 826.597656 985.421875 816.492188 982.261719 806.714844 979.199219 C 805.023438 978.671875 803.335938 978.148438 801.652344 977.601562 C 791.035156 963.96875 775.195312 958.671875 759.871094 953.550781 C 755.371094 952.050781 750.726562 950.488281 746.3125 948.761719 C 743.90625 945.558594 741.894531 942.75 739.941406 940.03125 L 739.121094 938.890625 L 729.628906 941.578125 C 716.554688 934.898438 704.917969 932.679688 693.121094 934.621094 C 690.421875 933.941406 687.691406 933.328125 685.046875 932.738281 C 678.574219 931.289062 672.445312 929.921875 666.464844 927.558594 C 665.027344 925.339844 663.917969 923.121094 662.742188 920.769531 L 661.851562 918.988281 L 660.066406 919.878906 C 659.179688 920.320312 658.1875 920.859375 657.230469 921.390625 C 656.605469 921.730469 655.980469 922.070312 655.386719 922.390625 C 648.050781 919.039062 641.21875 916.550781 632.980469 918.539062 L 632.367188 918.679688 L 631.953125 919.148438 C 628.613281 922.910156 625.1875 925.589844 619.480469 926.378906 C 618.359375 925.660156 617.179688 924.941406 616.03125 924.238281 C 614.699219 923.441406 613.324219 922.601562 612.089844 921.789062 L 610.742188 920.898438 L 609.515625 922.109375 C 602.972656 928.53125 596.777344 934.609375 590.253906 940.648438 C 587.746094 940.480469 585.226562 940.390625 582.785156 940.308594 C 580.101562 940.210938 577.324219 940.109375 574.613281 939.910156 L 573.699219 939.839844 L 573.050781 940.488281 C 566.691406 946.859375 558.695312 949.398438 548.648438 951.238281 L 548.40625 951.28125 C 548.339844 951.171875 548.269531 951.070312 548.203125 950.949219 L 547.714844 950.109375 L 546.746094 949.980469 C 545.199219 949.761719 543.65625 949.660156 542.164062 949.550781 C 541.0625 949.480469 540.003906 949.398438 538.953125 949.289062 C 537.652344 946.480469 536 943.941406 532.382812 942.609375 L 531.667969 942.339844 L 530.960938 942.621094 C 530.152344 942.941406 529.410156 943.199219 528.703125 943.441406 C 527.535156 943.839844 526.4375 944.21875 525.292969 944.78125 L 524.628906 945.109375 L 524.339844 945.789062 C 523.34375 948.121094 522.425781 950.359375 521.539062 952.519531 C 516.152344 965.671875 512.242188 975.21875 499.613281 984.128906 C 499.089844 984.089844 498.601562 984.019531 498.089844 983.941406 C 497.417969 983.839844 496.722656 983.730469 495.984375 983.730469 L 495.976562 983.730469 L 494.65625 983.738281 L 494.136719 984.949219 C 490.710938 993.011719 487.359375 1001.191406 484.121094 1009.101562 C 481.355469 1015.859375 478.496094 1022.839844 475.605469 1029.710938 C 469.839844 1038.851562 463.855469 1047.960938 458.070312 1056.769531 C 454.238281 1062.609375 450.273438 1068.648438 446.453125 1074.578125 C 429.121094 1091.089844 411.675781 1103.71875 393.121094 1113.179688 C 391.519531 1113.578125 389.96875 1113.96875 388.453125 1114.351562 C 369.632812 1119.078125 357.183594 1122.210938 336.445312 1118.230469 L 336.40625 1118.21875 C 317.109375 1111.628906 313.632812 1110.441406 301.214844 1094.410156 L 301.066406 1094.230469 L 300.882812 1094.078125 C 295.445312 1089.71875 288.914062 1085.710938 281.996094 1081.449219 C 269.949219 1074.050781 257.507812 1066.398438 251.367188 1056.941406 C 251.476562 1056.800781 251.585938 1056.671875 251.691406 1056.539062 C 252.085938 1056.058594 252.457031 1055.601562 252.796875 1055.269531 L 254.316406 1053.78125 L 252.746094 1052.359375 C 248.203125 1048.230469 243.800781 1043.871094 239.542969 1039.660156 C 237.421875 1037.550781 235.3125 1035.46875 233.207031 1033.421875 L 231.675781 1031.941406 L 230.292969 1033.558594 C 228.296875 1035.898438 226.671875 1038.230469 225.121094 1040.5 C 224.722656 1040.578125 224.257812 1040.640625 223.777344 1040.699219 C 223.003906 1040.800781 222.125 1040.910156 221.226562 1041.128906 L 219.6875 1041.5 L 219.695312 1043.078125 C 219.699219 1044.351562 219.808594 1045.671875 219.925781 1047.058594 C 220.023438 1048.230469 220.121094 1049.429688 220.15625 1050.621094 C 219.707031 1051.179688 219.25 1051.699219 218.773438 1052.238281 C 218.136719 1052.96875 217.472656 1053.71875 216.804688 1054.601562 L 216.285156 1055.269531 L 216.414062 1056.121094 C 217.753906 1064.710938 215.769531 1071.488281 212.136719 1079.660156 L 211.855469 1080.289062 L 212.023438 1080.960938 C 213.746094 1087.769531 215.480469 1094.589844 217.222656 1101.410156 C 216.871094 1102.558594 216.605469 1103.769531 216.34375 1104.941406 C 216.046875 1106.261719 215.769531 1107.511719 215.394531 1108.640625 L 215.09375 1109.558594 L 215.621094 1110.359375 C 216.746094 1112.078125 217.976562 1113.679688 219.167969 1115.230469 C 220.148438 1116.511719 221.082031 1117.730469 221.960938 1119 L 219.070312 1126.308594 L 221.292969 1126.859375 C 222.035156 1127.039062 222.8125 1127.328125 223.636719 1127.628906 C 224.273438 1127.871094 224.929688 1128.109375 225.601562 1128.308594 C 227.460938 1131.25 229.34375 1134.121094 231.167969 1136.921875 C 232.953125 1139.648438 234.800781 1142.46875 236.621094 1145.339844 C 236.570312 1146.71875 236.242188 1148.460938 235.929688 1150.160156 L 235.492188 1152.511719 L 237.882812 1152.53125 C 239.496094 1152.519531 241.367188 1152.351562 243.769531 1151.941406 C 246.90625 1156.25 250.011719 1160.621094 253.019531 1164.859375 C 256.214844 1169.371094 259.515625 1174.019531 262.871094 1178.621094 C 260.058594 1186.210938 261.054688 1189.871094 262.015625 1193.398438 C 263.0625 1197.261719 264.054688 1200.890625 259.507812 1211.261719 L 259.144531 1212.089844 L 259.527344 1212.910156 C 260.742188 1215.519531 262.292969 1218.140625 263.859375 1220.710938 C 263.253906 1221.609375 262.609375 1222.550781 261.964844 1223.488281 C 261.351562 1224.390625 260.734375 1225.289062 260.152344 1226.148438 L 251.210938 1223.179688 L 251.296875 1226.039062 C 251.394531 1229.339844 251.507812 1233.050781 251.621094 1236.75 L 251.664062 1238.148438 L 263.730469 1242.160156 C 264.933594 1244.480469 266.140625 1246.730469 267.3125 1248.910156 C 274.382812 1262.070312 280.503906 1273.46875 279.242188 1288.761719 C 278.417969 1289.460938 277.566406 1290.171875 276.710938 1290.890625 C 274.316406 1292.890625 271.84375 1294.960938 269.550781 1297.261719 L 268.726562 1298.089844 L 269.042969 1299.210938 C 270.917969 1305.898438 276.160156 1310.96875 281.230469 1315.871094 C 283.945312 1318.488281 286.515625 1320.980469 288.582031 1323.671875 C 289.085938 1326.371094 289.605469 1329.148438 290.132812 1332.269531 L 290.269531 1333.101562 L 290.960938 1333.578125 C 292.515625 1334.648438 294.074219 1335.628906 295.578125 1336.578125 C 296.886719 1337.398438 298.230469 1338.238281 299.558594 1339.140625 C 301.972656 1345.199219 304.257812 1351.429688 306.933594 1359.230469 L 307.4375 1360.679688 L 308.972656 1360.570312 C 311.234375 1360.398438 313.449219 1360.328125 315.59375 1360.269531 C 317.234375 1360.210938 318.921875 1360.160156 320.65625 1360.070312 L 322.46875 1368.539062 L 324.859375 1367.128906 C 325.945312 1366.488281 327.015625 1365.75 328.046875 1365.039062 C 328.652344 1364.621094 329.234375 1364.210938 329.8125 1363.839844 C 330.652344 1364.609375 331.417969 1365.511719 332.1875 1366.460938 C 331.835938 1367.609375 331.273438 1368.808594 330.6875 1370.070312 L 329.378906 1372.871094 L 332.464844 1372.910156 C 334.730469 1372.949219 337.0625 1373.089844 339.316406 1373.230469 C 341.34375 1373.351562 343.429688 1373.46875 345.511719 1373.53125 C 350.425781 1378.78125 353.976562 1383.980469 355.320312 1391.601562 C 355.101562 1392 354.894531 1392.390625 354.691406 1392.761719 C 354.015625 1394 353.433594 1395.078125 352.683594 1396.121094 L 352.050781 1397 L 352.4375 1398.011719 C 352.710938 1398.710938 353.070312 1399.390625 353.480469 1400.050781 C 353.230469 1400.140625 352.96875 1400.230469 352.679688 1400.320312 L 349.710938 1401.261719 L 351.800781 1403.570312 C 353.15625 1405.070312 354.519531 1406.46875 355.835938 1407.828125 C 356.964844 1408.988281 358.132812 1410.199219 359.285156 1411.449219 C 359.585938 1417.339844 360.003906 1423.429688 360.410156 1429.328125 C 360.792969 1434.898438 361.191406 1440.648438 361.496094 1446.320312 L 361.546875 1447.289062 L 362.347656 1447.851562 C 364.257812 1449.179688 366.035156 1450.710938 367.753906 1452.179688 C 368.539062 1452.859375 369.3125 1453.519531 370.082031 1454.148438 C 372.261719 1461 374.496094 1468.269531 376.664062 1475.308594 L 377.324219 1477.460938 C 375.628906 1482.019531 373.527344 1487.109375 371.382812 1491.859375 L 370.410156 1494.019531 L 372.695312 1494.621094 C 374.449219 1495.078125 376.199219 1495.441406 377.890625 1495.78125 C 379.523438 1496.121094 381.210938 1496.460938 382.851562 1496.890625 L 383.570312 1497.078125 L 384.238281 1496.761719 C 385.1875 1496.289062 386.164062 1495.878906 387.113281 1495.488281 C 387.972656 1495.128906 388.800781 1494.78125 389.605469 1494.398438 C 389.828125 1494.75 390.054688 1495.089844 390.277344 1495.429688 C 395.292969 1503.078125 400.476562 1510.988281 409.46875 1515.53125 C 409.59375 1516.101562 409.6875 1516.648438 409.78125 1517.179688 C 409.960938 1518.191406 410.128906 1519.128906 410.441406 1520.140625 L 410.832031 1521.398438 L 412.144531 1521.539062 C 414.699219 1521.800781 417.359375 1522.070312 420.019531 1522.328125 C 422.40625 1522.570312 424.792969 1522.808594 427.097656 1523.039062 C 430.175781 1525.429688 433.375 1527.71875 436.476562 1529.941406 C 446.632812 1537.21875 456.222656 1544.089844 462.675781 1554.429688 L 463.277344 1555.351562 L 470.625 1555.5 C 471.929688 1556.789062 473.195312 1558.179688 474.425781 1559.53125 C 475.871094 1561.109375 477.363281 1562.75 478.953125 1564.28125 L 479.710938 1565 L 480.738281 1564.789062 C 484.476562 1564.03125 488.261719 1563.160156 491.917969 1562.308594 C 495.246094 1561.539062 498.679688 1560.738281 502.070312 1560.03125 C 506.8125 1563.398438 511.542969 1566.980469 516.125 1570.460938 L 520.007812 1573.390625 L 521.027344 1573.03125 C 522.621094 1572.449219 524.15625 1571.960938 525.644531 1571.480469 C 526.949219 1571.070312 528.289062 1570.640625 529.691406 1570.148438 C 532.804688 1571.398438 535.992188 1573.011719 539.082031 1574.578125 L 539.683594 1574.878906 L 540.34375 1574.761719 C 541.46875 1574.558594 542.558594 1574.25 543.609375 1573.949219 C 544.316406 1573.75 544.996094 1573.550781 545.660156 1573.398438 C 559.105469 1583.441406 570.808594 1591.351562 586.789062 1594.359375 C 590.902344 1597.71875 595.128906 1601.191406 599.347656 1604.660156 C 603.046875 1607.699219 606.738281 1610.730469 610.335938 1613.679688 L 610.765625 1614.03125 L 611.316406 1614.109375 C 628.152344 1616.539062 639.722656 1620.609375 649.917969 1627.699219 L 649.929688 1627.839844 L 650.261719 1627.929688 L 653.875 1630.46875 L 653.691406 1628.871094 C 658.597656 1630.199219 663.53125 1631.480469 668.328125 1632.71875 C 673.824219 1634.148438 679.503906 1635.609375 685.089844 1637.160156 C 694.417969 1642.308594 703.734375 1647.46875 713.050781 1652.628906 L 713.570312 1652.921875 L 729.425781 1651.75 L 729.613281 1650.101562 C 729.746094 1648.910156 729.988281 1647.558594 730.21875 1646.261719 C 730.402344 1645.21875 730.589844 1644.160156 730.734375 1643.128906 C 731.09375 1642.921875 731.480469 1642.699219 731.878906 1642.46875 C 732.359375 1642.191406 732.851562 1641.910156 733.320312 1641.621094 C 737.238281 1642.289062 741.308594 1643.050781 745.25 1643.800781 C 749.480469 1644.601562 753.855469 1645.421875 758.058594 1646.128906 L 759.257812 1646.328125 L 759.988281 1645.359375 C 760.941406 1644.089844 762.121094 1642.960938 763.261719 1641.859375 C 763.632812 1641.5 763.996094 1641.148438 764.347656 1640.800781 C 765.375 1640.789062 766.382812 1640.71875 767.367188 1640.648438 C 768.597656 1640.570312 769.765625 1640.488281 770.921875 1640.511719 L 772.238281 1640.53125 L 772.777344 1639.328125 C 773.367188 1638.019531 773.847656 1636.71875 774.308594 1635.460938 C 774.589844 1634.699219 774.859375 1633.960938 775.148438 1633.230469 C 787.578125 1634.851562 797.769531 1629.648438 807.910156 1623.578125 C 812.9375 1624.261719 817.933594 1624.851562 822.769531 1625.421875 C 827.753906 1626.011719 832.910156 1626.621094 838.078125 1627.328125 L 839.238281 1627.480469 L 839.941406 1626.550781 C 840.730469 1625.511719 841.617188 1624.371094 842.503906 1623.21875 C 843.09375 1622.460938 843.679688 1621.710938 844.238281 1620.980469 L 864.351562 1626.308594 L 865.167969 1625.28125 C 866.175781 1624.011719 867.183594 1622.621094 868.160156 1621.28125 C 868.8125 1620.378906 869.476562 1619.46875 870.140625 1618.589844 C 878.242188 1622 887.644531 1624.859375 897.351562 1622.53125 C 938.851562 1659.980469 947.117188 1671.550781 968.320312 1721.808594 C 967.5625 1723.371094 967 1725.039062 966.492188 1726.550781 C 966.335938 1727.019531 966.179688 1727.480469 966.023438 1727.921875 L 965.355469 1729.820312 L 967.246094 1730.480469 C 967.988281 1730.738281 968.605469 1730.871094 969.148438 1730.988281 C 969.285156 1731.019531 969.414062 1731.050781 969.539062 1731.078125 C 969.964844 1733.011719 970.390625 1734.890625 970.8125 1736.761719 C 971.21875 1738.550781 971.621094 1740.339844 972.027344 1742.179688 C 970.949219 1743.039062 969.933594 1743.941406 968.945312 1744.808594 C 967.652344 1745.949219 966.433594 1747.03125 965.109375 1748.011719 L 964.253906 1748.640625 L 964.300781 1749.699219 C 964.332031 1750.488281 964.484375 1751.25 964.621094 1751.921875 C 964.738281 1752.488281 964.847656 1753.03125 964.867188 1753.5 L 964.992188 1756.441406 L 967.679688 1755.238281 C 981.195312 1749.230469 985.5625 1750.371094 1000.03125 1754.148438 L 1000.980469 1754.398438 L 1001.761719 1753.800781 C 1003.300781 1752.601562 1005 1751.460938 1006.648438 1750.371094 C 1008.140625 1749.378906 1009.671875 1748.359375 1011.128906 1747.261719 C 1030.691406 1749.328125 1049.261719 1754.191406 1067.878906 1762.121094 L 1068.929688 1762.558594 L 1069.851562 1761.878906 C 1072.589844 1759.859375 1075.410156 1757.769531 1078.578125 1755.738281 L 1080.171875 1754.71875 L 1079.230469 1753.070312 C 1071.011719 1738.609375 1059.140625 1727.640625 1048.558594 1718.488281 C 1044.78125 1694.640625 1042.621094 1667.058594 1054.050781 1641.648438 C 1054.820312 1642.199219 1055.570312 1642.71875 1056.320312 1643.25 C 1057.691406 1644.210938 1059.070312 1645.171875 1060.550781 1646.238281 L 1064.828125 1649.328125 L 1063.671875 1644.179688 C 1063.199219 1642.109375 1062.828125 1639.980469 1062.46875 1637.921875 C 1062.160156 1636.191406 1061.851562 1634.410156 1061.480469 1632.628906 C 1063.609375 1630.609375 1065.570312 1628.488281 1067.640625 1626.261719 C 1068.671875 1625.148438 1069.710938 1624.03125 1070.789062 1622.898438 L 1078.980469 1621.121094 L 1079.171875 1628.300781 L 1082.710938 1622.191406 C 1089.289062 1610.828125 1096.609375 1602.96875 1105.71875 1597.460938 C 1120.058594 1592.078125 1134.761719 1586.691406 1148.980469 1581.480469 C 1163.988281 1575.988281 1179.5 1570.308594 1194.679688 1564.589844 C 1202.78125 1566.078125 1211 1567.691406 1218.96875 1569.238281 C 1227.261719 1570.871094 1235.839844 1572.539062 1244.289062 1574.089844 L 1244.53125 1574.128906 L 1244.769531 1574.121094 C 1254.921875 1573.460938 1265.46875 1574.050781 1275.671875 1574.628906 C 1293.230469 1575.609375 1311.390625 1576.621094 1328.5 1571.441406 L 1329.441406 1571.160156 L 1329.789062 1570.238281 C 1330.601562 1568.140625 1331.398438 1565.941406 1332.210938 1563.730469 C 1333.03125 1561.5 1333.851562 1559.269531 1334.660156 1557.140625 L 1335.019531 1556.210938 L 1334.660156 1555.628906 C 1335.910156 1554.921875 1337.140625 1554.210938 1338.339844 1553.511719 C 1340.300781 1552.378906 1342.320312 1551.210938 1344.390625 1550.050781 C 1346.808594 1550.300781 1349.289062 1550.339844 1351.699219 1550.378906 C 1355.28125 1550.429688 1358.71875 1550.488281 1361.921875 1551.160156 L 1359.71875 1553.398438 L 1362.421875 1554.550781 C 1366.109375 1556.109375 1369.550781 1557.898438 1373.199219 1559.789062 C 1374.429688 1560.429688 1375.671875 1561.078125 1376.941406 1561.71875 L 1379.449219 1558.75 C 1378.980469 1558.101562 1378.5 1557.519531 1378.039062 1556.96875 C 1380.21875 1556.871094 1382.308594 1556.871094 1384.480469 1556.878906 L 1385.109375 1556.878906 L 1385.628906 1556.519531 C 1389.578125 1553.769531 1393.609375 1551.078125 1397.511719 1548.46875 C 1401.21875 1545.988281 1405.050781 1543.429688 1408.839844 1540.808594 C 1417.308594 1540.429688 1425.398438 1540.441406 1434.039062 1540.449219 L 1434.738281 1540.460938 L 1435.289062 1540.019531 C 1439 1537.050781 1442.140625 1534.398438 1444.921875 1532.058594 C 1457.261719 1521.640625 1462.898438 1516.878906 1484.460938 1512.941406 L 1485.128906 1512.820312 L 1485.578125 1512.308594 C 1487.890625 1509.769531 1490.230469 1507.28125 1492.511719 1504.871094 C 1494.640625 1502.609375 1496.839844 1500.28125 1499.019531 1497.878906 C 1503.179688 1496.480469 1507.359375 1494.988281 1511.410156 1493.558594 C 1531.488281 1486.421875 1550.460938 1479.671875 1571.511719 1480.320312 L 1572.988281 1480.371094 L 1573.460938 1478.960938 C 1574.558594 1475.671875 1576.058594 1471.800781 1577.730469 1467.988281 C 1594.710938 1460.570312 1608.269531 1448.039062 1621.390625 1435.898438 C 1625.558594 1432.050781 1629.871094 1428.058594 1634.238281 1424.289062 C 1636.578125 1424.148438 1638.820312 1424 1640.960938 1423.851562 C 1659.230469 1422.601562 1670.25 1421.839844 1689.339844 1429.148438 L 1691.441406 1429.949219 L 1692 1427.78125 C 1693.078125 1423.558594 1694.148438 1419.238281 1695.238281 1414.910156 C 1696.289062 1410.699219 1697.339844 1406.488281 1698.390625 1402.371094 C 1709.328125 1388.910156 1720.269531 1375.460938 1731.230469 1362 L 1731.96875 1361.089844 L 1731.539062 1359.988281 C 1726.640625 1347.75 1729.609375 1335.800781 1732.761719 1323.140625 L 1732.820312 1322.910156 L 1732.820312 1322.671875 C 1732.890625 1314.078125 1732.550781 1305.460938 1732.210938 1297.089844 C 1732.921875 1296.640625 1733.589844 1296.199219 1734.25 1295.761719 C 1735.210938 1295.121094 1736.109375 1294.511719 1737.128906 1293.898438 L 1735.328125 1290.640625 C 1735.539062 1289.78125 1735.738281 1288.921875 1735.949219 1288.070312 C 1736.390625 1286.238281 1736.828125 1284.421875 1737.269531 1282.480469 L 1737.460938 1281.648438 L 1736.988281 1280.941406 C 1736.769531 1280.601562 1736.578125 1280.289062 1736.410156 1280.011719 C 1737.109375 1280.449219 1737.839844 1280.871094 1738.660156 1281.28125 L 1745.328125 1284.621094 L 1741.230469 1278.390625 C 1740.820312 1277.769531 1740.378906 1277.121094 1739.929688 1276.449219 C 1738.691406 1274.601562 1737.410156 1272.691406 1736.269531 1270.761719 C 1743.21875 1245.210938 1754.339844 1234.738281 1777.941406 1219.910156 L 1806.601562 1211.128906 L 1832.910156 1211.070312 L 1833.488281 1210.488281 C 1834.179688 1209.800781 1834.859375 1209.019531 1835.511719 1208.261719 C 1835.828125 1207.890625 1836.140625 1207.539062 1836.441406 1207.199219 C 1838.121094 1207.851562 1839.738281 1208.441406 1841.328125 1209.019531 C 1843.28125 1209.738281 1845.308594 1210.480469 1847.390625 1211.308594 L 1848.128906 1211.609375 L 1848.878906 1211.308594 C 1850.570312 1210.628906 1851.960938 1209.75 1853.441406 1208.808594 C 1853.78125 1208.589844 1854.128906 1208.371094 1854.488281 1208.148438 C 1858.210938 1208.75 1861.921875 1209.441406 1865.5 1210.109375 C 1869.359375 1210.828125 1873.351562 1211.570312 1877.390625 1212.199219 L 1878.019531 1212.300781 L 1878.601562 1212.011719 C 1879.421875 1211.601562 1880.441406 1211.28125 1881.519531 1210.929688 C 1882.210938 1210.71875 1882.910156 1210.5 1883.628906 1210.238281 C 1893.441406 1214.058594 1903.371094 1217.878906 1913.28125 1221.699219 C 1922.589844 1225.28125 1931.890625 1228.859375 1941.089844 1232.441406 C 1946.511719 1237.199219 1952.039062 1242.078125 1957.558594 1246.941406 C 1962.191406 1251.03125 1966.808594 1255.101562 1971.339844 1259.089844 L 1971.929688 1259.609375 L 1972.730469 1259.578125 C 1983.648438 1259.230469 1992.519531 1254.121094 2001.089844 1249.179688 C 2004.128906 1247.429688 2007.261719 1245.621094 2010.460938 1244.039062 L 2010.800781 1243.871094 L 2011.050781 1243.589844 C 2013 1241.460938 2014.859375 1239.289062 2016.660156 1237.199219 C 2018.441406 1235.128906 2020.28125 1233 2022.179688 1230.898438 L 2022.699219 1230.339844 L 2022.710938 1229.578125 C 2022.730469 1227.390625 2023 1225.460938 2023.328125 1223.511719 L 2026.171875 1222.558594 L 2026.179688 1221.128906 C 2026.191406 1221.039062 2026.210938 1220.949219 2026.300781 1220.710938 L 2026.328125 1220.621094 C 2043.148438 1216.039062 2060.210938 1211.011719 2076.738281 1206.140625 L 2085.960938 1209.179688 L 2086.320312 1206.851562 C 2086.539062 1205.460938 2086.851562 1204.171875 2087.179688 1202.808594 C 2087.371094 1202.050781 2087.550781 1201.28125 2087.730469 1200.488281 C 2088.039062 1200.558594 2088.351562 1200.621094 2088.660156 1200.691406 C 2089.621094 1200.898438 2090.589844 1201.109375 2091.660156 1201.320312 L 2092.378906 1201.460938 L 2093.03125 1201.089844 C 2095.441406 1199.71875 2097.558594 1198.628906 2099.859375 1197.601562 C 2100.210938 1198.191406 2100.609375 1198.859375 2101.199219 1199.460938 L 2101.910156 1200.171875 L 2102.910156 1200.03125 C 2104.328125 1199.820312 2105.628906 1199.710938 2107.019531 1199.601562 C 2107.941406 1199.53125 2108.878906 1199.449219 2109.859375 1199.339844 C 2110.148438 1199.941406 2110.460938 1200.511719 2110.769531 1201.070312 C 2111.269531 1201.980469 2111.738281 1202.839844 2112.101562 1203.769531 L 2112.960938 1205.980469 L 2114.988281 1204.769531 C 2116.121094 1204.089844 2117.230469 1203.320312 2118.300781 1202.570312 C 2119.101562 1202.019531 2119.859375 1201.488281 2120.621094 1201.011719 C 2125.039062 1202.488281 2130.039062 1204.371094 2135.160156 1206.480469 L 2136.199219 1206.910156 L 2137.109375 1206.238281 C 2137.96875 1205.601562 2138.941406 1204.851562 2139.910156 1204.101562 C 2140.628906 1203.550781 2141.359375 1202.988281 2142.03125 1202.480469 C 2143.410156 1202.621094 2144.710938 1202.710938 2145.980469 1202.789062 C 2147.300781 1202.871094 2148.570312 1202.949219 2149.808594 1203.101562 C 2160.058594 1213.488281 2169.101562 1216.011719 2177.851562 1218.441406 C 2186.921875 1220.960938 2195.480469 1223.339844 2204.898438 1234.929688 L 2206.101562 1236.421875 L 2207.640625 1235.28125 C 2209.339844 1234.011719 2211.148438 1232.648438 2212.949219 1231.28125 C 2214.371094 1230.210938 2215.789062 1229.128906 2217.160156 1228.109375 C 2217.691406 1228.46875 2218.230469 1228.828125 2218.75 1229.179688 C 2219.261719 1229.519531 2219.78125 1229.859375 2220.28125 1230.199219 C 2220.128906 1230.679688 2219.960938 1231.160156 2219.789062 1231.660156 C 2219.441406 1232.640625 2219.078125 1233.671875 2218.820312 1234.839844 L 2218.460938 1236.5 L 2220.039062 1237.121094 C 2221.199219 1237.578125 2222.429688 1237.910156 2223.621094 1238.21875 C 2224.75 1238.519531 2225.820312 1238.808594 2226.761719 1239.179688 L 2228.578125 1239.898438 L 2229.339844 1238.089844 C 2229.789062 1237.019531 2230.238281 1235.839844 2230.691406 1234.660156 C 2231.128906 1233.53125 2231.558594 1232.390625 2231.988281 1231.359375 L 2232.28125 1230.679688 L 2232.050781 1229.980469 C 2231.730469 1228.980469 2231.480469 1228.039062 2231.230469 1227.121094 C 2230.871094 1225.769531 2230.519531 1224.488281 2230.011719 1223.171875 L 2229.121094 1220.859375 L 2224.300781 1224.039062 C 2223.398438 1223.398438 2222.539062 1222.660156 2221.640625 1221.890625 C 2221.261719 1221.570312 2220.871094 1221.238281 2220.46875 1220.910156 C 2220.460938 1219.519531 2220.398438 1218.191406 2220.328125 1216.910156 C 2220.25 1215.328125 2220.171875 1213.839844 2220.199219 1212.230469 L 2220.210938 1211.578125 L 2219.828125 1211.039062 C 2218.96875 1209.839844 2217.949219 1208.71875 2216.960938 1207.628906 C 2215.410156 1205.941406 2213.929688 1204.320312 2213.171875 1202.53125 C 2216.089844 1201.320312 2219 1199.871094 2221.859375 1198.449219 L 2223.890625 1197.441406 L 2222.628906 1195.550781 C 2220.519531 1192.398438 2218.078125 1189.410156 2215.730469 1186.519531 C 2211.058594 1180.789062 2206.640625 1175.359375 2204.441406 1168.738281 C 2204.789062 1167.980469 2205.191406 1167.199219 2205.609375 1166.390625 C 2206.160156 1165.320312 2206.730469 1164.210938 2207.191406 1163.089844 L 2207.941406 1161.28125 L 2206.148438 1160.488281 C 2204.238281 1159.648438 2202.410156 1158.910156 2200.640625 1158.191406 C 2199.128906 1157.570312 2197.570312 1156.941406 2195.96875 1156.25 C 2195.179688 1154.160156 2194.488281 1151.96875 2193.761719 1149.660156 C 2193.140625 1147.710938 2192.5 1145.679688 2191.78125 1143.648438 L 2191.628906 1143.238281 L 2191.308594 1142.921875 C 2187.238281 1138.800781 2183.558594 1133.828125 2180 1129.03125 C 2172.519531 1118.929688 2164.789062 1108.488281 2152.390625 1104.058594 C 2149.96875 1101.570312 2147.628906 1098.789062 2145.359375 1096.089844 C 2138.910156 1088.449219 2132.25 1080.558594 2122.308594 1076.878906 C 2118.828125 1071.289062 2114.75 1065.859375 2110.789062 1060.609375 C 2100.5 1046.921875 2090.769531 1033.988281 2089.699219 1017.421875 L 2089.621094 1016.078125 L 2088.328125 1015.648438 C 2087.53125 1015.378906 2086.859375 1015.25 2086.210938 1015.191406 C 2086.171875 1014.851562 2086.140625 1014.511719 2086.101562 1014.171875 C 2086 1013.261719 2085.898438 1012.390625 2085.898438 1011.660156 L 2085.898438 1009.21875 L 2083.511719 1009.699219 L 2083.320312 1009.730469 L 2082.179688 1008.019531 C 2081.53125 1007.050781 2081.160156 1005.578125 2080.761719 1004.011719 L 2080.238281 1001.929688 L 2078.191406 1002.601562 C 2077 1003 2076.128906 1003.640625 2075.289062 1004.261719 L 2075.160156 1004.359375 C 2073.820312 1003.828125 2072.46875 1003.238281 2071.148438 1002.671875 C 2069.710938 1002.039062 2068.21875 1001.390625 2066.730469 1000.808594 C 2064.890625 997.019531 2063 993.179688 2061.101562 989.300781 C 2057.449219 981.871094 2053.679688 974.191406 2050.121094 966.589844 L 2049.660156 965.609375 L 2048.589844 965.460938 C 2047.109375 965.25 2045.730469 965.03125 2044.359375 964.820312 C 2043.269531 964.660156 2042.191406 964.488281 2041.058594 964.320312 C 2037.921875 958.921875 2037.28125 953.078125 2039.160156 946.949219 L 2039.351562 946.308594 L 2039.128906 945.679688 C 2037.410156 940.941406 2035.621094 936.121094 2033.820312 931.269531 C 2031.210938 924.210938 2028.5 916.921875 2025.96875 909.710938 C 2025.46875 901.230469 2025.539062 894.128906 2030.578125 886.808594 L 2030.949219 886.269531 L 2030.929688 885.601562 C 2030.679688 878.910156 2030.53125 872.109375 2030.378906 865.519531 C 2030.230469 858.640625 2030.070312 851.539062 2029.808594 844.53125 C 2032.570312 840.378906 2035.039062 835.898438 2037.429688 831.558594 C 2042.550781 822.28125 2047.851562 812.679688 2056.140625 806.011719 L 2056.539062 805.691406 L 2056.730469 805.21875 C 2069.710938 773.890625 2075.371094 763.058594 2106.699219 747.039062 C 2114.949219 749.058594 2122.308594 746.878906 2130.28125 743.898438 C 2131.488281 744.601562 2132.710938 745.320312 2133.949219 746.058594 C 2137.78125 748.320312 2141.730469 750.648438 2145.710938 752.789062 L 2146.300781 753.109375 L 2146.960938 753.011719 C 2156.25 751.621094 2165.699219 750.101562 2174.839844 748.640625 C 2184.320312 747.121094 2194.128906 745.550781 2203.769531 744.109375 L 2204.640625 743.980469 L 2205.128906 743.261719 C 2206.21875 741.671875 2207.300781 740.039062 2208.390625 738.398438 C 2211 734.480469 2213.691406 730.429688 2216.558594 726.628906 L 2217.058594 725.980469 L 2216.949219 725.171875 C 2216.5 721.738281 2216.058594 718.679688 2215.578125 715.378906 C 2216.691406 713.648438 2217.808594 711.839844 2218.898438 710.078125 C 2220.078125 708.160156 2221.308594 706.171875 2222.511719 704.328125 L 2222.839844 703.808594 L 2222.828125 703.191406 C 2222.730469 698.421875 2222.609375 693.269531 2222.5 688.460938 C 2234.519531 675.03125 2246.820312 661.589844 2258.71875 648.589844 C 2266.480469 640.109375 2274.5 631.351562 2282.300781 622.738281 C 2292.058594 616.308594 2301.941406 609.679688 2311.5 603.261719 C 2320.78125 597.03125 2330.371094 590.601562 2339.789062 584.371094 C 2360.839844 577.421875 2379.699219 568.109375 2397.429688 555.898438 C 2405.660156 552.820312 2413.921875 549.800781 2421.910156 546.878906 C 2429.441406 544.121094 2437.238281 541.269531 2445 538.371094 L 2445.371094 538.230469 L 2445.660156 537.960938 C 2458.949219 525.539062 2472.25 512.820312 2485.121094 500.519531 C 2495.410156 490.679688 2506.039062 480.511719 2516.550781 470.609375 C 2537.089844 466.730469 2543.109375 460.519531 2553.96875 449.339844 C 2555.851562 447.410156 2557.96875 445.21875 2560.328125 442.890625 C 2561.929688 442.578125 2563.488281 442.339844 2565.011719 442.109375 C 2566.75 441.828125 2568.550781 441.558594 2570.449219 441.171875 L 2571.71875 440.921875 L 2572 439.640625 C 2572.890625 435.609375 2573.390625 431.398438 2573.871094 427.328125 C 2574.71875 420.121094 2575.53125 413.28125 2578.308594 407.25 L 2586.5 406.070312 L 2586.371094 404.21875 C 2586.25 402.46875 2586.21875 400.730469 2586.199219 398.878906 C 2586.171875 397.210938 2586.148438 395.5 2586.050781 393.699219 C 2598.339844 384.21875 2612.828125 373.121094 2627.910156 361.898438 C 2637.839844 360.558594 2647.871094 358.808594 2657.570312 357.121094 L 2658.859375 356.890625 L 2659.328125 356.28125 C 2660.949219 354.199219 2662.261719 352.429688 2663.488281 350.511719 C 2663.949219 350.660156 2664.398438 350.820312 2664.878906 350.980469 C 2665.871094 351.328125 2666.898438 351.691406 2668.070312 351.960938 L 2669.480469 352.269531 L 2670.21875 351.03125 C 2671.570312 348.78125 2673.121094 346.648438 2674.628906 344.601562 C 2675.261719 343.730469 2675.921875 342.828125 2676.550781 341.941406 C 2679.5 342.011719 2682.390625 342 2685.191406 341.988281 C 2688.328125 341.980469 2691.578125 341.96875 2694.871094 342.070312 L 2696.238281 342.109375 L 2696.769531 340.851562 C 2697.261719 339.699219 2697.839844 338.558594 2698.460938 337.339844 C 2698.910156 336.46875 2699.359375 335.570312 2699.789062 334.648438 C 2704.359375 334.230469 2709.011719 333.890625 2713.511719 333.558594 C 2718.289062 333.199219 2723.238281 332.839844 2728.109375 332.378906 L 2729.390625 332.261719 L 2729.808594 331.039062 C 2730.269531 329.71875 2730.828125 328.480469 2731.429688 327.179688 C 2731.898438 326.160156 2732.378906 325.121094 2732.808594 324.011719 C 2733.050781 323.980469 2733.308594 323.949219 2733.570312 323.921875 C 2734.359375 323.828125 2735.179688 323.738281 2735.96875 323.5 L 2737.511719 323.019531 L 2736.839844 315.609375 C 2737.128906 315.5 2737.398438 315.390625 2737.660156 315.28125 C 2738.289062 315.019531 2738.878906 314.78125 2739.519531 314.628906 L 2741.46875 314.199219 L 2741.050781 312.261719 C 2740.351562 309.039062 2739.738281 305.761719 2739.140625 302.589844 C 2738.609375 299.710938 2738.050781 296.75 2737.429688 293.800781 C 2738.050781 293.390625 2738.648438 292.960938 2739.238281 292.53125 C 2740.199219 291.851562 2741.101562 291.210938 2742.011719 290.671875 L 2743.089844 290.019531 L 2742.96875 288.761719 C 2742.601562 284.878906 2741.898438 281.351562 2741.160156 277.609375 L 2741.109375 277.328125 C 2744.078125 272.058594 2747.441406 266.71875 2750.699219 261.539062 L 2753.089844 257.761719 "/>
</svg>
