<?xml version="1.0" encoding="UTF-8"?>
<svg xmlns="http://www.w3.org/2000/svg" xmlns:xlink="http://www.w3.org/1999/xlink" width="2400" height="2400" viewBox="0 0 2400 2400">
<defs>
<clipPath id="clip-0">

</clipPath>
<linearGradient id="linear-pattern-0" gradientUnits="userSpaceOnUse" x1="0.0740725" y1="0" x2="0.895127" y2="0" gradientTransform="matrix(39.9373, 2923.34, -2923.34, 39.9373, 67.6219, -216.66)">
<stop offset="0" stop-color="rgb(98.429871%, 98.429871%, 98.429871%)" stop-opacity="1"/>
<stop offset="0.5" stop-color="rgb(98.429871%, 98.429871%, 98.429871%)" stop-opacity="1"/>
<stop offset="0.5625" stop-color="rgb(98.429871%, 98.429871%, 98.429871%)" stop-opacity="1"/>
<stop offset="0.59375" stop-color="rgb(98.376465%, 98.376465%, 98.376465%)" stop-opacity="1"/>
<stop offset="0.625" stop-color="rgb(98.179626%, 98.179626%, 98.179626%)" stop-opacity="1"/>
<stop offset="0.75" stop-color="rgb(98.03772%, 98.03772%, 98.03772%)" stop-opacity="1"/>
<stop offset="1" stop-color="rgb(98.03772%, 98.03772%, 98.03772%)" stop-opacity="1"/>
</linearGradient>
<clipPath id="clip-1">
<path clip-rule="nonzero" d="M 167.796875 0 L 216.816406 0 L 216.816406 2400 L 167.796875 2400 Z M 167.796875 0 "/>
</clipPath>
<linearGradient id="linear-pattern-1" gradientUnits="userSpaceOnUse" x1="0.0740725" y1="0" x2="0.895127" y2="0" gradientTransform="matrix(39.9373, 2923.34, -2923.34, 39.9373, 173.695, -216.66)">
<stop offset="0" stop-color="rgb(98.429871%, 98.429871%, 98.429871%)" stop-opacity="1"/>
<stop offset="0.5" stop-color="rgb(98.429871%, 98.429871%, 98.429871%)" stop-opacity="1"/>
<stop offset="0.5625" stop-color="rgb(98.429871%, 98.429871%, 98.429871%)" stop-opacity="1"/>
<stop offset="0.59375" stop-color="rgb(98.376465%, 98.376465%, 98.376465%)" stop-opacity="1"/>
<stop offset="0.625" stop-color="rgb(98.179626%, 98.179626%, 98.179626%)" stop-opacity="1"/>
<stop offset="0.75" stop-color="rgb(98.03772%, 98.03772%, 98.03772%)" stop-opacity="1"/>
<stop offset="1" stop-color="rgb(98.03772%, 98.03772%, 98.03772%)" stop-opacity="1"/>
</linearGradient>
<clipPath id="clip-2">
<path clip-rule="nonzero" d="M 273.871094 0 L 322.890625 0 L 322.890625 2400 L 273.871094 2400 Z M 273.871094 0 "/>
</clipPath>
<linearGradient id="linear-pattern-2" gradientUnits="userSpaceOnUse" x1="0.0740725" y1="0" x2="0.895127" y2="0" gradientTransform="matrix(39.9373, 2923.34, -2923.34, 39.9373, 279.768, -216.66)">
<stop offset="0" stop-color="rgb(98.429871%, 98.429871%, 98.429871%)" stop-opacity="1"/>
<stop offset="0.5" stop-color="rgb(98.429871%, 98.429871%, 98.429871%)" stop-opacity="1"/>
<stop offset="0.5625" stop-color="rgb(98.429871%, 98.429871%, 98.429871%)" stop-opacity="1"/>
<stop offset="0.59375" stop-color="rgb(98.376465%, 98.376465%, 98.376465%)" stop-opacity="1"/>
<stop offset="0.625" stop-color="rgb(98.179626%, 98.179626%, 98.179626%)" stop-opacity="1"/>
<stop offset="0.75" stop-color="rgb(98.03772%, 98.03772%, 98.03772%)" stop-opacity="1"/>
<stop offset="1" stop-color="rgb(98.03772%, 98.03772%, 98.03772%)" stop-opacity="1"/>
</linearGradient>
<clipPath id="clip-3">
<path clip-rule="nonzero" d="M 379.945312 0 L 428.960938 0 L 428.960938 2400 L 379.945312 2400 Z M 379.945312 0 "/>
</clipPath>
<linearGradient id="linear-pattern-3" gradientUnits="userSpaceOnUse" x1="0.0740725" y1="0" x2="0.895127" y2="0" gradientTransform="matrix(39.9373, 2923.34, -2923.34, 39.9373, 385.841, -216.66)">
<stop offset="0" stop-color="rgb(98.429871%, 98.429871%, 98.429871%)" stop-opacity="1"/>
<stop offset="0.5" stop-color="rgb(98.429871%, 98.429871%, 98.429871%)" stop-opacity="1"/>
<stop offset="0.5625" stop-color="rgb(98.429871%, 98.429871%, 98.429871%)" stop-opacity="1"/>
<stop offset="0.59375" stop-color="rgb(98.376465%, 98.376465%, 98.376465%)" stop-opacity="1"/>
<stop offset="0.625" stop-color="rgb(98.179626%, 98.179626%, 98.179626%)" stop-opacity="1"/>
<stop offset="0.75" stop-color="rgb(98.03772%, 98.03772%, 98.03772%)" stop-opacity="1"/>
<stop offset="1" stop-color="rgb(98.03772%, 98.03772%, 98.03772%)" stop-opacity="1"/>
</linearGradient>
<clipPath id="clip-4">
<path clip-rule="nonzero" d="M 486.015625 0 L 535.035156 0 L 535.035156 2400 L 486.015625 2400 Z M 486.015625 0 "/>
</clipPath>
<linearGradient id="linear-pattern-4" gradientUnits="userSpaceOnUse" x1="0.0740725" y1="0" x2="0.895127" y2="0" gradientTransform="matrix(39.9373, 2923.34, -2923.34, 39.9373, 491.914, -216.66)">
<stop offset="0" stop-color="rgb(98.429871%, 98.429871%, 98.429871%)" stop-opacity="1"/>
<stop offset="0.5" stop-color="rgb(98.429871%, 98.429871%, 98.429871%)" stop-opacity="1"/>
<stop offset="0.5625" stop-color="rgb(98.429871%, 98.429871%, 98.429871%)" stop-opacity="1"/>
<stop offset="0.59375" stop-color="rgb(98.376465%, 98.376465%, 98.376465%)" stop-opacity="1"/>
<stop offset="0.625" stop-color="rgb(98.179626%, 98.179626%, 98.179626%)" stop-opacity="1"/>
<stop offset="0.75" stop-color="rgb(98.03772%, 98.03772%, 98.03772%)" stop-opacity="1"/>
<stop offset="1" stop-color="rgb(98.03772%, 98.03772%, 98.03772%)" stop-opacity="1"/>
</linearGradient>
<clipPath id="clip-5">
<path clip-rule="nonzero" d="M 592.089844 0 L 641.109375 0 L 641.109375 2400 L 592.089844 2400 Z M 592.089844 0 "/>
</clipPath>
<linearGradient id="linear-pattern-5" gradientUnits="userSpaceOnUse" x1="0.0740725" y1="0" x2="0.895127" y2="0" gradientTransform="matrix(39.9373, 2923.34, -2923.34, 39.9373, 597.987, -216.66)">
<stop offset="0" stop-color="rgb(98.429871%, 98.429871%, 98.429871%)" stop-opacity="1"/>
<stop offset="0.5" stop-color="rgb(98.429871%, 98.429871%, 98.429871%)" stop-opacity="1"/>
<stop offset="0.5625" stop-color="rgb(98.429871%, 98.429871%, 98.429871%)" stop-opacity="1"/>
<stop offset="0.59375" stop-color="rgb(98.376465%, 98.376465%, 98.376465%)" stop-opacity="1"/>
<stop offset="0.625" stop-color="rgb(98.179626%, 98.179626%, 98.179626%)" stop-opacity="1"/>
<stop offset="0.75" stop-color="rgb(98.03772%, 98.03772%, 98.03772%)" stop-opacity="1"/>
<stop offset="1" stop-color="rgb(98.03772%, 98.03772%, 98.03772%)" stop-opacity="1"/>
</linearGradient>
<clipPath id="clip-6">
<path clip-rule="nonzero" d="M 698.160156 0 L 747.179688 0 L 747.179688 2400 L 698.160156 2400 Z M 698.160156 0 "/>
</clipPath>
<linearGradient id="linear-pattern-6" gradientUnits="userSpaceOnUse" x1="0.0740725" y1="0" x2="0.895127" y2="0" gradientTransform="matrix(39.9373, 2923.34, -2923.34, 39.9373, 704.06, -216.66)">
<stop offset="0" stop-color="rgb(98.429871%, 98.429871%, 98.429871%)" stop-opacity="1"/>
<stop offset="0.5" stop-color="rgb(98.429871%, 98.429871%, 98.429871%)" stop-opacity="1"/>
<stop offset="0.5625" stop-color="rgb(98.429871%, 98.429871%, 98.429871%)" stop-opacity="1"/>
<stop offset="0.59375" stop-color="rgb(98.376465%, 98.376465%, 98.376465%)" stop-opacity="1"/>
<stop offset="0.625" stop-color="rgb(98.179626%, 98.179626%, 98.179626%)" stop-opacity="1"/>
<stop offset="0.75" stop-color="rgb(98.03772%, 98.03772%, 98.03772%)" stop-opacity="1"/>
<stop offset="1" stop-color="rgb(98.03772%, 98.03772%, 98.03772%)" stop-opacity="1"/>
</linearGradient>
<clipPath id="clip-7">
<path clip-rule="nonzero" d="M 804.234375 0 L 853.253906 0 L 853.253906 2400 L 804.234375 2400 Z M 804.234375 0 "/>
</clipPath>
<linearGradient id="linear-pattern-7" gradientUnits="userSpaceOnUse" x1="0.0740725" y1="0" x2="0.895127" y2="0" gradientTransform="matrix(39.9373, 2923.34, -2923.34, 39.9373, 810.133, -216.66)">
<stop offset="0" stop-color="rgb(98.429871%, 98.429871%, 98.429871%)" stop-opacity="1"/>
<stop offset="0.5" stop-color="rgb(98.429871%, 98.429871%, 98.429871%)" stop-opacity="1"/>
<stop offset="0.5625" stop-color="rgb(98.429871%, 98.429871%, 98.429871%)" stop-opacity="1"/>
<stop offset="0.59375" stop-color="rgb(98.376465%, 98.376465%, 98.376465%)" stop-opacity="1"/>
<stop offset="0.625" stop-color="rgb(98.179626%, 98.179626%, 98.179626%)" stop-opacity="1"/>
<stop offset="0.75" stop-color="rgb(98.03772%, 98.03772%, 98.03772%)" stop-opacity="1"/>
<stop offset="1" stop-color="rgb(98.03772%, 98.03772%, 98.03772%)" stop-opacity="1"/>
</linearGradient>
<clipPath id="clip-8">
<path clip-rule="nonzero" d="M 910.308594 0 L 959.328125 0 L 959.328125 2400 L 910.308594 2400 Z M 910.308594 0 "/>
</clipPath>
<linearGradient id="linear-pattern-8" gradientUnits="userSpaceOnUse" x1="0.0740725" y1="0" x2="0.895127" y2="0" gradientTransform="matrix(39.9373, 2923.34, -2923.34, 39.9373, 916.205, -216.66)">
<stop offset="0" stop-color="rgb(98.429871%, 98.429871%, 98.429871%)" stop-opacity="1"/>
<stop offset="0.5" stop-color="rgb(98.429871%, 98.429871%, 98.429871%)" stop-opacity="1"/>
<stop offset="0.5625" stop-color="rgb(98.429871%, 98.429871%, 98.429871%)" stop-opacity="1"/>
<stop offset="0.59375" stop-color="rgb(98.376465%, 98.376465%, 98.376465%)" stop-opacity="1"/>
<stop offset="0.625" stop-color="rgb(98.179626%, 98.179626%, 98.179626%)" stop-opacity="1"/>
<stop offset="0.75" stop-color="rgb(98.03772%, 98.03772%, 98.03772%)" stop-opacity="1"/>
<stop offset="1" stop-color="rgb(98.03772%, 98.03772%, 98.03772%)" stop-opacity="1"/>
</linearGradient>
<clipPath id="clip-9">
<path clip-rule="nonzero" d="M 1016.378906 0 L 1065.398438 0 L 1065.398438 2400 L 1016.378906 2400 Z M 1016.378906 0 "/>
</clipPath>
<linearGradient id="linear-pattern-9" gradientUnits="userSpaceOnUse" x1="0.0740725" y1="0" x2="0.895127" y2="0" gradientTransform="matrix(39.9373, 2923.34, -2923.34, 39.9373, 1022.28, -216.66)">
<stop offset="0" stop-color="rgb(98.429871%, 98.429871%, 98.429871%)" stop-opacity="1"/>
<stop offset="0.5" stop-color="rgb(98.429871%, 98.429871%, 98.429871%)" stop-opacity="1"/>
<stop offset="0.5625" stop-color="rgb(98.429871%, 98.429871%, 98.429871%)" stop-opacity="1"/>
<stop offset="0.59375" stop-color="rgb(98.376465%, 98.376465%, 98.376465%)" stop-opacity="1"/>
<stop offset="0.625" stop-color="rgb(98.179626%, 98.179626%, 98.179626%)" stop-opacity="1"/>
<stop offset="0.75" stop-color="rgb(98.03772%, 98.03772%, 98.03772%)" stop-opacity="1"/>
<stop offset="1" stop-color="rgb(98.03772%, 98.03772%, 98.03772%)" stop-opacity="1"/>
</linearGradient>
<clipPath id="clip-10">
<path clip-rule="nonzero" d="M 1122.449219 0 L 1171.46875 0 L 1171.46875 2400 L 1122.449219 2400 Z M 1122.449219 0 "/>
</clipPath>
<linearGradient id="linear-pattern-10" gradientUnits="userSpaceOnUse" x1="0.0740725" y1="0" x2="0.895127" y2="0" gradientTransform="matrix(39.9373, 2923.34, -2923.34, 39.9373, 1128.35, -216.66)">
<stop offset="0" stop-color="rgb(98.429871%, 98.429871%, 98.429871%)" stop-opacity="1"/>
<stop offset="0.5" stop-color="rgb(98.429871%, 98.429871%, 98.429871%)" stop-opacity="1"/>
<stop offset="0.5625" stop-color="rgb(98.429871%, 98.429871%, 98.429871%)" stop-opacity="1"/>
<stop offset="0.59375" stop-color="rgb(98.376465%, 98.376465%, 98.376465%)" stop-opacity="1"/>
<stop offset="0.625" stop-color="rgb(98.179626%, 98.179626%, 98.179626%)" stop-opacity="1"/>
<stop offset="0.75" stop-color="rgb(98.03772%, 98.03772%, 98.03772%)" stop-opacity="1"/>
<stop offset="1" stop-color="rgb(98.03772%, 98.03772%, 98.03772%)" stop-opacity="1"/>
</linearGradient>
<clipPath id="clip-11">
<path clip-rule="nonzero" d="M 1228.53125 0 L 1277.550781 0 L 1277.550781 2400 L 1228.53125 2400 Z M 1228.53125 0 "/>
</clipPath>
<linearGradient id="linear-pattern-11" gradientUnits="userSpaceOnUse" x1="0.0740725" y1="0" x2="0.895127" y2="0" gradientTransform="matrix(39.9373, 2923.34, -2923.34, 39.9373, 1234.42, -216.66)">
<stop offset="0" stop-color="rgb(98.429871%, 98.429871%, 98.429871%)" stop-opacity="1"/>
<stop offset="0.5" stop-color="rgb(98.429871%, 98.429871%, 98.429871%)" stop-opacity="1"/>
<stop offset="0.5625" stop-color="rgb(98.429871%, 98.429871%, 98.429871%)" stop-opacity="1"/>
<stop offset="0.59375" stop-color="rgb(98.376465%, 98.376465%, 98.376465%)" stop-opacity="1"/>
<stop offset="0.625" stop-color="rgb(98.179626%, 98.179626%, 98.179626%)" stop-opacity="1"/>
<stop offset="0.75" stop-color="rgb(98.03772%, 98.03772%, 98.03772%)" stop-opacity="1"/>
<stop offset="1" stop-color="rgb(98.03772%, 98.03772%, 98.03772%)" stop-opacity="1"/>
</linearGradient>
<clipPath id="clip-12">
<path clip-rule="nonzero" d="M 1334.601562 0 L 1383.621094 0 L 1383.621094 2400 L 1334.601562 2400 Z M 1334.601562 0 "/>
</clipPath>
<linearGradient id="linear-pattern-12" gradientUnits="userSpaceOnUse" x1="0.0740725" y1="0" x2="0.895127" y2="0" gradientTransform="matrix(39.9373, 2923.34, -2923.34, 39.9373, 1340.5, -216.66)">
<stop offset="0" stop-color="rgb(98.429871%, 98.429871%, 98.429871%)" stop-opacity="1"/>
<stop offset="0.5" stop-color="rgb(98.429871%, 98.429871%, 98.429871%)" stop-opacity="1"/>
<stop offset="0.5625" stop-color="rgb(98.429871%, 98.429871%, 98.429871%)" stop-opacity="1"/>
<stop offset="0.59375" stop-color="rgb(98.376465%, 98.376465%, 98.376465%)" stop-opacity="1"/>
<stop offset="0.625" stop-color="rgb(98.179626%, 98.179626%, 98.179626%)" stop-opacity="1"/>
<stop offset="0.75" stop-color="rgb(98.03772%, 98.03772%, 98.03772%)" stop-opacity="1"/>
<stop offset="1" stop-color="rgb(98.03772%, 98.03772%, 98.03772%)" stop-opacity="1"/>
</linearGradient>
<clipPath id="clip-13">
<path clip-rule="nonzero" d="M 1440.671875 0 L 1489.691406 0 L 1489.691406 2400 L 1440.671875 2400 Z M 1440.671875 0 "/>
</clipPath>
<linearGradient id="linear-pattern-13" gradientUnits="userSpaceOnUse" x1="0.0740725" y1="0" x2="0.895127" y2="0" gradientTransform="matrix(39.9373, 2923.34, -2923.34, 39.9373, 1446.57, -216.66)">
<stop offset="0" stop-color="rgb(98.429871%, 98.429871%, 98.429871%)" stop-opacity="1"/>
<stop offset="0.5" stop-color="rgb(98.429871%, 98.429871%, 98.429871%)" stop-opacity="1"/>
<stop offset="0.5625" stop-color="rgb(98.429871%, 98.429871%, 98.429871%)" stop-opacity="1"/>
<stop offset="0.59375" stop-color="rgb(98.376465%, 98.376465%, 98.376465%)" stop-opacity="1"/>
<stop offset="0.625" stop-color="rgb(98.179626%, 98.179626%, 98.179626%)" stop-opacity="1"/>
<stop offset="0.75" stop-color="rgb(98.03772%, 98.03772%, 98.03772%)" stop-opacity="1"/>
<stop offset="1" stop-color="rgb(98.03772%, 98.03772%, 98.03772%)" stop-opacity="1"/>
</linearGradient>
<clipPath id="clip-14">
<path clip-rule="nonzero" d="M 1546.75 0 L 1595.761719 0 L 1595.761719 2400 L 1546.75 2400 Z M 1546.75 0 "/>
</clipPath>
<linearGradient id="linear-pattern-14" gradientUnits="userSpaceOnUse" x1="0.0740725" y1="0" x2="0.895127" y2="0" gradientTransform="matrix(39.9373, 2923.34, -2923.34, 39.9373, 1552.64, -216.66)">
<stop offset="0" stop-color="rgb(98.429871%, 98.429871%, 98.429871%)" stop-opacity="1"/>
<stop offset="0.5" stop-color="rgb(98.429871%, 98.429871%, 98.429871%)" stop-opacity="1"/>
<stop offset="0.5625" stop-color="rgb(98.429871%, 98.429871%, 98.429871%)" stop-opacity="1"/>
<stop offset="0.59375" stop-color="rgb(98.376465%, 98.376465%, 98.376465%)" stop-opacity="1"/>
<stop offset="0.625" stop-color="rgb(98.179626%, 98.179626%, 98.179626%)" stop-opacity="1"/>
<stop offset="0.75" stop-color="rgb(98.03772%, 98.03772%, 98.03772%)" stop-opacity="1"/>
<stop offset="1" stop-color="rgb(98.03772%, 98.03772%, 98.03772%)" stop-opacity="1"/>
</linearGradient>
<clipPath id="clip-15">
<path clip-rule="nonzero" d="M 1652.820312 0 L 1701.839844 0 L 1701.839844 2400 L 1652.820312 2400 Z M 1652.820312 0 "/>
</clipPath>
<linearGradient id="linear-pattern-15" gradientUnits="userSpaceOnUse" x1="0.0740725" y1="0" x2="0.895127" y2="0" gradientTransform="matrix(39.9373, 2923.34, -2923.34, 39.9373, 1658.72, -216.66)">
<stop offset="0" stop-color="rgb(98.429871%, 98.429871%, 98.429871%)" stop-opacity="1"/>
<stop offset="0.5" stop-color="rgb(98.429871%, 98.429871%, 98.429871%)" stop-opacity="1"/>
<stop offset="0.5625" stop-color="rgb(98.429871%, 98.429871%, 98.429871%)" stop-opacity="1"/>
<stop offset="0.59375" stop-color="rgb(98.376465%, 98.376465%, 98.376465%)" stop-opacity="1"/>
<stop offset="0.625" stop-color="rgb(98.179626%, 98.179626%, 98.179626%)" stop-opacity="1"/>
<stop offset="0.75" stop-color="rgb(98.03772%, 98.03772%, 98.03772%)" stop-opacity="1"/>
<stop offset="1" stop-color="rgb(98.03772%, 98.03772%, 98.03772%)" stop-opacity="1"/>
</linearGradient>
<clipPath id="clip-16">
<path clip-rule="nonzero" d="M 1758.890625 0 L 1807.910156 0 L 1807.910156 2400 L 1758.890625 2400 Z M 1758.890625 0 "/>
</clipPath>
<linearGradient id="linear-pattern-16" gradientUnits="userSpaceOnUse" x1="0.0740725" y1="0" x2="0.895127" y2="0" gradientTransform="matrix(39.9373, 2923.34, -2923.34, 39.9373, 1764.79, -216.66)">
<stop offset="0" stop-color="rgb(98.429871%, 98.429871%, 98.429871%)" stop-opacity="1"/>
<stop offset="0.5" stop-color="rgb(98.429871%, 98.429871%, 98.429871%)" stop-opacity="1"/>
<stop offset="0.5625" stop-color="rgb(98.429871%, 98.429871%, 98.429871%)" stop-opacity="1"/>
<stop offset="0.59375" stop-color="rgb(98.376465%, 98.376465%, 98.376465%)" stop-opacity="1"/>
<stop offset="0.625" stop-color="rgb(98.179626%, 98.179626%, 98.179626%)" stop-opacity="1"/>
<stop offset="0.75" stop-color="rgb(98.03772%, 98.03772%, 98.03772%)" stop-opacity="1"/>
<stop offset="1" stop-color="rgb(98.03772%, 98.03772%, 98.03772%)" stop-opacity="1"/>
</linearGradient>
<clipPath id="clip-17">
<path clip-rule="nonzero" d="M 1864.960938 0 L 1913.980469 0 L 1913.980469 2400 L 1864.960938 2400 Z M 1864.960938 0 "/>
</clipPath>
<linearGradient id="linear-pattern-17" gradientUnits="userSpaceOnUse" x1="0.0740725" y1="0" x2="0.895127" y2="0" gradientTransform="matrix(39.9373, 2923.34, -2923.34, 39.9373, 1870.86, -216.66)">
<stop offset="0" stop-color="rgb(98.429871%, 98.429871%, 98.429871%)" stop-opacity="1"/>
<stop offset="0.5" stop-color="rgb(98.429871%, 98.429871%, 98.429871%)" stop-opacity="1"/>
<stop offset="0.5625" stop-color="rgb(98.429871%, 98.429871%, 98.429871%)" stop-opacity="1"/>
<stop offset="0.59375" stop-color="rgb(98.376465%, 98.376465%, 98.376465%)" stop-opacity="1"/>
<stop offset="0.625" stop-color="rgb(98.179626%, 98.179626%, 98.179626%)" stop-opacity="1"/>
<stop offset="0.75" stop-color="rgb(98.03772%, 98.03772%, 98.03772%)" stop-opacity="1"/>
<stop offset="1" stop-color="rgb(98.03772%, 98.03772%, 98.03772%)" stop-opacity="1"/>
</linearGradient>
<clipPath id="clip-18">
<path clip-rule="nonzero" d="M 1971.039062 0 L 2020.058594 0 L 2020.058594 2400 L 1971.039062 2400 Z M 1971.039062 0 "/>
</clipPath>
<linearGradient id="linear-pattern-18" gradientUnits="userSpaceOnUse" x1="0.0740725" y1="0" x2="0.895127" y2="0" gradientTransform="matrix(39.9373, 2923.34, -2923.34, 39.9373, 1976.93, -216.66)">
<stop offset="0" stop-color="rgb(98.429871%, 98.429871%, 98.429871%)" stop-opacity="1"/>
<stop offset="0.5" stop-color="rgb(98.429871%, 98.429871%, 98.429871%)" stop-opacity="1"/>
<stop offset="0.5625" stop-color="rgb(98.429871%, 98.429871%, 98.429871%)" stop-opacity="1"/>
<stop offset="0.59375" stop-color="rgb(98.376465%, 98.376465%, 98.376465%)" stop-opacity="1"/>
<stop offset="0.625" stop-color="rgb(98.179626%, 98.179626%, 98.179626%)" stop-opacity="1"/>
<stop offset="0.75" stop-color="rgb(98.03772%, 98.03772%, 98.03772%)" stop-opacity="1"/>
<stop offset="1" stop-color="rgb(98.03772%, 98.03772%, 98.03772%)" stop-opacity="1"/>
</linearGradient>
<clipPath id="clip-19">
<path clip-rule="nonzero" d="M 2077.109375 0 L 2126.128906 0 L 2126.128906 2400 L 2077.109375 2400 Z M 2077.109375 0 "/>
</clipPath>
<linearGradient id="linear-pattern-19" gradientUnits="userSpaceOnUse" x1="0.0740725" y1="0" x2="0.895127" y2="0" gradientTransform="matrix(39.9373, 2923.34, -2923.34, 39.9373, 2083.01, -216.66)">
<stop offset="0" stop-color="rgb(98.429871%, 98.429871%, 98.429871%)" stop-opacity="1"/>
<stop offset="0.5" stop-color="rgb(98.429871%, 98.429871%, 98.429871%)" stop-opacity="1"/>
<stop offset="0.5625" stop-color="rgb(98.429871%, 98.429871%, 98.429871%)" stop-opacity="1"/>
<stop offset="0.59375" stop-color="rgb(98.376465%, 98.376465%, 98.376465%)" stop-opacity="1"/>
<stop offset="0.625" stop-color="rgb(98.179626%, 98.179626%, 98.179626%)" stop-opacity="1"/>
<stop offset="0.75" stop-color="rgb(98.03772%, 98.03772%, 98.03772%)" stop-opacity="1"/>
<stop offset="1" stop-color="rgb(98.03772%, 98.03772%, 98.03772%)" stop-opacity="1"/>
</linearGradient>
<clipPath id="clip-20">
<path clip-rule="nonzero" d="M 2183.179688 0 L 2232.199219 0 L 2232.199219 2400 L 2183.179688 2400 Z M 2183.179688 0 "/>
</clipPath>
<linearGradient id="linear-pattern-20" gradientUnits="userSpaceOnUse" x1="0.0740725" y1="0" x2="0.895127" y2="0" gradientTransform="matrix(39.9373, 2923.34, -2923.34, 39.9373, 2189.08, -216.66)">
<stop offset="0" stop-color="rgb(98.429871%, 98.429871%, 98.429871%)" stop-opacity="1"/>
<stop offset="0.5" stop-color="rgb(98.429871%, 98.429871%, 98.429871%)" stop-opacity="1"/>
<stop offset="0.5625" stop-color="rgb(98.429871%, 98.429871%, 98.429871%)" stop-opacity="1"/>
<stop offset="0.59375" stop-color="rgb(98.376465%, 98.376465%, 98.376465%)" stop-opacity="1"/>
<stop offset="0.625" stop-color="rgb(98.179626%, 98.179626%, 98.179626%)" stop-opacity="1"/>
<stop offset="0.75" stop-color="rgb(98.03772%, 98.03772%, 98.03772%)" stop-opacity="1"/>
<stop offset="1" stop-color="rgb(98.03772%, 98.03772%, 98.03772%)" stop-opacity="1"/>
</linearGradient>
<clipPath id="clip-21">
<path clip-rule="nonzero" d="M 2289.261719 0 L 2338.269531 0 L 2338.269531 2400 L 2289.261719 2400 Z M 2289.261719 0 "/>
</clipPath>
<linearGradient id="linear-pattern-21" gradientUnits="userSpaceOnUse" x1="0.0740725" y1="0" x2="0.895127" y2="0" gradientTransform="matrix(39.9373, 2923.34, -2923.34, 39.9373, 2295.15, -216.66)">
<stop offset="0" stop-color="rgb(98.429871%, 98.429871%, 98.429871%)" stop-opacity="1"/>
<stop offset="0.5" stop-color="rgb(98.429871%, 98.429871%, 98.429871%)" stop-opacity="1"/>
<stop offset="0.5625" stop-color="rgb(98.429871%, 98.429871%, 98.429871%)" stop-opacity="1"/>
<stop offset="0.59375" stop-color="rgb(98.376465%, 98.376465%, 98.376465%)" stop-opacity="1"/>
<stop offset="0.625" stop-color="rgb(98.179626%, 98.179626%, 98.179626%)" stop-opacity="1"/>
<stop offset="0.75" stop-color="rgb(98.03772%, 98.03772%, 98.03772%)" stop-opacity="1"/>
<stop offset="1" stop-color="rgb(98.03772%, 98.03772%, 98.03772%)" stop-opacity="1"/>
</linearGradient>
</defs>


<g clip-path="url(#clip-0)">
<path fill-rule="nonzero" fill="url(#linear-pattern-0)" d="M 110.734375 -0.667969 L 28.945312 0.449219 L 61.734375 2400.667969 L 143.523438 2399.550781 Z M 110.734375 -0.667969 "/>
</g>
<g clip-path="url(#clip-1)">
<path fill-rule="nonzero" fill="url(#linear-pattern-1)" d="M 216.808594 -0.667969 L 135.015625 0.449219 L 167.808594 2400.667969 L 249.597656 2399.550781 Z M 216.808594 -0.667969 "/>
</g>
<g clip-path="url(#clip-2)">
<path fill-rule="nonzero" fill="url(#linear-pattern-2)" d="M 322.878906 -0.667969 L 241.089844 0.449219 L 273.878906 2400.667969 L 355.671875 2399.550781 Z M 322.878906 -0.667969 "/>
</g>
<g clip-path="url(#clip-3)">
<path fill-rule="nonzero" fill="url(#linear-pattern-3)" d="M 428.953125 -0.667969 L 347.164062 0.449219 L 379.953125 2400.667969 L 461.742188 2399.550781 Z M 428.953125 -0.667969 "/>
</g>
<g clip-path="url(#clip-4)">
<path fill-rule="nonzero" fill="url(#linear-pattern-4)" d="M 535.027344 -0.667969 L 453.234375 0.449219 L 486.027344 2400.667969 L 567.816406 2399.550781 Z M 535.027344 -0.667969 "/>
</g>
<g clip-path="url(#clip-5)">
<path fill-rule="nonzero" fill="url(#linear-pattern-5)" d="M 641.097656 -0.667969 L 559.308594 0.449219 L 592.097656 2400.667969 L 673.890625 2399.550781 Z M 641.097656 -0.667969 "/>
</g>
<g clip-path="url(#clip-6)">
<path fill-rule="nonzero" fill="url(#linear-pattern-6)" d="M 747.171875 -0.667969 L 665.378906 0.449219 L 698.171875 2400.667969 L 779.960938 2399.550781 Z M 747.171875 -0.667969 "/>
</g>
<g clip-path="url(#clip-7)">
<path fill-rule="nonzero" fill="url(#linear-pattern-7)" d="M 853.246094 -0.667969 L 771.453125 0.449219 L 804.246094 2400.667969 L 886.035156 2399.550781 Z M 853.246094 -0.667969 "/>
</g>
<g clip-path="url(#clip-8)">
<path fill-rule="nonzero" fill="url(#linear-pattern-8)" d="M 959.316406 -0.667969 L 877.527344 0.449219 L 910.316406 2400.667969 L 992.109375 2399.550781 Z M 959.316406 -0.667969 "/>
</g>
<g clip-path="url(#clip-9)">
<path fill-rule="nonzero" fill="url(#linear-pattern-9)" d="M 1065.390625 -0.667969 L 983.597656 0.449219 L 1016.390625 2400.667969 L 1098.179688 2399.550781 Z M 1065.390625 -0.667969 "/>
</g>
<g clip-path="url(#clip-10)">
<path fill-rule="nonzero" fill="url(#linear-pattern-10)" d="M 1171.460938 -0.667969 L 1089.667969 0.449219 L 1122.460938 2400.667969 L 1204.25 2399.550781 Z M 1171.460938 -0.667969 "/>
</g>
<g clip-path="url(#clip-11)">
<path fill-rule="nonzero" fill="url(#linear-pattern-11)" d="M 1277.539062 -0.667969 L 1195.75 0.449219 L 1228.539062 2400.667969 L 1310.332031 2399.550781 Z M 1277.539062 -0.667969 "/>
</g>
<g clip-path="url(#clip-12)">
<path fill-rule="nonzero" fill="url(#linear-pattern-12)" d="M 1383.609375 -0.667969 L 1301.820312 0.449219 L 1334.609375 2400.667969 L 1416.402344 2399.550781 Z M 1383.609375 -0.667969 "/>
</g>
<g clip-path="url(#clip-13)">
<path fill-rule="nonzero" fill="url(#linear-pattern-13)" d="M 1489.679688 -0.667969 L 1407.886719 0.449219 L 1440.679688 2400.667969 L 1522.472656 2399.550781 Z M 1489.679688 -0.667969 "/>
</g>
<g clip-path="url(#clip-14)">
<path fill-rule="nonzero" fill="url(#linear-pattern-14)" d="M 1595.75 -0.667969 L 1513.96875 0.449219 L 1546.757812 2400.667969 L 1628.542969 2399.550781 Z M 1595.75 -0.667969 "/>
</g>
<g clip-path="url(#clip-15)">
<path fill-rule="nonzero" fill="url(#linear-pattern-15)" d="M 1701.832031 -0.667969 L 1620.039062 0.449219 L 1652.828125 2400.667969 L 1734.621094 2399.550781 Z M 1701.832031 -0.667969 "/>
</g>
<g clip-path="url(#clip-16)">
<path fill-rule="nonzero" fill="url(#linear-pattern-16)" d="M 1807.902344 -0.667969 L 1726.109375 0.449219 L 1758.898438 2400.667969 L 1840.691406 2399.550781 Z M 1807.902344 -0.667969 "/>
</g>
<g clip-path="url(#clip-17)">
<path fill-rule="nonzero" fill="url(#linear-pattern-17)" d="M 1913.972656 -0.667969 L 1832.179688 0.449219 L 1864.96875 2400.667969 L 1946.761719 2399.550781 Z M 1913.972656 -0.667969 "/>
</g>
<g clip-path="url(#clip-18)">
<path fill-rule="nonzero" fill="url(#linear-pattern-18)" d="M 2020.050781 -0.667969 L 1938.257812 0.449219 L 1971.050781 2400.667969 L 2052.839844 2399.550781 Z M 2020.050781 -0.667969 "/>
</g>
<g clip-path="url(#clip-19)">
<path fill-rule="nonzero" fill="url(#linear-pattern-19)" d="M 2126.121094 -0.667969 L 2044.328125 0.449219 L 2077.121094 2400.667969 L 2158.910156 2399.550781 Z M 2126.121094 -0.667969 "/>
</g>
<g clip-path="url(#clip-20)">
<path fill-rule="nonzero" fill="url(#linear-pattern-20)" d="M 2232.191406 -0.667969 L 2150.398438 0.449219 L 2183.1875 2400.667969 L 2264.980469 2399.550781 Z M 2232.191406 -0.667969 "/>
</g>
<g clip-path="url(#clip-21)">
<path fill-rule="nonzero" fill="url(#linear-pattern-21)" d="M 2338.261719 -0.667969 L 2256.476562 0.449219 L 2289.269531 2400.667969 L 2371.050781 2399.550781 Z M 2338.261719 -0.667969 "/>
</g>
<path fill-rule="nonzero" fill="rgb(4.704285%, 9.008789%, 33.714294%)" fill-opacity="1" d="M 2169.75 1543.441406 C 2153.761719 1539.46875 2148.710938 1533.75 2138.210938 1521.320312 C 2137.738281 1518.160156 2137.101562 1515.210938 2136.421875 1512.109375 L 2135.78125 1509.148438 L 2134.890625 1508.480469 C 2133.710938 1507.589844 2132.53125 1506.75 2131.371094 1505.949219 L 2132.421875 1505.671875 L 2131.699219 1502.789062 C 2130.238281 1496.929688 2128.769531 1491.070312 2127.289062 1485.199219 L 2127.019531 1484.121094 L 2126.109375 1483.480469 C 2124.449219 1482.320312 2122.890625 1481.078125 2121.230469 1479.78125 C 2120.078125 1478.878906 2118.898438 1477.949219 2117.679688 1477.039062 C 2118.070312 1474.988281 2118.410156 1472.980469 2118.75 1471.019531 C 2119.179688 1468.539062 2119.621094 1465.96875 2120.128906 1463.378906 L 2120.511719 1461.488281 L 2118.941406 1460.371094 C 2114.691406 1457.320312 2110.441406 1454.121094 2106.328125 1451.039062 C 2102.511719 1448.171875 2098.578125 1445.21875 2094.621094 1442.351562 C 2093.390625 1438.851562 2092.210938 1435.238281 2091.058594 1431.730469 C 2089.769531 1427.78125 2088.429688 1423.691406 2087.019531 1419.730469 L 2086.300781 1417.710938 L 2077.109375 1417.820312 C 2076.851562 1415.019531 2076.480469 1412.179688 2076.109375 1409.550781 C 2083.210938 1402.578125 2087.191406 1394.109375 2088.929688 1382.328125 L 2089.171875 1380.710938 L 2087.941406 1379.640625 C 2085.851562 1377.800781 2083.609375 1376.089844 2081.441406 1374.429688 C 2080.699219 1373.859375 2079.960938 1373.289062 2079.210938 1372.710938 C 2079.558594 1371.101562 2079.871094 1369.480469 2080.171875 1367.910156 C 2080.578125 1365.800781 2081 1363.621094 2081.480469 1361.5 L 2082.101562 1358.808594 L 2079.46875 1357.96875 C 2077.988281 1357.5 2076.601562 1357.109375 2075.25 1356.738281 C 2074.449219 1356.511719 2073.679688 1356.300781 2072.890625 1356.070312 C 2072.660156 1355.011719 2072.410156 1353.941406 2072.171875 1352.890625 C 2071.800781 1351.328125 2071.421875 1349.710938 2071.128906 1348.21875 L 2070.75 1346.269531 L 2062.261719 1344.488281 C 2061.878906 1342.058594 2061.449219 1339.628906 2061.03125 1337.25 C 2058.628906 1323.601562 2056.351562 1310.710938 2061.5 1298.039062 L 2062.058594 1296.640625 L 2061.28125 1295.351562 C 2060.300781 1293.75 2059.238281 1292.148438 2058.21875 1290.601562 C 2057.660156 1289.75 2057.078125 1288.878906 2056.519531 1288.019531 C 2063.289062 1281.101562 2069.929688 1274.359375 2076.558594 1267.890625 L 2078.140625 1266.351562 L 2077.140625 1264.390625 C 2075.019531 1260.230469 2072.621094 1256.351562 2070.269531 1252.589844 C 2070.390625 1251.179688 2070.519531 1249.808594 2070.648438 1248.441406 C 2070.710938 1247.71875 2070.78125 1246.988281 2070.851562 1246.261719 C 2071.339844 1246.398438 2071.851562 1246.519531 2072.378906 1246.621094 L 2075.050781 1247.140625 L 2075.820312 1244.53125 C 2076.171875 1243.359375 2076.421875 1242.289062 2076.671875 1241.261719 C 2076.910156 1240.261719 2077.128906 1239.320312 2077.429688 1238.300781 L 2077.820312 1236.988281 L 2077.078125 1235.839844 C 2076.25 1234.539062 2075.351562 1233.25 2074.46875 1232 C 2074.148438 1231.550781 2073.839844 1231.109375 2073.539062 1230.679688 C 2073.890625 1230.390625 2074.238281 1230.109375 2074.578125 1229.820312 C 2075.589844 1228.980469 2076.550781 1228.191406 2077.570312 1227.480469 L 2079.710938 1225.980469 L 2078.519531 1223.660156 C 2077.871094 1222.378906 2077.109375 1221.261719 2076.320312 1220.210938 C 2077.78125 1218.648438 2079.210938 1217.089844 2080.601562 1215.570312 C 2082.558594 1213.429688 2084.578125 1211.21875 2086.640625 1209.058594 L 2087.988281 1207.640625 L 2087.230469 1205.828125 C 2085.769531 1202.351562 2084.21875 1198.828125 2082.710938 1195.429688 C 2081.378906 1192.429688 2080.011719 1189.328125 2078.71875 1186.28125 C 2078.949219 1185.480469 2079.171875 1184.660156 2079.398438 1183.828125 C 2079.710938 1182.691406 2080.019531 1181.539062 2080.328125 1180.480469 L 2080.789062 1178.910156 L 2079.710938 1177.671875 C 2076.171875 1173.589844 2072.589844 1169.769531 2069.109375 1166.070312 L 2067.980469 1164.859375 L 2066.351562 1165.171875 C 2064.691406 1165.5 2063.039062 1165.898438 2061.441406 1166.289062 C 2060.421875 1166.53125 2059.441406 1166.769531 2058.46875 1166.988281 C 2056.898438 1165.21875 2055.28125 1163.449219 2053.710938 1161.730469 C 2052.121094 1159.980469 2050.480469 1158.191406 2048.890625 1156.410156 C 2049.46875 1154.421875 2050.210938 1152.230469 2050.941406 1150.058594 L 2052.570312 1145.238281 L 2047.570312 1146.140625 C 2043.039062 1146.960938 2038.710938 1147.539062 2034.609375 1148.039062 C 2034 1147.121094 2033.398438 1146.179688 2032.789062 1145.230469 C 2031.808594 1143.730469 2030.839844 1142.230469 2029.871094 1140.808594 L 2029.191406 1139.808594 L 2028.011719 1139.558594 C 2021.878906 1138.28125 2015.558594 1136.890625 2009.449219 1135.550781 C 2004.289062 1134.421875 1998.960938 1133.25 1993.738281 1132.140625 C 1993.699219 1130.351562 1993.640625 1128.539062 1993.570312 1126.769531 C 1993.488281 1124.28125 1993.398438 1121.699219 1993.390625 1119.269531 L 1993.378906 1117.570312 L 1991.910156 1116.699219 C 1991.089844 1116.21875 1990.300781 1115.820312 1989.53125 1115.441406 C 1993.140625 1109.480469 1996.671875 1103.449219 2000.089844 1097.578125 C 2013.300781 1074.910156 2025.78125 1053.488281 2043.671875 1035.109375 C 2047.828125 1033.191406 2051.648438 1031.128906 2055.351562 1029.128906 C 2067.101562 1022.78125 2077.25 1017.300781 2092.148438 1019.589844 L 2093.480469 1019.789062 L 2108.320312 1007.441406 C 2116.738281 1000.429688 2125.179688 993.390625 2133.488281 986.5 L 2134.671875 985.519531 L 2134.570312 983.980469 C 2133.628906 970.328125 2132.558594 956.539062 2131.511719 943.210938 C 2130.789062 933.921875 2130.039062 924.320312 2129.339844 914.808594 L 2135.300781 907.96875 L 2134.628906 906.28125 C 2129.761719 893.839844 2124.871094 881.390625 2119.96875 868.929688 C 2120.851562 866.410156 2121.769531 863.851562 2122.691406 861.28125 C 2124.449219 856.371094 2126.261719 851.289062 2127.941406 846.25 L 2128.441406 844.738281 L 2127.480469 843.480469 C 2106.269531 815.738281 2095.21875 784.410156 2083.519531 751.25 C 2080.839844 743.660156 2078.078125 735.808594 2075.210938 728.109375 C 2069.558594 704.808594 2063.71875 680.878906 2057.859375 656.96875 L 2057.730469 656.429688 L 2057.410156 655.96875 C 2055.570312 653.308594 2053.449219 650.648438 2051.371094 648.039062 C 2051.359375 643.789062 2051.289062 639.578125 2051.21875 635.5 C 2051.148438 631.28125 2051.070312 626.921875 2051.070312 622.671875 L 2051.078125 621.070312 L 2049.75 620.179688 C 2048.769531 619.519531 2047.871094 618.929688 2046.960938 618.351562 C 2046.460938 618.019531 2045.960938 617.699219 2045.441406 617.359375 C 2045.140625 614.378906 2044.941406 611.339844 2044.761719 608.390625 C 2044.050781 597.171875 2043.320312 585.589844 2036.550781 575.058594 C 2037.429688 573.929688 2038.28125 572.808594 2039.109375 571.71875 C 2040.339844 570.101562 2041.609375 568.429688 2042.921875 566.808594 L 2043.460938 566.148438 L 2043.570312 565.300781 C 2044.898438 554.921875 2041.5 545.078125 2038.210938 535.570312 C 2036.96875 531.988281 2035.691406 528.289062 2034.710938 524.660156 L 2034.53125 523.96875 L 2025.308594 513.730469 C 2018.28125 505.921875 2011.191406 498.039062 2004.261719 490.308594 L 2003.570312 489.550781 L 2002.558594 489.359375 C 1999.308594 488.789062 1995.988281 488.121094 1992.78125 487.46875 C 1989.808594 486.871094 1986.738281 486.261719 1983.710938 485.710938 C 1981.019531 482.910156 1978.25 480.089844 1975.570312 477.351562 C 1972.558594 474.28125 1969.449219 471.109375 1966.480469 468 L 1964.929688 466.371094 L 1962.929688 467.410156 C 1961.300781 468.25 1959.628906 469.050781 1958.011719 469.820312 C 1956.808594 470.378906 1955.589844 470.960938 1954.371094 471.570312 L 1948.261719 467.78125 C 1948.519531 467.011719 1948.769531 466.261719 1949.019531 465.519531 C 1949.488281 464.101562 1949.980469 462.628906 1950.519531 461.140625 L 1951.46875 458.539062 L 1948.949219 457.378906 C 1946.78125 456.390625 1944.621094 455.300781 1942.539062 454.230469 C 1941.25 453.578125 1939.929688 452.910156 1938.589844 452.25 C 1938.660156 452.089844 1938.738281 451.929688 1938.820312 451.761719 C 1939.328125 450.660156 1939.859375 449.519531 1940.320312 448.359375 L 1941.46875 445.441406 L 1938.5 444.421875 C 1933.871094 442.828125 1929.160156 441.238281 1924.441406 439.648438 C 1919.851562 438.101562 1915.25 436.550781 1910.730469 435 L 1910.050781 434.769531 L 1909.351562 434.871094 C 1908.328125 435 1906.628906 435.230469 1906.171875 435.011719 L 1903.730469 433.71875 L 1902.238281 436.050781 C 1900.800781 438.308594 1899.429688 440.488281 1898.058594 442.671875 C 1896.71875 444.800781 1895.378906 446.929688 1893.980469 449.128906 C 1804.53125 451.75 1715.941406 455.351562 1640.96875 458.53125 C 1536.121094 446.699219 1433.539062 431.738281 1336.058594 414.058594 L 1335.730469 414 L 1335.390625 414.011719 C 1329.101562 414.289062 1322.601562 414.578125 1316.660156 416.230469 L 1315.480469 416.558594 L 1314.871094 417.621094 C 1312.519531 421.699219 1310.238281 425.699219 1307.96875 429.699219 C 1305.640625 433.789062 1303.320312 437.871094 1300.921875 442.019531 C 1297.351562 443.25 1294.121094 444.300781 1291.238281 445.238281 C 1275.019531 450.519531 1266.839844 453.179688 1252.878906 468.441406 L 1249.871094 466.558594 C 1248.949219 467.660156 1248.109375 468.679688 1247.261719 469.691406 C 1246.730469 470.339844 1246.191406 470.980469 1245.640625 471.648438 C 1242.640625 471.230469 1239.621094 470.75 1236.671875 470.289062 C 1233.5 469.789062 1230.230469 469.289062 1226.980469 468.839844 C 1226.859375 467.109375 1226.789062 465.371094 1226.71875 463.550781 C 1226.640625 461.46875 1226.558594 459.328125 1226.398438 457.089844 L 1226.328125 456.101562 L 1222.21875 451.308594 C 1226.511719 450.140625 1230.800781 448.941406 1234.988281 447.761719 C 1240.960938 446.089844 1247.121094 444.359375 1253.171875 442.75 L 1253.601562 442.640625 L 1253.96875 442.410156 C 1261.621094 437.710938 1269.339844 433.011719 1277.058594 428.308594 C 1284.421875 423.828125 1291.78125 419.359375 1299.058594 414.890625 L 1296.128906 409.660156 C 1288.691406 413.429688 1281.328125 417.210938 1273.960938 421 C 1267.261719 424.441406 1260.558594 427.878906 1253.789062 431.320312 C 1226.898438 438.820312 1200.488281 443.011719 1175.28125 443.78125 C 1173.640625 442.679688 1171.988281 441.640625 1170.398438 440.621094 C 1168.578125 439.460938 1166.699219 438.261719 1164.871094 437.019531 L 1163.140625 435.851562 L 1161.441406 437.058594 C 1158.679688 439.03125 1156.171875 441 1153.75 442.910156 C 1143.980469 440.261719 1134.308594 437.308594 1124.949219 434.449219 C 1123.640625 432.988281 1122.269531 431.609375 1120.898438 430.269531 L 1122.601562 429.769531 L 1122.191406 423.921875 C 1116.308594 423.050781 1110.441406 422.171875 1104.558594 421.300781 C 1102.800781 419.339844 1101.070312 417.359375 1099.398438 415.441406 C 1097.730469 413.53125 1096.019531 411.558594 1094.261719 409.609375 C 1094.011719 401.679688 1093.761719 393.480469 1093.519531 385.269531 L 1093.460938 383.410156 L 1092.640625 383.03125 C 1093.230469 382.351562 1093.851562 381.628906 1094.46875 380.839844 L 1095.601562 379.398438 L 1094.839844 377.730469 C 1092.550781 372.769531 1090.160156 368.101562 1087.628906 363.160156 C 1086.878906 361.691406 1086.121094 360.21875 1085.371094 358.730469 C 1085.488281 357.210938 1085.570312 355.691406 1085.648438 354.21875 C 1085.738281 352.460938 1085.820312 350.789062 1085.980469 349.109375 L 1086.410156 344.601562 L 1082.101562 345.960938 C 1080.53125 346.449219 1079.039062 346.941406 1077.539062 347.429688 C 1077.371094 347.488281 1077.210938 347.539062 1077.039062 347.601562 C 1077.078125 345.488281 1077.148438 343.378906 1077.210938 341.320312 C 1077.308594 337.859375 1077.421875 334.289062 1077.441406 330.769531 L 1077.460938 329.269531 L 1076.269531 328.359375 C 1073.839844 326.5 1071.441406 324.511719 1069.109375 322.589844 C 1067.261719 321.058594 1065.351562 319.488281 1063.410156 317.960938 C 1064.179688 315.230469 1064.898438 312.539062 1065.609375 309.910156 C 1066.128906 307.96875 1066.671875 306 1067.21875 304 C 1084.558594 314.890625 1101.050781 325.378906 1116.28125 335.210938 L 1116.578125 335.671875 C 1123.019531 345.621094 1129.671875 355.921875 1135.941406 366.039062 L 1140.140625 372.828125 L 1141.449219 364.949219 C 1141.75 363.101562 1142.148438 361.199219 1142.53125 359.351562 C 1142.929688 357.441406 1143.328125 355.460938 1143.660156 353.488281 L 1143.898438 352.050781 L 1142.921875 350.96875 C 1120.941406 326.941406 1093.410156 310.660156 1066.789062 294.910156 C 1059.058594 290.328125 1051.058594 285.601562 1043.351562 280.761719 L 1042.648438 280.328125 L 1041.839844 280.308594 C 989.875 278.839844 938.273438 293.109375 888.378906 306.921875 C 873.710938 310.980469 858.542969 315.179688 843.65625 318.890625 L 843.277344 318.980469 L 842.9375 319.171875 C 835.96875 322.988281 829.078125 326.730469 822.179688 330.480469 C 815.425781 334.148438 808.667969 337.820312 801.828125 341.570312 L 801.519531 341.738281 L 801.257812 341.96875 C 798.296875 344.660156 795.679688 347.070312 793.328125 349.230469 C 774.816406 366.261719 772.933594 367.980469 745.089844 374.929688 L 744.863281 374.191406 L 742.054688 374.949219 C 726.898438 379.050781 714.777344 382.789062 703.90625 386.710938 L 703.128906 386.988281 L 702.605469 387.628906 C 697.667969 393.640625 692.753906 399.820312 688 405.800781 C 667.847656 431.160156 647.011719 457.378906 619.800781 476.210938 C 580.335938 484.269531 544.078125 498.53125 505.703125 513.628906 L 504.972656 513.921875 C 468.078125 519.148438 432.960938 533.808594 398.996094 547.988281 C 384.558594 554.019531 369.628906 560.25 354.777344 565.671875 L 355.476562 568.070312 C 351.605469 569.519531 347.699219 570.910156 343.878906 572.269531 C 325.042969 578.96875 305.578125 585.890625 289.9375 600.28125 C 286.785156 600.238281 283.597656 600.148438 280.5 600.058594 C 278.390625 600 276.238281 599.941406 274.074219 599.890625 L 276.109375 597.371094 L 267.992188 598.980469 C 267.160156 599.148438 266.296875 599.25 265.386719 599.359375 C 264.398438 599.46875 263.375 599.589844 262.308594 599.808594 L 262.136719 599.839844 C 260.027344 600.398438 257.90625 601.03125 255.851562 601.640625 C 253.84375 602.238281 251.769531 602.859375 249.757812 603.378906 L 243.105469 605.121094 L 248.902344 608.808594 C 249.746094 609.351562 250.597656 609.96875 251.503906 610.621094 C 251.96875 610.960938 252.441406 611.300781 252.917969 611.640625 C 252.84375 612.828125 252.742188 614.011719 252.640625 615.238281 C 252.488281 617.03125 252.332031 618.890625 252.253906 620.820312 L 252.191406 622.359375 L 253.410156 623.308594 C 257.433594 626.441406 261.546875 629.648438 265.65625 632.859375 C 269.316406 635.730469 272.976562 638.589844 276.574219 641.378906 L 276.671875 641.300781 L 281.390625 648.078125 L 281.957031 633.070312 C 283.203125 632.101562 284.460938 631.160156 285.714844 630.25 L 287.019531 632.25 L 287.109375 629.800781 L 288.789062 631.710938 C 290.890625 630.488281 292.988281 629.539062 295.226562 628.539062 L 298.027344 627.28125 L 296.703125 624.511719 C 296.546875 624.179688 296.390625 623.828125 296.234375 623.460938 C 300.589844 624.058594 304.929688 624.601562 309.132812 625.121094 C 312.9375 625.589844 316.847656 626.070312 320.773438 626.601562 C 321.207031 628.628906 321.671875 630.699219 322.128906 632.710938 C 322.714844 635.300781 323.320312 637.988281 323.839844 640.539062 L 325.523438 648.789062 C 324.234375 649.019531 322.914062 649.261719 321.585938 649.570312 L 319.917969 649.941406 L 319.394531 651.570312 C 318.316406 654.921875 317.3125 658.21875 316.34375 661.410156 C 315.394531 664.53125 314.414062 667.761719 313.375 670.988281 L 313.066406 671.949219 L 313.398438 672.898438 C 314.28125 675.421875 315.257812 677.96875 316.199219 680.429688 C 317.109375 682.800781 318.046875 685.25 318.890625 687.640625 L 319.617188 689.710938 L 321.804688 689.640625 C 323.3125 689.601562 324.808594 689.628906 326.394531 689.660156 C 326.722656 689.671875 327.054688 689.679688 327.382812 689.679688 C 326.902344 691.671875 326.402344 693.640625 325.914062 695.570312 C 325.613281 696.769531 325.304688 697.988281 325 699.210938 C 323.414062 697.140625 321.832031 695.101562 320.28125 693.089844 C 317.4375 689.410156 314.496094 685.601562 311.617188 681.789062 L 310.898438 680.828125 L 309.722656 680.640625 C 306.757812 680.128906 303.859375 679.628906 300.96875 679.128906 C 298.128906 678.640625 295.289062 678.148438 292.394531 677.660156 C 290.347656 675.070312 288.226562 672.46875 286.171875 669.949219 C 283.871094 667.128906 281.496094 664.210938 279.246094 661.351562 L 278.660156 660.601562 L 277.75 660.328125 C 276.328125 659.898438 274.828125 659.480469 273.328125 659.058594 C 271.871094 658.648438 270.414062 658.238281 269.03125 657.820312 L 263.34375 656.121094 L 265.347656 661.710938 C 266.035156 663.621094 266.664062 665.679688 267.269531 667.671875 C 267.589844 668.710938 267.917969 669.769531 268.257812 670.839844 C 267.914062 670.921875 267.574219 671.011719 267.234375 671.101562 C 265.902344 671.449219 264.566406 671.800781 263.152344 672.148438 L 260.503906 672.808594 L 260.90625 675.5 C 261.398438 678.789062 261.828125 682.058594 262.242188 685.238281 C 262.679688 688.578125 263.132812 692.039062 263.664062 695.53125 L 263.835938 696.648438 L 264.707031 697.378906 C 265.734375 698.238281 266.679688 699.101562 267.679688 700 C 268.296875 700.558594 268.929688 701.128906 269.585938 701.710938 C 268.753906 708.941406 267.925781 716.179688 267.101562 723.421875 L 266.976562 724.519531 L 267.597656 725.429688 C 276.085938 738 277.828125 752.980469 279.675781 768.839844 C 281.394531 783.558594 283.164062 798.761719 290.824219 811.960938 C 287.691406 816.621094 284.429688 821.289062 281.261719 825.820312 C 280.089844 827.488281 278.929688 829.148438 277.792969 830.789062 L 277.039062 831.871094 L 277.328125 833.160156 C 280.488281 847.320312 275.785156 861.019531 270.804688 875.519531 L 270.3125 876.960938 C 262.507812 882.78125 254.8125 888.480469 247.089844 894.210938 C 242.003906 897.980469 236.90625 901.761719 231.757812 905.589844 L 230.390625 906.601562 L 230.5625 908.300781 C 230.941406 911.988281 231.402344 915.820312 231.847656 919.519531 C 232.304688 923.328125 232.777344 927.261719 233.175781 931.148438 C 232.003906 933.378906 230.894531 935.558594 229.78125 937.730469 C 228.554688 940.128906 227.332031 942.519531 226.027344 944.988281 L 224.195312 948.46875 L 228.03125 949.320312 C 243.160156 952.691406 254.449219 961.941406 266.398438 971.730469 C 267.765625 972.851562 269.132812 973.96875 270.507812 975.078125 C 286.695312 997.050781 292.972656 1005.460938 318.316406 1019.699219 C 320.117188 1022.640625 321.710938 1024.839844 323.179688 1026.390625 L 316.800781 1037.808594 L 317.445312 1039.199219 C 318.398438 1041.261719 319.445312 1043.339844 320.457031 1045.339844 C 321.121094 1046.660156 321.804688 1048.019531 322.457031 1049.359375 C 298.953125 1072.601562 302 1081.628906 308.511719 1100.941406 C 310.253906 1106.109375 312.226562 1111.960938 314.089844 1119.179688 L 314.445312 1120.558594 L 315.730469 1121.160156 C 319.703125 1123 323.683594 1124.980469 327.527344 1126.878906 C 330.652344 1128.429688 333.867188 1130.019531 337.113281 1131.570312 C 336 1137.628906 334.941406 1143.828125 333.917969 1149.839844 C 333 1155.25 332.046875 1160.839844 331.050781 1166.339844 L 330.785156 1167.800781 L 333.335938 1170.601562 C 337.371094 1175.039062 341.203125 1179.269531 345.222656 1183.488281 C 336.953125 1198.660156 335.265625 1215.421875 333.675781 1231.660156 C 332.265625 1232.878906 330.824219 1234.070312 329.421875 1235.21875 C 322.402344 1241 315.148438 1246.960938 313.292969 1257.421875 L 312.949219 1259.371094 L 314.609375 1260.460938 C 316.976562 1262 319.269531 1263.710938 321.488281 1265.359375 C 322.433594 1266.058594 323.371094 1266.761719 324.304688 1267.441406 C 327.328125 1288.269531 331.90625 1293.289062 344.988281 1307.628906 L 346.09375 1308.851562 C 346.367188 1311.140625 346.59375 1313.519531 346.8125 1315.839844 C 347.03125 1318.160156 347.257812 1320.558594 347.535156 1322.898438 C 346.054688 1324.859375 344.554688 1326.808594 343.101562 1328.691406 C 341.386719 1330.910156 339.613281 1333.210938 337.867188 1335.550781 L 336.882812 1336.871094 L 337.46875 1338.410156 C 337.980469 1339.761719 338.4375 1341.050781 338.886719 1342.320312 C 339.601562 1344.328125 340.273438 1346.21875 341.085938 1348.171875 L 341.546875 1349.28125 L 342.644531 1349.761719 C 356.511719 1355.878906 370.382812 1362 384.25 1368.140625 C 384.976562 1372.78125 385.65625 1377.539062 386.316406 1382.148438 C 386.992188 1386.851562 387.6875 1391.679688 388.429688 1396.441406 L 386.953125 1396.421875 L 388.929688 1399.578125 L 389.140625 1400.898438 L 389.808594 1400.988281 L 389.851562 1401.070312 C 397.484375 1413.289062 401.578125 1422.269531 401.28125 1434.480469 C 399.253906 1443.300781 397.136719 1452.199219 395.085938 1460.808594 C 392.636719 1471.101562 390.101562 1481.75 387.710938 1492.308594 C 382.9375 1501.949219 378.195312 1511.730469 373.605469 1521.191406 C 369.695312 1529.25 365.652344 1537.589844 361.621094 1545.78125 L 359.59375 1549.890625 L 364.175781 1550.101562 C 369.789062 1550.351562 375.585938 1550.691406 381.195312 1551.019531 C 386.96875 1551.351562 392.941406 1551.699219 398.746094 1551.960938 L 402.527344 1552.128906 L 401.828125 1548.410156 C 400.84375 1543.199219 399.832031 1537.828125 399.101562 1532.53125 C 399.714844 1531.179688 400.308594 1529.859375 400.890625 1528.550781 C 402.195312 1525.628906 403.425781 1522.859375 404.792969 1520.089844 L 405.96875 1517.660156 L 403.691406 1516.21875 C 400.941406 1514.46875 398.117188 1512.679688 395.320312 1510.75 C 395.441406 1510.519531 395.566406 1510.28125 395.691406 1510.050781 C 396.011719 1509.449219 396.335938 1508.839844 396.652344 1508.210938 C 400.066406 1507.550781 403.941406 1506.691406 408.421875 1505.589844 C 410.300781 1507.03125 412.1875 1508.441406 414.019531 1509.800781 C 416.230469 1511.449219 418.519531 1513.148438 420.761719 1514.890625 L 423.089844 1516.710938 L 424.941406 1514.410156 C 425.769531 1513.371094 426.617188 1512.359375 427.457031 1511.359375 C 427.503906 1512.230469 427.539062 1513.089844 427.554688 1513.949219 L 427.621094 1517.789062 L 431.328125 1516.789062 C 433.570312 1516.191406 435.730469 1515.589844 437.890625 1514.988281 C 439.5 1514.539062 441.109375 1514.089844 442.753906 1513.640625 C 443.554688 1514.328125 444.382812 1515.039062 445.207031 1515.738281 C 446.027344 1516.449219 446.847656 1517.148438 447.640625 1517.828125 C 447.835938 1521.820312 447.976562 1525.800781 448.113281 1529.671875 C 448.269531 1534.160156 448.433594 1538.789062 448.683594 1543.449219 L 448.746094 1544.660156 L 449.632812 1545.488281 C 453.277344 1548.878906 457.046875 1552.410156 460.785156 1555.898438 L 466.507812 1561.238281 C 466.703125 1563.640625 466.949219 1566.109375 467.191406 1568.5 C 467.488281 1571.488281 467.796875 1574.578125 468.019531 1577.621094 L 468.402344 1582.878906 L 472.730469 1579.859375 C 476.59375 1577.160156 480.214844 1574.449219 483.714844 1571.808594 C 485.925781 1573.078125 488.175781 1574.320312 490.363281 1575.519531 C 493.101562 1577.019531 495.929688 1578.570312 498.609375 1580.160156 L 499.292969 1580.558594 L 500.089844 1580.570312 C 502.566406 1580.621094 505.1875 1580.738281 507.722656 1580.851562 C 510.050781 1580.960938 512.445312 1581.070312 514.777344 1581.121094 C 517.847656 1583.03125 520.855469 1584.878906 523.863281 1586.71875 C 527.191406 1588.761719 530.515625 1590.808594 533.925781 1592.929688 L 535.011719 1593.609375 L 536.253906 1593.289062 C 539.605469 1592.429688 543.03125 1591.578125 546.460938 1590.71875 C 549.230469 1590.03125 552.003906 1589.328125 554.742188 1588.640625 C 555.96875 1591.949219 557.242188 1595.261719 558.480469 1598.5 C 560.023438 1602.511719 561.617188 1606.671875 563.105469 1610.75 L 563.898438 1612.921875 L 566.207031 1612.699219 C 573.941406 1611.96875 581.417969 1611.238281 588.871094 1610.5 C 589.644531 1612.539062 590.449219 1614.609375 591.234375 1616.628906 C 591.996094 1618.589844 592.777344 1620.589844 593.523438 1622.558594 C 592.605469 1623.199219 591.734375 1623.859375 590.878906 1624.511719 C 590.101562 1625.089844 589.339844 1625.671875 588.578125 1626.210938 L 584.898438 1628.800781 L 588.703125 1631.199219 C 589.992188 1632.011719 591.199219 1632.75 592.40625 1633.480469 C 593.597656 1634.199219 594.785156 1634.921875 596.058594 1635.71875 L 598.386719 1637.191406 L 600.050781 1635 C 602.527344 1631.71875 605.050781 1628.46875 607.492188 1625.320312 C 609.359375 1622.921875 611.273438 1620.449219 613.183594 1617.949219 C 615.136719 1619.261719 617.097656 1620.589844 619.015625 1621.898438 C 621.683594 1623.710938 624.441406 1625.589844 627.167969 1627.371094 L 628.363281 1628.148438 L 629.71875 1627.71875 C 630.640625 1627.421875 631.640625 1627.128906 632.640625 1626.839844 C 633.6875 1626.53125 634.730469 1626.21875 635.695312 1625.921875 L 637.171875 1625.449219 L 637.644531 1623.96875 C 638.585938 1621.019531 639.339844 1618.070312 640.042969 1615.128906 L 657.066406 1617.679688 C 660.40625 1621.929688 663.675781 1626.101562 666.949219 1630.289062 C 669.269531 1633.25 671.59375 1636.21875 673.945312 1639.210938 C 672.703125 1639.710938 671.441406 1640.160156 670.140625 1640.628906 L 668.128906 1641.359375 L 668.164062 1643.5 C 668.222656 1647.140625 668.019531 1650.878906 667.804688 1654.53125 C 666.8125 1655.628906 665.808594 1656.699219 664.828125 1657.738281 C 663.96875 1658.660156 663.089844 1659.589844 662.210938 1660.558594 C 661.183594 1660.359375 660.1875 1660.191406 659.210938 1660.019531 C 657.691406 1659.761719 656.261719 1659.511719 654.734375 1659.179688 L 653.179688 1658.851562 L 652.03125 1659.949219 C 647.03125 1664.738281 642.089844 1669.75 637.308594 1674.601562 C 634.882812 1677.070312 632.449219 1679.539062 629.980469 1682.011719 L 628.058594 1683.929688 L 629.78125 1686.03125 C 632.507812 1689.359375 635.273438 1692.671875 637.949219 1695.859375 C 640.671875 1699.109375 643.488281 1702.46875 646.253906 1705.851562 L 648.355469 1708.421875 L 654.324219 1702.441406 C 655.652344 1702.578125 657.011719 1702.71875 658.371094 1702.859375 C 659.496094 1702.980469 660.617188 1703.089844 661.71875 1703.210938 C 663.15625 1707.578125 664.597656 1712.050781 665.769531 1716.421875 L 666.207031 1718.058594 L 669.648438 1719.058594 C 672.15625 1719.789062 674.539062 1720.488281 677.101562 1721.050781 C 680.671875 1725.679688 683.855469 1729.460938 686.6875 1732.820312 C 696.640625 1744.640625 702.125 1751.140625 704.898438 1772.570312 L 705.078125 1773.949219 L 728.910156 1789.398438 L 730.546875 1788.320312 C 743.644531 1779.699219 753.195312 1769.578125 759.660156 1757.460938 C 761.507812 1758.089844 763.164062 1758.550781 764.707031 1758.960938 L 767.25 1759.628906 L 768.25 1757.199219 C 768.691406 1756.128906 769.214844 1754.980469 769.730469 1753.828125 C 769.957031 1753.320312 770.183594 1752.820312 770.40625 1752.320312 C 773.363281 1752.539062 776.417969 1752.578125 779.179688 1752.621094 L 780.972656 1752.640625 L 781.84375 1751.078125 C 782.207031 1750.429688 782.601562 1749.769531 783.015625 1749.101562 C 783.6875 1750.410156 784.378906 1751.761719 785.144531 1753.121094 L 786.726562 1755.921875 L 796.757812 1749.269531 L 790.863281 1723.769531 L 789.359375 1723.199219 C 787.605469 1722.539062 785.769531 1721.878906 783.933594 1721.21875 C 782.570312 1720.71875 781.210938 1720.230469 779.882812 1719.738281 C 778.742188 1716.519531 777.644531 1713.210938 776.578125 1709.988281 C 775.351562 1706.300781 774.085938 1702.488281 772.757812 1698.800781 L 772.398438 1697.800781 L 771.496094 1697.25 C 769.886719 1696.269531 768.195312 1695.289062 766.503906 1694.300781 C 765.847656 1693.921875 765.1875 1693.539062 764.535156 1693.160156 C 765.414062 1692.070312 766.308594 1691 767.183594 1689.949219 C 768.414062 1688.46875 769.667969 1686.941406 770.902344 1685.378906 C 780.164062 1694.359375 792.050781 1696.039062 803.566406 1697.628906 C 805.230469 1697.859375 806.9375 1698.101562 808.617188 1698.359375 C 809.796875 1699.828125 811.054688 1701.199219 812.277344 1702.550781 C 812.980469 1703.320312 813.695312 1704.101562 814.40625 1704.910156 L 815.496094 1706.160156 L 817.128906 1705.898438 C 818.945312 1705.621094 820.910156 1705.410156 822.808594 1705.199219 C 823.542969 1705.121094 824.285156 1705.039062 825.03125 1704.949219 C 824.976562 1705.921875 824.914062 1706.851562 824.800781 1707.75 L 824.585938 1709.390625 L 825.859375 1710.449219 C 828.558594 1712.691406 831.316406 1715.058594 833.984375 1717.351562 C 836.648438 1719.640625 839.402344 1722.011719 842.117188 1724.261719 L 843.144531 1725.121094 L 844.460938 1724.929688 C 847.523438 1724.488281 850.539062 1723.878906 853.6875 1723.230469 C 853.746094 1725.398438 853.824219 1727.539062 853.902344 1729.628906 C 854.023438 1732.839844 854.136719 1735.871094 854.175781 1738.949219 L 854.257812 1745.378906 L 863.65625 1737.289062 L 873.90625 1746.671875 L 875.84375 1745.441406 C 877.578125 1744.339844 879.390625 1743.160156 881.203125 1741.980469 C 882.667969 1741.03125 884.128906 1740.070312 885.550781 1739.160156 C 892.761719 1740.148438 899.972656 1741.128906 907.183594 1742.101562 L 908.382812 1742.269531 L 924.84375 1730.171875 L 924.636719 1728.429688 C 924.492188 1727.238281 924.40625 1726.101562 924.355469 1724.96875 C 926.574219 1726.140625 928.40625 1727.699219 930.421875 1729.808594 C 929.765625 1731.359375 929.144531 1732.929688 928.539062 1734.460938 C 927.722656 1736.519531 926.878906 1738.648438 925.984375 1740.640625 L 925.078125 1742.660156 L 926.738281 1744.121094 C 928.046875 1745.28125 929.359375 1746.351562 930.625 1747.390625 C 931.503906 1748.109375 932.347656 1748.808594 933.183594 1749.519531 C 933.066406 1750.429688 932.929688 1751.371094 932.796875 1752.289062 C 932.660156 1753.21875 932.519531 1754.171875 932.398438 1755.109375 C 927.824219 1757.121094 923.308594 1759.128906 918.792969 1761.128906 C 913.335938 1763.550781 907.878906 1765.980469 902.34375 1768.390625 L 898.867188 1769.910156 L 903.5 1776.101562 C 906.492188 1780.109375 909.316406 1783.890625 912.378906 1787.730469 L 913.109375 1788.648438 L 914.269531 1788.828125 C 916.527344 1789.171875 918.800781 1789.441406 920.996094 1789.699219 C 922.589844 1789.890625 924.21875 1790.078125 925.835938 1790.308594 C 929.207031 1798.390625 932.878906 1806.558594 936.433594 1814.480469 L 937.074219 1815.921875 L 938.417969 1816.300781 C 940.132812 1816.789062 941.769531 1817.28125 943.402344 1817.761719 C 944.738281 1818.160156 946.070312 1818.558594 947.445312 1818.960938 C 948.554688 1820.589844 949.714844 1822.238281 950.839844 1823.828125 C 952.167969 1825.710938 953.539062 1827.648438 954.800781 1829.550781 L 956.289062 1831.789062 L 958.679688 1830.550781 C 962.96875 1828.328125 967.335938 1826.019531 971.707031 1823.71875 C 975.421875 1821.761719 979.140625 1819.800781 982.804688 1817.890625 C 984.378906 1818.800781 985.988281 1819.601562 987.558594 1820.378906 C 988.199219 1820.691406 988.828125 1821.011719 989.4375 1821.320312 L 994.382812 1823.851562 L 993.789062 1818.328125 C 993.460938 1815.28125 993.433594 1812.128906 993.40625 1809.078125 L 993.382812 1806.480469 L 990.804688 1806.140625 C 989.929688 1806.019531 989.0625 1805.941406 988.214844 1805.871094 C 988.957031 1804.800781 989.71875 1803.691406 990.480469 1802.539062 C 993.257812 1804.238281 995.925781 1805.949219 998.53125 1807.640625 C 999.261719 1809.871094 1000.050781 1812.058594 1000.808594 1814.179688 C 1001.671875 1816.589844 1002.558594 1819.078125 1003.351562 1821.578125 L 1003.730469 1822.78125 L 1004.851562 1823.351562 C 1006.078125 1823.980469 1007.25 1824.609375 1008.410156 1825.25 C 1009.609375 1825.898438 1010.820312 1826.558594 1012.101562 1827.21875 L 1013.390625 1827.878906 L 1014.710938 1827.28125 C 1016.449219 1826.480469 1018.121094 1825.691406 1019.789062 1824.890625 C 1020.289062 1824.660156 1020.789062 1824.421875 1021.289062 1824.179688 C 1021.558594 1825.671875 1021.828125 1827.078125 1022.199219 1828.539062 L 1022.691406 1830.449219 L 1024.628906 1830.769531 C 1026.601562 1831.089844 1028.46875 1831.480469 1030.460938 1831.890625 C 1031.96875 1832.210938 1033.53125 1832.539062 1035.140625 1832.828125 C 1036.320312 1834.960938 1037.46875 1837.050781 1038.609375 1839.140625 C 1039.949219 1841.589844 1041.289062 1844.039062 1042.699219 1846.578125 L 1044.660156 1850.058594 L 1047.460938 1847.21875 C 1049.238281 1845.410156 1051.410156 1843.53125 1053.519531 1841.691406 L 1055.628906 1839.871094 L 1055.429688 1839.609375 C 1055.871094 1839.691406 1056.308594 1839.769531 1056.75 1839.851562 C 1059.511719 1840.371094 1062.359375 1840.898438 1065.25 1841.371094 C 1066.941406 1842.929688 1068.640625 1844.441406 1070.289062 1845.910156 C 1072.140625 1847.550781 1074.058594 1849.25 1075.929688 1850.988281 L 1077.179688 1852.148438 L 1078.808594 1851.671875 C 1081.53125 1850.871094 1084.269531 1849.988281 1086.921875 1849.128906 C 1088.109375 1848.738281 1089.328125 1848.351562 1090.550781 1847.960938 C 1090.488281 1848.519531 1090.421875 1849.078125 1090.359375 1849.640625 C 1090.140625 1851.699219 1089.910156 1853.839844 1089.761719 1855.96875 L 1089.640625 1857.578125 L 1096.289062 1862.660156 C 1095.710938 1863.558594 1095.128906 1864.449219 1094.539062 1865.339844 C 1093.441406 1867.03125 1092.328125 1868.730469 1091.21875 1870.5 L 1090.449219 1871.738281 L 1090.949219 1873.109375 C 1094.789062 1883.710938 1098.308594 1894.320312 1101.71875 1904.578125 L 1102.179688 1905.960938 L 1103.539062 1906.460938 C 1106.261719 1907.441406 1109 1908.359375 1111.660156 1909.238281 C 1113.96875 1910.011719 1116.351562 1910.800781 1118.691406 1911.628906 C 1119.570312 1912.808594 1120.421875 1914 1121.25 1915.171875 C 1122.269531 1916.601562 1123.320312 1918.070312 1124.449219 1919.550781 L 1125.441406 1920.839844 L 1127.058594 1920.710938 C 1130.25 1920.46875 1133.601562 1920.398438 1136.988281 1920.441406 C 1139.410156 1930.140625 1142.5 1942.371094 1145.941406 1955.03125 C 1145.460938 1955.96875 1144.960938 1956.941406 1144.460938 1957.910156 C 1143.738281 1959.289062 1143.03125 1960.671875 1142.398438 1961.96875 L 1140.730469 1965.390625 L 1144.449219 1966.210938 C 1148.511719 1967.109375 1152.511719 1968.011719 1156.5 1968.910156 C 1160.371094 1969.769531 1164.21875 1970.640625 1168.128906 1971.511719 C 1168.398438 1976.148438 1168.609375 1980.910156 1168.820312 1985.539062 C 1169.050781 1990.71875 1169.289062 1996.089844 1169.609375 2001.390625 L 1169.769531 2004.210938 L 1184.328125 2004.230469 L 1185.191406 2003.460938 C 1186.390625 2002.378906 1187.578125 2001.390625 1188.839844 2000.339844 C 1189.539062 1999.769531 1190.25 1999.179688 1190.960938 1998.570312 C 1198.921875 2002.96875 1206.78125 2001.390625 1214.179688 1999.339844 L 1217.078125 1998.539062 L 1216.269531 1995.648438 C 1215.851562 1994.148438 1215.589844 1992.449219 1215.351562 1990.75 C 1216.128906 1990.128906 1216.878906 1989.511719 1217.621094 1988.910156 C 1218.75 1987.988281 1219.921875 1987.03125 1221.140625 1986.101562 L 1221.921875 1985.5 L 1222.199219 1984.539062 C 1224.148438 1977.71875 1226.160156 1970.691406 1228.421875 1963.671875 C 1230.921875 1963.519531 1233.429688 1963.320312 1235.878906 1963.128906 C 1238.898438 1962.890625 1242.019531 1962.648438 1245.078125 1962.488281 L 1247.191406 1962.371094 L 1247.789062 1960.339844 C 1248.660156 1957.410156 1249.28125 1954.488281 1249.839844 1951.648438 C 1253.558594 1948.871094 1257.429688 1946.058594 1261.320312 1943.269531 C 1261.359375 1943.410156 1261.390625 1943.550781 1261.429688 1943.699219 L 1261.800781 1945.039062 L 1263.058594 1945.621094 C 1264.699219 1946.371094 1266.25 1947.191406 1267.890625 1948.070312 C 1269.148438 1948.738281 1270.441406 1949.421875 1271.78125 1950.078125 C 1273.21875 1955.070312 1274.660156 1960.011719 1276.101562 1964.941406 C 1277.921875 1971.179688 1279.738281 1977.421875 1281.550781 1983.738281 L 1282.179688 1985.921875 L 1284.449219 1985.921875 C 1286.949219 1985.898438 1289.308594 1985.761719 1291.679688 1985.558594 C 1291.171875 1988.679688 1290.738281 1991.828125 1290.320312 1994.910156 L 1289.78125 1998.929688 L 1292.128906 1999.71875 C 1297.640625 2001.578125 1303.289062 2003.789062 1308.761719 2005.949219 L 1310.070312 2006.460938 L 1311.300781 2005.78125 C 1314.511719 2004.019531 1317.769531 2002.390625 1321.019531 2000.808594 C 1321.21875 2010.058594 1321.421875 2019.320312 1321.621094 2028.578125 L 1321.640625 2029.628906 L 1322.308594 2030.441406 C 1323.199219 2031.488281 1324 2032.550781 1324.851562 2033.660156 C 1325.230469 2034.160156 1325.621094 2034.671875 1326.019531 2035.179688 C 1324.25 2037.378906 1322.421875 2039.519531 1320.628906 2041.621094 C 1319.359375 2043.101562 1318.101562 2044.570312 1316.890625 2046.039062 L 1315.839844 2047.300781 L 1316.339844 2048.859375 C 1317.078125 2051.171875 1317.910156 2053.339844 1318.71875 2055.441406 C 1319.289062 2056.921875 1319.828125 2058.320312 1320.320312 2059.730469 L 1320.980469 2061.628906 L 1322.988281 2061.738281 C 1325.699219 2061.878906 1328.429688 2061.949219 1331.070312 2062.011719 C 1333.609375 2062.070312 1336.25 2062.128906 1338.808594 2062.261719 L 1340.628906 2062.359375 L 1341.550781 2060.789062 C 1342.5 2059.191406 1343.449219 2057.511719 1344.390625 2055.828125 C 1345.089844 2054.578125 1345.789062 2053.339844 1346.5 2052.128906 C 1347.441406 2051.980469 1348.351562 2051.808594 1349.238281 2051.640625 C 1350.191406 2051.460938 1351.101562 2051.289062 1352.019531 2051.148438 C 1358.070312 2055.078125 1364.28125 2058.878906 1370.308594 2062.558594 C 1372.671875 2064 1375.019531 2065.441406 1377.351562 2066.878906 L 1380.640625 2068.898438 L 1381.789062 2065.210938 C 1383.738281 2058.96875 1385.691406 2052.671875 1387.640625 2046.351562 C 1389.320312 2040.890625 1391.011719 2035.429688 1392.699219 2030.011719 L 1394.101562 2031.441406 L 1397.78125 2027.070312 C 1400.808594 2023.480469 1403.929688 2019.78125 1406.929688 2016.019531 C 1409.289062 2016.269531 1411.679688 2016.570312 1414 2016.859375 C 1416.949219 2017.21875 1419.988281 2017.601562 1423.011719 2017.890625 L 1425.660156 2018.140625 L 1426.230469 2015.539062 C 1426.890625 2012.5 1427.558594 2009.539062 1428.21875 2006.570312 C 1428.730469 2004.289062 1429.238281 2002 1429.761719 1999.679688 C 1430.351562 1999.558594 1430.921875 1999.441406 1431.480469 1999.320312 C 1431.96875 1999.210938 1432.449219 1999.109375 1432.929688 1999.011719 C 1433.761719 2000.308594 1434.621094 2001.558594 1435.429688 2002.589844 L 1437.351562 2005.070312 L 1439.738281 2003.03125 C 1440.800781 2002.121094 1441.769531 2001.21875 1442.691406 2000.328125 C 1442.929688 2000.609375 1443.191406 2000.890625 1443.449219 2001.160156 L 1448.5 2006.320312 L 1448.601562 1999.109375 C 1448.609375 1998.199219 1448.558594 1997.269531 1448.511719 1996.359375 C 1449.789062 1996.46875 1451.050781 1996.550781 1452.320312 1996.570312 C 1458.890625 2000.46875 1465.238281 2004.121094 1471.398438 2007.660156 L 1473.929688 2009.109375 L 1475.449219 2006.621094 C 1476.710938 2004.558594 1478.089844 2002.449219 1479.421875 2000.410156 C 1480.121094 1999.320312 1480.839844 1998.210938 1481.558594 1997.101562 C 1481.671875 1997.191406 1481.769531 1997.289062 1481.878906 1997.378906 C 1482.871094 1998.230469 1483.851562 1999.078125 1484.761719 1999.851562 L 1486 2000.890625 L 1487.550781 2000.429688 C 1490.609375 1999.53125 1493.710938 1998.730469 1496.988281 1997.878906 C 1498.648438 1997.449219 1500.339844 1997.019531 1502.039062 1996.558594 C 1502.960938 2000.179688 1503.878906 2003.671875 1504.769531 2007.058594 L 1505.210938 2008.730469 L 1506.699219 2009.269531 C 1508.851562 2010.03125 1510.898438 2010.808594 1512.890625 2011.589844 C 1512.699219 2011.910156 1512.511719 2012.210938 1512.320312 2012.46875 L 1509.921875 2015.679688 L 1522.558594 2020.339844 L 1523.839844 2019.460938 C 1524.429688 2019.050781 1525 2018.640625 1525.539062 2018.238281 C 1525.789062 2019.410156 1526.039062 2020.558594 1526.28125 2021.660156 L 1527.03125 2024.949219 L 1533.449219 2022.671875 C 1533.851562 2023.371094 1534.25 2024.058594 1534.648438 2024.738281 C 1535.488281 2026.160156 1536.28125 2027.511719 1537 2028.871094 L 1538.121094 2030.988281 L 1540.429688 2030.359375 C 1542.351562 2029.839844 1544.359375 2029.230469 1546.300781 2028.648438 C 1548.199219 2028.070312 1550.160156 2027.480469 1552 2026.980469 L 1553.171875 2026.660156 L 1553.789062 2025.609375 C 1555.429688 2022.839844 1557.140625 2020 1558.859375 2017.148438 C 1560.300781 2014.75 1561.75 2012.359375 1563.140625 2010.011719 C 1564.808594 2009.558594 1566.429688 2009.070312 1568.011719 2008.589844 C 1569.988281 2008 1571.851562 2007.429688 1573.808594 2006.941406 L 1578 2005.878906 L 1575.550781 2002.328125 C 1574.011719 2000.101562 1572.378906 1997.851562 1570.800781 1995.671875 C 1570.050781 1994.640625 1569.289062 1993.601562 1568.539062 1992.550781 C 1569.558594 1992.21875 1570.570312 1991.878906 1571.558594 1991.558594 C 1573.339844 1990.960938 1575.179688 1990.351562 1577.019531 1989.789062 C 1581.941406 1992.929688 1586.871094 1995.820312 1591.640625 1998.628906 L 1594.050781 2000.039062 L 1595.628906 1997.730469 C 1598.28125 1993.878906 1601.089844 1990.089844 1603.808594 1986.429688 C 1604.941406 1984.898438 1606.058594 1983.390625 1607.171875 1981.878906 C 1610.269531 1982.859375 1613.359375 1983.890625 1616.371094 1984.898438 C 1620.078125 1986.140625 1623.910156 1987.421875 1627.769531 1988.601562 L 1627.789062 1989.160156 L 1629.691406 1989.851562 C 1632.109375 1990.730469 1634.449219 1991.601562 1636.78125 1992.480469 C 1639.230469 1993.390625 1641.671875 1994.308594 1644.191406 1995.21875 L 1645.21875 1995.589844 L 1646.25 1995.21875 C 1651.210938 1993.390625 1656.351562 1991.601562 1661.320312 1989.871094 C 1665.558594 1988.390625 1669.910156 1986.878906 1674.199219 1985.320312 C 1674.609375 1986.078125 1675.019531 1986.820312 1675.421875 1987.550781 C 1676.230469 1989.03125 1677.011719 1990.429688 1677.699219 1991.910156 L 1678.460938 1993.511719 L 1680.238281 1993.621094 C 1681.921875 1993.71875 1683.671875 1993.890625 1685.511719 1994.070312 C 1687.171875 1994.21875 1688.871094 1994.390625 1690.589844 1994.511719 C 1694.25 1999.710938 1698.191406 2004.941406 1702 2010.011719 L 1705.628906 2014.820312 L 1707.359375 2009.210938 C 1707.921875 2007.371094 1708.5 2005.480469 1708.929688 2003.390625 L 1714.109375 2000.949219 L 1724.890625 2011.929688 L 1726.050781 2012 C 1727.980469 2012.109375 1729.921875 2012.140625 1731.78125 2012.171875 C 1733.109375 2012.191406 1734.460938 2012.210938 1735.800781 2012.261719 C 1744.378906 2024.410156 1749.25 2032.378906 1749.628906 2047.070312 L 1749.679688 2048.929688 L 1751.359375 2049.710938 C 1760.03125 2053.769531 1768.640625 2057.628906 1777.691406 2061.519531 L 1778.910156 2062.050781 L 1780.128906 2061.488281 C 1780.898438 2061.128906 1781.671875 2060.820312 1782.46875 2060.5 C 1782.488281 2061.988281 1782.511719 2063.398438 1782.46875 2064.730469 L 1782.378906 2067.160156 L 1784.730469 2067.75 C 1786.96875 2068.308594 1789.25 2068.921875 1791.570312 2069.539062 C 1794.949219 2070.449219 1798.449219 2071.390625 1801.941406 2072.210938 L 1802.769531 2072.410156 L 1803.578125 2072.140625 C 1805.078125 2071.640625 1806.570312 2071.210938 1808.140625 2070.761719 C 1809.050781 2070.5 1809.96875 2070.238281 1810.910156 2069.960938 C 1813.71875 2073.679688 1816.53125 2077.398438 1819.339844 2081.109375 L 1819.871094 2081.820312 L 1820.710938 2082.128906 C 1830.269531 2085.601562 1840.050781 2085.621094 1852.210938 2082.148438 L 1852.570312 2082.480469 C 1857.960938 2087.378906 1863.050781 2092.011719 1868.140625 2096.898438 L 1869.351562 2098.070312 L 1870.980469 2097.640625 C 1873.839844 2096.890625 1876.738281 2096.050781 1879.539062 2095.238281 C 1881.71875 2094.609375 1883.960938 2093.960938 1886.191406 2093.351562 L 1900.050781 2107.480469 L 1901.730469 2107.039062 C 1903.070312 2106.691406 1904.328125 2106.410156 1905.660156 2106.121094 C 1906.988281 2105.828125 1908.371094 2105.53125 1909.839844 2105.140625 L 1912.648438 2104.398438 L 1912 2101.558594 C 1911.390625 2098.921875 1910.78125 2096.199219 1910.171875 2093.480469 C 1909.589844 2090.839844 1909 2088.210938 1908.410156 2085.628906 C 1909.898438 2082.839844 1911.410156 2080.261719 1912.859375 2077.761719 L 1914.820312 2074.390625 L 1911.058594 2073.359375 C 1907.589844 2072.398438 1904.289062 2071.160156 1901.101562 2069.921875 C 1898.769531 2065.75 1896.640625 2061.75 1894.570312 2057.878906 L 1893.609375 2056.078125 L 1891.738281 2056.160156 C 1890.140625 2056.21875 1888.570312 2056.210938 1887.058594 2056.191406 C 1887.519531 2055.25 1887.96875 2054.320312 1888.378906 2053.449219 L 1883.679688 2049.929688 C 1883.339844 2050.230469 1882.980469 2050.53125 1882.628906 2050.820312 C 1884.078125 2048.570312 1885.539062 2046.339844 1886.980469 2044.230469 L 1888.53125 2041.980469 L 1886.429688 2040.230469 C 1885.410156 2039.378906 1884.390625 2038.628906 1883.351562 2037.890625 L 1883.441406 2037.789062 C 1884.25 2036.898438 1885.019531 2036.058594 1885.78125 2035.289062 L 1886.570312 2034.5 L 1886.648438 2033.378906 C 1887.019531 2028.070312 1887.46875 2022.578125 1887.910156 2017.28125 C 1888.371094 2011.621094 1888.851562 2005.78125 1889.238281 2000.101562 L 1889.261719 1999.699219 L 1889.179688 1999.300781 C 1886.578125 1986.550781 1883.960938 1973.800781 1881.320312 1961.039062 L 1881.128906 1960.101562 L 1880.421875 1959.441406 C 1878.660156 1957.828125 1876.929688 1956.078125 1875.261719 1954.390625 C 1874.171875 1953.289062 1873.050781 1952.160156 1871.910156 1951.050781 C 1888.769531 1929.578125 1904.800781 1906.828125 1920.328125 1884.808594 C 1957.800781 1831.648438 1996.550781 1776.679688 2049.210938 1736.53125 L 2052.890625 1733.71875 L 2051.691406 1733.070312 C 2053.980469 1730.988281 2056.320312 1728.960938 2058.601562 1726.96875 C 2069.429688 1717.558594 2080.601562 1707.839844 2086.25 1693.570312 C 2101.988281 1691.171875 2119.628906 1688.480469 2136.859375 1685.539062 L 2137.921875 1685.359375 L 2138.621094 1684.550781 C 2146.628906 1675.300781 2150.199219 1663.910156 2153.640625 1652.898438 C 2155.140625 1648.140625 2156.679688 1643.21875 2158.539062 1638.660156 L 2158.691406 1638.308594 L 2158.738281 1637.929688 C 2160.410156 1625.921875 2162.128906 1613.511719 2154.878906 1602.320312 C 2155.148438 1600.648438 2155.378906 1599.03125 2155.609375 1597.449219 C 2155.921875 1595.269531 2156.21875 1593.199219 2156.601562 1591.128906 L 2157.210938 1587.808594 L 2146.71875 1587.128906 C 2147.128906 1584.269531 2147.429688 1581.378906 2147.730469 1578.550781 L 2148.078125 1575.148438 L 2145.46875 1574.558594 C 2142.441406 1573.890625 2139.53125 1573.179688 2136.859375 1572.53125 C 2136.558594 1569.761719 2136.390625 1567 2136.230469 1564.308594 C 2137.210938 1563.28125 2138.238281 1562.28125 2139.308594 1561.238281 C 2140.378906 1560.191406 2141.46875 1559.128906 2142.539062 1558.011719 C 2145.46875 1558.070312 2148.421875 1558.070312 2151.28125 1558.078125 C 2154.519531 1558.089844 2157.871094 1558.089844 2161.140625 1558.171875 L 2162.5 1558.210938 L 2163.421875 1557.210938 C 2164.75 1555.75 2166.101562 1554.21875 2167.390625 1552.730469 C 2168.660156 1551.269531 2169.96875 1549.769531 2171.238281 1548.378906 L 2174.660156 1544.660156 L 2169.75 1543.441406 "/>
</svg>
