<?xml version="1.0" encoding="utf-8"?>
<svg viewBox="0 266.5000305175781 1096 182.49996948242188" width="1096" height="182.49996948242188" xmlns="http://www.w3.org/2000/svg"><path class="st3" d="M1096,449v-23.9h-49.2l-2.1-6.8l-0.2,0l0-1.6l4.7-1.8l0.1-1.5l0.7-0.3l0.6-1.3l0.1-0.4l-0.3-0.8l-0.6-1.5&#10;&#9;l-0.4-0.2l-0.1,0l1.2-0.6l5.8-3.6l1.6-1.3c0,0.2-0.1,0.3-0.1,0.5c0,1.4,1.1,2.5,2.5,2.5c1.4,0,2.5-1.1,2.5-2.5&#10;&#9;c0-1.2-0.8-2.1-1.9-2.4l-0.4-0.2l1.1-0.9l5-4.7l1.4-1.6l0.1-0.1c0,0,0,0.1,0,0.1c0,1.4,1.1,2.5,2.5,2.5c1.4,0,2.6-1.1,2.6-2.5&#10;&#9;c0-1.3-1-2.3-2.3-2.4l-0.5-0.2l0.9-1l4-5.6l1-1.6l0.3-0.3c0.1,1.2,1.2,2.2,2.5,2.2c1.4,0,2.6-1.1,2.6-2.5c0-1.4-1.1-2.5-2.6-2.5&#10;&#9;c0,0-0.1,0-0.1,0l-0.4-0.2l-0.3,0l0,0l0.6-1.1l2.9-6.2l0.6-1.6l0.2-0.3c0.3,1,1.3,1.7,2.4,1.7c1.4,0,2.5-1.1,2.5-2.5&#10;&#9;c0-1.3-1-2.3-2.3-2.4l-0.6-0.3l-0.4,0.1l-0.6,0.2l0-0.1l0.4-1.2l1.6-6.7l0.2-1.5l0.1-0.4c0.5,0.6,1.2,1,2,1c0.9,0,1.6-0.5,2.1-1.1&#10;&#9;l0,0l0.1-0.2c0.1-0.1,0.2-0.3,0.2-0.4l0.3-0.7l-0.4-0.9c0,0,0-0.1,0-0.1l-0.1-0.3l-0.2-0.4l-0.3-0.1c-0.4-0.4-1-0.6-1.6-0.7&#10;&#9;l-0.3-0.1l-0.4,0.1l-0.4,0.1c0,0-0.1,0-0.1,0.1l-0.5,0.2l-0.1-0.3l0.1-1.1l0.2-6.9l-0.1-1.4l0.1-0.7c0.4,0.4,1,0.6,1.6,0.6&#10;&#9;c0.9,0,1.6-0.5,2.1-1.1l0.1,0l0.1-0.2c0.1-0.1,0.1-0.3,0.2-0.4l0.4-0.8l-0.5-1.3l-0.2-0.3l-0.2-0.1c-0.5-0.5-1.1-0.8-1.8-0.8&#10;&#9;c-0.7,0-1.3,0.3-1.7,0.7l-0.1,0l-0.2,0.1l0,0l-0.1-0.3l-0.1-1l-1.2-6.9l-0.3-1.2l0-0.9c0.4,0.3,0.9,0.5,1.5,0.5&#10;&#9;c1.4,0,2.5-1.1,2.5-2.5c0-0.1,0-0.2,0-0.2l0,0l0,0c-0.1-0.4-0.2-0.8-0.4-1.1l-0.1-0.2l-0.2-0.2l-0.3-0.1c-0.3-0.2-0.7-0.4-1.1-0.5&#10;&#9;l-0.2-0.1l-0.2,0c0,0,0,0,0,0c0,0,0,0,0,0l-0.4,0l-0.4,0.2c-0.1,0-0.2,0.1-0.4,0.1l-0.8,0.3l-0.2,0.2l-0.2,0.5l-0.4-0.6l-0.2-0.9&#10;&#9;l-2.6-6.5l-0.5-1l-0.2-1c0.3,0.1,0.6,0.2,0.9,0.2c1.4,0,2.5-1.1,2.5-2.5c0,0,0-0.1,0-0.1l0.1-0.2l-0.5-1.4l-0.1-0.2l-0.7-0.3&#10;&#9;c-0.2-0.1-0.3-0.1-0.5-0.2l-0.4-0.2l-0.2,0c-0.1,0-0.1,0-0.2,0c-0.7,0-1.4,0.3-1.8,0.7l0,0l0,0c-0.3,0.3-0.5,0.7-0.6,1.1l-0.6-0.5&#10;&#9;l-0.4-0.8l-3.8-5.9l-0.7-0.8l-0.4-1.1c0.1,0,0.3,0.1,0.4,0.1c1.4,0,2.5-1.1,2.5-2.5c0-0.1,0-0.2-0.1-0.3l0-0.1l0-0.1l-0.2-0.4&#10;&#9;c0,0,0-0.1-0.1-0.1l-0.3-0.8l-0.1-0.1l-1.6-0.7l-0.3,0.1c0,0,0,0-0.1,0c-1.3,0-2.4,1-2.5,2.3l-0.8-0.4l-0.5-0.6l-5-5.1l-0.7-0.6&#10;&#9;l-0.5-0.9c0,0,0,0,0,0c1.4,0,2.5-1.1,2.5-2.5c0-0.6-0.3-1.2-0.7-1.6l-0.2-0.4l0,0l-1.6-0.7l-1.1,0.4c0,0,0,0,0,0l-0.5,0.2l-0.4,0.3&#10;&#9;l-0.2,0.6c-0.1,0.2-0.2,0.3-0.2,0.5l-0.2,0.5l0.1,0.2l0,0.1c0,0.1,0,0.1,0,0.2l-1.1-0.4l-0.6-0.5l-5.9-4l-0.8-0.4l-0.6-0.7&#10;&#9;c1.1-0.3,1.9-1.2,1.9-2.4c0-0.5-0.2-1-0.5-1.4l-0.3-0.8l0,0l-1.4-0.6l-0.2-0.1l-1.6,0.7l-0.3,0.4l-0.1,0.3c-0.4,0.4-0.6,1-0.6,1.6&#10;&#9;c0,0.2,0.1,0.4,0.1,0.6l-1.1-0.1l-0.7-0.4l-6.6-2.7l-0.8-0.2l-0.9-0.7c0.8-0.4,1.4-1.2,1.4-2.2c0-0.6-0.3-1.2-0.7-1.6l-0.2-0.5&#10;&#9;l-0.1,0l-1.4-0.6l-0.1,0l-1.6,0.7l-0.1,0.3c-0.5,0.5-0.9,1.1-0.9,1.9c0,0.4,0.1,0.8,0.3,1.2l-1.1,0.1l-0.7-0.2l-7-1.4l-0.8-0.1&#10;&#9;l-1-0.5c0.7-0.5,1.1-1.2,1.1-2c0-0.8-0.4-1.4-0.9-1.9l-0.1-0.2l-1.6-0.7l-1.6,0.7l-0.1,0.3c-0.5,0.5-0.8,1.1-0.8,1.8&#10;&#9;c0,0.6,0.3,1.2,0.7,1.6l-1.2,0.4l-0.8-0.1l-7.2,0l-0.8,0.1l-1-0.3c0.5-0.4,0.7-1.1,0.7-1.7c0-1.2-0.9-2.2-2.1-2.4l-0.6-0.3l-1.6,0.7&#10;&#9;l-0.2,0.4c-0.4,0.4-0.6,0.9-0.6,1.5c0,0.8,0.4,1.5,1.1,2l-1.2,0.7l-0.8,0.1l-7,1.4l-0.7,0.2l-1.2-0.1c0.3-0.4,0.4-0.8,0.4-1.3&#10;&#9;c0-0.8-0.4-1.5-1.1-2v0h0c-0.3-0.2-0.6-0.4-1-0.4l-0.6-0.2l-0.1,0l-0.6,0.3c-0.1,0-0.2,0.1-0.3,0.1l-0.4,0.2l-0.1,0l-0.1,0.2&#10;&#9;c-0.5,0.5-0.8,1.1-0.8,1.8c0,1,0.6,1.9,1.5,2.3l-1,0.8l-0.8,0.3l-6.6,2.8l-0.7,0.4l-1,0.1c0.1-0.3,0.2-0.5,0.2-0.8&#10;&#9;c0-1.3-1-2.3-2.3-2.4l-0.5-0.2l-0.2,0.1l-1.4,0.6l0,0l-0.2,0.5c-0.3,0.4-0.5,0.9-0.5,1.5c0,1.2,0.8,2.1,2,2.4l-0.8,1l-0.8,0.4&#10;&#9;l-5.9,4l-0.6,0.5l-0.8,0.3c0-0.1,0-0.2,0-0.2c0-1.4-1.1-2.4-2.5-2.5l-0.4-0.2l-1.6,0.7l0,0l-0.4,0.9c0,0,0,0.1,0,0.1l-0.1,0.4l0,0.2&#10;&#9;l0,0.1c0,0.1-0.1,0.2-0.1,0.3c0,1.3,1,2.3,2.3,2.4l-0.6,1l-0.8,0.6l-4.9,5l-0.5,0.6l-0.6,0.3c-0.2-1.2-1.2-2.1-2.5-2.1&#10;&#9;c-0.1,0-0.1,0-0.2,0l-0.3-0.1l-1.6,0.7l-0.1,0.1l-0.5,1.4l0,0.1l0.1,0.3c0,0,0,0,0,0.1c0,1.4,1.1,2.5,2.5,2.5c0.1,0,0.1,0,0.2,0&#10;&#9;l-0.3,0.9l-0.7,0.8l-3.8,5.9l-0.4,0.8l-0.3,0.3c-0.4-0.9-1.3-1.5-2.3-1.5c0,0-0.1,0-0.1,0l-0.5-0.1l-1.5,0.7L948,313l-0.5,1.4&#10;&#9;l0.4,0.9c0.2,1.1,1.2,2,2.4,2c0.2,0,0.4-0.1,0.5-0.1l-0.1,0.8l-0.5,1l-2.5,6.4l-0.2,0.9l-0.2,0.3c-0.5-0.6-1.2-1-2-1c0,0,0,0,0,0&#10;&#9;l-0.1,0l-0.6,0l-1.5,0.6l-0.2,0.2l-0.5,1.3l0.6,1.3l0.2,0.2l0,0c0.4,0.7,1.2,1.2,2.2,1.2c0.3,0,0.6-0.1,0.9-0.2l0,0.5l-0.3,1.2&#10;&#9;l-1.2,6.8l-0.1,1l-0.1,0.3l0,0l-0.2-0.1l-0.9-0.4c0,0,0,0,0,0l-0.7-0.3l-0.6,0.1h0c-0.5,0.1-0.9,0.2-1.3,0.5l-0.3,0.1l-0.2,0.3&#10;&#9;l-0.1,0.1c-0.2,0.3-0.3,0.6-0.4,1l-0.1,0.2l0,0c0,0,0,0.1,0,0.1c0,1.4,1.1,2.5,2.5,2.5c0.7,0,1.3-0.3,1.7-0.7l0.1,0.5l-0.1,1.4&#10;&#9;l0.2,6.8l0.1,1.1l0,0.2l-0.9-0.4l-0.4-0.1l-0.2,0.1c0,0-0.1,0-0.1,0c-1.4,0-2.5,1.1-2.5,2.5c0,1.4,1.1,2.5,2.5,2.5&#10;&#9;c0.8,0,1.6-0.4,2-1.1l0.1,0.4l0.2,1.5l1.5,6.6l0.4,1.2l0,0.1l-0.5-0.2l-0.4-0.1l-1.1,0.4c-0.1,0-0.2,0.1-0.3,0.1l-0.1,0l-0.6,0.4&#10;&#9;l-0.1,0.2c-0.3,0.4-0.6,0.9-0.6,1.5l0,0v0c0,0,0,0,0,0c0,1.4,1.1,2.5,2.5,2.5c1,0,1.9-0.6,2.3-1.5l0,0l0.5,1.6l2.8,6.2l0.6,1l0,0&#10;&#9;l-0.3,0l-0.7,0.3c-1.2,0.2-2,1.2-2,2.4c0,1.4,1.1,2.5,2.5,2.5c1.2,0,2.2-0.8,2.4-1.9l0.9,1.6l3.9,5.5l0.8,1l-1.4,0.5l-0.3,0.3&#10;&#9;c-0.6,0.5-1.1,1.2-1.1,2c0,1.4,1.1,2.5,2.5,2.5c1.4,0,2.5-1.1,2.5-2.5c0,0,0-0.1,0-0.1l1.2,1.4l4.9,4.7l1.1,0.9l-0.5,0.2l-0.4,0.2&#10;&#9;l-0.3,0.5c-0.6,0.5-1,1.1-1,1.9c0,1.4,1.1,2.5,2.5,2.5c1.4,0,2.5-1.1,2.5-2.5c0-0.2-0.1-0.5-0.1-0.7l1.5,1.2l5.7,3.7l1.2,0.6l-0.1,0&#10;&#9;l-0.4,0.2l-0.6,1.4l-0.3,0.8l0.1,0.4l0.6,1.3l0.7,0.3l0.1,1.5l4.7,1.8l0,1.6h-0.2l-2.4,7.3h-53.3v0.4l-7.3,0l-4.4-1.7l-7.3-3.3&#10;&#9;l-7.1-3.7l-6.8-4l-6.6-4.4l-6.4-4.8l-6.1-5.1l-5.8-5.4l-5.5-5.8l-5.2-6.1l-4.9-6.4l-4.5-6.6l0,0l0.3-18.6l-3-12.3l-2.1,7.6h-1.2&#10;&#9;l-0.8-3.4l-0.9,3.4l-5.2,0l-3.8-6.6l0-0.9h0l0-0.2l0-0.3l0-0.9v-0.3l0,0l0-0.1h-0.3v-0.1l0,0l0-0.1l0-0.1h0l0-1.1l0,0V334h0l0-0.4&#10;&#9;h-0.7l0,0.1l0,0.5l0,0v0.2h0l0,1.2h0l0,0l0,0.1l0,0.1h0v0.1l0,0.2l0,0l0,0l0,0.1v0.1h0v0.1l0,0h-0.1l-0.1,0.1v0.1h0l0,0.4l0,0l0,0.8&#10;&#9;l0,0.3v0.3l0,0l0,0.9l-3,5.6l-5.6,0l-1.9-7.6l-1.9,7.2l-0.7-2.9l0,0l0,0l-3.1,11.8l-0.1,8.9l-91.4,0.1l-0.1-8.9l-3.1-11.7l0,0&#10;&#9;l0.5,11.2h0l-0.5-11.2v0l0,0v0l-0.8,3.3h-0.7l-2-7.6l-1.9,7.6l-4.8,0l-3-5.6l0-0.9l0-0.1v-0.3l0-0.3l0-0.8l0,0l0-0.4h0l0-0.1&#10;&#9;l-0.1-0.1h-0.1l0,0l0-0.1h0v-0.1l0-0.1l0,0h0l0-0.2l0-0.1h0V336l0-0.1l0,0h0l0-1.2h0l0-0.2l0,0l0-0.5l0-0.1l-0.7,0l0,0.4h0l0,0.2&#10;&#9;l0,0l0,1.1h-0.1l0,0.1v0.1l0,0v0.1l-0.3,0l0,0.1l0,0l0,0.3h0l0,0.9l0,0.3l0,0.2h-0.1l0,0.9l-3.9,6.6l-4.5,0l-0.9-3.3l-0.8,3.3&#10;&#9;l-2.1,0l-2.1-7.6l-3,12.3l0.3,18.6l-0.1-0.1l-4.5,6.6l-4.8,6.3l-5.1,6l-5.5,5.7l-5.7,5.4l-6,5.1l-6.3,4.7l-6.5,4.4l-6.7,4l-6.9,3.6&#10;&#9;l-7.1,3.2l-4.3,1.7l-22.2,0v0.1v0l-8.1,0l-0.8-42.3l0.3,0l-0.1-3.1h0.2l-0.3-13.6l0-0.2l0-0.5l-0.7,0l0-0.1l0-0.2l0-0.4l-0.3,0&#10;&#9;l0-0.4l0.6-0.6l-1.1-1.1l-0.2,0l-0.1-0.1l-0.4-0.6l-0.3-0.6l-0.3-0.6l-0.3-0.6l-0.3-0.6l-0.3-0.6l-0.2-0.6l-0.2-0.7l-0.2-0.7&#10;&#9;l-0.2-0.7l0.5-0.4l-0.5-0.5l-0.1-4.1l0.4-0.6l-0.5-1.2l-0.5-1.3l-0.5-1.3l-0.4-1.3l-0.4-1.3l-0.4-1.3l-0.3-1.3l-0.3-1.3l-0.3-1.3&#10;&#9;l-0.2-1.3l-0.2-1.3l-0.1-1.3l0-2.8l0.5,0v-0.1l0,0l-0.4,0l0-1.4l0,0l-0.1,0l0,1.4l-0.4,0l0,0.1l0,0l0.4,0l0.1,2.8l-0.1,1.3l-0.1,1.3&#10;&#9;l-0.2,1.3l-0.2,1.3l-0.2,1.3l-0.3,1.3l-0.3,1.2l-0.4,1.2l-0.4,1.2l-0.4,1.2l-0.5,1.2l-0.5,1.2l0.5,0.6l0.1,4.6l-0.5,0l0.6,0.5&#10;&#9;l-0.1,0.6l-0.2,0.6l-0.2,0.6l-0.2,0.6l-0.2,0.6l-0.3,0.6l-0.3,0.6l-0.3,0.6l-0.3,0.6l-0.4,0.6l-0.4,0.6l-0.4,0.5l-0.7,0l0.7,0.6&#10;&#9;l0,1.4l-1,0l0,0.5l0,0.2l0.2,13.6l0.1,0.1l0.1,2.9l0.3,0.2l0.4,22.3l-11.5,0.1l-0.3-18.3l-0.9-1.4l-1-1.8l-0.5,1l-0.8-1.5l-1,1.8&#10;&#9;l-0.9,1.4l0.1,8.7l-5.3,0.1l-0.1-8.1l-0.9-1.4l-1-1.8l-0.6,1.2l-0.9-1.7l-1,1.8l-0.9,1.4l0.2,13.3l-11.3,0.1l-0.2-12.7l-0.9-1.4&#10;&#9;l-1-1.8l-0.7,1.4l-0.1-0.1l-1-1.8l-0.9,1.8l-0.9,1.4l0.1,8.5l-0.3,0l-0.7-1l-0.7,1l-4.3,0.1l-0.1-7.9l-0.9-1.3l-1-1.7l-0.8,1.5&#10;&#9;l-0.2-0.3l-1-1.8l-0.9,1.8l-0.9,1.4l0.2,14.2l-4.8,0.1l0-3.3l-0.9-0.1l-0.1-5l-0.8-1.4l0-1.6l-0.9-1.4l-0.9,1.4l0,1.6l-0.8,1.3&#10;&#9;l0.1,5.1l-0.9,0l0,3.5l-40.4,0.4l0-3.3l-1.2-0.1l-4,0l0,3.4l-2.5,0l0-2l-0.8-2.1l-1.9-3.5l-1.8,3.5L457,398l0-8.7l-0.8-1.3l-0.9-1.6&#10;&#9;l-0.9,1.6l-0.4,0.6l-0.7-1l-0.9-1.7l-0.9,1.7l-0.8,1.3l0,6.4l-2.4,0l-0.5-0.9l-0.5,0.9l-0.4,0l0-5.9l-0.8-1.2l-0.9-1.6l-0.9,1.6&#10;&#9;l-0.5,0.7l-0.8-1.1l-0.9-1.6l-0.9,1.6l-0.8,1.3l0,6.9l-1.3-2.4l-1.9,3.6l-0.8,2.2l0,1.4h0l0-12.2l-0.6-6.1l-0.5,6.1l0,0.8L434,388&#10;&#9;l-0.3-3.7l0-1.9l-0.6-6.1l-0.4,5.1l-0.9-1.7l-0.3-3.8l-0.2,2.9l0,0l-0.1-1.4l0-9l-0.6-6.1l-0.4,4.3l-0.4-2.1l-0.2-2.4l-0.1,1.2&#10;&#9;l-0.1-0.5l0-0.3l0,0.1l-2.5-12.1l-2.4,12.1l0-0.6l-0.1,1.1l0,0.1l0-0.8l-0.1,1.5l-0.5,2.5l-0.4-4.3l-0.5,6.1l0,7.5v0.1l-0.1,2&#10;&#9;l-0.1-1.5l-0.2,3l-1,1.9l-0.5-5.1l-0.5,6.1l0,4.8l0,0.5l-1.5,1.5v-0.8l-0.6-6.1l-0.5,6.1l0,12.6l-0.5,0l-0.7,0V401l-0.4,0l-1,0&#10;&#9;l-0.1,0l0-4l-1.6-3.1l0-3.8l-0.8-1.5l-0.8-3.3l-0.8,3.3l-0.8,1.5l0,3.8l-1.4,2.5l-0.5-0.8v-3.5l-0.9-1.4l-0.9-3l-0.9,3l-0.9,1.4v3.5&#10;&#9;l-1.8,2.8v3l-11.8,0.1v-0.6l-0.7-4.4l-0.7,4.4l0,0.6l-1,0l-0.6-1.4l-0.2-1.6l0-7.9l-0.8-1.2l-0.8-1.6l-0.8,1.6l-0.8,1.2l0,5.9&#10;&#9;l-0.4,0l0-6.2l-0.8-1.2l-0.9-1.6L382,389l-0.8,1.2l0,6.1l-2.1,0l0-5.6l-0.8-1.2l-0.8-1.5l-0.8,1.5l-0.8,1.2l0,5.6l-0.6,0l0-6&#10;&#9;l-0.8-1.2l-0.8-1.6l-0.9,1.6l-0.8,1.2l-0.1,15.1l-20.8,0.1l0.3-60.9l-1.2-1.8l-1.5-4.5l-1.5,4.5l-1.3,1.8l-0.1,10.6l-1.3-2.7&#10;&#9;l-1.8-0.4l0.1-9.5l-1.3-1.8l-1.5-4.6l-1.6,4.6l-1.3,1.8l0,0.6l-0.2-0.4l0.1-19.8l-0.3-0.6l-0.4,0.6l-0.1,19.8l-1,1.6l-0.5-0.7&#10;&#9;l-1.4-4.4l-1.5,4.4l-1.3,1.7l-0.1,6.2l-2.1,0.1l-1.4,2.7l0.1-11l-1.3-1.8l-1.5-4.6l-1.6,4.6l-1.3,1.8l-0.6,62.3l-3.8,0l0.1-14.5&#10;&#9;l-0.8-1.2l-0.8-1.5l-0.8,1.5l-0.8,1.2l-0.1,6.1l-0.1-0.1l-0.8,1l-0.6,0l0.1-7.3l-0.8-1.2l-0.8-1.5l-0.8,1.5l-0.8,1.2l-0.1,7.3&#10;&#9;l-0.6,0l0.1-6.8l-0.8-1.2l-0.8-1.5l-0.8,1.5l-0.8,1.2l-0.1,6.8l-1.5,0l0.1-7.2l-0.8-1.2l-0.8-1.5l-0.8,1.5l-0.8,1.2l-0.1,11.1&#10;&#9;l-2.8,0l0.1-10.6l-0.7-1.1l-0.8-1.5l-0.8,1.5l-0.8,1.1l-0.1,7l-1.7-0.1l0.1-7.2l-0.8-1.2l-0.8-1.5l-0.8,1.5l-0.8,1.2l-0.1,7.1&#10;&#9;l-0.2,0l0.1-6.7l-0.7-1.1l-0.8-1.5l-0.8,1.5l-0.8,1.1l-0.1,6.7l-1.8,0l0.1-7l-0.7-1.1l-0.8-1.5l-0.8,1.5l-0.8,1.1l-0.4,33.9l-36,0&#10;&#9;l0-1l-1.6,0l0-0.1l0-0.1l-0.1-0.1l-0.1-0.1l-0.4-0.1l-0.1,0l-0.1-0.1h-0.1l-0.1-0.1l-0.1,0h-0.3l-0.3-0.1l0,0v-0.1l0-0.1l0-0.1&#10;&#9;l0-0.1l0-0.2l-0.1-0.4l0-0.3l0.1,0l0.1,0l0.1,0l0,0v0l0,0v0l0,0v-0.1l0-0.1l0-0.1v0l0-0.1l0.1-0.1l0-0.1l0-0.1l0-0.1l0.1-0.1l0,0&#10;&#9;l0,0l0-0.1l0,0l0-0.1l-0.2-0.2l0,0v0l-0.1-0.1h0l0,0h0l-0.1-0.1l0-0.1l-0.1-0.1l0-0.1l0-0.1v-0.1l0,0v0l0-0.1l0-0.1l-0.1,0v0l-0.1,0&#10;&#9;l0,0l0,0l0,0h0l-0.2,0.1l-0.3,0.2l0,0l0,0.1l-0.2,0.1l-0.1,0.1l0,0l0,0l0,0.1l-0.1,0.2l-0.1,0.1l-0.1,0.3l-0.1,0.4l-0.1,0.1l-0.1,0&#10;&#9;l-0.1,0.1l-0.1,0l-0.2,0l-0.2,0l-0.3,0l-0.1,0l0,0l0,0l0,0l-0.1-0.2l0,0v0l0-0.1l0,0l0,0h0l-0.1-0.1l0-0.1l0-0.1l0-0.1l0-0.1v-0.1&#10;&#9;l0,0v0l0,0l0,0l-0.1,0v0h-0.1l0,0h0l0,0h0l-0.1,0.1l-0.2,0.2l0,0l0,0.1l-0.1,0.1l-0.1,0.1l0,0l0,0l0,0l0,0.1l-0.1,0.1l-0.1,0.3&#10;&#9;l-0.1,0.3l0,0.1l-0.1,0l-0.1,0.1l0,0l-0.1,0l-0.1,0l-0.2,0l-0.1,0l-0.1,0h-0.2l-0.1,0l-0.1,0l-0.1,0.1l0,0l-0.1-0.1l0,0l0,0l0,0&#10;&#9;l-0.1,0.1l-0.2,0.2l-0.1,0.2l0,0l0,0.1l0,0.1l0,0l-0.1,0.2l0,0.2l0,0.1l0,0.1l0,0.2l0,0l0,0l0,0l0,0l0,0.1l0,0l0,0l0,0.1l0,0l0,0&#10;&#9;l0,0l0,0.1l0,0l0,0l0,0l-1.7,0l0,0.7h-1l0-0.7h-1.7l0-2.1h-1.8l0-2l-1.1-0.9l-0.2-0.2l-0.1-7.3l0.7-0.6l0.4-0.7l0-0.1l0.2-0.3l0-0.3&#10;&#9;h-0.2l-1-0.4l0-0.6h-0.2l0-0.1l0-0.1l0-0.1l-0.1-0.1l-0.1-0.1l-0.1-0.1l-0.1,0l0,0l0-0.2l0,0l0,0l0,0l0,0l0,0l0,0l0,0l0,0l0,0l0,0&#10;&#9;l0,0l0,0l0,0l0,0l0,0l0,0l0,0l-0.1-0.1l0,0l0,0l0,0L227,408l-0.5-42.5l-0.1-0.2l-0.2-0.2l-0.2-0.1l0-0.4l0-0.2l0-0.2l0.1-0.4&#10;&#9;l0.1-0.4l0.1-0.4l0.2-0.4l0.2-0.4l0.2-0.4l0.2-0.4l0.2-0.4L227,361l0.2-0.4l0.2-0.4l-0.7-0.3l-0.5-0.1l0-0.2l0-0.2l0-0.2l-0.1-0.2&#10;&#9;l-0.1-0.2l-0.1-0.2l-0.1-0.1l-0.1-0.1l-0.1-0.1l-0.1-0.1l-0.1-0.1l-0.1-0.1l-0.1-0.1l-0.1-0.1l0.6-2l0.1,0l0.1,0l0,0l0,0l0,0l0,0&#10;&#9;l0-0.1l0,0l0,0h0h0l0,0l0,0l0,0l0,0l0.1-0.4l0,0l0,0h0h0.1l0.1,0l0.1,0l0,0l0,0l0-0.1l0-0.1v0l0,0l0,0l0,0l0,0l0,0l0,0l0,0l0,0h0&#10;&#9;h-0.1l-0.1,0l0,0l0,0l0-0.1l0,0l0,0l0-0.1v-0.1l0-0.1l0-0.1l-0.1-0.1l0-0.1l0-0.1l0-0.1l0-0.1l0-0.1l0-0.1l0-0.1l0-0.1l0-0.1l0-0.1&#10;&#9;l0-0.1l0-0.1l0-0.1v-0.1l0-0.1l0-0.1l0,0l0-0.1l0,0l0,0l0,0l0,0l-0.1,0l-0.1,0l-0.1,0h-0.1l-0.1,0l-0.1,0h0l0,0l-0.1-0.1l0,0l-0.1,0&#10;&#9;l-0.1,0l0,0l-0.1,0l0,0v0l0.1-0.4l0,0l0,0l0,0l0,0l0,0l0.2-0.1l0.2-0.1l0.2,0l0,0l0,0l0,0l0-0.1l-0.1-0.2l-0.1-0.1l0-0.1l0-0.1l0,0&#10;&#9;l-0.1,0l0,0l0,0l0,0l-0.1,0l-0.1,0l0,0l0,0l-0.1,0l0,0l0,0l0,0l0,0l0-0.1l0,0l0,0l0,0h0l0,0v0l0,0l0,0l0,0l0,0h0l0,0v0l0,0l0,0l0,0&#10;&#9;l0,0l0,0v0l0,0h0l0,0h0l0,0l0,0l0,0l0,0l0,0h0h0h0l0,0l0,0h0l0,0h0l0,0l0,0l0,0l0,0l0,0l0,0v0.1l-0.1,0l0,0l0,0h-0.1l-0.1,0.1&#10;&#9;l-0.1,0.1l-0.1,0.2l-0.1,0.2l-0.1,0.2l-0.1,0.2l-0.1,0.2l-0.1,0.1l0,0.1v0.1l0,0l0.5,0l0.1,0v0h-0.1v0.3l-0.1,0l-0.1,0l-0.1,0l0,0&#10;&#9;l0,0l-0.1,0l-0.1,0l0,0h0l-0.1-0.1l-0.1,0l-0.1,0l-0.2,0.1l-0.1,0.1l-0.1,0.1l-0.1,0.2l0,0.1l0,0l0,0.1l0,0l0,0.1l0,0.3l0,0.2l0,0&#10;&#9;l0,0.1l0,0.1l0,0.1l0.1,0.1l0,0.1l0,0l0.1,0l0.1,0l0.1,0l0.1-0.1l0.1,0l0,0.1l0,0.2l-0.1,0.4l0,0.1l0,0.1l0,0l-0.1,0.2l-0.1,0.2&#10;&#9;l0,0.1l-0.1,0.3l0,0.1l0,0.1l0,0.1l0,0.3l0,0.1l0,0h0l0.1,0l0,0v0l0,0l-0.1,0l-0.1,0.1l-0.1,0.1l-0.1,0.1l-0.1,0.1l-0.1,0.1l-0.1,0&#10;&#9;l0,0.1l-0.1,0.1l0,0.1l0,0.1l0,0.1l0,0.1l-0.1,0.1l0,0.1v0.1h1.1l-0.1,0.1l-0.1,0.1l-0.1,0.1l-0.1,0.1l-0.1,0.1l-0.1,0.2l-0.1,0.2&#10;&#9;l-0.1,0.2l0,0.2l0,0.2l0,0.2l0,0l-0.4,0.1l-0.8,0.3l0.2,0.4l0.2,0.3h0l-0.4,0.3l0.2,0.4l0.2,0.4l0.2,0.4l0.2,0.4l0.2,0.4l0.1,0.4&#10;&#9;l0.1,0.4l0.1,0.4l0.1,0.4l0,0.4v0l-0.1,0l-0.2,0.2l-0.1,0.2l-0.1,42.5l-0.2,0.2l0,0l-0.1,0.1l0,0l0,0l0,0l0,0l0,0l0,0l0,0l0,0l0,0&#10;&#9;l0,0l0,0l0,0l0,0v0v0l0,0l0,0l0,0l0,0v0.2l-0.1,0L221,409l-0.1,0.1l-0.1,0.1l0,0.1l0,0.1l0,0.1h-0.1l0,0.6v0.1l-1,0.4h-0.2v0.3&#10;&#9;l0,0.7h0.2v0.4l1,0.8l0,7.1l-0.1,0.2l-1,0.9l0,2h-1.8l0,2.1h-1.6l0,0.7h-1.9l0-0.7l-0.7,0l0-0.3l-1,0l0,0l0,0l0-0.1l0,0v0l0,0l0,0&#10;&#9;l0-0.2l0-0.1l0-0.1l0-0.2l-0.1-0.2l0,0l0-0.1l-0.1-0.1l0,0l-0.1-0.2l-0.2-0.2l-0.1-0.1l0,0l0,0l-0.1,0l-0.1,0.1l0,0l-0.1-0.1l-0.1,0&#10;&#9;l-0.1,0l-0.1-0.2l-0.2-0.3l-0.1-0.1l0,0l0,0l-0.1,0l-0.1,0.1l0,0l-0.2-0.1l-0.1,0l-0.2,0l-0.1,0L210,422l-0.1-0.1l0-0.1l0,0l0,0l0,0&#10;&#9;l-0.1-0.1l-0.1-0.1l0-0.1l0,0l-0.2-0.2l-0.1-0.1l0,0l0,0l0,0l0,0h-0.1v0l-0.1,0l0,0l0,0v0l0,0l0,0.1l0,0.1v0.1l0,0.1l0,0.1l-0.1,0.1&#10;&#9;h0l0,0l0,0l-0.1-0.2l-0.1-0.3l-0.1-0.1l-0.1-0.2l0-0.1l0,0l0,0l-0.1-0.1l-0.2-0.1l0-0.1l0,0l-0.3-0.2l-0.2-0.1h0l0,0l0,0l0,0l-0.1,0&#10;&#9;v0l-0.1,0l0,0.1l0,0.1v0l0,0v0.1l0,0.1v0.1l0,0.1l0,0.1l-0.1,0.1h0l0,0h0l0,0.1v0l0,0l-0.2,0.2l0,0.1l0,0l0,0.1l0,0v0l0.1,0.1v0.1&#10;&#9;l0,0.1l0,0.1l0.1,0.1l0,0.1l0,0l0,0.1l0,0.1l0,0.1l0,0v0l0,0v0l0,0l0.1,0l0.1,0l0.1,0l0,0.3l-0.1,0.4v0.2l0,0.1l0,0.1l0,0.1v0.1l0,0&#10;&#9;l-0.3,0.1h-0.3l-0.1,0l-0.1,0.1H206l-0.1,0.1l-0.1,0l-0.4,0.1l-0.1,0.1l-0.1,0.1l0,0.1v0.1l-1.7,0l0,1l-22.7,0L181,400l-0.2-5h-1&#10;&#9;l0.1-14.3l-0.2-4.9l-1.2,0l0-2.1l-0.2-4.8l-1.7,0l-0.6-3.2v-0.1l-1.7-9.6l-1,5.4h0l0,0.1l-0.2,1.1l-0.9-5.1l-1.1,5.9l-12.1,0.1&#10;&#9;l0-1.1l-1.7,0l0.3-76.7l-1.1,0l0-4.8l-1.8-14.4l-1.1,8.6l-0.5-4.2l-1.8,14.6v0.3l-17,0.3l0-4.8l-1.7-14.3l-0.7,5.9l-0.2-1.5&#10;&#9;l-1.7,14.5l0,0.3h0l-1,4.6l-0.2,59.4l0,9.4h-0.8L116.5,343l-9.2,13.3l-0.9,0.6l-1.6,0v0l-0.9-0.1h-0.4l0-6.6l0.1-59.2l0-4.6l-0.9,0&#10;&#9;v-0.3l0-0.6l-0.1-0.5l0-2.7l0-0.6l-1.6-14.3l-1.7,14.3l0,4.8l-17.6,0.3v-0.3l-1.6-14.4l-0.2,1.3l-0.6-5.6l-1.7,14.3l0,4.7l-1.1,0&#10;&#9;l-0.1,61.4l0,14.5l-1.3,0h-0.3l0,1.1l-17.8,0.1l-1-5.8l-0.6,3.5l-0.9-5l-1.7,9.4v1.8l-1,5v6l-0.3,1.1v1l-0.9,0v5.8l-0.6,2.3v2.6&#10;&#9;l-15.8-25.6l-15.7,25L17,385l-1.4,7.1l0,3.1l-0.4,0l0-3.4l-1.3-7.3l-1.3,7.3l0,5l-0.4,1.7l0,5.4l-0.4,1.7v1.6l-2.4,2.3H9l0-2.4&#10;&#9;l-1.8-8.8l-1.7,8.8l0,2.4H4.3l0-2.3l-1.6-9.1l-1.3,7.3H1H0V449h621.3l0-20.3l68.8,0l0.3,14.8l-0.3,0.6l0.1,4.9h37.3l-0.1-7.9l0-0.2&#10;&#9;l-0.2-0.4l0-4.1l3-2.1l0.2,0.4l0.2-0.1l36.6-25.7l-0.9-1.8l0,0l-0.6,0.3l-0.2-0.5l0,0l-3.2,1.5l-3.2,1.5l-3.2,1.5l-3.2,1.5l-3.2,1.5&#10;&#9;l-3.2,1.5l-3.2,1.5l-3.2,1.5l-3.2,1.5l-3.2,1.5l-3.2,1.5l-3.2,1.5l-1.2,0.6l-0.4,0l-0.5-46.4v0l0.7-2.6l-0.1-5.7l91.2-0.1l0,5.7&#10;&#9;l0.6,2.6l-0.4,46.6l-0.2,0l-1,0.1l-1.5-0.7l-3.2-1.5l-3.2-1.5l-3.2-1.5l-3.2-1.5l-3.2-1.5l-3.2-1.5l-3.2-1.5l-3.2-1.5l-3.2-1.5&#10;&#9;l-3.2-1.5l-3.2-1.5l-3.2-1.5l-0.9,2l39.5,27.7l0.9-1.9l-0.1,6.2l-0.1,0.2l-0.1,7.8h36.1l0.1-4.7l-0.2-0.5l0.2-14.9l77.7,0V449H1096z&#10;&#9; M1086.4,343.8l-0.1,0.3L1086.4,343.8C1086.4,343.8,1086.4,343.8,1086.4,343.8z M1086.1,340.5L1086.1,340.5L1086.1,340.5&#10;&#9;L1086.1,340.5z M944.2,343.9l0-0.2c0,0,0-0.1,0.1-0.1L944.2,343.9z M944.5,340.4L944.5,340.4l0-0.1L944.5,340.4z M944.8,357.3&#10;&#9;C944.8,357.2,944.8,357.2,944.8,357.3l0,0.1L944.8,357.3z M985.5,406.5v0.2l-0.1,0l0.1-2.5l0.2,1.7L985.5,406.5z M981.1,405.7&#10;&#9;l-0.2,0.1l-0.1-0.5L981.1,405.7z M981,405.5l0.2,0.1l-0.1,0.1L981,405.5z M948.5,333.9l2.9,2c0,0.3-0.1,0.5-0.1,0.8l-3.5,1.1&#10;&#9;L948.5,333.9z M947.8,333.1L947.8,333.1L947.8,333.1L947.8,333.1z M952.4,321.2l2.5,2.6c-0.1,0.2-0.2,0.5-0.3,0.7l-3.8,0.4&#10;&#9;L952.4,321.2z M951.9,320.2l-0.8-0.9l1.2,0.1l-0.2,0.6L951.9,320.2z M962.8,304.1l1.7,3.5c-0.2,0.2-0.3,0.4-0.5,0.6l-4-0.7&#10;&#9;L962.8,304.1z M962.6,302.8l0.3-0.1l-0.2,0.3L962.6,302.8z M972.5,294.6l1,3.9c-0.2,0.2-0.4,0.3-0.6,0.5l-3.9-1.5L972.5,294.6z&#10;&#9; M969,296.5l1.1-1.6l2-1L969,296.5z M972.6,293.4h0.2l-0.1,0.1L972.6,293.4z M983.5,293.4l26.6,45.5c-0.1,0.1-0.2,0.2-0.4,0.2&#10;&#9;l-31.3-42.5C980,295.4,981.7,294.4,983.5,293.4z M979,294.2l-0.6-3.8l0.6-0.4L979,294.2z M979.9,288.6l-0.3,0.2l0.4-1.2l1.5-0.4&#10;&#9;L979.9,288.6z M981.6,287.1l2.1-0.6l-3.5,1.9L981.6,287.1z M983.1,291.9c-1.3,0.7-2.6,1.5-3.8,2.3l0.1-4.5L983.1,291.9z&#10;&#9; M989.3,290.4l21.6,48c-0.1,0.1-0.3,0.1-0.4,0.2L984,293.1C985.7,292.1,987.5,291.2,989.3,290.4z M984.3,286.1L984.3,286.1&#10;&#9;L984.3,286.1L984.3,286.1z M988.9,289c-1.4,0.6-2.8,1.2-4.1,1.9l0.5-4.5L988.9,289z M985.7,286.3L985.7,286.3l0.2,0.2L985.7,286.3z&#10;&#9; M990.3,284.4l-0.2,4.2c-0.2,0.1-0.5,0.2-0.7,0.3l-3.3-2.7L990.3,284.4z M986.3,285.2l1.6-1.2l2.1-0.4L986.3,285.2z M1003.6,280.7&#10;&#9;l-1.1,4.1c-0.2,0-0.5,0.1-0.7,0.1l-2.7-3.3L1003.6,280.7z M999.3,280.7l1.8-0.8l2.1,0L999.3,280.7z M1010.8,279l-0.4,0l-2.2-0.2&#10;&#9;l1.4-0.5l0.3,0L1010.8,279L1010.8,279z M1010.8,279.8l0.4,0l-1.4,2.7L1010.8,279.8z M1010.1,279.1l-3.9,0.4l1.9-0.6L1010.1,279.1z&#10;&#9; M1005.9,279.5l-0.5,0l0.8-0.9l0.2,0l1.5,0.2L1005.9,279.5z M1005.8,280.3l4.7-0.5l-1.6,4c-0.2,0-0.5,0-0.7,0.1L1005.8,280.3z&#10;&#9; M1006.5,282.1l-1.3-1.7l0.2,0L1006.5,282.1z M1012.7,279.7l4.7,0l-2,3.9c-0.1,0-0.1,0-0.2,0c-0.2,0-0.3,0-0.5,0L1012.7,279.7z&#10;&#9; M1013.4,281.9l-1.4-2.2h0.3L1013.4,281.9z M1013.1,278.9l2-0.4l2,0.4L1013.1,278.9z M1017.8,279.7h0.3l-1.5,2.3L1017.8,279.7z&#10;&#9; M1024.2,279.5l-2-0.7l1.5-0.2l0.2,0l0.8,0.9L1024.2,279.5z M1024.9,280.3l-1.4,1.8l1.2-1.8L1024.9,280.3z M1023.9,279.4l-3.9-0.4&#10;&#9;l2-0.2L1023.9,279.4z M1019.7,279l-0.4,0l0,0l0.9-0.7l0.3,0l1.4,0.4L1019.7,279z M1020.2,282.4l-1.4-2.7l0.4,0L1020.2,282.4z&#10;&#9; M1019.6,279.8l4.7,0.4l-2.4,3.7c-0.2,0-0.5,0-0.7,0L1019.6,279.8z M1031.1,281.5l-2.8,3.4c-0.2,0-0.5-0.1-0.7-0.1l-1.1-4.2&#10;&#9;L1031.1,281.5z M1026.9,279.9l2.1,0l1.8,0.8L1026.9,279.9z M1037.3,284.3l0.8-0.8l0.1,0L1037.3,284.3z M1038.6,283.6l0.9,4.6&#10;&#9;c-1.4-0.6-2.9-1.1-4.4-1.6L1038.6,283.6z M1037.8,282.6l-1.8-1.1l1.6,0.1l0,0l0.6,1L1037.8,282.6z M1037.5,282.5l-3.8-1.1l2.1,0.2&#10;&#9;L1037.5,282.5z M1033.4,281.3l-0.2-0.1l0-0.1l1-0.4l0.3,0.1l1.3,0.7L1033.4,281.3z M1037.7,283.4l-3.1,3.1c-0.2-0.1-0.5-0.1-0.7-0.2&#10;&#9;l-0.7-4.3L1037.7,283.4z M1044.1,285.9l-3.4,2.8c-0.2-0.1-0.4-0.2-0.6-0.3l-0.2-4.3L1044.1,285.9z M1040.3,283.5l2.1,0.4l1.6,1.1&#10;&#9;L1040.3,283.5z M1044.9,286.3l0.5,4.6c-1.4-0.7-2.8-1.4-4.2-2L1044.9,286.3z M1044.1,286.4l0.4-0.3l0,0L1044.1,286.4z M1045.2,286.5&#10;&#9;l0.6,0.3l-0.2,3.7L1045.2,286.5z M1046,292.9l-26.7,45.7c-0.1-0.1-0.3-0.1-0.4-0.2l21.7-48.1C1042.5,291,1044.3,291.9,1046,292.9z&#10;&#9; M1051.6,296.3l-31.4,42.7c-0.1-0.1-0.3-0.1-0.4-0.2l26.7-45.6C1048.3,294.1,1050,295.2,1051.6,296.3z M1047,291.8l3.9-2.3l0,4.6&#10;&#9;C1049.7,293.3,1048.3,292.5,1047,291.8z M1051.2,289.7l0.6,0.4l-0.6,3.8L1051.2,289.7z M1057.8,294.4l3.4,2.9l-4,1.6&#10;&#9;c-0.2-0.1-0.3-0.3-0.5-0.5L1057.8,294.4z M1057.6,293.2h0.1l0,0.1L1057.6,293.2z M1067.6,303.9l2.7,3.4l-4.1,0.8&#10;&#9;c-0.1-0.2-0.3-0.4-0.4-0.5L1067.6,303.9z M1067.6,302.6l0.3,0.1l-0.1,0.2L1067.6,302.6z M1079.7,325l-4-0.4&#10;&#9;c-0.1-0.2-0.2-0.4-0.2-0.7l2.7-2.7L1079.7,325z M1078.3,319.4l1.2-0.1l-0.9,0.9l-0.1-0.1L1078.3,319.4z M1082.7,338l-3.7-1.2&#10;&#9;c0-0.2-0.1-0.5-0.1-0.7l3.1-2.1L1082.7,338z M1082.7,333.1L1082.7,333.1L1082.7,333.1L1082.7,333.1z M1081.8,366.7l0.4,0.9l-0.9,1&#10;&#9;v-1.9L1081.8,366.7z M1081.3,366.4l0-0.6l0-0.1l0.3,0.6L1081.3,366.4z M1081.4,365.3l1.4,0.9l-0.9,0.1L1081.4,365.3z M1081,364&#10;&#9;l-2.8-2.3c0-0.2,0.1-0.4,0.2-0.6l3.5-0.7L1081,364z M1078.9,370.2l-2.5-2.5c0.1-0.2,0.1-0.4,0.2-0.5l3.5-0.3L1078.9,370.2z&#10;&#9; M1079.3,371.6l1.3,1h-1.6l0-0.6L1079.3,371.6z M1048.8,405.9l-0.2,0.5l-0.2-0.1L1048.8,405.9z M1048.4,406.2L1048.4,406.2l0.2-0.2&#10;&#9;L1048.4,406.2z M1049.2,401l-0.2,3.8l-3.8-1.6C1046.6,402.6,1047.9,401.8,1049.2,401z M1041,403.7l-22-48.9c0.1,0,0.2-0.1,0.3-0.2&#10;&#9;l27.1,46.3C1044.6,402,1042.8,402.9,1041,403.7z M1049.1,405.7l0.7,1.6l-0.9-0.7L1049.1,405.7z M1046.9,400.8l-27.1-46.3&#10;&#9;c0.1-0.1,0.2-0.1,0.3-0.2l31.8,43.3C1050.3,398.7,1048.6,399.8,1046.9,400.8z M1049.5,401.7l0.3,2.7l-0.4,0.3L1049.5,401.7z&#10;&#9; M1069.6,315.3l-46.6,26.6c-0.1-0.1-0.1-0.3-0.2-0.4l43.4-31.2C1067.4,312,1068.5,313.6,1069.6,315.3z M1066.5,308.4l4.3-0.6&#10;&#9;l-1.6,4.2C1068.3,310.7,1067.4,309.5,1066.5,308.4z M1072.7,321.1l-49.3,21.7c-0.1-0.1-0.1-0.2-0.2-0.4l46.6-26.6&#10;&#9;C1070.9,317.5,1071.9,319.3,1072.7,321.1z M1070.2,313.6l4.2-0.2l-2,4C1071.7,316.1,1071,314.9,1070.2,313.6z M1078.6,347.1&#10;&#9;c0,8.9-2,17.4-5.5,25.1l-49.6-21.8c0.1-0.1,0.1-0.2,0.1-0.4l51.6,16.6l0.2-0.5l-51.6-16.6c0-0.1,0.1-0.2,0.1-0.4l53.1,11.2l0.1-0.5&#10;&#9;l-53-11.1c0-0.1,0-0.3,0.1-0.4l53.9,5.6l0.1-0.6l-53.9-5.6c0-0.1,0-0.3,0-0.4l54.2,0v-0.6l-54.1,0c0-0.1,0-0.3,0-0.4l53.8-5.6&#10;&#9;l-0.1-0.6l-53.8,5.6c0-0.1,0-0.3,0-0.4l52.9-11.1l-0.1-0.5l-52.8,11.1c0-0.1-0.1-0.3-0.1-0.4l51.4-16.5l-0.2-0.5l-51.4,16.5&#10;&#9;c0-0.1-0.1-0.3-0.1-0.4l49.3-21.7C1076.5,329.4,1078.6,338,1078.6,347.1z M1073.3,319.2l4.1,0.2l-2.3,3.7&#10;&#9;C1074.6,321.8,1074,320.5,1073.3,319.2z M1079.9,348.3c0,0,0-0.1,0-0.1l3.4-2.6l0,1.3L1079.9,348.3z M1083.3,347.3l-0.1,3.8&#10;&#9;l-3.3-1.8c0-0.2,0-0.4,0-0.6L1083.3,347.3z M1080,347.8c0-0.2,0-0.5,0-0.7c0-1.2-0.1-2.4-0.2-3.5l3.5,1.7L1080,347.8z M1079.8,343.1&#10;&#9;c0-0.2,0-0.4,0-0.7l3.2-1.7l0.3,3.9L1079.8,343.1z M1079.7,342c0,0,0-0.1,0-0.1l3.1-2.9l0.1,1.3L1079.7,342z M1079.9,349.8l3.3,2&#10;&#9;l-3.5,2.2C1079.7,352.6,1079.8,351.2,1079.9,349.8z M1083.1,352.2l-0.2,1.3l-3.4,1c0-0.1,0-0.1,0-0.2L1083.1,352.2z M1082.9,353.9&#10;&#9;l-0.5,3.7l-3-2.1c0-0.2,0.1-0.4,0.1-0.6L1082.9,353.9z M1082.8,359.9L1082.8,359.9l0-0.2L1082.8,359.9z M1082.3,358.4l-3.7,1.8&#10;&#9;c0.3-1.4,0.5-2.8,0.7-4.2L1082.3,358.4z M1082.2,358.8l-0.3,1.3l-3.5,0.7c0-0.1,0-0.1,0-0.2L1082.2,358.8z M1078.9,335.6l2.9-3.2&#10;&#9;l0.2,1.2l-3.1,2.1C1078.9,335.7,1078.9,335.6,1078.9,335.6z M1081.1,327L1081.1,327l1.2,1.8l-0.1,2L1081.1,327z M1078.8,335.2&#10;&#9;c-0.3-1.4-0.6-2.8-1-4.2l3.9,1L1078.8,335.2z M1078.7,371l-4,1.1c0.6-1.3,1-2.6,1.5-4L1078.7,371z M1078.2,370l0.6,0.6l0,0.1&#10;&#9;L1078.2,370z M1078.5,371.4l-0.6,1.3l-3.5,0c0,0,0.1-0.1,0.1-0.1L1078.5,371.4z M1076.1,376.7l-0.8-1.1l0.8,1L1076.1,376.7z&#10;&#9; M1076.3,378L1076.3,378l0.2,0.6l-0.3,0L1076.3,378z M1076.1,378.3l-0.1,0.3l-0.1,0L1076.1,378.3z M1076,377l-4.1,0.7&#10;&#9;c0.7-1.2,1.3-2.5,1.9-3.8L1076,377z M1067.7,389.3l-3.3-1c0,0,0,0,0.1-0.1l4.2,0L1067.7,389.3z M1068.8,389.3l-0.1,0.3l-0.1,0&#10;&#9;L1068.8,389.3z M1065.2,392.1l-1.4-3.2c0.1-0.1,0.2-0.2,0.2-0.3l3.4,1L1065.2,392.1z M1065.4,393.3l-0.1-0.1h0L1065.4,393.3z&#10;&#9; M1064.1,390.4l0.9,2l-0.2,0.2L1064.1,390.4z M1064.5,392.9l-4.1-0.4c1.1-1,2.1-2.1,3.1-3.2L1064.5,392.9z M1062.3,388.5l-40.3-35.9&#10;&#9;c0.1-0.1,0.2-0.2,0.2-0.3l43.9,31.5C1064.9,385.5,1063.6,387,1062.3,388.5z M1022.6,352c0.1-0.1,0.2-0.2,0.2-0.3l47,26.8&#10;&#9;c-1,1.7-2.2,3.4-3.3,5L1022.6,352z M1023.1,351.1c0.1-0.1,0.1-0.2,0.2-0.3l49.6,21.8c-0.8,1.8-1.8,3.6-2.8,5.3L1023.1,351.1z&#10;&#9; M1068.3,383.4l4.1-0.4l-0.8,1.1L1068.3,383.4C1068.3,383.4,1068.3,383.4,1068.3,383.4z M1068.5,383c0.8-1.2,1.6-2.4,2.3-3.7&#10;&#9;l1.8,3.3L1068.5,383z M1071.4,378.5l3.5,0.3l-1.7,3l-2-2.9C1071.2,378.8,1071.3,378.7,1071.4,378.5z M1071.6,378.2&#10;&#9;c0,0,0.1-0.1,0.1-0.1l4.1-0.8l-0.7,1.2L1071.6,378.2z M1022.4,341.1c-0.1-0.1-0.2-0.2-0.3-0.3l39.8-35.4c1.4,1.5,2.7,3,3.9,4.6&#10;&#9;L1022.4,341.1z M1021.8,340.3c-0.1-0.1-0.2-0.2-0.3-0.3l35.8-39.3c1.5,1.3,3,2.7,4.3,4.2L1021.8,340.3z M1021.6,353.1l40.3,35.8&#10;&#9;c-1.4,1.5-2.8,2.9-4.3,4.2l-36.3-39.8C1021.4,353.3,1021.5,353.2,1021.6,353.1z M1057.1,393.5c-1.5,1.3-3.1,2.6-4.7,3.7l-31.8-43.3&#10;&#9;c0.1-0.1,0.2-0.2,0.3-0.2L1057.1,393.5z M1054.6,401.4l-3.9-1.2c1.3-0.8,2.5-1.7,3.7-2.6L1054.6,401.4z M1050.3,400.4l4,1.2&#10;&#9;l-1.1,0.7L1050.3,400.4C1050.3,400.4,1050.3,400.4,1050.3,400.4z M1054.2,402.6l-0.2,0.2l-0.1-0.1L1054.2,402.6z M1054.4,402.4&#10;&#9;l0.3-0.2l0.8,1.5l-1.4-0.9L1054.4,402.4z M1054.7,398.4l0.5,2.5l-0.4,0.3L1054.7,398.4z M1055.3,401.8l0.2,0l0.1,0.5L1055.3,401.8z&#10;&#9; M1055.5,400.7l-0.7-3.4c0.1-0.1,0.2-0.1,0.2-0.2l3.1,1.6L1055.5,400.7z M1058.9,399l0.2,0.1l-1,1.7l-2.3,0.6L1058.9,399z&#10;&#9; M1058.4,398.4l-3.1-1.6c0,0,0,0,0,0l4.1,0.8L1058.4,398.4z M1059.5,398.6l-0.2,0.3l-0.1-0.1L1059.5,398.6z M1055.7,396.6&#10;&#9;c1.2-0.9,2.3-1.9,3.4-2.9l0.6,3.7L1055.7,396.6z M1059.6,394.6l0.7,2.3l-0.3,0.3L1059.6,394.6z M1060,398.2l0.9,1.5l-1-0.5&#10;&#9;L1060,398.2z M1060.5,397.8L1060.5,397.8l0.2,0.3L1060.5,397.8z M1060.6,396.6l-1.1-3.4c0.1-0.1,0.2-0.1,0.2-0.2l3.2,1.3&#10;&#9;L1060.6,396.6z M1063.8,394.7l0.2,0.1l-0.9,1.8l-2.2,0.8L1063.8,394.7z M1063.3,394.1l-3.2-1.3c0,0,0,0,0.1,0l4.1,0.4L1063.3,394.1z&#10;&#9; M1064.3,394.2l-0.1,0.3l-0.1,0L1064.3,394.2z M1064.6,394l0.3-0.3l1,1.4l-1.6-0.6L1064.6,394z M1065.7,392.8l2.6-2.9l0.3,0.1&#10;&#9;l-0.7,1.9L1065.7,392.8z M1067.8,392l-0.4,1l-1.8,0L1067.8,392z M1068.6,389.9l0.4,0.1l0.1,1.1l-1.2,0.5L1068.6,389.9z&#10;&#9; M1068.8,389.6l0.2-0.6l0,0l0,0.7L1068.8,389.6z M1064.7,388c1-1.1,1.8-2.3,2.7-3.5l1.4,3.5L1064.7,388z M1068,383.8l3.4,0.7l-2,2.8&#10;&#9;l-1.7-3.1C1067.8,384,1067.9,383.9,1068,383.8z M1072.3,384.6l0.3,0.1l-0.5,1.9l-2,1.2L1072.3,384.6z M1072.5,384.3l0.2-0.3&#10;&#9;l-0.1,0.3L1072.5,384.3z M1072,380.8l0.9,1.4l-0.1,0.2L1072,380.8z M1072.9,383.7l0.3-0.4l1.2,1.2l-1.6-0.3L1072.9,383.7z&#10;&#9; M1073.8,382.3l1.9-3.4l0.2,0l-0.4,2L1073.8,382.3z M1075.6,381.1l-0.2,1l-1.7,0.4L1075.6,381.1z M1076.1,379l0.5,0l0.3,1l-1.1,0.8&#10;&#9;L1076.1,379z M1076.7,378.7l-0.3-1l1.3,1.1L1076.7,378.7z M1076.3,376.2l-2.2-2.7c0.1-0.2,0.2-0.3,0.2-0.5l3.5,0L1076.3,376.2z&#10;&#9; M1078.7,373h0.2l-0.2,2l-1.7,1.5L1078.7,373z M1078.8,372.6l0.1-0.3l0,0.3L1078.8,372.6z M1076.8,366.8c0-0.1,0-0.1,0.1-0.2&#10;&#9;l3.9-1.5l-0.4,1.3L1076.8,366.8z M1076.9,366.3c0.4-1.3,0.8-2.7,1.1-4.1l2.7,2.6L1076.9,366.3z M1080.6,364.2l0.2,0.2l0,0&#10;&#9;L1080.6,364.2z M1082.7,360.3l0.2,0l0.2,2l-1.3,1.8L1082.7,360.3z M1082.9,359.4l0.1-0.5l1.4,0.7l-1.5,0.3L1082.9,359.4z&#10;&#9; M1083.2,357.8l1.1-2l0.2,1.1L1083.2,357.8L1083.2,357.8z M1084,353.6l0.5-0.1l0.6,0.8l-0.7,1.3L1084,353.6z M1083.9,353.3l-0.1-0.5&#10;&#9;l0-0.2l0.4,0.5L1083.9,353.3z M1083.9,352.2l1.4,0.6l-0.8,0.3L1083.9,352.2z M1083.8,340.3l0.1-0.1l0.7,2l-0.6,2L1083.8,340.3z&#10;&#9; M1083.8,339.9L1083.8,339.9l0-0.1L1083.8,339.9z M1083.7,339.4l0-0.2l0.4,0.4l-0.3,0.2L1083.7,339.4z M1083.8,353.3L1083.8,353.3&#10;&#9;l0-0.2L1083.8,353.3z M1084.1,347l0.2-0.1l0.5,2l-0.8,2L1084.1,347z M1084.1,346.6v-0.2V346.6L1084.1,346.6z M1084.2,346.5l-0.1-0.4&#10;&#9;l0-0.6l1.4,0.4L1084.2,346.5z M1084.1,344.5L1084.1,344.5l0.6-2.2l0.4,1.1L1084.1,344.5z M1084.7,342l-0.7-1.9l0.4-0.2l0.7,0.7&#10;&#9;L1084.7,342z M1084.4,339.5l-0.7-0.7l1.4,0.3L1084.4,339.5z M1083.7,353.7l0.2,0l0.4,2l-1,1.9L1083.7,353.7z M1082.8,333.6l0.1-0.1&#10;&#9;l0.9,1.9l-0.4,2L1082.8,333.6z M1082.9,338.6l-3.1,2.9c-0.1-1.4-0.3-2.8-0.6-4.2L1082.9,338.6z M1082.3,331.1l0.1-2.2l0.6,1.1&#10;&#9;L1082.3,331.1L1082.3,331.1z M1082.3,328.6l-1.1-1.8l0.4-0.3l0.8,0.5L1082.3,328.6z M1081.1,326.6l-0.1-0.2l-0.1-0.3l0.4,0.3&#10;&#9;L1081.1,326.6z M1081.5,331.4l-3.8-0.8c-0.1-0.2-0.1-0.4-0.2-0.7l2.9-2.4L1081.5,331.4z M1077.4,329.6c0,0,0-0.1,0-0.1l2.6-3.5&#10;&#9;l0.3,1.2L1077.4,329.6z M1077.3,329.1c-0.4-1.4-0.9-2.7-1.4-4.1l4,0.6L1077.3,329.1z M1075.3,323.6&#10;&#9;C1075.3,323.5,1075.3,323.5,1075.3,323.6l2.3-3.8l0.4,1.1L1075.3,323.6z M1077.9,318.5l-0.1-0.1l-0.4-2.1l0.9,1L1077.9,318.5z&#10;&#9; M1077.7,318.1l-1.9-3.6l0,0l1.5,1.7L1077.7,318.1z M1075.6,314L1075.6,314l-0.2-0.4l0.4,0.2L1075.6,314z M1077.2,318.8l-4.1-0.1&#10;&#9;c-0.1-0.2-0.2-0.4-0.3-0.6l2.5-3L1077.2,318.8z M1072.6,317.8C1072.6,317.8,1072.6,317.8,1072.6,317.8l1.9-4l0.5,1L1072.6,317.8z&#10;&#9; M1072.2,308.6L1072.2,308.6l1.7,1.5l0.5,1.9L1072.2,308.6z M1074.1,312.9l-4.1,0.3c-0.1-0.2-0.2-0.4-0.4-0.6l2.2-3.3L1074.1,312.9z&#10;&#9; M1069.4,312.3C1069.4,312.3,1069.4,312.3,1069.4,312.3l1.6-4.2l0.6,0.9L1069.4,312.3z M1071,306.8l-0.1-0.2l-0.8-2l1.1,0.9&#10;&#9;L1071,306.8z M1070.6,306.4l-2.6-3.3v0l1.9,1.4L1070.6,306.4z M1065.5,307.2C1065.5,307.2,1065.5,307.2,1065.5,307.2l1.2-4.4&#10;&#9;l0.6,0.8L1065.5,307.2z M1065.3,306.8c-1-1.2-2-2.2-3-3.3l4.3-1L1065.3,306.8z M1066.1,302l-4.1,1.2c-0.2-0.2-0.3-0.3-0.5-0.5&#10;&#9;l1.5-3.8L1066.1,302z M1063.3,298.1l1.9,1.2l1,1.7L1063.3,298.1z M1061.2,302.3l0.8-4.4l0.6,0.6L1061.2,302.3z M1061,302.1&#10;&#9;c-1.1-1.1-2.2-2-3.4-3l4.2-1.5L1061,302.1z M1058.2,293.6l2,1l1.1,1.6L1058.2,293.6z M1056.5,297.9l0.4-4.3l0.6,0.5L1056.5,297.9z&#10;&#9; M1056.1,297.9c-1.2-0.9-2.4-1.8-3.7-2.7l4.1-1.9L1056.1,297.9z M1056.8,300.4l-35.8,39.3c-0.1-0.1-0.2-0.2-0.3-0.3l31.4-42.7&#10;&#9;C1053.7,297.8,1055.3,299.1,1056.8,300.4z M1040.5,404c-1.8,0.8-3.7,1.5-5.6,2.1l-16.7-50.9c0.1,0,0.2-0.1,0.3-0.1L1040.5,404z&#10;&#9; M1034.3,406.3c-1.9,0.6-3.9,1.1-5.8,1.5l-11.2-52.3c0.1,0,0.2-0.1,0.3-0.1L1034.3,406.3z M989.5,403.8l21.9-48.7&#10;&#9;c0.1,0,0.2,0.1,0.3,0.1l-16.7,50.7C993.2,405.3,991.3,404.6,989.5,403.8z M990.2,405.7l-1.3,1.2l-0.6-0.2L990.2,405.7&#10;&#9;C990.2,405.7,990.2,405.7,990.2,405.7z M1012.3,355.4c0.1,0,0.2,0.1,0.3,0.1l-11.2,52.2c-2-0.4-3.9-0.9-5.8-1.5L1012.3,355.4z&#10;&#9; M1001.4,409.1l-0.1,0.3l-2.8,2.3l-1.4-3.6C998.6,408.4,1000,408.8,1001.4,409.1z M1003.6,413.5l0,0.1l-2.2,0.5l-1.8-1.2l0.1-0.2&#10;&#9;L1003.6,413.5z M1003,412.6l0.3,0l0,0.1L1003,412.6z M998.8,412.5l0.2,0l0.3,0.2l-0.6,0.8l0-0.1v-0.5L998.8,412.5z M999.3,412.6&#10;&#9;l0.1,0l0,0L999.3,412.6z M998.9,411.8l2.3-1.9l-0.1,0.5l-1.2,1.6L998.9,411.8z M1000.3,412l0.7-1l1.5,1.4L1000.3,412z M998.6,414.3&#10;&#9;l1-1.4l1.7,1.2l-2.5,0.6l-0.2,0L998.6,414.3z M1001.4,414.2l2,1.4l-4.4-0.9L1001.4,414.2z M1001.6,414.2l2.1-0.5l0.5,2.1l-0.4-0.1&#10;&#9;L1001.6,414.2z M1004,413.6l0.2,0l0.3,0.1l-0.2,1.3L1004,413.6z M1003.8,412.7l-0.1-0.2l0.6-0.1l0.2,0.4L1003.8,412.7z M1002,407.8&#10;&#9;l11.2-52.2c0.1,0,0.2,0,0.4,0l-5.6,53.1C1005.9,408.5,1003.9,408.2,1002,407.8z M1023.8,414l-0.2,0.2l-0.1-0.1L1023.8,414z&#10;&#9; M1023.5,414L1023.5,414L1023.5,414L1023.5,414z M1023,413.2l-1.7-2.8l2.7,2.7L1023,413.2z M1018.3,413.6l2-3l-1.1,2.9L1018.3,413.6&#10;&#9;z M1018.8,414.5L1018.8,414.5l-0.1,0L1018.8,414.5z M1020.7,410.3c0.1,0,0.1,0,0.2,0l1.8,3l-3.1,0.3L1020.7,410.3z M1015.2,409.2&#10;&#9;c-0.1,0-0.1,0-0.2,0v-53.4c0.3,0,0.5-0.1,0.7-0.1l5.6,53.1C1019.4,409.1,1017.3,409.2,1015.2,409.2z M1016.6,413.7l-1.4-2.9l2.3,2.9&#10;&#9;L1016.6,413.7z M1017,414.4L1017,414.4L1017,414.4L1017,414.4z M1011.8,413.6l2.3-2.9l-1.4,2.9L1011.8,413.6z M1012.3,414.4&#10;&#9;L1012.3,414.4L1012.3,414.4L1012.3,414.4z M1012.7,414.4l3.9,0l0.1,0.2l-2,0.9l-2-0.9L1012.7,414.4z M1016.2,413.6l-3.1,0l1.5-3.1&#10;&#9;c0.1,0,0.1,0,0.2,0L1016.2,413.6z M1014.5,409.1c-2,0-4-0.1-6-0.3l5.6-53.1c0.1,0,0.2,0,0.4,0V409.1z M1010.2,413.5l-1.1-3l2,3&#10;&#9;L1010.2,413.5z M1010.6,414.4l-0.1,0.1l0,0L1010.6,414.4z M1005.7,413.8L1005.7,413.8L1005.7,413.8L1005.7,413.8z M1005.8,414&#10;&#9;L1005.8,414l-0.2-0.1L1005.8,414z M1005.3,413l2.7-2.7l-1.7,2.8L1005.3,413z M1008.4,410.2c0.1,0,0.1,0,0.2,0l1.2,3.2l-3.1-0.3&#10;&#9;L1008.4,410.2z M1004.9,412.4l0.4-2.6c0.8,0.1,1.6,0.3,2.5,0.4l-2.8,2.8l-0.3-0.5L1004.9,412.4z M1005.1,413.7l0.4,0.5l-0.6,1&#10;&#9;L1005.1,413.7z M1005.8,414.6l0.8,1l-1.1,0.4l-0.4,0L1005.8,414.6z M1005.9,414.3l0.1-0.2l1.8,1l-1,0.3L1005.9,414.3z M1006.1,414&#10;&#9;l0.1-0.2l3.8,0.4l0.1,0.1l-2.1,0.7L1006.1,414z M1010.2,414.5l0.1,0.2l-1.1,1l-0.9-0.5L1010.2,414.5z M1010.3,415l0.5,1.5l-0.4,0&#10;&#9;l-1.1-0.6L1010.3,415z M1010.6,414.7l0.4-0.4l-0.1,1.4L1010.6,414.7z M1009.3,410.3c1.5,0.1,3.1,0.2,4.6,0.2l-2.5,3.1L1009.3,410.3z&#10;&#9; M1011.7,414.4h0.3l0.3,0.1l-0.7,1.3L1011.7,414.4z M1012.6,414.7l1.9,0.9l-2.4,1l-0.4,0L1012.6,414.7z M1014.7,415.6l2.2,1l-4.5,0&#10;&#9;L1014.7,415.6z M1014.8,415.5l1.9-0.8l0.9,1.9l-0.4,0L1014.8,415.5z M1017,414.6l0.3-0.1l0.3,0l0,1.5L1017,414.6z M1015.4,410.6&#10;&#9;c1.6,0,3.1-0.1,4.6-0.2l-2.2,3.3L1015.4,410.6z M1018.7,414.8l-0.4,1l0-1.4L1018.7,414.8z M1019,415l1,0.9l-1.1,0.6l-0.4,0L1019,415&#10;&#9;z M1019.1,414.8l0.1-0.2l2,0.7l-0.9,0.5L1019.1,414.8z M1019.2,414.5l0.1-0.1l3.9-0.3l0.1,0.2l-1.9,1L1019.2,414.5z M1023.3,414.3&#10;&#9;l0.1,0.2l-0.9,1.1l-1-0.4L1023.3,414.3z M1023.5,414.7l0.8,1.3l-0.4,0l-1.1-0.4L1023.5,414.7z M1023.8,414.4l0.4-0.5l0.2,1.5&#10;&#9;L1023.8,414.4z M1021.6,410.3c0.8-0.1,1.6-0.2,2.3-0.3l0.3,2.6l0.4,0l-0.3,0.5L1021.6,410.3z M1022,408.8l-5.6-53.1&#10;&#9;c0.1,0,0.2,0,0.4,0l11.2,52.3C1026,408.3,1024,408.6,1022,408.8z M1030.6,413.9l-0.6-0.8l0.3-0.2l0.2,0l0,0.4l0,0.5L1030.6,413.9z&#10;&#9; M1030,412.9L1030,412.9l0.1-0.1L1030,412.9z M1029.4,412.2l-1.4-1.9l-0.1-0.4l2.5,2.1L1029.4,412.2z M1029.5,413l0.1,0.2l-1.8,1.2&#10;&#9;l-2.2-0.5l0-0.1L1029.5,413z M1025.9,412.8l0-0.1l0.4,0L1025.9,412.8z M1028.2,411.2L1028.2,411.2l0.8,1.1l-2.4,0.4L1028.2,411.2z&#10;&#9; M1025,412.6l0.6,0.1l-0.1,0.2l-0.8,0.1L1025,412.6z M1025.1,413.8l0.2,0l-0.4,1.3l-0.1-1.3L1025.1,413.8z M1025.7,413.9l2.1,0.5&#10;&#9;l-2.2,1.5l-0.4,0.1L1025.7,413.9z M1027.9,414.4l2.3,0.6l-4.4,0.8L1027.9,414.4z M1028.1,414.3l1.7-1.1l1,1.4l0,0.3l-0.3,0&#10;&#9;L1028.1,414.3z M1027.8,409.5l0-0.1c1.5-0.3,2.9-0.7,4.4-1.1l-1.4,3.7L1027.8,409.5z M1017.5,337.8c-0.1,0-0.3-0.1-0.4-0.1&#10;&#9;l11.1-51.4c2,0.4,3.9,0.9,5.8,1.5L1017.5,337.8z M1028.8,285l3.2-3.3l1.3,4.5C1031.9,285.7,1030.4,285.3,1028.8,285z M1030.4,282.9&#10;&#9;l1.1-1.3l0.1,0L1030.4,282.9z M1016.5,337.6c-0.1,0-0.3,0-0.4,0l5.6-52.2c2,0.2,4,0.5,6,0.9L1016.5,337.6z M1015.5,337.4&#10;&#9;c-0.2,0-0.3,0-0.5,0V285c0.1,0,0.1,0,0.2,0c2,0,3.9,0.1,5.8,0.3L1015.5,337.4z M1014.5,337.5&#10;&#9;C1014.4,337.5,1014.4,337.5,1014.5,337.5l-5.6-52.2c1.8-0.2,3.7-0.3,5.6-0.3V337.5z M1008.3,285.3l5.5,52.2c-0.1,0-0.3,0-0.4,0&#10;&#9;l-11-51.3C1004.3,285.8,1006.3,285.5,1008.3,285.3z M999.6,282.9l-1.1-1.2l0.1,0L999.6,282.9z M1001.2,285.1c-1.5,0.3-3,0.7-4.5,1.1&#10;&#9;l1.3-4.4L1001.2,285.1z M1001.8,286.4l11,51.3c-0.1,0-0.3,0.1-0.4,0.1L996,287.9C997.9,287.3,999.8,286.8,1001.8,286.4z&#10;&#9; M995.4,286.6l-3-3l4.4-1.4l-0.7,4.2C995.9,286.4,995.7,286.5,995.4,286.6z M996.8,281.4l-2.2,0.2l1.3-0.8l0.3-0.1l1,0.4l0,0.2&#10;&#9;L996.8,281.4z M996.5,281.5l-3.8,1.2l1.7-1L996.5,281.5z M992.4,282.8l-0.4,0.1l0.6-1l0,0l1.6-0.1L992.4,282.8z M992,283.7l0.7,0.7&#10;&#9;L992,283.7L992,283.7z M995,286.8c-1.5,0.5-2.9,1-4.3,1.5l0.9-4.5L995,286.8z M995.5,288.1l16.4,49.9c-0.1,0-0.3,0.1-0.4,0.1&#10;&#9;l-21.6-47.9C991.7,289.4,993.5,288.7,995.5,288.1z M984.5,290.7l-0.2-3.7l0.6-0.3L984.5,290.7z M972.9,393.3l36.1-39.6&#10;&#9;c0.1,0.1,0.2,0.2,0.3,0.2L977.6,397C976,395.8,974.4,394.6,972.9,393.3z M979,399.7l-3.8,1.1l0.3-3.8&#10;&#9;C976.6,398,977.7,398.9,979,399.7z M962.5,389l3.2-0.9c0.1,0.1,0.2,0.2,0.3,0.3l-1.4,3.2L962.5,389z M964.6,392.6l-0.1,0.2&#10;&#9;L964.6,392.6L964.6,392.6z M961.4,387.7l4,0c0,0,0.1,0.1,0.1,0.1l-3.2,0.9L961.4,387.7z M961.4,388.9l-0.1,0l-0.1-0.3L961.4,388.9z&#10;&#9; M954.1,376.1L954,376l0.9-1.1L954.1,376.1z M954.2,378l-0.1,0l-0.1-0.3L954.2,378z M956.3,373.4c0.6,1.3,1.2,2.5,1.8,3.8l-3.9-0.8&#10;&#9;L956.3,373.4z M954,367.8c0.5,1.3,0.9,2.6,1.4,3.9l-3.8-1.1L954,367.8z M951.5,370.2L951.5,370.2l0.6-0.8L951.5,370.2z M949.4,366.2&#10;&#9;l1.2,3.6l-1.4-1.7l0-2L949.4,366.2z M949.2,365.9l0-0.3L949.2,365.9L949.2,365.9z M950.6,342.1c0,0.2,0,0.5,0,0.7l-3.3,1.4l0.3-3.8&#10;&#9;L950.6,342.1z M947.6,340.1l0.1-1.3l3,2.8c0,0.1,0,0.1,0,0.2L947.6,340.1z M950.5,343.3c-0.1,1.2-0.2,2.5-0.2,3.7c0,0.1,0,0.2,0,0.4&#10;&#9;l-3.2-2.5L950.5,343.3z M950.4,347.8c0,0.1,0,0.1,0,0.2l-3.2-1.3l0-1.3L950.4,347.8z M950.4,348.4c0,0.2,0,0.5,0,0.7l-3.1,1.7&#10;&#9;l-0.1-3.8L950.4,348.4z M950.5,349.6c0.1,1.4,0.1,2.7,0.2,4.1l-3.4-2.1L950.5,349.6z M950.8,354c0,0.1,0,0.1,0,0.2l-3.2-1l-0.2-1.3&#10;&#9;L950.8,354z M947.6,353.6l3.2,1c0,0.2,0.1,0.4,0.1,0.7l-2.9,2L947.6,353.6z M947.7,359.5L947.7,359.5l-0.1-0.3L947.7,359.5z&#10;&#9; M951,355.8c0.2,1.3,0.4,2.7,0.6,4l-3.5-1.8L951,355.8z M957.3,321.8l49,21.6c0,0.1-0.1,0.3-0.1,0.4l-51.1-16.4&#10;&#9;C955.8,325.4,956.5,323.6,957.3,321.8z M953.1,319.4l3.9-0.2c-0.6,1.2-1.2,2.5-1.8,3.8L953.1,319.4z M960.4,316l46.4,26.5&#10;&#9;c-0.1,0.1-0.1,0.2-0.2,0.4l-49-21.5C958.4,319.5,959.3,317.7,960.4,316z M957.9,317.3l-1.8-3.8l4,0.2&#10;&#9;C959.4,314.9,958.6,316.1,957.9,317.3z M964,310.6l43.2,31c-0.1,0.1-0.1,0.3-0.2,0.4l-46.3-26.4C961.7,313.8,962.8,312.2,964,310.6z&#10;&#9; M961.2,311.9l-1.5-4l4.1,0.6C962.9,309.6,962,310.8,961.2,311.9z M964.3,310.1c1.2-1.6,2.5-3.1,3.8-4.6l39.6,35.3&#10;&#9;c-0.1,0.1-0.2,0.2-0.3,0.3L964.3,310.1z M1006.9,351.1l-46.8,26.7c-1-1.7-1.9-3.5-2.8-5.3l49.4-21.7&#10;&#9;C1006.8,350.9,1006.9,351,1006.9,351.1z M1006,344.3c0,0.1-0.1,0.3-0.1,0.4l-52.6-11.1c0.4-2,1-3.9,1.6-5.8L1006,344.3z&#10;&#9; M1005.9,348.5l-52.8,11.1c-0.4-1.9-0.7-3.9-0.9-5.9l53.7-5.6C1005.9,348.2,1005.9,348.3,1005.9,348.5z M1005.8,345.2&#10;&#9;c0,0.1,0,0.3,0,0.4l-53.6-5.6c0.2-2,0.5-4,1-5.9L1005.8,345.2z M1005.7,346.2c0,0.1,0,0.3,0,0.4l-53.9,0c0-2,0.1-4,0.3-6&#10;&#9;L1005.7,346.2z M951.6,335l-2.7-3l3.7-0.9C952.2,332.3,951.8,333.6,951.6,335z M948.8,332.3l2.7,3.1c0,0.1,0,0.1,0,0.2l-2.9-2&#10;&#9;L948.8,332.3z M948.4,330.8l-0.1-2l1.1-1.8l0.1,0.1L948.4,330.8z M951.8,360.2c0,0.1,0,0.1,0,0.2l-3.3-0.7l-0.3-1.3L951.8,360.2z&#10;&#9; M951.8,347.1l54,0c0,0.1,0,0.3,0,0.4l-53.7,5.6C951.9,351.1,951.8,349.1,951.8,347.1z M952.2,361.8c0.3,1.3,0.6,2.7,1,4l-3.7-1.5&#10;&#9;L952.2,361.8z M949.5,364L949.5,364l0.3-0.3L949.5,364z M949.7,364.7l3.7,1.5c0,0.1,0,0.1,0.1,0.2l-3.3-0.4L949.7,364.7z&#10;&#9; M953.2,360.1l52.8-11.1c0,0.1,0.1,0.2,0.1,0.4l-51.4,16.5C954.2,364,953.6,362.1,953.2,360.1z M955.6,372c0,0.1,0.1,0.1,0.1,0.2&#10;&#9;l-3.3,0l-0.5-1.3L955.6,372z M955,366.4l51.4-16.5c0,0.1,0.1,0.2,0.1,0.4L957.1,372C956.3,370.1,955.6,368.3,955,366.4z&#10;&#9; M958.3,377.5c0,0,0.1,0.1,0.1,0.1l-3.3,0.3l-0.7-1.2L958.3,377.5z M958.6,378c0.1,0.1,0.2,0.3,0.3,0.4l-1.9,2.8l-1.7-3L958.6,378z&#10;&#9; M959.2,378.9c0.7,1.2,1.4,2.4,2.2,3.6l-4-0.4L959.2,378.9z M961.6,382.8c0,0,0.1,0.1,0.1,0.1l-3.3,0.6l-0.8-1.1L961.6,382.8z&#10;&#9; M960.4,378.2l46.8-26.7c0.1,0.1,0.1,0.2,0.2,0.3l-43.7,31.3C962.6,381.6,961.5,380,960.4,378.2z M1007.8,352.3&#10;&#9;c0.1,0.1,0.2,0.2,0.2,0.3l-40.1,35.7c-1.3-1.5-2.6-3-3.8-4.6L1007.8,352.3z M965.8,389.7l-0.7,2.3l-0.2-0.3L965.8,389.7z&#10;&#9; M966.4,388.8c1,1.1,1.9,2.2,3,3.2l-4,0.4L966.4,388.8z M968.3,388.7l40.1-35.7c0.1,0.1,0.2,0.2,0.3,0.2l-36.1,39.6&#10;&#9;C971,391.6,969.6,390.2,968.3,388.7z M1009.2,339.4c-0.1,0.1-0.2,0.2-0.3,0.3l-35.6-39.1c1.5-1.3,3.1-2.5,4.7-3.7L1009.2,339.4z&#10;&#9; M974.1,298l-0.4-4.4l3.9,1.8C976.5,296.2,975.3,297,974.1,298z M973.8,298.1l-1-3.8l0.7-0.5L973.8,298.1z M1008.5,340.1&#10;&#9;c-0.1,0.1-0.2,0.2-0.3,0.3l-39.6-35.3c1.4-1.5,2.8-2.8,4.3-4.2L1008.5,340.1z M969.1,302.5l-1.4-3.7l0.6-0.7L969.1,302.5&#10;&#9;C969.1,302.5,969.1,302.5,969.1,302.5z M968.8,302.8c-0.2,0.2-0.3,0.4-0.5,0.6l-3.9-1.1l3.1-3.1L968.8,302.8z M964.2,301.3l0.9-1.7&#10;&#9;l1.9-1.2L964.2,301.3z M968,303.7c-1,1-2,2.1-2.9,3.2l-1.1-4.2L968,303.7z M964.8,307.2C964.8,307.2,964.8,307.2,964.8,307.2&#10;&#9;l-1.8-3.4l0.6-0.8L964.8,307.2z M959.8,306.5l0.8-1.8l1.8-1.4l0,0L959.8,306.5z M959.6,306.8l-0.1,0.2l-0.1-1.3l1.1-0.8L959.6,306.8&#10;&#9;z M959.5,308.2l1.5,4c0,0,0,0,0,0.1l-2-3.2L959.5,308.2z M960.8,312.7c-0.1,0.2-0.3,0.4-0.4,0.7l-3.9-0.3l2.3-3.6L960.8,312.7z&#10;&#9; M956.1,312.2l0.5-1.9l1.6-1.5l0,0L956.1,312.2z M957.8,317.7C957.8,317.7,957.7,317.7,957.8,317.7l-2.4-2.8l0.5-1L957.8,317.7z&#10;&#9; M957.6,318.1c-0.1,0.2-0.2,0.5-0.3,0.7l-3.9,0.1l1.9-3.7L957.6,318.1z M954.9,314.1L954.9,314.1l-0.2-0.1l0.4-0.2L954.9,314.1z&#10;&#9; M954.7,314.5l-1.8,3.6l0.3-2L954.7,314.5L954.7,314.5z M952.7,318.4l-0.1,0.1l-0.4-1.3l0.9-1L952.7,318.4z M952.9,319.8l2.2,3.6&#10;&#9;c0,0,0,0.1,0,0.1l-2.5-2.6L952.9,319.8z M954.5,325c-0.5,1.3-1,2.6-1.4,3.9l-2.4-3.3L954.5,325z M953,329.3c0,0,0,0.1,0,0.1&#10;&#9;l-2.7-2.3l0.3-1.2L953,329.3z M952.9,329.8c-0.1,0.2-0.1,0.5-0.2,0.8l-3.6,0.8l1.1-3.8L952.9,329.8z M949.6,326.3l-0.1,0.2l-0.2-0.2&#10;&#9;l0.4-0.3L949.6,326.3z M949.3,326.8l-1.1,1.7l-0.1-1.5l0.8-0.5L949.3,326.8z M948.2,328.9l0.1,2.2l0,0.1l-0.7-1.2L948.2,328.9z&#10;&#9; M951.2,337.1c-0.2,1.3-0.4,2.7-0.6,4.1l-3-2.8L951.2,337.1z M947.1,337.3l-0.3-2l0.9-1.9l0.1,0.1L947.1,337.3z M947.3,357.1l-1-1.9&#10;&#9;l0.4-2l0.2,0.1L947.3,357.1z M946.6,352.9l-0.3-0.1l0.4-0.5l0,0.2L946.6,352.9z M946.7,352.7l0,0.2l-0.1,0L946.7,352.7z&#10;&#9; M946.8,339.7L946.8,339.7l0-0.1L946.8,339.7z M946.9,339.2l-0.1,0.4l-0.3-0.2l0.4-0.4L946.9,339.2z M946.6,340l-0.7,1.8l-0.4-1.4&#10;&#9;l0.7-0.7L946.6,340z M946.5,344.2L946.5,344.2l-1-1.1l0.4-1.1L946.5,344.2z M946.5,346.3L946.5,346.3l0-0.2L946.5,346.3z&#10;&#9; M946.3,346.3l-1.3-0.5l1.4-0.4l0,0.5L946.3,346.3z M946.5,346.7l0.1,3.9l-0.8-1.9l0.6-2L946.5,346.7z M946.5,343.9l-0.6-2l0.7-1.9&#10;&#9;l0.1,0.1L946.5,343.9z M946,352.7l-0.8-0.3l1.4-0.6L946,352.7z M946.1,353.1l0.5,0.1l-0.4,1.9l-0.7-1.2L946.1,353.1z M946.2,355.4&#10;&#9;l1.1,2v0l-1.3-0.9L946.2,355.4z M947.5,358.4l0.1,0.5l0,0.5l-1.5-0.3L947.5,358.4z M947.6,359.8l0.2,0l0.8,3.7l-1.2-1.8L947.6,359.8&#10;&#9;z M948.6,360l3.3,0.7c0,0.2,0.1,0.4,0.2,0.6l-2.7,2.2L948.6,360z M949.2,368.4l1.5,1.7l-1.5-0.7L949.2,368.4z M950.2,366.3l3.3,0.4&#10;&#9;c0.1,0.2,0.1,0.4,0.2,0.6l-2.4,2.4L950.2,366.3z M951.3,372.1l-1.6,0l1.3-1l0.2,0.4L951.3,372.1z M951.5,372.1l-0.1,0l0-0.3&#10;&#9;L951.5,372.1z M951.6,372.4l1.6,3.5l-1.6-1.5l-0.2-2H951.6z M952.5,372.4l3.3,0c0.1,0.2,0.2,0.3,0.2,0.5l-2.2,2.6L952.5,372.4z&#10;&#9; M954,378l-0.3,0l0.2-0.7l0,0.1L954,378z M953.6,378.4l0.5,0l0.3,1.9l-1-0.8L953.6,378.4z M952.4,378.2l1.3-1.1l-0.3,1L952.4,378.2z&#10;&#9; M954.2,378.4l0.2,0l1.9,3.3l-1.8-1.4L954.2,378.4z M956.4,381.9l-1.7-0.4l-0.2-1L956.4,381.9z M957,382.8l0.2,0.3l0.1,0.6l-1.6,0.3&#10;&#9;L957,382.8z M957.2,381.8l-0.1-0.2l1-1.4L957.2,381.8z M957.6,383.6l-0.1,0l-0.1-0.3L957.6,383.6z M957.8,384l2.2,3.2l-2-1.2&#10;&#9;l-0.5-1.9L957.8,384z M958.6,383.8l3.3-0.6c0.1,0.1,0.2,0.2,0.3,0.4l-1.6,3L958.6,383.8z M962.5,384c0.8,1.2,1.7,2.3,2.6,3.4l-4,0&#10;&#9;L962.5,384z M961.2,389L961,389l0-0.7l0,0L961.2,389z M961.3,389.3l0.6,1.8l-1.1-0.5l0.1-1.1L961.3,389.3z M961.4,389.3l0.2-0.1&#10;&#9;l2.5,2.9l-2.1-1L961.4,389.3z M964.3,392.3l-1.8,0l-0.3-1L964.3,392.3z M965,393.1l0.3,0.3l0.2,0.5l-1.5,0.6L965,393.1z&#10;&#9; M965.5,393.5l0.2,0.2l-0.1,0L965.5,393.5z M965.6,392.6l4-0.4c0,0,0,0,0.1,0.1l-3.1,1.2L965.6,392.6z M966.1,394.1l2.8,2.7&#10;&#9;l-2.2-0.8l-0.9-1.8L966.1,394.1z M966.9,393.7l3.2-1.2c0.1,0.1,0.2,0.1,0.3,0.2l-1.1,3.3L966.9,393.7z M969.2,397.1L969.2,397.1&#10;&#9;l-0.1,0.4L969.2,397.1z M969.8,397.6l0.1,1l-1,0.5L969.8,397.6z M969.8,396.6l-0.3-0.3l0.7-2.3L969.8,396.6z M970.7,393.1&#10;&#9;c1.1,1,2.1,2,3.3,2.9l-3.9,0.8L970.7,393.1z M970.3,397l4-0.7c0,0,0,0,0.1,0l-3,1.5L970.3,397z M970.6,398.2l-0.1,0.1l-0.1-0.3&#10;&#9;L970.6,398.2z M974.7,396.6c0.1,0.1,0.2,0.1,0.2,0.2l-0.7,3.4l-2.5-2L974.7,396.6z M975,397.8l-0.2,2.8l-0.4-0.3L975,397.8z&#10;&#9; M974.2,401.3l0.2,0l-0.3,0.6L974.2,401.3z M974.9,401.6l0.3,0.2l0.3,0.4l-1.4,0.9L974.9,401.6z M975.5,402l0.3,0.2l-0.1,0.1&#10;&#9;L975.5,402z M975.4,401l3.9-1.1c0,0,0,0,0,0l-2.9,1.8L975.4,401z M978.1,397.3l31.7-43.1c0.1,0.1,0.2,0.1,0.3,0.2l-27,46.2&#10;&#9;C981.4,399.6,979.7,398.5,978.1,397.3z M980.3,404.2l-0.5-0.3l0.3-2.7L980.3,404.2z M980.6,404.4l-0.2-3.8c1.3,0.8,2.5,1.6,3.9,2.3&#10;&#9;L980.6,404.4z M980.7,406l-0.9,0.7l0.7-1.6L980.7,406z M983.6,400.8l27-46.2c0.1,0.1,0.2,0.1,0.3,0.2l-22,48.7&#10;&#9;C987.1,402.7,985.3,401.8,983.6,400.8z M985.8,403.6c1.3,0.7,2.7,1.4,4.1,1.9l-1.8,1l-1.9-0.8L985.8,403.6z M986.3,417.8l0-1.1&#10;&#9;l0.1,0.1l0,1.1H986.3z M987.6,417.8l0-0.6l1.6,0.6L987.6,417.8z M989.3,407l1.3-1.2c0.1,0,0.1,0,0.2,0.1l0.1,1.8L989.3,407z&#10;&#9; M991.3,407.8l-0.1-1.3l0.4,1.4L991.3,407.8z M991.9,408l-0.5-1.9c1.4,0.5,2.8,1.1,4.3,1.5l-1.8,1.2L991.9,408z M994.2,408.9&#10;&#9;l1.8-1.2l-1.3,1.4L994.2,408.9z M995.3,410.5V410l-0.2-0.1l0-0.7l-0.1,0l1.3-1.5c0.1,0,0.1,0,0.2,0.1l0.5,3.3L995.3,410.5z&#10;&#9; M997.5,411.3l-0.5-3l1.2,3.2L997.5,411.3L997.5,411.3z M1005.6,417.9l-7.7-0.1v-0.4l0-1.1l-0.1,0l0.4-0.9l6.3,1.2l1.6,0.2&#10;&#9;L1005.6,417.9z M1006.9,416.1l-1.2-0.1l0.9-0.3L1006.9,416.1L1006.9,416.1z M1007.8,415.8l-0.5,0.2l-0.3-0.4l1.1-0.4l1,0.6l-0.4,0.3&#10;&#9;L1007.8,415.8z M1009,416.3l-0.1-0.1l0.4-0.3l0.9,0.5L1009,416.3L1009,416.3z M1019.5,418.1l-9.7-0.1l-0.3-0.8l1.8,0.2l6.8,0.1&#10;&#9;l1.8-0.2L1019.5,418.1z M1020.3,416.4L1020.3,416.4l-1.1,0.1l0.9-0.5l0.4,0.3L1020.3,416.4z M1021.6,415.9l-0.9,0.3l-0.4-0.4l1-0.5&#10;&#9;l1.1,0.4l-0.3,0.4L1021.6,415.9z M1022.4,416.2l0.3-0.4l0.9,0.3L1022.4,416.2L1022.4,416.2z M1031.4,416.6l0,1.1l0,0.4l-7.7-0.1&#10;&#9;l-0.5-1.1l1.6-0.1l6.3-1.2l0.4,0.9L1031.4,416.6z M1031.9,411.6l-0.7,0.2l1.2-3.1L1031.9,411.6L1031.9,411.6z M1034.2,409.6l0,0.7&#10;&#9;l-0.2,0.1l0,0.5l-1.8,0.7l0.6-3.4c0.1,0,0.1,0,0.2,0L1034.2,409.6L1034.2,409.6z M1034.7,409.5l-1.3-1.4l1.8,1.2L1034.7,409.5z&#10;&#9; M1035.6,409.1l-1.8-1.2c1.5-0.4,2.9-1,4.4-1.5l-0.5,2L1035.6,409.1z M1038.2,408.1l-0.3,0.1l0.4-1.3L1038.2,408.1z M1038.7,406.2&#10;&#9;c0.1,0,0.1,0,0.2-0.1l1.3,1.2l-1.6,0.6L1038.7,406.2z M1039.2,406l1.9,1l-0.6,0.2L1039.2,406z M1041.9,418.2l-1.7,0l1.7-0.6&#10;&#9;L1041.9,418.2z M1043.2,418.3l-0.1,0l0-1.1l0.1,0L1043.2,418.3z M1041.5,406.9l-1.9-1c1.4-0.6,2.8-1.2,4.2-1.9l-0.3,2.2&#10;&#9;L1041.5,406.9z M1044,407.1l0-0.2l-0.2-0.7l0.2-1.6L1044,407.1L1044,407.1z M1046.6,406.1l-2.2,0.8l-0.1-3.2c0.1,0,0.1-0.1,0.2-0.1&#10;&#9;l2.7,2.1L1046.6,406.1z M1044.9,403.5C1044.9,403.5,1044.9,403.5,1044.9,403.5l3.8,1.6l-1.1,0.5L1044.9,403.5z M1047.9,406.3&#10;&#9;l0.2,0.2l-0.4,0.4l-0.2-0.4L1047.9,406.3z M1048,408.4l-0.2,0.1l0-0.4l0.3,0L1048,408.4z M1047.8,408l0-0.9l0.4-0.5l0.3,0.2&#10;&#9;l-0.4,1.2L1047.8,408z M1048.3,408.5L1048.3,408.5l0.1-0.4l0.8,0L1048.3,408.5z M1049.5,407.9l-1.1,0.1l0.3-1l1.1,0.8L1049.5,407.9z&#10;&#9; M1049.7,405.4l0.2-0.1l0.1,0.8L1049.7,405.4z M1049.7,400.7c0.1,0,0.1-0.1,0.2-0.1l2.9,1.9l-2.7,1.7L1049.7,400.7z M1050.2,405&#10;&#9;l3.4-2.1l0.2,0.1l-1.2,1.7L1050.2,405L1050.2,405z M1050.5,407.3l0-0.1l-0.2-2l2.3-0.3l-1.6,2.2L1050.5,407.3z M1051.1,406.9&#10;&#9;l1.5-2.1l2.3-0.3L1051.1,406.9z M1055.3,404.3l-2.5,0.4l1.1-1.6l1.6,1L1055.3,404.3z M1055.7,401.6l2.3-0.5l-0.5,0.9L1055.7,401.6&#10;&#9;L1055.7,401.6z M1056.2,403.7l-0.1-0.2l-0.3-1.6l1.5,0.3l-0.7,1.2L1056.2,403.7z M1056.8,403.2l0.6-1l0.6,0.1L1056.8,403.2z&#10;&#9; M1059.3,401.2l-0.8,0.3l-0.3,0.6l-0.7-0.1l0.6-0.9l1.3-0.3L1059.3,401.2z M1059.4,400.6l-1.2,0.3l1-1.7l0.4,0.2L1059.4,400.6z&#10;&#9; M1059.4,398.9l0.3-0.5h0l-0.1,0.6L1059.4,398.9z M1059.6,401.1l0.1-0.4l0.7-0.2L1059.6,401.1z M1060.6,400.3l-0.9,0.2l0.1-1&#10;&#9;l1.1,0.6L1060.6,400.3z M1061.6,399.5l-0.1-0.2l-0.6-1.8l2.2-0.8l-1.2,2.5L1061.6,399.5z M1062.1,399l1.1-2.3l2.2-0.7L1062.1,399z&#10;&#9; M1065.6,395.7l-2.3,0.8l0.8-1.7l1.7,0.7L1065.6,395.7z M1066.5,394.9l-0.2-0.3l-0.6-1.4l1.6,0l-0.5,1.3L1066.5,394.9z M1067,394.3&#10;&#9;l0.4-1.1l0.5,0L1067,394.3z M1069.1,391.9l-0.4,0.2l-0.3,0.7l-0.2,0.2l-0.7,0l0.4-1l1.2-0.6L1069.1,391.9L1069.1,391.9z&#10;&#9; M1069.1,387.7l-0.8-1.9l0.9,1.7L1069.1,387.7z M1069.2,388.7l1.1,1.3l-1.1-0.3L1069.2,388.7z M1069.4,391.5l0-0.3l0.5-0.2&#10;&#9;L1069.4,391.5z M1070.1,390.7l-0.8,0.4l-0.1-0.9l1.1,0.3L1070.1,390.7z M1071.2,389.3l-0.3,0.4l-0.3-0.3l-0.8-1.5l2.1-1.2&#10;&#9;L1071.2,389.3z M1071.4,389.1l0.7-2.4l1.9-1.1L1071.4,389.1z M1074.1,385.3l-2,1.2l0.5-1.8l1.7,0.3L1074.1,385.3z M1074.8,384.2&#10;&#9;l-0.4-0.4l-0.7-1l1.6-0.3l-0.2,1.3L1074.8,384.2z M1075.3,383.5l0.2-1.1l0.5-0.1L1075.3,383.5z M1076.4,383.1l0.1-0.1&#10;&#9;C1076.5,383,1076.5,383,1076.4,383.1L1076.4,383.1z M1076.9,380.7L1076.9,380.7l-0.2,0.4l-0.5,0.9l-0.6,0.1l0.2-1.1l1.1-0.8l0.1,0.4&#10;&#9;L1076.9,380.7z M1077.1,380.3l-0.1-0.3l0.4-0.3L1077.1,380.3z M1077.6,379.5l-0.6,0.4l-0.2-0.8l1,0.1L1077.6,379.5z M1078.2,378.3&#10;&#9;l-0.5-0.4l-0.8-1l0-0.1l1.8-1.6l-0.2,2.7L1078.2,378.3z M1078.6,377.5l0.2-2.5l1.6-1.4L1078.6,377.5z M1080.5,373.4l-1.7,1.5&#10;&#9;l0.2-1.9l1.7,0L1080.5,373.4z M1081.2,371.6l-0.2,0.6l-0.7-0.5l-0.7-0.7l1.5-0.6V371.6z M1081.2,370l-1.5,0.7l1.5-1.8L1081.2,370z&#10;&#9; M1081.2,368.7l-1.5,1.7l1.2-3.7l0.2,0L1081.2,368.7z M1081.2,366.4L1081.2,366.4v-0.3V366.4z M1081.3,371.3l0-1l0.4-0.2&#10;&#9;L1081.3,371.3z M1082.3,370.9l0-0.1C1082.3,370.8,1082.3,370.8,1082.3,370.9L1082.3,370.9z M1081.8,369.7l-0.5,0.2l0-1.1l1-1.1&#10;&#9;l0.1,0.3L1081.8,369.7z M1082.5,367.7l-0.1-0.2l0.2-0.2L1082.5,367.7z M1082.7,367l-0.4,0.4l-0.3-0.8l0.8-0.1L1082.7,367z&#10;&#9; M1083.1,365.7l-0.8-0.5l-0.6-0.5l0.1-0.2l1.3-1.9l0.2,2.6L1083.1,365.7z M1083.4,364.7l-0.2-2.4l1.2-1.6L1083.4,364.7z&#10;&#9; M1084.4,360.4l-1.2,1.8l-0.2-1.9l1.5-0.3L1084.4,360.4z M1084.6,359l-1-0.5l-0.4-0.3l1.4-0.9l0.2,1.1L1084.6,359z M1084.8,358&#10;&#9;l-0.2-0.8l0.3-0.2L1084.8,358z M1084.9,356.6l-0.4,0.3l-0.2-1.2l0.7-1.3l0.1,0.2L1084.9,356.6z M1085.3,354.2L1085.3,354.2l0-0.2&#10;&#9;L1085.3,354.2z M1085.3,353.7l-0.2,0.3l-0.5-0.6l0.7-0.2L1085.3,353.7z M1085.5,352.2l-1.2-0.5l-0.3-0.2l0-0.4l0.9-2.1l0.7,2.4&#10;&#9;L1085.5,352.2z M1085.5,351.2l-0.6-2.2l0.7-1.8L1085.5,351.2z M1085.6,357.8l0-0.1C1085.7,357.7,1085.7,357.7,1085.6,357.8&#10;&#9;L1085.6,357.8z M1085.6,346.9l-0.8,1.9l-0.5-1.9l1.3-0.5L1085.6,346.9z M1085.6,345.4l-1.4-0.4l-0.1,0l1.1-1.2l0.3,0.9L1085.6,345.4&#10;&#9;z M1085.5,344.3l-0.2-0.6l0.2-0.2L1085.5,344.3z M1085.5,343.1l-0.3,0.3l-0.4-1.2l0.4-1.5l0.1,0.1L1085.5,343.1z M1085.2,340.1&#10;&#9;l-0.1,0.2l-0.5-0.5l0.6-0.3L1085.2,340.1z M1085.1,338.5l-1.5-0.3l-0.1-0.4l0.4-2.2l1,2.1L1085.1,338.5z M1084.9,337.4l-1-2l0.3-1.8&#10;&#9;L1084.9,337.4z M1084.4,330l0,0.6l-0.2-0.8C1084.2,329.9,1084.3,329.9,1084.4,330z M1084.1,332.7l0.1,0.7l-0.3,1.9l-0.9-1.8&#10;&#9;L1084.1,332.7z M1082.8,333.1l-0.1-0.3l-0.1-0.6l1.4,0.2L1082.8,333.1z M1083.6,330.9l0.2,0.8l-1.4-0.2l0.8-1.3L1083.6,330.9z&#10;&#9; M1083.5,327l-0.1,0.2l-0.1-0.5L1083.5,327z M1083.4,330l0.2,0.6l-0.3-0.4L1083.4,330z M1082.6,327.2l0.7,2.5l-0.2,0.3l-0.7-1.1&#10;&#9;L1082.6,327.2L1082.6,327.2z M1082.4,326.7L1082.4,326.7l-0.6-0.3l0.4-0.3L1082.4,326.7z M1081.5,326.2l-0.8-0.5l1.3,0L1081.5,326.2&#10;&#9;z M1081.9,325.1l-1.4,0l-0.2-0.5l-0.1-2.2l1.3,1.8L1081.9,325.1z M1081.5,324l-1.2-1.7l-0.1-1.7L1081.5,324z M1080.3,324.3l-1.5-3.8&#10;&#9;l0.1-0.1l1.3,1.8L1080.3,324.3z M1079.8,319.6l0.3,0.7l0.1,1.8l-1.2-1.7L1079.8,319.6z M1079.6,316.9l0.1,0.7l-0.5-0.9&#10;&#9;C1079.4,316.7,1079.4,316.8,1079.6,316.9z M1078.6,317.2l0.1,0.3L1078.6,317.2L1078.6,317.2z M1078.9,317.8l0.5,0.9l-1.3,0.1&#10;&#9;l0.5-1.4L1078.9,317.8z M1078.1,314.1c0,0.1,0,0.2,0,0.3l0,0l-0.3-0.6L1078.1,314.1z M1078.4,316.9l-0.1,0.2l-0.9-1l-0.3-1.6&#10;&#9;L1078.4,316.9z M1077.3,315.9l-1.4-1.6l0.3-0.3l0.9,0.4L1077.3,315.9z M1077,314l-0.6-0.2l0.3-0.4L1077,314z M1076,313.6l-0.7-0.3&#10;&#9;l1.1-0.2L1076,313.6z M1076.1,312.6l-1.2,0.2l-0.3-0.5l-0.6-2.1l1.5,1.4L1076.1,312.6z M1075.4,311.4l-1.4-1.3l-0.4-1.5&#10;&#9;L1075.4,311.4z M1072.9,307.5l0.5,0.8l0.5,1.7l-1.6-1.5L1072.9,307.5z M1072,308.2L1072,308.2l-0.4-0.6l1-0.3L1072,308.2z&#10;&#9; M1072.2,304.8l0.3,0.8l-0.7-0.8C1071.9,304.8,1072,304.8,1072.2,304.8z M1071.4,305.6L1071.4,305.6L1071.4,305.6L1071.4,305.6z&#10;&#9; M1071.4,305.7l0.2,0.2l0.7,0.9l-1.1,0.3L1071.4,305.7z M1070.2,302.4C1070.2,302.5,1070.2,302.5,1070.2,302.4&#10;&#9;c0,0.1,0.1,0.3,0.1,0.4l-0.1,0l-0.5-0.6L1070.2,302.4z M1071.1,305.3l0,0.1l-1.2-0.9l-0.6-1.4L1071.1,305.3z M1069.8,304.4l-1.8-1.4&#10;&#9;l0.2-0.4l1,0.2L1069.8,304.4z M1068.5,302.1l0.4,0.5l-0.6-0.1L1068.5,302.1z M1068,302.4l-0.6-0.1l0.9-0.4L1068,302.4z&#10;&#9; M1067.9,301.3l-1,0.4l-0.5-0.5l-1-1.9l1.6,1L1067.9,301.3z M1066.8,300.3l-1.5-0.9l-0.7-1.3L1066.8,300.3z M1064.4,297.8l0.8,1.4&#10;&#9;l-1.9-1.2l0.4-1L1064.4,297.8z M1063.3,296.9l-0.3,0.9l-0.4-0.4L1063.3,296.9z M1062.5,294.6l0.4,0.7l-0.9-0.8&#10;&#9;C1062.2,294.6,1062.3,294.6,1062.5,294.6z M1062,295.6l1,0.8l-0.8,0.5l0,0L1062,295.6L1062,295.6z M1061.8,296.6l-0.2-0.2l-1.2-1.7&#10;&#9;l1.3,0.7L1061.8,296.6z M1061.6,295.3L1061.6,295.3l-1.4-0.7l-0.8-1.2L1061.6,295.3z M1060.4,293.2&#10;&#9;C1060.4,293.2,1060.4,293.2,1060.4,293.2L1060.4,293.2L1060.4,293.2z M1060.3,292.6c0,0.1,0,0.2,0.1,0.3h-0.3l-0.6-0.5L1060.3,292.6&#10;&#9;z M1058.3,292.5l0.5,0.4l-0.6,0L1058.3,292.5z M1058.1,293.2h1l0.1,0.1l0.9,1.3l-2.1-1L1058.1,293.2z M1057.8,292.9h-0.5l0.6-0.5&#10;&#9;L1057.8,292.9z M1057.5,291.9l-0.6,0.4l-0.2,0.1l-0.6-0.4l-1.4-1.6l1.6,0.6L1057.5,291.9z M1055.9,291.9l-3.4-2.3l2.1,0.8&#10;&#9;L1055.9,291.9z M1056.2,291l-1.5-0.6l-0.9-1.1L1056.2,291z M1052.5,288.5l1,0.7l1,1.2l-2.2-0.9L1052.5,288.5z M1055.9,292.9l-3.9,2&#10;&#9;c-0.2-0.1-0.4-0.3-0.6-0.4l0.7-4.1L1055.9,292.9z M1052.1,288.6l-0.1,0.7l-0.4-0.3L1052.1,288.6z M1051.3,288.4l-0.3,0.2l-0.4-1.1&#10;&#9;l1,0.6L1051.3,288.4z M1051,286.5l0.4,0.5l-0.8-0.4C1050.8,286.6,1050.9,286.5,1051,286.5z M1050.7,288.5l-0.3-0.2l-1.6-1.4l1.5,0.4&#10;&#9;L1050.7,288.5z M1050.1,288.2l-3.5-1.9l2.1,0.6L1050.1,288.2z M1050.2,287.2l-1.5-0.4l-1-0.9L1050.2,287.2z M1048.1,284.9&#10;&#9;c0,0.1,0.1,0.2,0.1,0.3l-0.1,0l-0.8-0.4L1048.1,284.9z M1046.3,285.1l0.6,0.3l-0.6,0.1L1046.3,285.1z M1046.2,285.8l1-0.2l0.2,0.1&#10;&#9;l1.1,1l-2.2-0.6l-0.1,0L1046.2,285.8z M1046.2,287l4,2.2l-3.7,2.4c-0.2-0.1-0.4-0.2-0.6-0.4L1046.2,287z M1045.9,285.3l0,0.4&#10;&#9;l-0.3,0.1L1045.9,285.3z M1045.5,284.8l-0.2,0.3l-0.5,0.4l-0.6-0.3l-1.7-1.2l1.6,0.3L1045.5,284.8z M1043.8,284.1l-1.4-0.3l-1.1-0.8&#10;&#9;L1043.8,284.1z M1041,282.9l1.2,0.9l-2.3-0.4l-0.1-0.1l-0.1-0.9L1041,282.9z M1040.1,290l-21.7,48.1c-0.1-0.1-0.3-0.1-0.4-0.1&#10;&#9;l16.5-50C1036.4,288.5,1038.3,289.2,1040.1,290z M1039.7,287.6l-0.7-3.8l0.6,0.2L1039.7,287.6z M1039.4,282.6l0,0.5l-0.3-0.1&#10;&#9;L1039.4,282.6z M1038.9,282.1l-0.1,0.2l-0.4,0.4l-0.5-0.9L1038.9,282.1z M1037.9,280.6l0.6,0.5l-1.2-0.4l0,0&#10;&#9;C1037.5,280.7,1037.7,280.7,1037.9,280.6z M1037.2,281.6l-1.4-0.1l-1.1-0.7L1037.2,281.6z M1034.8,279.7c0.1,0.1,0.1,0.2,0.2,0.3&#10;&#9;l-0.2,0.1l-0.9-0.3L1034.8,279.7z M1033.7,280.5l-0.6,0.3l-0.1-0.5L1033.7,280.5z M1032.7,280.6l0,0.3l-0.2,0.1L1032.7,280.6z&#10;&#9; M1032.9,281.9l0.5,3.3l-1-3.5L1032.9,281.9z M1032.2,280.1L1032.2,280.1l-0.5,0.7l-0.6-0.1l-1.9-0.9l1.5,0L1032.2,280.1z&#10;&#9; M1030.4,279.7l-1.4,0l-1.2-0.5L1030.4,279.7z M1027.5,279.2l1.3,0.6l-2.2,0l-0.3-0.1l-0.2-0.9L1027.5,279.2z M1025.8,279.4l0.1,0.3&#10;&#9;l-0.1,0L1025.8,279.4z M1026.1,280.5l0.8,3l-1.2-3.1L1026.1,280.5z M1027,284.7c-1.5-0.3-3.1-0.5-4.6-0.7l2.9-3.6L1027,284.7z&#10;&#9; M1025.2,278.8l-0.4,0.6l-0.6-0.6L1025.2,278.8z M1023.8,277.5l0.8,0.4l-1.1-0.1l-0.1-0.1C1023.5,277.6,1023.6,277.6,1023.8,277.5z&#10;&#9; M1023.4,278.6l-1.3,0.2l-1.2-0.4L1023.4,278.6z M1021.3,277.5C1021.3,277.5,1021.4,277.6,1021.3,277.5L1021.3,277.5L1021.3,277.5z&#10;&#9; M1020.7,277.2c0.1,0.1,0.2,0.1,0.3,0.2l-0.2,0.2l-1-0.1L1020.7,277.2z M1019.8,278.3l-0.6,0.4l-0.2-0.5L1019.8,278.3z&#10;&#9; M1018.8,278.8L1018.8,278.8l0,0.1L1018.8,278.8z M1020.6,283.8c-1.5-0.1-3.1-0.2-4.7-0.2l2.5-3.9L1020.6,283.8z M1018.2,278.1&#10;&#9;l-0.4,0.8h-0.5l-2.1-0.4l1.4-0.3L1018.2,278.1z M1016.3,278.1l-1.3,0.3l-1.3-0.3L1016.3,278.1z M1013.4,278.2l1.5,0.3l-2.1,0.5h-0.5&#10;&#9;l-0.4-0.8L1013.4,278.2z M1011.6,279.7l2.5,3.9c-1.6,0-3.1,0.1-4.6,0.2L1011.6,279.7z M1011.2,278.8l0,0.2l-0.1,0L1011.2,278.8z&#10;&#9; M1011.1,278.2l-0.2,0.5l-0.6-0.4L1011.1,278.2z M1009.5,277.2l0.8,0.2l-1,0.1l-0.1-0.1C1009.2,277.4,1009.4,277.3,1009.5,277.2z&#10;&#9; M1009.3,278.4l-1.2,0.4l-1.3-0.1L1009.3,278.4z M1007.1,277.7c0.1,0,0.2,0,0.3,0.1L1007.1,277.7L1007.1,277.7z M1006.5,277.5&#10;&#9;c0.1,0.1,0.2,0.2,0.3,0.2l-0.2,0.2l-1.1,0.1L1006.5,277.5z M1005.8,278.7l-0.6,0.7l-0.4-0.6L1005.8,278.7z M1007.6,284&#10;&#9;c-1.5,0.2-3.1,0.4-4.6,0.7l1.7-4.3L1007.6,284z M1003.1,283.6l0.8-3.1l0.4-0.1L1003.1,283.6z M1004.3,279.4l0.1,0.3l-0.2,0&#10;&#9;L1004.3,279.4z M1004,279l-0.2,0.9l-0.3,0.1l-2.2,0l1.3-0.6L1004,279z M1002.3,279.3l-1.2,0.5l-1.4,0L1002.3,279.3z M999.4,279.9&#10;&#9;l1.5,0l-1.9,0.9l-0.6,0.1l-0.5-0.6l0-0.1L999.4,279.9z M997.4,280.8l0.2,0.4l-0.2-0.1L997.4,280.8z M997.7,281.9l-1.1,3.5l0.6-3.3&#10;&#9;L997.7,281.9z M997.1,280.4l-0.1,0.5l-0.6-0.3L997.1,280.4z M995.3,279.8l0.9,0.1l-0.9,0.3l-0.2-0.1&#10;&#9;C995.2,280,995.2,279.9,995.3,279.8z M994.8,280.3L994.8,280.3l-0.1,0.1C994.7,280.3,994.8,280.3,994.8,280.3z M993.2,280.8&#10;&#9;C993.2,280.8,993.2,280.8,993.2,280.8L993.2,280.8L993.2,280.8z M995.5,280.9l-1.1,0.7l-1.4,0.1L995.5,280.9z M992.5,280.7&#10;&#9;c0.1,0,0.3,0.1,0.5,0.1l-0.1,0.2l-1.2,0.4L992.5,280.7z M992.2,282l-0.5,0.9l-0.4-0.4l-0.1-0.2L992.2,282z M990.7,282.8l0.3,0.4&#10;&#9;l-0.3,0.1L990.7,282.8z M990.7,284.2l0.6-0.2l-0.8,3.8L990.7,284.2z M990.4,282.6l0,0.9l-0.1,0.1L988,284l1.2-0.9L990.4,282.6z&#10;&#9; M988.9,283.2l-1.1,0.8l-1.4,0.3L988.9,283.2z M986,284.4l1.6-0.3l-1.7,1.2l-0.6,0.3l-0.4-0.3l-0.2-0.3L986,284.4z M984.7,285.9&#10;&#9;l-0.4-0.1l0-0.4L984.7,285.9z M984.2,291.3c-0.2,0.1-0.4,0.3-0.6,0.4l-3.5-2.3l4-2.2L984.2,291.3z M983.9,285.4l0,0.4l-0.6-0.1&#10;&#9;L983.9,285.4z M984,286l0,0.3l0,0l-2.2,0.6l1.1-1l0.2-0.1L984,286z M982.2,285.1l0.7-0.1l-0.8,0.4l-0.1,0&#10;&#9;C982.1,285.3,982.2,285.2,982.2,285.1z M982.5,286.1l-1,0.9l-1.5,0.4L982.5,286.1z M979.4,286.5c0.1,0,0.3,0.1,0.4,0.1&#10;&#9;c0,0,0.1,0,0.1,0l0,0l-1.2,0.6L979.4,286.5z M979.6,287.7l-0.4,1.1l-0.3-0.2l-0.4-0.4L979.6,287.7z M978.7,289.3l-0.4,0.3l-0.1-0.8&#10;&#9;L978.7,289.3z M978.7,294.6c-0.2,0.1-0.4,0.3-0.6,0.4l-3.7-1.9l3.7-2.5L978.7,294.6z M974.4,292.2l1.3-1.5l2-0.8L974.4,292.2z&#10;&#9; M977.8,288.8l0.2,1l-2.2,0.9l1-1.2L977.8,288.8z M976.5,289.6l-0.9,1.1l-1.5,0.6L976.5,289.6z M973.9,291.4l1.6-0.7l-1.4,1.6&#10;&#9;l-0.6,0.4l-0.2-0.1l-0.6-0.5L973.9,291.4z M973,293.2h-0.5l-0.1-0.5L973,293.2z M972,292.7l0.1,0.4h-0.6L972,292.7z M971.2,293.4h1&#10;&#9;l0.1,0.3l-2,1L971.2,293.4L971.2,293.4z M970.4,292.8l0.5-0.2l-0.6,0.5C970.4,293,970.4,292.9,970.4,292.8z M968.7,295.5l2.2-1.8&#10;&#9;l-0.8,1.2L968.7,295.5L968.7,295.5z M968.7,295.6l1.3-0.7l-1.2,1.7l-0.2,0.2L968.7,295.6z M972.6,299.3c-1.1,0.9-2.2,1.9-3.3,2.9&#10;&#9;l-0.8-4.3L972.6,299.3z M967.9,294.8C967.9,294.8,967.9,294.9,967.9,294.8c0.2,0,0.3,0,0.5-0.1l-0.9,0.8L967.9,294.8z M968.4,295.8&#10;&#9;L968.4,295.8l-0.1,1.3h0l-0.9-0.5L968.4,295.8z M967.8,297.6l-0.4,0.5l-0.3-0.9L967.8,297.6z M966.7,297.3l0.4,1l-1.9,1.2l0.8-1.4&#10;&#9;L966.7,297.3z M965.8,298.2l-0.7,1.3l-1.5,0.9L965.8,298.2z M963.4,300.7l1.6-1l-1,1.8l-0.4,0.5l-1-0.4L963.4,300.7z M963.1,302.5&#10;&#9;l-0.7,0.1l-0.2-0.5L963.1,302.5z M961.9,302.3l0.2,0.4l-0.6,0.1L961.9,302.3z M962.2,302.9l0.2,0.4l-1.7,1.3l0.6-1.5L962.2,302.9z&#10;&#9; M960.8,302.4l-0.2,0.3c0-0.1,0-0.1,0-0.2L960.8,302.4z M961.1,303.3l-0.6,1.4l-1.1,0.9l0-0.1L961.1,303.3z M959.1,305.8&#10;&#9;L959.1,305.8L959.1,305.8L959.1,305.8z M959.1,305.9l0.2,1.4l-1.1-0.3l0.7-0.9L959.1,305.9z M958.3,305.2c0.1,0,0.2,0,0.3-0.1&#10;&#9;l-0.6,0.7L958.3,305.2z M958.9,307.8l-0.4,0.6l0,0l-0.6-0.9L958.9,307.8z M957.6,307.7l0.6,1l-1.6,1.5l0.5-1.7L957.6,307.7z&#10;&#9; M957,308.7l-0.4,1.5l-1.4,1.3L957,308.7z M955,311.8l1.5-1.4l-0.6,2l-0.3,0.5l-1.2-0.2L955,311.8z M955.3,313.5l-0.7,0.3l-0.4-0.5&#10;&#9;L955.3,313.5z M953.9,313.5l0.3,0.4l-0.6,0.3L953.9,313.5z M954.4,314.1l0.3,0.3l-1.4,1.6l0.3-1.6L954.4,314.1z M952.8,313.9&#10;&#9;l-0.1,0.2C952.7,314,952.7,314,952.8,313.9L952.8,313.9z M953.4,314.5l-0.3,1.6l-0.9,1l-0.1-0.2L953.4,314.5z M952,317.3L952,317.3&#10;&#9;l-0.2,0.3L952,317.3z M951.7,317.9l0.4-0.4l0.5,1.4l-1.3-0.1L951.7,317.9z M951,317.2c0.1,0,0.1,0,0.2,0l-0.2,0.5L951,317.2z&#10;&#9; M950.5,320.4l0.3-0.7l0.9,0.9l-1.2,1.7L950.5,320.4z M951.7,320.6L951.7,320.6l-1.4,3.8l0.1-2L951.7,320.6z M950.4,320.6l-0.1,1.7&#10;&#9;l-1.2,1.7L950.4,320.6z M949,324.3l1.3-1.8l-0.1,2.2l-0.2,0.5l-1.4,0L949,324.3z M949.8,325.7l-0.7,0.5l-0.5-0.5L949.8,325.7z&#10;&#9; M948.3,326l0.4,0.4l-0.6,0.4l0-0.1L948.3,326z M947.5,329.2c0.2-0.3,0.3-0.7,0.3-1.1l0.3-0.9l0,0l0.1,1.6l-0.7,1.1l-0.2-0.3&#10;&#9;L947.5,329.2z M947.3,326.7L947.3,326.7L947.3,326.7C947.3,326.7,947.3,326.7,947.3,326.7z M947.2,330l0.1,0.2l-0.3,0.4L947.2,330z&#10;&#9; M947,330.8l0.4-0.7l0.8,1.3l-1.4,0.2L947,330.8z M948,332.1l-0.1,0.6l-0.1,0.3l-1.1-0.7L948,332.1z M946.5,332.6l1.1,0.7l-0.9,1.8&#10;&#9;l-0.3-1.9L946.5,332.6z M946.3,330.3C946.3,330.3,946.3,330.3,946.3,330.3v0.2V330.3z M946.4,333.5l0.3,1.8l-1,2L946.4,333.5z&#10;&#9; M945.7,337.6l1-2.1l0.4,2.2L947,338l-1.5,0.3L945.7,337.6z M946.9,338.7l-0.7,0.7l-0.7-0.4L946.9,338.7z M945.4,339.3l0.6,0.3&#10;&#9;l-0.5,0.5l-0.1-0.2L945.4,339.3z M945.3,340.6l0.1-0.1l0.4,1.5l-0.4,1.2l-0.3-0.3L945.3,340.6z M945.1,343.2l0.2,0.2l-0.3,0.7&#10;&#9;L945.1,343.2z M945,344.4l0.3-0.9l1.1,1.2l-0.1,0l-1.4,0.4L945,344.4z M944.9,346.1l1.3,0.6l-0.5,1.9l-0.8-1.9L944.9,346.1z&#10;&#9; M944.9,346.9l0.7,1.7l-0.6,2.2L944.9,346.9z M945.1,351.9l0-0.7l0.7-2.4l0.9,2.1l0,0.4l-0.3,0.2L945.1,351.9z M945.1,352.8l0.7,0.2&#10;&#9;l-0.5,0.6l-0.2-0.3L945.1,352.8z M945.2,353.6l0.1,0.1l0,0.1L945.2,353.6z M945.3,354.2l0.1-0.2l0.7,1.3l-0.2,1.2l-0.4-0.3&#10;&#9;L945.3,354.2z M945.6,356.6l0.3,0.2l-0.2,0.9L945.6,356.6z M945.8,357.9l0.2-1.1l1.3,0.9l-0.5,0.3l-1,0.5L945.8,357.9z M946,359.5&#10;&#9;l1.5,0.3l-0.2,1.9l-1.2-1.8L946,359.5z M946.2,360.2l1.1,1.6l-0.2,2.4L946.2,360.2z M947.1,364.6l0.2-2.6l1.3,1.9l0,0.2l-0.7,0.6&#10;&#9;l-0.8,0.5L947.1,364.6z M948.9,364.8l-0.4,1l-0.9-0.1L948.9,364.8z M947.5,366l0.8,0.1l-0.3,0.7l-0.4-0.4L947.5,366z M947.9,367.2&#10;&#9;l-0.1-0.4l0.2,0.2L947.9,367.2z M949,370.7l-0.4-1.2l0.4,0.2L949,370.7z M949.1,369.4l-0.5-0.2l-0.6-1.7l0.1-0.3l0.9,1.1&#10;&#9;L949.1,369.4z M949.1,368.1l-0.9-1l0.4-0.9l0.5,0L949.1,368.1z M949.1,365.9l-0.3,0l0.3-0.6l0,0.1L949.1,365.9z M949.1,371l0-1.2&#10;&#9;l1.5,0.7l-0.7,0.7l-0.6,0.4L949.1,371z M949.6,372.4l1.6,0l0.2,1.9l-1.6-1.5L949.6,372.4z M949.9,373.1l1.5,1.4l0.2,2.5L949.9,373.1&#10;&#9;z M952,377.7l-0.2-0.5l-0.2-2.6l1.7,1.6l0,0.1l-0.8,1L952,377.7z M953,379.7l-0.3-0.5l0.4,0.3L953,379.7z M952.6,378.9l-0.2-0.3&#10;&#9;l1-0.1l-0.2,0.8L952.6,378.9z M953.6,380.6l-0.2-0.5l-0.1,0l-0.1-0.1l0.1-0.4l1.1,0.8l0.2,1.1l-0.6-0.1L953.6,380.6z M954.2,381.7&#10;&#9;l0.5,0.1l0.2,1.1L954.2,381.7z M955.3,383.6l-0.3-0.5l-0.2-1.3l1.6,0.4l-0.7,1.1L955.3,383.6z M955.7,384.3l1.7-0.3l0.5,1.8l-2-1.2&#10;&#9;L955.7,384.3z M956.1,384.9l1.9,1.1l0.6,2.4L956.1,384.9z M959.4,388.8l-0.3,0.3l-0.3-0.4l-0.7-2.6l2,1.2L959.4,388.8z M960.6,390.9&#10;&#9;l-0.5-0.6l0.5,0.3L960.6,390.9z M960.6,390.4l-0.8-0.4l-0.2-0.3l1.1-0.3L960.6,390.4z M960.7,389.1l-1,0.3l1.1-1.3L960.7,389.1z&#10;&#9; M961.7,385.1l-0.8,2l-0.2-0.2L961.7,385.1z M961.7,392.3l-0.1-0.2l-0.3-0.7l-0.5-0.2l0,0l0-0.5l1.2,0.6l0.4,1L961.7,392.3z&#10;&#9; M962,392.5l0.5,0l0.4,1.1L962,392.5z M963.4,394.2l-0.3-0.4l-0.5-1.3l1.6,0l-0.6,1.4L963.4,394.2z M964,394.8l1.7-0.7l0.8,1.7&#10;&#9;l-2.3-0.8L964,394.8z M964.5,395.3l2.1,0.8l1.1,2.3L964.5,395.3z M968.2,398.9l-0.3-0.3l-1.2-2.5l2.2,0.8l-0.6,1.8L968.2,398.9z&#10;&#9; M969.1,399.7l-0.3-0.2l1.1-0.5l0.1,1L969.1,399.7z M969.3,399.9l0.7,0.2l0,0.4L969.3,399.9z M970.1,397.8L970.1,397.8l0.3,0.5&#10;&#9;l-0.2,0.1L970.1,397.8z M970.2,398.8l0.3-0.2l1,1.7l-1.2-0.3L970.2,398.8z M971.2,400.9l-0.8-0.3l-0.1-0.5l1.2,0.3l0.5,0.9l-0.7,0.1&#10;&#9;L971.2,400.9z M971.7,401.7l0.6-0.1l0.6,1L971.7,401.7z M973.5,403l-0.1,0.1l-0.3-0.3l-0.7-1.2l1.5-0.2L973.5,403z M973.9,401.1&#10;&#9;l-1.7,0.3l-0.5-0.9L973.9,401.1L973.9,401.1z M971.6,400.3l-1-1.8l0.2-0.1l3.1,2.5L971.6,400.3z M974.1,403.6l1.6-1l1.1,1.6&#10;&#9;l-2.5-0.4L974.1,403.6z M974.6,403.9l2.3,0.4l1.5,2.1L974.6,403.9z M979.1,406.7L979.1,406.7l-0.4-0.2l-1.6-2.2l2.2,0.3L979.1,406.7&#10;&#9;z M979.4,404.5l-2.4-0.4l-1.2-1.7l0.2-0.1L979.4,404.5L979.4,404.5z M976.8,401.9l2.9-1.8c0.1,0,0.2,0.1,0.2,0.1l-0.4,3.4&#10;&#9;L976.8,401.9z M979.7,404.7l0.2,0.1l-0.3,0.7L979.7,404.7z M980.1,407.4l-0.3-0.2l1.1-0.8l0.3,1L980.1,407.4z M981.2,408l-0.9-0.5&#10;&#9;l0.8,0L981.2,408L981.2,408z M981,406.2l0.3-0.2l0.5,0.5l0,0.9l-0.4,0L981,406.2z M981.6,407.9l-0.1-0.4l0.3,0l0,0.4L981.6,407.9z&#10;&#9; M981.8,406.4l-0.4-0.4l0.2-0.1l0.3,0.2L981.8,406.4z M980.9,404.5l3.7-1.5c0,0,0,0,0,0l-2.7,2L980.9,404.5z M982.9,405.6l-0.6-0.3&#10;&#9;l2.7-2.1c0.1,0,0.1,0.1,0.2,0.1l-0.1,3.1L982.9,405.6z M623.9,425.3l2.2-0.9l7.1-3.3l2.4-1.2l0.1,4l-1.3,0.3l-7.7,1.1H623.9z&#10;&#9; M633.9,425.3l1.3-0.2l0.5-0.1l0,0.3H633.9z M637,419.3l3.2-1.7l4.5-2.7l0.2,6.4l-2.3,0.9l-5.4,1.4L637,419.3z M637.1,425.3l0-0.7&#10;&#9;l6.2-1.6l1.6-0.6l0.1,2.9H637.1z M646,414.1l1-0.6l6.5-4.4l0.2-0.2l0.2,8.2l-3.7,2l-4.1,1.6L646,414.1z M646.3,425.3l-0.1-3.4&#10;&#9;l4.9-1.9l2.9-1.5l0.2,6.9L646.3,425.3z M655,408l4.8-3.6l3-2.5l0.2,9.5l-5.5,3.9l-2.3,1.2L655,408z M655.5,425.3l-0.2-7.6l3.2-1.7&#10;&#9;l4.6-3.2l0.3,12.5H655.5z M664.1,400.8l1.8-1.5l5.8-5.4l0.3-0.3l0.2,9.5l-1.6,1.8l-6.2,5.5l0,0L664.1,400.8z M664.6,425.3l-0.3-13.4&#10;&#9;l1-0.7l6.2-5.6l0.5-0.6l0.4,20.3H664.6z M673.1,392.3l4-4.2l3.8-4.5l0.1,7.4l-0.4,0.7l-4.7,6.9l-2.7,3L673.1,392.3z M673.8,425.3&#10;&#9;l-0.5-21.7l3.8-4.3l4-5.8l0.7,31.9H673.8z M682.2,382.1l4.8-6.4l0.9-1.3l-0.5,2l-3,7.9l-2.2,4.3L682.2,382.1L682.2,382.1z&#10;&#9; M683,425.4l-0.7-33l0-0.8l0.1-0.1l3.4-6.6l3-8l1.8-7.5l0.1,4.4l0.8,2.9l0.8,48.7L683,425.4z M758.5,413.5l-3.2,2.2l-0.9-0.4&#10;&#9;L758.5,413.5z M753.1,416.6l0.6,0.3l0,0l-0.4,0.3l-0.1,0.1l-0.3-0.7L753.1,416.6z M727.3,435.4l-0.2-0.4l0-4.2l1.7,0.7l1.1,2.2&#10;&#9;L727.3,435.4z M730.4,433.2l-0.7-1.4l1.6,0.6L730.4,433.2z M732.1,432.1l-2.8-1.1l-1.2-2.5l3.6,1.4l0.9,1.8L732.1,432.1z M736.5,429&#10;&#9;l-0.3-0.7l0.8,0.3L736.5,429z M737.6,428.2l-1.9-0.7l-1-2l4.3,1.7h0L737.6,428.2z M743.2,424.3l-1-0.4l-0.7-1.5l2.9,1.1L743.2,424.3&#10;&#9;z M748.8,420.3l-0.2-0.1l-0.5-1.1l1.4,0.6L748.8,420.3z M751.6,416.7l0.6,1.2l-2.1,1.5l-2.4-0.9L751.6,416.7z M746.6,419l0.3,0.6&#10;&#9;l-0.9-0.3L746.6,419z M747.3,420.4l0.3,0.7l-0.8,0.6l-0.9-1.8L747.3,420.4z M744.5,420l1.2,2.5l-0.8,0.5l-3.8-1.5L744.5,420z&#10;&#9; M739.9,422.1l0.5,1.1l-1.5-0.6L739.9,422.1z M740.8,424l0.7,1.4l-1.2,0.9l-1.5-3.1L740.8,424z M737.3,423.3l1.4,3l-4.3-1.7&#10;&#9;L737.3,423.3z M733.2,425.1l0.7,1.6l-2.2-0.9L733.2,425.1z M734.4,427.6l1,2.1l-0.9,0.6l-1.3-0.5l-1.6-3.3L734.4,427.6z&#10;&#9; M730.1,426.6l1.2,2.5l-3.6-1.4L730.1,426.6z M728.3,430.6l-1.3-0.5l0-2.2L728.3,430.6z M782.5,413.3l0.1-0.2l5.3,2.4l-1.5,0.6&#10;&#9;L782.5,413.3z M788,417.2l-0.4-0.3l0.7-0.3L788,417.2z M793.5,421l-0.3-0.2l0.5-0.2L793.5,421z M794,419.8l-1.4,0.6l-0.4-0.3&#10;&#9;l2.1-0.8L794,419.8z M791.6,419.7l-2.5-1.8l0.7-1.5l4.7,2.2L791.6,419.7z M811.4,426.3l3.2,1.5l-4.8,1.9L811.4,426.3z M809.2,425.2&#10;&#9;l1,0.4l-1.5,0.6L809.2,425.2z M802.4,422.1l0.5,0.2l-0.8,0.3L802.4,422.1z M795.6,422.5l1.4-2.9l4.2,2l-4.4,1.7L795.6,422.5z&#10;&#9; M799.6,425.3l-0.8-0.6l1.3-0.5L799.6,425.3z M798.2,424.3l-0.8-0.5l3.6-1.4l-0.5,1.1L798.2,424.3z M800.6,426l1.2-2.5l0.8-0.3&#10;&#9;l-1.5,3.1L800.6,426z M804.2,423l3.7,1.7l-5.6,2.2L804.2,423z M802.6,427.4l5-2l-0.7,1.5l-3.2,1.2L802.6,427.4z M805.7,429.5&#10;&#9;l-1.3-0.9l2.1-0.8L805.7,429.5z M807.2,430.6l-0.5-0.3l1.5-3.2l1.5-0.6l-1.8,3.8L807.2,430.6z M808.8,431.7l0.6-1.3l4.9-1.9l-1,2&#10;&#9;l-4,1.6L808.8,431.7z M810,432.6l3-1.2l-1.2,2.4L810,432.6z M815.4,432.8l-1.3,2.7l-1.8-1.3l1.6-3.3l1.5-0.6L815.4,432.8z&#10;&#9; M815.5,429.7l-1.1,0.4l1-2.1l0.2,0.1L815.5,429.7z M819.6,348.8L819.6,348.8l0.4-7.1L819.6,348.8z M859.5,392.3l-0.7,33.2h-9.4&#10;&#9;l0.8-49l0.8-2.9l0.1-4.4l1.9,7.5l3,8l3.5,6.6l0.1,0.1L859.5,392.3z M859.5,388.7l-2.3-4.4l-3-7.9l-0.5-2.2l1,1.5l4.9,6.4l0.1,0.1&#10;&#9;L859.5,388.7z M868.1,425.4l-8.1,0l0.6-32.1l4.1,6l3.8,4.3L868.1,425.4z M868.6,401.7l-2.8-3.1l-4.8-6.9l-0.4-0.7l0.1-7.5l3.9,4.6&#10;&#9;l4,4.2L868.6,401.7z M877.4,425.4l-8.1,0l0.4-20.5l0.6,0.7l6.3,5.6l1,0.7L877.4,425.4z M877.7,410.6L877.7,410.6l-6.3-5.6l-1.6-1.8&#10;&#9;l0.2-9.6l0.3,0.4l5.8,5.5l1.8,1.5L877.7,410.6z M886.7,425.5l-7.8,0h-0.3l0.3-12.6l4.7,3.3l3.3,1.7L886.7,425.5z M886.9,416.6&#10;&#9;l-2.4-1.3l-5.6-3.9l0.1-2.9l0-0.3l0.1-6.5l3.1,2.6l4.8,3.6L886.9,416.6z M896,425.5h-8l0.2-6.9l3,1.6l5,1.9L896,425.5z M896.1,420.9&#10;&#9;l-4.2-1.6l-3.8-2l0.2-8.3l0.3,0.2l6.6,4.4l1,0.6L896.1,420.9z M905.3,425.3L905.3,425.3L905.3,425.3l0,0.1l-8,0l0.1-2.9l1.6,0.6&#10;&#9;l6.3,1.6L905.3,425.3z M905.3,423.7l-5.6-1.4l-2.4-0.9l0.2-6.5l4.6,2.7l3.3,1.7L905.3,423.7z M906.6,425.4L906.6,425.4l0-0.3&#10;&#9;l0.6,0.2l0.7,0.1l0.4,0L906.6,425.4z M915.8,425.5l-7.9-1.1l-1.3-0.3l0.1-4l2.5,1.3l7.3,3.3l2.3,0.9H915.8z" style="fill: RGB(252, 213, 105); opacity: 1;" transform="matrix(1, 0, 0, 1, 0, 0)"/></svg>