<?xml version="1.0" encoding="utf-8"?>
<svg viewBox="283.67694091796875 156.57040405273438 710.7999877929688 225.59994506835938" width="710.7999877929688" height="225.59994506835938" xmlns="http://www.w3.org/2000/svg"><path fill="RGB(252, 77, 29)" d="M370.6,473.6L370.6,473.6L370.6,473.6L370.6,473.6l0.1-0.1l0.1-0.1l0-0.1l0-0.1l0,0l0-0.1l0-0.1l0-0.1&#10;&#9;&#9;&#9;l-0.1-0.1l-0.1,0l0,0l-0.1,0l-0.1,0l-0.1,0h0l-0.1,0.1l-0.1,0.1l0,0.1l0,0.1v0v0l0,0.1l0,0.1l0,0.1l0.1,0.1l0.1,0l0,0H370.6&#10;&#9;&#9;&#9;L370.6,473.6L370.6,473.6z M904.6,466.9l0-1l0,0l0-10.6l-0.2-1.8l-0.9-1.6l-1.1-0.8l0.9-0.1l0.1-0.4v-0.5l-0.7-0.1l0-8.1l0.5-0.1&#10;&#9;&#9;&#9;l0.1-0.4V441l-0.5-0.1l-0.2-1.3l-1-1.4l-1.3-0.3l0.1,0l0.2-0.2l0.2-0.2l0.1-0.2l0-0.3l0-0.3l-0.1-0.2l-0.2-0.2l-0.2-0.2l-0.2-0.1&#10;&#9;&#9;&#9;l-0.3-11.5l-0.4,11.5l-0.2,0.1l-0.2,0.2l-0.2,0.2l-0.1,0.2l0,0.3l0,0.3l0.1,0.2l0.2,0.2l0.2,0.2l0.1,0.1l-1.3,0.2l-1,1.3l-0.2,1.3&#10;&#9;&#9;&#9;l-0.4,0.1l-0.1,0.5v0.4l0.7,0.1l0,8.1l-0.6,0.1l-0.1,0.4v0.5l1.1,0.2l-1,0.8l-0.9,1.6l-0.1,0.4l-0.2,1.8l0,10.2l-0.1,0.3l0,1.7&#10;&#9;&#9;&#9;l-0.3,0l0,6l0.1,0H895l0-6.9l-12-0.1l0,7.6l-1.5,11.5l-0.2,1.4h-0.5l0-1.4h0l0.1-27.5l0.4,0l0-3l-0.2-0.9l-2.3,0l0,3.1l0.3,0.8&#10;&#9;&#9;&#9;h0.1l-0.1,17l-1.3-4.7l-3.1-11.5l0.1-7.5l-8-0.1l-0.1,7.5l-3.4,10.3l-0.9,0l-0.1,0.6l0.1-11.9l0.4,0l0-3l-0.7-0.9l-2.4,0l0,3.1&#10;&#9;&#9;&#9;l0.5,0.5l-0.1,12.7l-0.4,0l-0.1,10.5l-0.1,0.2l0,2.9l-0.1,0.2l0-0.7l-7.1,0l-7.2,0l-2.6,0l-0.3-0.8l0.1-12.1l-0.7-0.3l-1.7,0&#10;&#9;&#9;&#9;l-0.1,4.7l-0.9-0.2l-1.1-0.3l-6.4,0l0,1l-2.1,5.2v0l0.2-14.5l-1.3-0.4l-2.1,0l-0.1,6l-1.1-0.3l-1.9-0.4l-8.2,0l0,1.2l-2,4.6&#10;&#9;&#9;&#9;l-0.3,0l-0.3-1.3l-0.6,2.2l0,1.9l-3.2,7.5l-0.4,27.3h-1.2l-0.2-26.8l-0.9-0.1h-0.6l-0.1-17.4h-0.9l-0.1-13.2h-0.6l-0.2-29.6h-0.2&#10;&#9;&#9;&#9;v-0.6l-0.3,0l0-0.5h-0.4v-0.2h-0.8l0-1l0-0.1l-1.9-1.8l-1.8,1.9l-0.1,0.1l0,1.1l-16.5,0v-0.2l-2,0l-0.1,0.2l-0.1,0.2h-0.1&#10;&#9;&#9;&#9;l-0.1,0.3l-0.1,0.3h0l-0.1,0.4l-0.2,0.7l0,2.9l-0.5,0l-0.1,0.4h-0.1l-0.1,0.5h0l-0.1,0.6l0,24l-8.4,0l-0.3-3.9l-0.8-10.4l-1-28.5&#10;&#9;&#9;&#9;l-1,28.5l-0.8,10.4l-0.3,3.9l-7.9,0l0-24l-0.1-0.6h-0.1l-0.1-0.5h-0.1l-0.1-0.4h-0.4l0-2.9l-0.1-0.7l-0.1-0.3h-0.1l-0.1-0.3&#10;&#9;&#9;&#9;l-0.1-0.3h-0.2l0-0.2l0-0.2h-1.1v0.2l-17.3,0l0-1.4l0-0.1l-1.8-2l-1.7,1.8l-0.1,0.1l0,1.4h-1.1v0.2h-0.6l0,0.5h-0.3v0.6h-0.2&#10;&#9;&#9;&#9;l-0.2,29.7h-0.6l-0.1,13.2h-0.8l-0.1,17.4h-0.7l-0.8,0.1l-0.2,26.8h-11.4l0-2.5l-0.2-0.1l-0.7-0.5V489h0.3v0l0-1.3l0.1-0.1&#10;&#9;&#9;&#9;l0.1-0.1l0.1-0.1l0.1-0.1l0.1-0.1l0.1-0.1l0.1,0l0.1,0l0.1,0l0.1,0l0.1,0h0.2v0l0-0.4h0.3v-0.2l-2.2,0l0.1-12.8l0.3-0.1l0.1,0&#10;&#9;&#9;&#9;l0-0.9l0.3-0.1l0.1,0l0-1l0.6-0.3l0.1-0.1l0-0.5l-1.4,0l0-4.7l0-0.9l3.6-2.4l0-0.9l0.9-0.6V461l0.2-0.1l0-1.2l0.8-0.6l0.2-0.1&#10;&#9;&#9;&#9;l0-0.7v-0.1l-4.9,0l0-5.3l1.1-1.1v0l0.8-0.8l0.2-0.2l0-0.8l-2.7,0l0-2.2l0-0.1l0-0.1l0-0.1l0,0h0l-0.2,0l-0.1,0l-0.1,0l-0.2-0.1&#10;&#9;&#9;&#9;l-0.2,0l-0.2,0l-0.2,0l-0.2,0l-0.2,0.1l-0.1,0.1l-0.1,0.1l-0.1,0.1l-0.5,0l-0.5-0.5l-0.5,0l-0.5,0.4l-0.3,0l-0.5-0.5l-0.5,0&#10;&#9;&#9;&#9;l-0.5,0.4l-0.5,0l-0.1-0.1l-0.1-0.1l-0.1-0.1l-0.2-0.1l-0.2,0l-0.2,0l-0.2,0l-0.2,0l-0.2,0.1l-0.2,0.1l-0.1,0.1l-0.1,0.1l-0.5,0&#10;&#9;&#9;&#9;l-0.5-0.5l-0.5,0l-0.5,0.4l-0.3,0l-0.5-0.5l-0.5,0l-0.5,0.4l-0.5,0l-0.1-0.1l-0.1-0.1l-0.2-0.1l-0.2-0.1l-0.2,0l-0.2,0l-0.2,0&#10;&#9;&#9;&#9;l-0.2,0l-0.2,0.1l-0.2,0.1l-0.1,0.1l-0.1,0.1l-0.5,0l-0.5-0.5l-0.5,0l-0.5,0.4l-0.3,0l-0.5-0.5l-0.5,0l-0.5,0.4l-0.5,0l-0.1-0.1&#10;&#9;&#9;&#9;l-0.1-0.1l-0.1-0.1l-0.1,0l-0.1-0.1l-0.2-0.1l-0.2,0l-0.2,0l-0.2,0l-0.2,0l-0.2,0.1l-0.2,0.1l-0.1,0.1l-0.1,0.1l-0.5,0l-0.5-0.5&#10;&#9;&#9;&#9;l-0.5,0l-0.5,0.4l-0.3,0l-0.5-0.5l-0.5,0l-0.5,0.4l-0.5,0l-0.1-0.1l-0.1-0.1l-0.2-0.1l-0.2-0.1l-0.2,0l-0.2,0l-0.2,0l-0.2,0&#10;&#9;&#9;&#9;l-0.2,0.1l-0.2,0.1l-0.1,0.1l-0.1,0.1l-0.5,0l-0.5-0.5l-0.5,0l-0.3,0.3l-0.7-0.1l-0.2-0.2l-0.5,0l-0.2,0.2l-0.2,0l-1,0l-0.1-0.1&#10;&#9;&#9;&#9;l-0.2,0l-0.2,0l-0.2,0l-0.2,0l0,0l-0.7,0l-0.7,0l0,0l-0.5,0l-0.1,0.1l-1.1,0l-0.1-0.1l-0.5,0l0,0l-0.7,0l-0.8,0l0,0l-0.2,0l-0.2,0&#10;&#9;&#9;&#9;l-0.2,0l-0.2,0l-0.2,0.1l-1,0l-0.2,0l-0.2-0.2l-0.5,0l-0.2,0.2l-0.7,0.1l-0.3-0.3l-0.5,0l-0.5,0.4l-0.5,0l-0.1-0.1l-0.1-0.1&#10;&#9;&#9;&#9;l-0.2-0.1l-0.2-0.1l-0.2,0l-0.2,0l-0.2,0l-0.2,0l-0.2,0.1l-0.2,0.1l-0.1,0.1l-0.1,0.1l-0.5,0l-0.5-0.5l-0.5,0l-0.5,0.4l-0.3,0&#10;&#9;&#9;&#9;l-0.5-0.5l-0.5,0l-0.5,0.4l-0.5,0l-0.1-0.1l-0.1-0.1l-0.2-0.1l-0.2-0.1l-0.2,0l-0.2,0l-0.2,0l-0.2,0l-0.2,0.1l-0.1,0l-0.1,0&#10;&#9;&#9;&#9;l-0.1,0.1l0,0l-0.1,0.1l-0.5,0l-0.5-0.5l-0.5,0l-0.5,0.4l-0.4,0l-0.5-0.5l-0.5,0l-0.5,0.4l-0.5,0l-0.1-0.1l-0.1-0.1l-0.2-0.1&#10;&#9;&#9;&#9;l-0.2-0.1l-0.2,0l-0.2,0l-0.2,0l-0.2,0l-0.2,0.1l-0.2,0.1l-0.1,0.1l-0.1,0.1l-0.5,0l-0.5-0.5l-0.5,0l-0.5,0.5l-0.4,0l-0.5-0.5&#10;&#9;&#9;&#9;l-0.5,0l-0.5,0.4l-0.5,0l-0.1-0.1l-0.1-0.1l-0.2-0.1l-0.2-0.1l-0.2,0l-0.2,0l-0.2,0l-0.2,0l-0.2,0.1l-0.2,0.1L655,447l-0.1,0.1&#10;&#9;&#9;&#9;l-0.5,0l-0.5-0.5l-0.5,0l-0.5,0.5l-0.4,0l-0.5-0.5l-0.5,0l-0.5,0.5l-0.5,0l-0.1-0.1l-0.1-0.1l-0.2-0.1l-0.2-0.1l-0.2,0l-0.2,0&#10;&#9;&#9;&#9;l-0.2,0l-0.2,0l-0.2,0.1l0,0l-0.1,0H649h0l0,0l0,0.1l0,0.1l0,0.1l0,2.2l-2.9,0l0,0.8l1,1v0l1.1,1.1l0.1,5.5l-5.1,0v0.1l0,0.7&#10;&#9;&#9;&#9;l0.2,0.1l0.8,0.6l0,1.2l0,0l0.1,0.1v0.3l1,0.6l0,0.9l3.8,2.4l0,0.9l0.1,4.8l-1.5,0l0,0.5l0.1,0.1l0.6,0.3l0,1l0.1,0l0.3,0.1l0,0.9&#10;&#9;&#9;&#9;l0.1,0l0.3,0.1l0.2,13l-2.3,0l0,0.2h0.3l0,0.4v0h0.2l0.1,0l0.2,0l0.1,0l0.1,0l0.1,0l0.1,0.1l0.1,0.1l0.1,0.1l0.1,0.1l0.1,0.1&#10;&#9;&#9;&#9;l0.1,0.1l0,1.3v0h0.4l0.3,22.8l-1.1,0.8l0,2h-10.2l-0.6-1.1l0.1,0l-0.5-1l-0.1,0l-0.1-0.2l0.1-0.1l-0.3-0.3l-0.6-1.1l-0.6-1.4&#10;&#9;&#9;&#9;l-0.1,0l0-0.1l0.1,0l-0.5-1l-0.1,0l0-0.1l0.1,0l-0.5-0.9L624,485.9c0.5-0.7,0.9-1.6,0.9-2.6c0-2-1.3-3.7-3.2-4.2l-6.2-22.6&#10;&#9;&#9;&#9;l-0.7-2.5v-0.1h0l-1.5-5.7c0.8-0.7,1.3-1.8,1.3-3c0-1.1-0.4-2.1-1.1-2.8l0,0l-0.5-0.4l0,0c-0.3-0.2-0.7-0.4-1.1-0.5l-1-8.3l0-0.1&#10;&#9;&#9;&#9;l-2.2-18.6l0-0.3l0,0l0-0.1h0l0-0.1l0,0l-0.1-0.4l-2.1-18.3l0-0.1l0-0.1h0l0-0.1v0l0-0.1l-0.4-8.8l0-0.4h0l0-0.2l0,0l0-0.3&#10;&#9;&#9;&#9;l-1.5-34.6l0-1.3v0l0-0.4v-0.4l0,0l0,0v0h0v0h0l0-0.4h-0.1v0l0,0h0.1v-0.1l0.1,0l0,0l0.3,0l0-0.1l-0.3,0v0l0.3,0l0-0.4h0v-0.1&#10;&#9;&#9;&#9;l0.1,0.1l0.3-0.3l0.1,0l0.1-0.1l-0.1-0.1l0.1-0.1l-0.1-0.1v0l0.1,0.1l0,0l-0.1-0.1v-0.2h-0.1l0,0l0.2-0.2l0,0l0.3,0l0-0.1l-0.4,0&#10;&#9;&#9;&#9;v0l0,0l0,0l0.4,0l0-0.1h0v-0.1l0.4,0l0-0.1h0.4v-4h-0.9l0.1-0.1l0,0l0,0l0.3-0.2c1.4-0.6,2.2-1.5,2.2-2.4c0-1.2-1.3-2.2-3.3-2.9&#10;&#9;&#9;&#9;v-4c0,0,0,0,0-0.1h0.1v0l-0.1,0c0,0,0,0,0,0h0v-0.1h0c0,0,0-0.1,0-0.1h0l0-0.1c0-0.1,0-0.1,0-0.2c0-1.8-0.9-3.4-2.2-4.4V327h-0.3&#10;&#9;&#9;&#9;l0.3,0h-0.3c0,0,0,0,0,0v0h0l0-0.1l0,0l-0.1,0c-0.1,0-0.1-0.1-0.2-0.1l0-0.1v-0.4l0-0.1h0v-0.1l0,0h0v0h-0.1v-0.1l0,0l0.3,0v0l0,0&#10;&#9;&#9;&#9;v-0.6h0v0h-0.2v-0.2v0v0h0v0v0h0l-0.1,0v0h0l0,0l-0.1-0.1v0l0.1-0.1l-0.1-0.1l0.1-0.1l-0.1-0.1l0,0l0.1-0.1l0,0l0,0l0,0l0,0&#10;&#9;&#9;&#9;l-0.1-0.1l0-0.5h0V324v0v-0.1l0,0h0c0-0.1,0-0.1,0-0.2c0,0,0-0.1,0-0.1v0c0-0.2-0.1-0.5-0.3-0.7v0h0v0h0l0-0.3h0v0h0v-0.1h0l0,0v0&#10;&#9;&#9;&#9;h0v0h0v0v0v-0.1h0v0h0v0v0l0-0.5h0c0-0.7-0.3-1.3-0.8-1.6v0l0,0h0c-0.1-0.1-0.2-0.1-0.3-0.1v0v0v0l0,0l0,0c0,0-0.1,0-0.1,0v0v0&#10;&#9;&#9;&#9;l0,0v0c0,0-0.1,0-0.1,0v0l0,0v0c0,0,0,0-0.1,0v0l0,0v0c0,0-0.1,0-0.1,0h0c0,0-0.1,0-0.1,0v0l0,0c0,0-0.1,0-0.1,0l0,0v0&#10;&#9;&#9;&#9;c-0.1,0-0.1,0-0.2,0v0l0,0c-0.7,0.2-1.2,1-1.2,1.9v0.5h0v0v0v0h0v0h0v0v0h0l0,0.2v0v0.2v0v0v0v0l0,0l0,0c-0.2,0.2-0.3,0.4-0.3,0.7&#10;&#9;&#9;&#9;h0v0c0,0,0,0.1,0,0.1c0,0,0,0.1,0,0.1h0l0,0.1l0,0v0.1v0h0l0,0.1h0v0h0v0.1h0v0h0l0,0.5h0v0l0,0.3l0.1,0l0,0l-0.1,0v0l-0.1,0v0h0&#10;&#9;&#9;&#9;v0v0v0v0.2l-0.3,0l0,0.6v0h0l0.1,0l0,0h0l0,0h0h0h0.2v0.1h-0.1v0.1h0.1v0h-0.1v0.1h0.1v0.5l-0.2,0l0,0l0,0h0l-0.3,0v0l0,0l0,0v0v0&#10;&#9;&#9;&#9;v0v0v0h0v0v0h0v0.1v0v0v0h0v0h0v0h0v0v0v0c-1.4,0.9-2.3,2.6-2.3,4.4v1.2l0,0.4l0,0v0.1h0v0.1h0v0v2.3l0,0.4&#10;&#9;&#9;&#9;c-0.2,0.1-0.5,0.2-0.7,0.3l-0.2,0l0,0c-1.4,0.6-2.3,1.5-2.3,2.5c0,1,0.9,1.9,2.4,2.5l0,0l-0.1,0.1l0.1,0.1l0,0l0,0h-0.7l0,1.8h0v0&#10;&#9;&#9;&#9;h0v0.4h0v0h0v0.6h0v0h0v0.5l0,0.2h0v0h0v0.1h0v0.4h0.7l0.2,0.2l0,0.1h0v0l-0.1,0.3l-0.1,0.1l0,0l0,0l0,0l0,0l0.4,0.5l0.1-0.1&#10;&#9;&#9;&#9;l0,0.2v0.4l0.4,0l-0.1,0.1l0.1,0.1l0,0.1h0v0v0v0.1h0v0.1l-0.1,0.1l0.1,0.1l-0.1,0.1l0.1,0.1l0,0.4v0.4v0.1l0,0.4l0,0.4h0v0.1&#10;&#9;&#9;&#9;l0,0.2v0.1l-2.1,34.1l-0.1,0.5l0,0l0,0.1h0v0.7l-0.5,8.4l0,0.2h0l0,0.1h0v0.3l-2.4,18.1l-0.1,0.6l0,0l0,0.1l0,0l0,0.1l0,0l0,0.5&#10;&#9;&#9;&#9;l-2.4,18.1l0,0.1l-0.1,0l-0.1,1.7l-0.9,7.2c-0.4,0.1-0.7,0.2-1.1,0.4l0,0l-0.5,0.4v0c-0.8,0.7-1.3,1.8-1.3,3c0,1.2,0.5,2.4,1.4,3&#10;&#9;&#9;&#9;l-1.4,5l0,0.1l0,0l-0.1,0.4h0v0.1l-0.4,1.4l-6.3,21.6l0.2,0v0l-0.2,0l-0.3,1.2l-0.3,0.8l-0.1,0.1l0,0l-0.1,0.1c-0.1,0-0.2,0-0.2,0&#10;&#9;&#9;&#9;L576,479l0,0.1c-1.9,0.5-3.3,2.2-3.3,4.2c0,1.1,0.4,2,1,2.8l0.1,0.3l-0.2,0.6l0,0l-0.5,1l0,0l-1.1,2l0,0l-0.5,1l0,0l-1.9,3.7&#10;&#9;&#9;&#9;l-0.1,0.2l0,0l-0.5,1v0v0l-0.1,0.1l0,0l0,0.1l-0.8,1.6l0,0.1l0,0l-1.1,2.1l0,0l-0.1,0.1l0,0l-0.1,0.3l-2.4,4.5l-2.5,4.4l0.1,0.1&#10;&#9;&#9;&#9;l0,0l-0.1-0.1l-0.6,1.1l0.1,0l0,0l-0.1,0l-0.3,0.5c0,0-0.5,0.8-1.3,1.9l0.3-70.2l-0.8,0.3l-1.7,1.2l-2.6,2.1l-1.8,1.5l-1.8,3.5&#10;&#9;&#9;&#9;l0-2l-3.7,3.2l-0.8,1.9l-5.5,5.7l0,33.2l4,4.1v0.2l-3-0.2l-0.2-0.1l-0.5-0.1l-1.1-0.2l-1.1-0.1l-0.4,0l-0.5,0l-0.6,0l-0.4,0&#10;&#9;&#9;&#9;l-0.3,0h-0.3l-0.3,0l-0.5,0l-0.6,0l-0.5,0l-1,0.1l-0.5,0.1l-1.1,0.2l-0.4,0.1l-0.1,0l-3.2,0.3l4.1-4.4l-0.1-33.2l-5.4-5.7&#10;&#9;&#9;&#9;l-0.6-1.9l-3.8-3.3l0,2.8l-1.8-4.3l-1.9-1.6l-2.7-2.1l-1.8-1.2l-0.9-0.4l0.5,72.4h-3.6l0-0.3l0.1-90.4l-2.5,0l-0.2-6.2l-0.2-0.5&#10;&#9;&#9;&#9;l-5.8-11.5l-0.2-5.8l-0.1-0.2l-1.9-3.4l0,0.1l0,0L498,400l0,0.2l0.1,5.7l-5.1,12.3l0,0.2l0,0l0,0.3v0l0.2,7.8l-2.3,2.4l0.2,56.9&#10;&#9;&#9;&#9;l-8.5-3.9l-12.1-6.7l-4.3-0.3l-19,0v-7l-0.5-0.1l0-0.9l-0.1-1.3l-0.2-1.3L446,463l-0.4-1.3l-0.4-1.2l-0.5-1.2l-0.6-1.2l-0.7-1.1&#10;&#9;&#9;&#9;l-0.7-1.1l-0.8-1l-0.1-0.1l-0.8-0.9l0-6.1l0-0.5l0-0.5l-0.1-0.5l-0.1-0.5l-0.1-0.5l-0.1-0.5l-0.2-0.5l-0.2-0.4l-0.2-0.4l-0.3-0.4&#10;&#9;&#9;&#9;l-0.3-0.4l0,0l-0.2-0.2h0.1l0-0.7h0v-0.2v-0.1v-0.3l0-0.1l-0.3,0v0.3h0v0.2l0,0.1l0,0.7l-0.2,0.3l-0.3,0.4l0,0l-0.3,0.4l-0.2,0.4&#10;&#9;&#9;&#9;l-0.2,0.4l-0.2,0.5l-0.2,0.5l-0.1,0.5l-0.1,0.5l-0.1,0.5l0,0.5l0,0.5l0,6.1l-0.1,0.1l0-6.7l0,0l-0.1-1.4l0-0.3v0l0-0.3l-0.3-1.9&#10;&#9;&#9;&#9;l-0.4-1.9l-0.6-1.8l-0.7-1.8l-0.8-1.7l-0.9-1.7l-1-1.6l-0.2-0.3l0,0l-0.3-0.4l-0.6-0.8l0,0l-0.2-0.3l-1.2-1.4l-1.3-1.3l0,0&#10;&#9;&#9;&#9;l-0.2-0.2l-1.4-1.1l-0.5-0.3l-0.6-0.2l0.1-7.2v-0.7l0-0.7l-0.1-0.7l-0.1-0.7l0,0l0,0l-0.2-0.7l-0.2-0.6l-0.2-0.6l-0.3-0.6&#10;&#9;&#9;&#9;l-0.3-0.6l-0.4-0.6l0-0.1l-0.4-0.5l-0.3-0.4l0-0.7h0l0-0.3l0-0.1l0-0.1l0-0.4l0-0.1l0,0l0-0.1l-0.4,0l0,0.3h0l0,0.3l0,0.1l0,0.1&#10;&#9;&#9;&#9;l0,1l0,0.1l0,0l0,0.1l-0.2,0.2l-0.4,0.5l-0.4,0.5l-0.3,0.6l-0.3,0.6l-0.3,0.6l-0.2,0.6l-0.2,0.6l-0.1,0.7l0,0.2l-0.1,0.7l-0.1,0.7&#10;&#9;&#9;&#9;l0,0.7l-0.1,7.1l-0.6,0.1l-0.5,0.2l-1.4,1.1l-1.3,1.2l-0.2,0.2l-0.1,0.1l-0.1,0.1l0,0l-0.1,0.1l-1.1,1.1l0,0.1l-0.1,0.1l-1.2,1.5&#10;&#9;&#9;&#9;l-1.1,1.6l-1,1.6l-0.9,1.7l-0.7,1.8l-0.6,1.8l-0.5,1.9l-0.3,1.9l-0.2,1.7l-0.2,0.1l0,1.1h-0.1l0,0.2h0l0,0.2l0,0.1l0,0.6l0,0h0v0&#10;&#9;&#9;&#9;l-0.1,0.2l-0.3,0.3l-0.2,0.4l-0.2,0.4l-0.2,0.4l-0.2,0.4l-0.1,0.4l-0.1,0.4l-0.1,0.4l-0.1,0.4l0,0.4l0,0.4l0,2l-0.4-0.5l-0.8-1&#10;&#9;&#9;&#9;l0.1-6l0-0.5l0-0.5l0-0.1l-0.1-0.5l-0.1-0.5l-0.1-0.5l-0.1-0.5l-0.2-0.5l-0.2-0.4l-0.2-0.4l-0.2-0.4l-0.3-0.4l-0.2-0.3l0-0.6h0&#10;&#9;&#9;&#9;l0-0.2l0-0.1l0-0.3l0-0.1h-0.3l0,0.3H403l0,0.2l0.1,0.1l0,0.7l0,0.1l0.1,0l-0.2,0.2l-0.3,0.4l-0.3,0.4l-0.2,0.4l-0.2,0.4l-0.2,0.4&#10;&#9;&#9;&#9;l-0.2,0.5l-0.1,0.5l-0.1,0.5l-0.1,0.5l0,0.5l0,0.5l-0.1,6.1l-0.9,1l-0.8,1l-0.8,1.1l-0.7,1.1l-0.6,1.2l-0.6,1.2l-0.5,1.2l-0.4,1.3&#10;&#9;&#9;&#9;l-0.3,1.3l-0.3,1.3l-0.2,1.3l-0.1,1.1l-1,0.1l-0.2,5.3l-0.3,0.4l-0.3,0.5l-0.2,0.5l-0.2,0.4l-14.2,0l0.1-1.7h0.1l0-0.5l-0.1,0&#10;&#9;&#9;&#9;l-0.9-2.7l-2.6,0l0-0.1l-0.1-0.2h0l0,0l0,0l0-1l0,0H375l0-0.1l0,0l0,0l0,0l-0.3-0.1l0,0l-0.3,0l0,0l0,0l0,0.1l-0.1,0l0,0l0,1l0,0&#10;&#9;&#9;&#9;l0,0.1h0h0l-0.1,0.2l0,0.3l-1.1,1.9h-0.1l0,0.6l0.1,0l0.4,0l-0.2,4.4l0,1.1l-0.3,0.5l-0.5-0.1l-0.1,0l0-0.4l0-0.5l0-0.5l-0.1-0.4&#10;&#9;&#9;&#9;l-0.1-0.4l-0.1-0.4l-0.2-0.4l-0.2-0.4l-0.2-0.4l-0.3-0.4l-0.3-0.3l-0.3-0.3l-0.4,0.3l-0.3,0.3l-0.3,0.3l-0.3,0.4l-0.2,0.4&#10;&#9;&#9;&#9;l-0.2,0.4l-0.2,0.4l-0.1,0.4l-0.1,0.4l-0.1,0.5l0,0.5l0,0.4l-0.6,0l0,0.5l0.3,0l-0.2,4.7l-0.2,4.7h-0.7l0,0.8l0.1,0l0.4,0&#10;&#9;&#9;&#9;l-0.2,3.8l0-0.5H367h-0.2h-0.1l-0.2,0.5l0,0.5l0.1,0.4l0,0.2l0.1,0.1l0.4,0.1l0,0.5l-0.4-0.2l-0.2-0.1l0-0.2l-0.1-0.1l-0.2,0&#10;&#9;&#9;&#9;l-0.1,0l-0.4,0.2l-0.3,0.2l-0.4,0.8l0,0.2l0.1,0.2l0.1,0l0.3-0.1l0.4-0.1l0.3,0l0.1,0.3l0.2,0.1l-0.2,0.1l0,0.2l0,0.3l0.1,0.3&#10;&#9;&#9;&#9;l0.3,0.1l0.2,0.2l0.1,0.3l-0.1,2l-3.6,0h-0.8l0-0.3l0-0.7l0-0.5l-0.1-0.2l-0.2-0.1l0.6-0.2l0.4-0.2l0-0.2l0-0.8l-0.6-0.5l-0.5-0.3&#10;&#9;&#9;&#9;l-0.5-0.2l-0.6-0.1l-0.5-1.3l-0.1-0.4l-0.1-0.2l-0.2-0.1l0-0.4l-0.3-0.1l0-0.3h-0.2h-0.2l-0.2,0l-0.3,0.3l0,1l-0.2,0.2l-0.4,0&#10;&#9;&#9;&#9;l-0.5-0.1l-0.1-1.4h-0.4l-0.2,0l-0.3,0.5l0,0.6l0.1,0.4l0,0.2l0.1,0.2l0.8,0.2l0.6,0.1l0.2,0l0.2-0.2l0.1,0l0.1,0.5l0,0.2l-0.1,0&#10;&#9;&#9;&#9;l-0.2,0.2l-0.1,0l-0.1,0l-0.4-0.2l-0.8-0.4l-0.2-0.2l0-0.2l-0.1-0.1l-0.2,0l-0.2,0l-0.4,0.2l-0.3,0.3l-0.4,0.9l-0.1,0.2l0.1,0.2&#10;&#9;&#9;&#9;l0.2,0l0.3-0.1l0.4-0.2l0.3,0l0.2,0.3l0.2,0.2l-0.2,0.2l0,0.2l0,0.4l0.1,0.3l0.4,0.2l0.2,0.2l0.6,1.2l0,0.5l-0.2,0l-0.7,15.2h-1.4&#10;&#9;&#9;&#9;l0.1-16.5l-3,0l-1.1,0l0-1.9H349l0-7.9l-1.4,0.2l0,7.7h-1.1l-1.4,0v0.4H342l-0.7-0.2v0h-0.2l-0.7-0.2H339l0-6.1l-1.3,0.2l0,6&#10;&#9;&#9;&#9;l-10.8,0l-12.8-4.6l-14.4,0l0-3.9v-2.6l-0.5-0.3l-0.7-0.1l-1.7-1.3l-0.4-0.2l-4-1.3l-3.1-0.4v-3.4l-0.2-0.1l-3.1-0.8l-0.2-0.1&#10;&#9;&#9;&#9;l-0.6,0l-0.7,0l-0.5,0l-3.1,0.8l-0.3,0.1v3.4l-3,0.4l-3.9,1.2l-0.6,0.2l-1.2,0.9V483v0l0-3.6l-0.1-0.2l0,3.7l-0.7-10l-1.2,0l0-9.2&#10;&#9;&#9;&#9;l-0.2-0.7l0,10l-1.2,0l-0.1,0.9l-25.7-0.1l-0.3-0.9l-2.6,0l-2.1,4.1l-0.6-3.7l-1,6.6h-0.6l0,0.2l-0.2,0.3l-2.8-1.4l0.2-0.3l0,0&#10;&#9;&#9;&#9;l-0.4-0.3l-0.3,0.4l-2.8-1.4l0.2-0.3l0,0l-0.5-0.3l-0.2,0.4l-2.7-1.3l0.2-0.3l0,0L226,475l-0.2,0.4L223,474l0.2-0.3l0,0l-0.4-0.3&#10;&#9;&#9;&#9;l-0.2,0.4l-2.6-1.3l0-0.2l0.1-0.1l0,0l-0.1-0.1l-0.2-2.6l0.1,0l0.1,0l0.8-0.2l0.1,0l0.1-0.1l0-0.1l0-0.1l0-0.1l0-0.1l-0.2-0.2&#10;&#9;&#9;&#9;l-0.1-0.1l-0.1,0l-0.1,0l-0.1-0.1l-9.8-6.8l0.6-0.7l0.4,0.2l0,0l0.3-0.5l-0.3-0.2l2-2.4l0.4,0.2l0.3-0.5v0l-0.3-0.2l2-2.4l0.4,0.2&#10;&#9;&#9;&#9;l0.3-0.5v0l-0.3-0.2l2-2.4l0.4,0.2l0.3-0.5l0,0l-0.3-0.2l2-2.4l0.4,0.2l0,0l0.3-0.5l-0.3-0.2l2.1-2.4l0.4,0.2l0,0l0.3-0.5&#10;&#9;&#9;&#9;l-0.3-0.2l2.1-2.4l0.4,0.2l0,0l0.3-0.4l-0.3-0.2l2.1-2.4l0.4,0.2l0,0l0.2-0.2l-8.7-5.7l-0.1,0.2l0,0l0.3,0.2l-1.4,2.9l-0.3-0.2&#10;&#9;&#9;&#9;l-0.3,0.4l0,0l0.4,0.3l-1.4,2.9l-0.3-0.2l-0.3,0.5l0,0l0.4,0.2l-1.4,2.8l-0.3-0.2l-0.3,0.5v0l0.4,0.2l-1.4,2.8l-0.3-0.2l-0.3,0.5&#10;&#9;&#9;&#9;v0l0.4,0.2l-1.4,2.8l-0.3-0.2l-0.3,0.5l0,0l0.4,0.2l-1.4,2.8l-0.3-0.2l-0.3,0.5l0,0l0.4,0.2l-1.4,2.8l-0.3-0.2l0,0l-0.3,0.5&#10;&#9;&#9;&#9;l0.4,0.2l-0.3,0.7l-1.9-1.4h0h0h0h0h0h0h0h0h0h0h0l-4.6,3.2l-0.9-0.8l0.2-0.4l-0.4-0.3h0l-0.2,0.3l-2.3-2l0.2-0.4l-0.4-0.3l0,0&#10;&#9;&#9;&#9;l-0.1,0.1v4.6l0.9,0.5l-0.2,0.3l0.4,0.2l-1.1,0.8v82h710.8v-79.7L904.6,466.9z M234.4,498L234.4,498l-4.2,0l-3,0l0,2.4l-0.7,1.5&#10;&#9;&#9;&#9;l-6.7,0.1l-0.2-20.9h0l0.8-0.5l-0.1-1.3l1.7,1.5l-0.2,0.3l0,0l0.4,0.3l0.2-0.3l2.3,2l-0.2,0.3l0,0l0.4,0.3l0.2-0.3l2.3,2l-0.2,0.3&#10;&#9;&#9;&#9;l0,0l0.4,0.3l0.2-0.3l2.3,2l-0.2,0.3l0,0l0.2,0.1l5.6-8l0,6.1l0,11.6L234.4,498z M604.6,348.4L604.6,348.4L604.6,348.4&#10;&#9;&#9;&#9;L604.6,348.4z M596.6,440l0.7-7.5l0.6-3.9v0l0,0l0.1-0.3l0,0v0l0,0v0l0,0l0,0l0,0l0.4-5.5l0.1-0.7v0l0.3-3.5l0.2-1.9l0-0.4l0,0&#10;&#9;&#9;&#9;l0-0.5l0,0v-0.1h0v-0.3v0h0l0-0.6l0,0l0-0.1h0v-0.1l0.3-3.8l0-0.2l0.9,11l0,0.5h0v0l0,0l0.2,2.9l0.2,3.3l0.1,0l0,0.1l-0.1,0l0.2,1&#10;&#9;&#9;&#9;l0,0v0l0,0l0.1,0.6h0l0.3,3.5l0,0l-0.1,0.4l0.1,0l0,0h0v0l0,0v0l0.1,0l0,0.4l-0.1,0v0l0.1,0v0l-0.1,0l0.3,3.8l0,0.1l0.4,4.6l0,0.3&#10;&#9;&#9;&#9;h-2.5v0l-0.3,0h-0.3v0h-2.2h-0.3L596.6,440z M594.3,456.3h9.5l0.2,1.1l0.1,0.3l4.4,22.5h-19.3L594.3,456.3z M621,509.7h-0.2v0.3&#10;&#9;&#9;&#9;c-0.3,0.6-0.6,1.4-0.6,2.3c0,0.3,0,0.6,0.1,0.9v0.2h0c0,0.2,0.1,0.3,0.1,0.5l0,0l0.1,0.2c0.1,0.1,0.1,0.3,0.2,0.4h-45&#10;&#9;&#9;&#9;c0.1-0.4,0.2-0.8,0.2-1.3c0-1-0.2-1.8-0.6-2.5l0.2-0.3l0.1-0.2l0,0l0.2-0.3l0.1,0l0.4-0.9l0,0l0.1-0.1l0.1,0l1.8-3.6l-0.1,0&#10;&#9;&#9;&#9;l0.1-0.2c0.3-3.7,10.1-11.1,21.2-11.1c8.4,0,15.1,4.2,18.1,7.8l0,0l0,0l0,0c1,1.3,1.6,2.5,1.6,3.4l0.6,1.3l-0.2,0.1l0.4,0.8l0.1,0&#10;&#9;&#9;&#9;l0,0.1l-0.1,0l0.5,0.8l0.1,0l0.6,1.2C621.1,509.6,621,509.7,621,509.7z M673.3,486.5h-0.3l-0.1,0h-0.1v0l0.4,0L673.3,486.5&#10;&#9;&#9;&#9;L673.3,486.5z M673.7,486.5L673.7,486.5l0.6,0h0.8l-0.2,0l-0.5,0H673.7z M691.3,507.4l-0.8,0l0,4.1v0.2l-0.3,0v1.8l0.3,1.1h-15.1&#10;&#9;&#9;&#9;l0.3-1l0-1.8h-0.3v-0.2l0-4.1l-0.8,0v-0.1l-0.1-18.8l0.3-0.1l0-1.1l0.1-0.1l0.1-0.1l0.1-0.1l0.1-0.1l0.1-0.1l0.1,0l0.1,0l0.1,0&#10;&#9;&#9;&#9;l0.1,0l0.3,0v-0.3l0.2,0v-0.1l-0.3,0l-0.1,0h-0.8v0h-0.3l0.2-2.3l0.8-2.1l1.3-1.8l1.8-1.4l2.1-0.9l2-0.3l0.2,0h0.2l2,0.3l2.1,0.9&#10;&#9;&#9;&#9;l1.8,1.4l1.3,1.8l0.8,2.1l0.2,2.3h-0.4h-1.2v0.1l0.2,0v0.3l0.3,0l0.1,0l0.1,0l0.1,0l0.1,0l0.1,0.1l0.1,0.1l0.1,0.1l0.1,0.1&#10;&#9;&#9;&#9;l0.1,0.1v1.1l0.3,0.1l0,18.7V507.4z" transform="matrix(1, 0, 0, 1, 85.1770248413086, -163.62954711914062)"/></svg>