<?xml version="1.0" encoding="utf-8"?>
<svg viewBox="241.29998779296875 279.8000183105469 174.29998779296875 33.5" width="174.29998779296875" height="33.5" xmlns="http://www.w3.org/2000/svg"><path class="st6" d="M415.6,313.2l0-15.2l-1.1-1.1h-1l0-4.4l-1.9,0l0-4.1h-3.5v4.1l-1.7,0v4.4h-1l-1.1,1l0,5.9h-1.3l0-4.2l-1.2-1.4&#10;&#9;&#9;v-2.4l-0.9-0.7v3.1l-0.3,0v-4.3l-0.9-0.8v5h-0.3v-5.9h-0.9v5.9l-0.2,0v-5.9h-0.9v5.9h-0.3v-5l-1,0.7v4.3l-0.3,0v-3l-0.9,0.8v2.3h0&#10;&#9;&#9;l-1.2,1.5l-2.5,0l0-4.8l-1.6,0l0-0.9l-3.5,0l0,0.9l-1.7,0l0,3.3H383l-1.7,1.7l-1.4,0l0-2.3l-0.8,0l0-7.7l-6.7,0v7.7l-0.7,0l0,2.6&#10;&#9;&#9;l-1.2,0l0-2.6c0,0-1.1-2.9-1.2-5.4c-0.1-3.6-1.1-12.4-2.5-12.4c-1.4,0-2.3,9.1-2.4,12.4c-0.1,2.2-1.3,5.4-1.3,5.4l0,2.5l-3,0l0-2.5&#10;&#9;&#9;l-1.3,0l0-5.3l-3.1,0l0-6.6l-1,0l0-0.7l-2.7,0l0,0.7l-1,0l0,14.4l-3.4,0l0-2.9l-2,0l0-8.3l-5,0l0,3.7l-1.2,0l0-2.4l-4.5,0l-1.1,1.2&#10;&#9;&#9;l0,1.2l-1.2,0l0-2.8l-0.9-0.9l-5,0l0,11.3l-1.6,0l0-17.3l-1.3-1.4l-5.7,0l-1.4,1.3l0,17.3l-1.7,0l0-6.4l-5.2,0.1l0-3.1l-5.6,0&#10;&#9;&#9;l0,10.8l-1.3,0l0-13.8l-2.3-1.3l-2.4,1.3l0,13.8l-1.2,0l0-10.8l-1.7,0c0,0,0-1.6,0-2.4c0-0.8-1.8-4-5.1-4c-4,0-5.1,3.4-5.1,3.9&#10;&#9;&#9;s0,2.5,0,2.5s-0.4,0-0.9,0c-4.1,0-4.4,4.5-4.4,4.5l0,3.2l-5.9,0l0,3l-1,0v-7.8H272l0-0.8l-3.6,0l0,0.9l-0.7,0v7.7l-0.9,0l0,4.2&#10;&#9;&#9;l-1.2,0l0-8.8h0c0,0,0,0,0,0c-1.4,0-2.5-1.1-2.6-2.5v-10.2h0c0,0,0,0,0,0v-0.1h-0.2c-1.3-0.4-2.1-1.4-2.3-2.4v0c0,0,0,0,0,0&#10;&#9;&#9;c0,0,0,0,0,0v0c-0.1,1-1,2-2.3,2.4h-0.2v10.3c0,1.4-1.2,2.5-2.6,2.5l0,0h0l0,8.8l-1.9,0V297l-1.2,0l0-1.1l-3.8,0v1.1h-1.3l0,8.7&#10;&#9;&#9;l-1.7,0v-1.7h-2.7l0,1.6l-1.5,0c0,0,0,5.4,0,7.7H415.6z" style="fill-rule: evenodd; clip-rule: evenodd; fill: RGB(252, 77, 29); opacity: 1;" transform="matrix(1, 0, 0, 1, 0, 0)"/></svg>